%TF.GenerationSoftware,KiCad,Pcbnew,(5.99.0-10457-g21fde9b629)*%
%TF.CreationDate,2021-05-02T13:24:44-05:00*%
%TF.ProjectId,reptile-monitor,72657074-696c-4652-9d6d-6f6e69746f72,1*%
%TF.SameCoordinates,Original*%
%TF.FileFunction,Copper,L3,Inr*%
%TF.FilePolarity,Positive*%
%FSLAX46Y46*%
G04 Gerber Fmt 4.6, Leading zero omitted, Abs format (unit mm)*
G04 Created by KiCad (PCBNEW (5.99.0-10457-g21fde9b629)) date 2021-05-02 13:24:44*
%MOMM*%
%LPD*%
G01*
G04 APERTURE LIST*
%TA.AperFunction,ComponentPad*%
%ADD10R,1.570000X1.570000*%
%TD*%
%TA.AperFunction,ComponentPad*%
%ADD11C,1.570000*%
%TD*%
%TA.AperFunction,ComponentPad*%
%ADD12R,2.000000X2.300000*%
%TD*%
%TA.AperFunction,ComponentPad*%
%ADD13C,2.300000*%
%TD*%
%TA.AperFunction,ComponentPad*%
%ADD14R,1.700000X1.700000*%
%TD*%
%TA.AperFunction,ComponentPad*%
%ADD15O,1.700000X1.700000*%
%TD*%
%TA.AperFunction,ComponentPad*%
%ADD16R,1.000000X1.000000*%
%TD*%
%TA.AperFunction,ComponentPad*%
%ADD17C,2.167346*%
%TD*%
%TA.AperFunction,ComponentPad*%
%ADD18C,1.000000*%
%TD*%
%TA.AperFunction,ComponentPad*%
%ADD19R,1.575000X1.575000*%
%TD*%
%TA.AperFunction,ComponentPad*%
%ADD20C,1.575000*%
%TD*%
%TA.AperFunction,ComponentPad*%
%ADD21C,1.600000*%
%TD*%
%TA.AperFunction,ViaPad*%
%ADD22C,0.762000*%
%TD*%
G04 APERTURE END LIST*
D10*
%TO.N,/LOAD1*%
%TO.C,J7*%
X151868000Y-39430999D03*
D11*
%TO.N,/AC_N*%
X148868000Y-39430999D03*
%TD*%
D12*
%TO.N,/FUSED_AC_L*%
%TO.C,PS1*%
X161250000Y-50969500D03*
D13*
%TO.N,/AC_N*%
X156250000Y-50969500D03*
%TO.N,GND*%
X166450000Y-80369500D03*
%TO.N,+5V*%
X151050000Y-80369500D03*
%TD*%
D14*
%TO.N,+3V3*%
%TO.C,J1*%
X135382000Y-99832000D03*
D15*
%TO.N,/RXD0*%
X135382000Y-102372000D03*
%TO.N,/TXD0*%
X135382000Y-104912000D03*
%TO.N,GND*%
X135382000Y-107452000D03*
%TD*%
D16*
%TO.N,+5V*%
%TO.C,K1*%
X141845000Y-68304999D03*
D17*
%TO.N,/LOAD1*%
X146545001Y-49804998D03*
%TO.N,/FUSED_AC_L*%
X146545001Y-56804999D03*
D18*
%TO.N,/RLY1*%
X146545001Y-68304999D03*
%TD*%
D19*
%TO.N,/AC_L*%
%TO.C,F1*%
X167005000Y-45847000D03*
D20*
%TO.N,/FUSED_AC_L*%
X161925000Y-45847000D03*
%TD*%
D21*
%TO.N,/AC_N*%
%TO.C,RV1*%
X153456000Y-45451000D03*
%TO.N,/FUSED_AC_L*%
X158456000Y-46751000D03*
%TD*%
D14*
%TO.N,/IO18*%
%TO.C,J3*%
X134493000Y-89789000D03*
D15*
%TO.N,/IO19*%
X134493000Y-87249000D03*
%TO.N,/IO15*%
X137033000Y-89789000D03*
%TO.N,/IO5*%
X137033000Y-87249000D03*
%TO.N,/IO21*%
X139573000Y-89789000D03*
%TO.N,/IO22*%
X139573000Y-87249000D03*
%TO.N,/IO23*%
X142113000Y-89789000D03*
%TO.N,/IO36*%
X142113000Y-87249000D03*
%TO.N,/IO39*%
X144653000Y-89789000D03*
%TO.N,/IO25*%
X144653000Y-87249000D03*
%TO.N,/IO26*%
X147193000Y-89789000D03*
%TO.N,/IO27*%
X147193000Y-87249000D03*
%TD*%
D16*
%TO.N,+5V*%
%TO.C,K2*%
X133570000Y-68304999D03*
D17*
%TO.N,/LOAD2*%
X138270001Y-49804998D03*
%TO.N,/FUSED_AC_L*%
X138270001Y-56804999D03*
D18*
%TO.N,/RLY2*%
X138270001Y-68304999D03*
%TD*%
D10*
%TO.N,/LOAD2*%
%TO.C,J8*%
X140946000Y-39430999D03*
D11*
%TO.N,/AC_N*%
X137946000Y-39430999D03*
%TD*%
D10*
%TO.N,/AC_L*%
%TO.C,J2*%
X162766000Y-39430999D03*
D11*
%TO.N,/AC_N*%
X159766000Y-39430999D03*
%TD*%
D22*
%TO.N,/AC_L*%
X163195000Y-43561000D03*
%TO.N,/AC_N*%
X154813000Y-49530000D03*
%TO.N,/LOAD1*%
X145415000Y-47498000D03*
X149225000Y-51308000D03*
X149225000Y-49530000D03*
X149225000Y-47498000D03*
X147320000Y-47498000D03*
X147320000Y-45593000D03*
X149225000Y-45593000D03*
X149225000Y-43815000D03*
X151130000Y-43815000D03*
X152527000Y-41656000D03*
X151130000Y-41656000D03*
%TO.N,/LOAD2*%
X140970000Y-49530000D03*
X140970000Y-47498000D03*
X139065000Y-47498000D03*
X137160000Y-47498000D03*
X137160000Y-45593000D03*
X139065000Y-45593000D03*
X140970000Y-45593000D03*
X140970000Y-41529000D03*
X140970000Y-43561000D03*
X139065000Y-43561000D03*
%TO.N,/AC_N*%
X136144000Y-40005000D03*
X136144000Y-38227000D03*
X138049000Y-36576000D03*
X139954000Y-36576000D03*
X141859000Y-36576000D03*
X143764000Y-36576000D03*
X145542000Y-36576000D03*
X148209000Y-37846000D03*
X147320000Y-36576000D03*
X149225000Y-36576000D03*
X151003000Y-36576000D03*
X152908000Y-36576000D03*
X154813000Y-37211000D03*
X154813000Y-38989000D03*
X158750000Y-37211000D03*
X153035000Y-51308000D03*
X154813000Y-47521000D03*
X154813000Y-43561000D03*
X156845000Y-43561000D03*
X158750000Y-43561000D03*
X158727000Y-41760000D03*
X156845000Y-38989000D03*
X156845000Y-37211000D03*
X153035000Y-49530000D03*
X153035000Y-47498000D03*
X136144000Y-36576000D03*
%TO.N,/AC_L*%
X164973000Y-45466000D03*
X164846000Y-38862000D03*
X166751000Y-38862000D03*
X166728000Y-43538000D03*
X164950000Y-43538000D03*
X163172000Y-41760000D03*
%TO.N,/FUSED_AC_L*%
X161394000Y-56873000D03*
X161394000Y-55095000D03*
X161394000Y-53317000D03*
X160505000Y-47983000D03*
X159616000Y-57762000D03*
X159616000Y-55984000D03*
X159616000Y-54206000D03*
X157838000Y-57762000D03*
X157838000Y-55984000D03*
X156060000Y-57762000D03*
X156060000Y-55984000D03*
X154282000Y-57762000D03*
X154282000Y-55984000D03*
X152504000Y-57762000D03*
X152504000Y-55984000D03*
X150726000Y-57762000D03*
X150726000Y-55984000D03*
X148948000Y-57762000D03*
X148948000Y-55984000D03*
X144503000Y-57762000D03*
X144503000Y-55984000D03*
X142725000Y-57762000D03*
X142725000Y-55984000D03*
X140947000Y-57762000D03*
X140947000Y-55984000D03*
%TO.N,GND*%
X152654000Y-110617000D03*
X143256000Y-117602000D03*
X155575000Y-88646000D03*
X152654000Y-108839000D03*
X150876000Y-108839000D03*
X165129401Y-107001227D03*
X163703000Y-102616000D03*
X164084000Y-89281000D03*
X162687000Y-117602000D03*
X162306000Y-89154000D03*
X149098000Y-112522000D03*
X151384000Y-85344000D03*
X152654000Y-112522000D03*
X162306000Y-90551000D03*
X160147000Y-101092000D03*
X149098000Y-110617000D03*
X137795000Y-113538000D03*
X134150000Y-112776000D03*
X162463944Y-116131745D03*
X150876000Y-110617000D03*
X164465000Y-112015569D03*
X165862000Y-102616000D03*
X165354000Y-89281000D03*
X166751000Y-113030000D03*
X150876000Y-112522000D03*
X160274000Y-117856000D03*
X165098973Y-109072724D03*
X149098000Y-108839000D03*
%TO.N,+3V3*%
X161798000Y-93091000D03*
X162179000Y-114427000D03*
X160274000Y-115951000D03*
X163957000Y-114427000D03*
X167386000Y-102616000D03*
X163195000Y-91821000D03*
%TO.N,/IO0*%
X143002000Y-102108000D03*
X137795000Y-112014000D03*
%TD*%
%TA.AperFunction,Conductor*%
%TO.N,/AC_L*%
G36*
X167137474Y-36957479D02*
G01*
X167185516Y-36961682D01*
X167341555Y-36975334D01*
X167363178Y-36979146D01*
X167513625Y-37019458D01*
X167555718Y-37030737D01*
X167576358Y-37038249D01*
X167757015Y-37122492D01*
X167776026Y-37133468D01*
X167917489Y-37232522D01*
X167939314Y-37247804D01*
X167956138Y-37261922D01*
X168097078Y-37402862D01*
X168111196Y-37419686D01*
X168225532Y-37582974D01*
X168236508Y-37601985D01*
X168310102Y-37759807D01*
X168320751Y-37782643D01*
X168328263Y-37803282D01*
X168379853Y-37995818D01*
X168383667Y-38017448D01*
X168401521Y-38221526D01*
X168402000Y-38232507D01*
X168402000Y-47111493D01*
X168401521Y-47122474D01*
X168383667Y-47326552D01*
X168379853Y-47348182D01*
X168328263Y-47540718D01*
X168320751Y-47561357D01*
X168236508Y-47742015D01*
X168225532Y-47761026D01*
X168149002Y-47870322D01*
X168111196Y-47924314D01*
X168097078Y-47941138D01*
X167956138Y-48082078D01*
X167939314Y-48096196D01*
X167776026Y-48210532D01*
X167757015Y-48221508D01*
X167607116Y-48291408D01*
X167576357Y-48305751D01*
X167555717Y-48313263D01*
X167363178Y-48364854D01*
X167341555Y-48368666D01*
X167185516Y-48382318D01*
X167137474Y-48386521D01*
X167126493Y-48387000D01*
X165996078Y-48387000D01*
X165981972Y-48386208D01*
X165935438Y-48380965D01*
X165805284Y-48366300D01*
X165777777Y-48360021D01*
X165616678Y-48303650D01*
X165591257Y-48291408D01*
X165446737Y-48200600D01*
X165424678Y-48183008D01*
X165303992Y-48062322D01*
X165286400Y-48040263D01*
X165195592Y-47895743D01*
X165183350Y-47870322D01*
X165126979Y-47709223D01*
X165120700Y-47681716D01*
X165100792Y-47505030D01*
X165100000Y-47490922D01*
X165100000Y-46609000D01*
X161920351Y-43429351D01*
X161912056Y-43420200D01*
X161765903Y-43242111D01*
X161752185Y-43221581D01*
X161646524Y-43023904D01*
X161637071Y-43001084D01*
X161572004Y-42786585D01*
X161567186Y-42762359D01*
X161544607Y-42533112D01*
X161544000Y-42520762D01*
X161544000Y-41360935D01*
X164617894Y-41360935D01*
X164631640Y-41570664D01*
X164683376Y-41774376D01*
X164771370Y-41965249D01*
X164892674Y-42136890D01*
X165043226Y-42283551D01*
X165048022Y-42286756D01*
X165048025Y-42286758D01*
X165118454Y-42333817D01*
X165217983Y-42400320D01*
X165223286Y-42402598D01*
X165223289Y-42402600D01*
X165304256Y-42437386D01*
X165411094Y-42483287D01*
X165486692Y-42500393D01*
X165610454Y-42528398D01*
X165610460Y-42528399D01*
X165616091Y-42529673D01*
X165621862Y-42529900D01*
X165621864Y-42529900D01*
X165684342Y-42532355D01*
X165826108Y-42537925D01*
X165944480Y-42520762D01*
X166028398Y-42508595D01*
X166028403Y-42508594D01*
X166034112Y-42507766D01*
X166039576Y-42505911D01*
X166039581Y-42505910D01*
X166227669Y-42442062D01*
X166233137Y-42440206D01*
X166416518Y-42337508D01*
X166578112Y-42203111D01*
X166712509Y-42041517D01*
X166815207Y-41858136D01*
X166882767Y-41659111D01*
X166883595Y-41653402D01*
X166883596Y-41653397D01*
X166912393Y-41454781D01*
X166912926Y-41451107D01*
X166914500Y-41390999D01*
X166895268Y-41181701D01*
X166838217Y-40979413D01*
X166745257Y-40790909D01*
X166619502Y-40622502D01*
X166465163Y-40479833D01*
X166287408Y-40367678D01*
X166092192Y-40289795D01*
X166086532Y-40288669D01*
X166086528Y-40288668D01*
X165891719Y-40249918D01*
X165891714Y-40249918D01*
X165886051Y-40248791D01*
X165880276Y-40248715D01*
X165880272Y-40248715D01*
X165774597Y-40247332D01*
X165675890Y-40246039D01*
X165670193Y-40247018D01*
X165670192Y-40247018D01*
X165474443Y-40280654D01*
X165468746Y-40281633D01*
X165271558Y-40354380D01*
X165266597Y-40357332D01*
X165266596Y-40357332D01*
X165095897Y-40458887D01*
X165095894Y-40458889D01*
X165090929Y-40461843D01*
X165086589Y-40465649D01*
X165086585Y-40465652D01*
X164937249Y-40596617D01*
X164932908Y-40600424D01*
X164802787Y-40765481D01*
X164800098Y-40770592D01*
X164800096Y-40770595D01*
X164746494Y-40872476D01*
X164704924Y-40951487D01*
X164703210Y-40957008D01*
X164703208Y-40957012D01*
X164694525Y-40984977D01*
X164642597Y-41152212D01*
X164617894Y-41360935D01*
X161544000Y-41360935D01*
X161544000Y-38232507D01*
X161544479Y-38221526D01*
X161562333Y-38017448D01*
X161566147Y-37995818D01*
X161617737Y-37803282D01*
X161625249Y-37782643D01*
X161635898Y-37759807D01*
X161709492Y-37601985D01*
X161720468Y-37582974D01*
X161834804Y-37419686D01*
X161848922Y-37402862D01*
X161989862Y-37261922D01*
X162006686Y-37247804D01*
X162028511Y-37232522D01*
X162169974Y-37133468D01*
X162188985Y-37122492D01*
X162369642Y-37038249D01*
X162390282Y-37030737D01*
X162432375Y-37019458D01*
X162582822Y-36979146D01*
X162604445Y-36975334D01*
X162760484Y-36961682D01*
X162808526Y-36957479D01*
X162819507Y-36957000D01*
X167126493Y-36957000D01*
X167137474Y-36957479D01*
G37*
%TD.AperFunction*%
%TD*%
%TA.AperFunction,Conductor*%
%TO.N,/FUSED_AC_L*%
G36*
X161659112Y-44450607D02*
G01*
X161888361Y-44473186D01*
X161912582Y-44478003D01*
X162127088Y-44543072D01*
X162149901Y-44552523D01*
X162347584Y-44658187D01*
X162368111Y-44671903D01*
X162546200Y-44818056D01*
X162555351Y-44826351D01*
X163199649Y-45470649D01*
X163207944Y-45479800D01*
X163354097Y-45657889D01*
X163367813Y-45678416D01*
X163473476Y-45876096D01*
X163482928Y-45898912D01*
X163541879Y-46093250D01*
X163547996Y-46113415D01*
X163552814Y-46137641D01*
X163575393Y-46366888D01*
X163576000Y-46379238D01*
X163576000Y-57906493D01*
X163575521Y-57917474D01*
X163557667Y-58121552D01*
X163553853Y-58143182D01*
X163502263Y-58335718D01*
X163494751Y-58356357D01*
X163410508Y-58537015D01*
X163399532Y-58556026D01*
X163300478Y-58697489D01*
X163285196Y-58719314D01*
X163271078Y-58736138D01*
X163130138Y-58877078D01*
X163113314Y-58891196D01*
X162950026Y-59005532D01*
X162931015Y-59016508D01*
X162773193Y-59090102D01*
X162750357Y-59100751D01*
X162729717Y-59108263D01*
X162537178Y-59159854D01*
X162515555Y-59163666D01*
X162359516Y-59177318D01*
X162311474Y-59181521D01*
X162300493Y-59182000D01*
X136911507Y-59182000D01*
X136900526Y-59181521D01*
X136852484Y-59177318D01*
X136696445Y-59163666D01*
X136674822Y-59159854D01*
X136482283Y-59108263D01*
X136461643Y-59100751D01*
X136438807Y-59090102D01*
X136280985Y-59016508D01*
X136261974Y-59005532D01*
X136098686Y-58891196D01*
X136081862Y-58877078D01*
X135940922Y-58736138D01*
X135926804Y-58719314D01*
X135911522Y-58697489D01*
X135812468Y-58556026D01*
X135801492Y-58537015D01*
X135717249Y-58356357D01*
X135709737Y-58335718D01*
X135658147Y-58143182D01*
X135654333Y-58121552D01*
X135636479Y-57917474D01*
X135636000Y-57906493D01*
X135636000Y-55877850D01*
X135636476Y-55866910D01*
X135654194Y-55663614D01*
X135657979Y-55642065D01*
X135709178Y-55450218D01*
X135716633Y-55429648D01*
X135800252Y-55249540D01*
X135811154Y-55230571D01*
X135924662Y-55067653D01*
X135938680Y-55050855D01*
X136078667Y-54910021D01*
X136095382Y-54895900D01*
X136257620Y-54781409D01*
X136276522Y-54770394D01*
X136277709Y-54769834D01*
X136456126Y-54685690D01*
X136476636Y-54678117D01*
X136668178Y-54625761D01*
X136689704Y-54621846D01*
X136697432Y-54621126D01*
X136892900Y-54602904D01*
X136903805Y-54602363D01*
X146448664Y-54544863D01*
X155363536Y-54491160D01*
X156146331Y-54486444D01*
X156146333Y-54486444D01*
X156718000Y-54483000D01*
X158496000Y-52451000D01*
X158496000Y-48514000D01*
X157948900Y-48135238D01*
X157948897Y-48135236D01*
X157670500Y-47942500D01*
X157397113Y-47753232D01*
X157387462Y-47745838D01*
X157214517Y-47599555D01*
X157197572Y-47582156D01*
X157059730Y-47410183D01*
X157046438Y-47389857D01*
X156944155Y-47194643D01*
X156935009Y-47172145D01*
X156872075Y-46960923D01*
X156867416Y-46937087D01*
X156845587Y-46711642D01*
X156845000Y-46699499D01*
X156845000Y-46297687D01*
X156845607Y-46285337D01*
X156864526Y-46093250D01*
X156869343Y-46069029D01*
X156923572Y-45890260D01*
X156933021Y-45867450D01*
X157021078Y-45702708D01*
X157034801Y-45682171D01*
X157153306Y-45537772D01*
X157170772Y-45520306D01*
X157315171Y-45401801D01*
X157335708Y-45388078D01*
X157500450Y-45300021D01*
X157523260Y-45290572D01*
X157702029Y-45236343D01*
X157726250Y-45231526D01*
X157918337Y-45212607D01*
X157930687Y-45212000D01*
X159893000Y-45212000D01*
X160566286Y-44707036D01*
X160574610Y-44701300D01*
X160734330Y-44600481D01*
X160752265Y-44591084D01*
X160921379Y-44519147D01*
X160940587Y-44512745D01*
X161119037Y-44468827D01*
X161139021Y-44465583D01*
X161327284Y-44450407D01*
X161337408Y-44450000D01*
X161646762Y-44450000D01*
X161659112Y-44450607D01*
G37*
%TD.AperFunction*%
%TD*%
%TA.AperFunction,Conductor*%
%TO.N,/LOAD2*%
G36*
X141991474Y-38100479D02*
G01*
X142039516Y-38104682D01*
X142195555Y-38118334D01*
X142217178Y-38122146D01*
X142367625Y-38162458D01*
X142409718Y-38173737D01*
X142430358Y-38181249D01*
X142611015Y-38265492D01*
X142630026Y-38276468D01*
X142771489Y-38375522D01*
X142793314Y-38390804D01*
X142810138Y-38404922D01*
X142951078Y-38545862D01*
X142965196Y-38562686D01*
X143079532Y-38725974D01*
X143090508Y-38744985D01*
X143164102Y-38902807D01*
X143174751Y-38925643D01*
X143182263Y-38946282D01*
X143233853Y-39138818D01*
X143237667Y-39160448D01*
X143255521Y-39364526D01*
X143256000Y-39375507D01*
X143256000Y-40417845D01*
X143235998Y-40485966D01*
X143213078Y-40512577D01*
X143112908Y-40600424D01*
X142982787Y-40765481D01*
X142980098Y-40770592D01*
X142980096Y-40770595D01*
X142935310Y-40855720D01*
X142884924Y-40951487D01*
X142883210Y-40957008D01*
X142883208Y-40957012D01*
X142831082Y-41124887D01*
X142822597Y-41152212D01*
X142797894Y-41360935D01*
X142811640Y-41570664D01*
X142863376Y-41774376D01*
X142951370Y-41965249D01*
X143072674Y-42136890D01*
X143076808Y-42140917D01*
X143170843Y-42232522D01*
X143205680Y-42294383D01*
X143203495Y-42359352D01*
X143162928Y-42493083D01*
X143153476Y-42515903D01*
X143047815Y-42713581D01*
X143034097Y-42734111D01*
X142887944Y-42912200D01*
X142879649Y-42921351D01*
X141986000Y-43815000D01*
X141986000Y-50794493D01*
X141985521Y-50805474D01*
X141967667Y-51009552D01*
X141963853Y-51031182D01*
X141912263Y-51223718D01*
X141904751Y-51244357D01*
X141820508Y-51425015D01*
X141809532Y-51444026D01*
X141710478Y-51585489D01*
X141695196Y-51607314D01*
X141681078Y-51624138D01*
X141540138Y-51765078D01*
X141523314Y-51779196D01*
X141360026Y-51893532D01*
X141341015Y-51904508D01*
X141183193Y-51978102D01*
X141160357Y-51988751D01*
X141139717Y-51996263D01*
X140947178Y-52047854D01*
X140925555Y-52051666D01*
X140769516Y-52065318D01*
X140721474Y-52069521D01*
X140710493Y-52070000D01*
X137292507Y-52070000D01*
X137281526Y-52069521D01*
X137233484Y-52065318D01*
X137077445Y-52051666D01*
X137055822Y-52047854D01*
X136863283Y-51996263D01*
X136842643Y-51988751D01*
X136819807Y-51978102D01*
X136661985Y-51904508D01*
X136642974Y-51893532D01*
X136479686Y-51779196D01*
X136462862Y-51765078D01*
X136321922Y-51624138D01*
X136307804Y-51607314D01*
X136292522Y-51585489D01*
X136193468Y-51444026D01*
X136182492Y-51425015D01*
X136098249Y-51244357D01*
X136090737Y-51223718D01*
X136039147Y-51031182D01*
X136035333Y-51009552D01*
X136017479Y-50805474D01*
X136017000Y-50794493D01*
X136017000Y-45871238D01*
X136017607Y-45858888D01*
X136040186Y-45629641D01*
X136045004Y-45605415D01*
X136110071Y-45390916D01*
X136119524Y-45368096D01*
X136225185Y-45170419D01*
X136238903Y-45149889D01*
X136385056Y-44971800D01*
X136393351Y-44962649D01*
X139700000Y-41656000D01*
X139700000Y-39375507D01*
X139700479Y-39364526D01*
X139718333Y-39160448D01*
X139722147Y-39138818D01*
X139773737Y-38946282D01*
X139781249Y-38925643D01*
X139791898Y-38902807D01*
X139865492Y-38744985D01*
X139876468Y-38725974D01*
X139990804Y-38562686D01*
X140004922Y-38545862D01*
X140145862Y-38404922D01*
X140162686Y-38390804D01*
X140184511Y-38375522D01*
X140325974Y-38276468D01*
X140344985Y-38265492D01*
X140525642Y-38181249D01*
X140546282Y-38173737D01*
X140588375Y-38162458D01*
X140738822Y-38122146D01*
X140760445Y-38118334D01*
X140916484Y-38104682D01*
X140964526Y-38100479D01*
X140975507Y-38100000D01*
X141980493Y-38100000D01*
X141991474Y-38100479D01*
G37*
%TD.AperFunction*%
%TD*%
%TA.AperFunction,Conductor*%
%TO.N,/AC_N*%
G36*
X157867884Y-35306568D02*
G01*
X158089750Y-35327702D01*
X158113207Y-35332211D01*
X158321343Y-35393170D01*
X158343517Y-35402024D01*
X158500003Y-35482471D01*
X158536386Y-35501175D01*
X158556506Y-35514066D01*
X158731924Y-35651561D01*
X158740977Y-35659379D01*
X160510002Y-37339952D01*
X160517118Y-37347283D01*
X160644098Y-37489193D01*
X160656434Y-37505460D01*
X160756070Y-37661688D01*
X160765615Y-37679730D01*
X160838715Y-37850001D01*
X160845220Y-37869342D01*
X160889863Y-38049191D01*
X160893159Y-38069332D01*
X160908586Y-38259133D01*
X160909000Y-38269341D01*
X160909000Y-43174493D01*
X160908521Y-43185474D01*
X160890667Y-43389552D01*
X160886853Y-43411182D01*
X160835263Y-43603718D01*
X160827751Y-43624357D01*
X160743508Y-43805015D01*
X160732532Y-43824026D01*
X160633478Y-43965489D01*
X160618196Y-43987314D01*
X160604078Y-44004138D01*
X160463138Y-44145078D01*
X160446314Y-44159196D01*
X160283026Y-44273532D01*
X160264015Y-44284508D01*
X160106193Y-44358102D01*
X160083357Y-44368751D01*
X160062717Y-44376263D01*
X159870178Y-44427854D01*
X159848555Y-44431666D01*
X159692516Y-44445318D01*
X159644474Y-44449521D01*
X159633493Y-44450000D01*
X157480000Y-44450000D01*
X157132129Y-44728297D01*
X156686637Y-45084690D01*
X156686634Y-45084692D01*
X156210000Y-45466000D01*
X156210000Y-47752000D01*
X156669084Y-48134570D01*
X157272791Y-48637659D01*
X157280951Y-48645088D01*
X157426807Y-48790056D01*
X157441025Y-48806907D01*
X157556188Y-48970548D01*
X157567251Y-48989620D01*
X157652126Y-49170831D01*
X157659695Y-49191540D01*
X157711680Y-49384764D01*
X157715524Y-49406475D01*
X157733517Y-49611337D01*
X157734000Y-49622361D01*
X157734000Y-51556493D01*
X157733521Y-51567474D01*
X157715667Y-51771552D01*
X157711854Y-51793178D01*
X157671542Y-51943625D01*
X157660263Y-51985718D01*
X157652751Y-52006357D01*
X157568508Y-52187015D01*
X157557532Y-52206026D01*
X157478181Y-52319351D01*
X157443196Y-52369314D01*
X157429078Y-52386138D01*
X157288138Y-52527078D01*
X157271314Y-52541196D01*
X157108026Y-52655532D01*
X157089015Y-52666508D01*
X156953981Y-52729476D01*
X156908357Y-52750751D01*
X156887717Y-52758263D01*
X156695178Y-52809854D01*
X156673555Y-52813666D01*
X156517516Y-52827318D01*
X156469474Y-52831521D01*
X156458493Y-52832000D01*
X153059238Y-52832000D01*
X153046888Y-52831393D01*
X152817639Y-52808814D01*
X152793418Y-52803997D01*
X152578912Y-52738928D01*
X152556099Y-52729477D01*
X152358416Y-52623813D01*
X152337889Y-52610097D01*
X152159800Y-52463944D01*
X152150649Y-52455649D01*
X152014351Y-52319351D01*
X152006056Y-52310200D01*
X151859903Y-52132111D01*
X151846185Y-52111581D01*
X151789942Y-52006357D01*
X151740523Y-51913901D01*
X151731071Y-51891084D01*
X151666004Y-51676585D01*
X151661186Y-51652359D01*
X151638607Y-51423112D01*
X151638000Y-51410762D01*
X151638000Y-46230894D01*
X151638563Y-46218992D01*
X151659536Y-45997960D01*
X151664014Y-45974580D01*
X151724503Y-45767205D01*
X151733297Y-45745084D01*
X151831716Y-45552775D01*
X151844514Y-45532704D01*
X151981022Y-45357621D01*
X151988785Y-45348580D01*
X152236167Y-45086647D01*
X152837233Y-44450224D01*
X153448275Y-43803239D01*
X153448279Y-43803234D01*
X153450307Y-43801087D01*
X153450308Y-43801085D01*
X153797000Y-43434000D01*
X153797000Y-42242972D01*
X153817002Y-42174851D01*
X153870658Y-42128358D01*
X153940932Y-42118254D01*
X154005512Y-42147748D01*
X154010921Y-42152717D01*
X154145226Y-42283551D01*
X154150022Y-42286756D01*
X154150025Y-42286758D01*
X154220454Y-42333817D01*
X154319983Y-42400320D01*
X154325286Y-42402598D01*
X154325289Y-42402600D01*
X154390601Y-42430660D01*
X154513094Y-42483287D01*
X154588692Y-42500393D01*
X154712454Y-42528398D01*
X154712460Y-42528399D01*
X154718091Y-42529673D01*
X154723862Y-42529900D01*
X154723864Y-42529900D01*
X154786342Y-42532355D01*
X154928108Y-42537925D01*
X155032110Y-42522845D01*
X155130398Y-42508595D01*
X155130403Y-42508594D01*
X155136112Y-42507766D01*
X155141576Y-42505911D01*
X155141581Y-42505910D01*
X155329669Y-42442062D01*
X155335137Y-42440206D01*
X155518518Y-42337508D01*
X155680112Y-42203111D01*
X155683798Y-42198679D01*
X155683803Y-42198674D01*
X155718515Y-42156937D01*
X155777452Y-42117353D01*
X155848434Y-42115916D01*
X155903311Y-42147252D01*
X156043226Y-42283551D01*
X156048022Y-42286756D01*
X156048025Y-42286758D01*
X156118454Y-42333817D01*
X156217983Y-42400320D01*
X156223286Y-42402598D01*
X156223289Y-42402600D01*
X156288601Y-42430660D01*
X156411094Y-42483287D01*
X156486692Y-42500393D01*
X156610454Y-42528398D01*
X156610460Y-42528399D01*
X156616091Y-42529673D01*
X156621862Y-42529900D01*
X156621864Y-42529900D01*
X156684342Y-42532355D01*
X156826108Y-42537925D01*
X156930110Y-42522845D01*
X157028398Y-42508595D01*
X157028403Y-42508594D01*
X157034112Y-42507766D01*
X157039576Y-42505911D01*
X157039581Y-42505910D01*
X157227669Y-42442062D01*
X157233137Y-42440206D01*
X157416518Y-42337508D01*
X157578112Y-42203111D01*
X157712509Y-42041517D01*
X157815207Y-41858136D01*
X157843640Y-41774376D01*
X157880911Y-41664580D01*
X157880912Y-41664575D01*
X157882767Y-41659111D01*
X157883595Y-41653402D01*
X157883596Y-41653397D01*
X157912393Y-41454781D01*
X157912926Y-41451107D01*
X157914500Y-41390999D01*
X157895268Y-41181701D01*
X157838217Y-40979413D01*
X157745257Y-40790909D01*
X157725549Y-40764516D01*
X157622955Y-40627126D01*
X157622954Y-40627125D01*
X157619502Y-40622502D01*
X157583344Y-40589078D01*
X157469403Y-40483752D01*
X157469400Y-40483750D01*
X157465163Y-40479833D01*
X157287408Y-40367678D01*
X157092192Y-40289795D01*
X157086532Y-40288669D01*
X157086528Y-40288668D01*
X156891719Y-40249918D01*
X156891714Y-40249918D01*
X156886051Y-40248791D01*
X156880276Y-40248715D01*
X156880272Y-40248715D01*
X156774597Y-40247332D01*
X156675890Y-40246039D01*
X156670193Y-40247018D01*
X156670192Y-40247018D01*
X156474443Y-40280654D01*
X156468746Y-40281633D01*
X156271558Y-40354380D01*
X156266597Y-40357332D01*
X156266596Y-40357332D01*
X156095897Y-40458887D01*
X156095894Y-40458889D01*
X156090929Y-40461843D01*
X156086589Y-40465649D01*
X156086585Y-40465652D01*
X155945846Y-40589078D01*
X155932908Y-40600424D01*
X155929332Y-40604960D01*
X155917161Y-40620399D01*
X155859280Y-40661512D01*
X155788360Y-40664806D01*
X155724693Y-40626775D01*
X155721502Y-40622502D01*
X155702526Y-40604960D01*
X155571403Y-40483752D01*
X155571400Y-40483750D01*
X155567163Y-40479833D01*
X155389408Y-40367678D01*
X155194192Y-40289795D01*
X155188532Y-40288669D01*
X155188528Y-40288668D01*
X154993719Y-40249918D01*
X154993714Y-40249918D01*
X154988051Y-40248791D01*
X154982276Y-40248715D01*
X154982272Y-40248715D01*
X154876597Y-40247332D01*
X154777890Y-40246039D01*
X154772193Y-40247018D01*
X154772192Y-40247018D01*
X154576443Y-40280654D01*
X154570746Y-40281633D01*
X154373558Y-40354380D01*
X154368597Y-40357332D01*
X154368596Y-40357332D01*
X154197897Y-40458887D01*
X154197894Y-40458889D01*
X154192929Y-40461843D01*
X154188589Y-40465649D01*
X154188585Y-40465652D01*
X154047846Y-40589078D01*
X154034908Y-40600424D01*
X154031333Y-40604959D01*
X154031332Y-40604960D01*
X154021950Y-40616861D01*
X153964068Y-40657974D01*
X153893148Y-40661268D01*
X153831706Y-40625696D01*
X153799249Y-40562553D01*
X153797000Y-40538855D01*
X153797000Y-37338000D01*
X149987000Y-37338000D01*
X149987000Y-39618493D01*
X149986521Y-39629474D01*
X149968667Y-39833552D01*
X149964853Y-39855182D01*
X149913263Y-40047718D01*
X149905751Y-40068357D01*
X149821508Y-40249015D01*
X149810532Y-40268026D01*
X149751465Y-40352382D01*
X149696196Y-40431314D01*
X149682078Y-40448138D01*
X149541138Y-40589078D01*
X149524314Y-40603196D01*
X149361026Y-40717532D01*
X149342015Y-40728508D01*
X149184193Y-40802102D01*
X149161357Y-40812751D01*
X149140717Y-40820263D01*
X148948178Y-40871854D01*
X148926555Y-40875666D01*
X148770516Y-40889318D01*
X148722474Y-40893521D01*
X148711493Y-40894000D01*
X148214507Y-40894000D01*
X148203526Y-40893521D01*
X148155484Y-40889318D01*
X147999445Y-40875666D01*
X147977822Y-40871854D01*
X147785283Y-40820263D01*
X147764643Y-40812751D01*
X147741807Y-40802102D01*
X147583985Y-40728508D01*
X147564974Y-40717532D01*
X147401686Y-40603196D01*
X147384862Y-40589078D01*
X147243922Y-40448138D01*
X147229804Y-40431314D01*
X147174535Y-40352382D01*
X147115468Y-40268026D01*
X147104492Y-40249015D01*
X147020249Y-40068357D01*
X147012737Y-40047718D01*
X146961147Y-39855182D01*
X146957333Y-39833552D01*
X146939479Y-39629474D01*
X146939000Y-39618493D01*
X146939000Y-37211000D01*
X139065000Y-37211000D01*
X139065000Y-40824313D01*
X139064393Y-40836663D01*
X139045474Y-41028750D01*
X139040657Y-41052971D01*
X138986428Y-41231740D01*
X138976979Y-41254550D01*
X138888922Y-41419292D01*
X138875199Y-41439829D01*
X138756694Y-41584228D01*
X138739228Y-41601694D01*
X138594829Y-41720199D01*
X138574294Y-41733921D01*
X138409550Y-41821979D01*
X138386740Y-41831428D01*
X138207971Y-41885657D01*
X138183750Y-41890474D01*
X137991663Y-41909393D01*
X137979313Y-41910000D01*
X137438238Y-41910000D01*
X137425888Y-41909393D01*
X137196639Y-41886814D01*
X137172418Y-41881997D01*
X136957912Y-41816928D01*
X136935099Y-41807477D01*
X136737416Y-41701813D01*
X136716889Y-41688097D01*
X136538800Y-41541944D01*
X136529649Y-41533649D01*
X136058280Y-41062280D01*
X136026107Y-41007390D01*
X136018217Y-40979413D01*
X135925257Y-40790909D01*
X135905549Y-40764516D01*
X135802955Y-40627126D01*
X135802954Y-40627125D01*
X135799502Y-40622502D01*
X135763344Y-40589078D01*
X135649403Y-40483752D01*
X135649400Y-40483750D01*
X135645163Y-40479833D01*
X135467408Y-40367678D01*
X135318900Y-40308429D01*
X135276494Y-40280494D01*
X135123351Y-40127351D01*
X135115056Y-40118200D01*
X134968903Y-39940111D01*
X134955185Y-39919581D01*
X134909202Y-39833552D01*
X134849523Y-39721901D01*
X134840071Y-39699084D01*
X134818956Y-39629474D01*
X134775003Y-39484582D01*
X134770186Y-39460359D01*
X134747607Y-39231112D01*
X134747000Y-39218762D01*
X134747000Y-36581507D01*
X134747479Y-36570526D01*
X134765333Y-36366448D01*
X134769147Y-36344818D01*
X134820737Y-36152282D01*
X134828249Y-36131643D01*
X134838898Y-36108807D01*
X134912492Y-35950985D01*
X134923468Y-35931974D01*
X135037804Y-35768686D01*
X135051922Y-35751862D01*
X135192862Y-35610922D01*
X135209686Y-35596804D01*
X135231511Y-35581522D01*
X135372974Y-35482468D01*
X135391985Y-35471492D01*
X135572642Y-35387249D01*
X135593282Y-35379737D01*
X135635375Y-35368458D01*
X135785822Y-35328146D01*
X135807445Y-35324334D01*
X135963484Y-35310682D01*
X136011526Y-35306479D01*
X136022507Y-35306000D01*
X157855936Y-35306000D01*
X157867884Y-35306568D01*
G37*
%TD.AperFunction*%
%TD*%
%TA.AperFunction,Conductor*%
%TO.N,/LOAD1*%
G36*
X151897474Y-38100479D02*
G01*
X151945516Y-38104682D01*
X152101555Y-38118334D01*
X152123178Y-38122146D01*
X152273625Y-38162458D01*
X152315718Y-38173737D01*
X152336358Y-38181249D01*
X152517015Y-38265492D01*
X152536026Y-38276468D01*
X152677489Y-38375522D01*
X152699314Y-38390804D01*
X152716138Y-38404922D01*
X152857078Y-38545862D01*
X152871196Y-38562686D01*
X152985532Y-38725974D01*
X152996508Y-38744985D01*
X153070102Y-38902807D01*
X153080751Y-38925643D01*
X153088263Y-38946282D01*
X153139853Y-39138818D01*
X153143667Y-39160448D01*
X153161521Y-39364526D01*
X153162000Y-39375507D01*
X153162000Y-42300605D01*
X153161461Y-42312243D01*
X153141411Y-42528396D01*
X153137130Y-42551275D01*
X153079263Y-42754429D01*
X153070846Y-42776130D01*
X152976601Y-42965169D01*
X152964337Y-42984951D01*
X152833393Y-43158105D01*
X152825943Y-43167063D01*
X150829088Y-45354093D01*
X150829077Y-45354106D01*
X150495000Y-45720000D01*
X150495000Y-50794493D01*
X150494521Y-50805474D01*
X150476667Y-51009552D01*
X150472853Y-51031182D01*
X150421263Y-51223718D01*
X150413751Y-51244357D01*
X150329508Y-51425015D01*
X150318532Y-51444026D01*
X150219478Y-51585489D01*
X150204196Y-51607314D01*
X150190078Y-51624138D01*
X150049138Y-51765078D01*
X150032314Y-51779196D01*
X149869026Y-51893532D01*
X149850015Y-51904508D01*
X149692193Y-51978102D01*
X149669357Y-51988751D01*
X149648717Y-51996263D01*
X149456178Y-52047854D01*
X149434555Y-52051666D01*
X149278516Y-52065318D01*
X149230474Y-52069521D01*
X149219493Y-52070000D01*
X145420507Y-52070000D01*
X145409526Y-52069521D01*
X145361484Y-52065318D01*
X145205445Y-52051666D01*
X145183822Y-52047854D01*
X144991283Y-51996263D01*
X144970643Y-51988751D01*
X144947807Y-51978102D01*
X144789985Y-51904508D01*
X144770974Y-51893532D01*
X144607686Y-51779196D01*
X144590862Y-51765078D01*
X144449922Y-51624138D01*
X144435804Y-51607314D01*
X144420522Y-51585489D01*
X144321468Y-51444026D01*
X144310492Y-51425015D01*
X144226249Y-51244357D01*
X144218737Y-51223718D01*
X144167147Y-51031182D01*
X144163333Y-51009552D01*
X144145479Y-50805474D01*
X144145000Y-50794493D01*
X144145000Y-46551687D01*
X144145607Y-46539337D01*
X144164526Y-46347250D01*
X144169343Y-46323029D01*
X144223572Y-46144260D01*
X144233021Y-46121450D01*
X144321078Y-45956708D01*
X144334801Y-45936171D01*
X144453306Y-45791772D01*
X144470772Y-45774306D01*
X144615171Y-45655801D01*
X144635708Y-45642078D01*
X144800450Y-45554021D01*
X144823260Y-45544572D01*
X145002029Y-45490343D01*
X145026250Y-45485526D01*
X145218337Y-45466607D01*
X145230687Y-45466000D01*
X146304000Y-45466000D01*
X148748750Y-42799000D01*
X150161186Y-41258161D01*
X150161187Y-41258159D01*
X150495000Y-40894000D01*
X150495000Y-39375507D01*
X150495479Y-39364526D01*
X150513333Y-39160448D01*
X150517147Y-39138818D01*
X150568737Y-38946282D01*
X150576249Y-38925643D01*
X150586898Y-38902807D01*
X150660492Y-38744985D01*
X150671468Y-38725974D01*
X150785804Y-38562686D01*
X150799922Y-38545862D01*
X150940862Y-38404922D01*
X150957686Y-38390804D01*
X150979511Y-38375522D01*
X151120974Y-38276468D01*
X151139985Y-38265492D01*
X151320642Y-38181249D01*
X151341282Y-38173737D01*
X151383375Y-38162458D01*
X151533822Y-38122146D01*
X151555445Y-38118334D01*
X151711484Y-38104682D01*
X151759526Y-38100479D01*
X151770507Y-38100000D01*
X151886493Y-38100000D01*
X151897474Y-38100479D01*
G37*
%TD.AperFunction*%
%TD*%
%TA.AperFunction,Conductor*%
%TO.N,+3V3*%
G36*
X168840413Y-83078002D02*
G01*
X168886906Y-83131658D01*
X168898292Y-83183983D01*
X168899145Y-89341269D01*
X168902938Y-116753093D01*
X168901155Y-116774228D01*
X168898531Y-116789665D01*
X168898463Y-116794532D01*
X168898463Y-116794534D01*
X168896706Y-116920623D01*
X168896488Y-116926473D01*
X168893654Y-116973334D01*
X168892966Y-116980902D01*
X168887842Y-117023103D01*
X168869129Y-117177213D01*
X168867984Y-117184736D01*
X168862229Y-117216141D01*
X168860632Y-117223584D01*
X168818864Y-117393046D01*
X168813312Y-117415570D01*
X168811267Y-117422903D01*
X168801761Y-117453407D01*
X168799279Y-117460600D01*
X168729170Y-117645463D01*
X168726258Y-117652494D01*
X168713156Y-117681606D01*
X168709823Y-117688450D01*
X168617934Y-117863530D01*
X168614198Y-117870156D01*
X168608629Y-117879369D01*
X168597667Y-117897503D01*
X168593543Y-117903882D01*
X168482080Y-118065364D01*
X168481223Y-118066606D01*
X168476711Y-118072738D01*
X168456999Y-118097898D01*
X168452127Y-118103743D01*
X168321015Y-118251738D01*
X168315798Y-118257280D01*
X168293238Y-118279840D01*
X168287696Y-118285058D01*
X168139676Y-118416191D01*
X168133830Y-118421063D01*
X168108689Y-118440760D01*
X168102558Y-118445271D01*
X167939840Y-118557587D01*
X167933462Y-118561712D01*
X167906087Y-118578260D01*
X167899490Y-118581980D01*
X167814137Y-118626777D01*
X167753717Y-118658488D01*
X167724401Y-118673874D01*
X167717573Y-118677199D01*
X167704268Y-118683187D01*
X167688450Y-118690305D01*
X167681425Y-118693215D01*
X167645816Y-118706720D01*
X167496521Y-118763340D01*
X167489341Y-118765818D01*
X167458854Y-118775318D01*
X167451523Y-118777362D01*
X167259540Y-118824682D01*
X167252097Y-118826279D01*
X167220680Y-118832036D01*
X167213157Y-118833181D01*
X167110522Y-118845644D01*
X167016848Y-118857018D01*
X167009298Y-118857704D01*
X166962419Y-118860539D01*
X166956573Y-118860757D01*
X166828892Y-118862536D01*
X166811860Y-118865218D01*
X166810285Y-118865466D01*
X166790686Y-118867000D01*
X160780755Y-118867000D01*
X160712634Y-118846998D01*
X160666141Y-118793342D01*
X160656037Y-118723068D01*
X160685531Y-118658488D01*
X160716872Y-118632609D01*
X160721250Y-118630660D01*
X160726592Y-118626779D01*
X160726595Y-118626777D01*
X160867198Y-118524622D01*
X160872537Y-118520743D01*
X160944555Y-118440760D01*
X160993247Y-118386682D01*
X160993248Y-118386681D01*
X160997666Y-118381774D01*
X161000966Y-118376058D01*
X161000969Y-118376054D01*
X161087862Y-118225549D01*
X161087863Y-118225548D01*
X161091166Y-118219826D01*
X161135604Y-118083060D01*
X161146913Y-118048256D01*
X161146913Y-118048254D01*
X161148953Y-118041977D01*
X161168500Y-117856000D01*
X161161394Y-117788392D01*
X161149643Y-117676587D01*
X161149643Y-117676586D01*
X161148953Y-117670023D01*
X161143258Y-117652494D01*
X161093208Y-117498459D01*
X161091166Y-117492174D01*
X161068784Y-117453407D01*
X161000969Y-117335946D01*
X161000966Y-117335942D01*
X160997666Y-117330226D01*
X160914782Y-117238174D01*
X160876952Y-117196160D01*
X160876950Y-117196159D01*
X160872537Y-117191257D01*
X160743107Y-117097220D01*
X160726592Y-117085221D01*
X160726591Y-117085220D01*
X160721250Y-117081340D01*
X160715222Y-117078656D01*
X160715220Y-117078655D01*
X160556447Y-117007965D01*
X160556446Y-117007965D01*
X160550416Y-117005280D01*
X160458958Y-116985840D01*
X160373958Y-116967772D01*
X160373953Y-116967772D01*
X160367501Y-116966400D01*
X160180499Y-116966400D01*
X160174047Y-116967772D01*
X160174042Y-116967772D01*
X160089042Y-116985840D01*
X159997584Y-117005280D01*
X159991554Y-117007965D01*
X159991553Y-117007965D01*
X159832780Y-117078655D01*
X159832778Y-117078656D01*
X159826750Y-117081340D01*
X159821409Y-117085220D01*
X159821408Y-117085221D01*
X159804893Y-117097220D01*
X159675463Y-117191257D01*
X159671050Y-117196159D01*
X159671048Y-117196160D01*
X159633218Y-117238174D01*
X159550334Y-117330226D01*
X159547034Y-117335942D01*
X159547031Y-117335946D01*
X159479216Y-117453407D01*
X159456834Y-117492174D01*
X159454792Y-117498459D01*
X159404743Y-117652494D01*
X159399047Y-117670023D01*
X159398357Y-117676586D01*
X159398357Y-117676587D01*
X159386606Y-117788392D01*
X159379500Y-117856000D01*
X159399047Y-118041977D01*
X159401087Y-118048254D01*
X159401087Y-118048256D01*
X159412396Y-118083060D01*
X159456834Y-118219826D01*
X159460137Y-118225548D01*
X159460138Y-118225549D01*
X159547031Y-118376054D01*
X159547034Y-118376058D01*
X159550334Y-118381774D01*
X159554752Y-118386681D01*
X159554753Y-118386682D01*
X159603446Y-118440760D01*
X159675463Y-118520743D01*
X159680802Y-118524622D01*
X159821405Y-118626777D01*
X159821408Y-118626779D01*
X159826750Y-118630660D01*
X159830802Y-118632464D01*
X159879239Y-118683264D01*
X159892674Y-118752978D01*
X159866287Y-118818888D01*
X159808455Y-118860070D01*
X159767245Y-118867000D01*
X133950958Y-118867000D01*
X133929841Y-118865218D01*
X133919135Y-118863398D01*
X133914335Y-118862582D01*
X133909470Y-118862514D01*
X133909468Y-118862514D01*
X133783377Y-118860757D01*
X133777529Y-118860539D01*
X133730651Y-118857704D01*
X133723099Y-118857017D01*
X133640583Y-118846998D01*
X133526787Y-118833180D01*
X133519264Y-118832035D01*
X133487859Y-118826280D01*
X133480416Y-118824683D01*
X133456905Y-118818888D01*
X133288421Y-118777360D01*
X133281097Y-118775318D01*
X133250593Y-118765812D01*
X133243400Y-118763330D01*
X133058537Y-118693221D01*
X133051506Y-118690309D01*
X133035852Y-118683264D01*
X133022390Y-118677205D01*
X133015550Y-118673874D01*
X132840470Y-118581985D01*
X132833844Y-118578249D01*
X132824631Y-118572680D01*
X132806479Y-118561707D01*
X132800108Y-118557587D01*
X132637385Y-118445267D01*
X132631262Y-118440762D01*
X132631260Y-118440760D01*
X132606102Y-118421050D01*
X132600257Y-118416178D01*
X132452262Y-118285066D01*
X132446720Y-118279849D01*
X132424160Y-118257289D01*
X132418942Y-118251747D01*
X132287809Y-118103727D01*
X132282937Y-118097881D01*
X132263240Y-118072740D01*
X132258729Y-118066609D01*
X132146413Y-117903891D01*
X132142282Y-117897503D01*
X132125740Y-117870138D01*
X132122020Y-117863541D01*
X132030126Y-117688452D01*
X132026801Y-117681624D01*
X132018754Y-117663744D01*
X132013695Y-117652501D01*
X132010785Y-117645476D01*
X131955028Y-117498459D01*
X131940660Y-117460572D01*
X131938182Y-117453392D01*
X131928682Y-117422905D01*
X131926638Y-117415574D01*
X131879318Y-117223591D01*
X131877724Y-117216167D01*
X131871963Y-117184729D01*
X131870819Y-117177207D01*
X131852107Y-117023103D01*
X131846982Y-116980899D01*
X131846297Y-116973352D01*
X131843461Y-116926468D01*
X131843243Y-116920621D01*
X131842188Y-116844930D01*
X131842119Y-116840000D01*
X132244500Y-116840000D01*
X132264365Y-117092407D01*
X132265519Y-117097214D01*
X132265520Y-117097220D01*
X132295859Y-117223591D01*
X132323470Y-117338599D01*
X132325363Y-117343170D01*
X132325364Y-117343172D01*
X132374005Y-117460600D01*
X132420361Y-117572514D01*
X132552651Y-117788392D01*
X132555862Y-117792152D01*
X132555866Y-117792157D01*
X132698826Y-117959541D01*
X132717083Y-117980917D01*
X132720845Y-117984130D01*
X132905843Y-118142134D01*
X132905848Y-118142138D01*
X132909608Y-118145349D01*
X133125486Y-118277639D01*
X133130056Y-118279532D01*
X133130060Y-118279534D01*
X133354828Y-118372636D01*
X133359401Y-118374530D01*
X133438251Y-118393460D01*
X133600780Y-118432480D01*
X133600786Y-118432481D01*
X133605593Y-118433635D01*
X133858000Y-118453500D01*
X134110407Y-118433635D01*
X134115214Y-118432481D01*
X134115220Y-118432480D01*
X134277749Y-118393460D01*
X134356599Y-118374530D01*
X134361172Y-118372636D01*
X134585940Y-118279534D01*
X134585944Y-118279532D01*
X134590514Y-118277639D01*
X134806392Y-118145349D01*
X134810152Y-118142138D01*
X134810157Y-118142134D01*
X134995155Y-117984130D01*
X134998917Y-117980917D01*
X135017174Y-117959541D01*
X135160134Y-117792157D01*
X135160138Y-117792152D01*
X135163349Y-117788392D01*
X135277570Y-117602000D01*
X142361500Y-117602000D01*
X142362190Y-117608565D01*
X142368650Y-117670023D01*
X142381047Y-117787977D01*
X142438834Y-117965826D01*
X142442137Y-117971548D01*
X142442138Y-117971549D01*
X142529031Y-118122054D01*
X142529034Y-118122058D01*
X142532334Y-118127774D01*
X142536752Y-118132681D01*
X142536753Y-118132682D01*
X142648951Y-118257289D01*
X142657463Y-118266743D01*
X142808750Y-118376660D01*
X142814778Y-118379344D01*
X142814780Y-118379345D01*
X142958161Y-118443182D01*
X142979584Y-118452720D01*
X143071041Y-118472160D01*
X143156042Y-118490228D01*
X143156047Y-118490228D01*
X143162499Y-118491600D01*
X143349501Y-118491600D01*
X143355953Y-118490228D01*
X143355958Y-118490228D01*
X143440959Y-118472160D01*
X143532416Y-118452720D01*
X143553839Y-118443182D01*
X143697220Y-118379345D01*
X143697222Y-118379344D01*
X143703250Y-118376660D01*
X143854537Y-118266743D01*
X143863050Y-118257289D01*
X143975247Y-118132682D01*
X143975248Y-118132681D01*
X143979666Y-118127774D01*
X143982966Y-118122058D01*
X143982969Y-118122054D01*
X144069862Y-117971549D01*
X144069863Y-117971548D01*
X144073166Y-117965826D01*
X144130953Y-117787977D01*
X144143351Y-117670023D01*
X144149810Y-117608565D01*
X144150500Y-117602000D01*
X144130953Y-117416023D01*
X144121178Y-117385937D01*
X144075208Y-117244459D01*
X144073166Y-117238174D01*
X144064743Y-117223584D01*
X143982969Y-117081946D01*
X143982966Y-117081942D01*
X143979666Y-117076226D01*
X143959764Y-117054123D01*
X143858952Y-116942160D01*
X143858950Y-116942159D01*
X143854537Y-116937257D01*
X143812073Y-116906405D01*
X143708592Y-116831221D01*
X143708591Y-116831220D01*
X143703250Y-116827340D01*
X143697222Y-116824656D01*
X143697220Y-116824655D01*
X143538447Y-116753965D01*
X143538446Y-116753965D01*
X143532416Y-116751280D01*
X143440959Y-116731840D01*
X143355958Y-116713772D01*
X143355953Y-116713772D01*
X143349501Y-116712400D01*
X143162499Y-116712400D01*
X143156047Y-116713772D01*
X143156042Y-116713772D01*
X143071041Y-116731840D01*
X142979584Y-116751280D01*
X142973554Y-116753965D01*
X142973553Y-116753965D01*
X142814780Y-116824655D01*
X142814778Y-116824656D01*
X142808750Y-116827340D01*
X142803409Y-116831220D01*
X142803408Y-116831221D01*
X142699927Y-116906405D01*
X142657463Y-116937257D01*
X142653050Y-116942159D01*
X142653048Y-116942160D01*
X142552236Y-117054123D01*
X142532334Y-117076226D01*
X142529034Y-117081942D01*
X142529031Y-117081946D01*
X142447257Y-117223584D01*
X142438834Y-117238174D01*
X142436792Y-117244459D01*
X142390823Y-117385937D01*
X142381047Y-117416023D01*
X142361500Y-117602000D01*
X135277570Y-117602000D01*
X135295639Y-117572514D01*
X135341996Y-117460600D01*
X135390636Y-117343172D01*
X135390637Y-117343170D01*
X135392530Y-117338599D01*
X135420141Y-117223591D01*
X135450480Y-117097220D01*
X135450481Y-117097214D01*
X135451635Y-117092407D01*
X135471500Y-116840000D01*
X135451635Y-116587593D01*
X135392530Y-116341401D01*
X135308407Y-116138310D01*
X135305688Y-116131745D01*
X161569444Y-116131745D01*
X161588991Y-116317722D01*
X161646778Y-116495571D01*
X161650081Y-116501293D01*
X161650082Y-116501294D01*
X161736975Y-116651799D01*
X161736978Y-116651803D01*
X161740278Y-116657519D01*
X161744696Y-116662426D01*
X161744697Y-116662427D01*
X161859264Y-116789665D01*
X161865407Y-116796488D01*
X161870746Y-116800367D01*
X161963662Y-116867875D01*
X162007016Y-116924098D01*
X162013091Y-116994834D01*
X161983236Y-117054122D01*
X161963334Y-117076226D01*
X161960034Y-117081942D01*
X161960031Y-117081946D01*
X161878257Y-117223584D01*
X161869834Y-117238174D01*
X161867792Y-117244459D01*
X161821823Y-117385937D01*
X161812047Y-117416023D01*
X161792500Y-117602000D01*
X161793190Y-117608565D01*
X161799650Y-117670023D01*
X161812047Y-117787977D01*
X161869834Y-117965826D01*
X161873137Y-117971548D01*
X161873138Y-117971549D01*
X161960031Y-118122054D01*
X161960034Y-118122058D01*
X161963334Y-118127774D01*
X161967752Y-118132681D01*
X161967753Y-118132682D01*
X162079951Y-118257289D01*
X162088463Y-118266743D01*
X162239750Y-118376660D01*
X162245778Y-118379344D01*
X162245780Y-118379345D01*
X162389161Y-118443182D01*
X162410584Y-118452720D01*
X162502041Y-118472160D01*
X162587042Y-118490228D01*
X162587047Y-118490228D01*
X162593499Y-118491600D01*
X162780501Y-118491600D01*
X162786953Y-118490228D01*
X162786958Y-118490228D01*
X162871959Y-118472160D01*
X162963416Y-118452720D01*
X162984839Y-118443182D01*
X163128220Y-118379345D01*
X163128222Y-118379344D01*
X163134250Y-118376660D01*
X163285537Y-118266743D01*
X163294050Y-118257289D01*
X163406247Y-118132682D01*
X163406248Y-118132681D01*
X163410666Y-118127774D01*
X163413966Y-118122058D01*
X163413969Y-118122054D01*
X163500862Y-117971549D01*
X163500863Y-117971548D01*
X163504166Y-117965826D01*
X163561953Y-117787977D01*
X163574351Y-117670023D01*
X163580810Y-117608565D01*
X163581500Y-117602000D01*
X163561953Y-117416023D01*
X163552178Y-117385937D01*
X163506208Y-117244459D01*
X163504166Y-117238174D01*
X163495743Y-117223584D01*
X163413969Y-117081946D01*
X163413966Y-117081942D01*
X163410666Y-117076226D01*
X163390764Y-117054123D01*
X163289952Y-116942160D01*
X163289950Y-116942159D01*
X163285537Y-116937257D01*
X163243073Y-116906405D01*
X163187282Y-116865870D01*
X163167333Y-116840000D01*
X165264500Y-116840000D01*
X165284365Y-117092407D01*
X165285519Y-117097214D01*
X165285520Y-117097220D01*
X165315859Y-117223591D01*
X165343470Y-117338599D01*
X165345363Y-117343170D01*
X165345364Y-117343172D01*
X165394005Y-117460600D01*
X165440361Y-117572514D01*
X165572651Y-117788392D01*
X165575862Y-117792152D01*
X165575866Y-117792157D01*
X165718826Y-117959541D01*
X165737083Y-117980917D01*
X165740845Y-117984130D01*
X165925843Y-118142134D01*
X165925848Y-118142138D01*
X165929608Y-118145349D01*
X166145486Y-118277639D01*
X166150056Y-118279532D01*
X166150060Y-118279534D01*
X166374828Y-118372636D01*
X166379401Y-118374530D01*
X166458251Y-118393460D01*
X166620780Y-118432480D01*
X166620786Y-118432481D01*
X166625593Y-118433635D01*
X166878000Y-118453500D01*
X167130407Y-118433635D01*
X167135214Y-118432481D01*
X167135220Y-118432480D01*
X167297749Y-118393460D01*
X167376599Y-118374530D01*
X167381172Y-118372636D01*
X167605940Y-118279534D01*
X167605944Y-118279532D01*
X167610514Y-118277639D01*
X167826392Y-118145349D01*
X167830152Y-118142138D01*
X167830157Y-118142134D01*
X168015155Y-117984130D01*
X168018917Y-117980917D01*
X168037174Y-117959541D01*
X168180134Y-117792157D01*
X168180138Y-117792152D01*
X168183349Y-117788392D01*
X168315639Y-117572514D01*
X168361996Y-117460600D01*
X168410636Y-117343172D01*
X168410637Y-117343170D01*
X168412530Y-117338599D01*
X168440141Y-117223591D01*
X168470480Y-117097220D01*
X168470481Y-117097214D01*
X168471635Y-117092407D01*
X168491500Y-116840000D01*
X168471635Y-116587593D01*
X168412530Y-116341401D01*
X168328407Y-116138310D01*
X168317534Y-116112060D01*
X168317532Y-116112056D01*
X168315639Y-116107486D01*
X168183349Y-115891608D01*
X168180138Y-115887848D01*
X168180134Y-115887843D01*
X168022130Y-115702845D01*
X168018917Y-115699083D01*
X168000295Y-115683178D01*
X167830157Y-115537866D01*
X167830152Y-115537862D01*
X167826392Y-115534651D01*
X167610514Y-115402361D01*
X167605944Y-115400468D01*
X167605940Y-115400466D01*
X167381172Y-115307364D01*
X167381170Y-115307363D01*
X167376599Y-115305470D01*
X167285961Y-115283710D01*
X167135220Y-115247520D01*
X167135214Y-115247519D01*
X167130407Y-115246365D01*
X166878000Y-115226500D01*
X166625593Y-115246365D01*
X166620786Y-115247519D01*
X166620780Y-115247520D01*
X166470039Y-115283710D01*
X166379401Y-115305470D01*
X166374830Y-115307363D01*
X166374828Y-115307364D01*
X166150060Y-115400466D01*
X166150056Y-115400468D01*
X166145486Y-115402361D01*
X165929608Y-115534651D01*
X165925848Y-115537862D01*
X165925843Y-115537866D01*
X165755705Y-115683178D01*
X165737083Y-115699083D01*
X165733870Y-115702845D01*
X165575866Y-115887843D01*
X165575862Y-115887848D01*
X165572651Y-115891608D01*
X165440361Y-116107486D01*
X165438468Y-116112056D01*
X165438466Y-116112060D01*
X165427593Y-116138310D01*
X165343470Y-116341401D01*
X165284365Y-116587593D01*
X165264500Y-116840000D01*
X163167333Y-116840000D01*
X163143928Y-116809647D01*
X163137853Y-116738911D01*
X163167708Y-116679622D01*
X163183191Y-116662427D01*
X163183192Y-116662426D01*
X163187610Y-116657519D01*
X163190910Y-116651803D01*
X163190913Y-116651799D01*
X163277806Y-116501294D01*
X163277807Y-116501293D01*
X163281110Y-116495571D01*
X163338897Y-116317722D01*
X163358444Y-116131745D01*
X163338897Y-115945768D01*
X163322670Y-115895825D01*
X163283152Y-115774204D01*
X163281110Y-115767919D01*
X163239513Y-115695870D01*
X163190913Y-115611691D01*
X163190910Y-115611687D01*
X163187610Y-115605971D01*
X163062481Y-115467002D01*
X162911194Y-115357085D01*
X162905166Y-115354401D01*
X162905164Y-115354400D01*
X162746391Y-115283710D01*
X162746390Y-115283710D01*
X162740360Y-115281025D01*
X162648903Y-115261585D01*
X162563902Y-115243517D01*
X162563897Y-115243517D01*
X162557445Y-115242145D01*
X162370443Y-115242145D01*
X162363991Y-115243517D01*
X162363986Y-115243517D01*
X162278985Y-115261585D01*
X162187528Y-115281025D01*
X162181498Y-115283710D01*
X162181497Y-115283710D01*
X162022724Y-115354400D01*
X162022722Y-115354401D01*
X162016694Y-115357085D01*
X161865407Y-115467002D01*
X161740278Y-115605971D01*
X161736978Y-115611687D01*
X161736975Y-115611691D01*
X161688375Y-115695870D01*
X161646778Y-115767919D01*
X161644736Y-115774204D01*
X161605219Y-115895825D01*
X161588991Y-115945768D01*
X161569444Y-116131745D01*
X135305688Y-116131745D01*
X135297534Y-116112060D01*
X135297532Y-116112056D01*
X135295639Y-116107486D01*
X135163349Y-115891608D01*
X135160138Y-115887848D01*
X135160134Y-115887843D01*
X135002130Y-115702845D01*
X134998917Y-115699083D01*
X134980295Y-115683178D01*
X134810157Y-115537866D01*
X134810152Y-115537862D01*
X134806392Y-115534651D01*
X134590514Y-115402361D01*
X134585944Y-115400468D01*
X134585940Y-115400466D01*
X134361172Y-115307364D01*
X134361170Y-115307363D01*
X134356599Y-115305470D01*
X134265961Y-115283710D01*
X134115220Y-115247520D01*
X134115214Y-115247519D01*
X134110407Y-115246365D01*
X133858000Y-115226500D01*
X133605593Y-115246365D01*
X133600786Y-115247519D01*
X133600780Y-115247520D01*
X133450039Y-115283710D01*
X133359401Y-115305470D01*
X133354830Y-115307363D01*
X133354828Y-115307364D01*
X133130060Y-115400466D01*
X133130056Y-115400468D01*
X133125486Y-115402361D01*
X132909608Y-115534651D01*
X132905848Y-115537862D01*
X132905843Y-115537866D01*
X132735705Y-115683178D01*
X132717083Y-115699083D01*
X132713870Y-115702845D01*
X132555866Y-115887843D01*
X132555862Y-115887848D01*
X132552651Y-115891608D01*
X132420361Y-116107486D01*
X132418468Y-116112056D01*
X132418466Y-116112060D01*
X132407593Y-116138310D01*
X132323470Y-116341401D01*
X132264365Y-116587593D01*
X132244500Y-116840000D01*
X131842119Y-116840000D01*
X131841464Y-116792943D01*
X131838523Y-116774263D01*
X131836989Y-116754668D01*
X131836989Y-116751263D01*
X131836439Y-112776000D01*
X133255500Y-112776000D01*
X133256190Y-112782565D01*
X133262650Y-112844023D01*
X133275047Y-112961977D01*
X133277087Y-112968254D01*
X133277087Y-112968256D01*
X133295016Y-113023435D01*
X133332834Y-113139826D01*
X133336137Y-113145548D01*
X133336138Y-113145549D01*
X133423031Y-113296054D01*
X133423034Y-113296058D01*
X133426334Y-113301774D01*
X133430752Y-113306681D01*
X133430753Y-113306682D01*
X133514372Y-113399549D01*
X133551463Y-113440743D01*
X133702750Y-113550660D01*
X133708778Y-113553344D01*
X133708780Y-113553345D01*
X133867553Y-113624035D01*
X133873584Y-113626720D01*
X133965042Y-113646160D01*
X134050042Y-113664228D01*
X134050047Y-113664228D01*
X134056499Y-113665600D01*
X134243501Y-113665600D01*
X134249953Y-113664228D01*
X134249958Y-113664228D01*
X134334959Y-113646160D01*
X134426416Y-113626720D01*
X134432447Y-113624035D01*
X134591220Y-113553345D01*
X134591222Y-113553344D01*
X134597250Y-113550660D01*
X134748537Y-113440743D01*
X134785629Y-113399549D01*
X134869247Y-113306682D01*
X134869248Y-113306681D01*
X134873666Y-113301774D01*
X134876966Y-113296058D01*
X134876969Y-113296054D01*
X134963862Y-113145549D01*
X134963863Y-113145548D01*
X134967166Y-113139826D01*
X135004984Y-113023435D01*
X135022913Y-112968256D01*
X135022913Y-112968254D01*
X135024953Y-112961977D01*
X135037351Y-112844023D01*
X135043810Y-112782565D01*
X135044500Y-112776000D01*
X135040528Y-112738206D01*
X135025643Y-112596587D01*
X135025643Y-112596586D01*
X135024953Y-112590023D01*
X135006768Y-112534054D01*
X134969208Y-112418459D01*
X134967166Y-112412174D01*
X134963862Y-112406451D01*
X134876969Y-112255946D01*
X134876966Y-112255942D01*
X134873666Y-112250226D01*
X134829834Y-112201546D01*
X134752952Y-112116160D01*
X134752950Y-112116159D01*
X134748537Y-112111257D01*
X134725447Y-112094481D01*
X134614675Y-112014000D01*
X136900500Y-112014000D01*
X136920047Y-112199977D01*
X136922087Y-112206254D01*
X136922087Y-112206256D01*
X136939297Y-112259221D01*
X136977834Y-112377826D01*
X136981137Y-112383548D01*
X136981138Y-112383549D01*
X137068031Y-112534054D01*
X137068034Y-112534058D01*
X137071334Y-112539774D01*
X137075752Y-112544681D01*
X137075753Y-112544682D01*
X137122489Y-112596587D01*
X137196463Y-112678743D01*
X137201570Y-112682454D01*
X137238755Y-112742810D01*
X137237403Y-112813794D01*
X137201575Y-112869543D01*
X137196463Y-112873257D01*
X137192050Y-112878158D01*
X137192049Y-112878159D01*
X137116579Y-112961977D01*
X137071334Y-113012226D01*
X137068034Y-113017942D01*
X137068031Y-113017946D01*
X136981138Y-113168451D01*
X136977834Y-113174174D01*
X136975792Y-113180459D01*
X136938233Y-113296054D01*
X136920047Y-113352023D01*
X136900500Y-113538000D01*
X136920047Y-113723977D01*
X136977834Y-113901826D01*
X136981137Y-113907548D01*
X136981138Y-113907549D01*
X137068031Y-114058054D01*
X137068034Y-114058058D01*
X137071334Y-114063774D01*
X137196463Y-114202743D01*
X137347750Y-114312660D01*
X137353778Y-114315344D01*
X137353780Y-114315345D01*
X137512553Y-114386035D01*
X137518584Y-114388720D01*
X137610042Y-114408160D01*
X137695042Y-114426228D01*
X137695047Y-114426228D01*
X137701499Y-114427600D01*
X137888501Y-114427600D01*
X137894953Y-114426228D01*
X137894958Y-114426228D01*
X137979958Y-114408160D01*
X138071416Y-114388720D01*
X138077447Y-114386035D01*
X138236220Y-114315345D01*
X138236222Y-114315344D01*
X138242250Y-114312660D01*
X138393537Y-114202743D01*
X138518666Y-114063774D01*
X138521966Y-114058058D01*
X138521969Y-114058054D01*
X138608862Y-113907549D01*
X138608863Y-113907548D01*
X138612166Y-113901826D01*
X138669953Y-113723977D01*
X138689500Y-113538000D01*
X138669953Y-113352023D01*
X138651768Y-113296054D01*
X138614208Y-113180459D01*
X138612166Y-113174174D01*
X138608862Y-113168451D01*
X138521969Y-113017946D01*
X138521966Y-113017942D01*
X138518666Y-113012226D01*
X138473422Y-112961977D01*
X138397951Y-112878159D01*
X138397950Y-112878158D01*
X138393537Y-112873257D01*
X138388430Y-112869546D01*
X138351245Y-112809190D01*
X138352597Y-112738206D01*
X138388425Y-112682457D01*
X138393537Y-112678743D01*
X138467511Y-112596587D01*
X138514247Y-112544682D01*
X138514248Y-112544681D01*
X138518666Y-112539774D01*
X138521966Y-112534058D01*
X138521969Y-112534054D01*
X138608862Y-112383549D01*
X138608863Y-112383548D01*
X138612166Y-112377826D01*
X138650703Y-112259221D01*
X138667913Y-112206256D01*
X138667913Y-112206254D01*
X138669953Y-112199977D01*
X138689500Y-112014000D01*
X138669953Y-111828023D01*
X138612166Y-111650174D01*
X138601904Y-111632400D01*
X138521969Y-111493946D01*
X138521966Y-111493942D01*
X138518666Y-111488226D01*
X138431717Y-111391660D01*
X138397952Y-111354160D01*
X138397950Y-111354159D01*
X138393537Y-111349257D01*
X138370447Y-111332481D01*
X138247592Y-111243221D01*
X138247591Y-111243220D01*
X138242250Y-111239340D01*
X138236222Y-111236656D01*
X138236220Y-111236655D01*
X138077447Y-111165965D01*
X138077446Y-111165965D01*
X138071416Y-111163280D01*
X137979958Y-111143840D01*
X137894958Y-111125772D01*
X137894953Y-111125772D01*
X137888501Y-111124400D01*
X137701499Y-111124400D01*
X137695047Y-111125772D01*
X137695042Y-111125772D01*
X137610041Y-111143840D01*
X137518584Y-111163280D01*
X137512554Y-111165965D01*
X137512553Y-111165965D01*
X137353780Y-111236655D01*
X137353778Y-111236656D01*
X137347750Y-111239340D01*
X137342409Y-111243220D01*
X137342408Y-111243221D01*
X137219553Y-111332481D01*
X137196463Y-111349257D01*
X137192050Y-111354159D01*
X137192048Y-111354160D01*
X137158283Y-111391660D01*
X137071334Y-111488226D01*
X137068034Y-111493942D01*
X137068031Y-111493946D01*
X136988096Y-111632400D01*
X136977834Y-111650174D01*
X136920047Y-111828023D01*
X136900500Y-112014000D01*
X134614675Y-112014000D01*
X134602592Y-112005221D01*
X134602591Y-112005220D01*
X134597250Y-112001340D01*
X134591222Y-111998656D01*
X134591220Y-111998655D01*
X134432447Y-111927965D01*
X134432446Y-111927965D01*
X134426416Y-111925280D01*
X134334958Y-111905840D01*
X134249958Y-111887772D01*
X134249953Y-111887772D01*
X134243501Y-111886400D01*
X134056499Y-111886400D01*
X134050047Y-111887772D01*
X134050042Y-111887772D01*
X133965042Y-111905840D01*
X133873584Y-111925280D01*
X133867554Y-111927965D01*
X133867553Y-111927965D01*
X133708780Y-111998655D01*
X133708778Y-111998656D01*
X133702750Y-112001340D01*
X133697409Y-112005220D01*
X133697408Y-112005221D01*
X133574553Y-112094481D01*
X133551463Y-112111257D01*
X133547050Y-112116159D01*
X133547048Y-112116160D01*
X133470166Y-112201546D01*
X133426334Y-112250226D01*
X133423034Y-112255942D01*
X133423031Y-112255946D01*
X133336138Y-112406451D01*
X133332834Y-112412174D01*
X133330792Y-112418459D01*
X133293233Y-112534054D01*
X133275047Y-112590023D01*
X133274357Y-112596586D01*
X133274357Y-112596587D01*
X133259472Y-112738206D01*
X133255500Y-112776000D01*
X131836439Y-112776000D01*
X131834685Y-100099548D01*
X134019000Y-100099548D01*
X134019000Y-100679743D01*
X134019161Y-100684250D01*
X134023740Y-100748269D01*
X134026126Y-100761491D01*
X134062819Y-100886458D01*
X134070233Y-100902692D01*
X134139426Y-101010360D01*
X134151112Y-101023847D01*
X134247840Y-101107662D01*
X134262848Y-101117307D01*
X134379275Y-101170477D01*
X134392969Y-101174498D01*
X134452695Y-101212882D01*
X134482188Y-101277463D01*
X134472083Y-101347737D01*
X134440049Y-101390560D01*
X134408530Y-101417910D01*
X134408524Y-101417917D01*
X134404492Y-101421415D01*
X134401109Y-101425541D01*
X134401105Y-101425545D01*
X134371584Y-101461549D01*
X134258304Y-101599705D01*
X134255665Y-101604341D01*
X134255663Y-101604344D01*
X134198675Y-101704457D01*
X134144245Y-101800077D01*
X134065578Y-102016802D01*
X134064629Y-102022051D01*
X134064628Y-102022054D01*
X134042890Y-102142265D01*
X134024551Y-102243683D01*
X134024409Y-102258459D01*
X134022823Y-102423744D01*
X134022338Y-102474233D01*
X134059002Y-102701861D01*
X134133494Y-102920056D01*
X134136044Y-102924743D01*
X134136045Y-102924745D01*
X134166014Y-102979826D01*
X134243685Y-103122580D01*
X134386424Y-103303644D01*
X134390389Y-103307220D01*
X134553659Y-103454489D01*
X134553665Y-103454494D01*
X134557629Y-103458069D01*
X134562142Y-103460928D01*
X134562144Y-103460929D01*
X134680242Y-103535731D01*
X134727087Y-103589079D01*
X134737654Y-103659285D01*
X134708587Y-103724058D01*
X134678186Y-103749894D01*
X134583196Y-103807535D01*
X134583189Y-103807540D01*
X134578631Y-103810306D01*
X134574601Y-103813803D01*
X134481426Y-103894656D01*
X134404492Y-103961415D01*
X134401109Y-103965541D01*
X134401105Y-103965545D01*
X134328768Y-104053767D01*
X134258304Y-104139705D01*
X134144245Y-104340077D01*
X134065578Y-104556802D01*
X134064629Y-104562051D01*
X134064628Y-104562054D01*
X134042890Y-104682265D01*
X134024551Y-104783683D01*
X134024500Y-104789023D01*
X134023097Y-104935210D01*
X134022338Y-105014233D01*
X134059002Y-105241861D01*
X134133494Y-105460056D01*
X134243685Y-105662580D01*
X134386424Y-105843644D01*
X134390389Y-105847220D01*
X134553659Y-105994489D01*
X134553665Y-105994494D01*
X134557629Y-105998069D01*
X134562142Y-106000928D01*
X134562144Y-106000929D01*
X134680242Y-106075731D01*
X134727087Y-106129079D01*
X134737654Y-106199285D01*
X134708587Y-106264058D01*
X134678186Y-106289894D01*
X134583196Y-106347535D01*
X134583189Y-106347540D01*
X134578631Y-106350306D01*
X134574601Y-106353803D01*
X134434411Y-106475453D01*
X134404492Y-106501415D01*
X134401109Y-106505541D01*
X134401105Y-106505545D01*
X134328768Y-106593767D01*
X134258304Y-106679705D01*
X134144245Y-106880077D01*
X134065578Y-107096802D01*
X134064629Y-107102051D01*
X134064628Y-107102054D01*
X134042890Y-107222265D01*
X134024551Y-107323683D01*
X134024500Y-107329023D01*
X134023097Y-107475210D01*
X134022338Y-107554233D01*
X134059002Y-107781861D01*
X134133494Y-108000056D01*
X134243685Y-108202580D01*
X134386424Y-108383644D01*
X134418841Y-108412884D01*
X134553659Y-108534489D01*
X134553665Y-108534494D01*
X134557629Y-108538069D01*
X134562142Y-108540928D01*
X134562144Y-108540929D01*
X134571650Y-108546950D01*
X134752406Y-108661439D01*
X134965184Y-108750228D01*
X134970387Y-108751425D01*
X134970392Y-108751426D01*
X135184678Y-108800701D01*
X135184683Y-108800702D01*
X135189881Y-108801897D01*
X135195209Y-108802200D01*
X135195212Y-108802200D01*
X135351293Y-108811063D01*
X135420071Y-108814968D01*
X135425378Y-108814368D01*
X135425380Y-108814368D01*
X135546272Y-108800701D01*
X135649173Y-108789068D01*
X135654288Y-108787587D01*
X135654292Y-108787586D01*
X135783298Y-108750228D01*
X135870635Y-108724937D01*
X136078125Y-108624409D01*
X136082463Y-108621309D01*
X136082468Y-108621306D01*
X136261370Y-108493459D01*
X136265711Y-108490357D01*
X136428030Y-108326617D01*
X136515043Y-108202580D01*
X136557375Y-108142236D01*
X136557376Y-108142234D01*
X136560439Y-108137868D01*
X136659153Y-107929508D01*
X136721349Y-107707494D01*
X136725273Y-107669849D01*
X136735783Y-107569000D01*
X147828000Y-107569000D01*
X147828000Y-113665000D01*
X153924000Y-113665000D01*
X153924000Y-113030000D01*
X165856500Y-113030000D01*
X165876047Y-113215977D01*
X165933834Y-113393826D01*
X165937137Y-113399548D01*
X165937138Y-113399549D01*
X166024031Y-113550054D01*
X166024034Y-113550058D01*
X166027334Y-113555774D01*
X166152463Y-113694743D01*
X166303750Y-113804660D01*
X166309778Y-113807344D01*
X166309780Y-113807345D01*
X166468553Y-113878035D01*
X166474584Y-113880720D01*
X166566042Y-113900160D01*
X166651042Y-113918228D01*
X166651047Y-113918228D01*
X166657499Y-113919600D01*
X166844501Y-113919600D01*
X166850953Y-113918228D01*
X166850958Y-113918228D01*
X166935958Y-113900160D01*
X167027416Y-113880720D01*
X167033447Y-113878035D01*
X167192220Y-113807345D01*
X167192222Y-113807344D01*
X167198250Y-113804660D01*
X167349537Y-113694743D01*
X167474666Y-113555774D01*
X167477966Y-113550058D01*
X167477969Y-113550054D01*
X167564862Y-113399549D01*
X167564863Y-113399548D01*
X167568166Y-113393826D01*
X167625953Y-113215977D01*
X167645500Y-113030000D01*
X167639010Y-112968256D01*
X167626643Y-112850587D01*
X167626643Y-112850586D01*
X167625953Y-112844023D01*
X167568166Y-112666174D01*
X167564862Y-112660451D01*
X167477969Y-112509946D01*
X167477966Y-112509942D01*
X167474666Y-112504226D01*
X167470247Y-112499318D01*
X167353952Y-112370160D01*
X167353950Y-112370159D01*
X167349537Y-112365257D01*
X167198250Y-112255340D01*
X167192222Y-112252656D01*
X167192220Y-112252655D01*
X167033447Y-112181965D01*
X167033446Y-112181965D01*
X167027416Y-112179280D01*
X166928121Y-112158174D01*
X166850958Y-112141772D01*
X166850953Y-112141772D01*
X166844501Y-112140400D01*
X166657499Y-112140400D01*
X166651047Y-112141772D01*
X166651042Y-112141772D01*
X166573879Y-112158174D01*
X166474584Y-112179280D01*
X166468554Y-112181965D01*
X166468553Y-112181965D01*
X166309780Y-112252655D01*
X166309778Y-112252656D01*
X166303750Y-112255340D01*
X166152463Y-112365257D01*
X166148050Y-112370159D01*
X166148048Y-112370160D01*
X166031753Y-112499318D01*
X166027334Y-112504226D01*
X166024034Y-112509942D01*
X166024031Y-112509946D01*
X165937138Y-112660451D01*
X165933834Y-112666174D01*
X165876047Y-112844023D01*
X165875357Y-112850586D01*
X165875357Y-112850587D01*
X165862990Y-112968256D01*
X165856500Y-113030000D01*
X153924000Y-113030000D01*
X153924000Y-112015569D01*
X163570500Y-112015569D01*
X163571190Y-112022134D01*
X163587563Y-112177908D01*
X163590047Y-112201546D01*
X163647834Y-112379395D01*
X163651137Y-112385117D01*
X163651138Y-112385118D01*
X163738031Y-112535623D01*
X163738034Y-112535627D01*
X163741334Y-112541343D01*
X163866463Y-112680312D01*
X163871802Y-112684191D01*
X163998166Y-112776000D01*
X164017750Y-112790229D01*
X164023778Y-112792913D01*
X164023780Y-112792914D01*
X164182553Y-112863604D01*
X164188584Y-112866289D01*
X164280041Y-112885729D01*
X164365042Y-112903797D01*
X164365047Y-112903797D01*
X164371499Y-112905169D01*
X164558501Y-112905169D01*
X164564953Y-112903797D01*
X164564958Y-112903797D01*
X164649958Y-112885729D01*
X164741416Y-112866289D01*
X164747447Y-112863604D01*
X164906220Y-112792914D01*
X164906222Y-112792913D01*
X164912250Y-112790229D01*
X164931835Y-112776000D01*
X165058198Y-112684191D01*
X165063537Y-112680312D01*
X165188666Y-112541343D01*
X165191966Y-112535627D01*
X165191969Y-112535623D01*
X165278862Y-112385118D01*
X165278863Y-112385117D01*
X165282166Y-112379395D01*
X165339953Y-112201546D01*
X165342438Y-112177908D01*
X165358810Y-112022134D01*
X165359500Y-112015569D01*
X165339953Y-111829592D01*
X165282166Y-111651743D01*
X165277956Y-111644451D01*
X165191969Y-111495515D01*
X165191966Y-111495511D01*
X165188666Y-111489795D01*
X165182834Y-111483318D01*
X165067952Y-111355729D01*
X165067950Y-111355728D01*
X165063537Y-111350826D01*
X164912250Y-111240909D01*
X164906222Y-111238225D01*
X164906220Y-111238224D01*
X164747447Y-111167534D01*
X164747446Y-111167534D01*
X164741416Y-111164849D01*
X164637562Y-111142774D01*
X164564958Y-111127341D01*
X164564953Y-111127341D01*
X164558501Y-111125969D01*
X164371499Y-111125969D01*
X164365047Y-111127341D01*
X164365042Y-111127341D01*
X164292438Y-111142774D01*
X164188584Y-111164849D01*
X164182554Y-111167534D01*
X164182553Y-111167534D01*
X164023780Y-111238224D01*
X164023778Y-111238225D01*
X164017750Y-111240909D01*
X163866463Y-111350826D01*
X163862050Y-111355728D01*
X163862048Y-111355729D01*
X163747166Y-111483318D01*
X163741334Y-111489795D01*
X163738034Y-111495511D01*
X163738031Y-111495515D01*
X163652044Y-111644451D01*
X163647834Y-111651743D01*
X163590047Y-111829592D01*
X163570500Y-112015569D01*
X153924000Y-112015569D01*
X153924000Y-109072724D01*
X164204473Y-109072724D01*
X164224020Y-109258701D01*
X164281807Y-109436550D01*
X164285110Y-109442272D01*
X164285111Y-109442273D01*
X164372004Y-109592778D01*
X164372007Y-109592782D01*
X164375307Y-109598498D01*
X164500436Y-109737467D01*
X164505775Y-109741346D01*
X164644781Y-109842340D01*
X164651723Y-109847384D01*
X164657751Y-109850068D01*
X164657753Y-109850069D01*
X164816526Y-109920759D01*
X164822557Y-109923444D01*
X164914015Y-109942884D01*
X164999015Y-109960952D01*
X164999020Y-109960952D01*
X165005472Y-109962324D01*
X165192474Y-109962324D01*
X165198926Y-109960952D01*
X165198931Y-109960952D01*
X165283931Y-109942884D01*
X165375389Y-109923444D01*
X165381420Y-109920759D01*
X165540193Y-109850069D01*
X165540195Y-109850068D01*
X165546223Y-109847384D01*
X165553166Y-109842340D01*
X165692171Y-109741346D01*
X165697510Y-109737467D01*
X165822639Y-109598498D01*
X165825939Y-109592782D01*
X165825942Y-109592778D01*
X165912835Y-109442273D01*
X165912836Y-109442272D01*
X165916139Y-109436550D01*
X165973926Y-109258701D01*
X165993473Y-109072724D01*
X165973926Y-108886747D01*
X165950604Y-108814968D01*
X165918181Y-108715183D01*
X165916139Y-108708898D01*
X165912835Y-108703175D01*
X165825942Y-108552670D01*
X165825939Y-108552666D01*
X165822639Y-108546950D01*
X165817218Y-108540929D01*
X165701925Y-108412884D01*
X165701923Y-108412883D01*
X165697510Y-108407981D01*
X165546223Y-108298064D01*
X165540195Y-108295380D01*
X165540193Y-108295379D01*
X165381420Y-108224689D01*
X165381419Y-108224689D01*
X165375389Y-108222004D01*
X165261947Y-108197891D01*
X165198931Y-108184496D01*
X165198926Y-108184496D01*
X165192474Y-108183124D01*
X165005472Y-108183124D01*
X164999020Y-108184496D01*
X164999015Y-108184496D01*
X164935999Y-108197891D01*
X164822557Y-108222004D01*
X164816527Y-108224689D01*
X164816526Y-108224689D01*
X164657753Y-108295379D01*
X164657751Y-108295380D01*
X164651723Y-108298064D01*
X164500436Y-108407981D01*
X164496023Y-108412883D01*
X164496021Y-108412884D01*
X164380728Y-108540929D01*
X164375307Y-108546950D01*
X164372007Y-108552666D01*
X164372004Y-108552670D01*
X164285111Y-108703175D01*
X164281807Y-108708898D01*
X164279765Y-108715183D01*
X164247343Y-108814968D01*
X164224020Y-108886747D01*
X164204473Y-109072724D01*
X153924000Y-109072724D01*
X153924000Y-107569000D01*
X147828000Y-107569000D01*
X136735783Y-107569000D01*
X136740160Y-107527001D01*
X136745249Y-107478176D01*
X136745500Y-107452000D01*
X136737589Y-107358768D01*
X136726458Y-107227576D01*
X136726457Y-107227572D01*
X136726007Y-107222265D01*
X136668637Y-107001227D01*
X164234901Y-107001227D01*
X164254448Y-107187204D01*
X164312235Y-107365053D01*
X164315538Y-107370775D01*
X164315539Y-107370776D01*
X164402432Y-107521281D01*
X164402435Y-107521285D01*
X164405735Y-107527001D01*
X164530864Y-107665970D01*
X164536203Y-107669849D01*
X164580703Y-107702180D01*
X164682151Y-107775887D01*
X164688179Y-107778571D01*
X164688181Y-107778572D01*
X164846954Y-107849262D01*
X164852985Y-107851947D01*
X164944443Y-107871387D01*
X165029443Y-107889455D01*
X165029448Y-107889455D01*
X165035900Y-107890827D01*
X165222902Y-107890827D01*
X165229354Y-107889455D01*
X165229359Y-107889455D01*
X165314359Y-107871387D01*
X165405817Y-107851947D01*
X165411848Y-107849262D01*
X165570621Y-107778572D01*
X165570623Y-107778571D01*
X165576651Y-107775887D01*
X165678100Y-107702180D01*
X165722599Y-107669849D01*
X165727938Y-107665970D01*
X165853067Y-107527001D01*
X165856367Y-107521285D01*
X165856370Y-107521281D01*
X165943263Y-107370776D01*
X165943264Y-107370775D01*
X165946567Y-107365053D01*
X166004354Y-107187204D01*
X166023901Y-107001227D01*
X166004354Y-106815250D01*
X165995787Y-106788882D01*
X165948609Y-106643686D01*
X165946567Y-106637401D01*
X165921375Y-106593767D01*
X165856370Y-106481173D01*
X165856367Y-106481169D01*
X165853067Y-106475453D01*
X165743532Y-106353803D01*
X165732353Y-106341387D01*
X165732351Y-106341386D01*
X165727938Y-106336484D01*
X165589354Y-106235796D01*
X165581993Y-106230448D01*
X165581992Y-106230447D01*
X165576651Y-106226567D01*
X165570623Y-106223883D01*
X165570621Y-106223882D01*
X165411848Y-106153192D01*
X165411847Y-106153192D01*
X165405817Y-106150507D01*
X165305007Y-106129079D01*
X165229359Y-106112999D01*
X165229354Y-106112999D01*
X165222902Y-106111627D01*
X165035900Y-106111627D01*
X165029448Y-106112999D01*
X165029443Y-106112999D01*
X164953795Y-106129079D01*
X164852985Y-106150507D01*
X164846955Y-106153192D01*
X164846954Y-106153192D01*
X164688181Y-106223882D01*
X164688179Y-106223883D01*
X164682151Y-106226567D01*
X164676810Y-106230447D01*
X164676809Y-106230448D01*
X164669448Y-106235796D01*
X164530864Y-106336484D01*
X164526451Y-106341386D01*
X164526449Y-106341387D01*
X164515270Y-106353803D01*
X164405735Y-106475453D01*
X164402435Y-106481169D01*
X164402432Y-106481173D01*
X164337427Y-106593767D01*
X164312235Y-106637401D01*
X164310193Y-106643686D01*
X164263016Y-106788882D01*
X164254448Y-106815250D01*
X164234901Y-107001227D01*
X136668637Y-107001227D01*
X136668084Y-106999098D01*
X136616731Y-106885098D01*
X136575578Y-106793743D01*
X136575577Y-106793741D01*
X136573388Y-106788882D01*
X136444627Y-106597626D01*
X136285482Y-106430799D01*
X136100504Y-106293171D01*
X136095743Y-106290751D01*
X136092425Y-106288693D01*
X136045071Y-106235796D01*
X136033832Y-106165695D01*
X136062277Y-106100645D01*
X136085564Y-106079093D01*
X136094304Y-106072847D01*
X136265711Y-105950357D01*
X136428030Y-105786617D01*
X136515043Y-105662580D01*
X136557375Y-105602236D01*
X136557376Y-105602234D01*
X136560439Y-105597868D01*
X136659153Y-105389508D01*
X136721349Y-105167494D01*
X136745249Y-104938176D01*
X136745500Y-104912000D01*
X136745250Y-104909052D01*
X136726458Y-104687576D01*
X136726457Y-104687572D01*
X136726007Y-104682265D01*
X136668084Y-104459098D01*
X136616731Y-104345098D01*
X136575578Y-104253743D01*
X136575577Y-104253741D01*
X136573388Y-104248882D01*
X136444627Y-104057626D01*
X136285482Y-103890799D01*
X136100504Y-103753171D01*
X136095743Y-103750751D01*
X136092425Y-103748693D01*
X136045071Y-103695796D01*
X136033832Y-103625695D01*
X136062277Y-103560645D01*
X136085564Y-103539093D01*
X136186839Y-103466720D01*
X136265711Y-103410357D01*
X136428030Y-103246617D01*
X136515043Y-103122580D01*
X136557375Y-103062236D01*
X136557376Y-103062234D01*
X136560439Y-103057868D01*
X136659153Y-102849508D01*
X136721349Y-102627494D01*
X136745249Y-102398176D01*
X136745500Y-102372000D01*
X136735333Y-102252174D01*
X136726458Y-102147576D01*
X136726457Y-102147572D01*
X136726007Y-102142265D01*
X136718818Y-102114565D01*
X136717114Y-102108000D01*
X142107500Y-102108000D01*
X142127047Y-102293977D01*
X142184834Y-102471826D01*
X142188137Y-102477548D01*
X142188138Y-102477549D01*
X142275031Y-102628054D01*
X142275034Y-102628058D01*
X142278334Y-102633774D01*
X142282752Y-102638681D01*
X142282753Y-102638682D01*
X142334900Y-102696596D01*
X142403463Y-102772743D01*
X142408802Y-102776622D01*
X142515759Y-102854331D01*
X142554750Y-102882660D01*
X142560778Y-102885344D01*
X142560780Y-102885345D01*
X142719553Y-102956035D01*
X142725584Y-102958720D01*
X142817042Y-102978160D01*
X142902042Y-102996228D01*
X142902047Y-102996228D01*
X142908499Y-102997600D01*
X143095501Y-102997600D01*
X143101953Y-102996228D01*
X143101958Y-102996228D01*
X143186959Y-102978160D01*
X143278416Y-102958720D01*
X143284447Y-102956035D01*
X143443220Y-102885345D01*
X143443222Y-102885344D01*
X143449250Y-102882660D01*
X143488242Y-102854331D01*
X143595198Y-102776622D01*
X143600537Y-102772743D01*
X143669101Y-102696596D01*
X143721247Y-102638682D01*
X143721248Y-102638681D01*
X143725666Y-102633774D01*
X143728966Y-102628058D01*
X143728969Y-102628054D01*
X143735928Y-102616000D01*
X162808500Y-102616000D01*
X162828047Y-102801977D01*
X162885834Y-102979826D01*
X162889137Y-102985548D01*
X162889138Y-102985549D01*
X162976031Y-103136054D01*
X162976034Y-103136058D01*
X162979334Y-103141774D01*
X162983752Y-103146681D01*
X162983753Y-103146682D01*
X163077145Y-103250403D01*
X163104463Y-103280743D01*
X163255750Y-103390660D01*
X163261778Y-103393344D01*
X163261780Y-103393345D01*
X163407153Y-103458069D01*
X163426584Y-103466720D01*
X163518042Y-103486160D01*
X163603042Y-103504228D01*
X163603047Y-103504228D01*
X163609499Y-103505600D01*
X163796501Y-103505600D01*
X163802953Y-103504228D01*
X163802958Y-103504228D01*
X163887958Y-103486160D01*
X163979416Y-103466720D01*
X163998847Y-103458069D01*
X164144220Y-103393345D01*
X164144222Y-103393344D01*
X164150250Y-103390660D01*
X164301537Y-103280743D01*
X164328856Y-103250403D01*
X164422247Y-103146682D01*
X164422248Y-103146681D01*
X164426666Y-103141774D01*
X164429966Y-103136058D01*
X164429969Y-103136054D01*
X164516862Y-102985549D01*
X164516863Y-102985548D01*
X164520166Y-102979826D01*
X164577953Y-102801977D01*
X164597500Y-102616000D01*
X164967500Y-102616000D01*
X164987047Y-102801977D01*
X165044834Y-102979826D01*
X165048137Y-102985548D01*
X165048138Y-102985549D01*
X165135031Y-103136054D01*
X165135034Y-103136058D01*
X165138334Y-103141774D01*
X165142752Y-103146681D01*
X165142753Y-103146682D01*
X165236145Y-103250403D01*
X165263463Y-103280743D01*
X165414750Y-103390660D01*
X165420778Y-103393344D01*
X165420780Y-103393345D01*
X165566153Y-103458069D01*
X165585584Y-103466720D01*
X165677042Y-103486160D01*
X165762042Y-103504228D01*
X165762047Y-103504228D01*
X165768499Y-103505600D01*
X165955501Y-103505600D01*
X165961953Y-103504228D01*
X165961958Y-103504228D01*
X166046958Y-103486160D01*
X166138416Y-103466720D01*
X166157847Y-103458069D01*
X166303220Y-103393345D01*
X166303222Y-103393344D01*
X166309250Y-103390660D01*
X166460537Y-103280743D01*
X166487856Y-103250403D01*
X166581247Y-103146682D01*
X166581248Y-103146681D01*
X166585666Y-103141774D01*
X166588966Y-103136058D01*
X166588969Y-103136054D01*
X166675862Y-102985549D01*
X166675863Y-102985548D01*
X166679166Y-102979826D01*
X166736953Y-102801977D01*
X166756500Y-102616000D01*
X166736953Y-102430023D01*
X166679166Y-102252174D01*
X166674264Y-102243683D01*
X166588969Y-102095946D01*
X166588966Y-102095942D01*
X166585666Y-102090226D01*
X166581247Y-102085318D01*
X166464952Y-101956160D01*
X166464950Y-101956159D01*
X166460537Y-101951257D01*
X166409573Y-101914229D01*
X166314592Y-101845221D01*
X166314591Y-101845220D01*
X166309250Y-101841340D01*
X166303222Y-101838656D01*
X166303220Y-101838655D01*
X166144447Y-101767965D01*
X166144446Y-101767965D01*
X166138416Y-101765280D01*
X166039121Y-101744174D01*
X165961958Y-101727772D01*
X165961953Y-101727772D01*
X165955501Y-101726400D01*
X165768499Y-101726400D01*
X165762047Y-101727772D01*
X165762042Y-101727772D01*
X165684879Y-101744174D01*
X165585584Y-101765280D01*
X165579554Y-101767965D01*
X165579553Y-101767965D01*
X165420780Y-101838655D01*
X165420778Y-101838656D01*
X165414750Y-101841340D01*
X165409409Y-101845220D01*
X165409408Y-101845221D01*
X165314427Y-101914229D01*
X165263463Y-101951257D01*
X165259050Y-101956159D01*
X165259048Y-101956160D01*
X165142753Y-102085318D01*
X165138334Y-102090226D01*
X165135034Y-102095942D01*
X165135031Y-102095946D01*
X165049736Y-102243683D01*
X165044834Y-102252174D01*
X164987047Y-102430023D01*
X164967500Y-102616000D01*
X164597500Y-102616000D01*
X164577953Y-102430023D01*
X164520166Y-102252174D01*
X164515264Y-102243683D01*
X164429969Y-102095946D01*
X164429966Y-102095942D01*
X164426666Y-102090226D01*
X164422247Y-102085318D01*
X164305952Y-101956160D01*
X164305950Y-101956159D01*
X164301537Y-101951257D01*
X164250573Y-101914229D01*
X164155592Y-101845221D01*
X164155591Y-101845220D01*
X164150250Y-101841340D01*
X164144222Y-101838656D01*
X164144220Y-101838655D01*
X163985447Y-101767965D01*
X163985446Y-101767965D01*
X163979416Y-101765280D01*
X163880121Y-101744174D01*
X163802958Y-101727772D01*
X163802953Y-101727772D01*
X163796501Y-101726400D01*
X163609499Y-101726400D01*
X163603047Y-101727772D01*
X163603042Y-101727772D01*
X163525879Y-101744174D01*
X163426584Y-101765280D01*
X163420554Y-101767965D01*
X163420553Y-101767965D01*
X163261780Y-101838655D01*
X163261778Y-101838656D01*
X163255750Y-101841340D01*
X163250409Y-101845220D01*
X163250408Y-101845221D01*
X163155427Y-101914229D01*
X163104463Y-101951257D01*
X163100050Y-101956159D01*
X163100048Y-101956160D01*
X162983753Y-102085318D01*
X162979334Y-102090226D01*
X162976034Y-102095942D01*
X162976031Y-102095946D01*
X162890736Y-102243683D01*
X162885834Y-102252174D01*
X162828047Y-102430023D01*
X162808500Y-102616000D01*
X143735928Y-102616000D01*
X143815862Y-102477549D01*
X143815863Y-102477548D01*
X143819166Y-102471826D01*
X143876953Y-102293977D01*
X143896500Y-102108000D01*
X143886915Y-102016802D01*
X143877643Y-101928587D01*
X143877643Y-101928586D01*
X143876953Y-101922023D01*
X143819166Y-101744174D01*
X143815862Y-101738451D01*
X143728969Y-101587946D01*
X143728966Y-101587942D01*
X143725666Y-101582226D01*
X143664025Y-101513767D01*
X143604952Y-101448160D01*
X143604950Y-101448159D01*
X143600537Y-101443257D01*
X143528006Y-101390560D01*
X143454592Y-101337221D01*
X143454591Y-101337220D01*
X143449250Y-101333340D01*
X143443222Y-101330656D01*
X143443220Y-101330655D01*
X143284447Y-101259965D01*
X143284446Y-101259965D01*
X143278416Y-101257280D01*
X143186958Y-101237840D01*
X143101958Y-101219772D01*
X143101953Y-101219772D01*
X143095501Y-101218400D01*
X142908499Y-101218400D01*
X142902047Y-101219772D01*
X142902042Y-101219772D01*
X142817042Y-101237840D01*
X142725584Y-101257280D01*
X142719554Y-101259965D01*
X142719553Y-101259965D01*
X142560780Y-101330655D01*
X142560778Y-101330656D01*
X142554750Y-101333340D01*
X142549409Y-101337220D01*
X142549408Y-101337221D01*
X142475994Y-101390560D01*
X142403463Y-101443257D01*
X142399050Y-101448159D01*
X142399048Y-101448160D01*
X142339975Y-101513767D01*
X142278334Y-101582226D01*
X142275034Y-101587942D01*
X142275031Y-101587946D01*
X142188138Y-101738451D01*
X142184834Y-101744174D01*
X142127047Y-101922023D01*
X142126357Y-101928586D01*
X142126357Y-101928587D01*
X142117085Y-102016802D01*
X142107500Y-102108000D01*
X136717114Y-102108000D01*
X136669426Y-101924269D01*
X136668084Y-101919098D01*
X136644463Y-101866660D01*
X136575578Y-101713743D01*
X136575577Y-101713741D01*
X136573388Y-101708882D01*
X136444627Y-101517626D01*
X136440946Y-101513767D01*
X136312484Y-101379104D01*
X136279937Y-101316007D01*
X136286669Y-101245330D01*
X136330543Y-101189513D01*
X136368156Y-101171236D01*
X136436458Y-101151181D01*
X136452692Y-101143767D01*
X136533244Y-101092000D01*
X159252500Y-101092000D01*
X159272047Y-101277977D01*
X159274087Y-101284254D01*
X159274087Y-101284256D01*
X159295708Y-101350799D01*
X159329834Y-101455826D01*
X159333137Y-101461548D01*
X159333138Y-101461549D01*
X159420031Y-101612054D01*
X159420034Y-101612058D01*
X159423334Y-101617774D01*
X159427752Y-101622681D01*
X159427753Y-101622682D01*
X159537146Y-101744174D01*
X159548463Y-101756743D01*
X159553802Y-101760622D01*
X159661205Y-101838655D01*
X159699750Y-101866660D01*
X159705778Y-101869344D01*
X159705780Y-101869345D01*
X159864553Y-101940035D01*
X159870584Y-101942720D01*
X159962041Y-101962160D01*
X160047042Y-101980228D01*
X160047047Y-101980228D01*
X160053499Y-101981600D01*
X160240501Y-101981600D01*
X160246953Y-101980228D01*
X160246958Y-101980228D01*
X160331959Y-101962160D01*
X160423416Y-101942720D01*
X160429447Y-101940035D01*
X160588220Y-101869345D01*
X160588222Y-101869344D01*
X160594250Y-101866660D01*
X160632796Y-101838655D01*
X160740198Y-101760622D01*
X160745537Y-101756743D01*
X160756855Y-101744174D01*
X160866247Y-101622682D01*
X160866248Y-101622681D01*
X160870666Y-101617774D01*
X160873966Y-101612058D01*
X160873969Y-101612054D01*
X160960862Y-101461549D01*
X160960863Y-101461548D01*
X160964166Y-101455826D01*
X160998292Y-101350799D01*
X161019913Y-101284256D01*
X161019913Y-101284254D01*
X161021953Y-101277977D01*
X161041500Y-101092000D01*
X161021953Y-100906023D01*
X160964166Y-100728174D01*
X160936205Y-100679743D01*
X160873969Y-100571946D01*
X160873966Y-100571942D01*
X160870666Y-100566226D01*
X160745537Y-100427257D01*
X160594250Y-100317340D01*
X160588222Y-100314656D01*
X160588220Y-100314655D01*
X160429447Y-100243965D01*
X160429446Y-100243965D01*
X160423416Y-100241280D01*
X160331958Y-100221840D01*
X160246958Y-100203772D01*
X160246953Y-100203772D01*
X160240501Y-100202400D01*
X160053499Y-100202400D01*
X160047047Y-100203772D01*
X160047042Y-100203772D01*
X159962042Y-100221840D01*
X159870584Y-100241280D01*
X159864554Y-100243965D01*
X159864553Y-100243965D01*
X159705780Y-100314655D01*
X159705778Y-100314656D01*
X159699750Y-100317340D01*
X159548463Y-100427257D01*
X159423334Y-100566226D01*
X159420034Y-100571942D01*
X159420031Y-100571946D01*
X159357795Y-100679743D01*
X159329834Y-100728174D01*
X159272047Y-100906023D01*
X159252500Y-101092000D01*
X136533244Y-101092000D01*
X136560360Y-101074574D01*
X136573847Y-101062888D01*
X136657662Y-100966160D01*
X136667307Y-100951152D01*
X136720477Y-100834725D01*
X136725502Y-100817612D01*
X136744361Y-100686446D01*
X136745000Y-100677503D01*
X136745000Y-100104115D01*
X136740525Y-100088876D01*
X136739135Y-100087671D01*
X136731452Y-100086000D01*
X134037115Y-100086000D01*
X134021876Y-100090475D01*
X134020671Y-100091865D01*
X134019000Y-100099548D01*
X131834685Y-100099548D01*
X131834531Y-98986495D01*
X134019000Y-98986495D01*
X134019000Y-99559885D01*
X134023475Y-99575124D01*
X134024865Y-99576329D01*
X134032548Y-99578000D01*
X135109885Y-99578000D01*
X135125124Y-99573525D01*
X135126329Y-99572135D01*
X135128000Y-99564452D01*
X135128000Y-98487115D01*
X135126659Y-98482548D01*
X135636000Y-98482548D01*
X135636000Y-99559885D01*
X135640475Y-99575124D01*
X135641865Y-99576329D01*
X135649548Y-99578000D01*
X136726885Y-99578000D01*
X136742124Y-99573525D01*
X136743329Y-99572135D01*
X136745000Y-99564452D01*
X136745000Y-98984257D01*
X136744839Y-98979750D01*
X136740260Y-98915731D01*
X136737874Y-98902509D01*
X136701181Y-98777542D01*
X136693767Y-98761308D01*
X136624574Y-98653640D01*
X136612888Y-98640153D01*
X136516160Y-98556338D01*
X136501152Y-98546693D01*
X136384725Y-98493523D01*
X136367612Y-98488498D01*
X136236446Y-98469639D01*
X136227505Y-98469000D01*
X135654115Y-98469000D01*
X135638876Y-98473475D01*
X135637671Y-98474865D01*
X135636000Y-98482548D01*
X135126659Y-98482548D01*
X135123525Y-98471876D01*
X135122135Y-98470671D01*
X135114452Y-98469000D01*
X134534257Y-98469000D01*
X134529750Y-98469161D01*
X134465731Y-98473740D01*
X134452509Y-98476126D01*
X134327542Y-98512819D01*
X134311308Y-98520233D01*
X134203640Y-98589426D01*
X134190153Y-98601112D01*
X134106338Y-98697840D01*
X134096693Y-98712848D01*
X134043523Y-98829275D01*
X134038498Y-98846388D01*
X134019639Y-98977554D01*
X134019000Y-98986495D01*
X131834531Y-98986495D01*
X131833140Y-88939000D01*
X133129500Y-88939000D01*
X133129500Y-90639000D01*
X133134727Y-90712079D01*
X133175904Y-90852316D01*
X133180775Y-90859895D01*
X133250051Y-90967691D01*
X133250053Y-90967694D01*
X133254923Y-90975271D01*
X133261733Y-90981172D01*
X133358569Y-91065082D01*
X133358572Y-91065084D01*
X133365381Y-91070984D01*
X133373579Y-91074728D01*
X133485998Y-91126068D01*
X133498330Y-91131700D01*
X133507245Y-91132982D01*
X133507246Y-91132982D01*
X133638552Y-91151861D01*
X133638559Y-91151862D01*
X133643000Y-91152500D01*
X135343000Y-91152500D01*
X135416079Y-91147273D01*
X135494165Y-91124345D01*
X135547670Y-91108635D01*
X135547672Y-91108634D01*
X135556316Y-91106096D01*
X135622721Y-91063420D01*
X135671691Y-91031949D01*
X135671694Y-91031947D01*
X135679271Y-91027077D01*
X135704086Y-90998439D01*
X135769082Y-90923431D01*
X135769084Y-90923428D01*
X135774984Y-90916619D01*
X135835700Y-90783670D01*
X135836320Y-90779360D01*
X135873432Y-90721610D01*
X135938012Y-90692117D01*
X136008286Y-90702220D01*
X136040335Y-90723270D01*
X136208629Y-90875069D01*
X136403406Y-90998439D01*
X136616184Y-91087228D01*
X136621387Y-91088425D01*
X136621392Y-91088426D01*
X136835678Y-91137701D01*
X136835683Y-91137702D01*
X136840881Y-91138897D01*
X136846209Y-91139200D01*
X136846212Y-91139200D01*
X136996877Y-91147755D01*
X137071071Y-91151968D01*
X137076378Y-91151368D01*
X137076380Y-91151368D01*
X137250354Y-91131700D01*
X137300173Y-91126068D01*
X137305288Y-91124587D01*
X137305292Y-91124586D01*
X137434298Y-91087228D01*
X137521635Y-91061937D01*
X137729125Y-90961409D01*
X137733463Y-90958309D01*
X137733468Y-90958306D01*
X137912370Y-90830459D01*
X137916711Y-90827357D01*
X138079030Y-90663617D01*
X138082090Y-90659255D01*
X138082095Y-90659249D01*
X138200634Y-90490271D01*
X138256130Y-90445990D01*
X138326755Y-90438743D01*
X138390088Y-90470829D01*
X138414461Y-90502410D01*
X138434685Y-90539580D01*
X138577424Y-90720644D01*
X138581389Y-90724220D01*
X138744659Y-90871489D01*
X138744665Y-90871494D01*
X138748629Y-90875069D01*
X138943406Y-90998439D01*
X139156184Y-91087228D01*
X139161387Y-91088425D01*
X139161392Y-91088426D01*
X139375678Y-91137701D01*
X139375683Y-91137702D01*
X139380881Y-91138897D01*
X139386209Y-91139200D01*
X139386212Y-91139200D01*
X139536877Y-91147755D01*
X139611071Y-91151968D01*
X139616378Y-91151368D01*
X139616380Y-91151368D01*
X139790354Y-91131700D01*
X139840173Y-91126068D01*
X139845288Y-91124587D01*
X139845292Y-91124586D01*
X139974298Y-91087228D01*
X140061635Y-91061937D01*
X140269125Y-90961409D01*
X140273463Y-90958309D01*
X140273468Y-90958306D01*
X140452370Y-90830459D01*
X140456711Y-90827357D01*
X140619030Y-90663617D01*
X140622090Y-90659255D01*
X140622095Y-90659249D01*
X140740634Y-90490271D01*
X140796130Y-90445990D01*
X140866755Y-90438743D01*
X140930088Y-90470829D01*
X140954461Y-90502410D01*
X140974685Y-90539580D01*
X141117424Y-90720644D01*
X141121389Y-90724220D01*
X141284659Y-90871489D01*
X141284665Y-90871494D01*
X141288629Y-90875069D01*
X141483406Y-90998439D01*
X141696184Y-91087228D01*
X141701387Y-91088425D01*
X141701392Y-91088426D01*
X141915678Y-91137701D01*
X141915683Y-91137702D01*
X141920881Y-91138897D01*
X141926209Y-91139200D01*
X141926212Y-91139200D01*
X142076877Y-91147755D01*
X142151071Y-91151968D01*
X142156378Y-91151368D01*
X142156380Y-91151368D01*
X142330354Y-91131700D01*
X142380173Y-91126068D01*
X142385288Y-91124587D01*
X142385292Y-91124586D01*
X142514298Y-91087228D01*
X142601635Y-91061937D01*
X142809125Y-90961409D01*
X142813463Y-90958309D01*
X142813468Y-90958306D01*
X142992370Y-90830459D01*
X142996711Y-90827357D01*
X143159030Y-90663617D01*
X143162090Y-90659255D01*
X143162095Y-90659249D01*
X143280634Y-90490271D01*
X143336130Y-90445990D01*
X143406755Y-90438743D01*
X143470088Y-90470829D01*
X143494461Y-90502410D01*
X143514685Y-90539580D01*
X143657424Y-90720644D01*
X143661389Y-90724220D01*
X143824659Y-90871489D01*
X143824665Y-90871494D01*
X143828629Y-90875069D01*
X144023406Y-90998439D01*
X144236184Y-91087228D01*
X144241387Y-91088425D01*
X144241392Y-91088426D01*
X144455678Y-91137701D01*
X144455683Y-91137702D01*
X144460881Y-91138897D01*
X144466209Y-91139200D01*
X144466212Y-91139200D01*
X144616877Y-91147755D01*
X144691071Y-91151968D01*
X144696378Y-91151368D01*
X144696380Y-91151368D01*
X144870354Y-91131700D01*
X144920173Y-91126068D01*
X144925288Y-91124587D01*
X144925292Y-91124586D01*
X145054298Y-91087228D01*
X145141635Y-91061937D01*
X145349125Y-90961409D01*
X145353463Y-90958309D01*
X145353468Y-90958306D01*
X145532370Y-90830459D01*
X145536711Y-90827357D01*
X145699030Y-90663617D01*
X145702090Y-90659255D01*
X145702095Y-90659249D01*
X145820634Y-90490271D01*
X145876130Y-90445990D01*
X145946755Y-90438743D01*
X146010088Y-90470829D01*
X146034461Y-90502410D01*
X146054685Y-90539580D01*
X146197424Y-90720644D01*
X146201389Y-90724220D01*
X146364659Y-90871489D01*
X146364665Y-90871494D01*
X146368629Y-90875069D01*
X146563406Y-90998439D01*
X146776184Y-91087228D01*
X146781387Y-91088425D01*
X146781392Y-91088426D01*
X146995678Y-91137701D01*
X146995683Y-91137702D01*
X147000881Y-91138897D01*
X147006209Y-91139200D01*
X147006212Y-91139200D01*
X147156877Y-91147755D01*
X147231071Y-91151968D01*
X147236378Y-91151368D01*
X147236380Y-91151368D01*
X147410354Y-91131700D01*
X147460173Y-91126068D01*
X147465288Y-91124587D01*
X147465292Y-91124586D01*
X147594298Y-91087228D01*
X147681635Y-91061937D01*
X147889125Y-90961409D01*
X147893463Y-90958309D01*
X147893468Y-90958306D01*
X148072370Y-90830459D01*
X148076711Y-90827357D01*
X148239030Y-90663617D01*
X148329330Y-90534895D01*
X148368375Y-90479236D01*
X148368376Y-90479234D01*
X148371439Y-90474868D01*
X148470153Y-90266508D01*
X148532349Y-90044494D01*
X148556249Y-89815176D01*
X148556500Y-89789000D01*
X148546747Y-89674054D01*
X148537458Y-89564576D01*
X148537457Y-89564572D01*
X148537007Y-89559265D01*
X148520774Y-89496720D01*
X148498313Y-89410182D01*
X148479084Y-89336098D01*
X148467663Y-89310743D01*
X148386578Y-89130743D01*
X148386577Y-89130741D01*
X148384388Y-89125882D01*
X148373338Y-89109468D01*
X148353686Y-89080278D01*
X148255627Y-88934626D01*
X148096482Y-88767799D01*
X147932779Y-88646000D01*
X154680500Y-88646000D01*
X154681190Y-88652565D01*
X154696719Y-88800309D01*
X154700047Y-88831977D01*
X154702087Y-88838254D01*
X154702087Y-88838256D01*
X154704397Y-88845365D01*
X154757834Y-89009826D01*
X154761137Y-89015548D01*
X154761138Y-89015549D01*
X154848031Y-89166054D01*
X154848034Y-89166058D01*
X154851334Y-89171774D01*
X154855752Y-89176681D01*
X154855753Y-89176682D01*
X154969361Y-89302855D01*
X154976463Y-89310743D01*
X155127750Y-89420660D01*
X155133778Y-89423344D01*
X155133780Y-89423345D01*
X155292553Y-89494035D01*
X155298584Y-89496720D01*
X155390042Y-89516160D01*
X155475042Y-89534228D01*
X155475047Y-89534228D01*
X155481499Y-89535600D01*
X155668501Y-89535600D01*
X155674953Y-89534228D01*
X155674958Y-89534228D01*
X155759958Y-89516160D01*
X155851416Y-89496720D01*
X155857447Y-89494035D01*
X156016220Y-89423345D01*
X156016222Y-89423344D01*
X156022250Y-89420660D01*
X156173537Y-89310743D01*
X156180640Y-89302855D01*
X156294247Y-89176682D01*
X156294248Y-89176681D01*
X156298666Y-89171774D01*
X156301966Y-89166058D01*
X156301969Y-89166054D01*
X156308928Y-89154000D01*
X161411500Y-89154000D01*
X161412190Y-89160565D01*
X161430128Y-89331229D01*
X161431047Y-89339977D01*
X161488834Y-89517826D01*
X161492137Y-89523548D01*
X161492138Y-89523549D01*
X161579031Y-89674054D01*
X161579033Y-89674057D01*
X161582334Y-89679774D01*
X161586752Y-89684681D01*
X161586753Y-89684682D01*
X161661944Y-89768189D01*
X161692661Y-89832197D01*
X161683898Y-89902650D01*
X161661945Y-89936810D01*
X161582334Y-90025226D01*
X161579034Y-90030942D01*
X161579031Y-90030946D01*
X161522400Y-90129035D01*
X161488834Y-90187174D01*
X161431047Y-90365023D01*
X161411500Y-90551000D01*
X161412190Y-90557565D01*
X161429112Y-90718562D01*
X161431047Y-90736977D01*
X161433087Y-90743254D01*
X161433087Y-90743256D01*
X161448881Y-90791863D01*
X161488834Y-90914826D01*
X161492137Y-90920548D01*
X161492138Y-90920549D01*
X161579031Y-91071054D01*
X161579034Y-91071058D01*
X161582334Y-91076774D01*
X161586752Y-91081681D01*
X161586753Y-91081682D01*
X161649767Y-91151665D01*
X161707463Y-91215743D01*
X161858750Y-91325660D01*
X161864778Y-91328344D01*
X161864780Y-91328345D01*
X162023553Y-91399035D01*
X162029584Y-91401720D01*
X162121041Y-91421160D01*
X162206042Y-91439228D01*
X162206047Y-91439228D01*
X162212499Y-91440600D01*
X162399501Y-91440600D01*
X162405953Y-91439228D01*
X162405958Y-91439228D01*
X162490959Y-91421160D01*
X162582416Y-91401720D01*
X162588447Y-91399035D01*
X162747220Y-91328345D01*
X162747222Y-91328344D01*
X162753250Y-91325660D01*
X162904537Y-91215743D01*
X162962234Y-91151665D01*
X163025247Y-91081682D01*
X163025248Y-91081681D01*
X163029666Y-91076774D01*
X163032966Y-91071058D01*
X163032969Y-91071054D01*
X163119862Y-90920549D01*
X163119863Y-90920548D01*
X163123166Y-90914826D01*
X163163119Y-90791863D01*
X163178913Y-90743256D01*
X163178913Y-90743254D01*
X163180953Y-90736977D01*
X163182889Y-90718562D01*
X163199810Y-90557565D01*
X163200500Y-90551000D01*
X163180953Y-90365023D01*
X163123166Y-90187174D01*
X163089600Y-90129035D01*
X163032969Y-90030946D01*
X163032966Y-90030942D01*
X163029666Y-90025226D01*
X162950056Y-89936810D01*
X162919339Y-89872803D01*
X162928102Y-89802350D01*
X162950056Y-89768189D01*
X163025247Y-89684682D01*
X163025248Y-89684681D01*
X163029666Y-89679774D01*
X163049220Y-89645905D01*
X163100603Y-89596912D01*
X163170317Y-89583477D01*
X163236228Y-89609864D01*
X163267456Y-89645904D01*
X163360334Y-89806774D01*
X163364752Y-89811681D01*
X163364753Y-89811682D01*
X163477421Y-89936811D01*
X163485463Y-89945743D01*
X163490802Y-89949622D01*
X163628459Y-90049636D01*
X163636750Y-90055660D01*
X163642778Y-90058344D01*
X163642780Y-90058345D01*
X163801553Y-90129035D01*
X163807584Y-90131720D01*
X163899042Y-90151160D01*
X163984042Y-90169228D01*
X163984047Y-90169228D01*
X163990499Y-90170600D01*
X164177501Y-90170600D01*
X164183953Y-90169228D01*
X164183958Y-90169228D01*
X164268958Y-90151160D01*
X164360416Y-90131720D01*
X164366447Y-90129035D01*
X164525220Y-90058345D01*
X164525222Y-90058344D01*
X164531250Y-90055660D01*
X164536592Y-90051779D01*
X164644939Y-89973060D01*
X164711807Y-89949201D01*
X164780958Y-89965282D01*
X164793061Y-89973060D01*
X164901408Y-90051779D01*
X164906750Y-90055660D01*
X164912778Y-90058344D01*
X164912780Y-90058345D01*
X165071553Y-90129035D01*
X165077584Y-90131720D01*
X165169042Y-90151160D01*
X165254042Y-90169228D01*
X165254047Y-90169228D01*
X165260499Y-90170600D01*
X165447501Y-90170600D01*
X165453953Y-90169228D01*
X165453958Y-90169228D01*
X165538958Y-90151160D01*
X165630416Y-90131720D01*
X165636447Y-90129035D01*
X165795220Y-90058345D01*
X165795222Y-90058344D01*
X165801250Y-90055660D01*
X165809542Y-90049636D01*
X165947198Y-89949622D01*
X165952537Y-89945743D01*
X165960580Y-89936811D01*
X166073247Y-89811682D01*
X166073248Y-89811681D01*
X166077666Y-89806774D01*
X166080966Y-89801058D01*
X166080969Y-89801054D01*
X166167862Y-89650549D01*
X166167863Y-89650548D01*
X166171166Y-89644826D01*
X166228953Y-89466977D01*
X166248500Y-89281000D01*
X166228953Y-89095023D01*
X166226773Y-89088312D01*
X166185648Y-88961744D01*
X166171166Y-88917174D01*
X166167862Y-88911451D01*
X166080969Y-88760946D01*
X166080966Y-88760942D01*
X166077666Y-88755226D01*
X165989000Y-88656753D01*
X165956952Y-88621160D01*
X165956950Y-88621159D01*
X165952537Y-88616257D01*
X165842466Y-88536285D01*
X165806592Y-88510221D01*
X165806591Y-88510220D01*
X165801250Y-88506340D01*
X165795222Y-88503656D01*
X165795220Y-88503655D01*
X165636447Y-88432965D01*
X165636446Y-88432965D01*
X165630416Y-88430280D01*
X165522855Y-88407417D01*
X165453958Y-88392772D01*
X165453953Y-88392772D01*
X165447501Y-88391400D01*
X165260499Y-88391400D01*
X165254047Y-88392772D01*
X165254042Y-88392772D01*
X165185145Y-88407417D01*
X165077584Y-88430280D01*
X165071554Y-88432965D01*
X165071553Y-88432965D01*
X164912780Y-88503655D01*
X164912778Y-88503656D01*
X164906750Y-88506340D01*
X164901409Y-88510220D01*
X164901408Y-88510221D01*
X164793061Y-88588940D01*
X164726193Y-88612799D01*
X164657042Y-88596718D01*
X164644939Y-88588940D01*
X164536592Y-88510221D01*
X164536591Y-88510220D01*
X164531250Y-88506340D01*
X164525222Y-88503656D01*
X164525220Y-88503655D01*
X164366447Y-88432965D01*
X164366446Y-88432965D01*
X164360416Y-88430280D01*
X164252855Y-88407417D01*
X164183958Y-88392772D01*
X164183953Y-88392772D01*
X164177501Y-88391400D01*
X163990499Y-88391400D01*
X163984047Y-88392772D01*
X163984042Y-88392772D01*
X163915145Y-88407417D01*
X163807584Y-88430280D01*
X163801554Y-88432965D01*
X163801553Y-88432965D01*
X163642780Y-88503655D01*
X163642778Y-88503656D01*
X163636750Y-88506340D01*
X163631409Y-88510220D01*
X163631408Y-88510221D01*
X163595534Y-88536285D01*
X163485463Y-88616257D01*
X163481050Y-88621159D01*
X163481048Y-88621160D01*
X163449000Y-88656753D01*
X163360334Y-88755226D01*
X163343461Y-88784451D01*
X163340780Y-88789095D01*
X163289397Y-88838088D01*
X163219683Y-88851523D01*
X163153772Y-88825136D01*
X163122543Y-88789095D01*
X163029666Y-88628226D01*
X163018889Y-88616257D01*
X162908952Y-88494160D01*
X162908950Y-88494159D01*
X162904537Y-88489257D01*
X162821474Y-88428908D01*
X162758592Y-88383221D01*
X162758591Y-88383220D01*
X162753250Y-88379340D01*
X162747222Y-88376656D01*
X162747220Y-88376655D01*
X162588447Y-88305965D01*
X162588446Y-88305965D01*
X162582416Y-88303280D01*
X162483121Y-88282174D01*
X162405958Y-88265772D01*
X162405953Y-88265772D01*
X162399501Y-88264400D01*
X162212499Y-88264400D01*
X162206047Y-88265772D01*
X162206042Y-88265772D01*
X162128879Y-88282174D01*
X162029584Y-88303280D01*
X162023554Y-88305965D01*
X162023553Y-88305965D01*
X161864780Y-88376655D01*
X161864778Y-88376656D01*
X161858750Y-88379340D01*
X161853409Y-88383220D01*
X161853408Y-88383221D01*
X161790526Y-88428908D01*
X161707463Y-88489257D01*
X161703050Y-88494159D01*
X161703048Y-88494160D01*
X161593111Y-88616257D01*
X161582334Y-88628226D01*
X161579034Y-88633942D01*
X161579031Y-88633946D01*
X161503590Y-88764616D01*
X161488834Y-88790174D01*
X161431047Y-88968023D01*
X161430357Y-88974586D01*
X161430357Y-88974587D01*
X161415340Y-89117461D01*
X161411500Y-89154000D01*
X156308928Y-89154000D01*
X156388862Y-89015549D01*
X156388863Y-89015548D01*
X156392166Y-89009826D01*
X156445603Y-88845365D01*
X156447913Y-88838256D01*
X156447913Y-88838254D01*
X156449953Y-88831977D01*
X156453282Y-88800309D01*
X156468810Y-88652565D01*
X156469500Y-88646000D01*
X156458995Y-88546051D01*
X156450643Y-88466587D01*
X156450643Y-88466586D01*
X156449953Y-88460023D01*
X156446329Y-88448868D01*
X156409353Y-88335069D01*
X156392166Y-88282174D01*
X156386617Y-88272562D01*
X156301969Y-88125946D01*
X156301966Y-88125942D01*
X156298666Y-88120226D01*
X156173537Y-87981257D01*
X156103050Y-87930045D01*
X156027592Y-87875221D01*
X156027591Y-87875220D01*
X156022250Y-87871340D01*
X156016222Y-87868656D01*
X156016220Y-87868655D01*
X155857447Y-87797965D01*
X155857446Y-87797965D01*
X155851416Y-87795280D01*
X155759959Y-87775840D01*
X155674958Y-87757772D01*
X155674953Y-87757772D01*
X155668501Y-87756400D01*
X155481499Y-87756400D01*
X155475047Y-87757772D01*
X155475042Y-87757772D01*
X155390041Y-87775840D01*
X155298584Y-87795280D01*
X155292554Y-87797965D01*
X155292553Y-87797965D01*
X155133780Y-87868655D01*
X155133778Y-87868656D01*
X155127750Y-87871340D01*
X155122409Y-87875220D01*
X155122408Y-87875221D01*
X155046950Y-87930045D01*
X154976463Y-87981257D01*
X154851334Y-88120226D01*
X154848034Y-88125942D01*
X154848031Y-88125946D01*
X154763383Y-88272562D01*
X154757834Y-88282174D01*
X154740647Y-88335069D01*
X154703672Y-88448868D01*
X154700047Y-88460023D01*
X154699357Y-88466586D01*
X154699357Y-88466587D01*
X154691005Y-88546051D01*
X154680500Y-88646000D01*
X147932779Y-88646000D01*
X147911504Y-88630171D01*
X147906743Y-88627751D01*
X147903425Y-88625693D01*
X147856071Y-88572796D01*
X147844832Y-88502695D01*
X147873277Y-88437645D01*
X147896564Y-88416093D01*
X147947994Y-88379340D01*
X148076711Y-88287357D01*
X148239030Y-88123617D01*
X148329330Y-87994895D01*
X148368375Y-87939236D01*
X148368376Y-87939234D01*
X148371439Y-87934868D01*
X148470153Y-87726508D01*
X148532349Y-87504494D01*
X148556249Y-87275176D01*
X148556500Y-87249000D01*
X148556250Y-87246052D01*
X148537458Y-87024576D01*
X148537457Y-87024572D01*
X148537007Y-87019265D01*
X148479084Y-86796098D01*
X148427731Y-86682098D01*
X148386578Y-86590743D01*
X148386577Y-86590741D01*
X148384388Y-86585882D01*
X148255627Y-86394626D01*
X148096482Y-86227799D01*
X147911504Y-86090171D01*
X147906753Y-86087755D01*
X147906749Y-86087753D01*
X147710740Y-85988097D01*
X147710739Y-85988097D01*
X147705982Y-85985678D01*
X147565033Y-85941912D01*
X147490895Y-85918891D01*
X147490889Y-85918890D01*
X147485792Y-85917307D01*
X147380798Y-85903391D01*
X147262515Y-85887714D01*
X147262510Y-85887714D01*
X147257230Y-85887014D01*
X147251900Y-85887214D01*
X147251899Y-85887214D01*
X147142031Y-85891338D01*
X147026831Y-85895663D01*
X146944368Y-85912966D01*
X146806411Y-85941912D01*
X146806408Y-85941913D01*
X146801184Y-85943009D01*
X146586740Y-86027697D01*
X146389631Y-86147306D01*
X146385601Y-86150803D01*
X146292426Y-86231656D01*
X146215492Y-86298415D01*
X146212109Y-86302541D01*
X146212105Y-86302545D01*
X146139768Y-86390767D01*
X146069304Y-86476705D01*
X146066667Y-86481338D01*
X146066666Y-86481339D01*
X146033116Y-86540278D01*
X145982033Y-86589584D01*
X145912402Y-86603445D01*
X145846332Y-86577461D01*
X145819094Y-86548312D01*
X145813686Y-86540278D01*
X145756088Y-86454725D01*
X145718607Y-86399052D01*
X145718605Y-86399050D01*
X145715627Y-86394626D01*
X145556482Y-86227799D01*
X145371504Y-86090171D01*
X145366753Y-86087755D01*
X145366749Y-86087753D01*
X145170740Y-85988097D01*
X145170739Y-85988097D01*
X145165982Y-85985678D01*
X145025033Y-85941912D01*
X144950895Y-85918891D01*
X144950889Y-85918890D01*
X144945792Y-85917307D01*
X144840798Y-85903391D01*
X144722515Y-85887714D01*
X144722510Y-85887714D01*
X144717230Y-85887014D01*
X144711900Y-85887214D01*
X144711899Y-85887214D01*
X144602031Y-85891338D01*
X144486831Y-85895663D01*
X144404368Y-85912966D01*
X144266411Y-85941912D01*
X144266408Y-85941913D01*
X144261184Y-85943009D01*
X144046740Y-86027697D01*
X143849631Y-86147306D01*
X143845601Y-86150803D01*
X143752426Y-86231656D01*
X143675492Y-86298415D01*
X143672109Y-86302541D01*
X143672105Y-86302545D01*
X143599768Y-86390767D01*
X143529304Y-86476705D01*
X143526667Y-86481338D01*
X143526666Y-86481339D01*
X143493116Y-86540278D01*
X143442033Y-86589584D01*
X143372402Y-86603445D01*
X143306332Y-86577461D01*
X143279094Y-86548312D01*
X143273686Y-86540278D01*
X143216088Y-86454725D01*
X143178607Y-86399052D01*
X143178605Y-86399050D01*
X143175627Y-86394626D01*
X143016482Y-86227799D01*
X142831504Y-86090171D01*
X142826753Y-86087755D01*
X142826749Y-86087753D01*
X142630740Y-85988097D01*
X142630739Y-85988097D01*
X142625982Y-85985678D01*
X142485033Y-85941912D01*
X142410895Y-85918891D01*
X142410889Y-85918890D01*
X142405792Y-85917307D01*
X142300798Y-85903391D01*
X142182515Y-85887714D01*
X142182510Y-85887714D01*
X142177230Y-85887014D01*
X142171900Y-85887214D01*
X142171899Y-85887214D01*
X142062031Y-85891338D01*
X141946831Y-85895663D01*
X141864368Y-85912966D01*
X141726411Y-85941912D01*
X141726408Y-85941913D01*
X141721184Y-85943009D01*
X141506740Y-86027697D01*
X141309631Y-86147306D01*
X141305601Y-86150803D01*
X141212426Y-86231656D01*
X141135492Y-86298415D01*
X141132109Y-86302541D01*
X141132105Y-86302545D01*
X141059768Y-86390767D01*
X140989304Y-86476705D01*
X140986667Y-86481338D01*
X140986666Y-86481339D01*
X140953116Y-86540278D01*
X140902033Y-86589584D01*
X140832402Y-86603445D01*
X140766332Y-86577461D01*
X140739094Y-86548312D01*
X140733686Y-86540278D01*
X140676088Y-86454725D01*
X140638607Y-86399052D01*
X140638605Y-86399050D01*
X140635627Y-86394626D01*
X140476482Y-86227799D01*
X140291504Y-86090171D01*
X140286753Y-86087755D01*
X140286749Y-86087753D01*
X140090740Y-85988097D01*
X140090739Y-85988097D01*
X140085982Y-85985678D01*
X139945033Y-85941912D01*
X139870895Y-85918891D01*
X139870889Y-85918890D01*
X139865792Y-85917307D01*
X139760798Y-85903391D01*
X139642515Y-85887714D01*
X139642510Y-85887714D01*
X139637230Y-85887014D01*
X139631900Y-85887214D01*
X139631899Y-85887214D01*
X139522031Y-85891338D01*
X139406831Y-85895663D01*
X139324368Y-85912966D01*
X139186411Y-85941912D01*
X139186408Y-85941913D01*
X139181184Y-85943009D01*
X138966740Y-86027697D01*
X138769631Y-86147306D01*
X138765601Y-86150803D01*
X138672426Y-86231656D01*
X138595492Y-86298415D01*
X138592109Y-86302541D01*
X138592105Y-86302545D01*
X138519768Y-86390767D01*
X138449304Y-86476705D01*
X138446667Y-86481338D01*
X138446666Y-86481339D01*
X138413116Y-86540278D01*
X138362033Y-86589584D01*
X138292402Y-86603445D01*
X138226332Y-86577461D01*
X138199094Y-86548312D01*
X138193686Y-86540278D01*
X138136088Y-86454725D01*
X138098607Y-86399052D01*
X138098605Y-86399050D01*
X138095627Y-86394626D01*
X137936482Y-86227799D01*
X137751504Y-86090171D01*
X137746753Y-86087755D01*
X137746749Y-86087753D01*
X137550740Y-85988097D01*
X137550739Y-85988097D01*
X137545982Y-85985678D01*
X137405033Y-85941912D01*
X137330895Y-85918891D01*
X137330889Y-85918890D01*
X137325792Y-85917307D01*
X137220798Y-85903391D01*
X137102515Y-85887714D01*
X137102510Y-85887714D01*
X137097230Y-85887014D01*
X137091900Y-85887214D01*
X137091899Y-85887214D01*
X136982031Y-85891338D01*
X136866831Y-85895663D01*
X136784368Y-85912966D01*
X136646411Y-85941912D01*
X136646408Y-85941913D01*
X136641184Y-85943009D01*
X136426740Y-86027697D01*
X136229631Y-86147306D01*
X136225601Y-86150803D01*
X136132426Y-86231656D01*
X136055492Y-86298415D01*
X136052109Y-86302541D01*
X136052105Y-86302545D01*
X135979768Y-86390767D01*
X135909304Y-86476705D01*
X135906667Y-86481338D01*
X135906666Y-86481339D01*
X135873116Y-86540278D01*
X135822033Y-86589584D01*
X135752402Y-86603445D01*
X135686332Y-86577461D01*
X135659094Y-86548312D01*
X135653686Y-86540278D01*
X135596088Y-86454725D01*
X135558607Y-86399052D01*
X135558605Y-86399050D01*
X135555627Y-86394626D01*
X135396482Y-86227799D01*
X135211504Y-86090171D01*
X135206753Y-86087755D01*
X135206749Y-86087753D01*
X135010740Y-85988097D01*
X135010739Y-85988097D01*
X135005982Y-85985678D01*
X134865033Y-85941912D01*
X134790895Y-85918891D01*
X134790889Y-85918890D01*
X134785792Y-85917307D01*
X134680798Y-85903391D01*
X134562515Y-85887714D01*
X134562510Y-85887714D01*
X134557230Y-85887014D01*
X134551900Y-85887214D01*
X134551899Y-85887214D01*
X134442031Y-85891338D01*
X134326831Y-85895663D01*
X134244368Y-85912966D01*
X134106411Y-85941912D01*
X134106408Y-85941913D01*
X134101184Y-85943009D01*
X133886740Y-86027697D01*
X133689631Y-86147306D01*
X133685601Y-86150803D01*
X133592426Y-86231656D01*
X133515492Y-86298415D01*
X133512109Y-86302541D01*
X133512105Y-86302545D01*
X133439768Y-86390767D01*
X133369304Y-86476705D01*
X133255245Y-86677077D01*
X133176578Y-86893802D01*
X133175629Y-86899051D01*
X133175628Y-86899054D01*
X133153890Y-87019265D01*
X133135551Y-87120683D01*
X133135500Y-87126023D01*
X133134097Y-87272210D01*
X133133338Y-87351233D01*
X133170002Y-87578861D01*
X133244494Y-87797056D01*
X133354685Y-87999580D01*
X133497424Y-88180644D01*
X133557034Y-88234411D01*
X133594219Y-88294888D01*
X133592805Y-88365871D01*
X133553240Y-88424821D01*
X133508138Y-88448868D01*
X133438330Y-88469365D01*
X133438328Y-88469366D01*
X133429684Y-88471904D01*
X133395053Y-88494160D01*
X133314309Y-88546051D01*
X133314306Y-88546053D01*
X133306729Y-88550923D01*
X133300828Y-88557733D01*
X133216918Y-88654569D01*
X133216916Y-88654572D01*
X133211016Y-88661381D01*
X133150300Y-88794330D01*
X133149018Y-88803245D01*
X133149018Y-88803246D01*
X133130139Y-88934552D01*
X133130138Y-88934559D01*
X133129500Y-88939000D01*
X131833140Y-88939000D01*
X131832719Y-85895663D01*
X131832642Y-85344000D01*
X150489500Y-85344000D01*
X150509047Y-85529977D01*
X150566834Y-85707826D01*
X150570137Y-85713548D01*
X150570138Y-85713549D01*
X150657031Y-85864054D01*
X150657034Y-85864058D01*
X150660334Y-85869774D01*
X150664752Y-85874681D01*
X150664753Y-85874682D01*
X150725288Y-85941912D01*
X150785463Y-86008743D01*
X150790802Y-86012622D01*
X150901924Y-86093357D01*
X150936750Y-86118660D01*
X150942778Y-86121344D01*
X150942780Y-86121345D01*
X151101553Y-86192035D01*
X151107584Y-86194720D01*
X151199041Y-86214160D01*
X151284042Y-86232228D01*
X151284047Y-86232228D01*
X151290499Y-86233600D01*
X151477501Y-86233600D01*
X151483953Y-86232228D01*
X151483958Y-86232228D01*
X151568959Y-86214160D01*
X151660416Y-86194720D01*
X151666447Y-86192035D01*
X151825220Y-86121345D01*
X151825222Y-86121344D01*
X151831250Y-86118660D01*
X151866077Y-86093357D01*
X151977198Y-86012622D01*
X151982537Y-86008743D01*
X152042713Y-85941912D01*
X152103247Y-85874682D01*
X152103248Y-85874681D01*
X152107666Y-85869774D01*
X152110966Y-85864058D01*
X152110969Y-85864054D01*
X152197862Y-85713549D01*
X152197863Y-85713548D01*
X152201166Y-85707826D01*
X152258953Y-85529977D01*
X152278500Y-85344000D01*
X152258953Y-85158023D01*
X152201166Y-84980174D01*
X152197862Y-84974451D01*
X152110969Y-84823946D01*
X152110966Y-84823942D01*
X152107666Y-84818226D01*
X151982537Y-84679257D01*
X151831250Y-84569340D01*
X151825222Y-84566656D01*
X151825220Y-84566655D01*
X151666447Y-84495965D01*
X151666446Y-84495965D01*
X151660416Y-84493280D01*
X151568959Y-84473840D01*
X151483958Y-84455772D01*
X151483953Y-84455772D01*
X151477501Y-84454400D01*
X151290499Y-84454400D01*
X151284047Y-84455772D01*
X151284042Y-84455772D01*
X151199041Y-84473840D01*
X151107584Y-84493280D01*
X151101554Y-84495965D01*
X151101553Y-84495965D01*
X150942780Y-84566655D01*
X150942778Y-84566656D01*
X150936750Y-84569340D01*
X150785463Y-84679257D01*
X150660334Y-84818226D01*
X150657034Y-84823942D01*
X150657031Y-84823946D01*
X150570138Y-84974451D01*
X150566834Y-84980174D01*
X150509047Y-85158023D01*
X150489500Y-85344000D01*
X131832642Y-85344000D01*
X131832519Y-84454400D01*
X131832344Y-83184015D01*
X131852336Y-83115894D01*
X131905985Y-83069394D01*
X131958343Y-83058000D01*
X168772292Y-83058000D01*
X168840413Y-83078002D01*
G37*
%TD.AperFunction*%
%TD*%
M02*
