%TF.GenerationSoftware,KiCad,Pcbnew,(5.99.0-10457-g21fde9b629)*%
%TF.CreationDate,2021-05-02T13:24:44-05:00*%
%TF.ProjectId,reptile-monitor,72657074-696c-4652-9d6d-6f6e69746f72,1*%
%TF.SameCoordinates,Original*%
%TF.FileFunction,Copper,L1,Top*%
%TF.FilePolarity,Positive*%
%FSLAX46Y46*%
G04 Gerber Fmt 4.6, Leading zero omitted, Abs format (unit mm)*
G04 Created by KiCad (PCBNEW (5.99.0-10457-g21fde9b629)) date 2021-05-02 13:24:44*
%MOMM*%
%LPD*%
G01*
G04 APERTURE LIST*
G04 Aperture macros list*
%AMRoundRect*
0 Rectangle with rounded corners*
0 $1 Rounding radius*
0 $2 $3 $4 $5 $6 $7 $8 $9 X,Y pos of 4 corners*
0 Add a 4 corners polygon primitive as box body*
4,1,4,$2,$3,$4,$5,$6,$7,$8,$9,$2,$3,0*
0 Add four circle primitives for the rounded corners*
1,1,$1+$1,$2,$3*
1,1,$1+$1,$4,$5*
1,1,$1+$1,$6,$7*
1,1,$1+$1,$8,$9*
0 Add four rect primitives between the rounded corners*
20,1,$1+$1,$2,$3,$4,$5,0*
20,1,$1+$1,$4,$5,$6,$7,0*
20,1,$1+$1,$6,$7,$8,$9,0*
20,1,$1+$1,$8,$9,$2,$3,0*%
G04 Aperture macros list end*
%TA.AperFunction,SMDPad,CuDef*%
%ADD10RoundRect,0.218750X0.256250X-0.218750X0.256250X0.218750X-0.256250X0.218750X-0.256250X-0.218750X0*%
%TD*%
%TA.AperFunction,SMDPad,CuDef*%
%ADD11R,2.000000X0.900000*%
%TD*%
%TA.AperFunction,SMDPad,CuDef*%
%ADD12R,1.330000X1.330000*%
%TD*%
%TA.AperFunction,ComponentPad*%
%ADD13R,1.570000X1.570000*%
%TD*%
%TA.AperFunction,ComponentPad*%
%ADD14C,1.570000*%
%TD*%
%TA.AperFunction,SMDPad,CuDef*%
%ADD15RoundRect,0.250000X-0.475000X0.250000X-0.475000X-0.250000X0.475000X-0.250000X0.475000X0.250000X0*%
%TD*%
%TA.AperFunction,ComponentPad*%
%ADD16R,2.000000X2.300000*%
%TD*%
%TA.AperFunction,ComponentPad*%
%ADD17C,2.300000*%
%TD*%
%TA.AperFunction,ComponentPad*%
%ADD18R,1.700000X1.700000*%
%TD*%
%TA.AperFunction,ComponentPad*%
%ADD19O,1.700000X1.700000*%
%TD*%
%TA.AperFunction,SMDPad,CuDef*%
%ADD20RoundRect,0.225000X-0.225000X-0.250000X0.225000X-0.250000X0.225000X0.250000X-0.225000X0.250000X0*%
%TD*%
%TA.AperFunction,SMDPad,CuDef*%
%ADD21RoundRect,0.225000X-0.250000X0.225000X-0.250000X-0.225000X0.250000X-0.225000X0.250000X0.225000X0*%
%TD*%
%TA.AperFunction,SMDPad,CuDef*%
%ADD22R,1.700000X0.800000*%
%TD*%
%TA.AperFunction,SMDPad,CuDef*%
%ADD23RoundRect,0.200000X-0.275000X0.200000X-0.275000X-0.200000X0.275000X-0.200000X0.275000X0.200000X0*%
%TD*%
%TA.AperFunction,SMDPad,CuDef*%
%ADD24RoundRect,0.200000X0.275000X-0.200000X0.275000X0.200000X-0.275000X0.200000X-0.275000X-0.200000X0*%
%TD*%
%TA.AperFunction,SMDPad,CuDef*%
%ADD25RoundRect,0.200000X0.200000X0.275000X-0.200000X0.275000X-0.200000X-0.275000X0.200000X-0.275000X0*%
%TD*%
%TA.AperFunction,ComponentPad*%
%ADD26R,1.000000X1.000000*%
%TD*%
%TA.AperFunction,ComponentPad*%
%ADD27C,2.167346*%
%TD*%
%TA.AperFunction,ComponentPad*%
%ADD28C,1.000000*%
%TD*%
%TA.AperFunction,ComponentPad*%
%ADD29R,1.575000X1.575000*%
%TD*%
%TA.AperFunction,ComponentPad*%
%ADD30C,1.575000*%
%TD*%
%TA.AperFunction,SMDPad,CuDef*%
%ADD31R,1.000000X0.700000*%
%TD*%
%TA.AperFunction,ComponentPad*%
%ADD32C,1.600000*%
%TD*%
%TA.AperFunction,SMDPad,CuDef*%
%ADD33R,1.800000X1.000000*%
%TD*%
%TA.AperFunction,SMDPad,CuDef*%
%ADD34R,0.650000X1.500000*%
%TD*%
%TA.AperFunction,ViaPad*%
%ADD35C,0.762000*%
%TD*%
%TA.AperFunction,Conductor*%
%ADD36C,0.381000*%
%TD*%
%TA.AperFunction,Conductor*%
%ADD37C,0.152400*%
%TD*%
G04 APERTURE END LIST*
D10*
%TO.P,D1,1,K*%
%TO.N,/IO13*%
X162179000Y-101371500D03*
%TO.P,D1,2,A*%
%TO.N,Net-(D1-Pad2)*%
X162179000Y-99796500D03*
%TD*%
%TO.P,D2,1,K*%
%TO.N,GND*%
X165862000Y-101371500D03*
%TO.P,D2,2,A*%
%TO.N,Net-(D2-Pad2)*%
X165862000Y-99796500D03*
%TD*%
D11*
%TO.P,IC1,1,GND_1*%
%TO.N,GND*%
X158363988Y-118115000D03*
%TO.P,IC1,2,3V3*%
%TO.N,+3V3*%
X158363988Y-116845000D03*
%TO.P,IC1,3,EN*%
%TO.N,/EN*%
X158363988Y-115575000D03*
%TO.P,IC1,4,SENSOR_VP*%
%TO.N,/IO36*%
X158363988Y-114305000D03*
%TO.P,IC1,5,SENSOR_VN*%
%TO.N,/IO39*%
X158363988Y-113035000D03*
%TO.P,IC1,6,IO34*%
%TO.N,unconnected-(IC1-Pad6)*%
X158363988Y-111765000D03*
%TO.P,IC1,7,IO35*%
%TO.N,unconnected-(IC1-Pad7)*%
X158363988Y-110495000D03*
%TO.P,IC1,8,IO32*%
%TO.N,Net-(CL1-Pad1)*%
X158363988Y-109225000D03*
%TO.P,IC1,9,IO33*%
%TO.N,Net-(CL2-Pad1)*%
X158363988Y-107955000D03*
%TO.P,IC1,10,IO25*%
%TO.N,/IO25*%
X158363988Y-106685000D03*
%TO.P,IC1,11,IO26*%
%TO.N,/IO26*%
X158363988Y-105415000D03*
%TO.P,IC1,12,IO27*%
%TO.N,/IO27*%
X158363988Y-104145000D03*
%TO.P,IC1,13,IO14*%
%TO.N,/IO14*%
X158363988Y-102875000D03*
%TO.P,IC1,14,IO12*%
%TO.N,/IO12*%
X158363988Y-101605000D03*
%TO.P,IC1,15,GND_2*%
%TO.N,GND*%
X158363988Y-100335000D03*
%TO.P,IC1,16,IO13*%
%TO.N,/IO13*%
X158363988Y-99065000D03*
%TO.P,IC1,17,NC_1*%
%TO.N,unconnected-(IC1-Pad17)*%
X158363988Y-97795000D03*
%TO.P,IC1,18,NC_2*%
%TO.N,unconnected-(IC1-Pad18)*%
X158363988Y-96525000D03*
%TO.P,IC1,19,NC_3*%
%TO.N,unconnected-(IC1-Pad19)*%
X158363988Y-95255000D03*
%TO.P,IC1,20,NC_4*%
%TO.N,unconnected-(IC1-Pad20)*%
X141363988Y-95255000D03*
%TO.P,IC1,21,NC_5*%
%TO.N,unconnected-(IC1-Pad21)*%
X141363988Y-96525000D03*
%TO.P,IC1,22,NC_6*%
%TO.N,unconnected-(IC1-Pad22)*%
X141363988Y-97795000D03*
%TO.P,IC1,23,IO15*%
%TO.N,/IO15*%
X141363988Y-99065000D03*
%TO.P,IC1,24,IO2*%
%TO.N,/IO2*%
X141363988Y-100335000D03*
%TO.P,IC1,25,IO0*%
%TO.N,/IO0*%
X141363988Y-101605000D03*
%TO.P,IC1,26,IO4*%
%TO.N,unconnected-(IC1-Pad26)*%
X141363988Y-102875000D03*
%TO.P,IC1,27,IO16*%
%TO.N,unconnected-(IC1-Pad27)*%
X141363988Y-104145000D03*
%TO.P,IC1,28,IO17*%
%TO.N,unconnected-(IC1-Pad28)*%
X141363988Y-105415000D03*
%TO.P,IC1,29,IO5*%
%TO.N,/IO5*%
X141363988Y-106685000D03*
%TO.P,IC1,30,IO18*%
%TO.N,/IO18*%
X141363988Y-107955000D03*
%TO.P,IC1,31,IO19*%
%TO.N,/IO19*%
X141363988Y-109225000D03*
%TO.P,IC1,32,NC_7*%
%TO.N,unconnected-(IC1-Pad32)*%
X141363988Y-110495000D03*
%TO.P,IC1,33,IO21*%
%TO.N,/IO21*%
X141363988Y-111765000D03*
%TO.P,IC1,34,RXD0*%
%TO.N,/RXD0*%
X141363988Y-113035000D03*
%TO.P,IC1,35,TXD0*%
%TO.N,/TXD0*%
X141363988Y-114305000D03*
%TO.P,IC1,36,IO22*%
%TO.N,/IO22*%
X141363988Y-115575000D03*
%TO.P,IC1,37,IO23*%
%TO.N,/IO23*%
X141363988Y-116845000D03*
%TO.P,IC1,38,GND_3*%
%TO.N,GND*%
X141363988Y-118115000D03*
D12*
%TO.P,IC1,39,GND_4*%
X150863988Y-110615000D03*
%TO.P,IC1,40,GND_5*%
X152698988Y-112450000D03*
%TO.P,IC1,41,GND_6*%
X152698988Y-110615000D03*
%TO.P,IC1,42,GND_7*%
X152698988Y-108780000D03*
%TO.P,IC1,43,GND_8*%
X150863988Y-108780000D03*
%TO.P,IC1,44,GND_9*%
X149028988Y-108780000D03*
%TO.P,IC1,45,GND_10*%
X149028988Y-110615000D03*
%TO.P,IC1,46,GND_11*%
X149028988Y-112450000D03*
%TO.P,IC1,47,GND_12*%
X150863988Y-112450000D03*
%TD*%
D13*
%TO.P,J7,1,1*%
%TO.N,/LOAD1*%
X151868000Y-39430999D03*
D14*
%TO.P,J7,2,2*%
%TO.N,/AC_N*%
X148868000Y-39430999D03*
%TD*%
D15*
%TO.P,C1,1*%
%TO.N,+5V*%
X161163000Y-86426000D03*
%TO.P,C1,2*%
%TO.N,GND*%
X161163000Y-88326000D03*
%TD*%
D16*
%TO.P,PS1,1,AC/L*%
%TO.N,/FUSED_AC_L*%
X161250000Y-50969500D03*
D17*
%TO.P,PS1,2,AC/N*%
%TO.N,/AC_N*%
X156250000Y-50969500D03*
%TO.P,PS1,3,-Vout*%
%TO.N,GND*%
X166450000Y-80369500D03*
%TO.P,PS1,4,+Vout*%
%TO.N,+5V*%
X151050000Y-80369500D03*
%TD*%
D18*
%TO.P,J1,1,Pin_1*%
%TO.N,+3V3*%
X135382000Y-99832000D03*
D19*
%TO.P,J1,2,Pin_2*%
%TO.N,/RXD0*%
X135382000Y-102372000D03*
%TO.P,J1,3,Pin_3*%
%TO.N,/TXD0*%
X135382000Y-104912000D03*
%TO.P,J1,4,Pin_4*%
%TO.N,GND*%
X135382000Y-107452000D03*
%TD*%
D20*
%TO.P,CL1,1*%
%TO.N,Net-(CL1-Pad1)*%
X164325000Y-108331000D03*
%TO.P,CL1,2*%
%TO.N,GND*%
X165875000Y-108331000D03*
%TD*%
D21*
%TO.P,C8,1*%
%TO.N,+3V3*%
X161798000Y-115303000D03*
%TO.P,C8,2*%
%TO.N,GND*%
X161798000Y-116853000D03*
%TD*%
D22*
%TO.P,SW2,1,1*%
%TO.N,/IO0*%
X133858000Y-110568000D03*
%TO.P,SW2,2,2*%
%TO.N,GND*%
X133858000Y-113968000D03*
%TD*%
D21*
%TO.P,C10,1*%
%TO.N,/IO0*%
X136652000Y-112001000D03*
%TO.P,C10,2*%
%TO.N,GND*%
X136652000Y-113551000D03*
%TD*%
D23*
%TO.P,R8,1*%
%TO.N,Net-(D1-Pad2)*%
X163703000Y-99759000D03*
%TO.P,R8,2*%
%TO.N,GND*%
X163703000Y-101409000D03*
%TD*%
D22*
%TO.P,SW1,1,1*%
%TO.N,Net-(C9-Pad1)*%
X167005000Y-110568000D03*
%TO.P,SW1,2,2*%
%TO.N,GND*%
X167005000Y-113968000D03*
%TD*%
D24*
%TO.P,R1,1*%
%TO.N,/EN*%
X161798000Y-112839000D03*
%TO.P,R1,2*%
%TO.N,Net-(C9-Pad1)*%
X161798000Y-111189000D03*
%TD*%
D25*
%TO.P,R12,1*%
%TO.N,/PWR_EN*%
X165925000Y-85725000D03*
%TO.P,R12,2*%
%TO.N,+5V*%
X164275000Y-85725000D03*
%TD*%
D26*
%TO.P,K1,1,1*%
%TO.N,+5V*%
X141845000Y-68304999D03*
D27*
%TO.P,K1,2,NO*%
%TO.N,/LOAD1*%
X146545001Y-49804998D03*
%TO.P,K1,3,COM*%
%TO.N,/FUSED_AC_L*%
X146545001Y-56804999D03*
D28*
%TO.P,K1,4,4*%
%TO.N,/RLY1*%
X146545001Y-68304999D03*
%TD*%
D15*
%TO.P,C2,1*%
%TO.N,GND*%
X161163000Y-89982000D03*
%TO.P,C2,2*%
%TO.N,+3V3*%
X161163000Y-91882000D03*
%TD*%
D29*
%TO.P,F1,1*%
%TO.N,/AC_L*%
X167005000Y-45847000D03*
D30*
%TO.P,F1,2*%
%TO.N,/FUSED_AC_L*%
X161925000Y-45847000D03*
%TD*%
D21*
%TO.P,C7,1*%
%TO.N,+3V3*%
X163576000Y-115303000D03*
%TO.P,C7,2*%
%TO.N,GND*%
X163576000Y-116853000D03*
%TD*%
D31*
%TO.P,U1,1,1_Source*%
%TO.N,GND*%
X152070509Y-86299000D03*
%TO.P,U1,2,1_Gate*%
%TO.N,/IO14*%
X152070509Y-87249000D03*
%TO.P,U1,3,2_Drain*%
%TO.N,/RLY2*%
X152070509Y-88199000D03*
%TO.P,U1,4,2_Source*%
%TO.N,GND*%
X154470509Y-88199000D03*
%TO.P,U1,5,2_Gate*%
%TO.N,/IO12*%
X154470509Y-87249000D03*
%TO.P,U1,6,1_Drain*%
%TO.N,/RLY1*%
X154470509Y-86299000D03*
%TD*%
D32*
%TO.P,RV1,1*%
%TO.N,/AC_N*%
X153456000Y-45451000D03*
%TO.P,RV1,2*%
%TO.N,/FUSED_AC_L*%
X158456000Y-46751000D03*
%TD*%
D21*
%TO.P,C9,1*%
%TO.N,Net-(C9-Pad1)*%
X163703000Y-111239000D03*
%TO.P,C9,2*%
%TO.N,GND*%
X163703000Y-112789000D03*
%TD*%
D18*
%TO.P,J3,1,Pin_1*%
%TO.N,/IO18*%
X134493000Y-89789000D03*
D19*
%TO.P,J3,2,Pin_2*%
%TO.N,/IO19*%
X134493000Y-87249000D03*
%TO.P,J3,3,Pin_3*%
%TO.N,/IO15*%
X137033000Y-89789000D03*
%TO.P,J3,4,Pin_4*%
%TO.N,/IO5*%
X137033000Y-87249000D03*
%TO.P,J3,5,Pin_5*%
%TO.N,/IO21*%
X139573000Y-89789000D03*
%TO.P,J3,6,Pin_6*%
%TO.N,/IO22*%
X139573000Y-87249000D03*
%TO.P,J3,7,Pin_7*%
%TO.N,/IO23*%
X142113000Y-89789000D03*
%TO.P,J3,8,Pin_8*%
%TO.N,/IO36*%
X142113000Y-87249000D03*
%TO.P,J3,9,Pin_9*%
%TO.N,/IO39*%
X144653000Y-89789000D03*
%TO.P,J3,10,Pin_10*%
%TO.N,/IO25*%
X144653000Y-87249000D03*
%TO.P,J3,11,Pin_11*%
%TO.N,/IO26*%
X147193000Y-89789000D03*
%TO.P,J3,12,Pin_12*%
%TO.N,/IO27*%
X147193000Y-87249000D03*
%TD*%
D33*
%TO.P,Y1,1,1*%
%TO.N,Net-(CL2-Pad1)*%
X162179000Y-106065000D03*
%TO.P,Y1,2,2*%
%TO.N,Net-(CL1-Pad1)*%
X162179000Y-108565000D03*
%TD*%
D26*
%TO.P,K2,1,1*%
%TO.N,+5V*%
X133570000Y-68304999D03*
D27*
%TO.P,K2,2,NO*%
%TO.N,/LOAD2*%
X138270001Y-49804998D03*
%TO.P,K2,3,COM*%
%TO.N,/FUSED_AC_L*%
X138270001Y-56804999D03*
D28*
%TO.P,K2,4,4*%
%TO.N,/RLY2*%
X138270001Y-68304999D03*
%TD*%
D13*
%TO.P,J8,1,1*%
%TO.N,/LOAD2*%
X140946000Y-39430999D03*
D14*
%TO.P,J8,2,2*%
%TO.N,/AC_N*%
X137946000Y-39430999D03*
%TD*%
D20*
%TO.P,CL2,1*%
%TO.N,Net-(CL2-Pad1)*%
X164325000Y-106299000D03*
%TO.P,CL2,2*%
%TO.N,GND*%
X165875000Y-106299000D03*
%TD*%
D13*
%TO.P,J2,1,1*%
%TO.N,/AC_L*%
X162766000Y-39430999D03*
D14*
%TO.P,J2,2,2*%
%TO.N,/AC_N*%
X159766000Y-39430999D03*
%TD*%
D34*
%TO.P,U3,1,VOUT*%
%TO.N,+3V3*%
X163119994Y-93315008D03*
%TO.P,U3,2,NC_1*%
%TO.N,unconnected-(U3-Pad2)*%
X164389994Y-93315008D03*
%TO.P,U3,3,NC_2*%
%TO.N,unconnected-(U3-Pad3)*%
X165659994Y-93315008D03*
%TO.P,U3,4,NC_3*%
%TO.N,unconnected-(U3-Pad4)*%
X166929994Y-93315008D03*
%TO.P,U3,5,EN*%
%TO.N,/PWR_EN*%
X166929994Y-87915008D03*
%TO.P,U3,6,GND_1*%
%TO.N,GND*%
X165659994Y-87915008D03*
%TO.P,U3,7,GND_2*%
X164389994Y-87915008D03*
%TO.P,U3,8,VIN*%
%TO.N,+5V*%
X163119994Y-87915008D03*
%TD*%
D24*
%TO.P,R13,1*%
%TO.N,+3V3*%
X167386000Y-101409000D03*
%TO.P,R13,2*%
%TO.N,Net-(D2-Pad2)*%
X167386000Y-99759000D03*
%TD*%
D35*
%TO.N,/AC_L*%
X163195000Y-43561000D03*
%TO.N,/AC_N*%
X154813000Y-49530000D03*
%TO.N,/LOAD1*%
X145415000Y-47498000D03*
X149225000Y-51308000D03*
X149225000Y-49530000D03*
X149225000Y-47498000D03*
X147320000Y-47498000D03*
X147320000Y-45593000D03*
X149225000Y-45593000D03*
X149225000Y-43815000D03*
X151130000Y-43815000D03*
X152527000Y-41656000D03*
X151130000Y-41656000D03*
%TO.N,/LOAD2*%
X140970000Y-49530000D03*
X140970000Y-47498000D03*
X139065000Y-47498000D03*
X137160000Y-47498000D03*
X137160000Y-45593000D03*
X139065000Y-45593000D03*
X140970000Y-45593000D03*
X140970000Y-41529000D03*
X140970000Y-43561000D03*
X139065000Y-43561000D03*
%TO.N,/AC_N*%
X136144000Y-40005000D03*
X136144000Y-38227000D03*
X138049000Y-36576000D03*
X139954000Y-36576000D03*
X141859000Y-36576000D03*
X143764000Y-36576000D03*
X145542000Y-36576000D03*
X148209000Y-37846000D03*
X147320000Y-36576000D03*
X149225000Y-36576000D03*
X151003000Y-36576000D03*
X152908000Y-36576000D03*
X154813000Y-37211000D03*
X154813000Y-38989000D03*
X158750000Y-37211000D03*
X153035000Y-51308000D03*
X154813000Y-47521000D03*
X154813000Y-43561000D03*
X156845000Y-43561000D03*
X158750000Y-43561000D03*
X158727000Y-41760000D03*
X156845000Y-38989000D03*
X156845000Y-37211000D03*
X153035000Y-49530000D03*
X153035000Y-47498000D03*
X136144000Y-36576000D03*
%TO.N,/AC_L*%
X164973000Y-45466000D03*
X164846000Y-38862000D03*
X166751000Y-38862000D03*
X166728000Y-43538000D03*
X164950000Y-43538000D03*
X163172000Y-41760000D03*
%TO.N,/FUSED_AC_L*%
X161394000Y-56873000D03*
X161394000Y-55095000D03*
X161394000Y-53317000D03*
X160505000Y-47983000D03*
X159616000Y-57762000D03*
X159616000Y-55984000D03*
X159616000Y-54206000D03*
X157838000Y-57762000D03*
X157838000Y-55984000D03*
X156060000Y-57762000D03*
X156060000Y-55984000D03*
X154282000Y-57762000D03*
X154282000Y-55984000D03*
X152504000Y-57762000D03*
X152504000Y-55984000D03*
X150726000Y-57762000D03*
X150726000Y-55984000D03*
X148948000Y-57762000D03*
X148948000Y-55984000D03*
X144503000Y-57762000D03*
X144503000Y-55984000D03*
X142725000Y-57762000D03*
X142725000Y-55984000D03*
X140947000Y-57762000D03*
X140947000Y-55984000D03*
%TO.N,GND*%
X152654000Y-110617000D03*
X143256000Y-117602000D03*
X155575000Y-88646000D03*
X152654000Y-108839000D03*
X150876000Y-108839000D03*
X165129401Y-107001227D03*
X163703000Y-102616000D03*
X164084000Y-89281000D03*
X162687000Y-117602000D03*
X162306000Y-89154000D03*
X149098000Y-112522000D03*
X151384000Y-85344000D03*
X152654000Y-112522000D03*
X162306000Y-90551000D03*
X160147000Y-101092000D03*
X149098000Y-110617000D03*
X137795000Y-113538000D03*
X134150000Y-112776000D03*
X162463944Y-116131745D03*
X150876000Y-110617000D03*
X164465000Y-112015569D03*
X165862000Y-102616000D03*
X165354000Y-89281000D03*
X166751000Y-113030000D03*
X150876000Y-112522000D03*
X160274000Y-117856000D03*
X165098973Y-109072724D03*
X149098000Y-108839000D03*
%TO.N,+3V3*%
X161798000Y-93091000D03*
X162179000Y-114427000D03*
X160274000Y-115951000D03*
X163957000Y-114427000D03*
X167386000Y-102616000D03*
X163195000Y-91821000D03*
%TO.N,/IO0*%
X143002000Y-102108000D03*
X137795000Y-112014000D03*
%TD*%
D36*
%TO.N,GND*%
X164465000Y-112281000D02*
X163957000Y-112789000D01*
X142762000Y-118096000D02*
X141246000Y-118096000D01*
X161163000Y-88326000D02*
X161478000Y-88326000D01*
X143256000Y-117602000D02*
X142762000Y-118096000D01*
X165129401Y-107001227D02*
X165831628Y-106299000D01*
X133858000Y-113068000D02*
X133858000Y-113968000D01*
X160015000Y-118115000D02*
X158363988Y-118115000D01*
X159114608Y-100335000D02*
X158363988Y-100335000D01*
X154470500Y-88199000D02*
X155128000Y-88199000D01*
X162687000Y-117602000D02*
X162687000Y-117221000D01*
X159766000Y-100330000D02*
X159761000Y-100335000D01*
X162463944Y-116131745D02*
X162463944Y-116187056D01*
X165831628Y-106299000D02*
X166050000Y-106299000D01*
X165354000Y-89281000D02*
X165660000Y-88975000D01*
X161163000Y-89982000D02*
X161737000Y-89982000D01*
X164390000Y-88975000D02*
X164390000Y-87915000D01*
X136665000Y-113538000D02*
X136652000Y-113551000D01*
X165862000Y-101371500D02*
X165862000Y-102616000D01*
X161478000Y-88326000D02*
X162306000Y-89154000D01*
X160147000Y-100711000D02*
X159766000Y-100330000D01*
X162687000Y-117221000D02*
X163055000Y-116853000D01*
X151384000Y-85612500D02*
X152070500Y-86299000D01*
X151384000Y-85344000D02*
X151384000Y-85612500D01*
X165840697Y-108331000D02*
X166050000Y-108331000D01*
X134150000Y-112776000D02*
X133858000Y-113068000D01*
X165660000Y-88975000D02*
X165660000Y-87915000D01*
X155128000Y-88199000D02*
X155575000Y-88646000D01*
X164084000Y-89281000D02*
X164390000Y-88975000D01*
X163703000Y-101409000D02*
X163703000Y-102616000D01*
X160274000Y-117856000D02*
X160015000Y-118115000D01*
X159761000Y-100335000D02*
X158363988Y-100335000D01*
X160147000Y-101092000D02*
X160147000Y-100711000D01*
X164465000Y-112015569D02*
X164465000Y-112281000D01*
X161737000Y-89982000D02*
X162306000Y-90551000D01*
X166751000Y-113030000D02*
X167005000Y-113284000D01*
X162463944Y-116187056D02*
X161798000Y-116853000D01*
X167005000Y-113284000D02*
X167005000Y-113968000D01*
X165098973Y-109072724D02*
X165840697Y-108331000D01*
X137795000Y-113538000D02*
X136665000Y-113538000D01*
D37*
%TO.N,/EN*%
X161798000Y-112926500D02*
X161012500Y-112926500D01*
X160020000Y-113919000D02*
X160020000Y-114935000D01*
X161012500Y-112926500D02*
X160020000Y-113919000D01*
X160020000Y-114935000D02*
X159380000Y-115575000D01*
X159380000Y-115575000D02*
X158363988Y-115575000D01*
%TO.N,Net-(CL1-Pad1)*%
X162052000Y-108585000D02*
X163730000Y-108585000D01*
X161412000Y-109225000D02*
X162052000Y-108585000D01*
X158363988Y-109225000D02*
X161412000Y-109225000D01*
X163730000Y-108585000D02*
X164071000Y-108244000D01*
X162393000Y-108244000D02*
X162052000Y-108585000D01*
D36*
%TO.N,+3V3*%
X163576000Y-114808000D02*
X163576000Y-115303000D01*
X162179000Y-114427000D02*
X161798000Y-114808000D01*
X160274000Y-115951000D02*
X159380000Y-116845000D01*
X161798000Y-114808000D02*
X161798000Y-115303000D01*
X161798000Y-92517000D02*
X161163000Y-91882000D01*
X167386000Y-101409000D02*
X167386000Y-102616000D01*
X161798000Y-93091000D02*
X161798000Y-92517000D01*
X159380000Y-116845000D02*
X158363988Y-116845000D01*
X163195000Y-91821000D02*
X163195000Y-93240002D01*
X163957000Y-114427000D02*
X163576000Y-114808000D01*
X163195000Y-93240002D02*
X163119994Y-93315008D01*
D37*
%TO.N,/IO0*%
X143002000Y-102108000D02*
X142499000Y-101605000D01*
X136652000Y-112001000D02*
X135291000Y-112001000D01*
X137795000Y-112014000D02*
X136665000Y-112014000D01*
X142499000Y-101605000D02*
X141364000Y-101605000D01*
X135291000Y-112001000D02*
X133858000Y-110568000D01*
X136665000Y-112014000D02*
X136652000Y-112001000D01*
D36*
%TO.N,+5V*%
X151050000Y-70278000D02*
X147828000Y-67056000D01*
X163119994Y-87915008D02*
X163119994Y-87070006D01*
X141845000Y-68312000D02*
X140589000Y-67056000D01*
X163119994Y-86623006D02*
X163830000Y-85913000D01*
X163119994Y-87070006D02*
X163119994Y-86623006D01*
X162475988Y-86426000D02*
X163119994Y-87070006D01*
X143347999Y-67056000D02*
X141845000Y-68558999D01*
X157106500Y-86426000D02*
X151050000Y-80369500D01*
X141845000Y-68558999D02*
X141845000Y-68312000D01*
X161163000Y-86426000D02*
X157106500Y-86426000D01*
X161163000Y-86426000D02*
X162475988Y-86426000D01*
X147828000Y-67056000D02*
X143347999Y-67056000D01*
X140589000Y-67056000D02*
X135072999Y-67056000D01*
X135072999Y-67056000D02*
X133570000Y-68558999D01*
X151050000Y-80369500D02*
X151050000Y-70278000D01*
D37*
%TO.N,Net-(D1-Pad2)*%
X162216500Y-99759000D02*
X162179000Y-99796500D01*
X163703000Y-99759000D02*
X162216500Y-99759000D01*
%TO.N,/TXD0*%
X141364000Y-114305000D02*
X140086000Y-114305000D01*
X140086000Y-114305000D02*
X138430000Y-112649000D01*
X138430000Y-112649000D02*
X138430000Y-107696000D01*
X138430000Y-107696000D02*
X135382000Y-104648000D01*
%TO.N,/RXD0*%
X140213000Y-113035000D02*
X138811000Y-111633000D01*
X138811000Y-111633000D02*
X138811000Y-105537000D01*
X138811000Y-105537000D02*
X135382000Y-102108000D01*
X141364000Y-113035000D02*
X140213000Y-113035000D01*
%TO.N,/IO12*%
X154470500Y-87249000D02*
X153797000Y-87249000D01*
X157693495Y-101605000D02*
X158364000Y-101605000D01*
X153670000Y-97581505D02*
X157693495Y-101605000D01*
X153670000Y-87376000D02*
X153670000Y-97581505D01*
X153797000Y-87249000D02*
X153670000Y-87376000D01*
%TO.N,Net-(CL2-Pad1)*%
X160182000Y-107955000D02*
X162052000Y-106085000D01*
X162052000Y-106085000D02*
X163690000Y-106085000D01*
X163690000Y-106085000D02*
X164071000Y-106466000D01*
X158363988Y-107955000D02*
X160182000Y-107955000D01*
%TO.N,/IO13*%
X159872500Y-99065000D02*
X162179000Y-101371500D01*
X158363988Y-99065000D02*
X159872500Y-99065000D01*
%TO.N,/IO39*%
X157231000Y-113035000D02*
X158364000Y-113035000D01*
X156083000Y-104394000D02*
X156083000Y-111887000D01*
X144653000Y-92964000D02*
X156083000Y-104394000D01*
X144653000Y-89789000D02*
X144653000Y-92964000D01*
X156083000Y-111887000D02*
X157231000Y-113035000D01*
%TO.N,/IO14*%
X151003000Y-96266000D02*
X151003000Y-87884000D01*
X157612000Y-102875000D02*
X151003000Y-96266000D01*
X158363988Y-102875000D02*
X157612000Y-102875000D01*
X151638000Y-87249000D02*
X152070500Y-87249000D01*
X151003000Y-87884000D02*
X151638000Y-87249000D01*
X157814000Y-102875000D02*
X158364000Y-102875000D01*
D36*
%TO.N,/RLY1*%
X146545001Y-81648001D02*
X148209000Y-83312000D01*
X151483500Y-83312000D02*
X154470500Y-86299000D01*
X148209000Y-83312000D02*
X151483500Y-83312000D01*
X146545001Y-68558999D02*
X146545001Y-81648001D01*
X146545001Y-81648001D02*
X148082000Y-83185000D01*
%TO.N,/RLY2*%
X147955000Y-83820000D02*
X138270001Y-74135001D01*
X151130000Y-83820000D02*
X147955000Y-83820000D01*
X153035000Y-87757000D02*
X153035000Y-85725000D01*
X152070500Y-88199000D02*
X152593000Y-88199000D01*
X138270001Y-74135001D02*
X138270001Y-68558999D01*
X153035000Y-85725000D02*
X151130000Y-83820000D01*
X152593000Y-88199000D02*
X153035000Y-87757000D01*
D37*
%TO.N,Net-(D2-Pad2)*%
X165899500Y-99759000D02*
X165862000Y-99796500D01*
X167386000Y-99759000D02*
X165899500Y-99759000D01*
%TO.N,/IO23*%
X141914000Y-116845000D02*
X141364000Y-116845000D01*
X144653000Y-94107000D02*
X144653000Y-114106000D01*
X142113000Y-89789000D02*
X142113000Y-91440000D01*
X142113000Y-91440000D02*
X142113000Y-91567000D01*
X142113000Y-91567000D02*
X144653000Y-94107000D01*
X144653000Y-114106000D02*
X144422951Y-114336049D01*
X144422951Y-114336049D02*
X144365500Y-114393500D01*
X144422951Y-114336049D02*
X141914000Y-116845000D01*
%TO.N,/IO22*%
X144272000Y-113217000D02*
X141914000Y-115575000D01*
X139573000Y-87249000D02*
X140843000Y-88519000D01*
X141914000Y-115575000D02*
X141364000Y-115575000D01*
X140843000Y-88519000D02*
X140843000Y-90932000D01*
X140843000Y-90932000D02*
X144272000Y-94361000D01*
X144272000Y-94361000D02*
X144272000Y-113217000D01*
%TO.N,/IO21*%
X139573000Y-90297000D02*
X143915911Y-94639911D01*
X143915911Y-109763089D02*
X141914000Y-111765000D01*
X141914000Y-111765000D02*
X141364000Y-111765000D01*
X143915911Y-94639911D02*
X143915911Y-109763089D01*
X139573000Y-89789000D02*
X139573000Y-90297000D01*
%TO.N,Net-(C9-Pad1)*%
X162306000Y-111189008D02*
X163906987Y-111189008D01*
X163907000Y-111189000D02*
X163957000Y-111239000D01*
X163957000Y-111239000D02*
X166334000Y-111239000D01*
X166334000Y-111239000D02*
X167005000Y-110568000D01*
%TO.N,/IO19*%
X139192000Y-108077000D02*
X140340000Y-109225000D01*
X139192000Y-100330000D02*
X139192000Y-108077000D01*
X133096000Y-94234000D02*
X139192000Y-100330000D01*
X134493000Y-87249000D02*
X133096000Y-88646000D01*
X133096000Y-88646000D02*
X133096000Y-94234000D01*
X140340000Y-109225000D02*
X141364000Y-109225000D01*
%TO.N,/IO18*%
X134493000Y-95123000D02*
X139573000Y-100203000D01*
X134493000Y-89789000D02*
X134493000Y-95123000D01*
X140086000Y-107955000D02*
X141364000Y-107955000D01*
X139573000Y-107442000D02*
X140086000Y-107955000D01*
X139573000Y-100203000D02*
X139573000Y-107442000D01*
%TO.N,/IO5*%
X139954000Y-99949000D02*
X135839952Y-95834952D01*
X135839952Y-95834952D02*
X135839952Y-88442048D01*
X139954000Y-106045000D02*
X139954000Y-99949000D01*
X140594000Y-106685000D02*
X139954000Y-106045000D01*
X135839952Y-88442048D02*
X137033000Y-87249000D01*
%TO.N,/IO15*%
X137033000Y-89789000D02*
X137033000Y-96520000D01*
X139578000Y-99065000D02*
X141364000Y-99065000D01*
X137033000Y-96520000D02*
X139578000Y-99065000D01*
%TO.N,/IO27*%
X148717000Y-88773000D02*
X148717000Y-95123000D01*
X148717000Y-95123000D02*
X157739000Y-104145000D01*
X147193000Y-87249000D02*
X148717000Y-88773000D01*
X157739000Y-104145000D02*
X158364000Y-104145000D01*
%TO.N,/IO26*%
X147193000Y-89789000D02*
X147193000Y-94234000D01*
X147193000Y-94234000D02*
X156845000Y-103886000D01*
X156845000Y-104418020D02*
X157841980Y-105415000D01*
X157841980Y-105415000D02*
X158364000Y-105415000D01*
X156845000Y-103886000D02*
X156845000Y-104418020D01*
%TO.N,/IO25*%
X145923000Y-88519000D02*
X145923000Y-93599000D01*
X145923000Y-93599000D02*
X156464000Y-104140000D01*
X144653000Y-87249000D02*
X145923000Y-88519000D01*
X156464000Y-105307020D02*
X157841980Y-106685000D01*
X157841980Y-106685000D02*
X158364000Y-106685000D01*
X156464000Y-104140000D02*
X156464000Y-105307020D01*
%TO.N,/IO36*%
X155702000Y-104584500D02*
X155702000Y-113284000D01*
X143383000Y-92265500D02*
X155702000Y-104584500D01*
X143383000Y-88519000D02*
X143383000Y-92265500D01*
X142113000Y-87249000D02*
X143383000Y-88519000D01*
X156723000Y-114305000D02*
X158364000Y-114305000D01*
X155702000Y-113284000D02*
X156723000Y-114305000D01*
D36*
%TO.N,/PWR_EN*%
X166012500Y-85725000D02*
X166929994Y-86642494D01*
X166929994Y-86642494D02*
X166929994Y-87915008D01*
%TD*%
%TA.AperFunction,Conductor*%
%TO.N,/AC_L*%
G36*
X167137474Y-36957479D02*
G01*
X167185516Y-36961682D01*
X167341555Y-36975334D01*
X167363178Y-36979146D01*
X167513625Y-37019458D01*
X167555718Y-37030737D01*
X167576358Y-37038249D01*
X167757015Y-37122492D01*
X167776026Y-37133468D01*
X167917489Y-37232522D01*
X167939314Y-37247804D01*
X167956138Y-37261922D01*
X168097078Y-37402862D01*
X168111196Y-37419686D01*
X168225532Y-37582974D01*
X168236508Y-37601985D01*
X168310102Y-37759807D01*
X168320751Y-37782643D01*
X168328263Y-37803282D01*
X168379853Y-37995818D01*
X168383667Y-38017448D01*
X168401521Y-38221526D01*
X168402000Y-38232507D01*
X168402000Y-47111493D01*
X168401521Y-47122474D01*
X168383667Y-47326552D01*
X168379853Y-47348182D01*
X168328263Y-47540718D01*
X168320751Y-47561357D01*
X168236508Y-47742015D01*
X168225532Y-47761026D01*
X168149002Y-47870322D01*
X168111196Y-47924314D01*
X168097078Y-47941138D01*
X167956138Y-48082078D01*
X167939314Y-48096196D01*
X167776026Y-48210532D01*
X167757015Y-48221508D01*
X167607116Y-48291408D01*
X167576357Y-48305751D01*
X167555717Y-48313263D01*
X167363178Y-48364854D01*
X167341555Y-48368666D01*
X167185516Y-48382318D01*
X167137474Y-48386521D01*
X167126493Y-48387000D01*
X165996078Y-48387000D01*
X165981972Y-48386208D01*
X165935438Y-48380965D01*
X165805284Y-48366300D01*
X165777777Y-48360021D01*
X165616678Y-48303650D01*
X165591257Y-48291408D01*
X165446737Y-48200600D01*
X165424678Y-48183008D01*
X165303992Y-48062322D01*
X165286400Y-48040263D01*
X165195592Y-47895743D01*
X165183350Y-47870322D01*
X165126979Y-47709223D01*
X165120700Y-47681716D01*
X165100792Y-47505030D01*
X165100000Y-47490922D01*
X165100000Y-46609000D01*
X161920351Y-43429351D01*
X161912056Y-43420200D01*
X161765903Y-43242111D01*
X161752185Y-43221581D01*
X161646524Y-43023904D01*
X161637071Y-43001084D01*
X161572004Y-42786585D01*
X161567186Y-42762359D01*
X161544607Y-42533112D01*
X161544000Y-42520762D01*
X161544000Y-41360935D01*
X164617894Y-41360935D01*
X164631640Y-41570664D01*
X164683376Y-41774376D01*
X164771370Y-41965249D01*
X164892674Y-42136890D01*
X165043226Y-42283551D01*
X165048022Y-42286756D01*
X165048025Y-42286758D01*
X165118454Y-42333817D01*
X165217983Y-42400320D01*
X165223286Y-42402598D01*
X165223289Y-42402600D01*
X165304256Y-42437386D01*
X165411094Y-42483287D01*
X165486692Y-42500393D01*
X165610454Y-42528398D01*
X165610460Y-42528399D01*
X165616091Y-42529673D01*
X165621862Y-42529900D01*
X165621864Y-42529900D01*
X165684342Y-42532355D01*
X165826108Y-42537925D01*
X165944480Y-42520762D01*
X166028398Y-42508595D01*
X166028403Y-42508594D01*
X166034112Y-42507766D01*
X166039576Y-42505911D01*
X166039581Y-42505910D01*
X166227669Y-42442062D01*
X166233137Y-42440206D01*
X166416518Y-42337508D01*
X166578112Y-42203111D01*
X166712509Y-42041517D01*
X166815207Y-41858136D01*
X166882767Y-41659111D01*
X166883595Y-41653402D01*
X166883596Y-41653397D01*
X166912393Y-41454781D01*
X166912926Y-41451107D01*
X166914500Y-41390999D01*
X166895268Y-41181701D01*
X166838217Y-40979413D01*
X166745257Y-40790909D01*
X166619502Y-40622502D01*
X166465163Y-40479833D01*
X166287408Y-40367678D01*
X166092192Y-40289795D01*
X166086532Y-40288669D01*
X166086528Y-40288668D01*
X165891719Y-40249918D01*
X165891714Y-40249918D01*
X165886051Y-40248791D01*
X165880276Y-40248715D01*
X165880272Y-40248715D01*
X165774597Y-40247332D01*
X165675890Y-40246039D01*
X165670193Y-40247018D01*
X165670192Y-40247018D01*
X165474443Y-40280654D01*
X165468746Y-40281633D01*
X165271558Y-40354380D01*
X165266597Y-40357332D01*
X165266596Y-40357332D01*
X165095897Y-40458887D01*
X165095894Y-40458889D01*
X165090929Y-40461843D01*
X165086589Y-40465649D01*
X165086585Y-40465652D01*
X164937249Y-40596617D01*
X164932908Y-40600424D01*
X164802787Y-40765481D01*
X164800098Y-40770592D01*
X164800096Y-40770595D01*
X164746494Y-40872476D01*
X164704924Y-40951487D01*
X164703210Y-40957008D01*
X164703208Y-40957012D01*
X164694525Y-40984977D01*
X164642597Y-41152212D01*
X164617894Y-41360935D01*
X161544000Y-41360935D01*
X161544000Y-38232507D01*
X161544479Y-38221526D01*
X161562333Y-38017448D01*
X161566147Y-37995818D01*
X161617737Y-37803282D01*
X161625249Y-37782643D01*
X161635898Y-37759807D01*
X161709492Y-37601985D01*
X161720468Y-37582974D01*
X161834804Y-37419686D01*
X161848922Y-37402862D01*
X161989862Y-37261922D01*
X162006686Y-37247804D01*
X162028511Y-37232522D01*
X162169974Y-37133468D01*
X162188985Y-37122492D01*
X162369642Y-37038249D01*
X162390282Y-37030737D01*
X162432375Y-37019458D01*
X162582822Y-36979146D01*
X162604445Y-36975334D01*
X162760484Y-36961682D01*
X162808526Y-36957479D01*
X162819507Y-36957000D01*
X167126493Y-36957000D01*
X167137474Y-36957479D01*
G37*
%TD.AperFunction*%
%TD*%
%TA.AperFunction,Conductor*%
%TO.N,/FUSED_AC_L*%
G36*
X161659112Y-44450607D02*
G01*
X161888361Y-44473186D01*
X161912582Y-44478003D01*
X162127088Y-44543072D01*
X162149901Y-44552523D01*
X162347584Y-44658187D01*
X162368111Y-44671903D01*
X162546200Y-44818056D01*
X162555351Y-44826351D01*
X163199649Y-45470649D01*
X163207944Y-45479800D01*
X163354097Y-45657889D01*
X163367813Y-45678416D01*
X163473476Y-45876096D01*
X163482928Y-45898912D01*
X163541879Y-46093250D01*
X163547996Y-46113415D01*
X163552814Y-46137641D01*
X163575393Y-46366888D01*
X163576000Y-46379238D01*
X163576000Y-57906493D01*
X163575521Y-57917474D01*
X163557667Y-58121552D01*
X163553853Y-58143182D01*
X163502263Y-58335718D01*
X163494751Y-58356357D01*
X163410508Y-58537015D01*
X163399532Y-58556026D01*
X163300478Y-58697489D01*
X163285196Y-58719314D01*
X163271078Y-58736138D01*
X163130138Y-58877078D01*
X163113314Y-58891196D01*
X162950026Y-59005532D01*
X162931015Y-59016508D01*
X162773193Y-59090102D01*
X162750357Y-59100751D01*
X162729717Y-59108263D01*
X162537178Y-59159854D01*
X162515555Y-59163666D01*
X162359516Y-59177318D01*
X162311474Y-59181521D01*
X162300493Y-59182000D01*
X136911507Y-59182000D01*
X136900526Y-59181521D01*
X136852484Y-59177318D01*
X136696445Y-59163666D01*
X136674822Y-59159854D01*
X136482283Y-59108263D01*
X136461643Y-59100751D01*
X136438807Y-59090102D01*
X136280985Y-59016508D01*
X136261974Y-59005532D01*
X136098686Y-58891196D01*
X136081862Y-58877078D01*
X135940922Y-58736138D01*
X135926804Y-58719314D01*
X135911522Y-58697489D01*
X135812468Y-58556026D01*
X135801492Y-58537015D01*
X135717249Y-58356357D01*
X135709737Y-58335718D01*
X135658147Y-58143182D01*
X135654333Y-58121552D01*
X135636479Y-57917474D01*
X135636000Y-57906493D01*
X135636000Y-55877850D01*
X135636476Y-55866910D01*
X135654194Y-55663614D01*
X135657979Y-55642065D01*
X135709178Y-55450218D01*
X135716633Y-55429648D01*
X135800252Y-55249540D01*
X135811154Y-55230571D01*
X135924662Y-55067653D01*
X135938680Y-55050855D01*
X136078667Y-54910021D01*
X136095382Y-54895900D01*
X136257620Y-54781409D01*
X136276522Y-54770394D01*
X136277709Y-54769834D01*
X136456126Y-54685690D01*
X136476636Y-54678117D01*
X136668178Y-54625761D01*
X136689704Y-54621846D01*
X136697432Y-54621126D01*
X136892900Y-54602904D01*
X136903805Y-54602363D01*
X146448664Y-54544863D01*
X155363536Y-54491160D01*
X156146331Y-54486444D01*
X156146333Y-54486444D01*
X156718000Y-54483000D01*
X158496000Y-52451000D01*
X158496000Y-48514000D01*
X157948900Y-48135238D01*
X157948897Y-48135236D01*
X157670500Y-47942500D01*
X157397113Y-47753232D01*
X157387462Y-47745838D01*
X157214517Y-47599555D01*
X157197572Y-47582156D01*
X157059730Y-47410183D01*
X157046438Y-47389857D01*
X156944155Y-47194643D01*
X156935009Y-47172145D01*
X156872075Y-46960923D01*
X156867416Y-46937087D01*
X156845587Y-46711642D01*
X156845000Y-46699499D01*
X156845000Y-46297687D01*
X156845607Y-46285337D01*
X156864526Y-46093250D01*
X156869343Y-46069029D01*
X156923572Y-45890260D01*
X156933021Y-45867450D01*
X157021078Y-45702708D01*
X157034801Y-45682171D01*
X157153306Y-45537772D01*
X157170772Y-45520306D01*
X157315171Y-45401801D01*
X157335708Y-45388078D01*
X157500450Y-45300021D01*
X157523260Y-45290572D01*
X157702029Y-45236343D01*
X157726250Y-45231526D01*
X157918337Y-45212607D01*
X157930687Y-45212000D01*
X159893000Y-45212000D01*
X160566286Y-44707036D01*
X160574610Y-44701300D01*
X160734330Y-44600481D01*
X160752265Y-44591084D01*
X160921379Y-44519147D01*
X160940587Y-44512745D01*
X161119037Y-44468827D01*
X161139021Y-44465583D01*
X161327284Y-44450407D01*
X161337408Y-44450000D01*
X161646762Y-44450000D01*
X161659112Y-44450607D01*
G37*
%TD.AperFunction*%
%TD*%
%TA.AperFunction,Conductor*%
%TO.N,/LOAD2*%
G36*
X141991474Y-38100479D02*
G01*
X142039516Y-38104682D01*
X142195555Y-38118334D01*
X142217178Y-38122146D01*
X142367625Y-38162458D01*
X142409718Y-38173737D01*
X142430358Y-38181249D01*
X142611015Y-38265492D01*
X142630026Y-38276468D01*
X142771489Y-38375522D01*
X142793314Y-38390804D01*
X142810138Y-38404922D01*
X142951078Y-38545862D01*
X142965196Y-38562686D01*
X143079532Y-38725974D01*
X143090508Y-38744985D01*
X143164102Y-38902807D01*
X143174751Y-38925643D01*
X143182263Y-38946282D01*
X143233853Y-39138818D01*
X143237667Y-39160448D01*
X143255521Y-39364526D01*
X143256000Y-39375507D01*
X143256000Y-40417845D01*
X143235998Y-40485966D01*
X143213078Y-40512577D01*
X143112908Y-40600424D01*
X142982787Y-40765481D01*
X142980098Y-40770592D01*
X142980096Y-40770595D01*
X142935310Y-40855720D01*
X142884924Y-40951487D01*
X142883210Y-40957008D01*
X142883208Y-40957012D01*
X142831082Y-41124887D01*
X142822597Y-41152212D01*
X142797894Y-41360935D01*
X142811640Y-41570664D01*
X142863376Y-41774376D01*
X142951370Y-41965249D01*
X143072674Y-42136890D01*
X143076808Y-42140917D01*
X143170843Y-42232522D01*
X143205680Y-42294383D01*
X143203495Y-42359352D01*
X143162928Y-42493083D01*
X143153476Y-42515903D01*
X143047815Y-42713581D01*
X143034097Y-42734111D01*
X142887944Y-42912200D01*
X142879649Y-42921351D01*
X141986000Y-43815000D01*
X141986000Y-50794493D01*
X141985521Y-50805474D01*
X141967667Y-51009552D01*
X141963853Y-51031182D01*
X141912263Y-51223718D01*
X141904751Y-51244357D01*
X141820508Y-51425015D01*
X141809532Y-51444026D01*
X141710478Y-51585489D01*
X141695196Y-51607314D01*
X141681078Y-51624138D01*
X141540138Y-51765078D01*
X141523314Y-51779196D01*
X141360026Y-51893532D01*
X141341015Y-51904508D01*
X141183193Y-51978102D01*
X141160357Y-51988751D01*
X141139717Y-51996263D01*
X140947178Y-52047854D01*
X140925555Y-52051666D01*
X140769516Y-52065318D01*
X140721474Y-52069521D01*
X140710493Y-52070000D01*
X137292507Y-52070000D01*
X137281526Y-52069521D01*
X137233484Y-52065318D01*
X137077445Y-52051666D01*
X137055822Y-52047854D01*
X136863283Y-51996263D01*
X136842643Y-51988751D01*
X136819807Y-51978102D01*
X136661985Y-51904508D01*
X136642974Y-51893532D01*
X136479686Y-51779196D01*
X136462862Y-51765078D01*
X136321922Y-51624138D01*
X136307804Y-51607314D01*
X136292522Y-51585489D01*
X136193468Y-51444026D01*
X136182492Y-51425015D01*
X136098249Y-51244357D01*
X136090737Y-51223718D01*
X136039147Y-51031182D01*
X136035333Y-51009552D01*
X136017479Y-50805474D01*
X136017000Y-50794493D01*
X136017000Y-45871238D01*
X136017607Y-45858888D01*
X136040186Y-45629641D01*
X136045004Y-45605415D01*
X136110071Y-45390916D01*
X136119524Y-45368096D01*
X136225185Y-45170419D01*
X136238903Y-45149889D01*
X136385056Y-44971800D01*
X136393351Y-44962649D01*
X139700000Y-41656000D01*
X139700000Y-39375507D01*
X139700479Y-39364526D01*
X139718333Y-39160448D01*
X139722147Y-39138818D01*
X139773737Y-38946282D01*
X139781249Y-38925643D01*
X139791898Y-38902807D01*
X139865492Y-38744985D01*
X139876468Y-38725974D01*
X139990804Y-38562686D01*
X140004922Y-38545862D01*
X140145862Y-38404922D01*
X140162686Y-38390804D01*
X140184511Y-38375522D01*
X140325974Y-38276468D01*
X140344985Y-38265492D01*
X140525642Y-38181249D01*
X140546282Y-38173737D01*
X140588375Y-38162458D01*
X140738822Y-38122146D01*
X140760445Y-38118334D01*
X140916484Y-38104682D01*
X140964526Y-38100479D01*
X140975507Y-38100000D01*
X141980493Y-38100000D01*
X141991474Y-38100479D01*
G37*
%TD.AperFunction*%
%TD*%
%TA.AperFunction,Conductor*%
%TO.N,/AC_N*%
G36*
X157867884Y-35306568D02*
G01*
X158089750Y-35327702D01*
X158113207Y-35332211D01*
X158321343Y-35393170D01*
X158343517Y-35402024D01*
X158500003Y-35482471D01*
X158536386Y-35501175D01*
X158556506Y-35514066D01*
X158731924Y-35651561D01*
X158740977Y-35659379D01*
X160510002Y-37339952D01*
X160517118Y-37347283D01*
X160644098Y-37489193D01*
X160656434Y-37505460D01*
X160756070Y-37661688D01*
X160765615Y-37679730D01*
X160838715Y-37850001D01*
X160845220Y-37869342D01*
X160889863Y-38049191D01*
X160893159Y-38069332D01*
X160908586Y-38259133D01*
X160909000Y-38269341D01*
X160909000Y-43174493D01*
X160908521Y-43185474D01*
X160890667Y-43389552D01*
X160886853Y-43411182D01*
X160835263Y-43603718D01*
X160827751Y-43624357D01*
X160743508Y-43805015D01*
X160732532Y-43824026D01*
X160633478Y-43965489D01*
X160618196Y-43987314D01*
X160604078Y-44004138D01*
X160463138Y-44145078D01*
X160446314Y-44159196D01*
X160283026Y-44273532D01*
X160264015Y-44284508D01*
X160106193Y-44358102D01*
X160083357Y-44368751D01*
X160062717Y-44376263D01*
X159870178Y-44427854D01*
X159848555Y-44431666D01*
X159692516Y-44445318D01*
X159644474Y-44449521D01*
X159633493Y-44450000D01*
X157480000Y-44450000D01*
X157132129Y-44728297D01*
X156686637Y-45084690D01*
X156686634Y-45084692D01*
X156210000Y-45466000D01*
X156210000Y-47752000D01*
X156669084Y-48134570D01*
X157272791Y-48637659D01*
X157280951Y-48645088D01*
X157426807Y-48790056D01*
X157441025Y-48806907D01*
X157556188Y-48970548D01*
X157567251Y-48989620D01*
X157652126Y-49170831D01*
X157659695Y-49191540D01*
X157711680Y-49384764D01*
X157715524Y-49406475D01*
X157733517Y-49611337D01*
X157734000Y-49622361D01*
X157734000Y-51556493D01*
X157733521Y-51567474D01*
X157715667Y-51771552D01*
X157711854Y-51793178D01*
X157671542Y-51943625D01*
X157660263Y-51985718D01*
X157652751Y-52006357D01*
X157568508Y-52187015D01*
X157557532Y-52206026D01*
X157478181Y-52319351D01*
X157443196Y-52369314D01*
X157429078Y-52386138D01*
X157288138Y-52527078D01*
X157271314Y-52541196D01*
X157108026Y-52655532D01*
X157089015Y-52666508D01*
X156953981Y-52729476D01*
X156908357Y-52750751D01*
X156887717Y-52758263D01*
X156695178Y-52809854D01*
X156673555Y-52813666D01*
X156517516Y-52827318D01*
X156469474Y-52831521D01*
X156458493Y-52832000D01*
X153059238Y-52832000D01*
X153046888Y-52831393D01*
X152817639Y-52808814D01*
X152793418Y-52803997D01*
X152578912Y-52738928D01*
X152556099Y-52729477D01*
X152358416Y-52623813D01*
X152337889Y-52610097D01*
X152159800Y-52463944D01*
X152150649Y-52455649D01*
X152014351Y-52319351D01*
X152006056Y-52310200D01*
X151859903Y-52132111D01*
X151846185Y-52111581D01*
X151789942Y-52006357D01*
X151740523Y-51913901D01*
X151731071Y-51891084D01*
X151666004Y-51676585D01*
X151661186Y-51652359D01*
X151638607Y-51423112D01*
X151638000Y-51410762D01*
X151638000Y-46230894D01*
X151638563Y-46218992D01*
X151659536Y-45997960D01*
X151664014Y-45974580D01*
X151724503Y-45767205D01*
X151733297Y-45745084D01*
X151831716Y-45552775D01*
X151844514Y-45532704D01*
X151981022Y-45357621D01*
X151988785Y-45348580D01*
X152236167Y-45086647D01*
X152837233Y-44450224D01*
X153448275Y-43803239D01*
X153448279Y-43803234D01*
X153450307Y-43801087D01*
X153450308Y-43801085D01*
X153797000Y-43434000D01*
X153797000Y-42242972D01*
X153817002Y-42174851D01*
X153870658Y-42128358D01*
X153940932Y-42118254D01*
X154005512Y-42147748D01*
X154010921Y-42152717D01*
X154145226Y-42283551D01*
X154150022Y-42286756D01*
X154150025Y-42286758D01*
X154220454Y-42333817D01*
X154319983Y-42400320D01*
X154325286Y-42402598D01*
X154325289Y-42402600D01*
X154390601Y-42430660D01*
X154513094Y-42483287D01*
X154588692Y-42500393D01*
X154712454Y-42528398D01*
X154712460Y-42528399D01*
X154718091Y-42529673D01*
X154723862Y-42529900D01*
X154723864Y-42529900D01*
X154786342Y-42532355D01*
X154928108Y-42537925D01*
X155032110Y-42522845D01*
X155130398Y-42508595D01*
X155130403Y-42508594D01*
X155136112Y-42507766D01*
X155141576Y-42505911D01*
X155141581Y-42505910D01*
X155329669Y-42442062D01*
X155335137Y-42440206D01*
X155518518Y-42337508D01*
X155680112Y-42203111D01*
X155683798Y-42198679D01*
X155683803Y-42198674D01*
X155718515Y-42156937D01*
X155777452Y-42117353D01*
X155848434Y-42115916D01*
X155903311Y-42147252D01*
X156043226Y-42283551D01*
X156048022Y-42286756D01*
X156048025Y-42286758D01*
X156118454Y-42333817D01*
X156217983Y-42400320D01*
X156223286Y-42402598D01*
X156223289Y-42402600D01*
X156288601Y-42430660D01*
X156411094Y-42483287D01*
X156486692Y-42500393D01*
X156610454Y-42528398D01*
X156610460Y-42528399D01*
X156616091Y-42529673D01*
X156621862Y-42529900D01*
X156621864Y-42529900D01*
X156684342Y-42532355D01*
X156826108Y-42537925D01*
X156930110Y-42522845D01*
X157028398Y-42508595D01*
X157028403Y-42508594D01*
X157034112Y-42507766D01*
X157039576Y-42505911D01*
X157039581Y-42505910D01*
X157227669Y-42442062D01*
X157233137Y-42440206D01*
X157416518Y-42337508D01*
X157578112Y-42203111D01*
X157712509Y-42041517D01*
X157815207Y-41858136D01*
X157843640Y-41774376D01*
X157880911Y-41664580D01*
X157880912Y-41664575D01*
X157882767Y-41659111D01*
X157883595Y-41653402D01*
X157883596Y-41653397D01*
X157912393Y-41454781D01*
X157912926Y-41451107D01*
X157914500Y-41390999D01*
X157895268Y-41181701D01*
X157838217Y-40979413D01*
X157745257Y-40790909D01*
X157725549Y-40764516D01*
X157622955Y-40627126D01*
X157622954Y-40627125D01*
X157619502Y-40622502D01*
X157583344Y-40589078D01*
X157469403Y-40483752D01*
X157469400Y-40483750D01*
X157465163Y-40479833D01*
X157287408Y-40367678D01*
X157092192Y-40289795D01*
X157086532Y-40288669D01*
X157086528Y-40288668D01*
X156891719Y-40249918D01*
X156891714Y-40249918D01*
X156886051Y-40248791D01*
X156880276Y-40248715D01*
X156880272Y-40248715D01*
X156774597Y-40247332D01*
X156675890Y-40246039D01*
X156670193Y-40247018D01*
X156670192Y-40247018D01*
X156474443Y-40280654D01*
X156468746Y-40281633D01*
X156271558Y-40354380D01*
X156266597Y-40357332D01*
X156266596Y-40357332D01*
X156095897Y-40458887D01*
X156095894Y-40458889D01*
X156090929Y-40461843D01*
X156086589Y-40465649D01*
X156086585Y-40465652D01*
X155945846Y-40589078D01*
X155932908Y-40600424D01*
X155929332Y-40604960D01*
X155917161Y-40620399D01*
X155859280Y-40661512D01*
X155788360Y-40664806D01*
X155724693Y-40626775D01*
X155721502Y-40622502D01*
X155702526Y-40604960D01*
X155571403Y-40483752D01*
X155571400Y-40483750D01*
X155567163Y-40479833D01*
X155389408Y-40367678D01*
X155194192Y-40289795D01*
X155188532Y-40288669D01*
X155188528Y-40288668D01*
X154993719Y-40249918D01*
X154993714Y-40249918D01*
X154988051Y-40248791D01*
X154982276Y-40248715D01*
X154982272Y-40248715D01*
X154876597Y-40247332D01*
X154777890Y-40246039D01*
X154772193Y-40247018D01*
X154772192Y-40247018D01*
X154576443Y-40280654D01*
X154570746Y-40281633D01*
X154373558Y-40354380D01*
X154368597Y-40357332D01*
X154368596Y-40357332D01*
X154197897Y-40458887D01*
X154197894Y-40458889D01*
X154192929Y-40461843D01*
X154188589Y-40465649D01*
X154188585Y-40465652D01*
X154047846Y-40589078D01*
X154034908Y-40600424D01*
X154031333Y-40604959D01*
X154031332Y-40604960D01*
X154021950Y-40616861D01*
X153964068Y-40657974D01*
X153893148Y-40661268D01*
X153831706Y-40625696D01*
X153799249Y-40562553D01*
X153797000Y-40538855D01*
X153797000Y-37338000D01*
X149987000Y-37338000D01*
X149987000Y-39618493D01*
X149986521Y-39629474D01*
X149968667Y-39833552D01*
X149964853Y-39855182D01*
X149913263Y-40047718D01*
X149905751Y-40068357D01*
X149821508Y-40249015D01*
X149810532Y-40268026D01*
X149751465Y-40352382D01*
X149696196Y-40431314D01*
X149682078Y-40448138D01*
X149541138Y-40589078D01*
X149524314Y-40603196D01*
X149361026Y-40717532D01*
X149342015Y-40728508D01*
X149184193Y-40802102D01*
X149161357Y-40812751D01*
X149140717Y-40820263D01*
X148948178Y-40871854D01*
X148926555Y-40875666D01*
X148770516Y-40889318D01*
X148722474Y-40893521D01*
X148711493Y-40894000D01*
X148214507Y-40894000D01*
X148203526Y-40893521D01*
X148155484Y-40889318D01*
X147999445Y-40875666D01*
X147977822Y-40871854D01*
X147785283Y-40820263D01*
X147764643Y-40812751D01*
X147741807Y-40802102D01*
X147583985Y-40728508D01*
X147564974Y-40717532D01*
X147401686Y-40603196D01*
X147384862Y-40589078D01*
X147243922Y-40448138D01*
X147229804Y-40431314D01*
X147174535Y-40352382D01*
X147115468Y-40268026D01*
X147104492Y-40249015D01*
X147020249Y-40068357D01*
X147012737Y-40047718D01*
X146961147Y-39855182D01*
X146957333Y-39833552D01*
X146939479Y-39629474D01*
X146939000Y-39618493D01*
X146939000Y-37211000D01*
X139065000Y-37211000D01*
X139065000Y-40824313D01*
X139064393Y-40836663D01*
X139045474Y-41028750D01*
X139040657Y-41052971D01*
X138986428Y-41231740D01*
X138976979Y-41254550D01*
X138888922Y-41419292D01*
X138875199Y-41439829D01*
X138756694Y-41584228D01*
X138739228Y-41601694D01*
X138594829Y-41720199D01*
X138574294Y-41733921D01*
X138409550Y-41821979D01*
X138386740Y-41831428D01*
X138207971Y-41885657D01*
X138183750Y-41890474D01*
X137991663Y-41909393D01*
X137979313Y-41910000D01*
X137438238Y-41910000D01*
X137425888Y-41909393D01*
X137196639Y-41886814D01*
X137172418Y-41881997D01*
X136957912Y-41816928D01*
X136935099Y-41807477D01*
X136737416Y-41701813D01*
X136716889Y-41688097D01*
X136538800Y-41541944D01*
X136529649Y-41533649D01*
X136058280Y-41062280D01*
X136026107Y-41007390D01*
X136018217Y-40979413D01*
X135925257Y-40790909D01*
X135905549Y-40764516D01*
X135802955Y-40627126D01*
X135802954Y-40627125D01*
X135799502Y-40622502D01*
X135763344Y-40589078D01*
X135649403Y-40483752D01*
X135649400Y-40483750D01*
X135645163Y-40479833D01*
X135467408Y-40367678D01*
X135318900Y-40308429D01*
X135276494Y-40280494D01*
X135123351Y-40127351D01*
X135115056Y-40118200D01*
X134968903Y-39940111D01*
X134955185Y-39919581D01*
X134909202Y-39833552D01*
X134849523Y-39721901D01*
X134840071Y-39699084D01*
X134818956Y-39629474D01*
X134775003Y-39484582D01*
X134770186Y-39460359D01*
X134747607Y-39231112D01*
X134747000Y-39218762D01*
X134747000Y-36581507D01*
X134747479Y-36570526D01*
X134765333Y-36366448D01*
X134769147Y-36344818D01*
X134820737Y-36152282D01*
X134828249Y-36131643D01*
X134838898Y-36108807D01*
X134912492Y-35950985D01*
X134923468Y-35931974D01*
X135037804Y-35768686D01*
X135051922Y-35751862D01*
X135192862Y-35610922D01*
X135209686Y-35596804D01*
X135231511Y-35581522D01*
X135372974Y-35482468D01*
X135391985Y-35471492D01*
X135572642Y-35387249D01*
X135593282Y-35379737D01*
X135635375Y-35368458D01*
X135785822Y-35328146D01*
X135807445Y-35324334D01*
X135963484Y-35310682D01*
X136011526Y-35306479D01*
X136022507Y-35306000D01*
X157855936Y-35306000D01*
X157867884Y-35306568D01*
G37*
%TD.AperFunction*%
%TD*%
%TA.AperFunction,Conductor*%
%TO.N,/LOAD1*%
G36*
X151897474Y-38100479D02*
G01*
X151945516Y-38104682D01*
X152101555Y-38118334D01*
X152123178Y-38122146D01*
X152273625Y-38162458D01*
X152315718Y-38173737D01*
X152336358Y-38181249D01*
X152517015Y-38265492D01*
X152536026Y-38276468D01*
X152677489Y-38375522D01*
X152699314Y-38390804D01*
X152716138Y-38404922D01*
X152857078Y-38545862D01*
X152871196Y-38562686D01*
X152985532Y-38725974D01*
X152996508Y-38744985D01*
X153070102Y-38902807D01*
X153080751Y-38925643D01*
X153088263Y-38946282D01*
X153139853Y-39138818D01*
X153143667Y-39160448D01*
X153161521Y-39364526D01*
X153162000Y-39375507D01*
X153162000Y-42300605D01*
X153161461Y-42312243D01*
X153141411Y-42528396D01*
X153137130Y-42551275D01*
X153079263Y-42754429D01*
X153070846Y-42776130D01*
X152976601Y-42965169D01*
X152964337Y-42984951D01*
X152833393Y-43158105D01*
X152825943Y-43167063D01*
X150829088Y-45354093D01*
X150829077Y-45354106D01*
X150495000Y-45720000D01*
X150495000Y-50794493D01*
X150494521Y-50805474D01*
X150476667Y-51009552D01*
X150472853Y-51031182D01*
X150421263Y-51223718D01*
X150413751Y-51244357D01*
X150329508Y-51425015D01*
X150318532Y-51444026D01*
X150219478Y-51585489D01*
X150204196Y-51607314D01*
X150190078Y-51624138D01*
X150049138Y-51765078D01*
X150032314Y-51779196D01*
X149869026Y-51893532D01*
X149850015Y-51904508D01*
X149692193Y-51978102D01*
X149669357Y-51988751D01*
X149648717Y-51996263D01*
X149456178Y-52047854D01*
X149434555Y-52051666D01*
X149278516Y-52065318D01*
X149230474Y-52069521D01*
X149219493Y-52070000D01*
X145420507Y-52070000D01*
X145409526Y-52069521D01*
X145361484Y-52065318D01*
X145205445Y-52051666D01*
X145183822Y-52047854D01*
X144991283Y-51996263D01*
X144970643Y-51988751D01*
X144947807Y-51978102D01*
X144789985Y-51904508D01*
X144770974Y-51893532D01*
X144607686Y-51779196D01*
X144590862Y-51765078D01*
X144449922Y-51624138D01*
X144435804Y-51607314D01*
X144420522Y-51585489D01*
X144321468Y-51444026D01*
X144310492Y-51425015D01*
X144226249Y-51244357D01*
X144218737Y-51223718D01*
X144167147Y-51031182D01*
X144163333Y-51009552D01*
X144145479Y-50805474D01*
X144145000Y-50794493D01*
X144145000Y-46551687D01*
X144145607Y-46539337D01*
X144164526Y-46347250D01*
X144169343Y-46323029D01*
X144223572Y-46144260D01*
X144233021Y-46121450D01*
X144321078Y-45956708D01*
X144334801Y-45936171D01*
X144453306Y-45791772D01*
X144470772Y-45774306D01*
X144615171Y-45655801D01*
X144635708Y-45642078D01*
X144800450Y-45554021D01*
X144823260Y-45544572D01*
X145002029Y-45490343D01*
X145026250Y-45485526D01*
X145218337Y-45466607D01*
X145230687Y-45466000D01*
X146304000Y-45466000D01*
X148748750Y-42799000D01*
X150161186Y-41258161D01*
X150161187Y-41258159D01*
X150495000Y-40894000D01*
X150495000Y-39375507D01*
X150495479Y-39364526D01*
X150513333Y-39160448D01*
X150517147Y-39138818D01*
X150568737Y-38946282D01*
X150576249Y-38925643D01*
X150586898Y-38902807D01*
X150660492Y-38744985D01*
X150671468Y-38725974D01*
X150785804Y-38562686D01*
X150799922Y-38545862D01*
X150940862Y-38404922D01*
X150957686Y-38390804D01*
X150979511Y-38375522D01*
X151120974Y-38276468D01*
X151139985Y-38265492D01*
X151320642Y-38181249D01*
X151341282Y-38173737D01*
X151383375Y-38162458D01*
X151533822Y-38122146D01*
X151555445Y-38118334D01*
X151711484Y-38104682D01*
X151759526Y-38100479D01*
X151770507Y-38100000D01*
X151886493Y-38100000D01*
X151897474Y-38100479D01*
G37*
%TD.AperFunction*%
%TD*%
M02*
