%TF.GenerationSoftware,KiCad,Pcbnew,(5.99.0-10457-g21fde9b629)*%
%TF.CreationDate,2021-05-02T13:24:45-05:00*%
%TF.ProjectId,reptile-monitor,72657074-696c-4652-9d6d-6f6e69746f72,1*%
%TF.SameCoordinates,Original*%
%TF.FileFunction,Soldermask,Bot*%
%TF.FilePolarity,Negative*%
%FSLAX46Y46*%
G04 Gerber Fmt 4.6, Leading zero omitted, Abs format (unit mm)*
G04 Created by KiCad (PCBNEW (5.99.0-10457-g21fde9b629)) date 2021-05-02 13:24:45*
%MOMM*%
%LPD*%
G01*
G04 APERTURE LIST*
G04 Aperture macros list*
%AMRoundRect*
0 Rectangle with rounded corners*
0 $1 Rounding radius*
0 $2 $3 $4 $5 $6 $7 $8 $9 X,Y pos of 4 corners*
0 Add a 4 corners polygon primitive as box body*
4,1,4,$2,$3,$4,$5,$6,$7,$8,$9,$2,$3,0*
0 Add four circle primitives for the rounded corners*
1,1,$1+$1,$2,$3*
1,1,$1+$1,$4,$5*
1,1,$1+$1,$6,$7*
1,1,$1+$1,$8,$9*
0 Add four rect primitives between the rounded corners*
20,1,$1+$1,$2,$3,$4,$5,0*
20,1,$1+$1,$4,$5,$6,$7,0*
20,1,$1+$1,$6,$7,$8,$9,0*
20,1,$1+$1,$8,$9,$2,$3,0*%
G04 Aperture macros list end*
%ADD10C,2.301600*%
%ADD11RoundRect,0.050800X-0.785000X-0.785000X0.785000X-0.785000X0.785000X0.785000X-0.785000X0.785000X0*%
%ADD12C,1.671600*%
%ADD13C,1.371600*%
%ADD14RoundRect,0.050800X-1.000000X1.150000X-1.000000X-1.150000X1.000000X-1.150000X1.000000X1.150000X0*%
%ADD15C,2.401600*%
%ADD16RoundRect,0.050800X-0.850000X-0.850000X0.850000X-0.850000X0.850000X0.850000X-0.850000X0.850000X0*%
%ADD17O,1.801600X1.801600*%
%ADD18RoundRect,0.050800X0.500000X-0.500000X0.500000X0.500000X-0.500000X0.500000X-0.500000X-0.500000X0*%
%ADD19C,2.268946*%
%ADD20C,1.101600*%
%ADD21RoundRect,0.050800X0.787500X0.787500X-0.787500X0.787500X-0.787500X-0.787500X0.787500X-0.787500X0*%
%ADD22C,1.676600*%
%ADD23C,1.701600*%
%ADD24RoundRect,0.050800X0.850000X-0.850000X0.850000X0.850000X-0.850000X0.850000X-0.850000X-0.850000X0*%
G04 APERTURE END LIST*
D10*
%TO.C,REF2*%
X133858000Y-116840000D03*
X133858000Y-116840000D03*
%TD*%
D11*
%TO.C,J7*%
X151868000Y-39430999D03*
D12*
X148868000Y-39430999D03*
D13*
X145868000Y-41390999D03*
X154868000Y-41390999D03*
%TD*%
D14*
%TO.C,PS1*%
X161250000Y-50969500D03*
D15*
X156250000Y-50969500D03*
X166450000Y-80369500D03*
X151050000Y-80369500D03*
%TD*%
D16*
%TO.C,J1*%
X135382000Y-99832000D03*
D17*
X135382000Y-102372000D03*
X135382000Y-104912000D03*
X135382000Y-107452000D03*
%TD*%
D10*
%TO.C,REF1*%
X166370000Y-55118000D03*
%TD*%
D18*
%TO.C,K1*%
X141845000Y-68304999D03*
D19*
X146545001Y-49804998D03*
X146545001Y-56804999D03*
D20*
X146545001Y-68304999D03*
%TD*%
D10*
%TO.C,REF1*%
X133858000Y-44958000D03*
%TD*%
D21*
%TO.C,F1*%
X167005000Y-45847000D03*
D22*
X161925000Y-45847000D03*
%TD*%
D10*
%TO.C,REF3*%
X166878000Y-116840000D03*
X166878000Y-116840000D03*
%TD*%
D23*
%TO.C,RV1*%
X153456000Y-45451000D03*
X158456000Y-46751000D03*
%TD*%
D24*
%TO.C,J3*%
X134493000Y-89789000D03*
D17*
X134493000Y-87249000D03*
X137033000Y-89789000D03*
X137033000Y-87249000D03*
X139573000Y-89789000D03*
X139573000Y-87249000D03*
X142113000Y-89789000D03*
X142113000Y-87249000D03*
X144653000Y-89789000D03*
X144653000Y-87249000D03*
X147193000Y-89789000D03*
X147193000Y-87249000D03*
%TD*%
D18*
%TO.C,K2*%
X133570000Y-68304999D03*
D19*
X138270001Y-49804998D03*
X138270001Y-56804999D03*
D20*
X138270001Y-68304999D03*
%TD*%
D11*
%TO.C,J8*%
X140946000Y-39430999D03*
D12*
X137946000Y-39430999D03*
D13*
X143946000Y-41390999D03*
X134946000Y-41390999D03*
%TD*%
D11*
%TO.C,J2*%
X162766000Y-39430999D03*
D12*
X159766000Y-39430999D03*
D13*
X165766000Y-41390999D03*
X156766000Y-41390999D03*
%TD*%
M02*
