M48
; DRILL file {KiCad (5.99.0-10457-g21fde9b629)} date Sun May  2 13:24:47 2021
; FORMAT={-:-/ absolute / inch / decimal}
; #@! TF.CreationDate,2021-05-02T13:24:47-05:00
; #@! TF.GenerationSoftware,Kicad,Pcbnew,(5.99.0-10457-g21fde9b629)
; #@! TF.FileFunction,Plated,1,4,PTH
FMAT,2
INCH
; #@! TA.AperFunction,Plated,PTH,ViaDrill
T1C0.0150
; #@! TA.AperFunction,Plated,PTH,ViaDrill
T2C0.0200
; #@! TA.AperFunction,Plated,PTH,ComponentDrill
T3C0.0236
; #@! TA.AperFunction,Plated,PTH,ComponentDrill
T4C0.0394
; #@! TA.AperFunction,Plated,PTH,ComponentDrill
T5C0.0402
; #@! TA.AperFunction,Plated,PTH,ComponentDrill
T6C0.0413
; #@! TA.AperFunction,Plated,PTH,ComponentDrill
T7C0.0472
%
G90
G05
T1
X5.36Y-1.44
X5.36Y-1.505
X5.36Y-1.575
X5.4Y-1.795
X5.4Y-1.87
X5.425Y-4.41
X5.435Y-1.44
X5.475Y-1.715
X5.475Y-1.795
X5.475Y-1.87
X5.51Y-1.44
X5.5491Y-2.2041
X5.5491Y-2.2741
X5.55Y-1.635
X5.55Y-1.715
X5.55Y-1.795
X5.55Y-1.87
X5.55Y-1.95
X5.585Y-1.44
X5.6191Y-2.2041
X5.6191Y-2.2741
X5.63Y-4.02
X5.66Y-1.44
X5.6891Y-2.2041
X5.6891Y-2.2741
X5.725Y-1.87
X5.73Y-1.44
X5.8Y-1.44
X5.8Y-1.795
X5.8Y-1.87
X5.835Y-1.49
X5.8641Y-2.2041
X5.8641Y-2.2741
X5.875Y-1.44
X5.875Y-1.725
X5.875Y-1.795
X5.875Y-1.87
X5.875Y-1.95
X5.875Y-2.02
X5.9341Y-2.2041
X5.9341Y-2.2741
X5.945Y-1.44
X5.95Y-1.64
X5.95Y-1.725
X6.0041Y-2.2041
X6.0041Y-2.2741
X6.005Y-1.64
X6.02Y-1.44
X6.025Y-1.87
X6.025Y-1.95
X6.025Y-2.02
X6.0741Y-2.2041
X6.0741Y-2.2741
X6.095Y-1.465
X6.095Y-1.535
X6.095Y-1.715
X6.095Y-1.8709
X6.095Y-1.95
X6.1441Y-2.2041
X6.1441Y-2.2741
X6.175Y-1.465
X6.175Y-1.535
X6.175Y-1.715
X6.2141Y-2.2041
X6.2141Y-2.2741
X6.2491Y-1.6441
X6.25Y-1.465
X6.25Y-1.715
X6.2841Y-2.1341
X6.2841Y-2.2041
X6.2841Y-2.2741
X6.3191Y-1.8891
X6.3541Y-2.0991
X6.3541Y-2.1691
X6.3541Y-2.2391
X6.4241Y-1.6441
X6.425Y-1.715
X6.49Y-1.53
X6.4941Y-1.7141
X6.495Y-1.79
X6.5641Y-1.7141
X6.565Y-1.53
T2
X5.2815Y-4.44
X5.425Y-4.47
X5.64Y-4.63
X5.87Y-4.285
X5.87Y-4.355
X5.87Y-4.43
X5.94Y-4.285
X5.94Y-4.355
X5.94Y-4.43
X5.96Y-3.36
X6.01Y-4.285
X6.01Y-4.355
X6.01Y-4.43
X6.125Y-3.49
X6.305Y-3.98
X6.31Y-4.565
X6.31Y-4.64
X6.37Y-3.665
X6.385Y-4.505
X6.39Y-3.51
X6.39Y-3.565
X6.3962Y-4.5721
X6.405Y-4.63
X6.425Y-3.615
X6.445Y-4.04
X6.455Y-4.505
X6.46Y-3.515
X6.475Y-4.4101
X6.5Y-4.2942
X6.5012Y-4.2126
X6.51Y-3.515
X6.53Y-4.04
X6.565Y-4.45
X6.59Y-4.04
T3
X5.2587Y-2.6892
X5.4437Y-2.6892
X5.5844Y-2.6892
X5.7695Y-2.6892
X6.0416Y-1.7894
X6.2384Y-1.8406
T4
X5.295Y-3.435
X5.295Y-3.535
X5.33Y-3.9304
X5.33Y-4.0304
X5.33Y-4.1304
X5.33Y-4.2304
X5.395Y-3.435
X5.395Y-3.535
X5.495Y-3.435
X5.495Y-3.535
X5.595Y-3.435
X5.595Y-3.535
X5.695Y-3.435
X5.695Y-3.535
X5.795Y-3.435
X5.795Y-3.535
X5.9469Y-3.1642
X6.1516Y-2.0067
X6.3484Y-2.0067
X6.5531Y-3.1642
T5
X5.4309Y-1.5524
X5.5491Y-1.5524
X5.8609Y-1.5524
X5.9791Y-1.5524
X6.29Y-1.5524
X6.4081Y-1.5524
T6
X6.375Y-1.805
X6.575Y-1.805
T7
X5.4437Y-1.9608
X5.4437Y-2.2364
X5.7695Y-1.9608
X5.7695Y-2.2364
T0
M30
