%TF.GenerationSoftware,KiCad,Pcbnew,(5.99.0-10457-g21fde9b629)*%
%TF.CreationDate,2021-05-02T13:24:44-05:00*%
%TF.ProjectId,reptile-monitor,72657074-696c-4652-9d6d-6f6e69746f72,1*%
%TF.SameCoordinates,Original*%
%TF.FileFunction,Paste,Top*%
%TF.FilePolarity,Positive*%
%FSLAX46Y46*%
G04 Gerber Fmt 4.6, Leading zero omitted, Abs format (unit mm)*
G04 Created by KiCad (PCBNEW (5.99.0-10457-g21fde9b629)) date 2021-05-02 13:24:44*
%MOMM*%
%LPD*%
G01*
G04 APERTURE LIST*
G04 Aperture macros list*
%AMRoundRect*
0 Rectangle with rounded corners*
0 $1 Rounding radius*
0 $2 $3 $4 $5 $6 $7 $8 $9 X,Y pos of 4 corners*
0 Add a 4 corners polygon primitive as box body*
4,1,4,$2,$3,$4,$5,$6,$7,$8,$9,$2,$3,0*
0 Add four circle primitives for the rounded corners*
1,1,$1+$1,$2,$3*
1,1,$1+$1,$4,$5*
1,1,$1+$1,$6,$7*
1,1,$1+$1,$8,$9*
0 Add four rect primitives between the rounded corners*
20,1,$1+$1,$2,$3,$4,$5,0*
20,1,$1+$1,$4,$5,$6,$7,0*
20,1,$1+$1,$6,$7,$8,$9,0*
20,1,$1+$1,$8,$9,$2,$3,0*%
G04 Aperture macros list end*
%ADD10RoundRect,0.218750X0.256250X-0.218750X0.256250X0.218750X-0.256250X0.218750X-0.256250X-0.218750X0*%
%ADD11R,2.000000X0.900000*%
%ADD12R,1.330000X1.330000*%
%ADD13RoundRect,0.250000X-0.475000X0.250000X-0.475000X-0.250000X0.475000X-0.250000X0.475000X0.250000X0*%
%ADD14RoundRect,0.225000X-0.225000X-0.250000X0.225000X-0.250000X0.225000X0.250000X-0.225000X0.250000X0*%
%ADD15RoundRect,0.225000X-0.250000X0.225000X-0.250000X-0.225000X0.250000X-0.225000X0.250000X0.225000X0*%
%ADD16R,1.700000X0.800000*%
%ADD17RoundRect,0.200000X-0.275000X0.200000X-0.275000X-0.200000X0.275000X-0.200000X0.275000X0.200000X0*%
%ADD18RoundRect,0.200000X0.275000X-0.200000X0.275000X0.200000X-0.275000X0.200000X-0.275000X-0.200000X0*%
%ADD19RoundRect,0.200000X0.200000X0.275000X-0.200000X0.275000X-0.200000X-0.275000X0.200000X-0.275000X0*%
%ADD20R,1.000000X0.700000*%
%ADD21R,1.800000X1.000000*%
%ADD22R,0.650000X1.500000*%
G04 APERTURE END LIST*
D10*
%TO.C,D1*%
X162179000Y-101371500D03*
X162179000Y-99796500D03*
%TD*%
%TO.C,D2*%
X165862000Y-101371500D03*
X165862000Y-99796500D03*
%TD*%
D11*
%TO.C,IC1*%
X158363988Y-118115000D03*
X158363988Y-116845000D03*
X158363988Y-115575000D03*
X158363988Y-114305000D03*
X158363988Y-113035000D03*
X158363988Y-111765000D03*
X158363988Y-110495000D03*
X158363988Y-109225000D03*
X158363988Y-107955000D03*
X158363988Y-106685000D03*
X158363988Y-105415000D03*
X158363988Y-104145000D03*
X158363988Y-102875000D03*
X158363988Y-101605000D03*
X158363988Y-100335000D03*
X158363988Y-99065000D03*
X158363988Y-97795000D03*
X158363988Y-96525000D03*
X158363988Y-95255000D03*
X141363988Y-95255000D03*
X141363988Y-96525000D03*
X141363988Y-97795000D03*
X141363988Y-99065000D03*
X141363988Y-100335000D03*
X141363988Y-101605000D03*
X141363988Y-102875000D03*
X141363988Y-104145000D03*
X141363988Y-105415000D03*
X141363988Y-106685000D03*
X141363988Y-107955000D03*
X141363988Y-109225000D03*
X141363988Y-110495000D03*
X141363988Y-111765000D03*
X141363988Y-113035000D03*
X141363988Y-114305000D03*
X141363988Y-115575000D03*
X141363988Y-116845000D03*
X141363988Y-118115000D03*
D12*
X150863988Y-110615000D03*
X152698988Y-112450000D03*
X152698988Y-110615000D03*
X152698988Y-108780000D03*
X150863988Y-108780000D03*
X149028988Y-108780000D03*
X149028988Y-110615000D03*
X149028988Y-112450000D03*
X150863988Y-112450000D03*
%TD*%
D13*
%TO.C,C1*%
X161163000Y-86426000D03*
X161163000Y-88326000D03*
%TD*%
D14*
%TO.C,CL1*%
X164325000Y-108331000D03*
X165875000Y-108331000D03*
%TD*%
D15*
%TO.C,C8*%
X161798000Y-115303000D03*
X161798000Y-116853000D03*
%TD*%
D16*
%TO.C,SW2*%
X133858000Y-110568000D03*
X133858000Y-113968000D03*
%TD*%
D15*
%TO.C,C10*%
X136652000Y-112001000D03*
X136652000Y-113551000D03*
%TD*%
D17*
%TO.C,R8*%
X163703000Y-99759000D03*
X163703000Y-101409000D03*
%TD*%
D16*
%TO.C,SW1*%
X167005000Y-110568000D03*
X167005000Y-113968000D03*
%TD*%
D18*
%TO.C,R1*%
X161798000Y-112839000D03*
X161798000Y-111189000D03*
%TD*%
D19*
%TO.C,R12*%
X165925000Y-85725000D03*
X164275000Y-85725000D03*
%TD*%
D13*
%TO.C,C2*%
X161163000Y-89982000D03*
X161163000Y-91882000D03*
%TD*%
D15*
%TO.C,C7*%
X163576000Y-115303000D03*
X163576000Y-116853000D03*
%TD*%
D20*
%TO.C,U1*%
X152070509Y-86299000D03*
X152070509Y-87249000D03*
X152070509Y-88199000D03*
X154470509Y-88199000D03*
X154470509Y-87249000D03*
X154470509Y-86299000D03*
%TD*%
D15*
%TO.C,C9*%
X163703000Y-111239000D03*
X163703000Y-112789000D03*
%TD*%
D21*
%TO.C,Y1*%
X162179000Y-106065000D03*
X162179000Y-108565000D03*
%TD*%
D14*
%TO.C,CL2*%
X164325000Y-106299000D03*
X165875000Y-106299000D03*
%TD*%
D22*
%TO.C,U3*%
X163119994Y-93315008D03*
X164389994Y-93315008D03*
X165659994Y-93315008D03*
X166929994Y-93315008D03*
X166929994Y-87915008D03*
X165659994Y-87915008D03*
X164389994Y-87915008D03*
X163119994Y-87915008D03*
%TD*%
D18*
%TO.C,R13*%
X167386000Y-101409000D03*
X167386000Y-99759000D03*
%TD*%
M02*
