%TF.GenerationSoftware,KiCad,Pcbnew,(5.99.0-10457-g21fde9b629)*%
%TF.CreationDate,2021-05-02T13:24:45-05:00*%
%TF.ProjectId,reptile-monitor,72657074-696c-4652-9d6d-6f6e69746f72,1*%
%TF.SameCoordinates,Original*%
%TF.FileFunction,Legend,Bot*%
%TF.FilePolarity,Positive*%
%FSLAX46Y46*%
G04 Gerber Fmt 4.6, Leading zero omitted, Abs format (unit mm)*
G04 Created by KiCad (PCBNEW (5.99.0-10457-g21fde9b629)) date 2021-05-02 13:24:45*
%MOMM*%
%LPD*%
G01*
G04 APERTURE LIST*
G04 Aperture macros list*
%AMRoundRect*
0 Rectangle with rounded corners*
0 $1 Rounding radius*
0 $2 $3 $4 $5 $6 $7 $8 $9 X,Y pos of 4 corners*
0 Add a 4 corners polygon primitive as box body*
4,1,4,$2,$3,$4,$5,$6,$7,$8,$9,$2,$3,0*
0 Add four circle primitives for the rounded corners*
1,1,$1+$1,$2,$3*
1,1,$1+$1,$4,$5*
1,1,$1+$1,$6,$7*
1,1,$1+$1,$8,$9*
0 Add four rect primitives between the rounded corners*
20,1,$1+$1,$2,$3,$4,$5,0*
20,1,$1+$1,$4,$5,$6,$7,0*
20,1,$1+$1,$6,$7,$8,$9,0*
20,1,$1+$1,$8,$9,$2,$3,0*%
G04 Aperture macros list end*
%ADD10C,0.127000*%
%ADD11C,2.301600*%
%ADD12RoundRect,0.050800X-0.785000X-0.785000X0.785000X-0.785000X0.785000X0.785000X-0.785000X0.785000X0*%
%ADD13C,1.671600*%
%ADD14C,1.371600*%
%ADD15RoundRect,0.050800X-1.000000X1.150000X-1.000000X-1.150000X1.000000X-1.150000X1.000000X1.150000X0*%
%ADD16C,2.401600*%
%ADD17RoundRect,0.050800X-0.850000X-0.850000X0.850000X-0.850000X0.850000X0.850000X-0.850000X0.850000X0*%
%ADD18O,1.801600X1.801600*%
%ADD19RoundRect,0.050800X0.500000X-0.500000X0.500000X0.500000X-0.500000X0.500000X-0.500000X-0.500000X0*%
%ADD20C,2.268946*%
%ADD21C,1.101600*%
%ADD22RoundRect,0.050800X0.787500X0.787500X-0.787500X0.787500X-0.787500X-0.787500X0.787500X-0.787500X0*%
%ADD23C,1.676600*%
%ADD24C,1.701600*%
%ADD25RoundRect,0.050800X0.850000X-0.850000X0.850000X0.850000X-0.850000X0.850000X-0.850000X-0.850000X0*%
G04 APERTURE END LIST*
D10*
X154779738Y-65350571D02*
X155082119Y-65562238D01*
X154779738Y-65713428D02*
X155414738Y-65713428D01*
X155414738Y-65471523D01*
X155384500Y-65411047D01*
X155354261Y-65380809D01*
X155293785Y-65350571D01*
X155203071Y-65350571D01*
X155142595Y-65380809D01*
X155112357Y-65411047D01*
X155082119Y-65471523D01*
X155082119Y-65713428D01*
X154809976Y-64836523D02*
X154779738Y-64897000D01*
X154779738Y-65017952D01*
X154809976Y-65078428D01*
X154870452Y-65108666D01*
X155112357Y-65108666D01*
X155172833Y-65078428D01*
X155203071Y-65017952D01*
X155203071Y-64897000D01*
X155172833Y-64836523D01*
X155112357Y-64806285D01*
X155051880Y-64806285D01*
X154991404Y-65108666D01*
X155203071Y-64594619D02*
X154779738Y-64443428D01*
X155203071Y-64292238D01*
X155354261Y-63596761D02*
X155384500Y-63566523D01*
X155414738Y-63506047D01*
X155414738Y-63354857D01*
X155384500Y-63294380D01*
X155354261Y-63264142D01*
X155293785Y-63233904D01*
X155233309Y-63233904D01*
X155142595Y-63264142D01*
X154779738Y-63627000D01*
X154779738Y-63233904D01*
X154961166Y-62508190D02*
X154961166Y-62205809D01*
X154779738Y-62568666D02*
X155414738Y-62357000D01*
X154779738Y-62145333D01*
X155203071Y-61933666D02*
X154568071Y-61933666D01*
X155172833Y-61933666D02*
X155203071Y-61873190D01*
X155203071Y-61752238D01*
X155172833Y-61691761D01*
X155142595Y-61661523D01*
X155082119Y-61631285D01*
X154900690Y-61631285D01*
X154840214Y-61661523D01*
X154809976Y-61691761D01*
X154779738Y-61752238D01*
X154779738Y-61873190D01*
X154809976Y-61933666D01*
X154779738Y-61359142D02*
X155203071Y-61359142D01*
X155082119Y-61359142D02*
X155142595Y-61328904D01*
X155172833Y-61298666D01*
X155203071Y-61238190D01*
X155203071Y-61177714D01*
X154779738Y-60966047D02*
X155203071Y-60966047D01*
X155414738Y-60966047D02*
X155384500Y-60996285D01*
X155354261Y-60966047D01*
X155384500Y-60935809D01*
X155414738Y-60966047D01*
X155354261Y-60966047D01*
X154779738Y-60572952D02*
X154809976Y-60633428D01*
X154870452Y-60663666D01*
X155414738Y-60663666D01*
X155354261Y-59877476D02*
X155384500Y-59847238D01*
X155414738Y-59786761D01*
X155414738Y-59635571D01*
X155384500Y-59575095D01*
X155354261Y-59544857D01*
X155293785Y-59514619D01*
X155233309Y-59514619D01*
X155142595Y-59544857D01*
X154779738Y-59907714D01*
X154779738Y-59514619D01*
X155414738Y-59121523D02*
X155414738Y-59061047D01*
X155384500Y-59000571D01*
X155354261Y-58970333D01*
X155293785Y-58940095D01*
X155172833Y-58909857D01*
X155021642Y-58909857D01*
X154900690Y-58940095D01*
X154840214Y-58970333D01*
X154809976Y-59000571D01*
X154779738Y-59061047D01*
X154779738Y-59121523D01*
X154809976Y-59182000D01*
X154840214Y-59212238D01*
X154900690Y-59242476D01*
X155021642Y-59272714D01*
X155172833Y-59272714D01*
X155293785Y-59242476D01*
X155354261Y-59212238D01*
X155384500Y-59182000D01*
X155414738Y-59121523D01*
X155354261Y-58667952D02*
X155384500Y-58637714D01*
X155414738Y-58577238D01*
X155414738Y-58426047D01*
X155384500Y-58365571D01*
X155354261Y-58335333D01*
X155293785Y-58305095D01*
X155233309Y-58305095D01*
X155142595Y-58335333D01*
X154779738Y-58698190D01*
X154779738Y-58305095D01*
X154779738Y-57700333D02*
X154779738Y-58063190D01*
X154779738Y-57881761D02*
X155414738Y-57881761D01*
X155324023Y-57942238D01*
X155263547Y-58002714D01*
X155233309Y-58063190D01*
%TO.C,WESLEY*%
X136999738Y-79656214D02*
X136364738Y-79505023D01*
X136818309Y-79384071D01*
X136364738Y-79263119D01*
X136999738Y-79111928D01*
X136697357Y-78870023D02*
X136697357Y-78658357D01*
X136364738Y-78567642D02*
X136364738Y-78870023D01*
X136999738Y-78870023D01*
X136999738Y-78567642D01*
X136394976Y-78325738D02*
X136364738Y-78235023D01*
X136364738Y-78083833D01*
X136394976Y-78023357D01*
X136425214Y-77993119D01*
X136485690Y-77962880D01*
X136546166Y-77962880D01*
X136606642Y-77993119D01*
X136636880Y-78023357D01*
X136667119Y-78083833D01*
X136697357Y-78204785D01*
X136727595Y-78265261D01*
X136757833Y-78295500D01*
X136818309Y-78325738D01*
X136878785Y-78325738D01*
X136939261Y-78295500D01*
X136969500Y-78265261D01*
X136999738Y-78204785D01*
X136999738Y-78053595D01*
X136969500Y-77962880D01*
X136364738Y-77388357D02*
X136364738Y-77690738D01*
X136999738Y-77690738D01*
X136697357Y-77176690D02*
X136697357Y-76965023D01*
X136364738Y-76874309D02*
X136364738Y-77176690D01*
X136999738Y-77176690D01*
X136999738Y-76874309D01*
X136667119Y-76481214D02*
X136364738Y-76481214D01*
X136999738Y-76692880D02*
X136667119Y-76481214D01*
X136999738Y-76269547D01*
%TO.C,WAFFLE*%
X148302738Y-99930857D02*
X147667738Y-99779666D01*
X148121309Y-99658714D01*
X147667738Y-99537761D01*
X148302738Y-99386571D01*
X147849166Y-99174904D02*
X147849166Y-98872523D01*
X147667738Y-99235380D02*
X148302738Y-99023714D01*
X147667738Y-98812047D01*
X148000357Y-98388714D02*
X148000357Y-98600380D01*
X147667738Y-98600380D02*
X148302738Y-98600380D01*
X148302738Y-98298000D01*
X148000357Y-97844428D02*
X148000357Y-98056095D01*
X147667738Y-98056095D02*
X148302738Y-98056095D01*
X148302738Y-97753714D01*
X147667738Y-97209428D02*
X147667738Y-97511809D01*
X148302738Y-97511809D01*
X148000357Y-96997761D02*
X148000357Y-96786095D01*
X147667738Y-96695380D02*
X147667738Y-96997761D01*
X148302738Y-96997761D01*
X148302738Y-96695380D01*
%TO.C,WESLEY*%
G36*
X140338648Y-78855475D02*
G01*
X140311475Y-78697667D01*
X140462000Y-78697667D01*
X140464461Y-78717905D01*
X140546667Y-78782334D01*
X140566905Y-78779874D01*
X140631334Y-78697667D01*
X140628874Y-78677430D01*
X140546667Y-78613000D01*
X140526430Y-78615461D01*
X140462000Y-78697667D01*
X140311475Y-78697667D01*
X140307896Y-78676879D01*
X140372252Y-78532534D01*
X140546667Y-78486000D01*
X140712349Y-78525552D01*
X140785439Y-78676879D01*
X140760046Y-78836185D01*
X140623340Y-78937616D01*
X140546667Y-78930723D01*
X140413729Y-78918771D01*
X140338648Y-78855475D01*
G37*
G36*
X140493760Y-77238197D02*
G01*
X140481529Y-77136331D01*
X140631334Y-77136331D01*
X140633535Y-77144780D01*
X140716000Y-77173667D01*
X140739207Y-77170222D01*
X140800667Y-77084004D01*
X140794019Y-77053380D01*
X140716000Y-77046667D01*
X140690663Y-77064045D01*
X140631334Y-77136331D01*
X140481529Y-77136331D01*
X140475194Y-77083573D01*
X140587922Y-76920562D01*
X140756076Y-76853813D01*
X140906522Y-76916117D01*
X140970000Y-77089000D01*
X140937869Y-77216416D01*
X140796123Y-77325875D01*
X140716000Y-77320656D01*
X140589000Y-77312383D01*
X140493760Y-77238197D01*
G37*
G36*
X142282355Y-74095057D02*
G01*
X142273711Y-74091464D01*
X142174290Y-73973430D01*
X142166147Y-73829334D01*
X142324667Y-73829334D01*
X142367000Y-73871667D01*
X142409334Y-73829334D01*
X142367000Y-73787000D01*
X142324667Y-73829334D01*
X142166147Y-73829334D01*
X142164499Y-73800165D01*
X142232637Y-73643516D01*
X142367000Y-73575334D01*
X142483575Y-73609590D01*
X142564669Y-73775599D01*
X142555307Y-73962284D01*
X142454379Y-74094497D01*
X142367000Y-74094781D01*
X142282355Y-74095057D01*
G37*
G36*
X143234679Y-75670834D02*
G01*
X143226788Y-75613322D01*
X143241336Y-75517670D01*
X143340667Y-75517670D01*
X143344563Y-75531252D01*
X143425334Y-75607334D01*
X143458131Y-75620563D01*
X143510000Y-75569997D01*
X143506747Y-75545422D01*
X143425334Y-75480334D01*
X143406173Y-75481305D01*
X143340667Y-75517670D01*
X143241336Y-75517670D01*
X143254933Y-75428276D01*
X143338662Y-75285086D01*
X143446184Y-75247395D01*
X143541876Y-75306676D01*
X143651169Y-75485016D01*
X143653132Y-75680492D01*
X143623083Y-75733007D01*
X143485136Y-75811107D01*
X143458131Y-75807408D01*
X143329438Y-75789778D01*
X143234679Y-75670834D01*
G37*
G36*
X141339330Y-76838783D02*
G01*
X141195778Y-76778556D01*
X141140374Y-76649797D01*
X141144335Y-76623334D01*
X141308667Y-76623334D01*
X141351000Y-76665667D01*
X141393334Y-76623334D01*
X141351000Y-76581000D01*
X141308667Y-76623334D01*
X141144335Y-76623334D01*
X141167058Y-76471531D01*
X141274879Y-76354339D01*
X141392271Y-76353122D01*
X141512245Y-76470693D01*
X141561371Y-76686834D01*
X141561133Y-76695714D01*
X141487917Y-76804444D01*
X141351000Y-76836086D01*
X141339330Y-76838783D01*
G37*
G36*
X139330185Y-81770962D02*
G01*
X139327098Y-81767809D01*
X139281814Y-81630022D01*
X139460977Y-81630022D01*
X139530667Y-81661000D01*
X139575489Y-81654890D01*
X139587112Y-81604556D01*
X139574702Y-81594423D01*
X139474223Y-81604556D01*
X139460977Y-81630022D01*
X139281814Y-81630022D01*
X139281601Y-81629373D01*
X139361911Y-81503967D01*
X139531827Y-81449334D01*
X139695764Y-81488452D01*
X139769389Y-81639834D01*
X139773365Y-81673326D01*
X139743655Y-81798496D01*
X139593000Y-81830334D01*
X139530667Y-81824539D01*
X139453479Y-81817364D01*
X139330185Y-81770962D01*
G37*
G36*
X145173526Y-82412468D02*
G01*
X145070018Y-82299424D01*
X144985983Y-82145822D01*
X144989277Y-82126667D01*
X145203334Y-82126667D01*
X145245667Y-82169000D01*
X145288000Y-82126667D01*
X145245667Y-82084334D01*
X145203334Y-82126667D01*
X144989277Y-82126667D01*
X145010521Y-82003119D01*
X145189177Y-81930229D01*
X145262441Y-81927942D01*
X145402197Y-82001919D01*
X145433658Y-82151704D01*
X145336737Y-82323732D01*
X145264835Y-82389819D01*
X145245667Y-82394574D01*
X145173526Y-82412468D01*
G37*
G36*
X144290913Y-81109383D02*
G01*
X144022922Y-81045803D01*
X143791164Y-80822980D01*
X143776402Y-80800700D01*
X143633627Y-80465184D01*
X143598531Y-80108511D01*
X143633852Y-79972360D01*
X144200285Y-79972360D01*
X144306635Y-80130611D01*
X144332890Y-80150823D01*
X144523516Y-80215263D01*
X144675567Y-80147304D01*
X144737667Y-79966508D01*
X144731851Y-79876806D01*
X144665888Y-79779099D01*
X144484827Y-79756000D01*
X144415195Y-79760406D01*
X144242898Y-79835449D01*
X144200285Y-79972360D01*
X143633852Y-79972360D01*
X143678684Y-79799548D01*
X143775557Y-79693074D01*
X144003369Y-79568759D01*
X144267967Y-79499389D01*
X144491912Y-79512315D01*
X144703845Y-79618781D01*
X144936160Y-79862935D01*
X145035291Y-80168444D01*
X144992750Y-80499302D01*
X144800048Y-80819500D01*
X144573997Y-81013791D01*
X144523516Y-81030837D01*
X144290913Y-81109383D01*
G37*
G36*
X139756056Y-74561251D02*
G01*
X139713399Y-74435263D01*
X139719964Y-74422000D01*
X139869334Y-74422000D01*
X139911667Y-74464334D01*
X139954000Y-74422000D01*
X139911667Y-74379667D01*
X139869334Y-74422000D01*
X139719964Y-74422000D01*
X139779224Y-74302284D01*
X139933699Y-74225612D01*
X140081006Y-74240905D01*
X140123334Y-74368782D01*
X140109924Y-74472616D01*
X140003555Y-74605214D01*
X139911667Y-74602204D01*
X139816689Y-74599092D01*
X139756056Y-74561251D01*
G37*
G36*
X140772445Y-75169889D02*
G01*
X140719707Y-75061968D01*
X140730304Y-74972334D01*
X140885334Y-74972334D01*
X140891444Y-75017156D01*
X140941778Y-75028778D01*
X140951911Y-75016369D01*
X140941778Y-74915889D01*
X140916312Y-74902644D01*
X140885334Y-74972334D01*
X140730304Y-74972334D01*
X140740357Y-74887305D01*
X140850641Y-74769451D01*
X140961302Y-74743976D01*
X141094596Y-74809935D01*
X141139334Y-75019664D01*
X141109205Y-75166748D01*
X140984112Y-75226334D01*
X140941778Y-75222470D01*
X140896949Y-75218379D01*
X140772445Y-75169889D01*
G37*
G36*
X143332918Y-79356709D02*
G01*
X143178116Y-79226834D01*
X143112553Y-79090933D01*
X143110041Y-78995738D01*
X143354500Y-78995738D01*
X143361247Y-79161287D01*
X143439986Y-79187198D01*
X143523577Y-79099304D01*
X143580015Y-78914744D01*
X143580835Y-78907597D01*
X143574087Y-78742048D01*
X143495348Y-78716136D01*
X143411757Y-78804031D01*
X143355320Y-78988590D01*
X143354500Y-78995738D01*
X143110041Y-78995738D01*
X143107998Y-78918305D01*
X143221842Y-78711689D01*
X143287085Y-78635343D01*
X143475705Y-78544984D01*
X143656942Y-78605154D01*
X143787224Y-78808400D01*
X143795682Y-78834888D01*
X143817265Y-79039878D01*
X143717233Y-79210566D01*
X143533095Y-79344289D01*
X143439986Y-79350066D01*
X143332918Y-79356709D01*
G37*
G36*
X140508152Y-73029050D02*
G01*
X140474815Y-72874561D01*
X140495061Y-72813334D01*
X140631334Y-72813334D01*
X140673667Y-72855667D01*
X140716000Y-72813334D01*
X140673667Y-72771000D01*
X140631334Y-72813334D01*
X140495061Y-72813334D01*
X140529260Y-72709910D01*
X140652757Y-72617441D01*
X140739069Y-72623662D01*
X140854834Y-72728975D01*
X140864981Y-72811942D01*
X140802644Y-72964421D01*
X140680288Y-73069594D01*
X140673667Y-73069582D01*
X140549950Y-73069363D01*
X140508152Y-73029050D01*
G37*
G36*
X143243098Y-77047876D02*
G01*
X143070487Y-76920710D01*
X143025843Y-76858649D01*
X142992122Y-76750334D01*
X143171334Y-76750334D01*
X143173794Y-76770571D01*
X143256000Y-76835000D01*
X143276238Y-76832540D01*
X143340667Y-76750334D01*
X143338207Y-76730096D01*
X143256000Y-76665667D01*
X143235763Y-76668127D01*
X143171334Y-76750334D01*
X142992122Y-76750334D01*
X142966702Y-76668682D01*
X143044701Y-76542426D01*
X143245650Y-76512920D01*
X143251752Y-76513652D01*
X143426731Y-76582414D01*
X143493414Y-76760685D01*
X143488924Y-76891669D01*
X143398295Y-77032248D01*
X143256000Y-77046577D01*
X143243098Y-77047876D01*
G37*
G36*
X143886870Y-75047970D02*
G01*
X143754276Y-74959498D01*
X143692154Y-74816220D01*
X143697693Y-74755670D01*
X143848667Y-74755670D01*
X143852563Y-74769252D01*
X143933334Y-74845334D01*
X143966131Y-74858563D01*
X144018000Y-74807997D01*
X144014747Y-74783422D01*
X143933334Y-74718334D01*
X143914173Y-74719305D01*
X143848667Y-74755670D01*
X143697693Y-74755670D01*
X143709857Y-74622701D01*
X143857190Y-74503962D01*
X144023169Y-74488871D01*
X144152368Y-74591401D01*
X144173335Y-74813537D01*
X144155507Y-74880527D01*
X144042229Y-75014118D01*
X143966131Y-75030699D01*
X143886870Y-75047970D01*
G37*
G36*
X143595377Y-84224556D02*
G01*
X143353018Y-84098234D01*
X143228714Y-84035071D01*
X142881584Y-83899588D01*
X142556508Y-83818011D01*
X142307886Y-83766130D01*
X142004838Y-83625054D01*
X141772813Y-83381747D01*
X141571439Y-83002796D01*
X141562014Y-82981173D01*
X141439714Y-82706458D01*
X141339394Y-82504473D01*
X141222758Y-82303785D01*
X141051510Y-82032961D01*
X140882918Y-81769921D01*
X140481959Y-81974668D01*
X140478536Y-81976414D01*
X140193100Y-82100607D01*
X139937562Y-82145612D01*
X139728562Y-82134566D01*
X139615334Y-82128582D01*
X139457882Y-82113460D01*
X139083278Y-82088626D01*
X138756341Y-82079697D01*
X138749086Y-82079730D01*
X138534818Y-82070755D01*
X138399596Y-82020398D01*
X138323326Y-81896672D01*
X138285914Y-81667590D01*
X138270215Y-81359095D01*
X138484502Y-81359095D01*
X138497215Y-81639834D01*
X138504344Y-81694693D01*
X138558741Y-81867579D01*
X138632902Y-81915190D01*
X138702653Y-81816710D01*
X138738825Y-81779548D01*
X138880517Y-81781838D01*
X139148124Y-81859043D01*
X139391305Y-81933800D01*
X139728562Y-81986886D01*
X140032685Y-81945185D01*
X140372996Y-81805677D01*
X140538789Y-81716784D01*
X140737484Y-81575493D01*
X140793938Y-81474075D01*
X140705070Y-81424462D01*
X140467799Y-81438586D01*
X140318242Y-81456934D01*
X140083886Y-81436610D01*
X139871966Y-81324208D01*
X139684982Y-81221386D01*
X139341462Y-81157292D01*
X139017101Y-81240646D01*
X138914612Y-81279202D01*
X138692464Y-81242197D01*
X138630464Y-81214186D01*
X138525930Y-81223297D01*
X138484502Y-81359095D01*
X138270215Y-81359095D01*
X138267267Y-81301167D01*
X138269608Y-81112595D01*
X138323571Y-80932008D01*
X138454035Y-80892245D01*
X138677664Y-80980276D01*
X138695700Y-80988680D01*
X138893521Y-81023740D01*
X139142288Y-81010797D01*
X139455048Y-80960043D01*
X139243349Y-80739022D01*
X139207706Y-80700061D01*
X138987114Y-80374558D01*
X138828877Y-79999354D01*
X138767371Y-79652887D01*
X138758902Y-79525875D01*
X138710915Y-79338706D01*
X138638553Y-79244615D01*
X138562587Y-79281295D01*
X138487108Y-79338219D01*
X138310033Y-79375000D01*
X138191038Y-79352510D01*
X138104052Y-79246928D01*
X138037820Y-79015167D01*
X138019793Y-78928128D01*
X137981787Y-78651214D01*
X138236260Y-78651214D01*
X138243223Y-78930604D01*
X138266269Y-79084573D01*
X138320190Y-79157270D01*
X138432220Y-79119813D01*
X138520229Y-79047262D01*
X138531860Y-78962013D01*
X138863658Y-78962013D01*
X138874936Y-79022491D01*
X138904928Y-79211209D01*
X138944851Y-79477397D01*
X138964304Y-79596353D01*
X139135742Y-80183191D01*
X139413995Y-80638857D01*
X139799493Y-80963889D01*
X140292667Y-81158823D01*
X140423653Y-81190744D01*
X140703943Y-81276223D01*
X140884178Y-81383130D01*
X141013690Y-81549489D01*
X141141813Y-81813325D01*
X141216369Y-81977280D01*
X141294056Y-82108044D01*
X141356835Y-82119761D01*
X141434468Y-82034973D01*
X141460633Y-82001053D01*
X141525708Y-81941426D01*
X141553723Y-82003602D01*
X141561834Y-82211334D01*
X141571529Y-82346078D01*
X141669010Y-82744526D01*
X141845121Y-83127398D01*
X142067761Y-83418122D01*
X142127749Y-83463837D01*
X142366304Y-83576509D01*
X142648896Y-83648695D01*
X142745509Y-83666675D01*
X143091322Y-83771728D01*
X143406532Y-83916254D01*
X143448937Y-83940182D01*
X143734925Y-84061390D01*
X143938666Y-84072308D01*
X144043271Y-84032226D01*
X144044665Y-83978578D01*
X143915135Y-83871509D01*
X143840653Y-83821831D01*
X143598978Y-83693921D01*
X143465359Y-83636981D01*
X143319359Y-83574766D01*
X143187497Y-83518932D01*
X142943446Y-83379968D01*
X142790192Y-83243772D01*
X142720424Y-83084363D01*
X142670758Y-82769108D01*
X142671989Y-82488012D01*
X142830947Y-82488012D01*
X142881881Y-82878644D01*
X143080154Y-83191513D01*
X143133489Y-83241953D01*
X143321573Y-83382532D01*
X143465359Y-83439000D01*
X143520674Y-83429226D01*
X143565490Y-83362775D01*
X143573155Y-83201787D01*
X143549459Y-82909834D01*
X143543321Y-82853245D01*
X143489130Y-82498450D01*
X143413991Y-82154026D01*
X143328988Y-81859309D01*
X143245204Y-81653633D01*
X143173723Y-81576334D01*
X143150639Y-81588543D01*
X143066310Y-81709044D01*
X142968860Y-81916714D01*
X142927938Y-82026336D01*
X142830947Y-82488012D01*
X142671989Y-82488012D01*
X142672401Y-82393825D01*
X142724066Y-82016566D01*
X142824471Y-81695382D01*
X142879819Y-81548369D01*
X142967291Y-81127956D01*
X143013111Y-80555487D01*
X143044334Y-79762212D01*
X142705667Y-79569999D01*
X142539719Y-79486399D01*
X142285599Y-79407961D01*
X141991110Y-79385327D01*
X141615831Y-79416719D01*
X141119340Y-79500366D01*
X140980052Y-79525712D01*
X140578734Y-79572515D01*
X140276387Y-79547484D01*
X140027010Y-79441886D01*
X139784600Y-79246989D01*
X139751719Y-79218310D01*
X139503338Y-79075390D01*
X139213100Y-78987554D01*
X139114086Y-78972906D01*
X138931360Y-78954468D01*
X138863658Y-78962013D01*
X138531860Y-78962013D01*
X138540683Y-78897341D01*
X138529941Y-78832991D01*
X138585677Y-78792280D01*
X138745486Y-78782168D01*
X139041541Y-78796156D01*
X139253900Y-78813282D01*
X139512155Y-78860432D01*
X139710203Y-78952297D01*
X139916182Y-79113607D01*
X139935759Y-79130767D01*
X140118227Y-79278713D01*
X140271228Y-79351067D01*
X140460549Y-79365681D01*
X140751977Y-79340406D01*
X140939501Y-79320418D01*
X141516432Y-79264107D01*
X141957207Y-79234417D01*
X142286539Y-79233967D01*
X142529141Y-79265378D01*
X142709727Y-79331267D01*
X142853010Y-79434255D01*
X142983704Y-79576961D01*
X143106937Y-79695761D01*
X143234834Y-79756000D01*
X143292838Y-79765000D01*
X143330948Y-79827005D01*
X143315281Y-79978893D01*
X143246679Y-80256283D01*
X143214572Y-80395259D01*
X143199200Y-80564858D01*
X143218176Y-80758225D01*
X143277939Y-81008995D01*
X143384931Y-81350800D01*
X143545591Y-81817277D01*
X143548522Y-81825661D01*
X143657182Y-82193161D01*
X143734533Y-82560897D01*
X143764000Y-82850460D01*
X143764768Y-82920923D01*
X143814019Y-83320185D01*
X143950981Y-83604669D01*
X144190929Y-83808656D01*
X144339936Y-83885459D01*
X144501792Y-83904649D01*
X144712881Y-83834334D01*
X144716706Y-83832706D01*
X144959136Y-83696499D01*
X145152956Y-83535353D01*
X145291941Y-83412722D01*
X145425949Y-83354334D01*
X145544973Y-83282907D01*
X145665977Y-83098583D01*
X145758881Y-82856786D01*
X145796001Y-82612978D01*
X145776158Y-82443961D01*
X145711248Y-82156779D01*
X145616845Y-81840706D01*
X145538980Y-81595867D01*
X145486291Y-81343825D01*
X145487804Y-81106857D01*
X145537300Y-80803890D01*
X145574615Y-80587074D01*
X145592095Y-80272554D01*
X145535300Y-80005816D01*
X145387552Y-79751465D01*
X145132173Y-79474109D01*
X144752487Y-79138354D01*
X144445792Y-78884849D01*
X144049056Y-78584105D01*
X143725735Y-78390485D01*
X143447897Y-78296044D01*
X143187610Y-78292835D01*
X142916942Y-78372913D01*
X142607962Y-78528334D01*
X142414966Y-78636591D01*
X142217118Y-78738826D01*
X142114771Y-78765666D01*
X142076447Y-78722071D01*
X142070667Y-78613000D01*
X142054981Y-78514589D01*
X141986999Y-78443667D01*
X141938948Y-78486156D01*
X141923499Y-78633893D01*
X141900366Y-78782750D01*
X141753167Y-78851449D01*
X141747940Y-78852180D01*
X141602195Y-78834213D01*
X141562667Y-78700899D01*
X141584370Y-78589353D01*
X141678831Y-78478443D01*
X141729435Y-78437854D01*
X141807826Y-78250978D01*
X141851294Y-77956615D01*
X141855554Y-77594466D01*
X141816323Y-77204236D01*
X141778755Y-77001567D01*
X141683877Y-76624789D01*
X141572112Y-76291060D01*
X141568597Y-76280564D01*
X141446473Y-76002233D01*
X141331060Y-75823140D01*
X141323140Y-75819268D01*
X141886918Y-75819268D01*
X141955240Y-75884195D01*
X142179406Y-75903667D01*
X142261585Y-75896605D01*
X142492946Y-75798878D01*
X142762942Y-75569981D01*
X142945337Y-75381772D01*
X143029808Y-75261214D01*
X143023914Y-75173086D01*
X142943481Y-75073896D01*
X142941136Y-75071411D01*
X142829332Y-74968879D01*
X142746806Y-74982136D01*
X142628035Y-75120955D01*
X142582563Y-75174837D01*
X142380828Y-75371648D01*
X142144048Y-75563442D01*
X141973426Y-75699117D01*
X141886918Y-75819268D01*
X141323140Y-75819268D01*
X141235912Y-75776625D01*
X141224216Y-75780847D01*
X141156789Y-75766782D01*
X141181075Y-75629759D01*
X141260111Y-75317692D01*
X141269205Y-74907679D01*
X141141120Y-74565072D01*
X141072114Y-74467312D01*
X140843000Y-74271972D01*
X140765802Y-74206154D01*
X140382421Y-74071351D01*
X139957681Y-74070713D01*
X139527294Y-74212055D01*
X139404097Y-74281095D01*
X139392936Y-74287350D01*
X139236361Y-74428069D01*
X139192000Y-74593055D01*
X139176551Y-74753038D01*
X139109027Y-74788755D01*
X138968239Y-74676000D01*
X138956289Y-74666734D01*
X138876243Y-74604665D01*
X138722382Y-74549000D01*
X138663585Y-74574915D01*
X138661282Y-74687138D01*
X138739999Y-74905354D01*
X138904558Y-75248075D01*
X139007271Y-75445424D01*
X139083745Y-75540631D01*
X139158161Y-75515809D01*
X139271733Y-75386495D01*
X139272177Y-75385962D01*
X139393101Y-75268383D01*
X139436119Y-75294616D01*
X139400947Y-75457996D01*
X139287302Y-75751858D01*
X139248437Y-75846091D01*
X139141619Y-76139797D01*
X139071305Y-76382964D01*
X139043750Y-76547439D01*
X139081918Y-76616343D01*
X139221671Y-76604143D01*
X139395320Y-76611109D01*
X139485466Y-76741299D01*
X139511479Y-76874741D01*
X139453377Y-77034603D01*
X139281664Y-77083860D01*
X139263744Y-77089000D01*
X139150884Y-77057850D01*
X139040689Y-76898500D01*
X139022284Y-76835000D01*
X139192000Y-76835000D01*
X139195446Y-76858207D01*
X139281664Y-76919667D01*
X139312288Y-76913019D01*
X139319000Y-76835000D01*
X139301623Y-76809663D01*
X139229337Y-76750334D01*
X139220887Y-76752535D01*
X139192000Y-76835000D01*
X139022284Y-76835000D01*
X139007339Y-76783440D01*
X138976427Y-76772964D01*
X138930055Y-76919667D01*
X138887855Y-77130213D01*
X138861773Y-77398576D01*
X138860167Y-77454242D01*
X138872074Y-77597335D01*
X138949569Y-77628192D01*
X139140657Y-77577636D01*
X139364947Y-77536457D01*
X139608815Y-77541957D01*
X139795117Y-77593532D01*
X139869334Y-77683280D01*
X139861662Y-77700986D01*
X139746213Y-77747628D01*
X139536179Y-77766334D01*
X139234977Y-77787978D01*
X138870776Y-77910731D01*
X138539201Y-78165685D01*
X138474825Y-78230068D01*
X138303927Y-78442341D01*
X138236260Y-78651214D01*
X137981787Y-78651214D01*
X137967861Y-78549750D01*
X137991506Y-78312445D01*
X138091334Y-78207101D01*
X138151780Y-78183658D01*
X138363649Y-78035569D01*
X138531220Y-77832753D01*
X138599334Y-77637098D01*
X138609131Y-77543753D01*
X138653824Y-77299500D01*
X138726414Y-76965772D01*
X138817768Y-76586502D01*
X138913342Y-76196094D01*
X138967466Y-75932356D01*
X138982458Y-75764030D01*
X138961330Y-75657118D01*
X138907090Y-75577623D01*
X138772577Y-75388642D01*
X138605151Y-75046138D01*
X138481164Y-74675097D01*
X138431860Y-74355843D01*
X138436702Y-74264071D01*
X138604040Y-74264071D01*
X138649493Y-74338405D01*
X138814356Y-74401031D01*
X138956289Y-74408432D01*
X138998224Y-74347401D01*
X138943260Y-74285622D01*
X138783202Y-74225612D01*
X138685632Y-74221018D01*
X138604040Y-74264071D01*
X138436702Y-74264071D01*
X138439283Y-74215164D01*
X138513379Y-74026374D01*
X138675150Y-73979595D01*
X138934763Y-74069028D01*
X139192000Y-74197355D01*
X139192000Y-73875545D01*
X139192062Y-73864626D01*
X139196159Y-73837309D01*
X139361334Y-73837309D01*
X139363909Y-73917674D01*
X139404097Y-74000783D01*
X139413160Y-73997677D01*
X140948455Y-73997677D01*
X140984356Y-74090349D01*
X141136988Y-74250419D01*
X141171588Y-74285719D01*
X141346352Y-74532477D01*
X141446139Y-74786710D01*
X141482420Y-74948249D01*
X141524859Y-75004958D01*
X141584389Y-74930512D01*
X141619601Y-74751892D01*
X141608852Y-74683056D01*
X141992685Y-74683056D01*
X142006243Y-74766279D01*
X142043837Y-74734209D01*
X142057365Y-74685248D01*
X142037153Y-74571931D01*
X142008251Y-74573242D01*
X141992685Y-74683056D01*
X141608852Y-74683056D01*
X141577995Y-74485458D01*
X141470052Y-74213819D01*
X141315485Y-74004838D01*
X141186423Y-73919647D01*
X141017129Y-73931642D01*
X141014511Y-73933117D01*
X140948455Y-73997677D01*
X139413160Y-73997677D01*
X139525101Y-73959313D01*
X139615979Y-73927550D01*
X139858137Y-73887374D01*
X140150226Y-73871667D01*
X140275931Y-73870493D01*
X140494564Y-73852000D01*
X140606876Y-73798839D01*
X140633488Y-73744667D01*
X140800667Y-73744667D01*
X140843000Y-73787000D01*
X140885334Y-73744667D01*
X140843000Y-73702334D01*
X140800667Y-73744667D01*
X140633488Y-73744667D01*
X140657665Y-73695453D01*
X140667885Y-73609386D01*
X140602769Y-73498956D01*
X140405660Y-73394691D01*
X140302420Y-73354200D01*
X140073554Y-73302952D01*
X139951025Y-73362609D01*
X139913504Y-73539444D01*
X139874800Y-73695132D01*
X139742334Y-73761170D01*
X139721167Y-73771722D01*
X139589787Y-73765042D01*
X139530667Y-73660892D01*
X139517597Y-73595598D01*
X139446000Y-73575334D01*
X139700000Y-73575334D01*
X139742334Y-73617667D01*
X139784667Y-73575334D01*
X139742334Y-73533000D01*
X139700000Y-73575334D01*
X139446000Y-73575334D01*
X139392126Y-73656862D01*
X139361334Y-73837309D01*
X139196159Y-73837309D01*
X139230409Y-73608955D01*
X139323892Y-73444274D01*
X139449171Y-73290768D01*
X139540606Y-73121231D01*
X139741496Y-73121231D01*
X139777971Y-73164037D01*
X139945280Y-73141045D01*
X139964057Y-73137732D01*
X140257968Y-73159922D01*
X140609029Y-73284751D01*
X140972809Y-73484119D01*
X141304879Y-73729924D01*
X141560811Y-73994068D01*
X141696174Y-74248448D01*
X141709269Y-74292829D01*
X141795845Y-74395746D01*
X141979373Y-74398700D01*
X142035577Y-74391917D01*
X142191253Y-74416591D01*
X142264613Y-74549308D01*
X142286303Y-74779397D01*
X142201671Y-74926598D01*
X142012476Y-74948580D01*
X142006243Y-74948419D01*
X141885846Y-74945305D01*
X141768374Y-75026726D01*
X141643444Y-75233958D01*
X141630706Y-75258930D01*
X141524859Y-75475875D01*
X141520650Y-75484502D01*
X141497863Y-75590695D01*
X141572112Y-75606682D01*
X141753167Y-75561636D01*
X141834768Y-75531942D01*
X142110958Y-75352942D01*
X142381378Y-75084687D01*
X142598256Y-74780319D01*
X142713821Y-74492979D01*
X142740527Y-74093342D01*
X142642839Y-73595676D01*
X142415733Y-73145221D01*
X142080288Y-72770976D01*
X141657584Y-72501944D01*
X141168698Y-72367127D01*
X140770474Y-72357079D01*
X140439700Y-72445772D01*
X140127951Y-72653108D01*
X140086634Y-72688908D01*
X139900111Y-72875070D01*
X139780691Y-73032430D01*
X139741496Y-73121231D01*
X139540606Y-73121231D01*
X139566039Y-73074074D01*
X139789667Y-72706053D01*
X140154200Y-72375909D01*
X140285448Y-72313148D01*
X141746131Y-72313148D01*
X141801626Y-72347667D01*
X141856007Y-72359647D01*
X142035444Y-72472152D01*
X142255411Y-72671655D01*
X142479479Y-72919376D01*
X142671218Y-73176533D01*
X142794201Y-73404345D01*
X142881339Y-73740666D01*
X142904486Y-74236443D01*
X142898803Y-74427709D01*
X142913816Y-74606710D01*
X142951345Y-74655177D01*
X143017548Y-74655319D01*
X143132416Y-74751020D01*
X143202306Y-74826495D01*
X143261001Y-74796346D01*
X143331238Y-74624321D01*
X143407769Y-74303280D01*
X143404887Y-73877673D01*
X143293232Y-73372901D01*
X143260537Y-73265993D01*
X143184844Y-73066475D01*
X143117996Y-72996196D01*
X143040311Y-73028339D01*
X142959814Y-73072863D01*
X142791412Y-73079463D01*
X142719035Y-73026588D01*
X142665874Y-72887546D01*
X142693687Y-72749134D01*
X142800701Y-72686334D01*
X142887962Y-72667488D01*
X142877905Y-72600864D01*
X142758684Y-72504991D01*
X142556599Y-72399806D01*
X142297947Y-72305242D01*
X142219918Y-72283037D01*
X141930624Y-72229029D01*
X141783159Y-72262642D01*
X141746131Y-72313148D01*
X140285448Y-72313148D01*
X140598168Y-72163610D01*
X141081722Y-72094900D01*
X141111358Y-72095396D01*
X141452523Y-72082889D01*
X141783035Y-72046687D01*
X141971512Y-72034010D01*
X142388825Y-72110860D01*
X142781910Y-72307915D01*
X143091449Y-72600086D01*
X143254496Y-72798263D01*
X143490202Y-73060406D01*
X143744947Y-73326478D01*
X143960899Y-73558416D01*
X144240573Y-73946926D01*
X144394335Y-74329353D01*
X144441334Y-74744693D01*
X144455020Y-74929338D01*
X144517065Y-75272091D01*
X144612238Y-75611901D01*
X144637747Y-75690455D01*
X144738576Y-76139218D01*
X144768388Y-76560192D01*
X144769075Y-76769128D01*
X144816191Y-77038557D01*
X144936150Y-77258609D01*
X144993392Y-77338423D01*
X145099524Y-77533152D01*
X145086203Y-77661608D01*
X144954900Y-77763355D01*
X144672091Y-77842066D01*
X144617159Y-77838799D01*
X144294589Y-77819616D01*
X143896565Y-77688095D01*
X143841469Y-77662259D01*
X143648130Y-77575118D01*
X143565968Y-77538087D01*
X143991173Y-77538087D01*
X144139265Y-77594078D01*
X144379898Y-77634612D01*
X144617159Y-77641304D01*
X144771527Y-77607120D01*
X144820758Y-77564952D01*
X144826582Y-77472581D01*
X144720510Y-77313443D01*
X144714653Y-77306080D01*
X144574700Y-77178093D01*
X144474983Y-77172828D01*
X144352560Y-77261056D01*
X144159862Y-77371150D01*
X144139879Y-77381747D01*
X144007086Y-77475745D01*
X143991173Y-77538087D01*
X143565968Y-77538087D01*
X143526626Y-77520355D01*
X143233738Y-77395623D01*
X143206416Y-77384018D01*
X142917540Y-77185777D01*
X142655493Y-76848372D01*
X142550065Y-76697017D01*
X142358386Y-76476680D01*
X142663334Y-76476680D01*
X142682359Y-76544238D01*
X142784197Y-76722083D01*
X142936091Y-76929678D01*
X143094628Y-77109826D01*
X143216394Y-77205331D01*
X143221989Y-77207393D01*
X143405770Y-77243441D01*
X143648130Y-77258334D01*
X143697212Y-77257549D01*
X144092514Y-77178512D01*
X144377173Y-76978651D01*
X144544068Y-76670391D01*
X144586081Y-76266157D01*
X144496093Y-75778373D01*
X144394533Y-75441413D01*
X144193971Y-75765929D01*
X143899318Y-76120779D01*
X143523064Y-76339406D01*
X143065500Y-76411351D01*
X142932510Y-76415130D01*
X142846151Y-76425670D01*
X142739288Y-76438712D01*
X142663334Y-76476680D01*
X142358386Y-76476680D01*
X142291213Y-76399464D01*
X142179406Y-76300708D01*
X142025242Y-76164539D01*
X141943675Y-76105962D01*
X142353273Y-76105962D01*
X142361807Y-76152366D01*
X142520206Y-76201352D01*
X142580200Y-76213627D01*
X142846151Y-76233361D01*
X143140475Y-76220119D01*
X143504158Y-76114935D01*
X143831040Y-75877940D01*
X144072048Y-75543575D01*
X144216505Y-75142602D01*
X144253737Y-74705782D01*
X144173068Y-74263874D01*
X143963823Y-73847641D01*
X143860739Y-73705819D01*
X143705127Y-73528069D01*
X143613982Y-73501838D01*
X143576327Y-73628950D01*
X143581183Y-73911228D01*
X143584439Y-73978129D01*
X143527850Y-74580838D01*
X143320457Y-75127918D01*
X143202306Y-75285836D01*
X142971175Y-75594761D01*
X142817657Y-75742665D01*
X142604394Y-75930028D01*
X142451667Y-76042743D01*
X142353273Y-76105962D01*
X141943675Y-76105962D01*
X141654639Y-75898392D01*
X141826528Y-76387863D01*
X141834321Y-76410451D01*
X141959905Y-76943973D01*
X142013375Y-77568131D01*
X142024132Y-77867044D01*
X142050928Y-78121093D01*
X142099514Y-78270881D01*
X142177465Y-78352618D01*
X142181031Y-78354838D01*
X142339229Y-78398058D01*
X142526910Y-78315056D01*
X142537185Y-78308360D01*
X142905023Y-78123690D01*
X143264804Y-78065162D01*
X143640710Y-78137306D01*
X144056923Y-78344651D01*
X144537624Y-78691727D01*
X144595084Y-78737951D01*
X145049616Y-79113406D01*
X145382608Y-79418315D01*
X145608616Y-79677955D01*
X145742193Y-79917608D01*
X145797896Y-80162551D01*
X145790279Y-80438065D01*
X145733896Y-80769428D01*
X145722163Y-80828569D01*
X145689682Y-81106335D01*
X145715027Y-81369901D01*
X145804560Y-81703334D01*
X145907845Y-82108438D01*
X145962705Y-82598593D01*
X145923286Y-83005623D01*
X145789855Y-83300582D01*
X145779351Y-83313704D01*
X145629282Y-83462430D01*
X145508281Y-83523667D01*
X145501169Y-83524085D01*
X145369226Y-83589585D01*
X145205642Y-83732877D01*
X144997019Y-83898534D01*
X144746384Y-84018732D01*
X144688421Y-84035719D01*
X144501792Y-84091102D01*
X144410891Y-84118078D01*
X144115018Y-84206983D01*
X143950097Y-84253110D01*
X143938666Y-84254341D01*
X143769232Y-84272589D01*
X143595377Y-84224556D01*
G37*
G36*
X143998130Y-81970038D02*
G01*
X143967866Y-81872667D01*
X144187334Y-81872667D01*
X144229667Y-81915000D01*
X144272000Y-81872667D01*
X144229667Y-81830334D01*
X144187334Y-81872667D01*
X143967866Y-81872667D01*
X143941747Y-81788635D01*
X144000697Y-81644819D01*
X144140661Y-81590382D01*
X144319498Y-81665286D01*
X144398163Y-81763583D01*
X144429506Y-81928296D01*
X144369084Y-82059905D01*
X144229667Y-82097038D01*
X144127108Y-82064983D01*
X143998130Y-81970038D01*
G37*
G36*
X143978324Y-77004334D02*
G01*
X143932571Y-77003137D01*
X143797804Y-76952302D01*
X143764000Y-76790010D01*
X143765829Y-76750334D01*
X143933334Y-76750334D01*
X143936779Y-76773540D01*
X144022997Y-76835000D01*
X144053621Y-76828353D01*
X144060334Y-76750334D01*
X144042956Y-76724996D01*
X143970670Y-76665667D01*
X143962221Y-76667868D01*
X143933334Y-76750334D01*
X143765829Y-76750334D01*
X143765902Y-76748749D01*
X143840932Y-76571106D01*
X143989671Y-76515693D01*
X144163143Y-76605191D01*
X144189863Y-76634693D01*
X144252796Y-76807397D01*
X144174724Y-76946937D01*
X144022997Y-76991279D01*
X143978324Y-77004334D01*
G37*
G36*
X138789834Y-78513056D02*
G01*
X138738551Y-78518388D01*
X138626974Y-78481132D01*
X138599334Y-78322556D01*
X138599510Y-78316667D01*
X138768667Y-78316667D01*
X138811000Y-78359000D01*
X138853334Y-78316667D01*
X138811000Y-78274334D01*
X138768667Y-78316667D01*
X138599510Y-78316667D01*
X138600940Y-78268746D01*
X138653171Y-78137449D01*
X138816889Y-78105000D01*
X138875213Y-78106709D01*
X138996033Y-78153207D01*
X139007389Y-78295500D01*
X138961000Y-78416641D01*
X138811000Y-78501134D01*
X138789834Y-78513056D01*
G37*
G36*
X141410350Y-73285283D02*
G01*
X141411490Y-73248022D01*
X141577644Y-73248022D01*
X141647334Y-73279000D01*
X141692156Y-73272890D01*
X141703778Y-73222556D01*
X141691369Y-73212423D01*
X141590889Y-73222556D01*
X141577644Y-73248022D01*
X141411490Y-73248022D01*
X141415786Y-73107677D01*
X141539267Y-72987118D01*
X141551701Y-72982950D01*
X141709867Y-73011055D01*
X141844449Y-73147718D01*
X141901334Y-73340173D01*
X141901334Y-73340426D01*
X141834903Y-73468004D01*
X141683726Y-73510361D01*
X141647334Y-73496438D01*
X141519256Y-73447439D01*
X141410350Y-73285283D01*
G37*
G36*
X140006873Y-75420318D02*
G01*
X139977260Y-75355722D01*
X139972904Y-75226334D01*
X140123334Y-75226334D01*
X140125794Y-75246571D01*
X140208000Y-75311000D01*
X140228238Y-75308540D01*
X140292667Y-75226334D01*
X140290207Y-75206096D01*
X140208000Y-75141667D01*
X140187763Y-75144127D01*
X140123334Y-75226334D01*
X139972904Y-75226334D01*
X139971596Y-75187485D01*
X140029737Y-75064319D01*
X140208000Y-75014667D01*
X140255149Y-75016214D01*
X140392546Y-75073097D01*
X140446458Y-75247500D01*
X140453280Y-75339263D01*
X140414862Y-75453625D01*
X140270069Y-75480334D01*
X140208000Y-75474508D01*
X140130752Y-75467258D01*
X140006873Y-75420318D01*
G37*
G36*
X140299051Y-75989402D02*
G01*
X140323120Y-76116831D01*
X140217818Y-76237080D01*
X140118313Y-76272905D01*
X139965913Y-76220379D01*
X139901876Y-76125645D01*
X139927409Y-75994977D01*
X140098023Y-75920357D01*
X140169851Y-75918877D01*
X140299051Y-75989402D01*
G37*
G36*
X140938851Y-78045629D02*
G01*
X140892112Y-77918433D01*
X140904191Y-77893334D01*
X141054667Y-77893334D01*
X141097000Y-77935667D01*
X141139334Y-77893334D01*
X141097000Y-77851000D01*
X141054667Y-77893334D01*
X140904191Y-77893334D01*
X140960140Y-77777076D01*
X141119032Y-77696945D01*
X141169500Y-77691660D01*
X141280983Y-77728845D01*
X141308667Y-77887445D01*
X141276215Y-78048501D01*
X141153445Y-78105000D01*
X141097000Y-78099627D01*
X141066215Y-78096697D01*
X140938851Y-78045629D01*
G37*
G36*
X144632337Y-83691686D02*
G01*
X144497778Y-83636556D01*
X144463220Y-83560365D01*
X144448282Y-83439000D01*
X144610667Y-83439000D01*
X144614113Y-83462207D01*
X144700331Y-83523667D01*
X144730954Y-83517019D01*
X144737667Y-83439000D01*
X144720290Y-83413663D01*
X144648004Y-83354334D01*
X144639554Y-83356535D01*
X144610667Y-83439000D01*
X144448282Y-83439000D01*
X144441334Y-83382556D01*
X144441407Y-83372400D01*
X144486356Y-83224770D01*
X144643942Y-83185000D01*
X144736106Y-83196862D01*
X144894391Y-83321806D01*
X144949334Y-83572925D01*
X144927704Y-83622834D01*
X144802058Y-83683390D01*
X144700331Y-83688362D01*
X144632337Y-83691686D01*
G37*
%TO.C,WAFFLE*%
G36*
X158759483Y-109080522D02*
G01*
X158756107Y-109792782D01*
X158799872Y-110435748D01*
X158890868Y-111009783D01*
X159029184Y-111515250D01*
X159214909Y-111952512D01*
X159448134Y-112321931D01*
X159728948Y-112623869D01*
X160057440Y-112858690D01*
X160433700Y-113026755D01*
X160563173Y-113069219D01*
X160670595Y-113102085D01*
X160721989Y-113114667D01*
X160723362Y-113114118D01*
X160695107Y-113086741D01*
X160613551Y-113026279D01*
X160493941Y-112944135D01*
X160395119Y-112870763D01*
X160292567Y-112794621D01*
X159967094Y-112478460D01*
X159693919Y-112112130D01*
X159481100Y-111709401D01*
X159463993Y-111659012D01*
X159729506Y-111659012D01*
X159775597Y-111775346D01*
X159874485Y-111952991D01*
X159901232Y-111996537D01*
X160013136Y-112159917D01*
X160127401Y-112302198D01*
X160235102Y-112415654D01*
X160327316Y-112492561D01*
X160395119Y-112525196D01*
X160429589Y-112505834D01*
X160421800Y-112426750D01*
X160379999Y-112304275D01*
X160269239Y-112076082D01*
X160131556Y-111874477D01*
X159984960Y-111728255D01*
X159911104Y-111675081D01*
X159816030Y-111614323D01*
X159762710Y-111590667D01*
X159735007Y-111600088D01*
X159729506Y-111659012D01*
X159463993Y-111659012D01*
X159336691Y-111284045D01*
X159268750Y-110849834D01*
X159258759Y-110689343D01*
X159599643Y-110689343D01*
X159613950Y-110800056D01*
X159670750Y-110879402D01*
X159676868Y-110884533D01*
X159755292Y-110943601D01*
X159877568Y-111029890D01*
X160020000Y-111126625D01*
X160302373Y-111336842D01*
X160605573Y-111637077D01*
X160833296Y-111968559D01*
X160989215Y-112336917D01*
X161077003Y-112747786D01*
X161077359Y-112750588D01*
X161099065Y-112898431D01*
X161120852Y-113010059D01*
X161138055Y-113061499D01*
X161138977Y-113062387D01*
X161190980Y-113059471D01*
X161268558Y-112988386D01*
X161365998Y-112859327D01*
X161477588Y-112682485D01*
X161597614Y-112468055D01*
X161720363Y-112226229D01*
X161840123Y-111967202D01*
X161951179Y-111701165D01*
X162047819Y-111438313D01*
X162074840Y-111355824D01*
X162150373Y-111097341D01*
X162223735Y-110809902D01*
X162291184Y-110511834D01*
X162348982Y-110221466D01*
X162393388Y-109957124D01*
X162420663Y-109737138D01*
X162427065Y-109579834D01*
X162422885Y-109507745D01*
X162415920Y-109494531D01*
X162415073Y-109498581D01*
X162402506Y-109558667D01*
X162371929Y-109727244D01*
X162310068Y-110050683D01*
X162255008Y-110307499D01*
X162203523Y-110509638D01*
X162152387Y-110669044D01*
X162098374Y-110797664D01*
X162038259Y-110907442D01*
X162030017Y-110921017D01*
X161939615Y-111087178D01*
X161843208Y-111288637D01*
X161760320Y-111484834D01*
X161759955Y-111485776D01*
X161657140Y-111717502D01*
X161540544Y-111924967D01*
X161420168Y-112094110D01*
X161306015Y-112210870D01*
X161208085Y-112261188D01*
X161164952Y-112265577D01*
X161133499Y-112253548D01*
X161120266Y-112206975D01*
X161121304Y-112109231D01*
X161132662Y-111943688D01*
X161156441Y-111747453D01*
X161198499Y-111529363D01*
X161248711Y-111347185D01*
X161273509Y-111278883D01*
X161342462Y-111133372D01*
X161435188Y-111012392D01*
X161575871Y-110881518D01*
X161680619Y-110780484D01*
X161872591Y-110514979D01*
X162015412Y-110193087D01*
X162104692Y-109826216D01*
X162136041Y-109425774D01*
X162136036Y-109410500D01*
X162433000Y-109410500D01*
X162454167Y-109431667D01*
X162475334Y-109410500D01*
X162454167Y-109389334D01*
X162433000Y-109410500D01*
X162136036Y-109410500D01*
X162136032Y-109398401D01*
X162128923Y-109231084D01*
X162100461Y-109111463D01*
X162038044Y-109028575D01*
X161929068Y-108971451D01*
X161760932Y-108929128D01*
X161521032Y-108890638D01*
X161366771Y-108870905D01*
X161179367Y-108853578D01*
X161029738Y-108847277D01*
X160940750Y-108853469D01*
X160867149Y-108881831D01*
X160832153Y-108937715D01*
X160824334Y-109048670D01*
X160829370Y-109122288D01*
X160858759Y-109219447D01*
X160924504Y-109331217D01*
X161037981Y-109480602D01*
X161106489Y-109568299D01*
X161192233Y-109694514D01*
X161233170Y-109790361D01*
X161239064Y-109874990D01*
X161225115Y-109950357D01*
X161180079Y-109998068D01*
X161078334Y-110017422D01*
X161038655Y-110019620D01*
X160849301Y-109981543D01*
X160671632Y-109861187D01*
X160504091Y-109657576D01*
X160425976Y-109550653D01*
X160347351Y-109464649D01*
X160294553Y-109431667D01*
X160236458Y-109449068D01*
X160162693Y-109514253D01*
X160074235Y-109635113D01*
X159965559Y-109819316D01*
X159831137Y-110074531D01*
X159830115Y-110076541D01*
X159705883Y-110336832D01*
X159629673Y-110538017D01*
X159599643Y-110689343D01*
X159258759Y-110689343D01*
X159247667Y-110511167D01*
X159487404Y-110130167D01*
X159647425Y-109867392D01*
X159967269Y-109284125D01*
X160242487Y-108698418D01*
X160465215Y-108127797D01*
X160603989Y-107667974D01*
X160910859Y-107667974D01*
X160929843Y-107758755D01*
X160974809Y-107888408D01*
X161030379Y-108015707D01*
X161081235Y-108101662D01*
X161116709Y-108137312D01*
X161259496Y-108228815D01*
X161458228Y-108310560D01*
X161692167Y-108373325D01*
X161794631Y-108396689D01*
X161993675Y-108450952D01*
X162167870Y-108508061D01*
X162319875Y-108556756D01*
X162415073Y-108562128D01*
X162462330Y-108518994D01*
X162474756Y-108423752D01*
X162474733Y-108420187D01*
X162455549Y-108245755D01*
X162394777Y-108131067D01*
X162282750Y-108057692D01*
X162230004Y-108034490D01*
X162155203Y-107992008D01*
X162097366Y-107936991D01*
X162053950Y-107859134D01*
X162022414Y-107748135D01*
X162000214Y-107593689D01*
X161984810Y-107385492D01*
X161973658Y-107113240D01*
X161964216Y-106766630D01*
X161958635Y-106556181D01*
X161947414Y-106241104D01*
X161933403Y-105996415D01*
X161915209Y-105812960D01*
X161891440Y-105681586D01*
X161860703Y-105593138D01*
X161821604Y-105538464D01*
X161772750Y-105508409D01*
X161771692Y-105508016D01*
X161688454Y-105510483D01*
X161585667Y-105551827D01*
X161569028Y-105560807D01*
X161516435Y-105578253D01*
X161438616Y-105604066D01*
X161294052Y-105621667D01*
X161272323Y-105621891D01*
X161159542Y-105639811D01*
X161112595Y-105696784D01*
X161117600Y-105807423D01*
X161119365Y-105828646D01*
X161116933Y-105931687D01*
X161106421Y-106093334D01*
X161089594Y-106295612D01*
X161068213Y-106520543D01*
X161044044Y-106750148D01*
X161018849Y-106966450D01*
X160994392Y-107151471D01*
X160972436Y-107287233D01*
X160965135Y-107325786D01*
X160936909Y-107483296D01*
X160917537Y-107605277D01*
X160910859Y-107667974D01*
X160603989Y-107667974D01*
X160627585Y-107589789D01*
X160694918Y-107306269D01*
X160753890Y-107004833D01*
X160792704Y-106717026D01*
X160813727Y-106418444D01*
X160819329Y-106084682D01*
X160811879Y-105691335D01*
X160802963Y-105446439D01*
X160788418Y-105189722D01*
X160766908Y-104954828D01*
X160735659Y-104727146D01*
X160691898Y-104492066D01*
X160632853Y-104234975D01*
X160555749Y-103941264D01*
X160457814Y-103596322D01*
X160336275Y-103185538D01*
X160199672Y-102721049D01*
X160038130Y-102143446D01*
X159908563Y-101641807D01*
X159811029Y-101216455D01*
X159745585Y-100867714D01*
X159744681Y-100860331D01*
X159982042Y-100860331D01*
X159982470Y-100867733D01*
X159986875Y-100911802D01*
X159996696Y-100970423D01*
X160014553Y-101054835D01*
X160043070Y-101176277D01*
X160084868Y-101345988D01*
X160142569Y-101575205D01*
X160218795Y-101875167D01*
X160286370Y-102132484D01*
X160371854Y-102444015D01*
X160459664Y-102752444D01*
X160538716Y-103018167D01*
X160607808Y-103246500D01*
X160688036Y-103518065D01*
X160762848Y-103777289D01*
X160822260Y-103989957D01*
X160936832Y-104411413D01*
X161166333Y-104570969D01*
X161188913Y-104586431D01*
X161374696Y-104691283D01*
X161516435Y-104726987D01*
X161612125Y-104694138D01*
X161659763Y-104593330D01*
X161657342Y-104425160D01*
X161651416Y-104391845D01*
X161612497Y-104250007D01*
X161545694Y-104056122D01*
X161455302Y-103819499D01*
X161345615Y-103549448D01*
X161220927Y-103255280D01*
X161085532Y-102946303D01*
X160943725Y-102631828D01*
X160799800Y-102321164D01*
X160658050Y-102023621D01*
X160522771Y-101748510D01*
X160398256Y-101505139D01*
X160288800Y-101302820D01*
X160198697Y-101150860D01*
X160132241Y-101058571D01*
X160093726Y-101035262D01*
X160074488Y-101043197D01*
X160079412Y-101013949D01*
X160082523Y-100956852D01*
X160043620Y-100870989D01*
X160005909Y-100819378D01*
X159983310Y-100806691D01*
X159982042Y-100860331D01*
X159744681Y-100860331D01*
X159712291Y-100595908D01*
X159711205Y-100401360D01*
X159742385Y-100284394D01*
X159805890Y-100245334D01*
X159810218Y-100245432D01*
X159883258Y-100272365D01*
X159971191Y-100350147D01*
X160077005Y-100483311D01*
X160203689Y-100676389D01*
X160354231Y-100933916D01*
X160531620Y-101260422D01*
X160738843Y-101660442D01*
X161055342Y-102300461D01*
X161454412Y-103176089D01*
X161793269Y-104013960D01*
X162074863Y-104823623D01*
X162302142Y-105614626D01*
X162478054Y-106396519D01*
X162605550Y-107178850D01*
X162687576Y-107971167D01*
X162702240Y-108206420D01*
X162706362Y-109046252D01*
X162637220Y-109883234D01*
X162496634Y-110701412D01*
X162454167Y-110859683D01*
X162286427Y-111484834D01*
X162253658Y-111581383D01*
X162136196Y-111877861D01*
X161988302Y-112199593D01*
X161819674Y-112529040D01*
X161640011Y-112848661D01*
X161459009Y-113140915D01*
X161286368Y-113388263D01*
X161138977Y-113564562D01*
X161131786Y-113573163D01*
X161107111Y-113610520D01*
X161105652Y-113674954D01*
X161113804Y-113692759D01*
X161091754Y-113694461D01*
X161058815Y-113699483D01*
X160981072Y-113750961D01*
X160884130Y-113840169D01*
X160615144Y-114088419D01*
X160243666Y-114363916D01*
X160239012Y-114367368D01*
X159833106Y-114607080D01*
X159427334Y-114788094D01*
X159166499Y-114861627D01*
X158876900Y-114907085D01*
X158834530Y-114913736D01*
X158485573Y-114934044D01*
X158150706Y-114920875D01*
X157861000Y-114872554D01*
X157493274Y-114745763D01*
X157085408Y-114528530D01*
X156708331Y-114244062D01*
X156376228Y-113901635D01*
X156316393Y-113830064D01*
X156251349Y-113748093D01*
X156209503Y-113676108D01*
X156189860Y-113598629D01*
X156191427Y-113500175D01*
X156213209Y-113365267D01*
X156237228Y-113255820D01*
X156521297Y-113255820D01*
X156569559Y-113340149D01*
X156686675Y-113386477D01*
X156781312Y-113406392D01*
X156907724Y-113432779D01*
X156977978Y-113460370D01*
X157086620Y-113528600D01*
X157194731Y-113615422D01*
X157277900Y-113700784D01*
X157311717Y-113764636D01*
X157313940Y-113780133D01*
X157356480Y-113869596D01*
X157437649Y-113984425D01*
X157537186Y-114100473D01*
X157634830Y-114193598D01*
X157710321Y-114239652D01*
X157782882Y-114244866D01*
X157910453Y-114198179D01*
X157982534Y-114155654D01*
X158061784Y-114137505D01*
X158157921Y-114153289D01*
X158289439Y-114206342D01*
X158474834Y-114300000D01*
X158696609Y-114405724D01*
X158876900Y-114461741D01*
X159013824Y-114461502D01*
X159117677Y-114404887D01*
X159198751Y-114291781D01*
X159237264Y-114191567D01*
X159237699Y-114033209D01*
X159158856Y-113893222D01*
X159003601Y-113775712D01*
X158774803Y-113684783D01*
X158678191Y-113653128D01*
X158486690Y-113556789D01*
X158367620Y-113438711D01*
X158326667Y-113303728D01*
X158338469Y-113222509D01*
X158375899Y-113084797D01*
X158430058Y-112931387D01*
X158480743Y-112798960D01*
X158543682Y-112597463D01*
X158564357Y-112432779D01*
X158538069Y-112286877D01*
X158460120Y-112141728D01*
X158325813Y-111979302D01*
X158130450Y-111781569D01*
X158068274Y-111720827D01*
X157935274Y-111586926D01*
X157850064Y-111490038D01*
X157802186Y-111415053D01*
X157781182Y-111346864D01*
X157776595Y-111270362D01*
X157776866Y-111255111D01*
X157797270Y-111108659D01*
X157840095Y-110982578D01*
X157896835Y-110814628D01*
X157883516Y-110682234D01*
X158331879Y-110682234D01*
X158356998Y-110834023D01*
X158416025Y-111020681D01*
X158511726Y-111255053D01*
X158646865Y-111549981D01*
X158764059Y-111813360D01*
X158872742Y-112112206D01*
X158937364Y-112377159D01*
X158955850Y-112473048D01*
X159015971Y-112695769D01*
X159103642Y-112907220D01*
X159229754Y-113130993D01*
X159405197Y-113390685D01*
X159613805Y-113645358D01*
X159823949Y-113822168D01*
X160033233Y-113915413D01*
X160243666Y-113925580D01*
X160457256Y-113853156D01*
X160676012Y-113698626D01*
X160760875Y-113620312D01*
X160837237Y-113540633D01*
X160866667Y-113496443D01*
X160849183Y-113479621D01*
X160767829Y-113435557D01*
X160635235Y-113375593D01*
X160468193Y-113307685D01*
X160400582Y-113280964D01*
X160006873Y-113098050D01*
X159681531Y-112890134D01*
X159411092Y-112645355D01*
X159182090Y-112351854D01*
X158981061Y-111997770D01*
X158888886Y-111789916D01*
X158795392Y-111539326D01*
X158711274Y-111276601D01*
X158643081Y-111023983D01*
X158597362Y-110803712D01*
X158580667Y-110638031D01*
X158573883Y-110506142D01*
X158553995Y-110372463D01*
X158526141Y-110274216D01*
X158495532Y-110236000D01*
X158489112Y-110238068D01*
X158446916Y-110286798D01*
X158394991Y-110379982D01*
X158372307Y-110431896D01*
X158337903Y-110552473D01*
X158331879Y-110682234D01*
X157883516Y-110682234D01*
X157881719Y-110664372D01*
X157795103Y-110548503D01*
X157642441Y-110474112D01*
X157429186Y-110448291D01*
X157374284Y-110449464D01*
X157207622Y-110472050D01*
X157156949Y-110495302D01*
X157079693Y-110530753D01*
X156983736Y-110635252D01*
X156912988Y-110795230D01*
X156860687Y-111020368D01*
X156820070Y-111320347D01*
X156793719Y-111539472D01*
X156751459Y-111846170D01*
X156703572Y-112159398D01*
X156656194Y-112437334D01*
X156648111Y-112481498D01*
X156607973Y-112700551D01*
X156572115Y-112895856D01*
X156544184Y-113047565D01*
X156527827Y-113135834D01*
X156521297Y-113255820D01*
X156237228Y-113255820D01*
X156254213Y-113178424D01*
X156313442Y-112924167D01*
X156355782Y-112734371D01*
X156518431Y-111801293D01*
X156616241Y-110833221D01*
X156649095Y-109846374D01*
X156616874Y-108856968D01*
X156528316Y-107969897D01*
X156775485Y-107969897D01*
X156801347Y-108225167D01*
X156816554Y-108345089D01*
X156834370Y-108528671D01*
X156852004Y-108747114D01*
X156867231Y-108975063D01*
X156870025Y-109020933D01*
X156888671Y-109262351D01*
X156911121Y-109436378D01*
X156939833Y-109557902D01*
X156977265Y-109641813D01*
X157041083Y-109719390D01*
X157156949Y-109772741D01*
X157283922Y-109747773D01*
X157409099Y-109644409D01*
X157414511Y-109637920D01*
X157497746Y-109515362D01*
X157556900Y-109369678D01*
X157598213Y-109180412D01*
X157627926Y-108927106D01*
X157645169Y-108779909D01*
X157715715Y-108467506D01*
X157825141Y-108217298D01*
X157970393Y-108037221D01*
X158062668Y-107960552D01*
X158142901Y-107916859D01*
X158206986Y-107926867D01*
X158278679Y-107986679D01*
X158334069Y-108068419D01*
X158380896Y-108249348D01*
X158385914Y-108499973D01*
X158348914Y-108817834D01*
X158332928Y-108918691D01*
X158300065Y-109176061D01*
X158287042Y-109377302D01*
X158294168Y-109513764D01*
X158321754Y-109576797D01*
X158347064Y-109572790D01*
X158391019Y-109508982D01*
X158435244Y-109392330D01*
X158471556Y-109241167D01*
X158478197Y-109196431D01*
X158493670Y-109067602D01*
X158513604Y-108882906D01*
X158536142Y-108659782D01*
X158559429Y-108415667D01*
X158564975Y-108357166D01*
X158598681Y-108035673D01*
X158640381Y-107678345D01*
X158685302Y-107324701D01*
X158728672Y-107014259D01*
X158734536Y-106974697D01*
X158795202Y-106543633D01*
X158838265Y-106191432D01*
X158863668Y-105918872D01*
X158871354Y-105726733D01*
X158861266Y-105615793D01*
X158833347Y-105586829D01*
X158808931Y-105596640D01*
X158724360Y-105667538D01*
X158659410Y-105795445D01*
X158610589Y-105989417D01*
X158574408Y-106258506D01*
X158551611Y-106457687D01*
X158509406Y-106683449D01*
X158445211Y-106845220D01*
X158346541Y-106955239D01*
X158200911Y-107025743D01*
X157995834Y-107068971D01*
X157718826Y-107097162D01*
X157618840Y-107106004D01*
X157347443Y-107145746D01*
X157141512Y-107206695D01*
X156987363Y-107293944D01*
X156957715Y-107324253D01*
X156871309Y-107412587D01*
X156813098Y-107542290D01*
X156779980Y-107735561D01*
X156775485Y-107969897D01*
X156528316Y-107969897D01*
X156519463Y-107881222D01*
X156356744Y-106935354D01*
X156328444Y-106803905D01*
X156268182Y-106541187D01*
X156201061Y-106272950D01*
X156123550Y-105986800D01*
X156032119Y-105670342D01*
X155932309Y-105341101D01*
X156213052Y-105341101D01*
X156214388Y-105361340D01*
X156235056Y-105480747D01*
X156276027Y-105652371D01*
X156331509Y-105857009D01*
X156395711Y-106075457D01*
X156462840Y-106288510D01*
X156527105Y-106476965D01*
X156582714Y-106621616D01*
X156623875Y-106703259D01*
X156654441Y-106741888D01*
X156795007Y-106853071D01*
X156957715Y-106884174D01*
X157143373Y-106835024D01*
X157352786Y-106705446D01*
X157586762Y-106495267D01*
X157775898Y-106278828D01*
X157944865Y-106038556D01*
X158085661Y-105790250D01*
X158192211Y-105547751D01*
X158258443Y-105324901D01*
X158278285Y-105135541D01*
X158245663Y-104993511D01*
X158222186Y-104957384D01*
X158124504Y-104889955D01*
X157976962Y-104877994D01*
X157771463Y-104920251D01*
X157752600Y-104925403D01*
X157610634Y-104955054D01*
X157412432Y-104986912D01*
X157181639Y-105017472D01*
X156941901Y-105043230D01*
X156903832Y-105046886D01*
X156868523Y-105050864D01*
X156671814Y-105073029D01*
X156479932Y-105101263D01*
X156342973Y-105129124D01*
X156275728Y-105154152D01*
X156230745Y-105229970D01*
X156213052Y-105341101D01*
X155932309Y-105341101D01*
X155923239Y-105311181D01*
X155793378Y-104896921D01*
X155639008Y-104415167D01*
X155490918Y-103951340D01*
X155364549Y-103542559D01*
X155260701Y-103189430D01*
X155176073Y-102879865D01*
X155107364Y-102601774D01*
X155051272Y-102343070D01*
X155004496Y-102091664D01*
X154995662Y-102036340D01*
X155242460Y-102036340D01*
X155256357Y-102129243D01*
X155343496Y-102218597D01*
X155381455Y-102240255D01*
X155497097Y-102270545D01*
X155658720Y-102264171D01*
X155676413Y-102261977D01*
X155834308Y-102230949D01*
X155987915Y-102174586D01*
X156159917Y-102082764D01*
X156372995Y-101945360D01*
X156599490Y-101791747D01*
X156684154Y-101896303D01*
X156705377Y-101924625D01*
X156749038Y-102030367D01*
X156746422Y-102170846D01*
X156746193Y-102172560D01*
X156683432Y-102344515D01*
X156543823Y-102495143D01*
X156325885Y-102625334D01*
X156028133Y-102735974D01*
X155649084Y-102827954D01*
X155521389Y-102855641D01*
X155443866Y-102885371D01*
X155411909Y-102927942D01*
X155405667Y-102997149D01*
X155409489Y-103052839D01*
X155432558Y-103104707D01*
X155488100Y-103137321D01*
X155589128Y-103154273D01*
X155748655Y-103159154D01*
X155979695Y-103155554D01*
X156039993Y-103154490D01*
X156300044Y-103164610D01*
X156486072Y-103205339D01*
X156604306Y-103283007D01*
X156660974Y-103403948D01*
X156662303Y-103574492D01*
X156614522Y-103800973D01*
X156583187Y-103916002D01*
X156541988Y-104075305D01*
X156521445Y-104178949D01*
X156520103Y-104243723D01*
X156536506Y-104286416D01*
X156569200Y-104323819D01*
X156569566Y-104324184D01*
X156688037Y-104382821D01*
X156868523Y-104386352D01*
X157109118Y-104335182D01*
X157407917Y-104229717D01*
X157763012Y-104070360D01*
X157974632Y-103957776D01*
X158185014Y-103818603D01*
X158333254Y-103684812D01*
X158412941Y-103562407D01*
X158417666Y-103457388D01*
X158414872Y-103450457D01*
X158333524Y-103354398D01*
X158173102Y-103252795D01*
X157938377Y-103148720D01*
X157900620Y-103132662D01*
X157757912Y-103033852D01*
X157678632Y-102907142D01*
X157673379Y-102767771D01*
X157709777Y-102677370D01*
X157779293Y-102545257D01*
X157866636Y-102400749D01*
X157874604Y-102388316D01*
X157949855Y-102258191D01*
X157996047Y-102154513D01*
X158003452Y-102098753D01*
X157994996Y-102079855D01*
X158019306Y-102080018D01*
X158055818Y-102067022D01*
X158103738Y-101995101D01*
X158150347Y-101886087D01*
X158185614Y-101763800D01*
X158199509Y-101652060D01*
X158198389Y-101626352D01*
X158147179Y-101460201D01*
X158027882Y-101289968D01*
X157934435Y-101206425D01*
X158434104Y-101206425D01*
X158439941Y-101388334D01*
X158446926Y-101419829D01*
X158477834Y-101535313D01*
X158524527Y-101695305D01*
X158579922Y-101875167D01*
X158583333Y-101885973D01*
X158648928Y-102102708D01*
X158699804Y-102296796D01*
X158737563Y-102483557D01*
X158763803Y-102678312D01*
X158780128Y-102896380D01*
X158788137Y-103153082D01*
X158789430Y-103463738D01*
X158785610Y-103843667D01*
X158782539Y-104135156D01*
X158782748Y-104471635D01*
X158788529Y-104733721D01*
X158800284Y-104927307D01*
X158818417Y-105058288D01*
X158843331Y-105132554D01*
X158875429Y-105156000D01*
X158885254Y-105153967D01*
X158905564Y-105130793D01*
X158922612Y-105075714D01*
X158936960Y-104981193D01*
X158949173Y-104839693D01*
X158959817Y-104643678D01*
X158969455Y-104385610D01*
X158978652Y-104057952D01*
X158987972Y-103653167D01*
X158993070Y-103350815D01*
X158995374Y-102869689D01*
X158990525Y-102414377D01*
X158978928Y-101994667D01*
X158960985Y-101620344D01*
X158937100Y-101301196D01*
X158907676Y-101047010D01*
X158873118Y-100867570D01*
X158852316Y-100803667D01*
X158785757Y-100702061D01*
X158703253Y-100680844D01*
X158611702Y-100739800D01*
X158518005Y-100878713D01*
X158468951Y-101008272D01*
X158434104Y-101206425D01*
X157934435Y-101206425D01*
X157851818Y-101132564D01*
X157770473Y-101071536D01*
X157668086Y-100979352D01*
X157616427Y-100896316D01*
X157619616Y-100814502D01*
X157681774Y-100725981D01*
X157807020Y-100622825D01*
X157999476Y-100497108D01*
X158263260Y-100340901D01*
X158373186Y-100276299D01*
X158531782Y-100173883D01*
X158631555Y-100086936D01*
X158683555Y-100000639D01*
X158698833Y-99900173D01*
X158688438Y-99770718D01*
X158686673Y-99757958D01*
X158659117Y-99613682D01*
X158614839Y-99432408D01*
X158559173Y-99231152D01*
X158497450Y-99026931D01*
X158435006Y-98836763D01*
X158377172Y-98677663D01*
X158329284Y-98566650D01*
X158296673Y-98520739D01*
X158295043Y-98520330D01*
X158251309Y-98551692D01*
X158188208Y-98646535D01*
X158115756Y-98789953D01*
X158053108Y-98920588D01*
X157862431Y-99236478D01*
X157646615Y-99479736D01*
X157399319Y-99658045D01*
X157149902Y-99835504D01*
X156899265Y-100094840D01*
X156886538Y-100110078D01*
X156726693Y-100289852D01*
X156585800Y-100414502D01*
X156438460Y-100498833D01*
X156259276Y-100557653D01*
X156022848Y-100605767D01*
X155984185Y-100612688D01*
X155744801Y-100665132D01*
X155562490Y-100722811D01*
X155446397Y-100782256D01*
X155405667Y-100839995D01*
X155435665Y-100882581D01*
X155515119Y-100932019D01*
X155548114Y-100944968D01*
X155632230Y-100957960D01*
X155746695Y-100945742D01*
X155916228Y-100906756D01*
X156020849Y-100881758D01*
X156204306Y-100856640D01*
X156325745Y-100880597D01*
X156394635Y-100961648D01*
X156420448Y-101107814D01*
X156412654Y-101327115D01*
X156395354Y-101441062D01*
X156311802Y-101639201D01*
X156164959Y-101781589D01*
X155955712Y-101867532D01*
X155684949Y-101896334D01*
X155597463Y-101898935D01*
X155449875Y-101913859D01*
X155344923Y-101937619D01*
X155301706Y-101959295D01*
X155245752Y-102032059D01*
X155242460Y-102036340D01*
X154995662Y-102036340D01*
X154985783Y-101974475D01*
X154947150Y-101677101D01*
X154914094Y-101348579D01*
X154905436Y-101235859D01*
X154888230Y-101011851D01*
X154871175Y-100689856D01*
X154864545Y-100405536D01*
X154869955Y-100181834D01*
X154879479Y-100034044D01*
X155112183Y-100034044D01*
X155148079Y-100156310D01*
X155158790Y-100169876D01*
X155245752Y-100200063D01*
X155387872Y-100173502D01*
X155580179Y-100091679D01*
X155817703Y-99956081D01*
X155854847Y-99933315D01*
X156064218Y-99817743D01*
X156290063Y-99709267D01*
X156489559Y-99628751D01*
X156534385Y-99612842D01*
X156694027Y-99549920D01*
X156821503Y-99490368D01*
X156892526Y-99445244D01*
X156910593Y-99420793D01*
X156964768Y-99323492D01*
X157039729Y-99171423D01*
X157128081Y-98979849D01*
X157222433Y-98764037D01*
X157272257Y-98647931D01*
X157363994Y-98438784D01*
X157445144Y-98259517D01*
X157508361Y-98126212D01*
X157546300Y-98054953D01*
X157636915Y-97980272D01*
X157785535Y-97961347D01*
X157983844Y-98006562D01*
X157996661Y-98010929D01*
X158089176Y-98035866D01*
X158136198Y-98036914D01*
X158133150Y-98000164D01*
X158097545Y-97900681D01*
X158034145Y-97754171D01*
X157950041Y-97575229D01*
X157852326Y-97378454D01*
X157748090Y-97178442D01*
X157644425Y-96989789D01*
X157548423Y-96827093D01*
X157501034Y-96751384D01*
X157376153Y-96562888D01*
X157275343Y-96434622D01*
X157196269Y-96369619D01*
X157136597Y-96370912D01*
X157093995Y-96441534D01*
X157066128Y-96584518D01*
X157050662Y-96802897D01*
X157045263Y-97099705D01*
X157047598Y-97477973D01*
X157050569Y-97746294D01*
X157051515Y-97992661D01*
X157049184Y-98173145D01*
X157043032Y-98297890D01*
X157032519Y-98377039D01*
X157017102Y-98420738D01*
X156996239Y-98439131D01*
X156952154Y-98441806D01*
X156872717Y-98386225D01*
X156793511Y-98264057D01*
X156719763Y-98086507D01*
X156656700Y-97864781D01*
X156609548Y-97610084D01*
X156597582Y-97543189D01*
X156567729Y-97446856D01*
X156536002Y-97409000D01*
X156492950Y-97427820D01*
X156402392Y-97489167D01*
X156289797Y-97578334D01*
X156193963Y-97656808D01*
X156107372Y-97722450D01*
X156064822Y-97747667D01*
X156045021Y-97733652D01*
X156042673Y-97651491D01*
X156077088Y-97495235D01*
X156148423Y-97264238D01*
X156256836Y-96957850D01*
X156319048Y-96784162D01*
X156425539Y-96444806D01*
X156487957Y-96162956D01*
X156506600Y-95928591D01*
X156481766Y-95731689D01*
X156413752Y-95562230D01*
X156302858Y-95410191D01*
X156253532Y-95358488D01*
X156055505Y-95202231D01*
X155851246Y-95111413D01*
X155652664Y-95086105D01*
X155471664Y-95126373D01*
X155320153Y-95232287D01*
X155210037Y-95403915D01*
X155206461Y-95412621D01*
X155154288Y-95640612D01*
X155179500Y-95857709D01*
X155277769Y-96049221D01*
X155444765Y-96200458D01*
X155445147Y-96200699D01*
X155553776Y-96279394D01*
X155604378Y-96352018D01*
X155616404Y-96446448D01*
X155613601Y-96485805D01*
X155583667Y-96624566D01*
X155531737Y-96768040D01*
X155488568Y-96888722D01*
X155453596Y-97086402D01*
X155455835Y-97275175D01*
X155497020Y-97422367D01*
X155503170Y-97433035D01*
X155563907Y-97517424D01*
X155661188Y-97636767D01*
X155777048Y-97768834D01*
X155789527Y-97782692D01*
X155912373Y-97932415D01*
X156019112Y-98083870D01*
X156087862Y-98206260D01*
X156108987Y-98261742D01*
X156156005Y-98481803D01*
X156167767Y-98730461D01*
X156144347Y-98972492D01*
X156085818Y-99172670D01*
X156034038Y-99270109D01*
X155875771Y-99474605D01*
X155678608Y-99643339D01*
X155468129Y-99752305D01*
X155401397Y-99777195D01*
X155272680Y-99836757D01*
X155186926Y-99891902D01*
X155159420Y-99920400D01*
X155112183Y-100034044D01*
X154879479Y-100034044D01*
X154891780Y-99843167D01*
X154826287Y-100203000D01*
X154798766Y-100400422D01*
X154776529Y-100682758D01*
X154762457Y-101038456D01*
X154756250Y-101473000D01*
X154755389Y-101650564D01*
X154755242Y-101864630D01*
X154757699Y-102055203D01*
X154764318Y-102231067D01*
X154776661Y-102401008D01*
X154796286Y-102573814D01*
X154824755Y-102758269D01*
X154863626Y-102963159D01*
X154914461Y-103197271D01*
X154978818Y-103469391D01*
X155058259Y-103788305D01*
X155154343Y-104162798D01*
X155268630Y-104601657D01*
X155402680Y-105113667D01*
X155497962Y-105491750D01*
X155707962Y-106476431D01*
X155851976Y-107427742D01*
X155930843Y-108358957D01*
X155945402Y-109283347D01*
X155896490Y-110214185D01*
X155784947Y-111164743D01*
X155734129Y-111481392D01*
X155653702Y-111914257D01*
X155561129Y-112353590D01*
X155460718Y-112781271D01*
X155356776Y-113179176D01*
X155253610Y-113529182D01*
X155155527Y-113813167D01*
X154901705Y-114394648D01*
X154567505Y-114987561D01*
X154442606Y-115158721D01*
X154182668Y-115514936D01*
X153748365Y-115975380D01*
X153265771Y-116367497D01*
X152736058Y-116689893D01*
X152657895Y-116727058D01*
X152466865Y-116817889D01*
X151922751Y-117009945D01*
X151781664Y-117038624D01*
X151368483Y-117122613D01*
X150871279Y-117153881D01*
X150811203Y-117157659D01*
X150258051Y-117116846D01*
X149716167Y-117001938D01*
X149192693Y-116814701D01*
X148694769Y-116556899D01*
X148229535Y-116230296D01*
X147804133Y-115836656D01*
X147425704Y-115377745D01*
X147397713Y-115338458D01*
X147194812Y-115029097D01*
X147023866Y-114715148D01*
X146871676Y-114370034D01*
X146725038Y-113967177D01*
X146702144Y-113898936D01*
X146631526Y-113681480D01*
X146587481Y-113523918D01*
X146568420Y-113410526D01*
X146572752Y-113325584D01*
X146598888Y-113253372D01*
X146645237Y-113178167D01*
X146666645Y-113144884D01*
X146736597Y-113025011D01*
X146823963Y-112865412D01*
X146914763Y-112691334D01*
X147027448Y-112459855D01*
X147148237Y-112179850D01*
X147251241Y-111895363D01*
X147254069Y-111885684D01*
X147538607Y-111885684D01*
X147540740Y-112060353D01*
X147575634Y-112225729D01*
X147646249Y-112406621D01*
X147755541Y-112627834D01*
X147820957Y-112754593D01*
X147894443Y-112905178D01*
X147938907Y-113018806D01*
X147960800Y-113118549D01*
X147966572Y-113227479D01*
X147962675Y-113368667D01*
X147959135Y-113456658D01*
X147948991Y-113728468D01*
X147946219Y-113938618D01*
X147954914Y-114105129D01*
X147979168Y-114246022D01*
X148023076Y-114379317D01*
X148090730Y-114523037D01*
X148186225Y-114695202D01*
X148313653Y-114913834D01*
X148327944Y-114938646D01*
X148428544Y-115151350D01*
X148460025Y-115319763D01*
X148420614Y-115450467D01*
X148308537Y-115550043D01*
X148122022Y-115625071D01*
X147937790Y-115678412D01*
X148253312Y-115945133D01*
X148595238Y-116208421D01*
X149081420Y-116499190D01*
X149597951Y-116714294D01*
X150154242Y-116858252D01*
X150299129Y-116882257D01*
X150588188Y-116912691D01*
X150871279Y-116922363D01*
X151123141Y-116910852D01*
X151318514Y-116877734D01*
X151468247Y-116814848D01*
X151621134Y-116697466D01*
X151726040Y-116552981D01*
X151765000Y-116400591D01*
X151752698Y-116246176D01*
X151703795Y-116090618D01*
X151608552Y-115939987D01*
X151457401Y-115779573D01*
X151240774Y-115594668D01*
X151050595Y-115432014D01*
X152288681Y-115432014D01*
X152294681Y-115708408D01*
X152333648Y-115962792D01*
X152404243Y-116175982D01*
X152505122Y-116328791D01*
X152514037Y-116337696D01*
X152586505Y-116396990D01*
X152657895Y-116409163D01*
X152768170Y-116382352D01*
X152942677Y-116303250D01*
X153142082Y-116166782D01*
X153331112Y-115996442D01*
X153483624Y-115813035D01*
X153573975Y-115654679D01*
X153657658Y-115412733D01*
X153692737Y-115161204D01*
X153682494Y-114912989D01*
X153630210Y-114680984D01*
X153539168Y-114478086D01*
X153412648Y-114317192D01*
X153253933Y-114211198D01*
X153066303Y-114173000D01*
X152982977Y-114177431D01*
X152897012Y-114203552D01*
X152809253Y-114266021D01*
X152693609Y-114379280D01*
X152531797Y-114582295D01*
X152400640Y-114834363D01*
X152380951Y-114889943D01*
X152316991Y-115152798D01*
X152288681Y-115432014D01*
X151050595Y-115432014D01*
X150826651Y-115240482D01*
X150394214Y-114802241D01*
X150031744Y-114344213D01*
X149731186Y-113854624D01*
X149484485Y-113321700D01*
X149370365Y-112987667D01*
X150337457Y-112987667D01*
X150340716Y-113082227D01*
X150386456Y-113303186D01*
X150477168Y-113560044D01*
X150604488Y-113835599D01*
X150760056Y-114112651D01*
X150935508Y-114374000D01*
X151122483Y-114602444D01*
X151291827Y-114764824D01*
X151468987Y-114897301D01*
X151637332Y-114989968D01*
X151781664Y-115034471D01*
X151886783Y-115022459D01*
X151930881Y-114987586D01*
X151990218Y-114861596D01*
X152006909Y-114663266D01*
X151980866Y-114393191D01*
X151967356Y-114290585D01*
X151960981Y-114019457D01*
X152004915Y-113751330D01*
X152103334Y-113454178D01*
X152136796Y-113357302D01*
X152186912Y-113112990D01*
X152196573Y-112866335D01*
X152167580Y-112637388D01*
X152101735Y-112446201D01*
X152000837Y-112312826D01*
X151941098Y-112290233D01*
X151841336Y-112318063D01*
X151736557Y-112403379D01*
X151644531Y-112535093D01*
X151629057Y-112562421D01*
X151542879Y-112686814D01*
X151441150Y-112806628D01*
X151327092Y-112897980D01*
X151183913Y-112943082D01*
X151066500Y-112933990D01*
X151008744Y-112929518D01*
X150785911Y-112858530D01*
X150696755Y-112827362D01*
X150557234Y-112792611D01*
X150456261Y-112784446D01*
X150435057Y-112787328D01*
X150376531Y-112809954D01*
X150348730Y-112868637D01*
X150337457Y-112987667D01*
X149370365Y-112987667D01*
X149283588Y-112733667D01*
X149249557Y-112596763D01*
X149214744Y-112419109D01*
X149182822Y-112223065D01*
X149155873Y-112025572D01*
X149135977Y-111843573D01*
X149125216Y-111694007D01*
X149125670Y-111593817D01*
X149139420Y-111559944D01*
X149171607Y-111556674D01*
X149252114Y-111534173D01*
X149296107Y-111527799D01*
X149432965Y-111547998D01*
X149627571Y-111610453D01*
X149630316Y-111611485D01*
X149854642Y-111684774D01*
X150026389Y-111712270D01*
X150163603Y-111694575D01*
X150284334Y-111632288D01*
X150332679Y-111593294D01*
X150384698Y-111532026D01*
X150428832Y-111447099D01*
X150439058Y-111416320D01*
X150764607Y-111416320D01*
X150769288Y-111645985D01*
X150783024Y-111826467D01*
X150806283Y-111940318D01*
X150819575Y-111974604D01*
X150892806Y-112122784D01*
X150971147Y-112202122D01*
X151066500Y-112225667D01*
X151102967Y-112224376D01*
X151178679Y-112203936D01*
X151219917Y-112149605D01*
X151228519Y-112049803D01*
X151206324Y-111892952D01*
X151155173Y-111667473D01*
X151082858Y-111323691D01*
X151018319Y-110897969D01*
X150975916Y-110468491D01*
X150960667Y-110076293D01*
X150960667Y-110075574D01*
X150957365Y-109939311D01*
X150948762Y-109848408D01*
X150936713Y-109822510D01*
X150933241Y-109828138D01*
X150912394Y-109895990D01*
X150884144Y-110020141D01*
X150853573Y-110178816D01*
X150827070Y-110354725D01*
X150800213Y-110606673D01*
X150780538Y-110879218D01*
X150768513Y-111154916D01*
X150764607Y-111416320D01*
X150439058Y-111416320D01*
X150468912Y-111326462D01*
X150508771Y-111158065D01*
X150552241Y-110929856D01*
X150603155Y-110629785D01*
X150613004Y-110569199D01*
X150669363Y-110178991D01*
X150700102Y-109863565D01*
X150704632Y-109617545D01*
X150682366Y-109435555D01*
X150632716Y-109312218D01*
X150599921Y-109282619D01*
X150555092Y-109242159D01*
X150448907Y-109220000D01*
X150358280Y-109227261D01*
X150255413Y-109255060D01*
X150134483Y-109309821D01*
X149983408Y-109397941D01*
X149790108Y-109525815D01*
X149542500Y-109699838D01*
X149435945Y-109775517D01*
X149139710Y-109979373D01*
X148906637Y-110128006D01*
X148736492Y-110221038D01*
X148629045Y-110258087D01*
X148584063Y-110238775D01*
X148601313Y-110162721D01*
X148680564Y-110029547D01*
X148821584Y-109838871D01*
X149024141Y-109590316D01*
X149288001Y-109283500D01*
X149407345Y-109145408D01*
X149622222Y-108883400D01*
X149777093Y-108672777D01*
X149870837Y-108515127D01*
X149902334Y-108412041D01*
X149897721Y-108391953D01*
X149835425Y-108323346D01*
X149713039Y-108251345D01*
X149697515Y-108243942D01*
X149546461Y-108153896D01*
X149450140Y-108049500D01*
X149407073Y-107919587D01*
X149415785Y-107752989D01*
X149474799Y-107538538D01*
X149582638Y-107265065D01*
X149644736Y-107110537D01*
X149711543Y-106887898D01*
X149723149Y-106729003D01*
X149679083Y-106633163D01*
X149578873Y-106599685D01*
X149422046Y-106627881D01*
X149208132Y-106717059D01*
X149141004Y-106752609D01*
X148909185Y-106904980D01*
X148811411Y-106984463D01*
X148671343Y-107098327D01*
X148455607Y-107308330D01*
X148290110Y-107510670D01*
X148244728Y-107583084D01*
X148144106Y-107800970D01*
X148057526Y-108080723D01*
X147983708Y-108427924D01*
X147921373Y-108848156D01*
X147869243Y-109347000D01*
X147864694Y-109398540D01*
X147811775Y-109964878D01*
X147760575Y-110449524D01*
X147710762Y-110855200D01*
X147662005Y-111184624D01*
X147613972Y-111440518D01*
X147566279Y-111676917D01*
X147538607Y-111885684D01*
X147254069Y-111885684D01*
X147339023Y-111594938D01*
X147414145Y-111267122D01*
X147479170Y-110900457D01*
X147536661Y-110483491D01*
X147589181Y-110004768D01*
X147639292Y-109452834D01*
X147679761Y-109023900D01*
X147741116Y-108530929D01*
X147814099Y-108106400D01*
X147900932Y-107741319D01*
X148003836Y-107426693D01*
X148125033Y-107153529D01*
X148266744Y-106912834D01*
X148352008Y-106785834D01*
X148256549Y-106869002D01*
X148243201Y-106881153D01*
X148136201Y-107004045D01*
X148012687Y-107179476D01*
X147886543Y-107385028D01*
X147771653Y-107598283D01*
X147681903Y-107796823D01*
X147645099Y-107897614D01*
X147633101Y-107930471D01*
X147535857Y-108259808D01*
X147441027Y-108667714D01*
X147348167Y-109156220D01*
X147256828Y-109727356D01*
X147198601Y-110107864D01*
X147125876Y-110539751D01*
X147054844Y-110906055D01*
X146982980Y-111217470D01*
X146942952Y-111359671D01*
X146907760Y-111484692D01*
X146826660Y-111718415D01*
X146737156Y-111929334D01*
X146614035Y-112165014D01*
X146362254Y-112536611D01*
X146063360Y-112871345D01*
X145893783Y-113016875D01*
X145730167Y-113157290D01*
X145375484Y-113382521D01*
X145012124Y-113535111D01*
X144847884Y-113571962D01*
X144615049Y-113624204D01*
X144182923Y-113647262D01*
X144169744Y-113647965D01*
X143729619Y-113595542D01*
X143300392Y-113471316D01*
X142887783Y-113279671D01*
X142497510Y-113024988D01*
X142135293Y-112711651D01*
X141806850Y-112344042D01*
X141517901Y-111926544D01*
X141274165Y-111463540D01*
X141081361Y-110959411D01*
X140945207Y-110418541D01*
X140903602Y-110123318D01*
X140879078Y-109724475D01*
X140879666Y-109611203D01*
X141112127Y-109611203D01*
X141117113Y-109920135D01*
X141140887Y-110172500D01*
X141161620Y-110293534D01*
X141287582Y-110803786D01*
X141469692Y-111302172D01*
X141698612Y-111766029D01*
X141965005Y-112172694D01*
X142169127Y-112412370D01*
X142509345Y-112725922D01*
X142890307Y-112994766D01*
X143293100Y-113206088D01*
X143698811Y-113347080D01*
X143772591Y-113363748D01*
X143973891Y-113394059D01*
X144182923Y-113408460D01*
X144377001Y-113406772D01*
X144533435Y-113388816D01*
X144629540Y-113354413D01*
X144656382Y-113333104D01*
X144673723Y-113298021D01*
X144638891Y-113254371D01*
X144542381Y-113183517D01*
X144472610Y-113135837D01*
X144318692Y-113033538D01*
X144166167Y-112934970D01*
X144140381Y-112917969D01*
X143999684Y-112811795D01*
X143838461Y-112674287D01*
X143720694Y-112562884D01*
X143686722Y-112530748D01*
X143519275Y-112349359D01*
X143221952Y-111956307D01*
X143173786Y-111874604D01*
X144145414Y-111874604D01*
X144146457Y-111925640D01*
X144188399Y-112198267D01*
X144286508Y-112426036D01*
X144433789Y-112600201D01*
X144623246Y-112712019D01*
X144847884Y-112752744D01*
X144875964Y-112752535D01*
X145072632Y-112716858D01*
X145208662Y-112626395D01*
X145279538Y-112489250D01*
X145280740Y-112313525D01*
X145207751Y-112107326D01*
X145109866Y-111879434D01*
X145106973Y-111865834D01*
X145588386Y-111865834D01*
X145591700Y-111987541D01*
X145621340Y-112259268D01*
X145681410Y-112452650D01*
X145772145Y-112568258D01*
X145893783Y-112606667D01*
X145912369Y-112605114D01*
X146019344Y-112552037D01*
X146141685Y-112432285D01*
X146271971Y-112257931D01*
X146402780Y-112041048D01*
X146526691Y-111793709D01*
X146636282Y-111527985D01*
X146724132Y-111255950D01*
X146763304Y-111094184D01*
X146784365Y-110907143D01*
X146756179Y-110785011D01*
X146675000Y-110722968D01*
X146537082Y-110716191D01*
X146338677Y-110759858D01*
X146326972Y-110763353D01*
X146059984Y-110886051D01*
X145842182Y-111072356D01*
X145685120Y-111312501D01*
X145658969Y-111371814D01*
X145614255Y-111509520D01*
X145592718Y-111662803D01*
X145588386Y-111865834D01*
X145106973Y-111865834D01*
X145057708Y-111634214D01*
X145077482Y-111417071D01*
X145104205Y-111344633D01*
X145160351Y-111249867D01*
X145252004Y-111134035D01*
X145388508Y-110985508D01*
X145579208Y-110792654D01*
X145682876Y-110688244D01*
X145905604Y-110445857D01*
X146069576Y-110232560D01*
X146182953Y-110035066D01*
X146253893Y-109840088D01*
X146290559Y-109634337D01*
X146297140Y-109545987D01*
X146285415Y-109377881D01*
X146230621Y-109214491D01*
X146159402Y-109078623D01*
X146063605Y-108937673D01*
X145963514Y-108821540D01*
X145873695Y-108746931D01*
X145808714Y-108730553D01*
X145781199Y-108736384D01*
X145775711Y-108710582D01*
X145779378Y-108697965D01*
X145743476Y-108648215D01*
X145733993Y-108642611D01*
X145679210Y-108610235D01*
X146523329Y-108610235D01*
X146542161Y-108817834D01*
X146551900Y-108866979D01*
X146576305Y-108989390D01*
X146605510Y-109135334D01*
X146623209Y-109211085D01*
X146669400Y-109367330D01*
X146728546Y-109537851D01*
X146793060Y-109703614D01*
X146855357Y-109845583D01*
X146907850Y-109944724D01*
X146942952Y-109982000D01*
X146956250Y-109979124D01*
X146968963Y-109962349D01*
X146982233Y-109920024D01*
X146998402Y-109840505D01*
X147019813Y-109712147D01*
X147048809Y-109523304D01*
X147087731Y-109262334D01*
X147101473Y-109174477D01*
X147149102Y-108906307D01*
X147205792Y-108623140D01*
X147262060Y-108373334D01*
X147319934Y-108093239D01*
X147356681Y-107801227D01*
X147364882Y-107541329D01*
X147345978Y-107321908D01*
X147301412Y-107151327D01*
X147232625Y-107037951D01*
X147141058Y-106990143D01*
X147028153Y-107016267D01*
X147026043Y-107017432D01*
X146951630Y-107092565D01*
X146865690Y-107230251D01*
X146776729Y-107411462D01*
X146693255Y-107617168D01*
X146623773Y-107828342D01*
X146576791Y-108025955D01*
X146572761Y-108048952D01*
X146533861Y-108346355D01*
X146523329Y-108610235D01*
X145679210Y-108610235D01*
X145647181Y-108591306D01*
X145508015Y-108533799D01*
X145343497Y-108482254D01*
X145171148Y-108443230D01*
X145008487Y-108423290D01*
X144992620Y-108422482D01*
X144755453Y-108427220D01*
X144575712Y-108472637D01*
X144445856Y-108567067D01*
X144358338Y-108718841D01*
X144305617Y-108936292D01*
X144280148Y-109227752D01*
X144277893Y-109283700D01*
X144275376Y-109486811D01*
X144288230Y-109653530D01*
X144321195Y-109822431D01*
X144379012Y-110032085D01*
X144444307Y-110257109D01*
X144517557Y-110533281D01*
X144562013Y-110751265D01*
X144577310Y-110924004D01*
X144563078Y-111064444D01*
X144518950Y-111185527D01*
X144444558Y-111300198D01*
X144339535Y-111421401D01*
X144314888Y-111447849D01*
X144220336Y-111556602D01*
X144169549Y-111643023D01*
X144149063Y-111738545D01*
X144145414Y-111874604D01*
X143173786Y-111874604D01*
X142964792Y-111520091D01*
X142750254Y-111051878D01*
X142580796Y-110562834D01*
X142458879Y-110064127D01*
X142386962Y-109566923D01*
X142382831Y-109464064D01*
X143047357Y-109464064D01*
X143067497Y-109796896D01*
X143124487Y-110087834D01*
X143149877Y-110168960D01*
X143233214Y-110387070D01*
X143332984Y-110598395D01*
X143440401Y-110788276D01*
X143546682Y-110942054D01*
X143643041Y-111045071D01*
X143720694Y-111082667D01*
X143765929Y-111057794D01*
X143807790Y-110961191D01*
X143832532Y-110802770D01*
X143840280Y-110594298D01*
X143831159Y-110347536D01*
X143805294Y-110074251D01*
X143762810Y-109786207D01*
X143703831Y-109495167D01*
X143642770Y-109201132D01*
X143599190Y-108866397D01*
X143597770Y-108576883D01*
X143638718Y-108316434D01*
X143722243Y-108068893D01*
X143788436Y-107903543D01*
X143881706Y-107627985D01*
X143951894Y-107363537D01*
X143996757Y-107123459D01*
X144014050Y-106921010D01*
X144001530Y-106769448D01*
X143956952Y-106682035D01*
X143949063Y-106676211D01*
X143856222Y-106663000D01*
X143727759Y-106712432D01*
X143575125Y-106818381D01*
X143409770Y-106974723D01*
X143256363Y-107166291D01*
X143169013Y-107354363D01*
X143140994Y-107563643D01*
X143164953Y-107819503D01*
X143172205Y-107864351D01*
X143204063Y-108118508D01*
X143208333Y-108330874D01*
X143183739Y-108535042D01*
X143129000Y-108764602D01*
X143117158Y-108809824D01*
X143063950Y-109123614D01*
X143047357Y-109464064D01*
X142382831Y-109464064D01*
X142367503Y-109082389D01*
X142402963Y-108621692D01*
X142495801Y-108195999D01*
X142648475Y-107816476D01*
X142653354Y-107807037D01*
X142711265Y-107678891D01*
X142749720Y-107547585D01*
X142774734Y-107385954D01*
X142792320Y-107166834D01*
X142811048Y-106953908D01*
X142854850Y-106720548D01*
X142927619Y-106535490D01*
X143025551Y-106396217D01*
X144280176Y-106396217D01*
X144280627Y-106483632D01*
X144326026Y-106510045D01*
X144416305Y-106478020D01*
X144551399Y-106390120D01*
X144566792Y-106378732D01*
X144811944Y-106160648D01*
X145062369Y-105875244D01*
X145308706Y-105537518D01*
X145541595Y-105162468D01*
X145751675Y-104765091D01*
X145929586Y-104360385D01*
X146065967Y-103963350D01*
X146097253Y-103848733D01*
X146197126Y-103321943D01*
X146236207Y-102772406D01*
X146215864Y-102217722D01*
X146137467Y-101675492D01*
X146002385Y-101163316D01*
X145811987Y-100698795D01*
X145648906Y-100390631D01*
X145473042Y-100106800D01*
X145308593Y-99900325D01*
X145152008Y-99768320D01*
X144999733Y-99707897D01*
X144848215Y-99716169D01*
X144693902Y-99790250D01*
X144586052Y-99887634D01*
X144475766Y-100050625D01*
X144392353Y-100245361D01*
X144338685Y-100454506D01*
X144317633Y-100660722D01*
X144332069Y-100846674D01*
X144384864Y-100995026D01*
X144478890Y-101088440D01*
X144488380Y-101092510D01*
X144576219Y-101113799D01*
X144717268Y-101135999D01*
X144885834Y-101154914D01*
X144951556Y-101161394D01*
X145200646Y-101199321D01*
X145384932Y-101256271D01*
X145520044Y-101338566D01*
X145621615Y-101452529D01*
X145635277Y-101473191D01*
X145674359Y-101546154D01*
X145702790Y-101633978D01*
X145723920Y-101754105D01*
X145741098Y-101923974D01*
X145757675Y-102161025D01*
X145758135Y-102168310D01*
X145775251Y-102402727D01*
X145795671Y-102628880D01*
X145816872Y-102821338D01*
X145836336Y-102954667D01*
X145852453Y-103052625D01*
X145864669Y-103254918D01*
X145834883Y-103431688D01*
X145755886Y-103600905D01*
X145620464Y-103780538D01*
X145421405Y-103988559D01*
X145312085Y-104096840D01*
X145205655Y-104211973D01*
X145129827Y-104316901D01*
X145071362Y-104434592D01*
X145017020Y-104588011D01*
X144953562Y-104800126D01*
X144938197Y-104848736D01*
X144874999Y-105018425D01*
X144786030Y-105232147D01*
X144680877Y-105467418D01*
X144569127Y-105701751D01*
X144549163Y-105742311D01*
X144414377Y-106028121D01*
X144324737Y-106245235D01*
X144280176Y-106396217D01*
X143025551Y-106396217D01*
X143038090Y-106378384D01*
X143195001Y-106228882D01*
X143372813Y-106079597D01*
X143524981Y-105947357D01*
X143632589Y-105845694D01*
X143707218Y-105762751D01*
X143760448Y-105686675D01*
X143803860Y-105605610D01*
X143869374Y-105429764D01*
X143884255Y-105237576D01*
X143824789Y-105080309D01*
X143808757Y-105056595D01*
X143777039Y-104993830D01*
X143774356Y-104935776D01*
X143808310Y-104874987D01*
X143886500Y-104804017D01*
X144016528Y-104715419D01*
X144205995Y-104601747D01*
X144462500Y-104455554D01*
X144490408Y-104439592D01*
X144712381Y-104288400D01*
X144851244Y-104139196D01*
X144908251Y-103988902D01*
X144884659Y-103834441D01*
X144781721Y-103672735D01*
X144747452Y-103630502D01*
X144681646Y-103533582D01*
X144654721Y-103468003D01*
X144660409Y-103449815D01*
X144711406Y-103375072D01*
X144804049Y-103266545D01*
X144924551Y-103140947D01*
X145091390Y-102960834D01*
X145259467Y-102730682D01*
X145363941Y-102517634D01*
X145402648Y-102328447D01*
X145373427Y-102169878D01*
X145274114Y-102048686D01*
X145203992Y-102005450D01*
X145116312Y-101978004D01*
X144992504Y-101966216D01*
X144808447Y-101965794D01*
X144747112Y-101967768D01*
X144486939Y-101991750D01*
X144209867Y-102037465D01*
X143941288Y-102099289D01*
X143706591Y-102171596D01*
X143531167Y-102248761D01*
X143361834Y-102344597D01*
X143376001Y-102829549D01*
X143376632Y-103103344D01*
X143343395Y-103503328D01*
X143262991Y-103893039D01*
X143129502Y-104307975D01*
X143122846Y-104325879D01*
X142999958Y-104624241D01*
X142838410Y-104970989D01*
X142647959Y-105346818D01*
X142438363Y-105732423D01*
X142219381Y-106108500D01*
X142091104Y-106324330D01*
X141841724Y-106772061D01*
X141639454Y-107183332D01*
X141476751Y-107575578D01*
X141346074Y-107966235D01*
X141239879Y-108372739D01*
X141195787Y-108601573D01*
X141152875Y-108926266D01*
X141124518Y-109271362D01*
X141112127Y-109611203D01*
X140879666Y-109611203D01*
X140881269Y-109302581D01*
X140909860Y-108888630D01*
X140964536Y-108513619D01*
X141071508Y-108051981D01*
X141221155Y-107575857D01*
X141414653Y-107098645D01*
X141659175Y-106602771D01*
X141961897Y-106070664D01*
X142079448Y-105873349D01*
X142359967Y-105383776D01*
X142590990Y-104947396D01*
X142775778Y-104555432D01*
X142917597Y-104199108D01*
X143019709Y-103869646D01*
X143085377Y-103558270D01*
X143117864Y-103256203D01*
X143120435Y-102954667D01*
X143112109Y-102786145D01*
X143090951Y-102589492D01*
X143051671Y-102423881D01*
X142985928Y-102257510D01*
X142885381Y-102058576D01*
X142905372Y-102040243D01*
X142988484Y-102010716D01*
X143116053Y-101979647D01*
X143217334Y-101955170D01*
X143382526Y-101902766D01*
X143510000Y-101847807D01*
X143549857Y-101824766D01*
X143590660Y-101792889D01*
X143563496Y-101791822D01*
X143547018Y-101795305D01*
X143442746Y-101806541D01*
X143288313Y-101814627D01*
X143110694Y-101818003D01*
X142998920Y-101815988D01*
X142940355Y-101808375D01*
X142571798Y-101760468D01*
X142177163Y-101627789D01*
X141811176Y-101416326D01*
X141470000Y-101124458D01*
X141313740Y-100955135D01*
X141125024Y-100697927D01*
X140982288Y-100418600D01*
X140875854Y-100096876D01*
X140796043Y-99712476D01*
X140773232Y-99586458D01*
X140713094Y-99317912D01*
X140629072Y-99006663D01*
X140517910Y-98641049D01*
X140376350Y-98209406D01*
X140312859Y-98018893D01*
X140221370Y-97736945D01*
X140140182Y-97478005D01*
X140136989Y-97467366D01*
X140551273Y-97467366D01*
X140557582Y-97666630D01*
X140575935Y-97811167D01*
X140585336Y-97848553D01*
X140615458Y-97962388D01*
X140661038Y-98131593D01*
X140717831Y-98340432D01*
X140781589Y-98573167D01*
X140809932Y-98678302D01*
X140879985Y-98954260D01*
X140944730Y-99230217D01*
X140997973Y-99479100D01*
X141033514Y-99673834D01*
X141094243Y-99977020D01*
X141220829Y-100353486D01*
X141399569Y-100676537D01*
X141635840Y-100957635D01*
X141786430Y-101093945D01*
X142069054Y-101292393D01*
X142362262Y-101434287D01*
X142656036Y-101519108D01*
X142940355Y-101546336D01*
X143205203Y-101515453D01*
X143440561Y-101425939D01*
X143636410Y-101277274D01*
X143782732Y-101068939D01*
X143813868Y-100984398D01*
X143854311Y-100803809D01*
X143888749Y-100565745D01*
X143915018Y-100286095D01*
X143930955Y-99980750D01*
X143934904Y-99952605D01*
X143992496Y-99850820D01*
X144094626Y-99770158D01*
X144210603Y-99737334D01*
X144351112Y-99713188D01*
X144515746Y-99611522D01*
X144653292Y-99434567D01*
X144670446Y-99403623D01*
X144724548Y-99277718D01*
X144751371Y-99139007D01*
X144758670Y-98951972D01*
X144758671Y-98950351D01*
X144753354Y-98784154D01*
X144731370Y-98649987D01*
X144683795Y-98512948D01*
X144601702Y-98338138D01*
X144571177Y-98278757D01*
X144449181Y-98067906D01*
X144314017Y-97866636D01*
X144178287Y-97691560D01*
X144054597Y-97559291D01*
X143955550Y-97486443D01*
X143813691Y-97458261D01*
X143684729Y-97508990D01*
X143574668Y-97636781D01*
X143486336Y-97838324D01*
X143422563Y-98110307D01*
X143400559Y-98273799D01*
X143397366Y-98438928D01*
X143422500Y-98583809D01*
X143435346Y-98626716D01*
X143492877Y-98735482D01*
X143566982Y-98762853D01*
X143659688Y-98708769D01*
X143773022Y-98573167D01*
X143830620Y-98497576D01*
X143907931Y-98414827D01*
X143959577Y-98382667D01*
X144038144Y-98418497D01*
X144112377Y-98511783D01*
X144164542Y-98635203D01*
X144178810Y-98761411D01*
X144173719Y-98811929D01*
X144152056Y-98882060D01*
X144095533Y-98916420D01*
X143979425Y-98936753D01*
X143960394Y-98939500D01*
X143800762Y-98989725D01*
X143672508Y-99096171D01*
X143664689Y-99104957D01*
X143588182Y-99202675D01*
X143559545Y-99286823D01*
X143576325Y-99386705D01*
X143636071Y-99531628D01*
X143707591Y-99749530D01*
X143706877Y-99937421D01*
X143631441Y-100094620D01*
X143513861Y-100207194D01*
X143363124Y-100265636D01*
X143205883Y-100242110D01*
X143171721Y-100227218D01*
X143123876Y-100194574D01*
X143098479Y-100140881D01*
X143088439Y-100044935D01*
X143086667Y-99885535D01*
X143085913Y-99824397D01*
X143058346Y-99562135D01*
X142985841Y-99348512D01*
X142861194Y-99160361D01*
X142800095Y-99081419D01*
X142736040Y-98951315D01*
X142736664Y-98821171D01*
X142798102Y-98660341D01*
X142807708Y-98640358D01*
X142854290Y-98524009D01*
X142859363Y-98435525D01*
X142814267Y-98358691D01*
X142710338Y-98277291D01*
X142538916Y-98175110D01*
X142500732Y-98153061D01*
X142338560Y-98043236D01*
X142249722Y-97943111D01*
X142227329Y-97841438D01*
X142264495Y-97726971D01*
X142300613Y-97629908D01*
X142323245Y-97452190D01*
X142311591Y-97253565D01*
X142270840Y-97051617D01*
X142206185Y-96863935D01*
X142122817Y-96708103D01*
X142025926Y-96601707D01*
X141920705Y-96562334D01*
X141830293Y-96591081D01*
X141750946Y-96693630D01*
X141740143Y-96715406D01*
X141701529Y-96823955D01*
X141684756Y-96952845D01*
X141688594Y-97122862D01*
X141711812Y-97354790D01*
X141722268Y-97597318D01*
X141694471Y-97867415D01*
X141683084Y-97928275D01*
X141664867Y-98088650D01*
X141682915Y-98190145D01*
X141743403Y-98248923D01*
X141852505Y-98281147D01*
X141998576Y-98319659D01*
X142183926Y-98423914D01*
X142302816Y-98577705D01*
X142303082Y-98578264D01*
X142350855Y-98700629D01*
X142360307Y-98808211D01*
X142328696Y-98929514D01*
X142253284Y-99093041D01*
X142139568Y-99317797D01*
X142256600Y-99548925D01*
X142312957Y-99676835D01*
X142372480Y-99887284D01*
X142410390Y-100150277D01*
X142416007Y-100203852D01*
X142439938Y-100391951D01*
X142466789Y-100557025D01*
X142491742Y-100668388D01*
X142514248Y-100762981D01*
X142533669Y-100929816D01*
X142533242Y-101092678D01*
X142513642Y-101225301D01*
X142475540Y-101301421D01*
X142431001Y-101324933D01*
X142345537Y-101312577D01*
X142236457Y-101234185D01*
X142095907Y-101085285D01*
X142002418Y-100961410D01*
X141902317Y-100775637D01*
X141823938Y-100550456D01*
X141762341Y-100270876D01*
X141712586Y-99921903D01*
X141692097Y-99762669D01*
X141655707Y-99540769D01*
X141617923Y-99376507D01*
X141581510Y-99283347D01*
X141579968Y-99280992D01*
X141537807Y-99210165D01*
X141553413Y-99190830D01*
X141639234Y-99206388D01*
X141731023Y-99212628D01*
X141883396Y-99181803D01*
X142021174Y-99114446D01*
X142109593Y-99024034D01*
X142139203Y-98934405D01*
X142152457Y-98790431D01*
X142139511Y-98648605D01*
X142101071Y-98548332D01*
X142020271Y-98468906D01*
X141861772Y-98397044D01*
X141687673Y-98394867D01*
X141522408Y-98465857D01*
X141405578Y-98549047D01*
X141351395Y-98434107D01*
X141345445Y-98419570D01*
X141318952Y-98308809D01*
X141297630Y-98149045D01*
X141285638Y-97969651D01*
X141280144Y-97852591D01*
X141259035Y-97671792D01*
X141216406Y-97514422D01*
X141143199Y-97340481D01*
X141124309Y-97299277D01*
X141043285Y-97078590D01*
X141019390Y-96885463D01*
X141052619Y-96689932D01*
X141142961Y-96462030D01*
X141208972Y-96309067D01*
X141284910Y-96097934D01*
X141344081Y-95892505D01*
X141383535Y-95707355D01*
X141400321Y-95557060D01*
X141391487Y-95456195D01*
X141354083Y-95419334D01*
X141346175Y-95420188D01*
X141276752Y-95467594D01*
X141185097Y-95577371D01*
X141079124Y-95735328D01*
X140966745Y-95927275D01*
X140855874Y-96139020D01*
X140754424Y-96356374D01*
X140670307Y-96565146D01*
X140611436Y-96751145D01*
X140594916Y-96830532D01*
X140570909Y-97020384D01*
X140556039Y-97242306D01*
X140551273Y-97467366D01*
X140136989Y-97467366D01*
X140073642Y-97256323D01*
X140026096Y-97086151D01*
X140001892Y-96981739D01*
X139981240Y-96854739D01*
X139965102Y-96728821D01*
X139962726Y-96626056D01*
X139973928Y-96511615D01*
X139998521Y-96350667D01*
X140014469Y-96263858D01*
X140113363Y-95937659D01*
X140263150Y-95641355D01*
X140454543Y-95384052D01*
X140678256Y-95174856D01*
X140925002Y-95022871D01*
X141185496Y-94937205D01*
X141450452Y-94926962D01*
X141505651Y-94934450D01*
X141639104Y-94966835D01*
X141761232Y-95025365D01*
X141887158Y-95120736D01*
X142032006Y-95263643D01*
X142210898Y-95464783D01*
X142306776Y-95571650D01*
X142461674Y-95728969D01*
X142607953Y-95861508D01*
X142723602Y-95948500D01*
X142956454Y-96094808D01*
X143456568Y-96433620D01*
X143880102Y-96760963D01*
X144231279Y-97081963D01*
X144514322Y-97401742D01*
X144733452Y-97725425D01*
X144892891Y-98058135D01*
X144996864Y-98404998D01*
X145049591Y-98771136D01*
X145060727Y-98892857D01*
X145079237Y-99003388D01*
X145111514Y-99107536D01*
X145164716Y-99220307D01*
X145246001Y-99356707D01*
X145362525Y-99531744D01*
X145521447Y-99760423D01*
X145714127Y-100047677D01*
X145982050Y-100509425D01*
X146184687Y-100958931D01*
X146328093Y-101413230D01*
X146418324Y-101889353D01*
X146461435Y-102404334D01*
X146466460Y-102858853D01*
X146438122Y-103312092D01*
X146370617Y-103740933D01*
X146259661Y-104158510D01*
X146100971Y-104577960D01*
X145890262Y-105012415D01*
X145623252Y-105475011D01*
X145295657Y-105978883D01*
X145128288Y-106225407D01*
X144925866Y-106524484D01*
X144761868Y-106768602D01*
X144630758Y-106966530D01*
X144527001Y-107127036D01*
X144445060Y-107258889D01*
X144379399Y-107370859D01*
X144326026Y-107468877D01*
X144324482Y-107471712D01*
X144274774Y-107570220D01*
X144224737Y-107675149D01*
X144208183Y-107711191D01*
X144122733Y-107917481D01*
X144046933Y-108130283D01*
X143995538Y-108308807D01*
X143987143Y-108348161D01*
X143956189Y-108570093D01*
X143938243Y-108836030D01*
X143933967Y-109114167D01*
X143944023Y-109372702D01*
X143969073Y-109579834D01*
X143980959Y-109632676D01*
X143993404Y-109651028D01*
X144004058Y-109606827D01*
X144014427Y-109492716D01*
X144026013Y-109301339D01*
X144028818Y-109254522D01*
X144060653Y-108952626D01*
X144118678Y-108662818D01*
X144207694Y-108374808D01*
X144332502Y-108078306D01*
X144497903Y-107763023D01*
X144643229Y-107525619D01*
X145329034Y-107525619D01*
X145341731Y-107772474D01*
X145392815Y-107989328D01*
X145478046Y-108165600D01*
X145593186Y-108290710D01*
X145733993Y-108354078D01*
X145896229Y-108345122D01*
X145927554Y-108333943D01*
X146059533Y-108237156D01*
X146185003Y-108069396D01*
X146300349Y-107841748D01*
X146401951Y-107565298D01*
X146486193Y-107251130D01*
X146549455Y-106910329D01*
X146588121Y-106553980D01*
X146598573Y-106193167D01*
X146597266Y-106083998D01*
X146596030Y-105926540D01*
X147365021Y-105926540D01*
X147372531Y-106145737D01*
X147392582Y-106330559D01*
X147424827Y-106456275D01*
X147431294Y-106470296D01*
X147522958Y-106582035D01*
X147645099Y-106628581D01*
X147775496Y-106600777D01*
X147780190Y-106597948D01*
X147840574Y-106532734D01*
X147917168Y-106415347D01*
X147950085Y-106353156D01*
X148590000Y-106353156D01*
X148591334Y-106367025D01*
X148636794Y-106449564D01*
X148721665Y-106521946D01*
X148811411Y-106553000D01*
X148829371Y-106548939D01*
X148910620Y-106503925D01*
X149024854Y-106422194D01*
X149152157Y-106320171D01*
X149272612Y-106214283D01*
X149366302Y-106120953D01*
X149413311Y-106056608D01*
X149415753Y-106049708D01*
X149407901Y-105962091D01*
X149332753Y-105899541D01*
X149205908Y-105875667D01*
X149136509Y-105886321D01*
X148994612Y-105940992D01*
X148842850Y-106026208D01*
X148711624Y-106123951D01*
X148631334Y-106216203D01*
X148609155Y-106267033D01*
X148590000Y-106353156D01*
X147950085Y-106353156D01*
X147994577Y-106269094D01*
X148131692Y-106026633D01*
X148330648Y-105793406D01*
X148538553Y-105640728D01*
X149994845Y-105640728D01*
X150008278Y-105841547D01*
X150042849Y-106099139D01*
X150098973Y-106426000D01*
X150108192Y-106476644D01*
X150149402Y-106720995D01*
X150175016Y-106924320D01*
X150187191Y-107117970D01*
X150188083Y-107333297D01*
X150179850Y-107601652D01*
X150178236Y-107643744D01*
X150171762Y-107922405D01*
X150177909Y-108132947D01*
X150199728Y-108289568D01*
X150240272Y-108406467D01*
X150302594Y-108497842D01*
X150389746Y-108577893D01*
X150455477Y-108619635D01*
X150599921Y-108663711D01*
X150739045Y-108656084D01*
X150842921Y-108595584D01*
X150893748Y-108527384D01*
X150938244Y-108434653D01*
X150969544Y-108315095D01*
X150988991Y-108157189D01*
X150997932Y-107949419D01*
X150997709Y-107680267D01*
X150989668Y-107338214D01*
X150983934Y-107173307D01*
X150957432Y-106714192D01*
X150915875Y-106319851D01*
X150856971Y-105975906D01*
X150778430Y-105667979D01*
X150677960Y-105381689D01*
X150666486Y-105353585D01*
X150573060Y-105169255D01*
X150476415Y-105064320D01*
X150370094Y-105034168D01*
X150247643Y-105074184D01*
X150236147Y-105081078D01*
X150140339Y-105168485D01*
X150061150Y-105283858D01*
X150029740Y-105359422D01*
X150002137Y-105484186D01*
X149994845Y-105640728D01*
X148538553Y-105640728D01*
X148581893Y-105608901D01*
X148900092Y-105460016D01*
X148976871Y-105429708D01*
X149252704Y-105294307D01*
X149464981Y-105138976D01*
X149560160Y-105049094D01*
X149629954Y-104963647D01*
X149660700Y-104881346D01*
X149667576Y-104774918D01*
X149666467Y-104722742D01*
X149648748Y-104623527D01*
X149596159Y-104539497D01*
X149491802Y-104438294D01*
X149376605Y-104347798D01*
X149189086Y-104250923D01*
X148968178Y-104198348D01*
X148690922Y-104182747D01*
X148440471Y-104206324D01*
X148146615Y-104303536D01*
X147891739Y-104471882D01*
X147680696Y-104706906D01*
X147518338Y-105004153D01*
X147409518Y-105359168D01*
X147389000Y-105483931D01*
X147370395Y-105697695D01*
X147365021Y-105926540D01*
X146596030Y-105926540D01*
X146595793Y-105896356D01*
X146595537Y-105742330D01*
X146596590Y-105647440D01*
X146596688Y-105644836D01*
X146615057Y-105570885D01*
X146670189Y-105481052D01*
X146771572Y-105362637D01*
X146928693Y-105202940D01*
X147057690Y-105071962D01*
X147205533Y-104900205D01*
X147322873Y-104726772D01*
X147432358Y-104521000D01*
X147472823Y-104439543D01*
X147594394Y-104222811D01*
X147718091Y-104061196D01*
X147860419Y-103943275D01*
X148037880Y-103857621D01*
X148266977Y-103792809D01*
X148564214Y-103737415D01*
X148646117Y-103723852D01*
X148800293Y-103696395D01*
X148910239Y-103674122D01*
X148956228Y-103660884D01*
X148957496Y-103654173D01*
X148910910Y-103630902D01*
X148803506Y-103603790D01*
X148652717Y-103575559D01*
X148475976Y-103548935D01*
X148290717Y-103526639D01*
X148114374Y-103511396D01*
X147964381Y-103505930D01*
X147715459Y-103515633D01*
X147505052Y-103551118D01*
X147352585Y-103618271D01*
X147245311Y-103722954D01*
X147170485Y-103871030D01*
X147082878Y-104103288D01*
X146925298Y-104481912D01*
X146755796Y-104834250D01*
X146562701Y-105182150D01*
X146334346Y-105547461D01*
X146059059Y-105952034D01*
X145963150Y-106089356D01*
X145792844Y-106338091D01*
X145662696Y-106537817D01*
X145565393Y-106701224D01*
X145493625Y-106841003D01*
X145440082Y-106969843D01*
X145397452Y-107100434D01*
X145358965Y-107259343D01*
X145329034Y-107525619D01*
X144643229Y-107525619D01*
X144708698Y-107418669D01*
X144969687Y-107034954D01*
X145285673Y-106601589D01*
X145470574Y-106352714D01*
X145771413Y-105938602D01*
X146026087Y-105572947D01*
X146240553Y-105245637D01*
X146420768Y-104946562D01*
X146572689Y-104665610D01*
X146702273Y-104392668D01*
X146815476Y-104117626D01*
X146918256Y-103830372D01*
X146945651Y-103749110D01*
X147003901Y-103584553D01*
X147050106Y-103478343D01*
X147094246Y-103414334D01*
X147146304Y-103376381D01*
X147216261Y-103348337D01*
X147243890Y-103339200D01*
X147485684Y-103282969D01*
X147771195Y-103248043D01*
X148066080Y-103237325D01*
X148336000Y-103253717D01*
X148691126Y-103319984D01*
X149159746Y-103478011D01*
X149594793Y-103707561D01*
X149989837Y-104002767D01*
X150338452Y-104357762D01*
X150634209Y-104766679D01*
X150870680Y-105223653D01*
X151041436Y-105722817D01*
X151065979Y-105818613D01*
X151102427Y-105973576D01*
X151133090Y-106127530D01*
X151158494Y-106289043D01*
X151179167Y-106466681D01*
X151195634Y-106669013D01*
X151208423Y-106904605D01*
X151218061Y-107182025D01*
X151225074Y-107509840D01*
X151229989Y-107896619D01*
X151233332Y-108350928D01*
X151235631Y-108881334D01*
X151235706Y-108903021D01*
X151237772Y-109397052D01*
X151240421Y-109814280D01*
X151243887Y-110162267D01*
X151248407Y-110448570D01*
X151254216Y-110680748D01*
X151261550Y-110866360D01*
X151270644Y-111012966D01*
X151281733Y-111128124D01*
X151295055Y-111219394D01*
X151310843Y-111294334D01*
X151378750Y-111569500D01*
X151367893Y-111188500D01*
X151365562Y-111044954D01*
X151602770Y-111044954D01*
X151622326Y-111111654D01*
X151676741Y-111197154D01*
X151775048Y-111314422D01*
X151926281Y-111476425D01*
X151931948Y-111482348D01*
X152129417Y-111698921D01*
X152272231Y-111883585D01*
X152371977Y-112056309D01*
X152440238Y-112237067D01*
X152488599Y-112445827D01*
X152491412Y-112461307D01*
X152512502Y-112611095D01*
X152516449Y-112752637D01*
X152502415Y-112916135D01*
X152469563Y-113131786D01*
X152442526Y-113296723D01*
X152414758Y-113496645D01*
X152405011Y-113640068D01*
X152413669Y-113743070D01*
X152441117Y-113821730D01*
X152487740Y-113892125D01*
X152547982Y-113949562D01*
X152678012Y-113998476D01*
X152821331Y-113985114D01*
X152959342Y-113916548D01*
X153073448Y-113799853D01*
X153145051Y-113642102D01*
X153150659Y-113591221D01*
X153152406Y-113459954D01*
X153147620Y-113273244D01*
X153136791Y-113047865D01*
X153120411Y-112800594D01*
X153100830Y-112529060D01*
X153087010Y-112296971D01*
X153082107Y-112129883D01*
X153086582Y-112017629D01*
X153100897Y-111950037D01*
X153125513Y-111916940D01*
X153160892Y-111908167D01*
X153195913Y-111927312D01*
X153257741Y-112017975D01*
X153335617Y-112184632D01*
X153430211Y-112428927D01*
X153542198Y-112752502D01*
X153672251Y-113157000D01*
X153770967Y-113463437D01*
X153903114Y-113838683D01*
X154024492Y-114137011D01*
X154137115Y-114362299D01*
X154242998Y-114518420D01*
X154344157Y-114609251D01*
X154442606Y-114638667D01*
X154483568Y-114616038D01*
X154554587Y-114524857D01*
X154640180Y-114376231D01*
X154734798Y-114183567D01*
X154832892Y-113960273D01*
X154928915Y-113719756D01*
X155017317Y-113475426D01*
X155092551Y-113240688D01*
X155149067Y-113028951D01*
X155181316Y-112853623D01*
X155188729Y-112780114D01*
X155186532Y-112605264D01*
X155141092Y-112477975D01*
X155042065Y-112387043D01*
X154879106Y-112321267D01*
X154641869Y-112269443D01*
X154395305Y-112220702D01*
X154162684Y-112153349D01*
X153979959Y-112064276D01*
X153828199Y-111940957D01*
X153688474Y-111770862D01*
X153541853Y-111541464D01*
X153341376Y-111243078D01*
X153025697Y-110888619D01*
X152646757Y-110576327D01*
X152195938Y-110298241D01*
X152082216Y-110231676D01*
X151956187Y-110130032D01*
X151909678Y-110038415D01*
X151940316Y-109953625D01*
X151990249Y-109922245D01*
X152111500Y-109902917D01*
X152268540Y-109912125D01*
X152436266Y-109947777D01*
X152589576Y-110007778D01*
X152715251Y-110083008D01*
X152952059Y-110269327D01*
X153197844Y-110513698D01*
X153438530Y-110802937D01*
X153554228Y-110950974D01*
X153716729Y-111137805D01*
X153843921Y-111250904D01*
X153938374Y-111291018D01*
X154002658Y-111258893D01*
X154039343Y-111155278D01*
X154051000Y-110980918D01*
X154055811Y-110830948D01*
X154081813Y-110646392D01*
X154128494Y-110530313D01*
X154193734Y-110490000D01*
X154220161Y-110495661D01*
X154309124Y-110560199D01*
X154421348Y-110689112D01*
X154549169Y-110872856D01*
X154684925Y-111101885D01*
X154814244Y-111315976D01*
X154946565Y-111499615D01*
X155071742Y-111641246D01*
X155179747Y-111729526D01*
X155260553Y-111753107D01*
X155275148Y-111749619D01*
X155366510Y-111691221D01*
X155441107Y-111568584D01*
X155501944Y-111375019D01*
X155552023Y-111103834D01*
X155562974Y-111027203D01*
X155619486Y-110563806D01*
X155663132Y-110085150D01*
X155691347Y-109623699D01*
X155701564Y-109211916D01*
X155700416Y-109071455D01*
X155690570Y-108872881D01*
X155669103Y-108757485D01*
X155634131Y-108724591D01*
X155583775Y-108773524D01*
X155516152Y-108903608D01*
X155429380Y-109114167D01*
X155424399Y-109125854D01*
X155363698Y-109268280D01*
X155265904Y-109434588D01*
X155163639Y-109528893D01*
X155050533Y-109558667D01*
X154993037Y-109548641D01*
X154860991Y-109502590D01*
X154687935Y-109427086D01*
X154492328Y-109330882D01*
X154292629Y-109222731D01*
X154205663Y-109170483D01*
X154107299Y-109111387D01*
X153941942Y-109009706D01*
X153674448Y-108860607D01*
X153417944Y-108734867D01*
X153191412Y-108641541D01*
X153013834Y-108589687D01*
X152832224Y-108555506D01*
X152488484Y-108495283D01*
X152220591Y-108455754D01*
X152024361Y-108436449D01*
X151895611Y-108436897D01*
X151830156Y-108456627D01*
X151795321Y-108496126D01*
X151763938Y-108608153D01*
X151791915Y-108728747D01*
X151875403Y-108826441D01*
X151903179Y-108846232D01*
X152016611Y-108933755D01*
X152135053Y-109032310D01*
X152163007Y-109056938D01*
X152237325Y-109133234D01*
X152257582Y-109190581D01*
X152235095Y-109254060D01*
X152182272Y-109316427D01*
X152081154Y-109372288D01*
X152056815Y-109379820D01*
X151927624Y-109465022D01*
X151810741Y-109609928D01*
X151717348Y-109793475D01*
X151658631Y-109994600D01*
X151645773Y-110192238D01*
X151648715Y-110231466D01*
X151659907Y-110310811D01*
X151688171Y-110367972D01*
X151748609Y-110417030D01*
X151856324Y-110472065D01*
X152026415Y-110547159D01*
X152177047Y-110626436D01*
X152353229Y-110748290D01*
X152517181Y-110888516D01*
X152653437Y-111032278D01*
X152746532Y-111164740D01*
X152781000Y-111271065D01*
X152752026Y-111297103D01*
X152667117Y-111279356D01*
X152538640Y-111219911D01*
X152379041Y-111123342D01*
X152354570Y-111107222D01*
X152127121Y-110971579D01*
X151933619Y-110882267D01*
X151783540Y-110842925D01*
X151686360Y-110857195D01*
X151638197Y-110912146D01*
X151603424Y-111013004D01*
X151602770Y-111044954D01*
X151365562Y-111044954D01*
X151365550Y-111044228D01*
X151370686Y-110676321D01*
X151388980Y-110252547D01*
X151419283Y-109791780D01*
X151460444Y-109312893D01*
X151511313Y-108834759D01*
X151558965Y-108390279D01*
X151609115Y-107747871D01*
X151628981Y-107176329D01*
X151618491Y-106678359D01*
X151577578Y-106256667D01*
X151566555Y-106184654D01*
X151433432Y-105572354D01*
X151230846Y-104981675D01*
X150954093Y-104400897D01*
X150598468Y-103818303D01*
X150315460Y-103399167D01*
X150260313Y-102933500D01*
X150181172Y-102150561D01*
X150153041Y-101686383D01*
X150383014Y-101686383D01*
X150393469Y-101854000D01*
X150399631Y-101908695D01*
X150416770Y-102062794D01*
X150434594Y-102224989D01*
X150447311Y-102312443D01*
X150470623Y-102400695D01*
X150494203Y-102425994D01*
X150515779Y-102395309D01*
X150557088Y-102301825D01*
X150602554Y-102171928D01*
X150619328Y-102121497D01*
X150695030Y-101955458D01*
X150774118Y-101870392D01*
X150852509Y-101866973D01*
X150926119Y-101945875D01*
X150990866Y-102107773D01*
X150996914Y-102128676D01*
X151033473Y-102245991D01*
X151066012Y-102299713D01*
X151112712Y-102305246D01*
X151191755Y-102277997D01*
X151262203Y-102258914D01*
X151444255Y-102270232D01*
X151639695Y-102360976D01*
X151843516Y-102529215D01*
X151938864Y-102631369D01*
X152039972Y-102777339D01*
X152076130Y-102907894D01*
X152053530Y-103038034D01*
X152030315Y-103086254D01*
X151977003Y-103118600D01*
X151874631Y-103111651D01*
X151782064Y-103083185D01*
X151640060Y-103016914D01*
X151493639Y-102930466D01*
X151492399Y-102929643D01*
X151369363Y-102854224D01*
X151274603Y-102807544D01*
X151228544Y-102799680D01*
X151225265Y-102806611D01*
X151221691Y-102877760D01*
X151230092Y-103004619D01*
X151249235Y-103165370D01*
X151256224Y-103216520D01*
X151276837Y-103431571D01*
X151269359Y-103567589D01*
X151230482Y-103626349D01*
X151156900Y-103609627D01*
X151045303Y-103519197D01*
X150892383Y-103356834D01*
X150874748Y-103337024D01*
X150729328Y-103188162D01*
X150624971Y-103108002D01*
X150561893Y-103091590D01*
X150540311Y-103133974D01*
X150560443Y-103230200D01*
X150622506Y-103375315D01*
X150726716Y-103564365D01*
X150873292Y-103792396D01*
X150932805Y-103882522D01*
X151123945Y-104207035D01*
X151309290Y-104569143D01*
X151472284Y-104934992D01*
X151596367Y-105270728D01*
X151698110Y-105629670D01*
X151779639Y-106021139D01*
X151840176Y-106452848D01*
X151883432Y-106946462D01*
X151896147Y-107113868D01*
X151920274Y-107335073D01*
X151948042Y-107478448D01*
X151980139Y-107548282D01*
X151988119Y-107554718D01*
X152072383Y-107588744D01*
X152213409Y-107621503D01*
X152388072Y-107647378D01*
X152391895Y-107647808D01*
X152597224Y-107679800D01*
X152777097Y-107731466D01*
X152953001Y-107812697D01*
X153146424Y-107933383D01*
X153378854Y-108103415D01*
X153439679Y-108149086D01*
X153731527Y-108341597D01*
X153986003Y-108460438D01*
X154205663Y-108506218D01*
X154393069Y-108479541D01*
X154550778Y-108381015D01*
X154571239Y-108360664D01*
X154674658Y-108194507D01*
X154718938Y-107991351D01*
X154708190Y-107767403D01*
X154646529Y-107538871D01*
X154538068Y-107321963D01*
X154386920Y-107132886D01*
X154197198Y-106987848D01*
X154141561Y-106958710D01*
X153978015Y-106887110D01*
X153812622Y-106829138D01*
X153647718Y-106770907D01*
X153493439Y-106681697D01*
X153442990Y-106612098D01*
X154656338Y-106612098D01*
X154718131Y-106905817D01*
X154851738Y-107238986D01*
X154933343Y-107376536D01*
X155054628Y-107527334D01*
X155189121Y-107656515D01*
X155318488Y-107746739D01*
X155424399Y-107780667D01*
X155503076Y-107764795D01*
X155563738Y-107707380D01*
X155598685Y-107601717D01*
X155608263Y-107441214D01*
X155592817Y-107219283D01*
X155552694Y-106929333D01*
X155488239Y-106564775D01*
X155455308Y-106401116D01*
X155405301Y-106207734D01*
X155350204Y-106080832D01*
X155282221Y-106009533D01*
X155193557Y-105982961D01*
X155076415Y-105990240D01*
X155019884Y-105999870D01*
X154869136Y-106044462D01*
X154771702Y-106118382D01*
X154703583Y-106237548D01*
X154666612Y-106359530D01*
X154656338Y-106612098D01*
X153442990Y-106612098D01*
X153422293Y-106583545D01*
X153434663Y-106478615D01*
X153530934Y-106369076D01*
X153711488Y-106257094D01*
X153836442Y-106186768D01*
X153947749Y-106108934D01*
X154007073Y-106047979D01*
X154031112Y-105985020D01*
X154048661Y-105822123D01*
X154031377Y-105593597D01*
X153979047Y-105293767D01*
X153973598Y-105267266D01*
X153938919Y-105072383D01*
X153933826Y-104950192D01*
X153964737Y-104897753D01*
X154038074Y-104912126D01*
X154160256Y-104990373D01*
X154337703Y-105129554D01*
X154509626Y-105267034D01*
X154703383Y-105412275D01*
X154852148Y-105508810D01*
X154965217Y-105562493D01*
X155051888Y-105579176D01*
X155115018Y-105572078D01*
X155159577Y-105539996D01*
X155174750Y-105471989D01*
X155160373Y-105357249D01*
X155116283Y-105184967D01*
X155042317Y-104944334D01*
X155040135Y-104937479D01*
X154989505Y-104768159D01*
X154927369Y-104545990D01*
X154861396Y-104299029D01*
X154799259Y-104055334D01*
X154747259Y-103854206D01*
X154685232Y-103645349D01*
X154634910Y-103518273D01*
X154595893Y-103471828D01*
X154553745Y-103489900D01*
X154479582Y-103573990D01*
X154390173Y-103715768D01*
X154307841Y-103847941D01*
X154284066Y-103879449D01*
X154217837Y-103967220D01*
X154145635Y-104037612D01*
X154089783Y-104070548D01*
X154023589Y-104079057D01*
X153940176Y-104034789D01*
X153876327Y-103985119D01*
X153803910Y-103901991D01*
X153733288Y-103783924D01*
X153658590Y-103619193D01*
X153573945Y-103396071D01*
X153473479Y-103102834D01*
X153449110Y-103030028D01*
X153286320Y-102575198D01*
X153130731Y-102199114D01*
X152979786Y-101897140D01*
X152920027Y-101803800D01*
X153674750Y-101803800D01*
X153700274Y-101971959D01*
X153766343Y-102192667D01*
X153852840Y-102416657D01*
X153961703Y-102636939D01*
X154074286Y-102809335D01*
X154183953Y-102925433D01*
X154284066Y-102976823D01*
X154367988Y-102955093D01*
X154422406Y-102881996D01*
X154475426Y-102730542D01*
X154508404Y-102534216D01*
X154520415Y-102314279D01*
X154510537Y-102091988D01*
X154477846Y-101888605D01*
X154421417Y-101725387D01*
X154399947Y-101691723D01*
X154350608Y-101614362D01*
X154221231Y-101493790D01*
X154076641Y-101426987D01*
X153933496Y-101417327D01*
X153808452Y-101468184D01*
X153718169Y-101582933D01*
X153688123Y-101667335D01*
X153674750Y-101803800D01*
X152920027Y-101803800D01*
X152830929Y-101664636D01*
X152681604Y-101496963D01*
X152529254Y-101389484D01*
X152507709Y-101378626D01*
X152404984Y-101333978D01*
X152307508Y-101311645D01*
X152193420Y-101311129D01*
X152040862Y-101331936D01*
X151827973Y-101373569D01*
X151653060Y-101405437D01*
X151452297Y-101420141D01*
X151279508Y-101394131D01*
X151104940Y-101321767D01*
X150898838Y-101197407D01*
X150759102Y-101107832D01*
X150638405Y-101040463D01*
X150557498Y-101014900D01*
X150500657Y-101026708D01*
X150452154Y-101071452D01*
X150444739Y-101082957D01*
X150417378Y-101175727D01*
X150396770Y-101323232D01*
X150384715Y-101501455D01*
X150383014Y-101686383D01*
X150153041Y-101686383D01*
X150125386Y-101230075D01*
X150114684Y-100356715D01*
X150143534Y-99660389D01*
X150399654Y-99660389D01*
X150402804Y-99792751D01*
X150427543Y-99879449D01*
X150474281Y-99933863D01*
X150477873Y-99934856D01*
X150547184Y-99922176D01*
X150663388Y-99875648D01*
X150803379Y-99804363D01*
X150944114Y-99732836D01*
X151149707Y-99664974D01*
X151322854Y-99663444D01*
X151474582Y-99726973D01*
X151517865Y-99758258D01*
X151626690Y-99844281D01*
X151766966Y-99960463D01*
X151919082Y-100090757D01*
X151945653Y-100113793D01*
X152183861Y-100306689D01*
X152406573Y-100455232D01*
X152633816Y-100567852D01*
X152885618Y-100652982D01*
X153182003Y-100719054D01*
X153543000Y-100774500D01*
X153709908Y-100798412D01*
X153922414Y-100833656D01*
X154104718Y-100869032D01*
X154229866Y-100899630D01*
X154285379Y-100915077D01*
X154399947Y-100934000D01*
X154454741Y-100920121D01*
X154458818Y-100910373D01*
X154476284Y-100831023D01*
X154496961Y-100696947D01*
X154517199Y-100530878D01*
X154521881Y-100489973D01*
X154553596Y-100266031D01*
X154596311Y-100016886D01*
X154642153Y-99789269D01*
X154669427Y-99663705D01*
X154697019Y-99515512D01*
X154705396Y-99416066D01*
X154695635Y-99344830D01*
X154668814Y-99281269D01*
X154623360Y-99202151D01*
X154537276Y-99072870D01*
X154442180Y-98946366D01*
X154351889Y-98839674D01*
X154303612Y-98792622D01*
X154280222Y-98769826D01*
X154240995Y-98753858D01*
X154228211Y-98762734D01*
X154234137Y-98736893D01*
X154236621Y-98730807D01*
X154223929Y-98662470D01*
X154169540Y-98572026D01*
X154118056Y-98515161D01*
X154077153Y-98498467D01*
X154052469Y-98538106D01*
X154042465Y-98641011D01*
X154045605Y-98814115D01*
X154060349Y-99064352D01*
X154072054Y-99293604D01*
X154067836Y-99496271D01*
X154039990Y-99635463D01*
X153984199Y-99721863D01*
X153896145Y-99766154D01*
X153771511Y-99779019D01*
X153599460Y-99742330D01*
X153433363Y-99639255D01*
X153293847Y-99488121D01*
X153197772Y-99307294D01*
X153162000Y-99115138D01*
X153162046Y-99105659D01*
X153175972Y-98966614D01*
X153220700Y-98826630D01*
X153304906Y-98665100D01*
X153437267Y-98461417D01*
X153504601Y-98346192D01*
X153522843Y-98297600D01*
X154564856Y-98297600D01*
X154588406Y-98514387D01*
X154638490Y-98710701D01*
X154710857Y-98870629D01*
X154801256Y-98978255D01*
X154905436Y-99017667D01*
X154949448Y-99011220D01*
X155067937Y-98969935D01*
X155211414Y-98902380D01*
X155353810Y-98822544D01*
X155469053Y-98744414D01*
X155531073Y-98681979D01*
X155559034Y-98614862D01*
X155570286Y-98493974D01*
X155535749Y-98343806D01*
X155452644Y-98145338D01*
X155428511Y-98096258D01*
X155303103Y-97888196D01*
X155165698Y-97724286D01*
X155028277Y-97616881D01*
X154902817Y-97578334D01*
X154900014Y-97578346D01*
X154772690Y-97612322D01*
X154676590Y-97716037D01*
X154605777Y-97895834D01*
X154572091Y-98076255D01*
X154564856Y-98297600D01*
X153522843Y-98297600D01*
X153600960Y-98089512D01*
X153651268Y-97810471D01*
X153647235Y-97545247D01*
X153639365Y-97498052D01*
X153604923Y-97342286D01*
X153554725Y-97150384D01*
X153496675Y-96953411D01*
X153486838Y-96917097D01*
X153989191Y-96917097D01*
X154007053Y-97242562D01*
X154023770Y-97315023D01*
X154070947Y-97459143D01*
X154132609Y-97608675D01*
X154198668Y-97742111D01*
X154259032Y-97837944D01*
X154303612Y-97874667D01*
X154329647Y-97853555D01*
X154381401Y-97772962D01*
X154440482Y-97652739D01*
X154468671Y-97590369D01*
X154546296Y-97426800D01*
X154641457Y-97233283D01*
X154739635Y-97039579D01*
X154792306Y-96932877D01*
X154874520Y-96746364D01*
X154936200Y-96580730D01*
X154966914Y-96462464D01*
X154974955Y-96343905D01*
X154947384Y-96145394D01*
X154871419Y-95986448D01*
X154755115Y-95880921D01*
X154606526Y-95842667D01*
X154538618Y-95858979D01*
X154420224Y-95938177D01*
X154297165Y-96067667D01*
X154184973Y-96230132D01*
X154099181Y-96408258D01*
X154045719Y-96574537D01*
X153989191Y-96917097D01*
X153486838Y-96917097D01*
X153430555Y-96709324D01*
X153380586Y-96397068D01*
X153380435Y-96128216D01*
X153430861Y-95914729D01*
X153462126Y-95852567D01*
X153600995Y-95683578D01*
X153801835Y-95533910D01*
X154047903Y-95417065D01*
X154049114Y-95416623D01*
X154285601Y-95300487D01*
X154492229Y-95145091D01*
X154538956Y-95102848D01*
X154724338Y-94975717D01*
X154948500Y-94889394D01*
X155215167Y-94812794D01*
X155024667Y-94755420D01*
X154754365Y-94693800D01*
X154335550Y-94662647D01*
X153900144Y-94697580D01*
X153465431Y-94795569D01*
X153048699Y-94953585D01*
X152667232Y-95168598D01*
X152663982Y-95170801D01*
X152240164Y-95507354D01*
X151848162Y-95917406D01*
X151491715Y-96394621D01*
X151174564Y-96932659D01*
X150900446Y-97525183D01*
X150673102Y-98165854D01*
X150496271Y-98848334D01*
X150462250Y-99034391D01*
X150432043Y-99254268D01*
X150410289Y-99471914D01*
X150399654Y-99660389D01*
X150143534Y-99660389D01*
X150148739Y-99534771D01*
X150227222Y-98768533D01*
X150349804Y-98062291D01*
X150516159Y-97420336D01*
X150725956Y-96846956D01*
X150851699Y-96574291D01*
X151065062Y-96195679D01*
X151313468Y-95855405D01*
X151615972Y-95525167D01*
X151676860Y-95465329D01*
X151963874Y-95209135D01*
X152250559Y-95002724D01*
X152558159Y-94834099D01*
X152907919Y-94691262D01*
X153321083Y-94562217D01*
X153364739Y-94550328D01*
X153509017Y-94516746D01*
X153657099Y-94493778D01*
X153829184Y-94479574D01*
X154045473Y-94472279D01*
X154326167Y-94470042D01*
X154421467Y-94470023D01*
X154658156Y-94471623D01*
X154835868Y-94477439D01*
X154973864Y-94489692D01*
X155091405Y-94510607D01*
X155207752Y-94542406D01*
X155342167Y-94587313D01*
X155743283Y-94751535D01*
X156133767Y-94969206D01*
X156524404Y-95250253D01*
X156563041Y-95281374D01*
X156969261Y-95661049D01*
X157353269Y-96116244D01*
X157711729Y-96640474D01*
X158041304Y-97227255D01*
X158338659Y-97870102D01*
X158600456Y-98562531D01*
X158823361Y-99298055D01*
X159004037Y-100070191D01*
X159038768Y-100253791D01*
X159128824Y-100866204D01*
X159194065Y-101543330D01*
X159234565Y-102272946D01*
X159250396Y-103042830D01*
X159241633Y-103840761D01*
X159208347Y-104654515D01*
X159150613Y-105471870D01*
X159068504Y-106280605D01*
X158962093Y-107068498D01*
X158907300Y-107446672D01*
X158875429Y-107725471D01*
X158809911Y-108298606D01*
X158759483Y-109080522D01*
G37*
G36*
X149805406Y-114933270D02*
G01*
X149918033Y-115033158D01*
X150065268Y-115202336D01*
X150111358Y-115258142D01*
X150294048Y-115462584D01*
X150465239Y-115618707D01*
X150649771Y-115746993D01*
X150872485Y-115867923D01*
X150982034Y-115927732D01*
X151150603Y-116049059D01*
X151260224Y-116172242D01*
X151299334Y-116285957D01*
X151260817Y-116408686D01*
X151159974Y-116510454D01*
X151019161Y-116568566D01*
X150985512Y-116572257D01*
X150829829Y-116550660D01*
X150635524Y-116481668D01*
X150418805Y-116375553D01*
X150195882Y-116242591D01*
X149982964Y-116093054D01*
X149796261Y-115937218D01*
X149651983Y-115785355D01*
X149566339Y-115647739D01*
X149535700Y-115522335D01*
X149525846Y-115340149D01*
X149543003Y-115158470D01*
X149585921Y-115017565D01*
X149587054Y-115015383D01*
X149648727Y-114927779D01*
X149718574Y-114899276D01*
X149805406Y-114933270D01*
G37*
G36*
X151873231Y-96437574D02*
G01*
X151903595Y-96457119D01*
X151919344Y-96510983D01*
X151924218Y-96615926D01*
X151921956Y-96788709D01*
X151920010Y-96922303D01*
X151925456Y-97058821D01*
X151947093Y-97162453D01*
X151992252Y-97263424D01*
X152068263Y-97391959D01*
X152089356Y-97426732D01*
X152196019Y-97633656D01*
X152240127Y-97798063D01*
X152223010Y-97931122D01*
X152146000Y-98044000D01*
X152049830Y-98106468D01*
X151896498Y-98132996D01*
X151736376Y-98100423D01*
X151597980Y-98010493D01*
X151551045Y-97952760D01*
X151463355Y-97788077D01*
X151386669Y-97571425D01*
X151329417Y-97324334D01*
X151323474Y-97287688D01*
X151311770Y-97023699D01*
X151357587Y-96798337D01*
X151457299Y-96622280D01*
X151607278Y-96506206D01*
X151627400Y-96497004D01*
X151748325Y-96453166D01*
X151843107Y-96435334D01*
X151873231Y-96437574D01*
G37*
G36*
X152564695Y-105732002D02*
G01*
X152648804Y-105786606D01*
X152743452Y-105911541D01*
X152821609Y-106078880D01*
X152876972Y-106266192D01*
X152903242Y-106451047D01*
X152894116Y-106611016D01*
X152843292Y-106723669D01*
X152776827Y-106775793D01*
X152648859Y-106800562D01*
X152506485Y-106756034D01*
X152362138Y-106647156D01*
X152228254Y-106478877D01*
X152224138Y-106472339D01*
X152126059Y-106257542D01*
X152110531Y-106057640D01*
X152177324Y-105869873D01*
X152260455Y-105772510D01*
X152399803Y-105713030D01*
X152564695Y-105732002D01*
G37*
G36*
X145542000Y-105134834D02*
G01*
X145520834Y-105156000D01*
X145499667Y-105134834D01*
X145520834Y-105113667D01*
X145542000Y-105134834D01*
G37*
G36*
X150325667Y-108436834D02*
G01*
X150304500Y-108458000D01*
X150283334Y-108436834D01*
X150304500Y-108415667D01*
X150325667Y-108436834D01*
G37*
G36*
X154054602Y-107289509D02*
G01*
X154211028Y-107353968D01*
X154317660Y-107464148D01*
X154373644Y-107601691D01*
X154378126Y-107748235D01*
X154330251Y-107885422D01*
X154229165Y-107994890D01*
X154074013Y-108058281D01*
X153911770Y-108068045D01*
X153774867Y-108016621D01*
X153667238Y-107893304D01*
X153622825Y-107804659D01*
X153588961Y-107631525D01*
X153622468Y-107478570D01*
X153714436Y-107360374D01*
X153855951Y-107291516D01*
X154038102Y-107286576D01*
X154054602Y-107289509D01*
G37*
G36*
X152353752Y-103814321D02*
G01*
X152500971Y-103889738D01*
X152592606Y-103975508D01*
X152678610Y-104113682D01*
X152724868Y-104293198D01*
X152738667Y-104533805D01*
X152737475Y-104632835D01*
X152725580Y-104783643D01*
X152695981Y-104893036D01*
X152642650Y-104989626D01*
X152611045Y-105032228D01*
X152475262Y-105144906D01*
X152323861Y-105181841D01*
X152169504Y-105145245D01*
X152024857Y-105037331D01*
X151902584Y-104860312D01*
X151844867Y-104712516D01*
X151813185Y-104510053D01*
X151827841Y-104313580D01*
X151881909Y-104134334D01*
X151968461Y-103983549D01*
X152080570Y-103872462D01*
X152211309Y-103812307D01*
X152353752Y-103814321D01*
G37*
G36*
X141752892Y-98467368D02*
G01*
X141900380Y-98503814D01*
X142005394Y-98594628D01*
X142062814Y-98718869D01*
X142067520Y-98855594D01*
X142014391Y-98983863D01*
X141898306Y-99082733D01*
X141830357Y-99116524D01*
X141753129Y-99139007D01*
X141680014Y-99121183D01*
X141573250Y-99060464D01*
X141494454Y-99004361D01*
X141446752Y-98928124D01*
X141435667Y-98808272D01*
X141438045Y-98760589D01*
X141488211Y-98605717D01*
X141595159Y-98503942D01*
X141747838Y-98467334D01*
X141752892Y-98467368D01*
G37*
G36*
X151671653Y-113057111D02*
G01*
X151700570Y-113085386D01*
X151723409Y-113142312D01*
X151738760Y-113240267D01*
X151748805Y-113393793D01*
X151755727Y-113617437D01*
X151757099Y-113679657D01*
X151759674Y-113879931D01*
X151756384Y-114013676D01*
X151745622Y-114095326D01*
X151725779Y-114139320D01*
X151695245Y-114160092D01*
X151664099Y-114164643D01*
X151584820Y-114127540D01*
X151477868Y-114021683D01*
X151427870Y-113961875D01*
X151345534Y-113851558D01*
X151297616Y-113770834D01*
X151272665Y-113694269D01*
X151266573Y-113495902D01*
X151339358Y-113299379D01*
X151487714Y-113116084D01*
X151532978Y-113076626D01*
X151606847Y-113038712D01*
X151671653Y-113057111D01*
G37*
G36*
X150876000Y-103526167D02*
G01*
X150854834Y-103547334D01*
X150833667Y-103526167D01*
X150854834Y-103505000D01*
X150876000Y-103526167D01*
G37*
G36*
X143086667Y-106235500D02*
G01*
X143065500Y-106256667D01*
X143044334Y-106235500D01*
X143065500Y-106214334D01*
X143086667Y-106235500D01*
G37*
G36*
X154347334Y-103949500D02*
G01*
X154326167Y-103970667D01*
X154305000Y-103949500D01*
X154326167Y-103928334D01*
X154347334Y-103949500D01*
G37*
G36*
X145118667Y-102848834D02*
G01*
X145097500Y-102870000D01*
X145076334Y-102848834D01*
X145097500Y-102827667D01*
X145118667Y-102848834D01*
G37*
%TO.C,svg2mod*%
G36*
X160008094Y-77577196D02*
G01*
X160074769Y-77815321D01*
X159948563Y-78122502D01*
X159679481Y-78274902D01*
X159679481Y-77674827D01*
X159831881Y-77493852D01*
X160008094Y-77577196D01*
G37*
G36*
X156186981Y-93894315D02*
G01*
X156186981Y-90302596D01*
X158236444Y-90302596D01*
X158281687Y-90454996D01*
X158374556Y-90543102D01*
X158510552Y-90605544D01*
X158797890Y-90729369D01*
X159236569Y-90914577D01*
X159227044Y-91062215D01*
X159227044Y-91662290D01*
X158688881Y-91662290D01*
X158524575Y-91669433D01*
X158398369Y-91714677D01*
X158301928Y-91840883D01*
X158269781Y-92086152D01*
X158313834Y-92350471D01*
X158445994Y-92476677D01*
X158693644Y-92505252D01*
X161336831Y-92505252D01*
X161501138Y-92498108D01*
X161627344Y-92452865D01*
X161723784Y-92326658D01*
X161755931Y-92081390D01*
X161755931Y-91052690D01*
X161722065Y-90775936D01*
X161620465Y-90504473D01*
X161451131Y-90238302D01*
X161277300Y-90064471D01*
X161051081Y-89923977D01*
X160784381Y-89831108D01*
X160489106Y-89800152D01*
X160151498Y-89839840D01*
X159856223Y-89958902D01*
X159603281Y-90157340D01*
X159408019Y-90074790D01*
X159158781Y-89966840D01*
X158855569Y-89833490D01*
X158607919Y-89762052D01*
X158441231Y-89835871D01*
X158303119Y-90057327D01*
X158236444Y-90302596D01*
X156186981Y-90302596D01*
X156186981Y-88219002D01*
X158203106Y-88219002D01*
X158233467Y-88551782D01*
X158324550Y-88845271D01*
X158465639Y-89088754D01*
X158646019Y-89271515D01*
X158913248Y-89438202D01*
X159200585Y-89538215D01*
X159508031Y-89571552D01*
X159881358Y-89528425D01*
X160201240Y-89399044D01*
X160467675Y-89183408D01*
X160667435Y-88903215D01*
X160787292Y-88580158D01*
X160827244Y-88214240D01*
X160798073Y-87905273D01*
X160710563Y-87640358D01*
X160564711Y-87419498D01*
X160360519Y-87242690D01*
X160101558Y-87121246D01*
X159819975Y-87080765D01*
X159565181Y-87117079D01*
X159386587Y-87226021D01*
X159246094Y-87547490D01*
X159246094Y-88676202D01*
X159022256Y-88519040D01*
X158931769Y-88204715D01*
X158946056Y-87958255D01*
X158988919Y-87771327D01*
X159007969Y-87718940D01*
X159060356Y-87528440D01*
X158846044Y-87266502D01*
X158626969Y-87204590D01*
X158441529Y-87267990D01*
X158309072Y-87458193D01*
X158229598Y-87775197D01*
X158203106Y-88219002D01*
X156186981Y-88219002D01*
X156186981Y-86361627D01*
X157179169Y-86361627D01*
X157207744Y-86597371D01*
X157302994Y-86721196D01*
X157422056Y-86764058D01*
X157583981Y-86771202D01*
X160365281Y-86771202D01*
X160527206Y-86764058D01*
X160646269Y-86723577D01*
X160742709Y-86610468D01*
X160774856Y-86404490D01*
X160710563Y-86063971D01*
X160522444Y-85961577D01*
X160708181Y-85728810D01*
X160770094Y-85392458D01*
X160729348Y-85138194D01*
X160607110Y-84892925D01*
X160403381Y-84656652D01*
X160145677Y-84463506D01*
X159861515Y-84347619D01*
X159550894Y-84308990D01*
X159240273Y-84347354D01*
X158956110Y-84462448D01*
X158698406Y-84654271D01*
X158494677Y-84889486D01*
X158372440Y-85134754D01*
X158331694Y-85390077D01*
X158386462Y-85727024D01*
X158550769Y-85956815D01*
X157588744Y-85956815D01*
X157426819Y-85963958D01*
X157305375Y-86006821D01*
X157207744Y-86128265D01*
X157179169Y-86361627D01*
X156186981Y-86361627D01*
X156186981Y-82670690D01*
X158265019Y-82670690D01*
X158289890Y-82974431D01*
X158364502Y-83225256D01*
X158488856Y-83423165D01*
X158672477Y-83566040D01*
X158924890Y-83651765D01*
X159246094Y-83680340D01*
X159950944Y-83680340D01*
X159936656Y-83875602D01*
X160017619Y-84049433D01*
X160293844Y-84118490D01*
X160577213Y-84094677D01*
X160703419Y-84028002D01*
X160765331Y-83837502D01*
X160746281Y-83680340D01*
X161236819Y-83680340D01*
X161398744Y-83673196D01*
X161513044Y-83627952D01*
X161602341Y-83505318D01*
X161632106Y-83261240D01*
X161588053Y-83002874D01*
X161455894Y-82875477D01*
X161213006Y-82851665D01*
X160746281Y-82851665D01*
X160765331Y-82534958D01*
X160758188Y-82373033D01*
X160712944Y-82246827D01*
X160590309Y-82153958D01*
X160346231Y-82123002D01*
X160104534Y-82155149D01*
X159979519Y-82251590D01*
X159939038Y-82377796D01*
X159931894Y-82542102D01*
X159950944Y-82851665D01*
X159293719Y-82851665D01*
X159107981Y-82811183D01*
X159050831Y-82658783D01*
X159043687Y-82487333D01*
X158998444Y-82361127D01*
X158679356Y-82251590D01*
X158437659Y-82284927D01*
X158312644Y-82384940D01*
X158272162Y-82511146D01*
X158265019Y-82670690D01*
X156186981Y-82670690D01*
X156186981Y-81446727D01*
X158265019Y-81446727D01*
X158297166Y-81688424D01*
X158393606Y-81813440D01*
X158517431Y-81853921D01*
X158684119Y-81861065D01*
X160355756Y-81861065D01*
X160520063Y-81853921D01*
X160646269Y-81813440D01*
X160739138Y-81687233D01*
X160769793Y-81444346D01*
X161112994Y-81444346D01*
X161141569Y-81684852D01*
X161241581Y-81811058D01*
X161367788Y-81853921D01*
X161532094Y-81861065D01*
X161696400Y-81853921D01*
X161817844Y-81813440D01*
X161914284Y-81687233D01*
X161946431Y-81441965D01*
X161914284Y-81201458D01*
X161817844Y-81080015D01*
X161691638Y-81034771D01*
X161527331Y-81027627D01*
X161363025Y-81034771D01*
X161239200Y-81077633D01*
X161141569Y-81203840D01*
X161112994Y-81444346D01*
X160769793Y-81444346D01*
X160770094Y-81441965D01*
X160689131Y-81118115D01*
X160484344Y-81032390D01*
X160346231Y-81027627D01*
X158679356Y-81027627D01*
X158515050Y-81034771D01*
X158388844Y-81080015D01*
X158295975Y-81202649D01*
X158265019Y-81446727D01*
X156186981Y-81446727D01*
X156186981Y-79656027D01*
X158262637Y-79656027D01*
X158284069Y-80037027D01*
X158368603Y-80339446D01*
X158526956Y-80513277D01*
X158829375Y-80613290D01*
X159269906Y-80646627D01*
X161536856Y-80646627D01*
X161701163Y-80639483D01*
X161827369Y-80599002D01*
X161923809Y-80472796D01*
X161955956Y-80227527D01*
X161923809Y-79991783D01*
X161827369Y-79865577D01*
X161698781Y-79820333D01*
X161532094Y-79813190D01*
X159327056Y-79813190D01*
X159110362Y-79784615D01*
X159065119Y-79658408D01*
X159057975Y-79527440D01*
X159017494Y-79446477D01*
X158679356Y-79351227D01*
X158437659Y-79375040D01*
X158312644Y-79446477D01*
X158262637Y-79656027D01*
X156186981Y-79656027D01*
X156186981Y-77808177D01*
X158203106Y-77808177D01*
X158233467Y-78140957D01*
X158324550Y-78434446D01*
X158465639Y-78677929D01*
X158646019Y-78860690D01*
X158913248Y-79027377D01*
X159200585Y-79127390D01*
X159508031Y-79160727D01*
X159881358Y-79117600D01*
X160201240Y-78988219D01*
X160467675Y-78772583D01*
X160667435Y-78492390D01*
X160787292Y-78169333D01*
X160827244Y-77803415D01*
X160798073Y-77494448D01*
X160710563Y-77229533D01*
X160564711Y-77008673D01*
X160360519Y-76831865D01*
X160101558Y-76710421D01*
X159819975Y-76669940D01*
X159565181Y-76706254D01*
X159386587Y-76815196D01*
X159246094Y-77136665D01*
X159246094Y-78265377D01*
X159022256Y-78108215D01*
X158931769Y-77793890D01*
X158946056Y-77547430D01*
X158988919Y-77360502D01*
X159007969Y-77308115D01*
X159060356Y-77117615D01*
X158846044Y-76855677D01*
X158626969Y-76793765D01*
X158441529Y-76857165D01*
X158309072Y-77047368D01*
X158229598Y-77364372D01*
X158203106Y-77808177D01*
X156186981Y-77808177D01*
X156186981Y-71802665D01*
X158269781Y-71802665D01*
X158293594Y-72021740D01*
X158350744Y-72145565D01*
X158445994Y-72212240D01*
X158693644Y-72236052D01*
X160289081Y-72236052D01*
X160097986Y-72382499D01*
X159819975Y-72583715D01*
X159558633Y-72770643D01*
X159417544Y-72874227D01*
X159305625Y-72959952D01*
X159219900Y-73076633D01*
X159165131Y-73276658D01*
X159215137Y-73471921D01*
X159312769Y-73598127D01*
X159365156Y-73636227D01*
X159551489Y-73777912D01*
X159872363Y-74012465D01*
X160170614Y-74229158D01*
X160289081Y-74317265D01*
X158684119Y-74317265D01*
X158519812Y-74324408D01*
X158398369Y-74369652D01*
X158301928Y-74498240D01*
X158269781Y-74741127D01*
X158301928Y-74976871D01*
X158398369Y-75103077D01*
X158522194Y-75148321D01*
X158693644Y-75155465D01*
X161336831Y-75155465D01*
X161501138Y-75148321D01*
X161627344Y-75103077D01*
X161720213Y-74974490D01*
X161751169Y-74731602D01*
X161720213Y-74510146D01*
X161655919Y-74388702D01*
X161627344Y-74360127D01*
X160208119Y-73279040D01*
X160607597Y-72976716D01*
X160948783Y-72717446D01*
X161231675Y-72501228D01*
X161456275Y-72328064D01*
X161622581Y-72197952D01*
X161719022Y-72061626D01*
X161751169Y-71814571D01*
X161719022Y-71571088D01*
X161622581Y-71445477D01*
X161493994Y-71400233D01*
X161327306Y-71393090D01*
X158684119Y-71393090D01*
X158423372Y-71438333D01*
X158298356Y-71574065D01*
X158269781Y-71802665D01*
X156186981Y-71802665D01*
X156186981Y-69773840D01*
X158222156Y-69773840D01*
X158260852Y-70083402D01*
X158376937Y-70383440D01*
X158568628Y-70655497D01*
X158834137Y-70881121D01*
X159156202Y-71032926D01*
X159517556Y-71083527D01*
X159876331Y-71039077D01*
X160190656Y-70905727D01*
X160460531Y-70683477D01*
X160666906Y-70404077D01*
X160790731Y-70099277D01*
X160832006Y-69769077D01*
X160790996Y-69439406D01*
X160667965Y-69136194D01*
X160462913Y-68859440D01*
X160194360Y-68639836D01*
X159880829Y-68508073D01*
X159522319Y-68464152D01*
X159149058Y-68515349D01*
X158819850Y-68668940D01*
X158553150Y-68895754D01*
X158367412Y-69166621D01*
X158258470Y-69464872D01*
X158222156Y-69773840D01*
X156186981Y-69773840D01*
X156186981Y-66068615D01*
X158269781Y-66068615D01*
X158313834Y-66335315D01*
X158445994Y-66459140D01*
X158688881Y-66487715D01*
X159527081Y-66487715D01*
X159831881Y-66599633D01*
X159941419Y-66899671D01*
X159827119Y-67204471D01*
X159527081Y-67321152D01*
X158684119Y-67321152D01*
X158519812Y-67328296D01*
X158398369Y-67373540D01*
X158301928Y-67496174D01*
X158269781Y-67740252D01*
X158301928Y-67981949D01*
X158398369Y-68106965D01*
X158524575Y-68147446D01*
X158688881Y-68154590D01*
X160374806Y-68154590D01*
X160534350Y-68147446D01*
X160655794Y-68102202D01*
X160745091Y-67977187D01*
X160774856Y-67735490D01*
X160747472Y-67500937D01*
X160665319Y-67378302D01*
X160470056Y-67330677D01*
X160565306Y-67244952D01*
X160665319Y-67116365D01*
X160774856Y-66759177D01*
X160734375Y-66459404D01*
X160612931Y-66195086D01*
X160410525Y-65966221D01*
X160149910Y-65790273D01*
X159853842Y-65684704D01*
X159522319Y-65649515D01*
X158684119Y-65649515D01*
X158519812Y-65656658D01*
X158398369Y-65697140D01*
X158301928Y-65823346D01*
X158269781Y-66068615D01*
X156186981Y-66068615D01*
X156186981Y-64854177D01*
X158265019Y-64854177D01*
X158297166Y-65095874D01*
X158393606Y-65220890D01*
X158517431Y-65261371D01*
X158684119Y-65268515D01*
X160355756Y-65268515D01*
X160520063Y-65261371D01*
X160646269Y-65220890D01*
X160739138Y-65094683D01*
X160769793Y-64851796D01*
X161112994Y-64851796D01*
X161141569Y-65092302D01*
X161241581Y-65218508D01*
X161367788Y-65261371D01*
X161532094Y-65268515D01*
X161696400Y-65261371D01*
X161817844Y-65220890D01*
X161914284Y-65094683D01*
X161946431Y-64849415D01*
X161914284Y-64608908D01*
X161817844Y-64487465D01*
X161691638Y-64442221D01*
X161527331Y-64435077D01*
X161363025Y-64442221D01*
X161239200Y-64485083D01*
X161141569Y-64611290D01*
X161112994Y-64851796D01*
X160769793Y-64851796D01*
X160770094Y-64849415D01*
X160689131Y-64525565D01*
X160484344Y-64439840D01*
X160346231Y-64435077D01*
X158679356Y-64435077D01*
X158515050Y-64442221D01*
X158388844Y-64487465D01*
X158295975Y-64610099D01*
X158265019Y-64854177D01*
X156186981Y-64854177D01*
X156186981Y-62725340D01*
X158265019Y-62725340D01*
X158289890Y-63029081D01*
X158364502Y-63279906D01*
X158488856Y-63477815D01*
X158672477Y-63620690D01*
X158924890Y-63706415D01*
X159246094Y-63734990D01*
X159950944Y-63734990D01*
X159936656Y-63930252D01*
X160017619Y-64104083D01*
X160293844Y-64173140D01*
X160577213Y-64149327D01*
X160703419Y-64082652D01*
X160765331Y-63892152D01*
X160746281Y-63734990D01*
X161236819Y-63734990D01*
X161398744Y-63727846D01*
X161513044Y-63682602D01*
X161602341Y-63559968D01*
X161632106Y-63315890D01*
X161588053Y-63057524D01*
X161455894Y-62930127D01*
X161213006Y-62906315D01*
X160746281Y-62906315D01*
X160765331Y-62589608D01*
X160758188Y-62427683D01*
X160712944Y-62301477D01*
X160590309Y-62208608D01*
X160346231Y-62177652D01*
X160104534Y-62209799D01*
X159979519Y-62306240D01*
X159939038Y-62432446D01*
X159931894Y-62596752D01*
X159950944Y-62906315D01*
X159293719Y-62906315D01*
X159107981Y-62865833D01*
X159050831Y-62713433D01*
X159043687Y-62541983D01*
X158998444Y-62415777D01*
X158679356Y-62306240D01*
X158437659Y-62339577D01*
X158312644Y-62439590D01*
X158272162Y-62565796D01*
X158265019Y-62725340D01*
X156186981Y-62725340D01*
X156186981Y-60677465D01*
X158222156Y-60677465D01*
X158260852Y-60987027D01*
X158376937Y-61287065D01*
X158568628Y-61559122D01*
X158834137Y-61784746D01*
X159156202Y-61936551D01*
X159517556Y-61987152D01*
X159876331Y-61942702D01*
X160190656Y-61809352D01*
X160460531Y-61587102D01*
X160666906Y-61307702D01*
X160790731Y-61002902D01*
X160832006Y-60672702D01*
X160790996Y-60343031D01*
X160667965Y-60039819D01*
X160462913Y-59763065D01*
X160194360Y-59543461D01*
X159880829Y-59411698D01*
X159522319Y-59367777D01*
X159149058Y-59418974D01*
X158819850Y-59572565D01*
X158553150Y-59799379D01*
X158367412Y-60070246D01*
X158258470Y-60368497D01*
X158222156Y-60677465D01*
X156186981Y-60677465D01*
X156186981Y-58643877D01*
X158265019Y-58643877D01*
X158345981Y-58972490D01*
X158550769Y-59058215D01*
X160360519Y-59058215D01*
X160524825Y-59051071D01*
X160646269Y-59010590D01*
X160742709Y-58884383D01*
X160774856Y-58639115D01*
X160747472Y-58406943D01*
X160665319Y-58281927D01*
X160508156Y-58229540D01*
X160589119Y-58160483D01*
X160717706Y-57967602D01*
X160798669Y-57708046D01*
X160786763Y-57519927D01*
X160746281Y-57353240D01*
X160648650Y-57203221D01*
X160427194Y-57143690D01*
X160093819Y-57234177D01*
X159912844Y-57496115D01*
X159950944Y-57660421D01*
X159989044Y-57867590D01*
X159898556Y-58108096D01*
X159679481Y-58220015D01*
X158679356Y-58220015D01*
X158515050Y-58227158D01*
X158388844Y-58272402D01*
X158295975Y-58400990D01*
X158265019Y-58643877D01*
X156186981Y-58643877D01*
X156186981Y-57143293D01*
X156204215Y-56792488D01*
X156255751Y-56445061D01*
X156341093Y-56104359D01*
X156459418Y-55773662D01*
X156609587Y-55456155D01*
X156790155Y-55154897D01*
X156999381Y-54872787D01*
X157235252Y-54612544D01*
X157495495Y-54376674D01*
X157777604Y-54167447D01*
X158078862Y-53986880D01*
X158396369Y-53836711D01*
X158727066Y-53718385D01*
X159067768Y-53633044D01*
X159415195Y-53581508D01*
X159766000Y-53564274D01*
X160116805Y-53581508D01*
X160464232Y-53633044D01*
X160804934Y-53718385D01*
X161135631Y-53836711D01*
X161453138Y-53986880D01*
X161754396Y-54167447D01*
X162036505Y-54376674D01*
X162296748Y-54612544D01*
X162532619Y-54872787D01*
X162741845Y-55154897D01*
X162922413Y-55456155D01*
X163072582Y-55773662D01*
X163190907Y-56104359D01*
X163276249Y-56445061D01*
X163327785Y-56792488D01*
X163345019Y-57143293D01*
X163345019Y-96041726D01*
X156186981Y-93894315D01*
G37*
G36*
X159735441Y-60247649D02*
G01*
X159879506Y-60358377D01*
X159993806Y-60677465D01*
X159874744Y-60996552D01*
X159727702Y-61107280D01*
X159524700Y-61144190D01*
X159322294Y-61106090D01*
X159177037Y-60991790D01*
X159060356Y-60682227D01*
X159179419Y-60367902D01*
X159327056Y-60250030D01*
X159531844Y-60210740D01*
X159735441Y-60247649D01*
G37*
G36*
X160008094Y-87988021D02*
G01*
X160074769Y-88226146D01*
X159948563Y-88533327D01*
X159679481Y-88685727D01*
X159679481Y-88085652D01*
X159831881Y-87904677D01*
X160008094Y-87988021D01*
G37*
G36*
X159829500Y-85237677D02*
G01*
X159955706Y-85535333D01*
X159827119Y-85828227D01*
X159546131Y-85937765D01*
X159267525Y-85825846D01*
X159141319Y-85540096D01*
X159265144Y-85244821D01*
X159546131Y-85123377D01*
X159829500Y-85237677D01*
G37*
G36*
X159735441Y-69344024D02*
G01*
X159879506Y-69454752D01*
X159993806Y-69773840D01*
X159874744Y-70092927D01*
X159727702Y-70203655D01*
X159524700Y-70240565D01*
X159322294Y-70202465D01*
X159177037Y-70088165D01*
X159060356Y-69778602D01*
X159179419Y-69464277D01*
X159327056Y-69346405D01*
X159531844Y-69307115D01*
X159735441Y-69344024D01*
G37*
G36*
X160805813Y-90776465D02*
G01*
X160912969Y-91062215D01*
X160912969Y-91662290D01*
X160070006Y-91662290D01*
X160070006Y-91052690D01*
X160174781Y-90776465D01*
X160489106Y-90638352D01*
X160805813Y-90776465D01*
G37*
G36*
X155033266Y-79947294D02*
G01*
X155096369Y-79968725D01*
X155146375Y-80031828D01*
X155160663Y-80169941D01*
X155127325Y-80303886D01*
X155027313Y-80358059D01*
X155076128Y-80400922D01*
X155129706Y-80493791D01*
X155158281Y-80641428D01*
X155137511Y-80778879D01*
X155075202Y-80908657D01*
X154971353Y-81030762D01*
X154839855Y-81129320D01*
X154694599Y-81188454D01*
X154535584Y-81208166D01*
X154376437Y-81188586D01*
X154230784Y-81129849D01*
X154098625Y-81031953D01*
X153994115Y-80911171D01*
X153931408Y-80783774D01*
X153910506Y-80649762D01*
X153923063Y-80579516D01*
X154327225Y-80579516D01*
X154390328Y-80729534D01*
X154532012Y-80791447D01*
X154677269Y-80733106D01*
X154743944Y-80580706D01*
X154677269Y-80430687D01*
X154533203Y-80374728D01*
X154391519Y-80433069D01*
X154327225Y-80579516D01*
X153923063Y-80579516D01*
X153942058Y-80473252D01*
X154036712Y-80355678D01*
X153942653Y-80304481D01*
X153910506Y-80130650D01*
X153925984Y-80024982D01*
X153972419Y-79967534D01*
X154035522Y-79947294D01*
X154117675Y-79943722D01*
X154951113Y-79943722D01*
X155033266Y-79947294D01*
G37*
G36*
X154555825Y-88229579D02*
G01*
X154683222Y-88211422D01*
X154824013Y-88231663D01*
X154953494Y-88292384D01*
X155055590Y-88380788D01*
X155128516Y-88491219D01*
X155172271Y-88623676D01*
X155186856Y-88778159D01*
X155166880Y-88961119D01*
X155106952Y-89122647D01*
X155007072Y-89262744D01*
X154873854Y-89370561D01*
X154713914Y-89435252D01*
X154527250Y-89456816D01*
X154373527Y-89440147D01*
X154229858Y-89390141D01*
X154096244Y-89306797D01*
X154006054Y-89215416D01*
X153935509Y-89093675D01*
X153910752Y-89013903D01*
X154612975Y-89013903D01*
X154747516Y-88937703D01*
X154810619Y-88784113D01*
X154777281Y-88665050D01*
X154689175Y-88623378D01*
X154612975Y-88713866D01*
X154612975Y-89013903D01*
X153910752Y-89013903D01*
X153889968Y-88946930D01*
X153874787Y-88780541D01*
X153888033Y-88558638D01*
X153927770Y-88400136D01*
X153993999Y-88305035D01*
X154086719Y-88273334D01*
X154196256Y-88304291D01*
X154303412Y-88435259D01*
X154277219Y-88530509D01*
X154267694Y-88556703D01*
X154246262Y-88650167D01*
X154239119Y-88773397D01*
X154284362Y-88930559D01*
X154396281Y-89009141D01*
X154396281Y-88444784D01*
X154466528Y-88284050D01*
X154555825Y-88229579D01*
G37*
G36*
X154700155Y-78518279D02*
G01*
X154848190Y-78571064D01*
X154978497Y-78659037D01*
X155079700Y-78773470D01*
X155140422Y-78905629D01*
X155160663Y-79055516D01*
X155105894Y-79234109D01*
X155055888Y-79298403D01*
X155008263Y-79341266D01*
X155105894Y-79365078D01*
X155146970Y-79426395D01*
X155160663Y-79543672D01*
X155145780Y-79664520D01*
X155101131Y-79727028D01*
X155040409Y-79749650D01*
X154960638Y-79753222D01*
X154117675Y-79753222D01*
X154035522Y-79749650D01*
X153972419Y-79729409D01*
X153924198Y-79666902D01*
X153908125Y-79546053D01*
X153924198Y-79424014D01*
X153972419Y-79362697D01*
X154033141Y-79340075D01*
X154115294Y-79336503D01*
X154536775Y-79336503D01*
X154686794Y-79278162D01*
X154743944Y-79125762D01*
X154689175Y-78975744D01*
X154536775Y-78919784D01*
X154117675Y-78919784D01*
X153996231Y-78905497D01*
X153930152Y-78843584D01*
X153908125Y-78710234D01*
X153924198Y-78587600D01*
X153972419Y-78524497D01*
X154033141Y-78504256D01*
X154115294Y-78500684D01*
X154534394Y-78500684D01*
X154700155Y-78518279D01*
G37*
G36*
X155015406Y-90890328D02*
G01*
X155117800Y-90933191D01*
X155158281Y-91095116D01*
X155142803Y-91217750D01*
X155096369Y-91280853D01*
X155033266Y-91301094D01*
X154951113Y-91304666D01*
X154115294Y-91304666D01*
X154031950Y-91301094D01*
X153970037Y-91280853D01*
X153921817Y-91218345D01*
X153905744Y-91097497D01*
X153921222Y-90975458D01*
X153967656Y-90914141D01*
X154030759Y-90891519D01*
X154112912Y-90887947D01*
X154946350Y-90887947D01*
X155015406Y-90890328D01*
G37*
G36*
X155520231Y-91498738D02*
G01*
X155584525Y-91521359D01*
X155632745Y-91584165D01*
X155648819Y-91705906D01*
X155632745Y-91829434D01*
X155584525Y-91897597D01*
X155501372Y-91962653D01*
X155389072Y-92049235D01*
X155247626Y-92157344D01*
X155077033Y-92286979D01*
X154877294Y-92438141D01*
X155586906Y-92978684D01*
X155601194Y-92992972D01*
X155633341Y-93053694D01*
X155648819Y-93164422D01*
X155633341Y-93285866D01*
X155586906Y-93350159D01*
X155523803Y-93372781D01*
X155441650Y-93376353D01*
X154120056Y-93376353D01*
X154034331Y-93372781D01*
X153972419Y-93350159D01*
X153924198Y-93287056D01*
X153908125Y-93169184D01*
X153924198Y-93047741D01*
X153972419Y-92983447D01*
X154033141Y-92960825D01*
X154115294Y-92957253D01*
X154917775Y-92957253D01*
X154858541Y-92913200D01*
X154709416Y-92804853D01*
X154548979Y-92687577D01*
X154455812Y-92616734D01*
X154429619Y-92597684D01*
X154380803Y-92534581D01*
X154355800Y-92436950D01*
X154383184Y-92336938D01*
X154426047Y-92278597D01*
X154482006Y-92235734D01*
X154552551Y-92183942D01*
X154683222Y-92090478D01*
X154822227Y-91989870D01*
X154917775Y-91916647D01*
X154120056Y-91916647D01*
X153996231Y-91904741D01*
X153948606Y-91871403D01*
X153920031Y-91809491D01*
X153908125Y-91699953D01*
X153922412Y-91585653D01*
X153984920Y-91517788D01*
X154115294Y-91495166D01*
X155436888Y-91495166D01*
X155520231Y-91498738D01*
G37*
G36*
X155015406Y-83391772D02*
G01*
X155117800Y-83434634D01*
X155158281Y-83596559D01*
X155142803Y-83719194D01*
X155096369Y-83782297D01*
X155033266Y-83802537D01*
X154951113Y-83806109D01*
X154115294Y-83806109D01*
X154031950Y-83802537D01*
X153970037Y-83782297D01*
X153921817Y-83719789D01*
X153905744Y-83598941D01*
X153921222Y-83476902D01*
X153967656Y-83415584D01*
X154030759Y-83392962D01*
X154112912Y-83389391D01*
X154946350Y-83389391D01*
X155015406Y-83391772D01*
G37*
G36*
X154555825Y-83979048D02*
G01*
X154683222Y-83960891D01*
X154824013Y-83981131D01*
X154953494Y-84041853D01*
X155055590Y-84130257D01*
X155128516Y-84240687D01*
X155172271Y-84373145D01*
X155186856Y-84527628D01*
X155166880Y-84710587D01*
X155106952Y-84872116D01*
X155007072Y-85012212D01*
X154873854Y-85120030D01*
X154713914Y-85184721D01*
X154527250Y-85206284D01*
X154373527Y-85189616D01*
X154229858Y-85139609D01*
X154096244Y-85056266D01*
X154006054Y-84964885D01*
X153935509Y-84843144D01*
X153910752Y-84763372D01*
X154612975Y-84763372D01*
X154747516Y-84687172D01*
X154810619Y-84533581D01*
X154777281Y-84414519D01*
X154689175Y-84372847D01*
X154612975Y-84463334D01*
X154612975Y-84763372D01*
X153910752Y-84763372D01*
X153889968Y-84696399D01*
X153874787Y-84530009D01*
X153888033Y-84308107D01*
X153927770Y-84149605D01*
X153993999Y-84054504D01*
X154086719Y-84022803D01*
X154196256Y-84053759D01*
X154303412Y-84184728D01*
X154277219Y-84279978D01*
X154267694Y-84306172D01*
X154246262Y-84399636D01*
X154239119Y-84522866D01*
X154284362Y-84680028D01*
X154396281Y-84758609D01*
X154396281Y-84194253D01*
X154466528Y-84033519D01*
X154555825Y-83979048D01*
G37*
G36*
X154196256Y-89567544D02*
G01*
X154272456Y-89642553D01*
X154534394Y-89959259D01*
X154734419Y-89723516D01*
X154863006Y-89635409D01*
X155014216Y-89712800D01*
X155110656Y-89849722D01*
X155046363Y-89992597D01*
X155027313Y-90021172D01*
X154784425Y-90280728D01*
X155539281Y-90280728D01*
X155605956Y-90283109D01*
X155710731Y-90325972D01*
X155751213Y-90487897D01*
X155735139Y-90610531D01*
X155686919Y-90673634D01*
X155623816Y-90693875D01*
X155541663Y-90697447D01*
X154115294Y-90697447D01*
X154033141Y-90693875D01*
X153970037Y-90673634D01*
X153921817Y-90611127D01*
X153905744Y-90490278D01*
X153921222Y-90368239D01*
X153967656Y-90306922D01*
X154030759Y-90284300D01*
X154112912Y-90280728D01*
X154296269Y-90280728D01*
X154232273Y-90207505D01*
X154135534Y-90106897D01*
X154039391Y-90007480D01*
X153977181Y-89937828D01*
X153960512Y-89914016D01*
X153891456Y-89768759D01*
X153991469Y-89625884D01*
X154146250Y-89552066D01*
X154196256Y-89567544D01*
G37*
G36*
X154736139Y-81377234D02*
G01*
X154897667Y-81420097D01*
X155016597Y-81491534D01*
X155126432Y-81635600D01*
X155163044Y-81810622D01*
X155116609Y-81977309D01*
X155030884Y-82095181D01*
X154955875Y-82158284D01*
X155070969Y-82251418D01*
X155140025Y-82372068D01*
X155163044Y-82520234D01*
X155120777Y-82666086D01*
X154993975Y-82789316D01*
X155117800Y-82829797D01*
X155160663Y-83003628D01*
X155144589Y-83112570D01*
X155096369Y-83172697D01*
X155035647Y-83195319D01*
X154953494Y-83198891D01*
X154115294Y-83198891D01*
X154031950Y-83195319D01*
X153970037Y-83175078D01*
X153921817Y-83112570D01*
X153905744Y-82991722D01*
X153921222Y-82870278D01*
X153967656Y-82805984D01*
X154030759Y-82783362D01*
X154112912Y-82779791D01*
X154534394Y-82779791D01*
X154689770Y-82744072D01*
X154741562Y-82636916D01*
X154689770Y-82526187D01*
X154534394Y-82489278D01*
X154117675Y-82489278D01*
X154035522Y-82485706D01*
X153972419Y-82465466D01*
X153922412Y-82402958D01*
X153905744Y-82282109D01*
X153921817Y-82159475D01*
X153970037Y-82096372D01*
X154031950Y-82073750D01*
X154115294Y-82070178D01*
X154532012Y-82070178D01*
X154686794Y-82040412D01*
X154741562Y-81927303D01*
X154689770Y-81816575D01*
X154534394Y-81779666D01*
X154117675Y-81779666D01*
X154035522Y-81776094D01*
X153972419Y-81755853D01*
X153922412Y-81693345D01*
X153905744Y-81572497D01*
X153921817Y-81450458D01*
X153970037Y-81389141D01*
X154033141Y-81366519D01*
X154115294Y-81362947D01*
X154532012Y-81362947D01*
X154736139Y-81377234D01*
G37*
G36*
X155619053Y-83392962D02*
G01*
X155682156Y-83415584D01*
X155730377Y-83476306D01*
X155746450Y-83596559D01*
X155730377Y-83719194D01*
X155682156Y-83782297D01*
X155621434Y-83802537D01*
X155539281Y-83806109D01*
X155457128Y-83802537D01*
X155394025Y-83781106D01*
X155344019Y-83718003D01*
X155329731Y-83597750D01*
X155344019Y-83477497D01*
X155392834Y-83414394D01*
X155454747Y-83392962D01*
X155536900Y-83389391D01*
X155619053Y-83392962D01*
G37*
G36*
X154281981Y-85349159D02*
G01*
X154302222Y-85389641D01*
X154305794Y-85455125D01*
X154328416Y-85518228D01*
X154436762Y-85532516D01*
X155539281Y-85532516D01*
X155622625Y-85536088D01*
X155686919Y-85558709D01*
X155735139Y-85621813D01*
X155751213Y-85739684D01*
X155735139Y-85862319D01*
X155686919Y-85925422D01*
X155623816Y-85945663D01*
X155541663Y-85949234D01*
X154408187Y-85949234D01*
X154187922Y-85932566D01*
X154036712Y-85882559D01*
X153957536Y-85795644D01*
X153915269Y-85644434D01*
X153904553Y-85453934D01*
X153929556Y-85349159D01*
X153992064Y-85313441D01*
X154112912Y-85301534D01*
X154281981Y-85349159D01*
G37*
G36*
X155619053Y-90891519D02*
G01*
X155682156Y-90914141D01*
X155730377Y-90974863D01*
X155746450Y-91095116D01*
X155730377Y-91217750D01*
X155682156Y-91280853D01*
X155621434Y-91301094D01*
X155539281Y-91304666D01*
X155457128Y-91301094D01*
X155394025Y-91279663D01*
X155344019Y-91216559D01*
X155329731Y-91096306D01*
X155344019Y-90976053D01*
X155392834Y-90912950D01*
X155454747Y-90891519D01*
X155536900Y-90887947D01*
X155619053Y-90891519D01*
G37*
G36*
X154700155Y-77075242D02*
G01*
X154848190Y-77128026D01*
X154978497Y-77216000D01*
X155079700Y-77330432D01*
X155140422Y-77462592D01*
X155160663Y-77612478D01*
X155105894Y-77791072D01*
X155055888Y-77855366D01*
X155008263Y-77898228D01*
X155105894Y-77922041D01*
X155146970Y-77983358D01*
X155160663Y-78100634D01*
X155145780Y-78221483D01*
X155101131Y-78283991D01*
X155040409Y-78306612D01*
X154960638Y-78310184D01*
X154117675Y-78310184D01*
X154035522Y-78306612D01*
X153972419Y-78286372D01*
X153924198Y-78223864D01*
X153908125Y-78103016D01*
X153924198Y-77980977D01*
X153972419Y-77919659D01*
X154033141Y-77897037D01*
X154115294Y-77893466D01*
X154536775Y-77893466D01*
X154686794Y-77835125D01*
X154743944Y-77682725D01*
X154689175Y-77532706D01*
X154536775Y-77476747D01*
X154117675Y-77476747D01*
X153996231Y-77462459D01*
X153930152Y-77400547D01*
X153908125Y-77267197D01*
X153924198Y-77144563D01*
X153972419Y-77081459D01*
X154033141Y-77061219D01*
X154115294Y-77057647D01*
X154534394Y-77057647D01*
X154700155Y-77075242D01*
G37*
G36*
X154737991Y-86165928D02*
G01*
X154870448Y-86119494D01*
X155017788Y-86104016D01*
X155165425Y-86119494D01*
X155298775Y-86165928D01*
X155411884Y-86236770D01*
X155498800Y-86325472D01*
X155583467Y-86458557D01*
X155634267Y-86594289D01*
X155651200Y-86732666D01*
X155651200Y-87242253D01*
X155635127Y-87364888D01*
X155586906Y-87427991D01*
X155523803Y-87450613D01*
X155441650Y-87454184D01*
X154120056Y-87454184D01*
X153996231Y-87439897D01*
X153930152Y-87376794D01*
X153908125Y-87244634D01*
X153924198Y-87122000D01*
X153972419Y-87058897D01*
X154035522Y-87036275D01*
X154117675Y-87032703D01*
X154386756Y-87032703D01*
X154386756Y-86735047D01*
X154387045Y-86732666D01*
X154808237Y-86732666D01*
X154808237Y-87032703D01*
X155229719Y-87032703D01*
X155229719Y-86735047D01*
X155176141Y-86592172D01*
X155017788Y-86523116D01*
X154860625Y-86592172D01*
X154808237Y-86732666D01*
X154387045Y-86732666D01*
X154403690Y-86595347D01*
X154454490Y-86458822D01*
X154539156Y-86325472D01*
X154625774Y-86236770D01*
X154737991Y-86165928D01*
G37*
%TD*%
%LPC*%
D11*
%TO.C,REF2*%
X133858000Y-116840000D03*
X133858000Y-116840000D03*
%TD*%
D12*
%TO.C,J7*%
X151868000Y-39430999D03*
D13*
X148868000Y-39430999D03*
D14*
X145868000Y-41390999D03*
X154868000Y-41390999D03*
%TD*%
D15*
%TO.C,PS1*%
X161250000Y-50969500D03*
D16*
X156250000Y-50969500D03*
X166450000Y-80369500D03*
X151050000Y-80369500D03*
%TD*%
D17*
%TO.C,J1*%
X135382000Y-99832000D03*
D18*
X135382000Y-102372000D03*
X135382000Y-104912000D03*
X135382000Y-107452000D03*
%TD*%
D11*
%TO.C,REF1*%
X166370000Y-55118000D03*
%TD*%
D19*
%TO.C,K1*%
X141845000Y-68304999D03*
D20*
X146545001Y-49804998D03*
X146545001Y-56804999D03*
D21*
X146545001Y-68304999D03*
%TD*%
D11*
%TO.C,REF1*%
X133858000Y-44958000D03*
%TD*%
D22*
%TO.C,F1*%
X167005000Y-45847000D03*
D23*
X161925000Y-45847000D03*
%TD*%
D11*
%TO.C,REF3*%
X166878000Y-116840000D03*
X166878000Y-116840000D03*
%TD*%
D24*
%TO.C,RV1*%
X153456000Y-45451000D03*
X158456000Y-46751000D03*
%TD*%
D25*
%TO.C,J3*%
X134493000Y-89789000D03*
D18*
X134493000Y-87249000D03*
X137033000Y-89789000D03*
X137033000Y-87249000D03*
X139573000Y-89789000D03*
X139573000Y-87249000D03*
X142113000Y-89789000D03*
X142113000Y-87249000D03*
X144653000Y-89789000D03*
X144653000Y-87249000D03*
X147193000Y-89789000D03*
X147193000Y-87249000D03*
%TD*%
D19*
%TO.C,K2*%
X133570000Y-68304999D03*
D20*
X138270001Y-49804998D03*
X138270001Y-56804999D03*
D21*
X138270001Y-68304999D03*
%TD*%
D12*
%TO.C,J8*%
X140946000Y-39430999D03*
D13*
X137946000Y-39430999D03*
D14*
X143946000Y-41390999D03*
X134946000Y-41390999D03*
%TD*%
D12*
%TO.C,J2*%
X162766000Y-39430999D03*
D13*
X159766000Y-39430999D03*
D14*
X165766000Y-41390999D03*
X156766000Y-41390999D03*
%TD*%
M02*
