%TF.GenerationSoftware,KiCad,Pcbnew,(5.99.0-10457-g21fde9b629)*%
%TF.CreationDate,2021-05-02T13:24:44-05:00*%
%TF.ProjectId,reptile-monitor,72657074-696c-4652-9d6d-6f6e69746f72,1*%
%TF.SameCoordinates,Original*%
%TF.FileFunction,Legend,Top*%
%TF.FilePolarity,Positive*%
%FSLAX46Y46*%
G04 Gerber Fmt 4.6, Leading zero omitted, Abs format (unit mm)*
G04 Created by KiCad (PCBNEW (5.99.0-10457-g21fde9b629)) date 2021-05-02 13:24:44*
%MOMM*%
%LPD*%
G01*
G04 APERTURE LIST*
G04 Aperture macros list*
%AMRoundRect*
0 Rectangle with rounded corners*
0 $1 Rounding radius*
0 $2 $3 $4 $5 $6 $7 $8 $9 X,Y pos of 4 corners*
0 Add a 4 corners polygon primitive as box body*
4,1,4,$2,$3,$4,$5,$6,$7,$8,$9,$2,$3,0*
0 Add four circle primitives for the rounded corners*
1,1,$1+$1,$2,$3*
1,1,$1+$1,$4,$5*
1,1,$1+$1,$6,$7*
1,1,$1+$1,$8,$9*
0 Add four rect primitives between the rounded corners*
20,1,$1+$1,$2,$3,$4,$5,0*
20,1,$1+$1,$4,$5,$6,$7,0*
20,1,$1+$1,$6,$7,$8,$9,0*
20,1,$1+$1,$8,$9,$2,$3,0*%
G04 Aperture macros list end*
%ADD10C,0.127000*%
%ADD11C,0.120000*%
%ADD12C,0.100000*%
%ADD13C,0.150000*%
%ADD14C,0.250000*%
%ADD15C,0.200000*%
%ADD16C,2.301600*%
%ADD17RoundRect,0.244150X0.281650X-0.244150X0.281650X0.244150X-0.281650X0.244150X-0.281650X-0.244150X0*%
%ADD18RoundRect,0.050800X-1.000000X0.450000X-1.000000X-0.450000X1.000000X-0.450000X1.000000X0.450000X0*%
%ADD19RoundRect,0.050800X-0.665000X0.665000X-0.665000X-0.665000X0.665000X-0.665000X0.665000X0.665000X0*%
%ADD20RoundRect,0.050800X-0.785000X-0.785000X0.785000X-0.785000X0.785000X0.785000X-0.785000X0.785000X0*%
%ADD21C,1.671600*%
%ADD22C,1.371600*%
%ADD23RoundRect,0.275400X-0.500400X0.275400X-0.500400X-0.275400X0.500400X-0.275400X0.500400X0.275400X0*%
%ADD24RoundRect,0.050800X-1.000000X1.150000X-1.000000X-1.150000X1.000000X-1.150000X1.000000X1.150000X0*%
%ADD25C,2.401600*%
%ADD26RoundRect,0.050800X-0.850000X-0.850000X0.850000X-0.850000X0.850000X0.850000X-0.850000X0.850000X0*%
%ADD27O,1.801600X1.801600*%
%ADD28RoundRect,0.250400X-0.250400X-0.275400X0.250400X-0.275400X0.250400X0.275400X-0.250400X0.275400X0*%
%ADD29RoundRect,0.250400X-0.275400X0.250400X-0.275400X-0.250400X0.275400X-0.250400X0.275400X0.250400X0*%
%ADD30RoundRect,0.050800X-0.850000X0.400000X-0.850000X-0.400000X0.850000X-0.400000X0.850000X0.400000X0*%
%ADD31RoundRect,0.225400X-0.300400X0.225400X-0.300400X-0.225400X0.300400X-0.225400X0.300400X0.225400X0*%
%ADD32RoundRect,0.225400X0.300400X-0.225400X0.300400X0.225400X-0.300400X0.225400X-0.300400X-0.225400X0*%
%ADD33RoundRect,0.225400X0.225400X0.300400X-0.225400X0.300400X-0.225400X-0.300400X0.225400X-0.300400X0*%
%ADD34RoundRect,0.050800X0.500000X-0.500000X0.500000X0.500000X-0.500000X0.500000X-0.500000X-0.500000X0*%
%ADD35C,2.268946*%
%ADD36C,1.101600*%
%ADD37RoundRect,0.050800X0.787500X0.787500X-0.787500X0.787500X-0.787500X-0.787500X0.787500X-0.787500X0*%
%ADD38C,1.676600*%
%ADD39RoundRect,0.050800X-0.500000X-0.350000X0.500000X-0.350000X0.500000X0.350000X-0.500000X0.350000X0*%
%ADD40C,1.701600*%
%ADD41RoundRect,0.050800X0.850000X-0.850000X0.850000X0.850000X-0.850000X0.850000X-0.850000X-0.850000X0*%
%ADD42RoundRect,0.050800X0.900000X-0.500000X0.900000X0.500000X-0.900000X0.500000X-0.900000X-0.500000X0*%
%ADD43RoundRect,0.050800X0.325000X0.750000X-0.325000X0.750000X-0.325000X-0.750000X0.325000X-0.750000X0*%
G04 APERTURE END LIST*
D10*
X133286500Y-106704190D02*
X133316738Y-106643714D01*
X133316738Y-106553000D01*
X133286500Y-106462285D01*
X133226023Y-106401809D01*
X133165547Y-106371571D01*
X133044595Y-106341333D01*
X132953880Y-106341333D01*
X132832928Y-106371571D01*
X132772452Y-106401809D01*
X132711976Y-106462285D01*
X132681738Y-106553000D01*
X132681738Y-106613476D01*
X132711976Y-106704190D01*
X132742214Y-106734428D01*
X132953880Y-106734428D01*
X132953880Y-106613476D01*
X132681738Y-107006571D02*
X133316738Y-107006571D01*
X132681738Y-107369428D01*
X133316738Y-107369428D01*
X132681738Y-107671809D02*
X133316738Y-107671809D01*
X133316738Y-107823000D01*
X133286500Y-107913714D01*
X133226023Y-107974190D01*
X133165547Y-108004428D01*
X133044595Y-108034666D01*
X132953880Y-108034666D01*
X132832928Y-108004428D01*
X132772452Y-107974190D01*
X132711976Y-107913714D01*
X132681738Y-107823000D01*
X132681738Y-107671809D01*
X134372047Y-92103257D02*
X134009190Y-92103257D01*
X134190619Y-92103257D02*
X134190619Y-91468257D01*
X134130142Y-91558972D01*
X134069666Y-91619448D01*
X134009190Y-91649686D01*
X134734904Y-91740400D02*
X134674428Y-91710162D01*
X134644190Y-91679924D01*
X134613952Y-91619448D01*
X134613952Y-91589210D01*
X134644190Y-91528734D01*
X134674428Y-91498496D01*
X134734904Y-91468257D01*
X134855857Y-91468257D01*
X134916333Y-91498496D01*
X134946571Y-91528734D01*
X134976809Y-91589210D01*
X134976809Y-91619448D01*
X134946571Y-91679924D01*
X134916333Y-91710162D01*
X134855857Y-91740400D01*
X134734904Y-91740400D01*
X134674428Y-91770638D01*
X134644190Y-91800876D01*
X134613952Y-91861353D01*
X134613952Y-91982305D01*
X134644190Y-92042781D01*
X134674428Y-92073019D01*
X134734904Y-92103257D01*
X134855857Y-92103257D01*
X134916333Y-92073019D01*
X134946571Y-92042781D01*
X134976809Y-91982305D01*
X134976809Y-91861353D01*
X134946571Y-91800876D01*
X134916333Y-91770638D01*
X134855857Y-91740400D01*
X146709190Y-84924734D02*
X146739428Y-84894496D01*
X146799904Y-84864257D01*
X146951095Y-84864257D01*
X147011571Y-84894496D01*
X147041809Y-84924734D01*
X147072047Y-84985210D01*
X147072047Y-85045686D01*
X147041809Y-85136400D01*
X146678952Y-85499257D01*
X147072047Y-85499257D01*
X147283714Y-84864257D02*
X147707047Y-84864257D01*
X147434904Y-85499257D01*
X144138952Y-91473261D02*
X144532047Y-91473261D01*
X144320380Y-91715166D01*
X144411095Y-91715166D01*
X144471571Y-91745404D01*
X144501809Y-91775642D01*
X144532047Y-91836119D01*
X144532047Y-91987309D01*
X144501809Y-92047785D01*
X144471571Y-92078023D01*
X144411095Y-92108261D01*
X144229666Y-92108261D01*
X144169190Y-92078023D01*
X144138952Y-92047785D01*
X144834428Y-92108261D02*
X144955380Y-92108261D01*
X145015857Y-92078023D01*
X145046095Y-92047785D01*
X145106571Y-91957071D01*
X145136809Y-91836119D01*
X145136809Y-91594214D01*
X145106571Y-91533738D01*
X145076333Y-91503500D01*
X145015857Y-91473261D01*
X144894904Y-91473261D01*
X144834428Y-91503500D01*
X144804190Y-91533738D01*
X144773952Y-91594214D01*
X144773952Y-91745404D01*
X144804190Y-91805880D01*
X144834428Y-91836119D01*
X144894904Y-91866357D01*
X145015857Y-91866357D01*
X145076333Y-91836119D01*
X145106571Y-91805880D01*
X145136809Y-91745404D01*
X133316738Y-98781809D02*
X133316738Y-99174904D01*
X133074833Y-98963238D01*
X133074833Y-99053952D01*
X133044595Y-99114428D01*
X133014357Y-99144666D01*
X132953880Y-99174904D01*
X132802690Y-99174904D01*
X132742214Y-99144666D01*
X132711976Y-99114428D01*
X132681738Y-99053952D01*
X132681738Y-98872523D01*
X132711976Y-98812047D01*
X132742214Y-98781809D01*
X133316738Y-99356333D02*
X132681738Y-99568000D01*
X133316738Y-99779666D01*
X133316738Y-99930857D02*
X133316738Y-100323952D01*
X133074833Y-100112285D01*
X133074833Y-100203000D01*
X133044595Y-100263476D01*
X133014357Y-100293714D01*
X132953880Y-100323952D01*
X132802690Y-100323952D01*
X132742214Y-100293714D01*
X132711976Y-100263476D01*
X132681738Y-100203000D01*
X132681738Y-100021571D01*
X132711976Y-99961095D01*
X132742214Y-99930857D01*
X146709190Y-91533738D02*
X146739428Y-91503500D01*
X146799904Y-91473261D01*
X146951095Y-91473261D01*
X147011571Y-91503500D01*
X147041809Y-91533738D01*
X147072047Y-91594214D01*
X147072047Y-91654690D01*
X147041809Y-91745404D01*
X146678952Y-92108261D01*
X147072047Y-92108261D01*
X147616333Y-91473261D02*
X147495380Y-91473261D01*
X147434904Y-91503500D01*
X147404666Y-91533738D01*
X147344190Y-91624452D01*
X147313952Y-91745404D01*
X147313952Y-91987309D01*
X147344190Y-92047785D01*
X147374428Y-92078023D01*
X147434904Y-92108261D01*
X147555857Y-92108261D01*
X147616333Y-92078023D01*
X147646571Y-92047785D01*
X147676809Y-91987309D01*
X147676809Y-91836119D01*
X147646571Y-91775642D01*
X147616333Y-91745404D01*
X147555857Y-91715166D01*
X147434904Y-91715166D01*
X147374428Y-91745404D01*
X147344190Y-91775642D01*
X147313952Y-91836119D01*
X132681738Y-102002166D02*
X132984119Y-101790500D01*
X132681738Y-101639309D02*
X133316738Y-101639309D01*
X133316738Y-101881214D01*
X133286500Y-101941690D01*
X133256261Y-101971928D01*
X133195785Y-102002166D01*
X133105071Y-102002166D01*
X133044595Y-101971928D01*
X133014357Y-101941690D01*
X132984119Y-101881214D01*
X132984119Y-101639309D01*
X133316738Y-102213833D02*
X132681738Y-102637166D01*
X133316738Y-102637166D02*
X132681738Y-102213833D01*
X134372047Y-85499257D02*
X134009190Y-85499257D01*
X134190619Y-85499257D02*
X134190619Y-84864257D01*
X134130142Y-84954972D01*
X134069666Y-85015448D01*
X134009190Y-85045686D01*
X134674428Y-85499257D02*
X134795380Y-85499257D01*
X134855857Y-85469019D01*
X134886095Y-85438781D01*
X134946571Y-85348067D01*
X134976809Y-85227115D01*
X134976809Y-84985210D01*
X134946571Y-84924734D01*
X134916333Y-84894496D01*
X134855857Y-84864257D01*
X134734904Y-84864257D01*
X134674428Y-84894496D01*
X134644190Y-84924734D01*
X134613952Y-84985210D01*
X134613952Y-85136400D01*
X134644190Y-85196876D01*
X134674428Y-85227115D01*
X134734904Y-85257353D01*
X134855857Y-85257353D01*
X134916333Y-85227115D01*
X134946571Y-85196876D01*
X134976809Y-85136400D01*
X137184190Y-84864257D02*
X136881809Y-84864257D01*
X136851571Y-85166638D01*
X136881809Y-85136400D01*
X136942285Y-85106162D01*
X137093476Y-85106162D01*
X137153952Y-85136400D01*
X137184190Y-85166638D01*
X137214428Y-85227115D01*
X137214428Y-85378305D01*
X137184190Y-85438781D01*
X137153952Y-85469019D01*
X137093476Y-85499257D01*
X136942285Y-85499257D01*
X136881809Y-85469019D01*
X136851571Y-85438781D01*
X139089190Y-84924734D02*
X139119428Y-84894496D01*
X139179904Y-84864257D01*
X139331095Y-84864257D01*
X139391571Y-84894496D01*
X139421809Y-84924734D01*
X139452047Y-84985210D01*
X139452047Y-85045686D01*
X139421809Y-85136400D01*
X139058952Y-85499257D01*
X139452047Y-85499257D01*
X139693952Y-84924734D02*
X139724190Y-84894496D01*
X139784666Y-84864257D01*
X139935857Y-84864257D01*
X139996333Y-84894496D01*
X140026571Y-84924734D01*
X140056809Y-84985210D01*
X140056809Y-85045686D01*
X140026571Y-85136400D01*
X139663714Y-85499257D01*
X140056809Y-85499257D01*
X136912047Y-92103257D02*
X136549190Y-92103257D01*
X136730619Y-92103257D02*
X136730619Y-91468257D01*
X136670142Y-91558972D01*
X136609666Y-91619448D01*
X136549190Y-91649686D01*
X137486571Y-91468257D02*
X137184190Y-91468257D01*
X137153952Y-91770638D01*
X137184190Y-91740400D01*
X137244666Y-91710162D01*
X137395857Y-91710162D01*
X137456333Y-91740400D01*
X137486571Y-91770638D01*
X137516809Y-91831115D01*
X137516809Y-91982305D01*
X137486571Y-92042781D01*
X137456333Y-92073019D01*
X137395857Y-92103257D01*
X137244666Y-92103257D01*
X137184190Y-92073019D01*
X137153952Y-92042781D01*
X139089190Y-91528734D02*
X139119428Y-91498496D01*
X139179904Y-91468257D01*
X139331095Y-91468257D01*
X139391571Y-91498496D01*
X139421809Y-91528734D01*
X139452047Y-91589210D01*
X139452047Y-91649686D01*
X139421809Y-91740400D01*
X139058952Y-92103257D01*
X139452047Y-92103257D01*
X140056809Y-92103257D02*
X139693952Y-92103257D01*
X139875380Y-92103257D02*
X139875380Y-91468257D01*
X139814904Y-91558972D01*
X139754428Y-91619448D01*
X139693952Y-91649686D01*
X141629190Y-91528734D02*
X141659428Y-91498496D01*
X141719904Y-91468257D01*
X141871095Y-91468257D01*
X141931571Y-91498496D01*
X141961809Y-91528734D01*
X141992047Y-91589210D01*
X141992047Y-91649686D01*
X141961809Y-91740400D01*
X141598952Y-92103257D01*
X141992047Y-92103257D01*
X142203714Y-91468257D02*
X142596809Y-91468257D01*
X142385142Y-91710162D01*
X142475857Y-91710162D01*
X142536333Y-91740400D01*
X142566571Y-91770638D01*
X142596809Y-91831115D01*
X142596809Y-91982305D01*
X142566571Y-92042781D01*
X142536333Y-92073019D01*
X142475857Y-92103257D01*
X142294428Y-92103257D01*
X142233952Y-92073019D01*
X142203714Y-92042781D01*
X133316738Y-104164190D02*
X133316738Y-104527047D01*
X132681738Y-104345619D02*
X133316738Y-104345619D01*
X133316738Y-104678238D02*
X132681738Y-105101571D01*
X133316738Y-105101571D02*
X132681738Y-104678238D01*
X144169190Y-84924734D02*
X144199428Y-84894496D01*
X144259904Y-84864257D01*
X144411095Y-84864257D01*
X144471571Y-84894496D01*
X144501809Y-84924734D01*
X144532047Y-84985210D01*
X144532047Y-85045686D01*
X144501809Y-85136400D01*
X144138952Y-85499257D01*
X144532047Y-85499257D01*
X145106571Y-84864257D02*
X144804190Y-84864257D01*
X144773952Y-85166638D01*
X144804190Y-85136400D01*
X144864666Y-85106162D01*
X145015857Y-85106162D01*
X145076333Y-85136400D01*
X145106571Y-85166638D01*
X145136809Y-85227115D01*
X145136809Y-85378305D01*
X145106571Y-85438781D01*
X145076333Y-85469019D01*
X145015857Y-85499257D01*
X144864666Y-85499257D01*
X144804190Y-85469019D01*
X144773952Y-85438781D01*
X141598952Y-84864257D02*
X141992047Y-84864257D01*
X141780380Y-85106162D01*
X141871095Y-85106162D01*
X141931571Y-85136400D01*
X141961809Y-85166638D01*
X141992047Y-85227115D01*
X141992047Y-85378305D01*
X141961809Y-85438781D01*
X141931571Y-85469019D01*
X141871095Y-85499257D01*
X141689666Y-85499257D01*
X141629190Y-85469019D01*
X141598952Y-85438781D01*
X142536333Y-84864257D02*
X142415380Y-84864257D01*
X142354904Y-84894496D01*
X142324666Y-84924734D01*
X142264190Y-85015448D01*
X142233952Y-85136400D01*
X142233952Y-85378305D01*
X142264190Y-85438781D01*
X142294428Y-85469019D01*
X142354904Y-85499257D01*
X142475857Y-85499257D01*
X142536333Y-85469019D01*
X142566571Y-85438781D01*
X142596809Y-85378305D01*
X142596809Y-85227115D01*
X142566571Y-85166638D01*
X142536333Y-85136400D01*
X142475857Y-85106162D01*
X142354904Y-85106162D01*
X142294428Y-85136400D01*
X142264190Y-85166638D01*
X142233952Y-85227115D01*
%TO.C,D1*%
X161710309Y-98966261D02*
X161710309Y-98331261D01*
X161861500Y-98331261D01*
X161952214Y-98361500D01*
X162012690Y-98421976D01*
X162042928Y-98482452D01*
X162073166Y-98603404D01*
X162073166Y-98694119D01*
X162042928Y-98815071D01*
X162012690Y-98875547D01*
X161952214Y-98936023D01*
X161861500Y-98966261D01*
X161710309Y-98966261D01*
X162677928Y-98966261D02*
X162315071Y-98966261D01*
X162496500Y-98966261D02*
X162496500Y-98331261D01*
X162436023Y-98421976D01*
X162375547Y-98482452D01*
X162315071Y-98512690D01*
%TO.C,D2*%
X165393309Y-98966261D02*
X165393309Y-98331261D01*
X165544500Y-98331261D01*
X165635214Y-98361500D01*
X165695690Y-98421976D01*
X165725928Y-98482452D01*
X165756166Y-98603404D01*
X165756166Y-98694119D01*
X165725928Y-98815071D01*
X165695690Y-98875547D01*
X165635214Y-98936023D01*
X165544500Y-98966261D01*
X165393309Y-98966261D01*
X165998071Y-98391738D02*
X166028309Y-98361500D01*
X166088785Y-98331261D01*
X166239976Y-98331261D01*
X166300452Y-98361500D01*
X166330690Y-98391738D01*
X166360928Y-98452214D01*
X166360928Y-98512690D01*
X166330690Y-98603404D01*
X165967833Y-98966261D01*
X166360928Y-98966261D01*
%TO.C,J7*%
X145584333Y-42451261D02*
X145584333Y-42904833D01*
X145554095Y-42995547D01*
X145493619Y-43056023D01*
X145402904Y-43086261D01*
X145342428Y-43086261D01*
X145826238Y-42451261D02*
X146249571Y-42451261D01*
X145977428Y-43086261D01*
%TO.C,C1*%
X159865785Y-87481833D02*
X159896023Y-87512071D01*
X159926261Y-87602785D01*
X159926261Y-87663261D01*
X159896023Y-87753976D01*
X159835547Y-87814452D01*
X159775071Y-87844690D01*
X159654119Y-87874928D01*
X159563404Y-87874928D01*
X159442452Y-87844690D01*
X159381976Y-87814452D01*
X159321500Y-87753976D01*
X159291261Y-87663261D01*
X159291261Y-87602785D01*
X159321500Y-87512071D01*
X159351738Y-87481833D01*
X159926261Y-86877071D02*
X159926261Y-87239928D01*
X159926261Y-87058500D02*
X159291261Y-87058500D01*
X159381976Y-87118976D01*
X159442452Y-87179452D01*
X159472690Y-87239928D01*
%TO.C,PS1*%
X157978928Y-62771261D02*
X157978928Y-62136261D01*
X158220833Y-62136261D01*
X158281309Y-62166500D01*
X158311547Y-62196738D01*
X158341785Y-62257214D01*
X158341785Y-62347928D01*
X158311547Y-62408404D01*
X158281309Y-62438642D01*
X158220833Y-62468880D01*
X157978928Y-62468880D01*
X158583690Y-62741023D02*
X158674404Y-62771261D01*
X158825595Y-62771261D01*
X158886071Y-62741023D01*
X158916309Y-62710785D01*
X158946547Y-62650309D01*
X158946547Y-62589833D01*
X158916309Y-62529357D01*
X158886071Y-62499119D01*
X158825595Y-62468880D01*
X158704642Y-62438642D01*
X158644166Y-62408404D01*
X158613928Y-62378166D01*
X158583690Y-62317690D01*
X158583690Y-62257214D01*
X158613928Y-62196738D01*
X158644166Y-62166500D01*
X158704642Y-62136261D01*
X158855833Y-62136261D01*
X158946547Y-62166500D01*
X159551309Y-62771261D02*
X159188452Y-62771261D01*
X159369880Y-62771261D02*
X159369880Y-62136261D01*
X159309404Y-62226976D01*
X159248928Y-62287452D01*
X159188452Y-62317690D01*
%TO.C,J1*%
X135170333Y-97154261D02*
X135170333Y-97607833D01*
X135140095Y-97698547D01*
X135079619Y-97759023D01*
X134988904Y-97789261D01*
X134928428Y-97789261D01*
X135805333Y-97789261D02*
X135442476Y-97789261D01*
X135623904Y-97789261D02*
X135623904Y-97154261D01*
X135563428Y-97244976D01*
X135502952Y-97305452D01*
X135442476Y-97335690D01*
%TO.C,CL1*%
X167358785Y-108693857D02*
X167389023Y-108724095D01*
X167419261Y-108814809D01*
X167419261Y-108875285D01*
X167389023Y-108966000D01*
X167328547Y-109026476D01*
X167268071Y-109056714D01*
X167147119Y-109086952D01*
X167056404Y-109086952D01*
X166935452Y-109056714D01*
X166874976Y-109026476D01*
X166814500Y-108966000D01*
X166784261Y-108875285D01*
X166784261Y-108814809D01*
X166814500Y-108724095D01*
X166844738Y-108693857D01*
X167419261Y-108119333D02*
X167419261Y-108421714D01*
X166784261Y-108421714D01*
X167419261Y-107575047D02*
X167419261Y-107937904D01*
X167419261Y-107756476D02*
X166784261Y-107756476D01*
X166874976Y-107816952D01*
X166935452Y-107877428D01*
X166965690Y-107937904D01*
%TO.C,C8*%
X161692166Y-118336785D02*
X161661928Y-118367023D01*
X161571214Y-118397261D01*
X161510738Y-118397261D01*
X161420023Y-118367023D01*
X161359547Y-118306547D01*
X161329309Y-118246071D01*
X161299071Y-118125119D01*
X161299071Y-118034404D01*
X161329309Y-117913452D01*
X161359547Y-117852976D01*
X161420023Y-117792500D01*
X161510738Y-117762261D01*
X161571214Y-117762261D01*
X161661928Y-117792500D01*
X161692166Y-117822738D01*
X162055023Y-118034404D02*
X161994547Y-118004166D01*
X161964309Y-117973928D01*
X161934071Y-117913452D01*
X161934071Y-117883214D01*
X161964309Y-117822738D01*
X161994547Y-117792500D01*
X162055023Y-117762261D01*
X162175976Y-117762261D01*
X162236452Y-117792500D01*
X162266690Y-117822738D01*
X162296928Y-117883214D01*
X162296928Y-117913452D01*
X162266690Y-117973928D01*
X162236452Y-118004166D01*
X162175976Y-118034404D01*
X162055023Y-118034404D01*
X161994547Y-118064642D01*
X161964309Y-118094880D01*
X161934071Y-118155357D01*
X161934071Y-118276309D01*
X161964309Y-118336785D01*
X161994547Y-118367023D01*
X162055023Y-118397261D01*
X162175976Y-118397261D01*
X162236452Y-118367023D01*
X162266690Y-118336785D01*
X162296928Y-118276309D01*
X162296928Y-118155357D01*
X162266690Y-118094880D01*
X162236452Y-118064642D01*
X162175976Y-118034404D01*
%TO.C,C10*%
X136243785Y-111097785D02*
X136213547Y-111128023D01*
X136122833Y-111158261D01*
X136062357Y-111158261D01*
X135971642Y-111128023D01*
X135911166Y-111067547D01*
X135880928Y-111007071D01*
X135850690Y-110886119D01*
X135850690Y-110795404D01*
X135880928Y-110674452D01*
X135911166Y-110613976D01*
X135971642Y-110553500D01*
X136062357Y-110523261D01*
X136122833Y-110523261D01*
X136213547Y-110553500D01*
X136243785Y-110583738D01*
X136848547Y-111158261D02*
X136485690Y-111158261D01*
X136667119Y-111158261D02*
X136667119Y-110523261D01*
X136606642Y-110613976D01*
X136546166Y-110674452D01*
X136485690Y-110704690D01*
X137241642Y-110523261D02*
X137302119Y-110523261D01*
X137362595Y-110553500D01*
X137392833Y-110583738D01*
X137423071Y-110644214D01*
X137453309Y-110765166D01*
X137453309Y-110916357D01*
X137423071Y-111037309D01*
X137392833Y-111097785D01*
X137362595Y-111128023D01*
X137302119Y-111158261D01*
X137241642Y-111158261D01*
X137181166Y-111128023D01*
X137150928Y-111097785D01*
X137120690Y-111037309D01*
X137090452Y-110916357D01*
X137090452Y-110765166D01*
X137120690Y-110644214D01*
X137150928Y-110583738D01*
X137181166Y-110553500D01*
X137241642Y-110523261D01*
%TO.C,R8*%
X163470166Y-98966261D02*
X163258500Y-98663880D01*
X163107309Y-98966261D02*
X163107309Y-98331261D01*
X163349214Y-98331261D01*
X163409690Y-98361500D01*
X163439928Y-98391738D01*
X163470166Y-98452214D01*
X163470166Y-98542928D01*
X163439928Y-98603404D01*
X163409690Y-98633642D01*
X163349214Y-98663880D01*
X163107309Y-98663880D01*
X163833023Y-98603404D02*
X163772547Y-98573166D01*
X163742309Y-98542928D01*
X163712071Y-98482452D01*
X163712071Y-98452214D01*
X163742309Y-98391738D01*
X163772547Y-98361500D01*
X163833023Y-98331261D01*
X163953976Y-98331261D01*
X164014452Y-98361500D01*
X164044690Y-98391738D01*
X164074928Y-98452214D01*
X164074928Y-98482452D01*
X164044690Y-98542928D01*
X164014452Y-98573166D01*
X163953976Y-98603404D01*
X163833023Y-98603404D01*
X163772547Y-98633642D01*
X163742309Y-98663880D01*
X163712071Y-98724357D01*
X163712071Y-98845309D01*
X163742309Y-98905785D01*
X163772547Y-98936023D01*
X163833023Y-98966261D01*
X163953976Y-98966261D01*
X164014452Y-98936023D01*
X164044690Y-98905785D01*
X164074928Y-98845309D01*
X164074928Y-98724357D01*
X164044690Y-98663880D01*
X164014452Y-98633642D01*
X163953976Y-98603404D01*
%TO.C,R1*%
X161692166Y-110396261D02*
X161480500Y-110093880D01*
X161329309Y-110396261D02*
X161329309Y-109761261D01*
X161571214Y-109761261D01*
X161631690Y-109791500D01*
X161661928Y-109821738D01*
X161692166Y-109882214D01*
X161692166Y-109972928D01*
X161661928Y-110033404D01*
X161631690Y-110063642D01*
X161571214Y-110093880D01*
X161329309Y-110093880D01*
X162296928Y-110396261D02*
X161934071Y-110396261D01*
X162115500Y-110396261D02*
X162115500Y-109761261D01*
X162055023Y-109851976D01*
X161994547Y-109912452D01*
X161934071Y-109942690D01*
%TO.C,R12*%
X164691785Y-84742261D02*
X164480119Y-84439880D01*
X164328928Y-84742261D02*
X164328928Y-84107261D01*
X164570833Y-84107261D01*
X164631309Y-84137500D01*
X164661547Y-84167738D01*
X164691785Y-84228214D01*
X164691785Y-84318928D01*
X164661547Y-84379404D01*
X164631309Y-84409642D01*
X164570833Y-84439880D01*
X164328928Y-84439880D01*
X165296547Y-84742261D02*
X164933690Y-84742261D01*
X165115119Y-84742261D02*
X165115119Y-84107261D01*
X165054642Y-84197976D01*
X164994166Y-84258452D01*
X164933690Y-84288690D01*
X165538452Y-84167738D02*
X165568690Y-84137500D01*
X165629166Y-84107261D01*
X165780357Y-84107261D01*
X165840833Y-84137500D01*
X165871071Y-84167738D01*
X165901309Y-84228214D01*
X165901309Y-84288690D01*
X165871071Y-84379404D01*
X165508214Y-84742261D01*
X165901309Y-84742261D01*
%TO.C,K1*%
X143455740Y-61628261D02*
X143455740Y-60993261D01*
X143818597Y-61628261D02*
X143546454Y-61265404D01*
X143818597Y-60993261D02*
X143455740Y-61356119D01*
X144423359Y-61628261D02*
X144060502Y-61628261D01*
X144241930Y-61628261D02*
X144241930Y-60993261D01*
X144181454Y-61083976D01*
X144120978Y-61144452D01*
X144060502Y-61174690D01*
%TO.C,C2*%
X159865785Y-91037833D02*
X159896023Y-91068071D01*
X159926261Y-91158785D01*
X159926261Y-91219261D01*
X159896023Y-91309976D01*
X159835547Y-91370452D01*
X159775071Y-91400690D01*
X159654119Y-91430928D01*
X159563404Y-91430928D01*
X159442452Y-91400690D01*
X159381976Y-91370452D01*
X159321500Y-91309976D01*
X159291261Y-91219261D01*
X159291261Y-91158785D01*
X159321500Y-91068071D01*
X159351738Y-91037833D01*
X159351738Y-90795928D02*
X159321500Y-90765690D01*
X159291261Y-90705214D01*
X159291261Y-90554023D01*
X159321500Y-90493547D01*
X159351738Y-90463309D01*
X159412214Y-90433071D01*
X159472690Y-90433071D01*
X159563404Y-90463309D01*
X159926261Y-90826166D01*
X159926261Y-90433071D01*
%TO.C,F1*%
X164380333Y-45928642D02*
X164168666Y-45928642D01*
X164168666Y-46261261D02*
X164168666Y-45626261D01*
X164471047Y-45626261D01*
X165045571Y-46261261D02*
X164682714Y-46261261D01*
X164864142Y-46261261D02*
X164864142Y-45626261D01*
X164803666Y-45716976D01*
X164743190Y-45777452D01*
X164682714Y-45807690D01*
%TO.C,C7*%
X163470166Y-118336785D02*
X163439928Y-118367023D01*
X163349214Y-118397261D01*
X163288738Y-118397261D01*
X163198023Y-118367023D01*
X163137547Y-118306547D01*
X163107309Y-118246071D01*
X163077071Y-118125119D01*
X163077071Y-118034404D01*
X163107309Y-117913452D01*
X163137547Y-117852976D01*
X163198023Y-117792500D01*
X163288738Y-117762261D01*
X163349214Y-117762261D01*
X163439928Y-117792500D01*
X163470166Y-117822738D01*
X163681833Y-117762261D02*
X164105166Y-117762261D01*
X163833023Y-118397261D01*
%TO.C,U1*%
X154030740Y-84615261D02*
X154030740Y-85129309D01*
X154060978Y-85189785D01*
X154091216Y-85220023D01*
X154151692Y-85250261D01*
X154272645Y-85250261D01*
X154333121Y-85220023D01*
X154363359Y-85189785D01*
X154393597Y-85129309D01*
X154393597Y-84615261D01*
X155028597Y-85250261D02*
X154665740Y-85250261D01*
X154847169Y-85250261D02*
X154847169Y-84615261D01*
X154786692Y-84705976D01*
X154726216Y-84766452D01*
X154665740Y-84796690D01*
%TO.C,C9*%
X163597166Y-110335785D02*
X163566928Y-110366023D01*
X163476214Y-110396261D01*
X163415738Y-110396261D01*
X163325023Y-110366023D01*
X163264547Y-110305547D01*
X163234309Y-110245071D01*
X163204071Y-110124119D01*
X163204071Y-110033404D01*
X163234309Y-109912452D01*
X163264547Y-109851976D01*
X163325023Y-109791500D01*
X163415738Y-109761261D01*
X163476214Y-109761261D01*
X163566928Y-109791500D01*
X163597166Y-109821738D01*
X163899547Y-110396261D02*
X164020500Y-110396261D01*
X164080976Y-110366023D01*
X164111214Y-110335785D01*
X164171690Y-110245071D01*
X164201928Y-110124119D01*
X164201928Y-109882214D01*
X164171690Y-109821738D01*
X164141452Y-109791500D01*
X164080976Y-109761261D01*
X163960023Y-109761261D01*
X163899547Y-109791500D01*
X163869309Y-109821738D01*
X163839071Y-109882214D01*
X163839071Y-110033404D01*
X163869309Y-110093880D01*
X163899547Y-110124119D01*
X163960023Y-110154357D01*
X164080976Y-110154357D01*
X164141452Y-110124119D01*
X164171690Y-110093880D01*
X164201928Y-110033404D01*
%TO.C,Y1*%
X161876619Y-104759880D02*
X161876619Y-105062261D01*
X161664952Y-104427261D02*
X161876619Y-104759880D01*
X162088285Y-104427261D01*
X162632571Y-105062261D02*
X162269714Y-105062261D01*
X162451142Y-105062261D02*
X162451142Y-104427261D01*
X162390666Y-104517976D01*
X162330190Y-104578452D01*
X162269714Y-104608690D01*
%TO.C,K2*%
X135327740Y-61628261D02*
X135327740Y-60993261D01*
X135690597Y-61628261D02*
X135418454Y-61265404D01*
X135690597Y-60993261D02*
X135327740Y-61356119D01*
X135932502Y-61053738D02*
X135962740Y-61023500D01*
X136023216Y-60993261D01*
X136174407Y-60993261D01*
X136234883Y-61023500D01*
X136265121Y-61053738D01*
X136295359Y-61114214D01*
X136295359Y-61174690D01*
X136265121Y-61265404D01*
X135902264Y-61628261D01*
X136295359Y-61628261D01*
%TO.C,J8*%
X134662333Y-42578261D02*
X134662333Y-43031833D01*
X134632095Y-43122547D01*
X134571619Y-43183023D01*
X134480904Y-43213261D01*
X134420428Y-43213261D01*
X135055428Y-42850404D02*
X134994952Y-42820166D01*
X134964714Y-42789928D01*
X134934476Y-42729452D01*
X134934476Y-42699214D01*
X134964714Y-42638738D01*
X134994952Y-42608500D01*
X135055428Y-42578261D01*
X135176380Y-42578261D01*
X135236857Y-42608500D01*
X135267095Y-42638738D01*
X135297333Y-42699214D01*
X135297333Y-42729452D01*
X135267095Y-42789928D01*
X135236857Y-42820166D01*
X135176380Y-42850404D01*
X135055428Y-42850404D01*
X134994952Y-42880642D01*
X134964714Y-42910880D01*
X134934476Y-42971357D01*
X134934476Y-43092309D01*
X134964714Y-43152785D01*
X134994952Y-43183023D01*
X135055428Y-43213261D01*
X135176380Y-43213261D01*
X135236857Y-43183023D01*
X135267095Y-43152785D01*
X135297333Y-43092309D01*
X135297333Y-42971357D01*
X135267095Y-42910880D01*
X135236857Y-42880642D01*
X135176380Y-42850404D01*
%TO.C,CL2*%
X167358785Y-106661857D02*
X167389023Y-106692095D01*
X167419261Y-106782809D01*
X167419261Y-106843285D01*
X167389023Y-106934000D01*
X167328547Y-106994476D01*
X167268071Y-107024714D01*
X167147119Y-107054952D01*
X167056404Y-107054952D01*
X166935452Y-107024714D01*
X166874976Y-106994476D01*
X166814500Y-106934000D01*
X166784261Y-106843285D01*
X166784261Y-106782809D01*
X166814500Y-106692095D01*
X166844738Y-106661857D01*
X167419261Y-106087333D02*
X167419261Y-106389714D01*
X166784261Y-106389714D01*
X166844738Y-105905904D02*
X166814500Y-105875666D01*
X166784261Y-105815190D01*
X166784261Y-105664000D01*
X166814500Y-105603523D01*
X166844738Y-105573285D01*
X166905214Y-105543047D01*
X166965690Y-105543047D01*
X167056404Y-105573285D01*
X167419261Y-105936142D01*
X167419261Y-105543047D01*
%TO.C,J2*%
X156760333Y-42451261D02*
X156760333Y-42904833D01*
X156730095Y-42995547D01*
X156669619Y-43056023D01*
X156578904Y-43086261D01*
X156518428Y-43086261D01*
X157032476Y-42511738D02*
X157062714Y-42481500D01*
X157123190Y-42451261D01*
X157274380Y-42451261D01*
X157334857Y-42481500D01*
X157365095Y-42511738D01*
X157395333Y-42572214D01*
X157395333Y-42632690D01*
X157365095Y-42723404D01*
X157002238Y-43086261D01*
X157395333Y-43086261D01*
%TO.C,U3*%
X164541184Y-90267269D02*
X164541184Y-90781317D01*
X164571422Y-90841793D01*
X164601660Y-90872031D01*
X164662136Y-90902269D01*
X164783089Y-90902269D01*
X164843565Y-90872031D01*
X164873803Y-90841793D01*
X164904041Y-90781317D01*
X164904041Y-90267269D01*
X165145946Y-90267269D02*
X165539041Y-90267269D01*
X165327374Y-90509174D01*
X165418089Y-90509174D01*
X165478565Y-90539412D01*
X165508803Y-90569650D01*
X165539041Y-90630127D01*
X165539041Y-90781317D01*
X165508803Y-90841793D01*
X165478565Y-90872031D01*
X165418089Y-90902269D01*
X165236660Y-90902269D01*
X165176184Y-90872031D01*
X165145946Y-90841793D01*
%TO.C,R13*%
X166977785Y-98966261D02*
X166766119Y-98663880D01*
X166614928Y-98966261D02*
X166614928Y-98331261D01*
X166856833Y-98331261D01*
X166917309Y-98361500D01*
X166947547Y-98391738D01*
X166977785Y-98452214D01*
X166977785Y-98542928D01*
X166947547Y-98603404D01*
X166917309Y-98633642D01*
X166856833Y-98663880D01*
X166614928Y-98663880D01*
X167582547Y-98966261D02*
X167219690Y-98966261D01*
X167401119Y-98966261D02*
X167401119Y-98331261D01*
X167340642Y-98421976D01*
X167280166Y-98482452D01*
X167219690Y-98512690D01*
X167794214Y-98331261D02*
X168187309Y-98331261D01*
X167975642Y-98573166D01*
X168066357Y-98573166D01*
X168126833Y-98603404D01*
X168157071Y-98633642D01*
X168187309Y-98694119D01*
X168187309Y-98845309D01*
X168157071Y-98905785D01*
X168126833Y-98936023D01*
X168066357Y-98966261D01*
X167884928Y-98966261D01*
X167824452Y-98936023D01*
X167794214Y-98905785D01*
D11*
%TO.C,D1*%
X161444000Y-102069000D02*
X162914000Y-102069000D01*
X161444000Y-99784000D02*
X161444000Y-102069000D01*
X162914000Y-102069000D02*
X162914000Y-99784000D01*
%TO.C,D2*%
X166597000Y-102069000D02*
X166597000Y-99784000D01*
X165127000Y-99784000D02*
X165127000Y-102069000D01*
X165127000Y-102069000D02*
X166597000Y-102069000D01*
D12*
%TO.C,IC1*%
X158863988Y-119355000D02*
X158863988Y-125555000D01*
X158863988Y-125555000D02*
X140863988Y-125555000D01*
X159863988Y-118055000D02*
X159863988Y-118055000D01*
X140863988Y-125555000D02*
X140863988Y-119355000D01*
X159763988Y-118055000D02*
X159763988Y-118055000D01*
X158863988Y-94155000D02*
X140863988Y-94155000D01*
X159863988Y-118055000D02*
G75*
G02*
X159763988Y-118055000I-50000J0D01*
G01*
X159763988Y-118055000D02*
G75*
G02*
X159863988Y-118055000I50000J0D01*
G01*
D13*
%TO.C,J7*%
X145418000Y-36081000D02*
X145418000Y-40080999D01*
X155318000Y-36081000D02*
X145418000Y-36081000D01*
X153318000Y-42151000D02*
X147418000Y-42151000D01*
X155318000Y-36081000D02*
X155318000Y-40081000D01*
D14*
X151993000Y-42866000D02*
G75*
G03*
X151993000Y-42866000I-125000J0D01*
G01*
D11*
%TO.C,C1*%
X160428000Y-87114748D02*
X160428000Y-87637252D01*
X161898000Y-87114748D02*
X161898000Y-87637252D01*
%TO.C,PS1*%
X148650000Y-82769500D02*
X168850000Y-82769500D01*
X168850000Y-48569500D02*
X148650000Y-48569500D01*
X148650000Y-48569500D02*
X148650000Y-82769500D01*
X162250000Y-48179500D02*
X160240000Y-48179500D01*
X168850000Y-82769500D02*
X168850000Y-48569500D01*
%TO.C,J1*%
X134052000Y-108782000D02*
X136712000Y-108782000D01*
X134052000Y-101102000D02*
X134052000Y-108782000D01*
X134052000Y-98502000D02*
X135382000Y-98502000D01*
X136712000Y-101102000D02*
X136712000Y-108782000D01*
X134052000Y-99832000D02*
X134052000Y-98502000D01*
X134052000Y-101102000D02*
X136712000Y-101102000D01*
%TO.C,CL1*%
X164959420Y-108841000D02*
X165240580Y-108841000D01*
X164959420Y-107821000D02*
X165240580Y-107821000D01*
%TO.C,C8*%
X161288000Y-115937420D02*
X161288000Y-116218580D01*
X162308000Y-115937420D02*
X162308000Y-116218580D01*
D13*
%TO.C,SW2*%
X135083000Y-113868000D02*
X135208000Y-113868000D01*
X135083000Y-110668000D02*
X135208000Y-110668000D01*
X132508000Y-110668000D02*
X132508000Y-113868000D01*
X135208000Y-110668000D02*
X135208000Y-113868000D01*
X132508000Y-113868000D02*
X132633000Y-113868000D01*
X132508000Y-110668000D02*
X132633000Y-110668000D01*
D11*
%TO.C,C10*%
X137162000Y-112635420D02*
X137162000Y-112916580D01*
X136142000Y-112635420D02*
X136142000Y-112916580D01*
%TO.C,R8*%
X163180500Y-100346742D02*
X163180500Y-100821258D01*
X164225500Y-100346742D02*
X164225500Y-100821258D01*
D13*
%TO.C,SW1*%
X168230000Y-113868000D02*
X168355000Y-113868000D01*
X168230000Y-110668000D02*
X168355000Y-110668000D01*
X168355000Y-110668000D02*
X168355000Y-113868000D01*
X165655000Y-110668000D02*
X165655000Y-113868000D01*
X165655000Y-110668000D02*
X165780000Y-110668000D01*
X165655000Y-113868000D02*
X165780000Y-113868000D01*
D11*
%TO.C,R1*%
X161275500Y-112251258D02*
X161275500Y-111776742D01*
X162320500Y-112251258D02*
X162320500Y-111776742D01*
%TO.C,R12*%
X165337258Y-85202500D02*
X164862742Y-85202500D01*
X165337258Y-86247500D02*
X164862742Y-86247500D01*
D13*
%TO.C,K1*%
X147795001Y-48554998D02*
X140495000Y-48554998D01*
X147795001Y-69554999D02*
X147795001Y-48554998D01*
X147795001Y-69554999D02*
X140495000Y-69554999D01*
X140495000Y-69554999D02*
X140495000Y-48554998D01*
D11*
%TO.C,C2*%
X160428000Y-90670748D02*
X160428000Y-91193252D01*
X161898000Y-90670748D02*
X161898000Y-91193252D01*
D15*
%TO.C,F1*%
X160215000Y-47847000D02*
X168715000Y-47847000D01*
X168715000Y-47847000D02*
X168715000Y-45847000D01*
X160215000Y-43847000D02*
X160215000Y-47847000D01*
D11*
%TO.C,C7*%
X164086000Y-115937420D02*
X164086000Y-116218580D01*
X163066000Y-115937420D02*
X163066000Y-116218580D01*
D13*
%TO.C,U1*%
X152970509Y-85749000D02*
X153570509Y-85749000D01*
X152970509Y-88749000D02*
X152970509Y-85749000D01*
X153570509Y-88749000D02*
X152970509Y-88749000D01*
X153570509Y-85749000D02*
X153570509Y-88749000D01*
D14*
X151120509Y-86299000D02*
G75*
G03*
X151120509Y-86299000I-125000J0D01*
G01*
D13*
%TO.C,RV1*%
X152456000Y-44401000D02*
X159456000Y-44401000D01*
X152456000Y-47801000D02*
X159456000Y-47801000D01*
X152456000Y-44401000D02*
X152456000Y-47801000D01*
X159456000Y-44401000D02*
X159456000Y-47801000D01*
D11*
%TO.C,C9*%
X164213000Y-111873420D02*
X164213000Y-112154580D01*
X163193000Y-111873420D02*
X163193000Y-112154580D01*
%TO.C,J3*%
X133163000Y-88519000D02*
X133163000Y-85919000D01*
X134493000Y-91119000D02*
X133163000Y-91119000D01*
X148523000Y-91119000D02*
X148523000Y-85919000D01*
X135763000Y-91119000D02*
X148523000Y-91119000D01*
X133163000Y-91119000D02*
X133163000Y-89789000D01*
X133163000Y-85919000D02*
X148523000Y-85919000D01*
X135763000Y-91119000D02*
X135763000Y-88519000D01*
X135763000Y-88519000D02*
X133163000Y-88519000D01*
%TO.C,Y1*%
X163054000Y-107990000D02*
X163054000Y-106640000D01*
X161304000Y-107990000D02*
X161304000Y-106640000D01*
D13*
%TO.C,K2*%
X139520001Y-48554998D02*
X132220000Y-48554998D01*
X139520001Y-69554999D02*
X132220000Y-69554999D01*
X132220000Y-69554999D02*
X132220000Y-48554998D01*
X139520001Y-69554999D02*
X139520001Y-48554998D01*
%TO.C,J8*%
X134496000Y-36081000D02*
X134496000Y-40080999D01*
X144396000Y-36081000D02*
X144396000Y-40081000D01*
X142396000Y-42151000D02*
X136496000Y-42151000D01*
X144396000Y-36081000D02*
X134496000Y-36081000D01*
D14*
X141071000Y-42866000D02*
G75*
G03*
X141071000Y-42866000I-125000J0D01*
G01*
D11*
%TO.C,CL2*%
X164959420Y-105789000D02*
X165240580Y-105789000D01*
X164959420Y-106809000D02*
X165240580Y-106809000D01*
D13*
%TO.C,J2*%
X166216000Y-36081000D02*
X156316000Y-36081000D01*
X164216000Y-42151000D02*
X158316000Y-42151000D01*
X156316000Y-36081000D02*
X156316000Y-40080999D01*
X166216000Y-36081000D02*
X166216000Y-40081000D01*
D14*
X162891000Y-42866000D02*
G75*
G03*
X162891000Y-42866000I-125000J0D01*
G01*
D15*
%TO.C,U3*%
X167474994Y-89015008D02*
X167474994Y-92215008D01*
X162574994Y-89015008D02*
X167474994Y-89015008D01*
X167474994Y-92215008D02*
X162574994Y-92215008D01*
X162574994Y-92215008D02*
X162574994Y-89015008D01*
X162444994Y-94065008D02*
X162444994Y-92565008D01*
D11*
%TO.C,R13*%
X167908500Y-100821258D02*
X167908500Y-100346742D01*
X166863500Y-100821258D02*
X166863500Y-100346742D01*
%TD*%
%LPC*%
D16*
%TO.C,REF2*%
X133858000Y-116840000D03*
X133858000Y-116840000D03*
%TD*%
D17*
%TO.C,D1*%
X162179000Y-101371500D03*
X162179000Y-99796500D03*
%TD*%
%TO.C,D2*%
X165862000Y-101371500D03*
X165862000Y-99796500D03*
%TD*%
D18*
%TO.C,IC1*%
X158363988Y-118115000D03*
X158363988Y-116845000D03*
X158363988Y-115575000D03*
X158363988Y-114305000D03*
X158363988Y-113035000D03*
X158363988Y-111765000D03*
X158363988Y-110495000D03*
X158363988Y-109225000D03*
X158363988Y-107955000D03*
X158363988Y-106685000D03*
X158363988Y-105415000D03*
X158363988Y-104145000D03*
X158363988Y-102875000D03*
X158363988Y-101605000D03*
X158363988Y-100335000D03*
X158363988Y-99065000D03*
X158363988Y-97795000D03*
X158363988Y-96525000D03*
X158363988Y-95255000D03*
X141363988Y-95255000D03*
X141363988Y-96525000D03*
X141363988Y-97795000D03*
X141363988Y-99065000D03*
X141363988Y-100335000D03*
X141363988Y-101605000D03*
X141363988Y-102875000D03*
X141363988Y-104145000D03*
X141363988Y-105415000D03*
X141363988Y-106685000D03*
X141363988Y-107955000D03*
X141363988Y-109225000D03*
X141363988Y-110495000D03*
X141363988Y-111765000D03*
X141363988Y-113035000D03*
X141363988Y-114305000D03*
X141363988Y-115575000D03*
X141363988Y-116845000D03*
X141363988Y-118115000D03*
D19*
X150863988Y-110615000D03*
X152698988Y-112450000D03*
X152698988Y-110615000D03*
X152698988Y-108780000D03*
X150863988Y-108780000D03*
X149028988Y-108780000D03*
X149028988Y-110615000D03*
X149028988Y-112450000D03*
X150863988Y-112450000D03*
%TD*%
D20*
%TO.C,J7*%
X151868000Y-39430999D03*
D21*
X148868000Y-39430999D03*
D22*
X145868000Y-41390999D03*
X154868000Y-41390999D03*
%TD*%
D23*
%TO.C,C1*%
X161163000Y-86426000D03*
X161163000Y-88326000D03*
%TD*%
D24*
%TO.C,PS1*%
X161250000Y-50969500D03*
D25*
X156250000Y-50969500D03*
X166450000Y-80369500D03*
X151050000Y-80369500D03*
%TD*%
D26*
%TO.C,J1*%
X135382000Y-99832000D03*
D27*
X135382000Y-102372000D03*
X135382000Y-104912000D03*
X135382000Y-107452000D03*
%TD*%
D28*
%TO.C,CL1*%
X164325000Y-108331000D03*
X165875000Y-108331000D03*
%TD*%
D29*
%TO.C,C8*%
X161798000Y-115303000D03*
X161798000Y-116853000D03*
%TD*%
D30*
%TO.C,SW2*%
X133858000Y-110568000D03*
X133858000Y-113968000D03*
%TD*%
D29*
%TO.C,C10*%
X136652000Y-112001000D03*
X136652000Y-113551000D03*
%TD*%
D31*
%TO.C,R8*%
X163703000Y-99759000D03*
X163703000Y-101409000D03*
%TD*%
D16*
%TO.C,REF1*%
X166370000Y-55118000D03*
%TD*%
D30*
%TO.C,SW1*%
X167005000Y-110568000D03*
X167005000Y-113968000D03*
%TD*%
D32*
%TO.C,R1*%
X161798000Y-112839000D03*
X161798000Y-111189000D03*
%TD*%
D33*
%TO.C,R12*%
X165925000Y-85725000D03*
X164275000Y-85725000D03*
%TD*%
D34*
%TO.C,K1*%
X141845000Y-68304999D03*
D35*
X146545001Y-49804998D03*
X146545001Y-56804999D03*
D36*
X146545001Y-68304999D03*
%TD*%
D16*
%TO.C,REF1*%
X133858000Y-44958000D03*
%TD*%
D23*
%TO.C,C2*%
X161163000Y-89982000D03*
X161163000Y-91882000D03*
%TD*%
D37*
%TO.C,F1*%
X167005000Y-45847000D03*
D38*
X161925000Y-45847000D03*
%TD*%
D29*
%TO.C,C7*%
X163576000Y-115303000D03*
X163576000Y-116853000D03*
%TD*%
D16*
%TO.C,REF3*%
X166878000Y-116840000D03*
X166878000Y-116840000D03*
%TD*%
D39*
%TO.C,U1*%
X152070509Y-86299000D03*
X152070509Y-87249000D03*
X152070509Y-88199000D03*
X154470509Y-88199000D03*
X154470509Y-87249000D03*
X154470509Y-86299000D03*
%TD*%
D40*
%TO.C,RV1*%
X153456000Y-45451000D03*
X158456000Y-46751000D03*
%TD*%
D29*
%TO.C,C9*%
X163703000Y-111239000D03*
X163703000Y-112789000D03*
%TD*%
D41*
%TO.C,J3*%
X134493000Y-89789000D03*
D27*
X134493000Y-87249000D03*
X137033000Y-89789000D03*
X137033000Y-87249000D03*
X139573000Y-89789000D03*
X139573000Y-87249000D03*
X142113000Y-89789000D03*
X142113000Y-87249000D03*
X144653000Y-89789000D03*
X144653000Y-87249000D03*
X147193000Y-89789000D03*
X147193000Y-87249000D03*
%TD*%
D42*
%TO.C,Y1*%
X162179000Y-106065000D03*
X162179000Y-108565000D03*
%TD*%
D34*
%TO.C,K2*%
X133570000Y-68304999D03*
D35*
X138270001Y-49804998D03*
X138270001Y-56804999D03*
D36*
X138270001Y-68304999D03*
%TD*%
D20*
%TO.C,J8*%
X140946000Y-39430999D03*
D21*
X137946000Y-39430999D03*
D22*
X143946000Y-41390999D03*
X134946000Y-41390999D03*
%TD*%
D28*
%TO.C,CL2*%
X164325000Y-106299000D03*
X165875000Y-106299000D03*
%TD*%
D20*
%TO.C,J2*%
X162766000Y-39430999D03*
D21*
X159766000Y-39430999D03*
D22*
X165766000Y-41390999D03*
X156766000Y-41390999D03*
%TD*%
D43*
%TO.C,U3*%
X163119994Y-93315008D03*
X164389994Y-93315008D03*
X165659994Y-93315008D03*
X166929994Y-93315008D03*
X166929994Y-87915008D03*
X165659994Y-87915008D03*
X164389994Y-87915008D03*
X163119994Y-87915008D03*
%TD*%
D32*
%TO.C,R13*%
X167386000Y-101409000D03*
X167386000Y-99759000D03*
%TD*%
M02*
