%TF.GenerationSoftware,KiCad,Pcbnew,(6.0.8)*%
%TF.CreationDate,2022-11-26T11:36:33-06:00*%
%TF.ProjectId,connector-joint,636f6e6e-6563-4746-9f72-2d6a6f696e74,rev?*%
%TF.SameCoordinates,Original*%
%TF.FileFunction,Copper,L2,Bot*%
%TF.FilePolarity,Positive*%
%FSLAX46Y46*%
G04 Gerber Fmt 4.6, Leading zero omitted, Abs format (unit mm)*
G04 Created by KiCad (PCBNEW (6.0.8)) date 2022-11-26 11:36:33*
%MOMM*%
%LPD*%
G01*
G04 APERTURE LIST*
G04 Aperture macros list*
%AMRoundRect*
0 Rectangle with rounded corners*
0 $1 Rounding radius*
0 $2 $3 $4 $5 $6 $7 $8 $9 X,Y pos of 4 corners*
0 Add a 4 corners polygon primitive as box body*
4,1,4,$2,$3,$4,$5,$6,$7,$8,$9,$2,$3,0*
0 Add four circle primitives for the rounded corners*
1,1,$1+$1,$2,$3*
1,1,$1+$1,$4,$5*
1,1,$1+$1,$6,$7*
1,1,$1+$1,$8,$9*
0 Add four rect primitives between the rounded corners*
20,1,$1+$1,$2,$3,$4,$5,0*
20,1,$1+$1,$4,$5,$6,$7,0*
20,1,$1+$1,$6,$7,$8,$9,0*
20,1,$1+$1,$8,$9,$2,$3,0*%
G04 Aperture macros list end*
%TA.AperFunction,ComponentPad*%
%ADD10RoundRect,0.250000X0.600000X-0.600000X0.600000X0.600000X-0.600000X0.600000X-0.600000X-0.600000X0*%
%TD*%
%TA.AperFunction,ComponentPad*%
%ADD11C,1.700000*%
%TD*%
%TA.AperFunction,ViaPad*%
%ADD12C,1.200000*%
%TD*%
G04 APERTURE END LIST*
D10*
%TO.P,J2,1,Pin_1*%
%TO.N,+3V3*%
X162560000Y-112680000D03*
D11*
%TO.P,J2,2,Pin_2*%
%TO.N,Net-(J1-Pad2)*%
X162560000Y-108680000D03*
%TO.P,J2,3,Pin_3*%
%TO.N,Net-(J1-Pad3)*%
X162560000Y-104680000D03*
%TO.P,J2,4,Pin_4*%
%TO.N,GND*%
X162560000Y-100680000D03*
%TD*%
D12*
%TO.N,GND*%
X161925000Y-93980000D03*
X175895000Y-102235000D03*
%TD*%
%TA.AperFunction,Conductor*%
%TO.N,GND*%
G36*
X175230018Y-91950000D02*
G01*
X175244851Y-91952310D01*
X175244855Y-91952310D01*
X175253724Y-91953691D01*
X175272436Y-91951244D01*
X175295366Y-91950353D01*
X175598503Y-91966240D01*
X175611617Y-91967618D01*
X175939898Y-92019613D01*
X175952798Y-92022355D01*
X176273846Y-92108379D01*
X176286382Y-92112453D01*
X176557468Y-92216513D01*
X176596672Y-92231562D01*
X176608720Y-92236926D01*
X176904867Y-92387820D01*
X176916288Y-92394414D01*
X177195040Y-92575437D01*
X177205710Y-92583190D01*
X177464004Y-92792352D01*
X177473805Y-92801177D01*
X177708823Y-93036195D01*
X177717648Y-93045996D01*
X177926810Y-93304290D01*
X177934563Y-93314960D01*
X178115586Y-93593712D01*
X178122180Y-93605133D01*
X178273074Y-93901280D01*
X178278438Y-93913328D01*
X178392088Y-94209393D01*
X178397545Y-94223610D01*
X178401620Y-94236152D01*
X178460429Y-94455630D01*
X178487645Y-94557202D01*
X178490387Y-94570102D01*
X178542382Y-94898383D01*
X178543760Y-94911500D01*
X178559262Y-95207298D01*
X178557935Y-95233273D01*
X178557691Y-95234843D01*
X178557691Y-95234849D01*
X178556309Y-95243724D01*
X178557473Y-95252626D01*
X178557473Y-95252628D01*
X178560436Y-95275283D01*
X178561500Y-95291621D01*
X178561500Y-112980633D01*
X178560000Y-113000018D01*
X178557690Y-113014851D01*
X178557690Y-113014855D01*
X178556309Y-113023724D01*
X178558136Y-113037693D01*
X178558756Y-113042433D01*
X178559647Y-113065366D01*
X178543760Y-113368501D01*
X178542382Y-113381617D01*
X178490387Y-113709898D01*
X178487645Y-113722798D01*
X178482562Y-113741770D01*
X178420993Y-113971550D01*
X178401621Y-114043846D01*
X178397547Y-114056382D01*
X178293487Y-114327468D01*
X178278438Y-114366672D01*
X178273074Y-114378720D01*
X178122180Y-114674867D01*
X178115586Y-114686288D01*
X177934563Y-114965040D01*
X177926810Y-114975710D01*
X177717648Y-115234004D01*
X177708823Y-115243805D01*
X177473805Y-115478823D01*
X177464004Y-115487648D01*
X177205710Y-115696810D01*
X177195040Y-115704563D01*
X176916288Y-115885586D01*
X176904867Y-115892180D01*
X176608720Y-116043074D01*
X176596671Y-116048438D01*
X176286382Y-116167547D01*
X176273846Y-116171621D01*
X175952798Y-116257645D01*
X175939898Y-116260387D01*
X175611617Y-116312382D01*
X175598501Y-116313760D01*
X175564848Y-116315524D01*
X175302702Y-116329262D01*
X175276727Y-116327935D01*
X175275157Y-116327691D01*
X175275151Y-116327691D01*
X175266276Y-116326309D01*
X175257374Y-116327473D01*
X175257372Y-116327473D01*
X175242323Y-116329441D01*
X175234714Y-116330436D01*
X175218379Y-116331500D01*
X157529367Y-116331500D01*
X157509982Y-116330000D01*
X157495149Y-116327690D01*
X157495145Y-116327690D01*
X157486276Y-116326309D01*
X157467564Y-116328756D01*
X157444634Y-116329647D01*
X157141497Y-116313760D01*
X157128383Y-116312382D01*
X156800102Y-116260387D01*
X156787202Y-116257645D01*
X156466154Y-116171621D01*
X156453618Y-116167547D01*
X156143329Y-116048438D01*
X156131280Y-116043074D01*
X155835133Y-115892180D01*
X155823712Y-115885586D01*
X155544960Y-115704563D01*
X155534290Y-115696810D01*
X155275996Y-115487648D01*
X155266195Y-115478823D01*
X155031177Y-115243805D01*
X155022352Y-115234004D01*
X154813190Y-114975710D01*
X154805437Y-114965040D01*
X154624414Y-114686288D01*
X154617820Y-114674867D01*
X154466926Y-114378720D01*
X154461562Y-114366672D01*
X154446513Y-114327468D01*
X154342453Y-114056382D01*
X154338379Y-114043846D01*
X154319008Y-113971550D01*
X154257438Y-113741770D01*
X154252355Y-113722798D01*
X154249613Y-113709898D01*
X154197618Y-113381617D01*
X154196240Y-113368501D01*
X154185454Y-113162703D01*
X155370743Y-113162703D01*
X155408268Y-113447734D01*
X155484129Y-113725036D01*
X155485813Y-113728984D01*
X155590501Y-113974419D01*
X155596923Y-113989476D01*
X155744561Y-114236161D01*
X155924313Y-114460528D01*
X156132851Y-114658423D01*
X156366317Y-114826186D01*
X156370112Y-114828195D01*
X156370113Y-114828196D01*
X156391869Y-114839715D01*
X156620392Y-114960712D01*
X156890373Y-115059511D01*
X157171264Y-115120755D01*
X157199841Y-115123004D01*
X157394282Y-115138307D01*
X157394291Y-115138307D01*
X157396739Y-115138500D01*
X157552271Y-115138500D01*
X157554407Y-115138354D01*
X157554418Y-115138354D01*
X157762548Y-115124165D01*
X157762554Y-115124164D01*
X157766825Y-115123873D01*
X157771020Y-115123004D01*
X157771022Y-115123004D01*
X157907584Y-115094723D01*
X158048342Y-115065574D01*
X158319343Y-114969607D01*
X158574812Y-114837750D01*
X158578313Y-114835289D01*
X158578317Y-114835287D01*
X158692418Y-114755095D01*
X158810023Y-114672441D01*
X159020622Y-114476740D01*
X159202713Y-114254268D01*
X159352927Y-114009142D01*
X159409922Y-113879305D01*
X159466757Y-113749830D01*
X159468483Y-113745898D01*
X159547244Y-113469406D01*
X159567027Y-113330400D01*
X161201500Y-113330400D01*
X161201837Y-113333646D01*
X161201837Y-113333650D01*
X161211719Y-113428887D01*
X161212474Y-113436166D01*
X161268450Y-113603946D01*
X161361522Y-113754348D01*
X161486697Y-113879305D01*
X161492927Y-113883145D01*
X161492928Y-113883146D01*
X161630090Y-113967694D01*
X161637262Y-113972115D01*
X161677689Y-113985524D01*
X161798611Y-114025632D01*
X161798613Y-114025632D01*
X161805139Y-114027797D01*
X161811975Y-114028497D01*
X161811978Y-114028498D01*
X161855031Y-114032909D01*
X161909600Y-114038500D01*
X163210400Y-114038500D01*
X163213646Y-114038163D01*
X163213650Y-114038163D01*
X163309308Y-114028238D01*
X163309312Y-114028237D01*
X163316166Y-114027526D01*
X163322702Y-114025345D01*
X163322704Y-114025345D01*
X163454806Y-113981272D01*
X163483946Y-113971550D01*
X163634348Y-113878478D01*
X163759305Y-113753303D01*
X163778109Y-113722798D01*
X163848275Y-113608968D01*
X163848276Y-113608966D01*
X163852115Y-113602738D01*
X163897748Y-113465159D01*
X163905632Y-113441389D01*
X163905632Y-113441387D01*
X163907797Y-113434861D01*
X163918500Y-113330400D01*
X163918500Y-112029600D01*
X163907526Y-111923834D01*
X163851550Y-111756054D01*
X163758478Y-111605652D01*
X163633303Y-111480695D01*
X163627072Y-111476854D01*
X163488968Y-111391725D01*
X163488966Y-111391724D01*
X163482738Y-111387885D01*
X163322254Y-111334655D01*
X163321389Y-111334368D01*
X163321387Y-111334368D01*
X163314861Y-111332203D01*
X163308025Y-111331503D01*
X163308022Y-111331502D01*
X163264969Y-111327091D01*
X163210400Y-111321500D01*
X161909600Y-111321500D01*
X161906354Y-111321837D01*
X161906350Y-111321837D01*
X161810692Y-111331762D01*
X161810688Y-111331763D01*
X161803834Y-111332474D01*
X161797298Y-111334655D01*
X161797296Y-111334655D01*
X161665194Y-111378728D01*
X161636054Y-111388450D01*
X161485652Y-111481522D01*
X161360695Y-111606697D01*
X161267885Y-111757262D01*
X161212203Y-111925139D01*
X161201500Y-112029600D01*
X161201500Y-113330400D01*
X159567027Y-113330400D01*
X159587751Y-113184784D01*
X159587845Y-113166951D01*
X159589235Y-112901583D01*
X159589235Y-112901576D01*
X159589257Y-112897297D01*
X159551732Y-112612266D01*
X159475871Y-112334964D01*
X159363077Y-112070524D01*
X159215439Y-111823839D01*
X159035687Y-111599472D01*
X158907332Y-111477668D01*
X158830258Y-111404527D01*
X158830255Y-111404525D01*
X158827149Y-111401577D01*
X158593683Y-111233814D01*
X158571843Y-111222250D01*
X158548654Y-111209972D01*
X158339608Y-111099288D01*
X158069627Y-111000489D01*
X157788736Y-110939245D01*
X157757685Y-110936801D01*
X157565718Y-110921693D01*
X157565709Y-110921693D01*
X157563261Y-110921500D01*
X157407729Y-110921500D01*
X157405593Y-110921646D01*
X157405582Y-110921646D01*
X157197452Y-110935835D01*
X157197446Y-110935836D01*
X157193175Y-110936127D01*
X157188980Y-110936996D01*
X157188978Y-110936996D01*
X157052417Y-110965276D01*
X156911658Y-110994426D01*
X156640657Y-111090393D01*
X156385188Y-111222250D01*
X156381687Y-111224711D01*
X156381683Y-111224713D01*
X156371594Y-111231804D01*
X156149977Y-111387559D01*
X155939378Y-111583260D01*
X155757287Y-111805732D01*
X155607073Y-112050858D01*
X155491517Y-112314102D01*
X155412756Y-112590594D01*
X155372249Y-112875216D01*
X155372227Y-112879505D01*
X155372226Y-112879512D01*
X155371195Y-113076416D01*
X155370743Y-113162703D01*
X154185454Y-113162703D01*
X154180932Y-113076413D01*
X154182506Y-113048910D01*
X154182770Y-113047341D01*
X154183576Y-113042552D01*
X154183729Y-113030000D01*
X154179773Y-113002376D01*
X154178500Y-112984514D01*
X154178500Y-108646695D01*
X161197251Y-108646695D01*
X161197548Y-108651848D01*
X161197548Y-108651851D01*
X161203011Y-108746590D01*
X161210110Y-108869715D01*
X161211247Y-108874761D01*
X161211248Y-108874767D01*
X161222962Y-108926742D01*
X161259222Y-109087639D01*
X161343266Y-109294616D01*
X161459987Y-109485088D01*
X161606250Y-109653938D01*
X161778126Y-109796632D01*
X161971000Y-109909338D01*
X162179692Y-109989030D01*
X162184760Y-109990061D01*
X162184763Y-109990062D01*
X162292017Y-110011883D01*
X162398597Y-110033567D01*
X162403772Y-110033757D01*
X162403774Y-110033757D01*
X162616673Y-110041564D01*
X162616677Y-110041564D01*
X162621837Y-110041753D01*
X162626957Y-110041097D01*
X162626959Y-110041097D01*
X162838288Y-110014025D01*
X162838289Y-110014025D01*
X162843416Y-110013368D01*
X162848366Y-110011883D01*
X163052429Y-109950661D01*
X163052434Y-109950659D01*
X163057384Y-109949174D01*
X163257994Y-109850896D01*
X163439860Y-109721173D01*
X163598096Y-109563489D01*
X163606746Y-109551452D01*
X163725435Y-109386277D01*
X163728453Y-109382077D01*
X163753262Y-109331881D01*
X163825136Y-109186453D01*
X163825137Y-109186451D01*
X163827430Y-109181811D01*
X163877208Y-109017974D01*
X163890865Y-108973023D01*
X163890865Y-108973021D01*
X163892370Y-108968069D01*
X163921529Y-108746590D01*
X163921998Y-108727393D01*
X163923074Y-108683365D01*
X163923074Y-108683361D01*
X163923156Y-108680000D01*
X163904852Y-108457361D01*
X163891349Y-108403604D01*
X168457787Y-108403604D01*
X168467567Y-108614899D01*
X168468971Y-108620724D01*
X168468971Y-108620725D01*
X168499305Y-108746590D01*
X168517125Y-108820534D01*
X168519607Y-108825992D01*
X168519608Y-108825996D01*
X168563053Y-108921546D01*
X168604674Y-109013087D01*
X168727054Y-109185611D01*
X168879850Y-109331881D01*
X169057548Y-109446620D01*
X169063114Y-109448863D01*
X169248168Y-109523442D01*
X169248171Y-109523443D01*
X169253737Y-109525686D01*
X169461337Y-109566228D01*
X169466899Y-109566500D01*
X169622846Y-109566500D01*
X169780566Y-109551452D01*
X169983534Y-109491908D01*
X170067111Y-109448863D01*
X170166249Y-109397804D01*
X170166252Y-109397802D01*
X170171580Y-109395058D01*
X170337920Y-109264396D01*
X170341852Y-109259865D01*
X170341855Y-109259862D01*
X170472621Y-109109167D01*
X170476552Y-109104637D01*
X170479552Y-109099451D01*
X170479555Y-109099447D01*
X170579467Y-108926742D01*
X170582473Y-108921546D01*
X170651861Y-108721729D01*
X170657424Y-108683365D01*
X170681352Y-108518336D01*
X170681352Y-108518333D01*
X170682213Y-108512396D01*
X170677177Y-108403604D01*
X175457787Y-108403604D01*
X175467567Y-108614899D01*
X175468971Y-108620724D01*
X175468971Y-108620725D01*
X175499305Y-108746590D01*
X175517125Y-108820534D01*
X175519607Y-108825992D01*
X175519608Y-108825996D01*
X175563053Y-108921546D01*
X175604674Y-109013087D01*
X175727054Y-109185611D01*
X175879850Y-109331881D01*
X176057548Y-109446620D01*
X176063114Y-109448863D01*
X176248168Y-109523442D01*
X176248171Y-109523443D01*
X176253737Y-109525686D01*
X176461337Y-109566228D01*
X176466899Y-109566500D01*
X176622846Y-109566500D01*
X176780566Y-109551452D01*
X176983534Y-109491908D01*
X177067111Y-109448863D01*
X177166249Y-109397804D01*
X177166252Y-109397802D01*
X177171580Y-109395058D01*
X177337920Y-109264396D01*
X177341852Y-109259865D01*
X177341855Y-109259862D01*
X177472621Y-109109167D01*
X177476552Y-109104637D01*
X177479552Y-109099451D01*
X177479555Y-109099447D01*
X177579467Y-108926742D01*
X177582473Y-108921546D01*
X177651861Y-108721729D01*
X177657424Y-108683365D01*
X177681352Y-108518336D01*
X177681352Y-108518333D01*
X177682213Y-108512396D01*
X177672433Y-108301101D01*
X177622875Y-108095466D01*
X177597925Y-108040590D01*
X177537806Y-107908368D01*
X177535326Y-107902913D01*
X177412946Y-107730389D01*
X177260150Y-107584119D01*
X177082452Y-107469380D01*
X177001208Y-107436638D01*
X176891832Y-107392558D01*
X176891829Y-107392557D01*
X176886263Y-107390314D01*
X176678663Y-107349772D01*
X176673101Y-107349500D01*
X176517154Y-107349500D01*
X176359434Y-107364548D01*
X176156466Y-107424092D01*
X176151139Y-107426836D01*
X176151138Y-107426836D01*
X175973751Y-107518196D01*
X175973748Y-107518198D01*
X175968420Y-107520942D01*
X175802080Y-107651604D01*
X175798148Y-107656135D01*
X175798145Y-107656138D01*
X175729474Y-107735275D01*
X175663448Y-107811363D01*
X175660448Y-107816549D01*
X175660445Y-107816553D01*
X175639582Y-107852617D01*
X175557527Y-107994454D01*
X175488139Y-108194271D01*
X175457787Y-108403604D01*
X170677177Y-108403604D01*
X170672433Y-108301101D01*
X170622875Y-108095466D01*
X170597925Y-108040590D01*
X170537806Y-107908368D01*
X170535326Y-107902913D01*
X170412946Y-107730389D01*
X170260150Y-107584119D01*
X170082452Y-107469380D01*
X170001208Y-107436638D01*
X169891832Y-107392558D01*
X169891829Y-107392557D01*
X169886263Y-107390314D01*
X169678663Y-107349772D01*
X169673101Y-107349500D01*
X169517154Y-107349500D01*
X169359434Y-107364548D01*
X169156466Y-107424092D01*
X169151139Y-107426836D01*
X169151138Y-107426836D01*
X168973751Y-107518196D01*
X168973748Y-107518198D01*
X168968420Y-107520942D01*
X168802080Y-107651604D01*
X168798148Y-107656135D01*
X168798145Y-107656138D01*
X168729474Y-107735275D01*
X168663448Y-107811363D01*
X168660448Y-107816549D01*
X168660445Y-107816553D01*
X168639582Y-107852617D01*
X168557527Y-107994454D01*
X168488139Y-108194271D01*
X168457787Y-108403604D01*
X163891349Y-108403604D01*
X163850431Y-108240702D01*
X163761354Y-108035840D01*
X163640014Y-107848277D01*
X163489670Y-107683051D01*
X163485619Y-107679852D01*
X163485615Y-107679848D01*
X163318414Y-107547800D01*
X163318410Y-107547798D01*
X163314359Y-107544598D01*
X163118789Y-107436638D01*
X163113920Y-107434914D01*
X163113916Y-107434912D01*
X162913087Y-107363795D01*
X162913083Y-107363794D01*
X162908212Y-107362069D01*
X162903119Y-107361162D01*
X162903116Y-107361161D01*
X162693373Y-107323800D01*
X162693367Y-107323799D01*
X162688284Y-107322894D01*
X162614452Y-107321992D01*
X162470081Y-107320228D01*
X162470079Y-107320228D01*
X162464911Y-107320165D01*
X162244091Y-107353955D01*
X162031756Y-107423357D01*
X161833607Y-107526507D01*
X161829474Y-107529610D01*
X161829471Y-107529612D01*
X161751354Y-107588264D01*
X161654965Y-107660635D01*
X161500629Y-107822138D01*
X161374743Y-108006680D01*
X161333530Y-108095466D01*
X161284911Y-108200208D01*
X161280688Y-108209305D01*
X161220989Y-108424570D01*
X161197251Y-108646695D01*
X154178500Y-108646695D01*
X154178500Y-104646695D01*
X161197251Y-104646695D01*
X161197548Y-104651848D01*
X161197548Y-104651851D01*
X161203011Y-104746590D01*
X161210110Y-104869715D01*
X161211247Y-104874761D01*
X161211248Y-104874767D01*
X161231119Y-104962939D01*
X161259222Y-105087639D01*
X161343266Y-105294616D01*
X161459987Y-105485088D01*
X161606250Y-105653938D01*
X161778126Y-105796632D01*
X161971000Y-105909338D01*
X162179692Y-105989030D01*
X162184760Y-105990061D01*
X162184763Y-105990062D01*
X162292017Y-106011883D01*
X162398597Y-106033567D01*
X162403772Y-106033757D01*
X162403774Y-106033757D01*
X162616673Y-106041564D01*
X162616677Y-106041564D01*
X162621837Y-106041753D01*
X162626957Y-106041097D01*
X162626959Y-106041097D01*
X162838288Y-106014025D01*
X162838289Y-106014025D01*
X162843416Y-106013368D01*
X162848366Y-106011883D01*
X163052429Y-105950661D01*
X163052434Y-105950659D01*
X163057384Y-105949174D01*
X163257994Y-105850896D01*
X163439860Y-105721173D01*
X163598096Y-105563489D01*
X163657594Y-105480689D01*
X163725435Y-105386277D01*
X163728453Y-105382077D01*
X163827430Y-105181811D01*
X163892370Y-104968069D01*
X163921529Y-104746590D01*
X163923156Y-104680000D01*
X163904852Y-104457361D01*
X163850431Y-104240702D01*
X163761354Y-104035840D01*
X163640014Y-103848277D01*
X163489670Y-103683051D01*
X163485619Y-103679852D01*
X163485615Y-103679848D01*
X163318414Y-103547800D01*
X163318410Y-103547798D01*
X163314359Y-103544598D01*
X163118789Y-103436638D01*
X163113920Y-103434914D01*
X163113916Y-103434912D01*
X162913087Y-103363795D01*
X162913083Y-103363794D01*
X162908212Y-103362069D01*
X162903119Y-103361162D01*
X162903116Y-103361161D01*
X162693373Y-103323800D01*
X162693367Y-103323799D01*
X162688284Y-103322894D01*
X162614452Y-103321992D01*
X162470081Y-103320228D01*
X162470079Y-103320228D01*
X162464911Y-103320165D01*
X162244091Y-103353955D01*
X162031756Y-103423357D01*
X161833607Y-103526507D01*
X161829474Y-103529610D01*
X161829471Y-103529612D01*
X161805247Y-103547800D01*
X161654965Y-103660635D01*
X161500629Y-103822138D01*
X161374743Y-104006680D01*
X161280688Y-104209305D01*
X161220989Y-104424570D01*
X161197251Y-104646695D01*
X154178500Y-104646695D01*
X154178500Y-101804853D01*
X161799977Y-101804853D01*
X161805258Y-101811907D01*
X161966756Y-101906279D01*
X161976042Y-101910729D01*
X162175001Y-101986703D01*
X162184899Y-101989579D01*
X162393595Y-102032038D01*
X162403823Y-102033257D01*
X162616650Y-102041062D01*
X162626936Y-102040595D01*
X162838185Y-102013534D01*
X162848262Y-102011392D01*
X163052255Y-101950191D01*
X163061842Y-101946433D01*
X163253098Y-101852738D01*
X163261944Y-101847465D01*
X163309247Y-101813723D01*
X163317648Y-101803023D01*
X163310660Y-101789870D01*
X162572812Y-101052022D01*
X162558868Y-101044408D01*
X162557035Y-101044539D01*
X162550420Y-101048790D01*
X161806737Y-101792473D01*
X161799977Y-101804853D01*
X154178500Y-101804853D01*
X154178500Y-100651863D01*
X161198050Y-100651863D01*
X161210309Y-100864477D01*
X161211745Y-100874697D01*
X161258565Y-101082446D01*
X161261645Y-101092275D01*
X161341770Y-101289603D01*
X161346413Y-101298794D01*
X161426460Y-101429420D01*
X161436916Y-101438880D01*
X161445694Y-101435096D01*
X162187978Y-100692812D01*
X162194356Y-100681132D01*
X162924408Y-100681132D01*
X162924539Y-100682965D01*
X162928790Y-100689580D01*
X163670474Y-101431264D01*
X163682484Y-101437823D01*
X163694223Y-101428855D01*
X163725004Y-101386019D01*
X163730315Y-101377180D01*
X163824670Y-101186267D01*
X163828469Y-101176672D01*
X163890376Y-100972915D01*
X163892555Y-100962834D01*
X163902723Y-100885604D01*
X166527787Y-100885604D01*
X166537567Y-101096899D01*
X166538971Y-101102724D01*
X166538971Y-101102725D01*
X166584009Y-101289603D01*
X166587125Y-101302534D01*
X166589607Y-101307992D01*
X166589608Y-101307996D01*
X166633053Y-101403546D01*
X166674674Y-101495087D01*
X166797054Y-101667611D01*
X166949850Y-101813881D01*
X167127548Y-101928620D01*
X167133114Y-101930863D01*
X167318168Y-102005442D01*
X167318171Y-102005443D01*
X167323737Y-102007686D01*
X167531337Y-102048228D01*
X167536899Y-102048500D01*
X167692846Y-102048500D01*
X167850566Y-102033452D01*
X168053534Y-101973908D01*
X168058862Y-101971164D01*
X168236249Y-101879804D01*
X168236252Y-101879802D01*
X168241580Y-101877058D01*
X168407920Y-101746396D01*
X168411852Y-101741865D01*
X168411855Y-101741862D01*
X168542621Y-101591167D01*
X168546552Y-101586637D01*
X168549552Y-101581451D01*
X168549555Y-101581447D01*
X168649467Y-101408742D01*
X168652473Y-101403546D01*
X168721861Y-101203729D01*
X168738219Y-101090909D01*
X168751352Y-101000336D01*
X168751352Y-101000333D01*
X168752213Y-100994396D01*
X168742433Y-100783101D01*
X168692875Y-100577466D01*
X168649525Y-100482122D01*
X168607806Y-100390368D01*
X168605326Y-100384913D01*
X168482946Y-100212389D01*
X168330150Y-100066119D01*
X168152452Y-99951380D01*
X168079538Y-99921995D01*
X167961832Y-99874558D01*
X167961829Y-99874557D01*
X167956263Y-99872314D01*
X167748663Y-99831772D01*
X167743101Y-99831500D01*
X167587154Y-99831500D01*
X167429434Y-99846548D01*
X167226466Y-99906092D01*
X167221139Y-99908836D01*
X167221138Y-99908836D01*
X167043751Y-100000196D01*
X167043748Y-100000198D01*
X167038420Y-100002942D01*
X166872080Y-100133604D01*
X166868148Y-100138135D01*
X166868145Y-100138138D01*
X166774656Y-100245875D01*
X166733448Y-100293363D01*
X166730448Y-100298549D01*
X166730445Y-100298553D01*
X166724993Y-100307978D01*
X166627527Y-100476454D01*
X166558139Y-100676271D01*
X166557278Y-100682206D01*
X166557278Y-100682208D01*
X166555741Y-100692812D01*
X166527787Y-100885604D01*
X163902723Y-100885604D01*
X163920590Y-100749887D01*
X163921109Y-100743212D01*
X163922572Y-100683364D01*
X163922378Y-100676646D01*
X163904781Y-100462604D01*
X163903096Y-100452424D01*
X163851214Y-100245875D01*
X163847894Y-100236124D01*
X163762972Y-100040814D01*
X163758105Y-100031739D01*
X163693063Y-99931197D01*
X163682377Y-99921995D01*
X163672812Y-99926398D01*
X162932022Y-100667188D01*
X162924408Y-100681132D01*
X162194356Y-100681132D01*
X162195592Y-100678868D01*
X162195461Y-100677035D01*
X162191210Y-100670420D01*
X161449849Y-99929059D01*
X161438313Y-99922759D01*
X161426031Y-99932382D01*
X161378089Y-100002662D01*
X161373004Y-100011613D01*
X161283338Y-100204783D01*
X161279775Y-100214470D01*
X161222864Y-100419681D01*
X161220933Y-100429800D01*
X161198302Y-100641574D01*
X161198050Y-100651863D01*
X154178500Y-100651863D01*
X154178500Y-99556427D01*
X161801223Y-99556427D01*
X161807968Y-99568758D01*
X162547188Y-100307978D01*
X162561132Y-100315592D01*
X162562965Y-100315461D01*
X162569580Y-100311210D01*
X163313389Y-99567401D01*
X163320410Y-99554544D01*
X163313611Y-99545213D01*
X163309554Y-99542518D01*
X163123117Y-99439599D01*
X163113705Y-99435369D01*
X162912959Y-99364280D01*
X162902989Y-99361646D01*
X162693327Y-99324301D01*
X162683073Y-99323331D01*
X162470116Y-99320728D01*
X162459832Y-99321448D01*
X162249321Y-99353661D01*
X162239293Y-99356050D01*
X162036868Y-99422212D01*
X162027359Y-99426209D01*
X161838466Y-99524540D01*
X161829734Y-99530039D01*
X161809677Y-99545099D01*
X161801223Y-99556427D01*
X154178500Y-99556427D01*
X154178500Y-95382703D01*
X155370743Y-95382703D01*
X155408268Y-95667734D01*
X155484129Y-95945036D01*
X155596923Y-96209476D01*
X155744561Y-96456161D01*
X155924313Y-96680528D01*
X156132851Y-96878423D01*
X156366317Y-97046186D01*
X156370112Y-97048195D01*
X156370113Y-97048196D01*
X156391869Y-97059715D01*
X156620392Y-97180712D01*
X156890373Y-97279511D01*
X157171264Y-97340755D01*
X157199841Y-97343004D01*
X157394282Y-97358307D01*
X157394291Y-97358307D01*
X157396739Y-97358500D01*
X157552271Y-97358500D01*
X157554407Y-97358354D01*
X157554418Y-97358354D01*
X157762548Y-97344165D01*
X157762554Y-97344164D01*
X157766825Y-97343873D01*
X157771020Y-97343004D01*
X157771022Y-97343004D01*
X157907584Y-97314723D01*
X158048342Y-97285574D01*
X158319343Y-97189607D01*
X158574812Y-97057750D01*
X158578313Y-97055289D01*
X158578317Y-97055287D01*
X158692418Y-96975095D01*
X158810023Y-96892441D01*
X159020622Y-96696740D01*
X159202713Y-96474268D01*
X159352927Y-96229142D01*
X159468483Y-95965898D01*
X159547244Y-95689406D01*
X159587751Y-95404784D01*
X159587845Y-95386951D01*
X159587867Y-95382703D01*
X173150743Y-95382703D01*
X173188268Y-95667734D01*
X173264129Y-95945036D01*
X173376923Y-96209476D01*
X173524561Y-96456161D01*
X173704313Y-96680528D01*
X173912851Y-96878423D01*
X174146317Y-97046186D01*
X174150112Y-97048195D01*
X174150113Y-97048196D01*
X174171869Y-97059715D01*
X174400392Y-97180712D01*
X174670373Y-97279511D01*
X174951264Y-97340755D01*
X174979841Y-97343004D01*
X175174282Y-97358307D01*
X175174291Y-97358307D01*
X175176739Y-97358500D01*
X175332271Y-97358500D01*
X175334407Y-97358354D01*
X175334418Y-97358354D01*
X175542548Y-97344165D01*
X175542554Y-97344164D01*
X175546825Y-97343873D01*
X175551020Y-97343004D01*
X175551022Y-97343004D01*
X175687584Y-97314723D01*
X175828342Y-97285574D01*
X176099343Y-97189607D01*
X176354812Y-97057750D01*
X176358313Y-97055289D01*
X176358317Y-97055287D01*
X176472418Y-96975095D01*
X176590023Y-96892441D01*
X176800622Y-96696740D01*
X176982713Y-96474268D01*
X177132927Y-96229142D01*
X177248483Y-95965898D01*
X177327244Y-95689406D01*
X177367751Y-95404784D01*
X177367845Y-95386951D01*
X177369235Y-95121583D01*
X177369235Y-95121576D01*
X177369257Y-95117297D01*
X177331732Y-94832266D01*
X177326703Y-94813881D01*
X177265775Y-94591167D01*
X177255871Y-94554964D01*
X177188868Y-94397878D01*
X177144763Y-94294476D01*
X177144761Y-94294472D01*
X177143077Y-94290524D01*
X176995439Y-94043839D01*
X176815687Y-93819472D01*
X176607149Y-93621577D01*
X176373683Y-93453814D01*
X176351843Y-93442250D01*
X176328654Y-93429972D01*
X176119608Y-93319288D01*
X175849627Y-93220489D01*
X175568736Y-93159245D01*
X175537685Y-93156801D01*
X175345718Y-93141693D01*
X175345709Y-93141693D01*
X175343261Y-93141500D01*
X175187729Y-93141500D01*
X175185593Y-93141646D01*
X175185582Y-93141646D01*
X174977452Y-93155835D01*
X174977446Y-93155836D01*
X174973175Y-93156127D01*
X174968980Y-93156996D01*
X174968978Y-93156996D01*
X174832416Y-93185277D01*
X174691658Y-93214426D01*
X174420657Y-93310393D01*
X174165188Y-93442250D01*
X174161687Y-93444711D01*
X174161683Y-93444713D01*
X174108456Y-93482122D01*
X173929977Y-93607559D01*
X173914892Y-93621577D01*
X173734626Y-93789091D01*
X173719378Y-93803260D01*
X173537287Y-94025732D01*
X173387073Y-94270858D01*
X173385347Y-94274791D01*
X173385346Y-94274792D01*
X173331315Y-94397878D01*
X173271517Y-94534102D01*
X173192756Y-94810594D01*
X173152249Y-95095216D01*
X173152227Y-95099505D01*
X173152226Y-95099512D01*
X173151263Y-95283420D01*
X173150743Y-95382703D01*
X159587867Y-95382703D01*
X159589235Y-95121583D01*
X159589235Y-95121576D01*
X159589257Y-95117297D01*
X159551732Y-94832266D01*
X159546703Y-94813881D01*
X159485775Y-94591167D01*
X159475871Y-94554964D01*
X159408868Y-94397878D01*
X159364763Y-94294476D01*
X159364761Y-94294472D01*
X159363077Y-94290524D01*
X159215439Y-94043839D01*
X159088669Y-93885604D01*
X166527787Y-93885604D01*
X166537567Y-94096899D01*
X166538971Y-94102724D01*
X166538971Y-94102725D01*
X166584231Y-94290524D01*
X166587125Y-94302534D01*
X166589607Y-94307992D01*
X166589608Y-94307996D01*
X166633053Y-94403546D01*
X166674674Y-94495087D01*
X166797054Y-94667611D01*
X166949850Y-94813881D01*
X167127548Y-94928620D01*
X167133114Y-94930863D01*
X167318168Y-95005442D01*
X167318171Y-95005443D01*
X167323737Y-95007686D01*
X167531337Y-95048228D01*
X167536899Y-95048500D01*
X167692846Y-95048500D01*
X167850566Y-95033452D01*
X168053534Y-94973908D01*
X168137111Y-94930863D01*
X168236249Y-94879804D01*
X168236252Y-94879802D01*
X168241580Y-94877058D01*
X168407920Y-94746396D01*
X168411852Y-94741865D01*
X168411855Y-94741862D01*
X168542621Y-94591167D01*
X168546552Y-94586637D01*
X168549552Y-94581451D01*
X168549555Y-94581447D01*
X168649467Y-94408742D01*
X168652473Y-94403546D01*
X168721861Y-94203729D01*
X168745044Y-94043839D01*
X168751352Y-94000336D01*
X168751352Y-94000333D01*
X168752213Y-93994396D01*
X168742433Y-93783101D01*
X168700831Y-93610478D01*
X168694281Y-93583299D01*
X168694280Y-93583297D01*
X168692875Y-93577466D01*
X168649525Y-93482122D01*
X168607806Y-93390368D01*
X168605326Y-93384913D01*
X168482946Y-93212389D01*
X168330150Y-93066119D01*
X168152452Y-92951380D01*
X168092354Y-92927160D01*
X167961832Y-92874558D01*
X167961829Y-92874557D01*
X167956263Y-92872314D01*
X167748663Y-92831772D01*
X167743101Y-92831500D01*
X167587154Y-92831500D01*
X167429434Y-92846548D01*
X167226466Y-92906092D01*
X167221139Y-92908836D01*
X167221138Y-92908836D01*
X167043751Y-93000196D01*
X167043748Y-93000198D01*
X167038420Y-93002942D01*
X166872080Y-93133604D01*
X166868148Y-93138135D01*
X166868145Y-93138138D01*
X166802700Y-93213557D01*
X166733448Y-93293363D01*
X166730448Y-93298549D01*
X166730445Y-93298553D01*
X166645890Y-93444713D01*
X166627527Y-93476454D01*
X166558139Y-93676271D01*
X166557278Y-93682206D01*
X166557278Y-93682208D01*
X166537376Y-93819472D01*
X166527787Y-93885604D01*
X159088669Y-93885604D01*
X159035687Y-93819472D01*
X158827149Y-93621577D01*
X158593683Y-93453814D01*
X158571843Y-93442250D01*
X158548654Y-93429972D01*
X158339608Y-93319288D01*
X158069627Y-93220489D01*
X157788736Y-93159245D01*
X157757685Y-93156801D01*
X157565718Y-93141693D01*
X157565709Y-93141693D01*
X157563261Y-93141500D01*
X157407729Y-93141500D01*
X157405593Y-93141646D01*
X157405582Y-93141646D01*
X157197452Y-93155835D01*
X157197446Y-93155836D01*
X157193175Y-93156127D01*
X157188980Y-93156996D01*
X157188978Y-93156996D01*
X157052416Y-93185277D01*
X156911658Y-93214426D01*
X156640657Y-93310393D01*
X156385188Y-93442250D01*
X156381687Y-93444711D01*
X156381683Y-93444713D01*
X156328456Y-93482122D01*
X156149977Y-93607559D01*
X156134892Y-93621577D01*
X155954626Y-93789091D01*
X155939378Y-93803260D01*
X155757287Y-94025732D01*
X155607073Y-94270858D01*
X155605347Y-94274791D01*
X155605346Y-94274792D01*
X155551315Y-94397878D01*
X155491517Y-94534102D01*
X155412756Y-94810594D01*
X155372249Y-95095216D01*
X155372227Y-95099505D01*
X155372226Y-95099512D01*
X155371263Y-95283420D01*
X155370743Y-95382703D01*
X154178500Y-95382703D01*
X154178500Y-95303250D01*
X154180246Y-95282345D01*
X154182770Y-95267344D01*
X154182770Y-95267341D01*
X154183576Y-95262552D01*
X154183729Y-95250000D01*
X154183039Y-95245180D01*
X154181644Y-95235437D01*
X154180545Y-95210983D01*
X154196240Y-94911500D01*
X154197618Y-94898383D01*
X154249613Y-94570102D01*
X154252355Y-94557202D01*
X154279571Y-94455630D01*
X154338380Y-94236152D01*
X154342455Y-94223610D01*
X154347913Y-94209393D01*
X154461562Y-93913328D01*
X154466926Y-93901280D01*
X154617820Y-93605133D01*
X154624414Y-93593712D01*
X154805437Y-93314960D01*
X154813190Y-93304290D01*
X155022352Y-93045996D01*
X155031177Y-93036195D01*
X155266195Y-92801177D01*
X155275996Y-92792352D01*
X155534290Y-92583190D01*
X155544960Y-92575437D01*
X155823712Y-92394414D01*
X155835133Y-92387820D01*
X156131280Y-92236926D01*
X156143328Y-92231562D01*
X156182532Y-92216513D01*
X156453618Y-92112453D01*
X156466154Y-92108379D01*
X156787202Y-92022355D01*
X156800102Y-92019613D01*
X157128383Y-91967618D01*
X157141499Y-91966240D01*
X157175152Y-91964476D01*
X157437298Y-91950738D01*
X157463273Y-91952065D01*
X157464843Y-91952309D01*
X157464849Y-91952309D01*
X157473724Y-91953691D01*
X157482626Y-91952527D01*
X157482628Y-91952527D01*
X157497677Y-91950559D01*
X157505286Y-91949564D01*
X157521621Y-91948500D01*
X175210633Y-91948500D01*
X175230018Y-91950000D01*
G37*
%TD.AperFunction*%
%TD*%
M02*
