%TF.GenerationSoftware,KiCad,Pcbnew,(6.0.8)*%
%TF.CreationDate,2022-11-26T11:36:33-06:00*%
%TF.ProjectId,connector-joint,636f6e6e-6563-4746-9f72-2d6a6f696e74,rev?*%
%TF.SameCoordinates,Original*%
%TF.FileFunction,Copper,L1,Top*%
%TF.FilePolarity,Positive*%
%FSLAX46Y46*%
G04 Gerber Fmt 4.6, Leading zero omitted, Abs format (unit mm)*
G04 Created by KiCad (PCBNEW (6.0.8)) date 2022-11-26 11:36:33*
%MOMM*%
%LPD*%
G01*
G04 APERTURE LIST*
G04 Aperture macros list*
%AMRoundRect*
0 Rectangle with rounded corners*
0 $1 Rounding radius*
0 $2 $3 $4 $5 $6 $7 $8 $9 X,Y pos of 4 corners*
0 Add a 4 corners polygon primitive as box body*
4,1,4,$2,$3,$4,$5,$6,$7,$8,$9,$2,$3,0*
0 Add four circle primitives for the rounded corners*
1,1,$1+$1,$2,$3*
1,1,$1+$1,$4,$5*
1,1,$1+$1,$6,$7*
1,1,$1+$1,$8,$9*
0 Add four rect primitives between the rounded corners*
20,1,$1+$1,$2,$3,$4,$5,0*
20,1,$1+$1,$4,$5,$6,$7,0*
20,1,$1+$1,$6,$7,$8,$9,0*
20,1,$1+$1,$8,$9,$2,$3,0*%
G04 Aperture macros list end*
%TA.AperFunction,SMDPad,CuDef*%
%ADD10R,2.500000X1.500000*%
%TD*%
%TA.AperFunction,SMDPad,CuDef*%
%ADD11R,1.500000X2.500000*%
%TD*%
%TA.AperFunction,ComponentPad*%
%ADD12RoundRect,0.250000X0.600000X-0.600000X0.600000X0.600000X-0.600000X0.600000X-0.600000X-0.600000X0*%
%TD*%
%TA.AperFunction,ComponentPad*%
%ADD13C,1.700000*%
%TD*%
%TA.AperFunction,ViaPad*%
%ADD14C,1.200000*%
%TD*%
%TA.AperFunction,Conductor*%
%ADD15C,0.750000*%
%TD*%
%TA.AperFunction,Conductor*%
%ADD16C,1.500000*%
%TD*%
G04 APERTURE END LIST*
D10*
%TO.P,J3,1,S*%
%TO.N,+3V3*%
X171265000Y-94040000D03*
D11*
%TO.P,J3,2,T*%
%TO.N,Net-(J1-Pad2)*%
X167640000Y-103540000D03*
D10*
%TO.P,J3,3,R1*%
%TO.N,Net-(J1-Pad3)*%
X171265000Y-96740000D03*
%TO.P,J3,4,R2*%
%TO.N,GND*%
X164015000Y-94040000D03*
%TO.P,J3,5,R1N*%
%TO.N,unconnected-(J3-Pad5)*%
X164015000Y-96740000D03*
%TD*%
D12*
%TO.P,J2,1,Pin_1*%
%TO.N,+3V3*%
X162560000Y-112680000D03*
D13*
%TO.P,J2,2,Pin_2*%
%TO.N,Net-(J1-Pad2)*%
X162560000Y-108680000D03*
%TO.P,J2,3,Pin_3*%
%TO.N,Net-(J1-Pad3)*%
X162560000Y-104680000D03*
%TO.P,J2,4,Pin_4*%
%TO.N,GND*%
X162560000Y-100680000D03*
%TD*%
D11*
%TO.P,J1,1,S*%
%TO.N,+3V3*%
X176470000Y-112083000D03*
D10*
%TO.P,J1,2,T*%
%TO.N,Net-(J1-Pad2)*%
X166970000Y-108458000D03*
D11*
%TO.P,J1,3,R1*%
%TO.N,Net-(J1-Pad3)*%
X173770000Y-112083000D03*
%TO.P,J1,4,R2*%
%TO.N,GND*%
X176470000Y-104833000D03*
%TO.P,J1,5,R1N*%
%TO.N,unconnected-(J1-Pad5)*%
X173770000Y-104833000D03*
%TD*%
D14*
%TO.N,GND*%
X161925000Y-93980000D03*
X175895000Y-102235000D03*
%TD*%
D15*
%TO.N,Net-(J1-Pad2)*%
X162560000Y-108680000D02*
X166430000Y-108680000D01*
X167640000Y-103540000D02*
X167640000Y-107915000D01*
X167640000Y-107915000D02*
X166970000Y-108585000D01*
%TO.N,Net-(J1-Pad3)*%
X160020000Y-107220000D02*
X160020000Y-109220000D01*
X162560000Y-104680000D02*
X160020000Y-107220000D01*
X162560000Y-104680000D02*
X162560000Y-104140000D01*
X162560000Y-104140000D02*
X169960000Y-96740000D01*
X167640000Y-110490000D02*
X169360000Y-112210000D01*
X161290000Y-110490000D02*
X167640000Y-110490000D01*
X160020000Y-109220000D02*
X161290000Y-110490000D01*
X169960000Y-96740000D02*
X171265000Y-96740000D01*
X169360000Y-112210000D02*
X173770000Y-112210000D01*
D16*
%TO.N,GND*%
X176470000Y-104960000D02*
X176470000Y-102810000D01*
X176470000Y-102810000D02*
X175895000Y-102235000D01*
X161985000Y-94040000D02*
X164015000Y-94040000D01*
%TD*%
%TA.AperFunction,Conductor*%
%TO.N,+3V3*%
G36*
X175230018Y-91950000D02*
G01*
X175244851Y-91952310D01*
X175244855Y-91952310D01*
X175253724Y-91953691D01*
X175272436Y-91951244D01*
X175295366Y-91950353D01*
X175598503Y-91966240D01*
X175611617Y-91967618D01*
X175939898Y-92019613D01*
X175952798Y-92022355D01*
X176273846Y-92108379D01*
X176286382Y-92112453D01*
X176557468Y-92216513D01*
X176596672Y-92231562D01*
X176608720Y-92236926D01*
X176904867Y-92387820D01*
X176916288Y-92394414D01*
X177195040Y-92575437D01*
X177205710Y-92583190D01*
X177464004Y-92792352D01*
X177473805Y-92801177D01*
X177708823Y-93036195D01*
X177717648Y-93045996D01*
X177926810Y-93304290D01*
X177934563Y-93314960D01*
X178115586Y-93593712D01*
X178122180Y-93605133D01*
X178273074Y-93901280D01*
X178278438Y-93913328D01*
X178392088Y-94209393D01*
X178397545Y-94223610D01*
X178401620Y-94236152D01*
X178460429Y-94455630D01*
X178487645Y-94557202D01*
X178490387Y-94570102D01*
X178542382Y-94898383D01*
X178543760Y-94911500D01*
X178559262Y-95207298D01*
X178557935Y-95233273D01*
X178557691Y-95234843D01*
X178557691Y-95234849D01*
X178556309Y-95243724D01*
X178557473Y-95252626D01*
X178557473Y-95252628D01*
X178560436Y-95275283D01*
X178561500Y-95291621D01*
X178561500Y-112980633D01*
X178560000Y-113000018D01*
X178557690Y-113014851D01*
X178557690Y-113014855D01*
X178556309Y-113023724D01*
X178558756Y-113042433D01*
X178559647Y-113065366D01*
X178551569Y-113219500D01*
X178543760Y-113368501D01*
X178542382Y-113381617D01*
X178490387Y-113709898D01*
X178487645Y-113722798D01*
X178482562Y-113741770D01*
X178405866Y-114028005D01*
X178401621Y-114043846D01*
X178397547Y-114056382D01*
X178293487Y-114327468D01*
X178278438Y-114366672D01*
X178273074Y-114378720D01*
X178122180Y-114674867D01*
X178115586Y-114686288D01*
X177934563Y-114965040D01*
X177926810Y-114975710D01*
X177717648Y-115234004D01*
X177708823Y-115243805D01*
X177473805Y-115478823D01*
X177464004Y-115487648D01*
X177205710Y-115696810D01*
X177195040Y-115704563D01*
X176916288Y-115885586D01*
X176904867Y-115892180D01*
X176608720Y-116043074D01*
X176596671Y-116048438D01*
X176286382Y-116167547D01*
X176273846Y-116171621D01*
X175952798Y-116257645D01*
X175939898Y-116260387D01*
X175611617Y-116312382D01*
X175598501Y-116313760D01*
X175564848Y-116315524D01*
X175302702Y-116329262D01*
X175276727Y-116327935D01*
X175275157Y-116327691D01*
X175275151Y-116327691D01*
X175266276Y-116326309D01*
X175257374Y-116327473D01*
X175257372Y-116327473D01*
X175242323Y-116329441D01*
X175234714Y-116330436D01*
X175218379Y-116331500D01*
X157529367Y-116331500D01*
X157509982Y-116330000D01*
X157495149Y-116327690D01*
X157495145Y-116327690D01*
X157486276Y-116326309D01*
X157467564Y-116328756D01*
X157444634Y-116329647D01*
X157141497Y-116313760D01*
X157128383Y-116312382D01*
X156800102Y-116260387D01*
X156787202Y-116257645D01*
X156466154Y-116171621D01*
X156453618Y-116167547D01*
X156143329Y-116048438D01*
X156131280Y-116043074D01*
X155835133Y-115892180D01*
X155823712Y-115885586D01*
X155544960Y-115704563D01*
X155534290Y-115696810D01*
X155275996Y-115487648D01*
X155266195Y-115478823D01*
X155031177Y-115243805D01*
X155022352Y-115234004D01*
X154813190Y-114975710D01*
X154805437Y-114965040D01*
X154624414Y-114686288D01*
X154617820Y-114674867D01*
X154466926Y-114378720D01*
X154461562Y-114366672D01*
X154446513Y-114327468D01*
X154342453Y-114056382D01*
X154338379Y-114043846D01*
X154334135Y-114028005D01*
X154257438Y-113741770D01*
X154252355Y-113722798D01*
X154249613Y-113709898D01*
X154197618Y-113381617D01*
X154196240Y-113368501D01*
X154188431Y-113219500D01*
X154185454Y-113162703D01*
X155370743Y-113162703D01*
X155371302Y-113166947D01*
X155371302Y-113166951D01*
X155373084Y-113180488D01*
X155408268Y-113447734D01*
X155484129Y-113725036D01*
X155485813Y-113728984D01*
X155551401Y-113882751D01*
X155596923Y-113989476D01*
X155744561Y-114236161D01*
X155924313Y-114460528D01*
X156132851Y-114658423D01*
X156366317Y-114826186D01*
X156370112Y-114828195D01*
X156370113Y-114828196D01*
X156391869Y-114839715D01*
X156620392Y-114960712D01*
X156890373Y-115059511D01*
X157171264Y-115120755D01*
X157199841Y-115123004D01*
X157394282Y-115138307D01*
X157394291Y-115138307D01*
X157396739Y-115138500D01*
X157552271Y-115138500D01*
X157554407Y-115138354D01*
X157554418Y-115138354D01*
X157762548Y-115124165D01*
X157762554Y-115124164D01*
X157766825Y-115123873D01*
X157771020Y-115123004D01*
X157771022Y-115123004D01*
X157907584Y-115094723D01*
X158048342Y-115065574D01*
X158319343Y-114969607D01*
X158574812Y-114837750D01*
X158578313Y-114835289D01*
X158578317Y-114835287D01*
X158692418Y-114755095D01*
X158810023Y-114672441D01*
X159020622Y-114476740D01*
X159202713Y-114254268D01*
X159352927Y-114009142D01*
X159368370Y-113973963D01*
X159466757Y-113749830D01*
X159468483Y-113745898D01*
X159484770Y-113688724D01*
X159515824Y-113579705D01*
X159547244Y-113469406D01*
X159567498Y-113327095D01*
X161202001Y-113327095D01*
X161202338Y-113333614D01*
X161212257Y-113429206D01*
X161215149Y-113442600D01*
X161266588Y-113596784D01*
X161272761Y-113609962D01*
X161358063Y-113747807D01*
X161367099Y-113759208D01*
X161481829Y-113873739D01*
X161493240Y-113882751D01*
X161631243Y-113967816D01*
X161644424Y-113973963D01*
X161798710Y-114025138D01*
X161812086Y-114028005D01*
X161906438Y-114037672D01*
X161912854Y-114038000D01*
X162287885Y-114038000D01*
X162303124Y-114033525D01*
X162304329Y-114032135D01*
X162306000Y-114024452D01*
X162306000Y-114019884D01*
X162814000Y-114019884D01*
X162818475Y-114035123D01*
X162819865Y-114036328D01*
X162827548Y-114037999D01*
X163207095Y-114037999D01*
X163213614Y-114037662D01*
X163309206Y-114027743D01*
X163322600Y-114024851D01*
X163476784Y-113973412D01*
X163489962Y-113967239D01*
X163627807Y-113881937D01*
X163639208Y-113872901D01*
X163753739Y-113758171D01*
X163762751Y-113746760D01*
X163847816Y-113608757D01*
X163853963Y-113595576D01*
X163905138Y-113441290D01*
X163908005Y-113427914D01*
X163917672Y-113333562D01*
X163918000Y-113327146D01*
X163918000Y-112952115D01*
X163913525Y-112936876D01*
X163912135Y-112935671D01*
X163904452Y-112934000D01*
X162832115Y-112934000D01*
X162816876Y-112938475D01*
X162815671Y-112939865D01*
X162814000Y-112947548D01*
X162814000Y-114019884D01*
X162306000Y-114019884D01*
X162306000Y-112952115D01*
X162301525Y-112936876D01*
X162300135Y-112935671D01*
X162292452Y-112934000D01*
X161220116Y-112934000D01*
X161204877Y-112938475D01*
X161203672Y-112939865D01*
X161202001Y-112947548D01*
X161202001Y-113327095D01*
X159567498Y-113327095D01*
X159587751Y-113184784D01*
X159587844Y-113167158D01*
X159589235Y-112901583D01*
X159589235Y-112901576D01*
X159589257Y-112897297D01*
X159585331Y-112867472D01*
X159552292Y-112616522D01*
X159551732Y-112612266D01*
X159475871Y-112334964D01*
X159363077Y-112070524D01*
X159215439Y-111823839D01*
X159035687Y-111599472D01*
X158827149Y-111401577D01*
X158593683Y-111233814D01*
X158588163Y-111230891D01*
X158462305Y-111164253D01*
X158339608Y-111099288D01*
X158069627Y-111000489D01*
X157788736Y-110939245D01*
X157757685Y-110936801D01*
X157565718Y-110921693D01*
X157565709Y-110921693D01*
X157563261Y-110921500D01*
X157407729Y-110921500D01*
X157405593Y-110921646D01*
X157405582Y-110921646D01*
X157197452Y-110935835D01*
X157197446Y-110935836D01*
X157193175Y-110936127D01*
X157188980Y-110936996D01*
X157188978Y-110936996D01*
X157052417Y-110965276D01*
X156911658Y-110994426D01*
X156640657Y-111090393D01*
X156636848Y-111092359D01*
X156419999Y-111204283D01*
X156385188Y-111222250D01*
X156381687Y-111224711D01*
X156381683Y-111224713D01*
X156289366Y-111289595D01*
X156149977Y-111387559D01*
X156134892Y-111401577D01*
X156001784Y-111525269D01*
X155939378Y-111583260D01*
X155757287Y-111805732D01*
X155607073Y-112050858D01*
X155491517Y-112314102D01*
X155490342Y-112318229D01*
X155490341Y-112318230D01*
X155483324Y-112342865D01*
X155412756Y-112590594D01*
X155372249Y-112875216D01*
X155372227Y-112879505D01*
X155372226Y-112879512D01*
X155370765Y-113158417D01*
X155370743Y-113162703D01*
X154185454Y-113162703D01*
X154180932Y-113076413D01*
X154182506Y-113048910D01*
X154182770Y-113047341D01*
X154183576Y-113042552D01*
X154183729Y-113030000D01*
X154179773Y-113002376D01*
X154178500Y-112984514D01*
X154178500Y-109173507D01*
X159132850Y-109173507D01*
X159133195Y-109180094D01*
X159133195Y-109180098D01*
X159136327Y-109239850D01*
X159136500Y-109246445D01*
X159136500Y-109266306D01*
X159136844Y-109269577D01*
X159138576Y-109286059D01*
X159139093Y-109292628D01*
X159142570Y-109358971D01*
X159146042Y-109371929D01*
X159149645Y-109391372D01*
X159151046Y-109404702D01*
X159171578Y-109467894D01*
X159173444Y-109474196D01*
X159190638Y-109538363D01*
X159193634Y-109544242D01*
X159193637Y-109544251D01*
X159196728Y-109550317D01*
X159204292Y-109568579D01*
X159206392Y-109575043D01*
X159206395Y-109575051D01*
X159208436Y-109581331D01*
X159211738Y-109587050D01*
X159211740Y-109587055D01*
X159241654Y-109638867D01*
X159244787Y-109644637D01*
X159274953Y-109703839D01*
X159279109Y-109708971D01*
X159283391Y-109714259D01*
X159294589Y-109730552D01*
X159301296Y-109742169D01*
X159305713Y-109747075D01*
X159305717Y-109747080D01*
X159345747Y-109791538D01*
X159350031Y-109796554D01*
X159360441Y-109809409D01*
X159362528Y-109811986D01*
X159376573Y-109826031D01*
X159381114Y-109830816D01*
X159425566Y-109880185D01*
X159436426Y-109888075D01*
X159451454Y-109900912D01*
X160609088Y-111058546D01*
X160621925Y-111073574D01*
X160629815Y-111084434D01*
X160634725Y-111088855D01*
X160634726Y-111088856D01*
X160679184Y-111128886D01*
X160683969Y-111133427D01*
X160698014Y-111147472D01*
X160700588Y-111149556D01*
X160700591Y-111149559D01*
X160713446Y-111159969D01*
X160718462Y-111164253D01*
X160762920Y-111204283D01*
X160762925Y-111204287D01*
X160767831Y-111208704D01*
X160779097Y-111215209D01*
X160779448Y-111215411D01*
X160795741Y-111226609D01*
X160806161Y-111235047D01*
X160865363Y-111265213D01*
X160871133Y-111268346D01*
X160922945Y-111298260D01*
X160922950Y-111298262D01*
X160928669Y-111301564D01*
X160934949Y-111303605D01*
X160934957Y-111303608D01*
X160941421Y-111305708D01*
X160959683Y-111313272D01*
X160965749Y-111316363D01*
X160965758Y-111316366D01*
X160971637Y-111319362D01*
X160978015Y-111321071D01*
X161035804Y-111336556D01*
X161042106Y-111338422D01*
X161105298Y-111358954D01*
X161118205Y-111360311D01*
X161118628Y-111360355D01*
X161138071Y-111363958D01*
X161151029Y-111367430D01*
X161157620Y-111367775D01*
X161157624Y-111367776D01*
X161217354Y-111370906D01*
X161223929Y-111371423D01*
X161239126Y-111373020D01*
X161243694Y-111373500D01*
X161263568Y-111373500D01*
X161270162Y-111373673D01*
X161295637Y-111375008D01*
X161362618Y-111398547D01*
X161406239Y-111454562D01*
X161412651Y-111525269D01*
X161378216Y-111589852D01*
X161366265Y-111601824D01*
X161357249Y-111613240D01*
X161272184Y-111751243D01*
X161266037Y-111764424D01*
X161214862Y-111918710D01*
X161211995Y-111932086D01*
X161202328Y-112026438D01*
X161202000Y-112032855D01*
X161202000Y-112407885D01*
X161206475Y-112423124D01*
X161207865Y-112424329D01*
X161215548Y-112426000D01*
X163899884Y-112426000D01*
X163915123Y-112421525D01*
X163916328Y-112420135D01*
X163917999Y-112412452D01*
X163917999Y-112032905D01*
X163917662Y-112026386D01*
X163907743Y-111930794D01*
X163904851Y-111917400D01*
X163853412Y-111763216D01*
X163847239Y-111750038D01*
X163761937Y-111612193D01*
X163752901Y-111600792D01*
X163740761Y-111588673D01*
X163706682Y-111526390D01*
X163711685Y-111455570D01*
X163754183Y-111398697D01*
X163820681Y-111373829D01*
X163829779Y-111373500D01*
X167221852Y-111373500D01*
X167289973Y-111393502D01*
X167310947Y-111410405D01*
X168679088Y-112778546D01*
X168691925Y-112793574D01*
X168699815Y-112804434D01*
X168704725Y-112808855D01*
X168704726Y-112808856D01*
X168749184Y-112848886D01*
X168753969Y-112853427D01*
X168768014Y-112867472D01*
X168770588Y-112869556D01*
X168770591Y-112869559D01*
X168783446Y-112879969D01*
X168788462Y-112884253D01*
X168832920Y-112924283D01*
X168832925Y-112924287D01*
X168837831Y-112928704D01*
X168849097Y-112935209D01*
X168849448Y-112935411D01*
X168865741Y-112946609D01*
X168876161Y-112955047D01*
X168935363Y-112985213D01*
X168941133Y-112988346D01*
X168992945Y-113018260D01*
X168992950Y-113018262D01*
X168998669Y-113021564D01*
X169004949Y-113023605D01*
X169004957Y-113023608D01*
X169011421Y-113025708D01*
X169029683Y-113033272D01*
X169035755Y-113036365D01*
X169041637Y-113039362D01*
X169085455Y-113051103D01*
X169105813Y-113056558D01*
X169112112Y-113058424D01*
X169175298Y-113078954D01*
X169181867Y-113079644D01*
X169181874Y-113079646D01*
X169188645Y-113080358D01*
X169208074Y-113083958D01*
X169221029Y-113087429D01*
X169227625Y-113087775D01*
X169227627Y-113087775D01*
X169260429Y-113089494D01*
X169287353Y-113090905D01*
X169293912Y-113091421D01*
X169313694Y-113093500D01*
X169333574Y-113093500D01*
X169340169Y-113093673D01*
X169399902Y-113096804D01*
X169399906Y-113096804D01*
X169406493Y-113097149D01*
X169419740Y-113095051D01*
X169439450Y-113093500D01*
X172385500Y-113093500D01*
X172453621Y-113113502D01*
X172500114Y-113167158D01*
X172511500Y-113219500D01*
X172511500Y-113381134D01*
X172518255Y-113443316D01*
X172569385Y-113579705D01*
X172656739Y-113696261D01*
X172773295Y-113783615D01*
X172909684Y-113834745D01*
X172971866Y-113841500D01*
X174568134Y-113841500D01*
X174630316Y-113834745D01*
X174766705Y-113783615D01*
X174883261Y-113696261D01*
X174970615Y-113579705D01*
X175002285Y-113495226D01*
X175044927Y-113438462D01*
X175111488Y-113413762D01*
X175180837Y-113428970D01*
X175230955Y-113479256D01*
X175238249Y-113495226D01*
X175266676Y-113571054D01*
X175275214Y-113586649D01*
X175351715Y-113688724D01*
X175364276Y-113701285D01*
X175466351Y-113777786D01*
X175481946Y-113786324D01*
X175602394Y-113831478D01*
X175617649Y-113835105D01*
X175668514Y-113840631D01*
X175675328Y-113841000D01*
X176197885Y-113841000D01*
X176213124Y-113836525D01*
X176214329Y-113835135D01*
X176216000Y-113827452D01*
X176216000Y-113822884D01*
X176724000Y-113822884D01*
X176728475Y-113838123D01*
X176729865Y-113839328D01*
X176737548Y-113840999D01*
X177264669Y-113840999D01*
X177271490Y-113840629D01*
X177322352Y-113835105D01*
X177337604Y-113831479D01*
X177458054Y-113786324D01*
X177473649Y-113777786D01*
X177575724Y-113701285D01*
X177588285Y-113688724D01*
X177664786Y-113586649D01*
X177673324Y-113571054D01*
X177718478Y-113450606D01*
X177722105Y-113435351D01*
X177727631Y-113384486D01*
X177728000Y-113377672D01*
X177728000Y-112355115D01*
X177723525Y-112339876D01*
X177722135Y-112338671D01*
X177714452Y-112337000D01*
X176742115Y-112337000D01*
X176726876Y-112341475D01*
X176725671Y-112342865D01*
X176724000Y-112350548D01*
X176724000Y-113822884D01*
X176216000Y-113822884D01*
X176216000Y-111810885D01*
X176724000Y-111810885D01*
X176728475Y-111826124D01*
X176729865Y-111827329D01*
X176737548Y-111829000D01*
X177709884Y-111829000D01*
X177725123Y-111824525D01*
X177726328Y-111823135D01*
X177727999Y-111815452D01*
X177727999Y-110788331D01*
X177727629Y-110781510D01*
X177722105Y-110730648D01*
X177718479Y-110715396D01*
X177673324Y-110594946D01*
X177664786Y-110579351D01*
X177588285Y-110477276D01*
X177575724Y-110464715D01*
X177473649Y-110388214D01*
X177458054Y-110379676D01*
X177337606Y-110334522D01*
X177322351Y-110330895D01*
X177271486Y-110325369D01*
X177264672Y-110325000D01*
X176742115Y-110325000D01*
X176726876Y-110329475D01*
X176725671Y-110330865D01*
X176724000Y-110338548D01*
X176724000Y-111810885D01*
X176216000Y-111810885D01*
X176216000Y-110343116D01*
X176211525Y-110327877D01*
X176210135Y-110326672D01*
X176202452Y-110325001D01*
X175675331Y-110325001D01*
X175668510Y-110325371D01*
X175617648Y-110330895D01*
X175602396Y-110334521D01*
X175481946Y-110379676D01*
X175466351Y-110388214D01*
X175364276Y-110464715D01*
X175351715Y-110477276D01*
X175275214Y-110579351D01*
X175266676Y-110594946D01*
X175238249Y-110670774D01*
X175195607Y-110727538D01*
X175129046Y-110752238D01*
X175059697Y-110737030D01*
X175009579Y-110686744D01*
X175002285Y-110670774D01*
X174973767Y-110594703D01*
X174970615Y-110586295D01*
X174883261Y-110469739D01*
X174766705Y-110382385D01*
X174630316Y-110331255D01*
X174568134Y-110324500D01*
X172971866Y-110324500D01*
X172909684Y-110331255D01*
X172773295Y-110382385D01*
X172656739Y-110469739D01*
X172569385Y-110586295D01*
X172518255Y-110722684D01*
X172511500Y-110784866D01*
X172511500Y-111200500D01*
X172491498Y-111268621D01*
X172437842Y-111315114D01*
X172385500Y-111326500D01*
X169778148Y-111326500D01*
X169710027Y-111306498D01*
X169689053Y-111289595D01*
X168320912Y-109921454D01*
X168308075Y-109906426D01*
X168300185Y-109895567D01*
X168301732Y-109894443D01*
X168274996Y-109838719D01*
X168283766Y-109768266D01*
X168329235Y-109713739D01*
X168355121Y-109700446D01*
X168458297Y-109661767D01*
X168466705Y-109658615D01*
X168583261Y-109571261D01*
X168670615Y-109454705D01*
X168673768Y-109446295D01*
X168693551Y-109393524D01*
X168736192Y-109336759D01*
X168802754Y-109312059D01*
X168872103Y-109327266D01*
X168879881Y-109331901D01*
X169057548Y-109446620D01*
X169110286Y-109467874D01*
X169248168Y-109523442D01*
X169248171Y-109523443D01*
X169253737Y-109525686D01*
X169461337Y-109566228D01*
X169466899Y-109566500D01*
X169622846Y-109566500D01*
X169780566Y-109551452D01*
X169983534Y-109491908D01*
X170041816Y-109461891D01*
X170166249Y-109397804D01*
X170166252Y-109397802D01*
X170171580Y-109395058D01*
X170337920Y-109264396D01*
X170341852Y-109259865D01*
X170341855Y-109259862D01*
X170472621Y-109109167D01*
X170476552Y-109104637D01*
X170479552Y-109099451D01*
X170479555Y-109099447D01*
X170579467Y-108926742D01*
X170582473Y-108921546D01*
X170651861Y-108721729D01*
X170661993Y-108651851D01*
X170681352Y-108518336D01*
X170681352Y-108518333D01*
X170682213Y-108512396D01*
X170677177Y-108403604D01*
X175457787Y-108403604D01*
X175467567Y-108614899D01*
X175468971Y-108620724D01*
X175468971Y-108620725D01*
X175512623Y-108801852D01*
X175517125Y-108820534D01*
X175519607Y-108825992D01*
X175519608Y-108825996D01*
X175561138Y-108917335D01*
X175604674Y-109013087D01*
X175727054Y-109185611D01*
X175879850Y-109331881D01*
X176057548Y-109446620D01*
X176110286Y-109467874D01*
X176248168Y-109523442D01*
X176248171Y-109523443D01*
X176253737Y-109525686D01*
X176461337Y-109566228D01*
X176466899Y-109566500D01*
X176622846Y-109566500D01*
X176780566Y-109551452D01*
X176983534Y-109491908D01*
X177041816Y-109461891D01*
X177166249Y-109397804D01*
X177166252Y-109397802D01*
X177171580Y-109395058D01*
X177337920Y-109264396D01*
X177341852Y-109259865D01*
X177341855Y-109259862D01*
X177472621Y-109109167D01*
X177476552Y-109104637D01*
X177479552Y-109099451D01*
X177479555Y-109099447D01*
X177579467Y-108926742D01*
X177582473Y-108921546D01*
X177651861Y-108721729D01*
X177661993Y-108651851D01*
X177681352Y-108518336D01*
X177681352Y-108518333D01*
X177682213Y-108512396D01*
X177672433Y-108301101D01*
X177622875Y-108095466D01*
X177579525Y-108000122D01*
X177537806Y-107908368D01*
X177535326Y-107902913D01*
X177412946Y-107730389D01*
X177260150Y-107584119D01*
X177082452Y-107469380D01*
X177001208Y-107436638D01*
X176891832Y-107392558D01*
X176891829Y-107392557D01*
X176886263Y-107390314D01*
X176678663Y-107349772D01*
X176673101Y-107349500D01*
X176517154Y-107349500D01*
X176359434Y-107364548D01*
X176156466Y-107424092D01*
X176151139Y-107426836D01*
X176151138Y-107426836D01*
X175973751Y-107518196D01*
X175973748Y-107518198D01*
X175968420Y-107520942D01*
X175802080Y-107651604D01*
X175798148Y-107656135D01*
X175798145Y-107656138D01*
X175729474Y-107735275D01*
X175663448Y-107811363D01*
X175660448Y-107816549D01*
X175660445Y-107816553D01*
X175659376Y-107818401D01*
X175557527Y-107994454D01*
X175488139Y-108194271D01*
X175457787Y-108403604D01*
X170677177Y-108403604D01*
X170672433Y-108301101D01*
X170622875Y-108095466D01*
X170579525Y-108000122D01*
X170537806Y-107908368D01*
X170535326Y-107902913D01*
X170412946Y-107730389D01*
X170260150Y-107584119D01*
X170082452Y-107469380D01*
X170001208Y-107436638D01*
X169891832Y-107392558D01*
X169891829Y-107392557D01*
X169886263Y-107390314D01*
X169678663Y-107349772D01*
X169673101Y-107349500D01*
X169517154Y-107349500D01*
X169359434Y-107364548D01*
X169156466Y-107424092D01*
X169151139Y-107426836D01*
X169151138Y-107426836D01*
X168973751Y-107518196D01*
X168973748Y-107518198D01*
X168968420Y-107520942D01*
X168963707Y-107524644D01*
X168963704Y-107524646D01*
X168937034Y-107545596D01*
X168891019Y-107581741D01*
X168825094Y-107608092D01*
X168755388Y-107594618D01*
X168704032Y-107545596D01*
X168695204Y-107526886D01*
X168673767Y-107469703D01*
X168670615Y-107461295D01*
X168636292Y-107415498D01*
X168588645Y-107351922D01*
X168588642Y-107351919D01*
X168583261Y-107344739D01*
X168573938Y-107337752D01*
X168572346Y-107335623D01*
X168569729Y-107333006D01*
X168570107Y-107332628D01*
X168531421Y-107280893D01*
X168523500Y-107236923D01*
X168523500Y-106131134D01*
X172511500Y-106131134D01*
X172518255Y-106193316D01*
X172569385Y-106329705D01*
X172656739Y-106446261D01*
X172773295Y-106533615D01*
X172909684Y-106584745D01*
X172971866Y-106591500D01*
X174568134Y-106591500D01*
X174630316Y-106584745D01*
X174766705Y-106533615D01*
X174883261Y-106446261D01*
X174970615Y-106329705D01*
X175002018Y-106245938D01*
X175044660Y-106189174D01*
X175111221Y-106164474D01*
X175180570Y-106179681D01*
X175230688Y-106229967D01*
X175237982Y-106245938D01*
X175269385Y-106329705D01*
X175356739Y-106446261D01*
X175473295Y-106533615D01*
X175609684Y-106584745D01*
X175671866Y-106591500D01*
X177268134Y-106591500D01*
X177330316Y-106584745D01*
X177466705Y-106533615D01*
X177583261Y-106446261D01*
X177670615Y-106329705D01*
X177721745Y-106193316D01*
X177728500Y-106131134D01*
X177728500Y-102901396D01*
X177729578Y-102884949D01*
X177731747Y-102868472D01*
X177732479Y-102862914D01*
X177731248Y-102836798D01*
X177728640Y-102781504D01*
X177728500Y-102775569D01*
X177728500Y-102753001D01*
X177728252Y-102750218D01*
X177728251Y-102750204D01*
X177726182Y-102727023D01*
X177725823Y-102721760D01*
X177722161Y-102644116D01*
X177721897Y-102638512D01*
X177717892Y-102621023D01*
X177715212Y-102604104D01*
X177714115Y-102591821D01*
X177713617Y-102586238D01*
X177712137Y-102580827D01*
X177691631Y-102505870D01*
X177690345Y-102500752D01*
X177672994Y-102424997D01*
X177671742Y-102419530D01*
X177664707Y-102403037D01*
X177659072Y-102386855D01*
X177655820Y-102374967D01*
X177655817Y-102374958D01*
X177654337Y-102369549D01*
X177651922Y-102364486D01*
X177651918Y-102364475D01*
X177618466Y-102294343D01*
X177616293Y-102289532D01*
X177585803Y-102218048D01*
X177583604Y-102212892D01*
X177573756Y-102197900D01*
X177565344Y-102182971D01*
X177557622Y-102166782D01*
X177508996Y-102099111D01*
X177506013Y-102094771D01*
X177462805Y-102028992D01*
X177462801Y-102028987D01*
X177460265Y-102025126D01*
X177441751Y-102004346D01*
X177433506Y-101994055D01*
X177429807Y-101988907D01*
X177429803Y-101988903D01*
X177426529Y-101984346D01*
X177349777Y-101909968D01*
X177348367Y-101908579D01*
X176744590Y-101304802D01*
X176616146Y-101197406D01*
X176421007Y-101086101D01*
X176415730Y-101084232D01*
X176415725Y-101084230D01*
X176214531Y-101012984D01*
X176214528Y-101012983D01*
X176209241Y-101011111D01*
X175987543Y-100974806D01*
X175981930Y-100974894D01*
X175981927Y-100974894D01*
X175863124Y-100976761D01*
X175762919Y-100978335D01*
X175757414Y-100979415D01*
X175547979Y-101020504D01*
X175547975Y-101020505D01*
X175542471Y-101021585D01*
X175537245Y-101023623D01*
X175537240Y-101023624D01*
X175395263Y-101078979D01*
X175333165Y-101103190D01*
X175141618Y-101220570D01*
X175137425Y-101224305D01*
X175137422Y-101224308D01*
X175058511Y-101294616D01*
X174973885Y-101370015D01*
X174835266Y-101546801D01*
X174730146Y-101745341D01*
X174728440Y-101750687D01*
X174728439Y-101750689D01*
X174707761Y-101815482D01*
X174661844Y-101959357D01*
X174661112Y-101964914D01*
X174661112Y-101964916D01*
X174657276Y-101994055D01*
X174632521Y-102182086D01*
X174643104Y-102406488D01*
X174664694Y-102500752D01*
X174690323Y-102612654D01*
X174693258Y-102625470D01*
X174781397Y-102832109D01*
X174784477Y-102836797D01*
X174784477Y-102836798D01*
X174835920Y-102915114D01*
X174856602Y-102983031D01*
X174837281Y-103051348D01*
X174784093Y-103098375D01*
X174713923Y-103109180D01*
X174686380Y-103102273D01*
X174630316Y-103081255D01*
X174568134Y-103074500D01*
X172971866Y-103074500D01*
X172909684Y-103081255D01*
X172773295Y-103132385D01*
X172656739Y-103219739D01*
X172569385Y-103336295D01*
X172518255Y-103472684D01*
X172511500Y-103534866D01*
X172511500Y-106131134D01*
X168523500Y-106131134D01*
X168523500Y-105370382D01*
X168543502Y-105302261D01*
X168597158Y-105255768D01*
X168605269Y-105252401D01*
X168628293Y-105243769D01*
X168628296Y-105243768D01*
X168636705Y-105240615D01*
X168753261Y-105153261D01*
X168840615Y-105036705D01*
X168891745Y-104900316D01*
X168898500Y-104838134D01*
X168898500Y-102241866D01*
X168891745Y-102179684D01*
X168840615Y-102043295D01*
X168753261Y-101926739D01*
X168636705Y-101839385D01*
X168572944Y-101815482D01*
X168516180Y-101772840D01*
X168491480Y-101706279D01*
X168506687Y-101636930D01*
X168522005Y-101614925D01*
X168546552Y-101586637D01*
X168549552Y-101581451D01*
X168549555Y-101581447D01*
X168649467Y-101408742D01*
X168652473Y-101403546D01*
X168721861Y-101203729D01*
X168736734Y-101101155D01*
X168751352Y-101000336D01*
X168751352Y-101000333D01*
X168752213Y-100994396D01*
X168742433Y-100783101D01*
X168692875Y-100577466D01*
X168605326Y-100384913D01*
X168482946Y-100212389D01*
X168330150Y-100066119D01*
X168325118Y-100062870D01*
X168325108Y-100062862D01*
X168189713Y-99975438D01*
X168143335Y-99921683D01*
X168133382Y-99851388D01*
X168163014Y-99786870D01*
X168168966Y-99780492D01*
X169914053Y-98035405D01*
X169976365Y-98001379D01*
X170003148Y-97998500D01*
X172563134Y-97998500D01*
X172625316Y-97991745D01*
X172761705Y-97940615D01*
X172878261Y-97853261D01*
X172965615Y-97736705D01*
X173016745Y-97600316D01*
X173023500Y-97538134D01*
X173023500Y-95997444D01*
X173043502Y-95929323D01*
X173097158Y-95882830D01*
X173167432Y-95872726D01*
X173232012Y-95902220D01*
X173265397Y-95948009D01*
X173286483Y-95997444D01*
X173376923Y-96209476D01*
X173524561Y-96456161D01*
X173704313Y-96680528D01*
X173912851Y-96878423D01*
X174146317Y-97046186D01*
X174150112Y-97048195D01*
X174150113Y-97048196D01*
X174171869Y-97059715D01*
X174400392Y-97180712D01*
X174670373Y-97279511D01*
X174951264Y-97340755D01*
X174979841Y-97343004D01*
X175174282Y-97358307D01*
X175174291Y-97358307D01*
X175176739Y-97358500D01*
X175332271Y-97358500D01*
X175334407Y-97358354D01*
X175334418Y-97358354D01*
X175542548Y-97344165D01*
X175542554Y-97344164D01*
X175546825Y-97343873D01*
X175551020Y-97343004D01*
X175551022Y-97343004D01*
X175687584Y-97314723D01*
X175828342Y-97285574D01*
X176099343Y-97189607D01*
X176354812Y-97057750D01*
X176358313Y-97055289D01*
X176358317Y-97055287D01*
X176472418Y-96975095D01*
X176590023Y-96892441D01*
X176800622Y-96696740D01*
X176982713Y-96474268D01*
X177132927Y-96229142D01*
X177248483Y-95965898D01*
X177327244Y-95689406D01*
X177367751Y-95404784D01*
X177367783Y-95398779D01*
X177369235Y-95121583D01*
X177369235Y-95121576D01*
X177369257Y-95117297D01*
X177365663Y-95089993D01*
X177350601Y-94975594D01*
X177331732Y-94832266D01*
X177326703Y-94813881D01*
X177265775Y-94591167D01*
X177255871Y-94554964D01*
X177188868Y-94397878D01*
X177144763Y-94294476D01*
X177144761Y-94294472D01*
X177143077Y-94290524D01*
X177020234Y-94085268D01*
X176997643Y-94047521D01*
X176997640Y-94047517D01*
X176995439Y-94043839D01*
X176815687Y-93819472D01*
X176623367Y-93636967D01*
X176610258Y-93624527D01*
X176610255Y-93624525D01*
X176607149Y-93621577D01*
X176373683Y-93453814D01*
X176351843Y-93442250D01*
X176322304Y-93426610D01*
X176119608Y-93319288D01*
X175916057Y-93244799D01*
X175853658Y-93221964D01*
X175853656Y-93221963D01*
X175849627Y-93220489D01*
X175568736Y-93159245D01*
X175537685Y-93156801D01*
X175345718Y-93141693D01*
X175345709Y-93141693D01*
X175343261Y-93141500D01*
X175187729Y-93141500D01*
X175185593Y-93141646D01*
X175185582Y-93141646D01*
X174977452Y-93155835D01*
X174977446Y-93155836D01*
X174973175Y-93156127D01*
X174968980Y-93156996D01*
X174968978Y-93156996D01*
X174895150Y-93172285D01*
X174691658Y-93214426D01*
X174420657Y-93310393D01*
X174165188Y-93442250D01*
X174161687Y-93444711D01*
X174161683Y-93444713D01*
X174108456Y-93482122D01*
X173929977Y-93607559D01*
X173914892Y-93621577D01*
X173734626Y-93789091D01*
X173719378Y-93803260D01*
X173537287Y-94025732D01*
X173387073Y-94270858D01*
X173385347Y-94274791D01*
X173385346Y-94274792D01*
X173370735Y-94308077D01*
X173271517Y-94534102D01*
X173270342Y-94538229D01*
X173270341Y-94538230D01*
X173270179Y-94538799D01*
X173270080Y-94538957D01*
X173268888Y-94542266D01*
X173268157Y-94542003D01*
X173232280Y-94598834D01*
X173167940Y-94628848D01*
X173097586Y-94619313D01*
X173043556Y-94573256D01*
X173023000Y-94504280D01*
X173023000Y-94312115D01*
X173018525Y-94296876D01*
X173017135Y-94295671D01*
X173009452Y-94294000D01*
X169525116Y-94294000D01*
X169509877Y-94298475D01*
X169508672Y-94299865D01*
X169507001Y-94307548D01*
X169507001Y-94834669D01*
X169507371Y-94841490D01*
X169512895Y-94892352D01*
X169516521Y-94907604D01*
X169561676Y-95028054D01*
X169570214Y-95043649D01*
X169646715Y-95145724D01*
X169659276Y-95158285D01*
X169761351Y-95234786D01*
X169776946Y-95243324D01*
X169852774Y-95271751D01*
X169909538Y-95314393D01*
X169934238Y-95380954D01*
X169919030Y-95450303D01*
X169868744Y-95500421D01*
X169852774Y-95507715D01*
X169852062Y-95507982D01*
X169768295Y-95539385D01*
X169651739Y-95626739D01*
X169564385Y-95743295D01*
X169513255Y-95879684D01*
X169512402Y-95887537D01*
X169512401Y-95887541D01*
X169508793Y-95920761D01*
X169481552Y-95986324D01*
X169446527Y-96016275D01*
X169437831Y-96021296D01*
X169432925Y-96025713D01*
X169432920Y-96025717D01*
X169388462Y-96065747D01*
X169383446Y-96070031D01*
X169370591Y-96080441D01*
X169368014Y-96082528D01*
X169353969Y-96096573D01*
X169349184Y-96101114D01*
X169299815Y-96145566D01*
X169291925Y-96156426D01*
X169279088Y-96171454D01*
X163937308Y-101513234D01*
X163874996Y-101547260D01*
X163804181Y-101542195D01*
X163747345Y-101499648D01*
X163722534Y-101433128D01*
X163735256Y-101368312D01*
X163766644Y-101304802D01*
X163827430Y-101181811D01*
X163890048Y-100975713D01*
X163890865Y-100973023D01*
X163890865Y-100973021D01*
X163892370Y-100968069D01*
X163921529Y-100746590D01*
X163923156Y-100680000D01*
X163904852Y-100457361D01*
X163850431Y-100240702D01*
X163761354Y-100035840D01*
X163706714Y-99951380D01*
X163642822Y-99852617D01*
X163642820Y-99852614D01*
X163640014Y-99848277D01*
X163489670Y-99683051D01*
X163485619Y-99679852D01*
X163485615Y-99679848D01*
X163318414Y-99547800D01*
X163318410Y-99547798D01*
X163314359Y-99544598D01*
X163118789Y-99436638D01*
X163113920Y-99434914D01*
X163113916Y-99434912D01*
X162913087Y-99363795D01*
X162913083Y-99363794D01*
X162908212Y-99362069D01*
X162903119Y-99361162D01*
X162903116Y-99361161D01*
X162693373Y-99323800D01*
X162693367Y-99323799D01*
X162688284Y-99322894D01*
X162614452Y-99321992D01*
X162470081Y-99320228D01*
X162470079Y-99320228D01*
X162464911Y-99320165D01*
X162244091Y-99353955D01*
X162031756Y-99423357D01*
X161833607Y-99526507D01*
X161829474Y-99529610D01*
X161829471Y-99529612D01*
X161805247Y-99547800D01*
X161654965Y-99660635D01*
X161500629Y-99822138D01*
X161374743Y-100006680D01*
X161280688Y-100209305D01*
X161220989Y-100424570D01*
X161197251Y-100646695D01*
X161197548Y-100651848D01*
X161197548Y-100651851D01*
X161203011Y-100746590D01*
X161210110Y-100869715D01*
X161211247Y-100874761D01*
X161211248Y-100874767D01*
X161231119Y-100962939D01*
X161259222Y-101087639D01*
X161343266Y-101294616D01*
X161345965Y-101299020D01*
X161433680Y-101442158D01*
X161459987Y-101485088D01*
X161606250Y-101653938D01*
X161778126Y-101796632D01*
X161971000Y-101909338D01*
X161975825Y-101911180D01*
X161975826Y-101911181D01*
X162025632Y-101930200D01*
X162179692Y-101989030D01*
X162184760Y-101990061D01*
X162184763Y-101990062D01*
X162254972Y-102004346D01*
X162398597Y-102033567D01*
X162403772Y-102033757D01*
X162403774Y-102033757D01*
X162616673Y-102041564D01*
X162616677Y-102041564D01*
X162621837Y-102041753D01*
X162626957Y-102041097D01*
X162626959Y-102041097D01*
X162838288Y-102014025D01*
X162838289Y-102014025D01*
X162843416Y-102013368D01*
X162884074Y-102001170D01*
X163052429Y-101950661D01*
X163052434Y-101950659D01*
X163057384Y-101949174D01*
X163247955Y-101855814D01*
X163317929Y-101843807D01*
X163383286Y-101871537D01*
X163423276Y-101930200D01*
X163425202Y-102001170D01*
X163392482Y-102058060D01*
X162035935Y-103414607D01*
X162005021Y-103437274D01*
X161833607Y-103526507D01*
X161829474Y-103529610D01*
X161829471Y-103529612D01*
X161659100Y-103657530D01*
X161654965Y-103660635D01*
X161500629Y-103822138D01*
X161374743Y-104006680D01*
X161372564Y-104011375D01*
X161308129Y-104150189D01*
X161280688Y-104209305D01*
X161220989Y-104424570D01*
X161197251Y-104646695D01*
X161197548Y-104651847D01*
X161197548Y-104651851D01*
X161201991Y-104728899D01*
X161185944Y-104798058D01*
X161165295Y-104825247D01*
X159451454Y-106539088D01*
X159436426Y-106551925D01*
X159425566Y-106559815D01*
X159421145Y-106564725D01*
X159421144Y-106564726D01*
X159381114Y-106609184D01*
X159376573Y-106613969D01*
X159362528Y-106628014D01*
X159360444Y-106630588D01*
X159360441Y-106630591D01*
X159350031Y-106643446D01*
X159345747Y-106648462D01*
X159305717Y-106692920D01*
X159305713Y-106692925D01*
X159301296Y-106697831D01*
X159294791Y-106709097D01*
X159294589Y-106709448D01*
X159283391Y-106725741D01*
X159274953Y-106736161D01*
X159244787Y-106795363D01*
X159241654Y-106801133D01*
X159211740Y-106852945D01*
X159211738Y-106852950D01*
X159208436Y-106858669D01*
X159206395Y-106864949D01*
X159206392Y-106864957D01*
X159204292Y-106871421D01*
X159196728Y-106889683D01*
X159193637Y-106895749D01*
X159193634Y-106895758D01*
X159190638Y-106901637D01*
X159188929Y-106908015D01*
X159173444Y-106965804D01*
X159171578Y-106972106D01*
X159151046Y-107035298D01*
X159150356Y-107041866D01*
X159149645Y-107048628D01*
X159146042Y-107068071D01*
X159142570Y-107081029D01*
X159142225Y-107087619D01*
X159142224Y-107087623D01*
X159139093Y-107147367D01*
X159138577Y-107153931D01*
X159136500Y-107173694D01*
X159136500Y-107193555D01*
X159136327Y-107200150D01*
X159133493Y-107254233D01*
X159132850Y-107266493D01*
X159133882Y-107273007D01*
X159134949Y-107279744D01*
X159136500Y-107299456D01*
X159136500Y-109140543D01*
X159134949Y-109160255D01*
X159132850Y-109173507D01*
X154178500Y-109173507D01*
X154178500Y-95382703D01*
X155370743Y-95382703D01*
X155408268Y-95667734D01*
X155484129Y-95945036D01*
X155485813Y-95948984D01*
X155567777Y-96141144D01*
X155596923Y-96209476D01*
X155744561Y-96456161D01*
X155924313Y-96680528D01*
X156132851Y-96878423D01*
X156366317Y-97046186D01*
X156370112Y-97048195D01*
X156370113Y-97048196D01*
X156391869Y-97059715D01*
X156620392Y-97180712D01*
X156890373Y-97279511D01*
X157171264Y-97340755D01*
X157199841Y-97343004D01*
X157394282Y-97358307D01*
X157394291Y-97358307D01*
X157396739Y-97358500D01*
X157552271Y-97358500D01*
X157554407Y-97358354D01*
X157554418Y-97358354D01*
X157762548Y-97344165D01*
X157762554Y-97344164D01*
X157766825Y-97343873D01*
X157771020Y-97343004D01*
X157771022Y-97343004D01*
X157907584Y-97314723D01*
X158048342Y-97285574D01*
X158319343Y-97189607D01*
X158574812Y-97057750D01*
X158578313Y-97055289D01*
X158578317Y-97055287D01*
X158692418Y-96975095D01*
X158810023Y-96892441D01*
X159020622Y-96696740D01*
X159202713Y-96474268D01*
X159352927Y-96229142D01*
X159468483Y-95965898D01*
X159547244Y-95689406D01*
X159587751Y-95404784D01*
X159587783Y-95398779D01*
X159589235Y-95121583D01*
X159589235Y-95121576D01*
X159589257Y-95117297D01*
X159585663Y-95089993D01*
X159570601Y-94975594D01*
X159551732Y-94832266D01*
X159546703Y-94813881D01*
X159485775Y-94591167D01*
X159475871Y-94554964D01*
X159408868Y-94397878D01*
X159364763Y-94294476D01*
X159364761Y-94294472D01*
X159363077Y-94290524D01*
X159240234Y-94085268D01*
X159236896Y-94079690D01*
X160722037Y-94079690D01*
X160749025Y-94302715D01*
X160815082Y-94517435D01*
X160817652Y-94522415D01*
X160817654Y-94522419D01*
X160892593Y-94667611D01*
X160918118Y-94717064D01*
X161054877Y-94895292D01*
X161221036Y-95046485D01*
X161225783Y-95049463D01*
X161225786Y-95049465D01*
X161305569Y-95099512D01*
X161411344Y-95165864D01*
X161619783Y-95249656D01*
X161839767Y-95295213D01*
X161844378Y-95295479D01*
X161844379Y-95295479D01*
X161894952Y-95298395D01*
X161894956Y-95298395D01*
X161896775Y-95298500D01*
X162468408Y-95298500D01*
X162536529Y-95318502D01*
X162583022Y-95372158D01*
X162593126Y-95442432D01*
X162563632Y-95507012D01*
X162528918Y-95535019D01*
X162526696Y-95536236D01*
X162518295Y-95539385D01*
X162401739Y-95626739D01*
X162314385Y-95743295D01*
X162263255Y-95879684D01*
X162256500Y-95941866D01*
X162256500Y-97538134D01*
X162263255Y-97600316D01*
X162314385Y-97736705D01*
X162401739Y-97853261D01*
X162518295Y-97940615D01*
X162654684Y-97991745D01*
X162716866Y-97998500D01*
X165313134Y-97998500D01*
X165375316Y-97991745D01*
X165511705Y-97940615D01*
X165628261Y-97853261D01*
X165715615Y-97736705D01*
X165766745Y-97600316D01*
X165773500Y-97538134D01*
X165773500Y-95941866D01*
X165766745Y-95879684D01*
X165715615Y-95743295D01*
X165628261Y-95626739D01*
X165511705Y-95539385D01*
X165427938Y-95507982D01*
X165371174Y-95465340D01*
X165346474Y-95398779D01*
X165361681Y-95329430D01*
X165411967Y-95279312D01*
X165427938Y-95272018D01*
X165503297Y-95243767D01*
X165511705Y-95240615D01*
X165628261Y-95153261D01*
X165715615Y-95036705D01*
X165766745Y-94900316D01*
X165773500Y-94838134D01*
X165773500Y-93885604D01*
X166527787Y-93885604D01*
X166537567Y-94096899D01*
X166538971Y-94102724D01*
X166538971Y-94102725D01*
X166584231Y-94290524D01*
X166587125Y-94302534D01*
X166589607Y-94307992D01*
X166589608Y-94307996D01*
X166633053Y-94403546D01*
X166674674Y-94495087D01*
X166797054Y-94667611D01*
X166949850Y-94813881D01*
X167127548Y-94928620D01*
X167133114Y-94930863D01*
X167318168Y-95005442D01*
X167318171Y-95005443D01*
X167323737Y-95007686D01*
X167531337Y-95048228D01*
X167536899Y-95048500D01*
X167692846Y-95048500D01*
X167850566Y-95033452D01*
X168053534Y-94973908D01*
X168137111Y-94930863D01*
X168236249Y-94879804D01*
X168236252Y-94879802D01*
X168241580Y-94877058D01*
X168407920Y-94746396D01*
X168411852Y-94741865D01*
X168411855Y-94741862D01*
X168542621Y-94591167D01*
X168546552Y-94586637D01*
X168549552Y-94581451D01*
X168549555Y-94581447D01*
X168649467Y-94408742D01*
X168652473Y-94403546D01*
X168721861Y-94203729D01*
X168745044Y-94043839D01*
X168751352Y-94000336D01*
X168751352Y-94000333D01*
X168752213Y-93994396D01*
X168742433Y-93783101D01*
X168738766Y-93767885D01*
X169507000Y-93767885D01*
X169511475Y-93783124D01*
X169512865Y-93784329D01*
X169520548Y-93786000D01*
X170992885Y-93786000D01*
X171008124Y-93781525D01*
X171009329Y-93780135D01*
X171011000Y-93772452D01*
X171011000Y-93767885D01*
X171519000Y-93767885D01*
X171523475Y-93783124D01*
X171524865Y-93784329D01*
X171532548Y-93786000D01*
X173004884Y-93786000D01*
X173020123Y-93781525D01*
X173021328Y-93780135D01*
X173022999Y-93772452D01*
X173022999Y-93245331D01*
X173022629Y-93238510D01*
X173017105Y-93187648D01*
X173013479Y-93172396D01*
X172968324Y-93051946D01*
X172959786Y-93036351D01*
X172883285Y-92934276D01*
X172870724Y-92921715D01*
X172768649Y-92845214D01*
X172753054Y-92836676D01*
X172632606Y-92791522D01*
X172617351Y-92787895D01*
X172566486Y-92782369D01*
X172559672Y-92782000D01*
X171537115Y-92782000D01*
X171521876Y-92786475D01*
X171520671Y-92787865D01*
X171519000Y-92795548D01*
X171519000Y-93767885D01*
X171011000Y-93767885D01*
X171011000Y-92800116D01*
X171006525Y-92784877D01*
X171005135Y-92783672D01*
X170997452Y-92782001D01*
X169970331Y-92782001D01*
X169963510Y-92782371D01*
X169912648Y-92787895D01*
X169897396Y-92791521D01*
X169776946Y-92836676D01*
X169761351Y-92845214D01*
X169659276Y-92921715D01*
X169646715Y-92934276D01*
X169570214Y-93036351D01*
X169561676Y-93051946D01*
X169516522Y-93172394D01*
X169512895Y-93187649D01*
X169507369Y-93238514D01*
X169507000Y-93245328D01*
X169507000Y-93767885D01*
X168738766Y-93767885D01*
X168700831Y-93610478D01*
X168694281Y-93583299D01*
X168694280Y-93583297D01*
X168692875Y-93577466D01*
X168649525Y-93482122D01*
X168626400Y-93431262D01*
X168605326Y-93384913D01*
X168482946Y-93212389D01*
X168330150Y-93066119D01*
X168152452Y-92951380D01*
X168092354Y-92927160D01*
X167961832Y-92874558D01*
X167961829Y-92874557D01*
X167956263Y-92872314D01*
X167748663Y-92831772D01*
X167743101Y-92831500D01*
X167587154Y-92831500D01*
X167429434Y-92846548D01*
X167226466Y-92906092D01*
X167221139Y-92908836D01*
X167221138Y-92908836D01*
X167043751Y-93000196D01*
X167043748Y-93000198D01*
X167038420Y-93002942D01*
X166872080Y-93133604D01*
X166868148Y-93138135D01*
X166868145Y-93138138D01*
X166779085Y-93240771D01*
X166733448Y-93293363D01*
X166730448Y-93298549D01*
X166730445Y-93298553D01*
X166645890Y-93444713D01*
X166627527Y-93476454D01*
X166558139Y-93676271D01*
X166557278Y-93682206D01*
X166557278Y-93682208D01*
X166537376Y-93819472D01*
X166527787Y-93885604D01*
X165773500Y-93885604D01*
X165773500Y-93241866D01*
X165766745Y-93179684D01*
X165715615Y-93043295D01*
X165628261Y-92926739D01*
X165511705Y-92839385D01*
X165375316Y-92788255D01*
X165313134Y-92781500D01*
X161928001Y-92781500D01*
X161925214Y-92781749D01*
X161925208Y-92781749D01*
X161872256Y-92786475D01*
X161761238Y-92796383D01*
X161755824Y-92797864D01*
X161755819Y-92797865D01*
X161632873Y-92831500D01*
X161544549Y-92855663D01*
X161539491Y-92858075D01*
X161539487Y-92858077D01*
X161443165Y-92904021D01*
X161341782Y-92952378D01*
X161159346Y-93083471D01*
X161155439Y-93087503D01*
X161009099Y-93238514D01*
X161003008Y-93244799D01*
X160877710Y-93431262D01*
X160787412Y-93636967D01*
X160786103Y-93642418D01*
X160786102Y-93642422D01*
X160744304Y-93816525D01*
X160734968Y-93855411D01*
X160722037Y-94079690D01*
X159236896Y-94079690D01*
X159217643Y-94047521D01*
X159217640Y-94047517D01*
X159215439Y-94043839D01*
X159035687Y-93819472D01*
X158843367Y-93636967D01*
X158830258Y-93624527D01*
X158830255Y-93624525D01*
X158827149Y-93621577D01*
X158593683Y-93453814D01*
X158571843Y-93442250D01*
X158542304Y-93426610D01*
X158339608Y-93319288D01*
X158136057Y-93244799D01*
X158073658Y-93221964D01*
X158073656Y-93221963D01*
X158069627Y-93220489D01*
X157788736Y-93159245D01*
X157757685Y-93156801D01*
X157565718Y-93141693D01*
X157565709Y-93141693D01*
X157563261Y-93141500D01*
X157407729Y-93141500D01*
X157405593Y-93141646D01*
X157405582Y-93141646D01*
X157197452Y-93155835D01*
X157197446Y-93155836D01*
X157193175Y-93156127D01*
X157188980Y-93156996D01*
X157188978Y-93156996D01*
X157115150Y-93172285D01*
X156911658Y-93214426D01*
X156640657Y-93310393D01*
X156385188Y-93442250D01*
X156381687Y-93444711D01*
X156381683Y-93444713D01*
X156328456Y-93482122D01*
X156149977Y-93607559D01*
X156134892Y-93621577D01*
X155954626Y-93789091D01*
X155939378Y-93803260D01*
X155757287Y-94025732D01*
X155607073Y-94270858D01*
X155605347Y-94274791D01*
X155605346Y-94274792D01*
X155590735Y-94308077D01*
X155491517Y-94534102D01*
X155412756Y-94810594D01*
X155382485Y-95023296D01*
X155379554Y-95043891D01*
X155372249Y-95095216D01*
X155372227Y-95099505D01*
X155372226Y-95099512D01*
X155371079Y-95318502D01*
X155370743Y-95382703D01*
X154178500Y-95382703D01*
X154178500Y-95303250D01*
X154180246Y-95282345D01*
X154182770Y-95267344D01*
X154182770Y-95267341D01*
X154183576Y-95262552D01*
X154183729Y-95250000D01*
X154183039Y-95245180D01*
X154181644Y-95235437D01*
X154180545Y-95210983D01*
X154196240Y-94911500D01*
X154197618Y-94898383D01*
X154249613Y-94570102D01*
X154252355Y-94557202D01*
X154279571Y-94455630D01*
X154338380Y-94236152D01*
X154342455Y-94223610D01*
X154347913Y-94209393D01*
X154461562Y-93913328D01*
X154466926Y-93901280D01*
X154617820Y-93605133D01*
X154624414Y-93593712D01*
X154805437Y-93314960D01*
X154813190Y-93304290D01*
X155022352Y-93045996D01*
X155031177Y-93036195D01*
X155266195Y-92801177D01*
X155275996Y-92792352D01*
X155534290Y-92583190D01*
X155544960Y-92575437D01*
X155823712Y-92394414D01*
X155835133Y-92387820D01*
X156131280Y-92236926D01*
X156143328Y-92231562D01*
X156182532Y-92216513D01*
X156453618Y-92112453D01*
X156466154Y-92108379D01*
X156787202Y-92022355D01*
X156800102Y-92019613D01*
X157128383Y-91967618D01*
X157141499Y-91966240D01*
X157175152Y-91964476D01*
X157437298Y-91950738D01*
X157463273Y-91952065D01*
X157464843Y-91952309D01*
X157464849Y-91952309D01*
X157473724Y-91953691D01*
X157482626Y-91952527D01*
X157482628Y-91952527D01*
X157497677Y-91950559D01*
X157505286Y-91949564D01*
X157521621Y-91948500D01*
X175210633Y-91948500D01*
X175230018Y-91950000D01*
G37*
%TD.AperFunction*%
%TD*%
M02*
