%TF.GenerationSoftware,KiCad,Pcbnew,(6.0.8)*%
%TF.CreationDate,2022-11-26T11:41:06-06:00*%
%TF.ProjectId,tt-relay-board,74742d72-656c-4617-992d-626f6172642e,rev?*%
%TF.SameCoordinates,Original*%
%TF.FileFunction,Drillmap*%
%TF.FilePolarity,Positive*%
%FSLAX45Y45*%
G04 Gerber Fmt 4.5, Leading zero omitted, Abs format (unit mm)*
G04 Created by KiCad (PCBNEW (6.0.8)) date 2022-11-26 11:41:06*
%MOMM*%
%LPD*%
G01*
G04 APERTURE LIST*
%ADD10C,0.025400*%
%ADD11C,0.200000*%
%ADD12C,0.040000*%
%ADD13C,0.070000*%
%ADD14C,0.075000*%
%ADD15C,0.100000*%
%ADD16C,0.130000*%
G04 APERTURE END LIST*
D10*
X4572000Y-10160000D02*
X12319000Y-10160000D01*
X12700000Y-9779000D02*
X12700000Y-5524500D01*
X4191000Y-5524500D02*
X4191000Y-9779000D01*
X9956800Y-6858000D02*
G75*
G03*
X9956800Y-6705600I0J76200D01*
G01*
X4381500Y-5334000D02*
G75*
G03*
X4191000Y-5524500I0J-190500D01*
G01*
X6299200Y-6705600D02*
G75*
G03*
X6299200Y-6858000I0J-76200D01*
G01*
X9956800Y-6858000D02*
X6299200Y-6858000D01*
X6299200Y-6705600D02*
X9956800Y-6705600D01*
X12509500Y-5334000D02*
X4381500Y-5334000D01*
X4191000Y-9779000D02*
G75*
G03*
X4572000Y-10160000I381000J0D01*
G01*
X12700000Y-5524500D02*
G75*
G03*
X12509500Y-5334000I-190500J0D01*
G01*
X12319000Y-10160000D02*
G75*
G03*
X12700000Y-9779000I0J381000D01*
G01*
D11*
D12*
X10686100Y-9733600D02*
X10726100Y-9773600D01*
X10726100Y-9733600D02*
X10686100Y-9773600D01*
X12006900Y-9733600D02*
X12046900Y-9773600D01*
X12046900Y-9733600D02*
X12006900Y-9773600D01*
D13*
X5897400Y-7340600D02*
G75*
G03*
X5897400Y-7340600I-35000J0D01*
G01*
X5897400Y-7594600D02*
G75*
G03*
X5897400Y-7594600I-35000J0D01*
G01*
X9699700Y-8084900D02*
G75*
G03*
X9699700Y-8084900I-35000J0D01*
G01*
X9699700Y-8338900D02*
G75*
G03*
X9699700Y-8338900I-35000J0D01*
G01*
X9699700Y-8602900D02*
G75*
G03*
X9699700Y-8602900I-35000J0D01*
G01*
X9699700Y-8856900D02*
G75*
G03*
X9699700Y-8856900I-35000J0D01*
G01*
X10182300Y-7335600D02*
G75*
G03*
X10182300Y-7335600I-35000J0D01*
G01*
X10182300Y-7589600D02*
G75*
G03*
X10182300Y-7589600I-35000J0D01*
G01*
X10182300Y-7853600D02*
G75*
G03*
X10182300Y-7853600I-35000J0D01*
G01*
X10182300Y-8107600D02*
G75*
G03*
X10182300Y-8107600I-35000J0D01*
G01*
D14*
X4838200Y-8482100D02*
X4838200Y-8557100D01*
X4800700Y-8519600D02*
X4875700Y-8519600D01*
X5600200Y-8482100D02*
X5600200Y-8557100D01*
X5562700Y-8519600D02*
X5637700Y-8519600D01*
X5600700Y-8014300D02*
X5600700Y-8089300D01*
X5563200Y-8051800D02*
X5638200Y-8051800D01*
X5727700Y-8141300D02*
X5727700Y-8216300D01*
X5690200Y-8178800D02*
X5765200Y-8178800D01*
X5854700Y-8014300D02*
X5854700Y-8089300D01*
X5817200Y-8051800D02*
X5892200Y-8051800D01*
D15*
X6555156Y-9367706D02*
X6555156Y-9296994D01*
X6484444Y-9296994D01*
X6484444Y-9367706D01*
X6555156Y-9367706D01*
X7075156Y-6427706D02*
X7075156Y-6356994D01*
X7004444Y-6356994D01*
X7004444Y-6427706D01*
X7075156Y-6427706D01*
X7575156Y-6427706D02*
X7575156Y-6356994D01*
X7504444Y-6356994D01*
X7504444Y-6427706D01*
X7575156Y-6427706D01*
X8095156Y-9367706D02*
X8095156Y-9296994D01*
X8024444Y-9296994D01*
X8024444Y-9367706D01*
X8095156Y-9367706D01*
X9003556Y-7373456D02*
X9003556Y-7302744D01*
X8932844Y-7302744D01*
X8932844Y-7373456D01*
X9003556Y-7373456D01*
X9003556Y-7627456D02*
X9003556Y-7556744D01*
X8932844Y-7556744D01*
X8932844Y-7627456D01*
X9003556Y-7627456D01*
X9003556Y-7881456D02*
X9003556Y-7810744D01*
X8932844Y-7810744D01*
X8932844Y-7881456D01*
X9003556Y-7881456D01*
X9003556Y-8135456D02*
X9003556Y-8064744D01*
X8932844Y-8064744D01*
X8932844Y-8135456D01*
X9003556Y-8135456D01*
X9003556Y-8389456D02*
X9003556Y-8318744D01*
X8932844Y-8318744D01*
X8932844Y-8389456D01*
X9003556Y-8389456D01*
X9003556Y-8643456D02*
X9003556Y-8572744D01*
X8932844Y-8572744D01*
X8932844Y-8643456D01*
X9003556Y-8643456D01*
X9003556Y-8897456D02*
X9003556Y-8826744D01*
X8932844Y-8826744D01*
X8932844Y-8897456D01*
X9003556Y-8897456D01*
X9003556Y-9151456D02*
X9003556Y-9080744D01*
X8932844Y-9080744D01*
X8932844Y-9151456D01*
X9003556Y-9151456D01*
X9003556Y-9405456D02*
X9003556Y-9334744D01*
X8932844Y-9334744D01*
X8932844Y-9405456D01*
X9003556Y-9405456D01*
X9003556Y-9659456D02*
X9003556Y-9588744D01*
X8932844Y-9588744D01*
X8932844Y-9659456D01*
X9003556Y-9659456D01*
X9003556Y-9913456D02*
X9003556Y-9842744D01*
X8932844Y-9842744D01*
X8932844Y-9913456D01*
X9003556Y-9913456D01*
X9257556Y-7373456D02*
X9257556Y-7302744D01*
X9186844Y-7302744D01*
X9186844Y-7373456D01*
X9257556Y-7373456D01*
X9257556Y-7627456D02*
X9257556Y-7556744D01*
X9186844Y-7556744D01*
X9186844Y-7627456D01*
X9257556Y-7627456D01*
X9257556Y-7881456D02*
X9257556Y-7810744D01*
X9186844Y-7810744D01*
X9186844Y-7881456D01*
X9257556Y-7881456D01*
X9257556Y-8135456D02*
X9257556Y-8064744D01*
X9186844Y-8064744D01*
X9186844Y-8135456D01*
X9257556Y-8135456D01*
X9257556Y-8389456D02*
X9257556Y-8318744D01*
X9186844Y-8318744D01*
X9186844Y-8389456D01*
X9257556Y-8389456D01*
X9257556Y-8643456D02*
X9257556Y-8572744D01*
X9186844Y-8572744D01*
X9186844Y-8643456D01*
X9257556Y-8643456D01*
X9257556Y-8897456D02*
X9257556Y-8826744D01*
X9186844Y-8826744D01*
X9186844Y-8897456D01*
X9257556Y-8897456D01*
X9257556Y-9151456D02*
X9257556Y-9080744D01*
X9186844Y-9080744D01*
X9186844Y-9151456D01*
X9257556Y-9151456D01*
X9257556Y-9405456D02*
X9257556Y-9334744D01*
X9186844Y-9334744D01*
X9186844Y-9405456D01*
X9257556Y-9405456D01*
X9257556Y-9659456D02*
X9257556Y-9588744D01*
X9186844Y-9588744D01*
X9186844Y-9659456D01*
X9257556Y-9659456D01*
X9257556Y-9913456D02*
X9257556Y-9842744D01*
X9186844Y-9842744D01*
X9186844Y-9913456D01*
X9257556Y-9913456D01*
D16*
X5033200Y-9632700D02*
X5098200Y-9567700D01*
X5033200Y-9502700D01*
X4968200Y-9567700D01*
X5033200Y-9632700D01*
X5533200Y-9632700D02*
X5598200Y-9567700D01*
X5533200Y-9502700D01*
X5468200Y-9567700D01*
X5533200Y-9632700D01*
X9411300Y-5695100D02*
X9476300Y-5630100D01*
X9411300Y-5565100D01*
X9346300Y-5630100D01*
X9411300Y-5695100D01*
X9411300Y-6195100D02*
X9476300Y-6130100D01*
X9411300Y-6065100D01*
X9346300Y-6130100D01*
X9411300Y-6195100D01*
D11*
X4447349Y-10471746D02*
X4447349Y-10271746D01*
X4494968Y-10271746D01*
X4523540Y-10281270D01*
X4542587Y-10300318D01*
X4552111Y-10319365D01*
X4561635Y-10357460D01*
X4561635Y-10386032D01*
X4552111Y-10424127D01*
X4542587Y-10443175D01*
X4523540Y-10462222D01*
X4494968Y-10471746D01*
X4447349Y-10471746D01*
X4647349Y-10471746D02*
X4647349Y-10338413D01*
X4647349Y-10376508D02*
X4656873Y-10357460D01*
X4666397Y-10347937D01*
X4685444Y-10338413D01*
X4704492Y-10338413D01*
X4771159Y-10471746D02*
X4771159Y-10338413D01*
X4771159Y-10271746D02*
X4761635Y-10281270D01*
X4771159Y-10290794D01*
X4780682Y-10281270D01*
X4771159Y-10271746D01*
X4771159Y-10290794D01*
X4894968Y-10471746D02*
X4875920Y-10462222D01*
X4866397Y-10443175D01*
X4866397Y-10271746D01*
X4999730Y-10471746D02*
X4980682Y-10462222D01*
X4971159Y-10443175D01*
X4971159Y-10271746D01*
X5228301Y-10471746D02*
X5228301Y-10271746D01*
X5294968Y-10414603D01*
X5361635Y-10271746D01*
X5361635Y-10471746D01*
X5542587Y-10471746D02*
X5542587Y-10366984D01*
X5533063Y-10347937D01*
X5514016Y-10338413D01*
X5475920Y-10338413D01*
X5456873Y-10347937D01*
X5542587Y-10462222D02*
X5523540Y-10471746D01*
X5475920Y-10471746D01*
X5456873Y-10462222D01*
X5447349Y-10443175D01*
X5447349Y-10424127D01*
X5456873Y-10405080D01*
X5475920Y-10395556D01*
X5523540Y-10395556D01*
X5542587Y-10386032D01*
X5637825Y-10338413D02*
X5637825Y-10538413D01*
X5637825Y-10347937D02*
X5656873Y-10338413D01*
X5694968Y-10338413D01*
X5714016Y-10347937D01*
X5723539Y-10357460D01*
X5733063Y-10376508D01*
X5733063Y-10433651D01*
X5723539Y-10452699D01*
X5714016Y-10462222D01*
X5694968Y-10471746D01*
X5656873Y-10471746D01*
X5637825Y-10462222D01*
X5818778Y-10452699D02*
X5828301Y-10462222D01*
X5818778Y-10471746D01*
X5809254Y-10462222D01*
X5818778Y-10452699D01*
X5818778Y-10471746D01*
X5818778Y-10347937D02*
X5828301Y-10357460D01*
X5818778Y-10366984D01*
X5809254Y-10357460D01*
X5818778Y-10347937D01*
X5818778Y-10366984D01*
D12*
X4149730Y-10781270D02*
X4189730Y-10821270D01*
X4189730Y-10781270D02*
X4149730Y-10821270D01*
D11*
X4485444Y-10691746D02*
X4504492Y-10691746D01*
X4523540Y-10701270D01*
X4533063Y-10710794D01*
X4542587Y-10729841D01*
X4552111Y-10767937D01*
X4552111Y-10815556D01*
X4542587Y-10853651D01*
X4533063Y-10872699D01*
X4523540Y-10882222D01*
X4504492Y-10891746D01*
X4485444Y-10891746D01*
X4466397Y-10882222D01*
X4456873Y-10872699D01*
X4447349Y-10853651D01*
X4437825Y-10815556D01*
X4437825Y-10767937D01*
X4447349Y-10729841D01*
X4456873Y-10710794D01*
X4466397Y-10701270D01*
X4485444Y-10691746D01*
X4637825Y-10872699D02*
X4647349Y-10882222D01*
X4637825Y-10891746D01*
X4628301Y-10882222D01*
X4637825Y-10872699D01*
X4637825Y-10891746D01*
X4818778Y-10758413D02*
X4818778Y-10891746D01*
X4771159Y-10682222D02*
X4723540Y-10825080D01*
X4847349Y-10825080D01*
X4961635Y-10691746D02*
X4980682Y-10691746D01*
X4999730Y-10701270D01*
X5009254Y-10710794D01*
X5018778Y-10729841D01*
X5028301Y-10767937D01*
X5028301Y-10815556D01*
X5018778Y-10853651D01*
X5009254Y-10872699D01*
X4999730Y-10882222D01*
X4980682Y-10891746D01*
X4961635Y-10891746D01*
X4942587Y-10882222D01*
X4933063Y-10872699D01*
X4923540Y-10853651D01*
X4914016Y-10815556D01*
X4914016Y-10767937D01*
X4923540Y-10729841D01*
X4933063Y-10710794D01*
X4942587Y-10701270D01*
X4961635Y-10691746D01*
X5152111Y-10691746D02*
X5171159Y-10691746D01*
X5190206Y-10701270D01*
X5199730Y-10710794D01*
X5209254Y-10729841D01*
X5218778Y-10767937D01*
X5218778Y-10815556D01*
X5209254Y-10853651D01*
X5199730Y-10872699D01*
X5190206Y-10882222D01*
X5171159Y-10891746D01*
X5152111Y-10891746D01*
X5133063Y-10882222D01*
X5123540Y-10872699D01*
X5114016Y-10853651D01*
X5104492Y-10815556D01*
X5104492Y-10767937D01*
X5114016Y-10729841D01*
X5123540Y-10710794D01*
X5133063Y-10701270D01*
X5152111Y-10691746D01*
X5304492Y-10891746D02*
X5304492Y-10758413D01*
X5304492Y-10777460D02*
X5314016Y-10767937D01*
X5333063Y-10758413D01*
X5361635Y-10758413D01*
X5380682Y-10767937D01*
X5390206Y-10786984D01*
X5390206Y-10891746D01*
X5390206Y-10786984D02*
X5399730Y-10767937D01*
X5418778Y-10758413D01*
X5447349Y-10758413D01*
X5466397Y-10767937D01*
X5475920Y-10786984D01*
X5475920Y-10891746D01*
X5571159Y-10891746D02*
X5571159Y-10758413D01*
X5571159Y-10777460D02*
X5580682Y-10767937D01*
X5599730Y-10758413D01*
X5628301Y-10758413D01*
X5647349Y-10767937D01*
X5656873Y-10786984D01*
X5656873Y-10891746D01*
X5656873Y-10786984D02*
X5666397Y-10767937D01*
X5685444Y-10758413D01*
X5714016Y-10758413D01*
X5733063Y-10767937D01*
X5742587Y-10786984D01*
X5742587Y-10891746D01*
X6133063Y-10682222D02*
X5961635Y-10939365D01*
X6390206Y-10691746D02*
X6409254Y-10691746D01*
X6428301Y-10701270D01*
X6437825Y-10710794D01*
X6447349Y-10729841D01*
X6456873Y-10767937D01*
X6456873Y-10815556D01*
X6447349Y-10853651D01*
X6437825Y-10872699D01*
X6428301Y-10882222D01*
X6409254Y-10891746D01*
X6390206Y-10891746D01*
X6371158Y-10882222D01*
X6361635Y-10872699D01*
X6352111Y-10853651D01*
X6342587Y-10815556D01*
X6342587Y-10767937D01*
X6352111Y-10729841D01*
X6361635Y-10710794D01*
X6371158Y-10701270D01*
X6390206Y-10691746D01*
X6542587Y-10872699D02*
X6552111Y-10882222D01*
X6542587Y-10891746D01*
X6533063Y-10882222D01*
X6542587Y-10872699D01*
X6542587Y-10891746D01*
X6675920Y-10691746D02*
X6694968Y-10691746D01*
X6714016Y-10701270D01*
X6723539Y-10710794D01*
X6733063Y-10729841D01*
X6742587Y-10767937D01*
X6742587Y-10815556D01*
X6733063Y-10853651D01*
X6723539Y-10872699D01*
X6714016Y-10882222D01*
X6694968Y-10891746D01*
X6675920Y-10891746D01*
X6656873Y-10882222D01*
X6647349Y-10872699D01*
X6637825Y-10853651D01*
X6628301Y-10815556D01*
X6628301Y-10767937D01*
X6637825Y-10729841D01*
X6647349Y-10710794D01*
X6656873Y-10701270D01*
X6675920Y-10691746D01*
X6933063Y-10891746D02*
X6818778Y-10891746D01*
X6875920Y-10891746D02*
X6875920Y-10691746D01*
X6856873Y-10720318D01*
X6837825Y-10739365D01*
X6818778Y-10748889D01*
X7114016Y-10691746D02*
X7018778Y-10691746D01*
X7009254Y-10786984D01*
X7018778Y-10777460D01*
X7037825Y-10767937D01*
X7085444Y-10767937D01*
X7104492Y-10777460D01*
X7114016Y-10786984D01*
X7123539Y-10806032D01*
X7123539Y-10853651D01*
X7114016Y-10872699D01*
X7104492Y-10882222D01*
X7085444Y-10891746D01*
X7037825Y-10891746D01*
X7018778Y-10882222D01*
X7009254Y-10872699D01*
X7190206Y-10691746D02*
X7323539Y-10691746D01*
X7237825Y-10891746D01*
X7390206Y-10691746D02*
X7390206Y-10729841D01*
X7466397Y-10691746D02*
X7466397Y-10729841D01*
X7761635Y-10967937D02*
X7752111Y-10958413D01*
X7733063Y-10929841D01*
X7723539Y-10910794D01*
X7714016Y-10882222D01*
X7704492Y-10834603D01*
X7704492Y-10796508D01*
X7714016Y-10748889D01*
X7723539Y-10720318D01*
X7733063Y-10701270D01*
X7752111Y-10672699D01*
X7761635Y-10663175D01*
X7828301Y-10710794D02*
X7837825Y-10701270D01*
X7856873Y-10691746D01*
X7904492Y-10691746D01*
X7923539Y-10701270D01*
X7933063Y-10710794D01*
X7942587Y-10729841D01*
X7942587Y-10748889D01*
X7933063Y-10777460D01*
X7818778Y-10891746D01*
X7942587Y-10891746D01*
X8180682Y-10891746D02*
X8180682Y-10691746D01*
X8266397Y-10891746D02*
X8266397Y-10786984D01*
X8256873Y-10767937D01*
X8237825Y-10758413D01*
X8209254Y-10758413D01*
X8190206Y-10767937D01*
X8180682Y-10777460D01*
X8390206Y-10891746D02*
X8371158Y-10882222D01*
X8361635Y-10872699D01*
X8352111Y-10853651D01*
X8352111Y-10796508D01*
X8361635Y-10777460D01*
X8371158Y-10767937D01*
X8390206Y-10758413D01*
X8418778Y-10758413D01*
X8437825Y-10767937D01*
X8447349Y-10777460D01*
X8456873Y-10796508D01*
X8456873Y-10853651D01*
X8447349Y-10872699D01*
X8437825Y-10882222D01*
X8418778Y-10891746D01*
X8390206Y-10891746D01*
X8571159Y-10891746D02*
X8552111Y-10882222D01*
X8542587Y-10863175D01*
X8542587Y-10691746D01*
X8723540Y-10882222D02*
X8704492Y-10891746D01*
X8666397Y-10891746D01*
X8647349Y-10882222D01*
X8637825Y-10863175D01*
X8637825Y-10786984D01*
X8647349Y-10767937D01*
X8666397Y-10758413D01*
X8704492Y-10758413D01*
X8723540Y-10767937D01*
X8733063Y-10786984D01*
X8733063Y-10806032D01*
X8637825Y-10825080D01*
X8809254Y-10882222D02*
X8828301Y-10891746D01*
X8866397Y-10891746D01*
X8885444Y-10882222D01*
X8894968Y-10863175D01*
X8894968Y-10853651D01*
X8885444Y-10834603D01*
X8866397Y-10825080D01*
X8837825Y-10825080D01*
X8818778Y-10815556D01*
X8809254Y-10796508D01*
X8809254Y-10786984D01*
X8818778Y-10767937D01*
X8837825Y-10758413D01*
X8866397Y-10758413D01*
X8885444Y-10767937D01*
X8961635Y-10967937D02*
X8971159Y-10958413D01*
X8990206Y-10929841D01*
X8999730Y-10910794D01*
X9009254Y-10882222D01*
X9018778Y-10834603D01*
X9018778Y-10796508D01*
X9009254Y-10748889D01*
X8999730Y-10720318D01*
X8990206Y-10701270D01*
X8971159Y-10672699D01*
X8961635Y-10663175D01*
D13*
X4189730Y-11065270D02*
G75*
G03*
X4189730Y-11065270I-35000J0D01*
G01*
D11*
X4485444Y-10955746D02*
X4504492Y-10955746D01*
X4523540Y-10965270D01*
X4533063Y-10974794D01*
X4542587Y-10993841D01*
X4552111Y-11031937D01*
X4552111Y-11079556D01*
X4542587Y-11117651D01*
X4533063Y-11136699D01*
X4523540Y-11146222D01*
X4504492Y-11155746D01*
X4485444Y-11155746D01*
X4466397Y-11146222D01*
X4456873Y-11136699D01*
X4447349Y-11117651D01*
X4437825Y-11079556D01*
X4437825Y-11031937D01*
X4447349Y-10993841D01*
X4456873Y-10974794D01*
X4466397Y-10965270D01*
X4485444Y-10955746D01*
X4637825Y-11136699D02*
X4647349Y-11146222D01*
X4637825Y-11155746D01*
X4628301Y-11146222D01*
X4637825Y-11136699D01*
X4637825Y-11155746D01*
X4714016Y-10955746D02*
X4847349Y-10955746D01*
X4761635Y-11155746D01*
X4961635Y-10955746D02*
X4980682Y-10955746D01*
X4999730Y-10965270D01*
X5009254Y-10974794D01*
X5018778Y-10993841D01*
X5028301Y-11031937D01*
X5028301Y-11079556D01*
X5018778Y-11117651D01*
X5009254Y-11136699D01*
X4999730Y-11146222D01*
X4980682Y-11155746D01*
X4961635Y-11155746D01*
X4942587Y-11146222D01*
X4933063Y-11136699D01*
X4923540Y-11117651D01*
X4914016Y-11079556D01*
X4914016Y-11031937D01*
X4923540Y-10993841D01*
X4933063Y-10974794D01*
X4942587Y-10965270D01*
X4961635Y-10955746D01*
X5152111Y-10955746D02*
X5171159Y-10955746D01*
X5190206Y-10965270D01*
X5199730Y-10974794D01*
X5209254Y-10993841D01*
X5218778Y-11031937D01*
X5218778Y-11079556D01*
X5209254Y-11117651D01*
X5199730Y-11136699D01*
X5190206Y-11146222D01*
X5171159Y-11155746D01*
X5152111Y-11155746D01*
X5133063Y-11146222D01*
X5123540Y-11136699D01*
X5114016Y-11117651D01*
X5104492Y-11079556D01*
X5104492Y-11031937D01*
X5114016Y-10993841D01*
X5123540Y-10974794D01*
X5133063Y-10965270D01*
X5152111Y-10955746D01*
X5304492Y-11155746D02*
X5304492Y-11022413D01*
X5304492Y-11041460D02*
X5314016Y-11031937D01*
X5333063Y-11022413D01*
X5361635Y-11022413D01*
X5380682Y-11031937D01*
X5390206Y-11050984D01*
X5390206Y-11155746D01*
X5390206Y-11050984D02*
X5399730Y-11031937D01*
X5418778Y-11022413D01*
X5447349Y-11022413D01*
X5466397Y-11031937D01*
X5475920Y-11050984D01*
X5475920Y-11155746D01*
X5571159Y-11155746D02*
X5571159Y-11022413D01*
X5571159Y-11041460D02*
X5580682Y-11031937D01*
X5599730Y-11022413D01*
X5628301Y-11022413D01*
X5647349Y-11031937D01*
X5656873Y-11050984D01*
X5656873Y-11155746D01*
X5656873Y-11050984D02*
X5666397Y-11031937D01*
X5685444Y-11022413D01*
X5714016Y-11022413D01*
X5733063Y-11031937D01*
X5742587Y-11050984D01*
X5742587Y-11155746D01*
X6133063Y-10946222D02*
X5961635Y-11203365D01*
X6390206Y-10955746D02*
X6409254Y-10955746D01*
X6428301Y-10965270D01*
X6437825Y-10974794D01*
X6447349Y-10993841D01*
X6456873Y-11031937D01*
X6456873Y-11079556D01*
X6447349Y-11117651D01*
X6437825Y-11136699D01*
X6428301Y-11146222D01*
X6409254Y-11155746D01*
X6390206Y-11155746D01*
X6371158Y-11146222D01*
X6361635Y-11136699D01*
X6352111Y-11117651D01*
X6342587Y-11079556D01*
X6342587Y-11031937D01*
X6352111Y-10993841D01*
X6361635Y-10974794D01*
X6371158Y-10965270D01*
X6390206Y-10955746D01*
X6542587Y-11136699D02*
X6552111Y-11146222D01*
X6542587Y-11155746D01*
X6533063Y-11146222D01*
X6542587Y-11136699D01*
X6542587Y-11155746D01*
X6675920Y-10955746D02*
X6694968Y-10955746D01*
X6714016Y-10965270D01*
X6723539Y-10974794D01*
X6733063Y-10993841D01*
X6742587Y-11031937D01*
X6742587Y-11079556D01*
X6733063Y-11117651D01*
X6723539Y-11136699D01*
X6714016Y-11146222D01*
X6694968Y-11155746D01*
X6675920Y-11155746D01*
X6656873Y-11146222D01*
X6647349Y-11136699D01*
X6637825Y-11117651D01*
X6628301Y-11079556D01*
X6628301Y-11031937D01*
X6637825Y-10993841D01*
X6647349Y-10974794D01*
X6656873Y-10965270D01*
X6675920Y-10955746D01*
X6818778Y-10974794D02*
X6828301Y-10965270D01*
X6847349Y-10955746D01*
X6894968Y-10955746D01*
X6914016Y-10965270D01*
X6923539Y-10974794D01*
X6933063Y-10993841D01*
X6933063Y-11012889D01*
X6923539Y-11041460D01*
X6809254Y-11155746D01*
X6933063Y-11155746D01*
X6999730Y-10955746D02*
X7133063Y-10955746D01*
X7047349Y-11155746D01*
X7294968Y-10955746D02*
X7256873Y-10955746D01*
X7237825Y-10965270D01*
X7228301Y-10974794D01*
X7209254Y-11003365D01*
X7199730Y-11041460D01*
X7199730Y-11117651D01*
X7209254Y-11136699D01*
X7218778Y-11146222D01*
X7237825Y-11155746D01*
X7275920Y-11155746D01*
X7294968Y-11146222D01*
X7304492Y-11136699D01*
X7314016Y-11117651D01*
X7314016Y-11070032D01*
X7304492Y-11050984D01*
X7294968Y-11041460D01*
X7275920Y-11031937D01*
X7237825Y-11031937D01*
X7218778Y-11041460D01*
X7209254Y-11050984D01*
X7199730Y-11070032D01*
X7390206Y-10955746D02*
X7390206Y-10993841D01*
X7466397Y-10955746D02*
X7466397Y-10993841D01*
X7761635Y-11231937D02*
X7752111Y-11222413D01*
X7733063Y-11193841D01*
X7723539Y-11174794D01*
X7714016Y-11146222D01*
X7704492Y-11098603D01*
X7704492Y-11060508D01*
X7714016Y-11012889D01*
X7723539Y-10984318D01*
X7733063Y-10965270D01*
X7752111Y-10936699D01*
X7761635Y-10927175D01*
X7942587Y-11155746D02*
X7828301Y-11155746D01*
X7885444Y-11155746D02*
X7885444Y-10955746D01*
X7866397Y-10984318D01*
X7847349Y-11003365D01*
X7828301Y-11012889D01*
X8066397Y-10955746D02*
X8085444Y-10955746D01*
X8104492Y-10965270D01*
X8114016Y-10974794D01*
X8123539Y-10993841D01*
X8133063Y-11031937D01*
X8133063Y-11079556D01*
X8123539Y-11117651D01*
X8114016Y-11136699D01*
X8104492Y-11146222D01*
X8085444Y-11155746D01*
X8066397Y-11155746D01*
X8047349Y-11146222D01*
X8037825Y-11136699D01*
X8028301Y-11117651D01*
X8018778Y-11079556D01*
X8018778Y-11031937D01*
X8028301Y-10993841D01*
X8037825Y-10974794D01*
X8047349Y-10965270D01*
X8066397Y-10955746D01*
X8371158Y-11155746D02*
X8371158Y-10955746D01*
X8456873Y-11155746D02*
X8456873Y-11050984D01*
X8447349Y-11031937D01*
X8428301Y-11022413D01*
X8399730Y-11022413D01*
X8380682Y-11031937D01*
X8371158Y-11041460D01*
X8580682Y-11155746D02*
X8561635Y-11146222D01*
X8552111Y-11136699D01*
X8542587Y-11117651D01*
X8542587Y-11060508D01*
X8552111Y-11041460D01*
X8561635Y-11031937D01*
X8580682Y-11022413D01*
X8609254Y-11022413D01*
X8628301Y-11031937D01*
X8637825Y-11041460D01*
X8647349Y-11060508D01*
X8647349Y-11117651D01*
X8637825Y-11136699D01*
X8628301Y-11146222D01*
X8609254Y-11155746D01*
X8580682Y-11155746D01*
X8761635Y-11155746D02*
X8742587Y-11146222D01*
X8733063Y-11127175D01*
X8733063Y-10955746D01*
X8914016Y-11146222D02*
X8894968Y-11155746D01*
X8856873Y-11155746D01*
X8837825Y-11146222D01*
X8828301Y-11127175D01*
X8828301Y-11050984D01*
X8837825Y-11031937D01*
X8856873Y-11022413D01*
X8894968Y-11022413D01*
X8914016Y-11031937D01*
X8923540Y-11050984D01*
X8923540Y-11070032D01*
X8828301Y-11089080D01*
X8999730Y-11146222D02*
X9018778Y-11155746D01*
X9056873Y-11155746D01*
X9075920Y-11146222D01*
X9085444Y-11127175D01*
X9085444Y-11117651D01*
X9075920Y-11098603D01*
X9056873Y-11089080D01*
X9028301Y-11089080D01*
X9009254Y-11079556D01*
X8999730Y-11060508D01*
X8999730Y-11050984D01*
X9009254Y-11031937D01*
X9028301Y-11022413D01*
X9056873Y-11022413D01*
X9075920Y-11031937D01*
X9152111Y-11231937D02*
X9161635Y-11222413D01*
X9180682Y-11193841D01*
X9190206Y-11174794D01*
X9199730Y-11146222D01*
X9209254Y-11098603D01*
X9209254Y-11060508D01*
X9199730Y-11012889D01*
X9190206Y-10984318D01*
X9180682Y-10965270D01*
X9161635Y-10936699D01*
X9152111Y-10927175D01*
D14*
X4152230Y-11291770D02*
X4152230Y-11366770D01*
X4114730Y-11329270D02*
X4189730Y-11329270D01*
D11*
X4485444Y-11219746D02*
X4504492Y-11219746D01*
X4523540Y-11229270D01*
X4533063Y-11238794D01*
X4542587Y-11257841D01*
X4552111Y-11295937D01*
X4552111Y-11343556D01*
X4542587Y-11381651D01*
X4533063Y-11400698D01*
X4523540Y-11410222D01*
X4504492Y-11419746D01*
X4485444Y-11419746D01*
X4466397Y-11410222D01*
X4456873Y-11400698D01*
X4447349Y-11381651D01*
X4437825Y-11343556D01*
X4437825Y-11295937D01*
X4447349Y-11257841D01*
X4456873Y-11238794D01*
X4466397Y-11229270D01*
X4485444Y-11219746D01*
X4637825Y-11400698D02*
X4647349Y-11410222D01*
X4637825Y-11419746D01*
X4628301Y-11410222D01*
X4637825Y-11400698D01*
X4637825Y-11419746D01*
X4714016Y-11219746D02*
X4847349Y-11219746D01*
X4761635Y-11419746D01*
X5018778Y-11219746D02*
X4923540Y-11219746D01*
X4914016Y-11314984D01*
X4923540Y-11305460D01*
X4942587Y-11295937D01*
X4990206Y-11295937D01*
X5009254Y-11305460D01*
X5018778Y-11314984D01*
X5028301Y-11334032D01*
X5028301Y-11381651D01*
X5018778Y-11400698D01*
X5009254Y-11410222D01*
X4990206Y-11419746D01*
X4942587Y-11419746D01*
X4923540Y-11410222D01*
X4914016Y-11400698D01*
X5152111Y-11219746D02*
X5171159Y-11219746D01*
X5190206Y-11229270D01*
X5199730Y-11238794D01*
X5209254Y-11257841D01*
X5218778Y-11295937D01*
X5218778Y-11343556D01*
X5209254Y-11381651D01*
X5199730Y-11400698D01*
X5190206Y-11410222D01*
X5171159Y-11419746D01*
X5152111Y-11419746D01*
X5133063Y-11410222D01*
X5123540Y-11400698D01*
X5114016Y-11381651D01*
X5104492Y-11343556D01*
X5104492Y-11295937D01*
X5114016Y-11257841D01*
X5123540Y-11238794D01*
X5133063Y-11229270D01*
X5152111Y-11219746D01*
X5304492Y-11419746D02*
X5304492Y-11286413D01*
X5304492Y-11305460D02*
X5314016Y-11295937D01*
X5333063Y-11286413D01*
X5361635Y-11286413D01*
X5380682Y-11295937D01*
X5390206Y-11314984D01*
X5390206Y-11419746D01*
X5390206Y-11314984D02*
X5399730Y-11295937D01*
X5418778Y-11286413D01*
X5447349Y-11286413D01*
X5466397Y-11295937D01*
X5475920Y-11314984D01*
X5475920Y-11419746D01*
X5571159Y-11419746D02*
X5571159Y-11286413D01*
X5571159Y-11305460D02*
X5580682Y-11295937D01*
X5599730Y-11286413D01*
X5628301Y-11286413D01*
X5647349Y-11295937D01*
X5656873Y-11314984D01*
X5656873Y-11419746D01*
X5656873Y-11314984D02*
X5666397Y-11295937D01*
X5685444Y-11286413D01*
X5714016Y-11286413D01*
X5733063Y-11295937D01*
X5742587Y-11314984D01*
X5742587Y-11419746D01*
X6133063Y-11210222D02*
X5961635Y-11467365D01*
X6390206Y-11219746D02*
X6409254Y-11219746D01*
X6428301Y-11229270D01*
X6437825Y-11238794D01*
X6447349Y-11257841D01*
X6456873Y-11295937D01*
X6456873Y-11343556D01*
X6447349Y-11381651D01*
X6437825Y-11400698D01*
X6428301Y-11410222D01*
X6409254Y-11419746D01*
X6390206Y-11419746D01*
X6371158Y-11410222D01*
X6361635Y-11400698D01*
X6352111Y-11381651D01*
X6342587Y-11343556D01*
X6342587Y-11295937D01*
X6352111Y-11257841D01*
X6361635Y-11238794D01*
X6371158Y-11229270D01*
X6390206Y-11219746D01*
X6542587Y-11400698D02*
X6552111Y-11410222D01*
X6542587Y-11419746D01*
X6533063Y-11410222D01*
X6542587Y-11400698D01*
X6542587Y-11419746D01*
X6675920Y-11219746D02*
X6694968Y-11219746D01*
X6714016Y-11229270D01*
X6723539Y-11238794D01*
X6733063Y-11257841D01*
X6742587Y-11295937D01*
X6742587Y-11343556D01*
X6733063Y-11381651D01*
X6723539Y-11400698D01*
X6714016Y-11410222D01*
X6694968Y-11419746D01*
X6675920Y-11419746D01*
X6656873Y-11410222D01*
X6647349Y-11400698D01*
X6637825Y-11381651D01*
X6628301Y-11343556D01*
X6628301Y-11295937D01*
X6637825Y-11257841D01*
X6647349Y-11238794D01*
X6656873Y-11229270D01*
X6675920Y-11219746D01*
X6818778Y-11238794D02*
X6828301Y-11229270D01*
X6847349Y-11219746D01*
X6894968Y-11219746D01*
X6914016Y-11229270D01*
X6923539Y-11238794D01*
X6933063Y-11257841D01*
X6933063Y-11276889D01*
X6923539Y-11305460D01*
X6809254Y-11419746D01*
X6933063Y-11419746D01*
X7028301Y-11419746D02*
X7066397Y-11419746D01*
X7085444Y-11410222D01*
X7094968Y-11400698D01*
X7114016Y-11372127D01*
X7123539Y-11334032D01*
X7123539Y-11257841D01*
X7114016Y-11238794D01*
X7104492Y-11229270D01*
X7085444Y-11219746D01*
X7047349Y-11219746D01*
X7028301Y-11229270D01*
X7018778Y-11238794D01*
X7009254Y-11257841D01*
X7009254Y-11305460D01*
X7018778Y-11324508D01*
X7028301Y-11334032D01*
X7047349Y-11343556D01*
X7085444Y-11343556D01*
X7104492Y-11334032D01*
X7114016Y-11324508D01*
X7123539Y-11305460D01*
X7304492Y-11219746D02*
X7209254Y-11219746D01*
X7199730Y-11314984D01*
X7209254Y-11305460D01*
X7228301Y-11295937D01*
X7275920Y-11295937D01*
X7294968Y-11305460D01*
X7304492Y-11314984D01*
X7314016Y-11334032D01*
X7314016Y-11381651D01*
X7304492Y-11400698D01*
X7294968Y-11410222D01*
X7275920Y-11419746D01*
X7228301Y-11419746D01*
X7209254Y-11410222D01*
X7199730Y-11400698D01*
X7390206Y-11219746D02*
X7390206Y-11257841D01*
X7466397Y-11219746D02*
X7466397Y-11257841D01*
X7761635Y-11495937D02*
X7752111Y-11486413D01*
X7733063Y-11457841D01*
X7723539Y-11438794D01*
X7714016Y-11410222D01*
X7704492Y-11362603D01*
X7704492Y-11324508D01*
X7714016Y-11276889D01*
X7723539Y-11248318D01*
X7733063Y-11229270D01*
X7752111Y-11200698D01*
X7761635Y-11191175D01*
X7933063Y-11219746D02*
X7837825Y-11219746D01*
X7828301Y-11314984D01*
X7837825Y-11305460D01*
X7856873Y-11295937D01*
X7904492Y-11295937D01*
X7923539Y-11305460D01*
X7933063Y-11314984D01*
X7942587Y-11334032D01*
X7942587Y-11381651D01*
X7933063Y-11400698D01*
X7923539Y-11410222D01*
X7904492Y-11419746D01*
X7856873Y-11419746D01*
X7837825Y-11410222D01*
X7828301Y-11400698D01*
X8180682Y-11419746D02*
X8180682Y-11219746D01*
X8266397Y-11419746D02*
X8266397Y-11314984D01*
X8256873Y-11295937D01*
X8237825Y-11286413D01*
X8209254Y-11286413D01*
X8190206Y-11295937D01*
X8180682Y-11305460D01*
X8390206Y-11419746D02*
X8371158Y-11410222D01*
X8361635Y-11400698D01*
X8352111Y-11381651D01*
X8352111Y-11324508D01*
X8361635Y-11305460D01*
X8371158Y-11295937D01*
X8390206Y-11286413D01*
X8418778Y-11286413D01*
X8437825Y-11295937D01*
X8447349Y-11305460D01*
X8456873Y-11324508D01*
X8456873Y-11381651D01*
X8447349Y-11400698D01*
X8437825Y-11410222D01*
X8418778Y-11419746D01*
X8390206Y-11419746D01*
X8571159Y-11419746D02*
X8552111Y-11410222D01*
X8542587Y-11391175D01*
X8542587Y-11219746D01*
X8723540Y-11410222D02*
X8704492Y-11419746D01*
X8666397Y-11419746D01*
X8647349Y-11410222D01*
X8637825Y-11391175D01*
X8637825Y-11314984D01*
X8647349Y-11295937D01*
X8666397Y-11286413D01*
X8704492Y-11286413D01*
X8723540Y-11295937D01*
X8733063Y-11314984D01*
X8733063Y-11334032D01*
X8637825Y-11353079D01*
X8809254Y-11410222D02*
X8828301Y-11419746D01*
X8866397Y-11419746D01*
X8885444Y-11410222D01*
X8894968Y-11391175D01*
X8894968Y-11381651D01*
X8885444Y-11362603D01*
X8866397Y-11353079D01*
X8837825Y-11353079D01*
X8818778Y-11343556D01*
X8809254Y-11324508D01*
X8809254Y-11314984D01*
X8818778Y-11295937D01*
X8837825Y-11286413D01*
X8866397Y-11286413D01*
X8885444Y-11295937D01*
X8961635Y-11495937D02*
X8971159Y-11486413D01*
X8990206Y-11457841D01*
X8999730Y-11438794D01*
X9009254Y-11410222D01*
X9018778Y-11362603D01*
X9018778Y-11324508D01*
X9009254Y-11276889D01*
X8999730Y-11248318D01*
X8990206Y-11229270D01*
X8971159Y-11200698D01*
X8961635Y-11191175D01*
D15*
X4175086Y-11628626D02*
X4175086Y-11557914D01*
X4104374Y-11557914D01*
X4104374Y-11628626D01*
X4175086Y-11628626D01*
D11*
X4552111Y-11683746D02*
X4437825Y-11683746D01*
X4494968Y-11683746D02*
X4494968Y-11483746D01*
X4475920Y-11512318D01*
X4456873Y-11531365D01*
X4437825Y-11540889D01*
X4637825Y-11664698D02*
X4647349Y-11674222D01*
X4637825Y-11683746D01*
X4628301Y-11674222D01*
X4637825Y-11664698D01*
X4637825Y-11683746D01*
X4771159Y-11483746D02*
X4790206Y-11483746D01*
X4809254Y-11493270D01*
X4818778Y-11502794D01*
X4828301Y-11521841D01*
X4837825Y-11559937D01*
X4837825Y-11607556D01*
X4828301Y-11645651D01*
X4818778Y-11664698D01*
X4809254Y-11674222D01*
X4790206Y-11683746D01*
X4771159Y-11683746D01*
X4752111Y-11674222D01*
X4742587Y-11664698D01*
X4733063Y-11645651D01*
X4723540Y-11607556D01*
X4723540Y-11559937D01*
X4733063Y-11521841D01*
X4742587Y-11502794D01*
X4752111Y-11493270D01*
X4771159Y-11483746D01*
X4961635Y-11483746D02*
X4980682Y-11483746D01*
X4999730Y-11493270D01*
X5009254Y-11502794D01*
X5018778Y-11521841D01*
X5028301Y-11559937D01*
X5028301Y-11607556D01*
X5018778Y-11645651D01*
X5009254Y-11664698D01*
X4999730Y-11674222D01*
X4980682Y-11683746D01*
X4961635Y-11683746D01*
X4942587Y-11674222D01*
X4933063Y-11664698D01*
X4923540Y-11645651D01*
X4914016Y-11607556D01*
X4914016Y-11559937D01*
X4923540Y-11521841D01*
X4933063Y-11502794D01*
X4942587Y-11493270D01*
X4961635Y-11483746D01*
X5152111Y-11483746D02*
X5171159Y-11483746D01*
X5190206Y-11493270D01*
X5199730Y-11502794D01*
X5209254Y-11521841D01*
X5218778Y-11559937D01*
X5218778Y-11607556D01*
X5209254Y-11645651D01*
X5199730Y-11664698D01*
X5190206Y-11674222D01*
X5171159Y-11683746D01*
X5152111Y-11683746D01*
X5133063Y-11674222D01*
X5123540Y-11664698D01*
X5114016Y-11645651D01*
X5104492Y-11607556D01*
X5104492Y-11559937D01*
X5114016Y-11521841D01*
X5123540Y-11502794D01*
X5133063Y-11493270D01*
X5152111Y-11483746D01*
X5304492Y-11683746D02*
X5304492Y-11550413D01*
X5304492Y-11569460D02*
X5314016Y-11559937D01*
X5333063Y-11550413D01*
X5361635Y-11550413D01*
X5380682Y-11559937D01*
X5390206Y-11578984D01*
X5390206Y-11683746D01*
X5390206Y-11578984D02*
X5399730Y-11559937D01*
X5418778Y-11550413D01*
X5447349Y-11550413D01*
X5466397Y-11559937D01*
X5475920Y-11578984D01*
X5475920Y-11683746D01*
X5571159Y-11683746D02*
X5571159Y-11550413D01*
X5571159Y-11569460D02*
X5580682Y-11559937D01*
X5599730Y-11550413D01*
X5628301Y-11550413D01*
X5647349Y-11559937D01*
X5656873Y-11578984D01*
X5656873Y-11683746D01*
X5656873Y-11578984D02*
X5666397Y-11559937D01*
X5685444Y-11550413D01*
X5714016Y-11550413D01*
X5733063Y-11559937D01*
X5742587Y-11578984D01*
X5742587Y-11683746D01*
X6133063Y-11474222D02*
X5961635Y-11731365D01*
X6390206Y-11483746D02*
X6409254Y-11483746D01*
X6428301Y-11493270D01*
X6437825Y-11502794D01*
X6447349Y-11521841D01*
X6456873Y-11559937D01*
X6456873Y-11607556D01*
X6447349Y-11645651D01*
X6437825Y-11664698D01*
X6428301Y-11674222D01*
X6409254Y-11683746D01*
X6390206Y-11683746D01*
X6371158Y-11674222D01*
X6361635Y-11664698D01*
X6352111Y-11645651D01*
X6342587Y-11607556D01*
X6342587Y-11559937D01*
X6352111Y-11521841D01*
X6361635Y-11502794D01*
X6371158Y-11493270D01*
X6390206Y-11483746D01*
X6542587Y-11664698D02*
X6552111Y-11674222D01*
X6542587Y-11683746D01*
X6533063Y-11674222D01*
X6542587Y-11664698D01*
X6542587Y-11683746D01*
X6675920Y-11483746D02*
X6694968Y-11483746D01*
X6714016Y-11493270D01*
X6723539Y-11502794D01*
X6733063Y-11521841D01*
X6742587Y-11559937D01*
X6742587Y-11607556D01*
X6733063Y-11645651D01*
X6723539Y-11664698D01*
X6714016Y-11674222D01*
X6694968Y-11683746D01*
X6675920Y-11683746D01*
X6656873Y-11674222D01*
X6647349Y-11664698D01*
X6637825Y-11645651D01*
X6628301Y-11607556D01*
X6628301Y-11559937D01*
X6637825Y-11521841D01*
X6647349Y-11502794D01*
X6656873Y-11493270D01*
X6675920Y-11483746D01*
X6809254Y-11483746D02*
X6933063Y-11483746D01*
X6866397Y-11559937D01*
X6894968Y-11559937D01*
X6914016Y-11569460D01*
X6923539Y-11578984D01*
X6933063Y-11598032D01*
X6933063Y-11645651D01*
X6923539Y-11664698D01*
X6914016Y-11674222D01*
X6894968Y-11683746D01*
X6837825Y-11683746D01*
X6818778Y-11674222D01*
X6809254Y-11664698D01*
X7028301Y-11683746D02*
X7066397Y-11683746D01*
X7085444Y-11674222D01*
X7094968Y-11664698D01*
X7114016Y-11636127D01*
X7123539Y-11598032D01*
X7123539Y-11521841D01*
X7114016Y-11502794D01*
X7104492Y-11493270D01*
X7085444Y-11483746D01*
X7047349Y-11483746D01*
X7028301Y-11493270D01*
X7018778Y-11502794D01*
X7009254Y-11521841D01*
X7009254Y-11569460D01*
X7018778Y-11588508D01*
X7028301Y-11598032D01*
X7047349Y-11607556D01*
X7085444Y-11607556D01*
X7104492Y-11598032D01*
X7114016Y-11588508D01*
X7123539Y-11569460D01*
X7294968Y-11550413D02*
X7294968Y-11683746D01*
X7247349Y-11474222D02*
X7199730Y-11617079D01*
X7323539Y-11617079D01*
X7390206Y-11483746D02*
X7390206Y-11521841D01*
X7466397Y-11483746D02*
X7466397Y-11521841D01*
X7761635Y-11759937D02*
X7752111Y-11750413D01*
X7733063Y-11721841D01*
X7723539Y-11702794D01*
X7714016Y-11674222D01*
X7704492Y-11626603D01*
X7704492Y-11588508D01*
X7714016Y-11540889D01*
X7723539Y-11512318D01*
X7733063Y-11493270D01*
X7752111Y-11464698D01*
X7761635Y-11455175D01*
X7828301Y-11502794D02*
X7837825Y-11493270D01*
X7856873Y-11483746D01*
X7904492Y-11483746D01*
X7923539Y-11493270D01*
X7933063Y-11502794D01*
X7942587Y-11521841D01*
X7942587Y-11540889D01*
X7933063Y-11569460D01*
X7818778Y-11683746D01*
X7942587Y-11683746D01*
X8114016Y-11483746D02*
X8075920Y-11483746D01*
X8056873Y-11493270D01*
X8047349Y-11502794D01*
X8028301Y-11531365D01*
X8018778Y-11569460D01*
X8018778Y-11645651D01*
X8028301Y-11664698D01*
X8037825Y-11674222D01*
X8056873Y-11683746D01*
X8094968Y-11683746D01*
X8114016Y-11674222D01*
X8123539Y-11664698D01*
X8133063Y-11645651D01*
X8133063Y-11598032D01*
X8123539Y-11578984D01*
X8114016Y-11569460D01*
X8094968Y-11559937D01*
X8056873Y-11559937D01*
X8037825Y-11569460D01*
X8028301Y-11578984D01*
X8018778Y-11598032D01*
X8371158Y-11683746D02*
X8371158Y-11483746D01*
X8456873Y-11683746D02*
X8456873Y-11578984D01*
X8447349Y-11559937D01*
X8428301Y-11550413D01*
X8399730Y-11550413D01*
X8380682Y-11559937D01*
X8371158Y-11569460D01*
X8580682Y-11683746D02*
X8561635Y-11674222D01*
X8552111Y-11664698D01*
X8542587Y-11645651D01*
X8542587Y-11588508D01*
X8552111Y-11569460D01*
X8561635Y-11559937D01*
X8580682Y-11550413D01*
X8609254Y-11550413D01*
X8628301Y-11559937D01*
X8637825Y-11569460D01*
X8647349Y-11588508D01*
X8647349Y-11645651D01*
X8637825Y-11664698D01*
X8628301Y-11674222D01*
X8609254Y-11683746D01*
X8580682Y-11683746D01*
X8761635Y-11683746D02*
X8742587Y-11674222D01*
X8733063Y-11655175D01*
X8733063Y-11483746D01*
X8914016Y-11674222D02*
X8894968Y-11683746D01*
X8856873Y-11683746D01*
X8837825Y-11674222D01*
X8828301Y-11655175D01*
X8828301Y-11578984D01*
X8837825Y-11559937D01*
X8856873Y-11550413D01*
X8894968Y-11550413D01*
X8914016Y-11559937D01*
X8923540Y-11578984D01*
X8923540Y-11598032D01*
X8828301Y-11617079D01*
X8999730Y-11674222D02*
X9018778Y-11683746D01*
X9056873Y-11683746D01*
X9075920Y-11674222D01*
X9085444Y-11655175D01*
X9085444Y-11645651D01*
X9075920Y-11626603D01*
X9056873Y-11617079D01*
X9028301Y-11617079D01*
X9009254Y-11607556D01*
X8999730Y-11588508D01*
X8999730Y-11578984D01*
X9009254Y-11559937D01*
X9028301Y-11550413D01*
X9056873Y-11550413D01*
X9075920Y-11559937D01*
X9152111Y-11759937D02*
X9161635Y-11750413D01*
X9180682Y-11721841D01*
X9190206Y-11702794D01*
X9199730Y-11674222D01*
X9209254Y-11626603D01*
X9209254Y-11588508D01*
X9199730Y-11540889D01*
X9190206Y-11512318D01*
X9180682Y-11493270D01*
X9161635Y-11464698D01*
X9152111Y-11455175D01*
D16*
X4124730Y-11922270D02*
X4189730Y-11857270D01*
X4124730Y-11792270D01*
X4059730Y-11857270D01*
X4124730Y-11922270D01*
D11*
X4552111Y-11947746D02*
X4437825Y-11947746D01*
X4494968Y-11947746D02*
X4494968Y-11747746D01*
X4475920Y-11776318D01*
X4456873Y-11795365D01*
X4437825Y-11804889D01*
X4637825Y-11928698D02*
X4647349Y-11938222D01*
X4637825Y-11947746D01*
X4628301Y-11938222D01*
X4637825Y-11928698D01*
X4637825Y-11947746D01*
X4714016Y-11747746D02*
X4837825Y-11747746D01*
X4771159Y-11823937D01*
X4799730Y-11823937D01*
X4818778Y-11833460D01*
X4828301Y-11842984D01*
X4837825Y-11862032D01*
X4837825Y-11909651D01*
X4828301Y-11928698D01*
X4818778Y-11938222D01*
X4799730Y-11947746D01*
X4742587Y-11947746D01*
X4723540Y-11938222D01*
X4714016Y-11928698D01*
X4961635Y-11747746D02*
X4980682Y-11747746D01*
X4999730Y-11757270D01*
X5009254Y-11766794D01*
X5018778Y-11785841D01*
X5028301Y-11823937D01*
X5028301Y-11871556D01*
X5018778Y-11909651D01*
X5009254Y-11928698D01*
X4999730Y-11938222D01*
X4980682Y-11947746D01*
X4961635Y-11947746D01*
X4942587Y-11938222D01*
X4933063Y-11928698D01*
X4923540Y-11909651D01*
X4914016Y-11871556D01*
X4914016Y-11823937D01*
X4923540Y-11785841D01*
X4933063Y-11766794D01*
X4942587Y-11757270D01*
X4961635Y-11747746D01*
X5152111Y-11747746D02*
X5171159Y-11747746D01*
X5190206Y-11757270D01*
X5199730Y-11766794D01*
X5209254Y-11785841D01*
X5218778Y-11823937D01*
X5218778Y-11871556D01*
X5209254Y-11909651D01*
X5199730Y-11928698D01*
X5190206Y-11938222D01*
X5171159Y-11947746D01*
X5152111Y-11947746D01*
X5133063Y-11938222D01*
X5123540Y-11928698D01*
X5114016Y-11909651D01*
X5104492Y-11871556D01*
X5104492Y-11823937D01*
X5114016Y-11785841D01*
X5123540Y-11766794D01*
X5133063Y-11757270D01*
X5152111Y-11747746D01*
X5304492Y-11947746D02*
X5304492Y-11814413D01*
X5304492Y-11833460D02*
X5314016Y-11823937D01*
X5333063Y-11814413D01*
X5361635Y-11814413D01*
X5380682Y-11823937D01*
X5390206Y-11842984D01*
X5390206Y-11947746D01*
X5390206Y-11842984D02*
X5399730Y-11823937D01*
X5418778Y-11814413D01*
X5447349Y-11814413D01*
X5466397Y-11823937D01*
X5475920Y-11842984D01*
X5475920Y-11947746D01*
X5571159Y-11947746D02*
X5571159Y-11814413D01*
X5571159Y-11833460D02*
X5580682Y-11823937D01*
X5599730Y-11814413D01*
X5628301Y-11814413D01*
X5647349Y-11823937D01*
X5656873Y-11842984D01*
X5656873Y-11947746D01*
X5656873Y-11842984D02*
X5666397Y-11823937D01*
X5685444Y-11814413D01*
X5714016Y-11814413D01*
X5733063Y-11823937D01*
X5742587Y-11842984D01*
X5742587Y-11947746D01*
X6133063Y-11738222D02*
X5961635Y-11995365D01*
X6390206Y-11747746D02*
X6409254Y-11747746D01*
X6428301Y-11757270D01*
X6437825Y-11766794D01*
X6447349Y-11785841D01*
X6456873Y-11823937D01*
X6456873Y-11871556D01*
X6447349Y-11909651D01*
X6437825Y-11928698D01*
X6428301Y-11938222D01*
X6409254Y-11947746D01*
X6390206Y-11947746D01*
X6371158Y-11938222D01*
X6361635Y-11928698D01*
X6352111Y-11909651D01*
X6342587Y-11871556D01*
X6342587Y-11823937D01*
X6352111Y-11785841D01*
X6361635Y-11766794D01*
X6371158Y-11757270D01*
X6390206Y-11747746D01*
X6542587Y-11928698D02*
X6552111Y-11938222D01*
X6542587Y-11947746D01*
X6533063Y-11938222D01*
X6542587Y-11928698D01*
X6542587Y-11947746D01*
X6675920Y-11747746D02*
X6694968Y-11747746D01*
X6714016Y-11757270D01*
X6723539Y-11766794D01*
X6733063Y-11785841D01*
X6742587Y-11823937D01*
X6742587Y-11871556D01*
X6733063Y-11909651D01*
X6723539Y-11928698D01*
X6714016Y-11938222D01*
X6694968Y-11947746D01*
X6675920Y-11947746D01*
X6656873Y-11938222D01*
X6647349Y-11928698D01*
X6637825Y-11909651D01*
X6628301Y-11871556D01*
X6628301Y-11823937D01*
X6637825Y-11785841D01*
X6647349Y-11766794D01*
X6656873Y-11757270D01*
X6675920Y-11747746D01*
X6923539Y-11747746D02*
X6828301Y-11747746D01*
X6818778Y-11842984D01*
X6828301Y-11833460D01*
X6847349Y-11823937D01*
X6894968Y-11823937D01*
X6914016Y-11833460D01*
X6923539Y-11842984D01*
X6933063Y-11862032D01*
X6933063Y-11909651D01*
X6923539Y-11928698D01*
X6914016Y-11938222D01*
X6894968Y-11947746D01*
X6847349Y-11947746D01*
X6828301Y-11938222D01*
X6818778Y-11928698D01*
X7123539Y-11947746D02*
X7009254Y-11947746D01*
X7066397Y-11947746D02*
X7066397Y-11747746D01*
X7047349Y-11776318D01*
X7028301Y-11795365D01*
X7009254Y-11804889D01*
X7199730Y-11766794D02*
X7209254Y-11757270D01*
X7228301Y-11747746D01*
X7275920Y-11747746D01*
X7294968Y-11757270D01*
X7304492Y-11766794D01*
X7314016Y-11785841D01*
X7314016Y-11804889D01*
X7304492Y-11833460D01*
X7190206Y-11947746D01*
X7314016Y-11947746D01*
X7390206Y-11747746D02*
X7390206Y-11785841D01*
X7466397Y-11747746D02*
X7466397Y-11785841D01*
X7761635Y-12023937D02*
X7752111Y-12014413D01*
X7733063Y-11985841D01*
X7723539Y-11966794D01*
X7714016Y-11938222D01*
X7704492Y-11890603D01*
X7704492Y-11852508D01*
X7714016Y-11804889D01*
X7723539Y-11776318D01*
X7733063Y-11757270D01*
X7752111Y-11728698D01*
X7761635Y-11719175D01*
X7923539Y-11814413D02*
X7923539Y-11947746D01*
X7875920Y-11738222D02*
X7828301Y-11881079D01*
X7952111Y-11881079D01*
X8180682Y-11947746D02*
X8180682Y-11747746D01*
X8266397Y-11947746D02*
X8266397Y-11842984D01*
X8256873Y-11823937D01*
X8237825Y-11814413D01*
X8209254Y-11814413D01*
X8190206Y-11823937D01*
X8180682Y-11833460D01*
X8390206Y-11947746D02*
X8371158Y-11938222D01*
X8361635Y-11928698D01*
X8352111Y-11909651D01*
X8352111Y-11852508D01*
X8361635Y-11833460D01*
X8371158Y-11823937D01*
X8390206Y-11814413D01*
X8418778Y-11814413D01*
X8437825Y-11823937D01*
X8447349Y-11833460D01*
X8456873Y-11852508D01*
X8456873Y-11909651D01*
X8447349Y-11928698D01*
X8437825Y-11938222D01*
X8418778Y-11947746D01*
X8390206Y-11947746D01*
X8571159Y-11947746D02*
X8552111Y-11938222D01*
X8542587Y-11919175D01*
X8542587Y-11747746D01*
X8723540Y-11938222D02*
X8704492Y-11947746D01*
X8666397Y-11947746D01*
X8647349Y-11938222D01*
X8637825Y-11919175D01*
X8637825Y-11842984D01*
X8647349Y-11823937D01*
X8666397Y-11814413D01*
X8704492Y-11814413D01*
X8723540Y-11823937D01*
X8733063Y-11842984D01*
X8733063Y-11862032D01*
X8637825Y-11881079D01*
X8809254Y-11938222D02*
X8828301Y-11947746D01*
X8866397Y-11947746D01*
X8885444Y-11938222D01*
X8894968Y-11919175D01*
X8894968Y-11909651D01*
X8885444Y-11890603D01*
X8866397Y-11881079D01*
X8837825Y-11881079D01*
X8818778Y-11871556D01*
X8809254Y-11852508D01*
X8809254Y-11842984D01*
X8818778Y-11823937D01*
X8837825Y-11814413D01*
X8866397Y-11814413D01*
X8885444Y-11823937D01*
X8961635Y-12023937D02*
X8971159Y-12014413D01*
X8990206Y-11985841D01*
X8999730Y-11966794D01*
X9009254Y-11938222D01*
X9018778Y-11890603D01*
X9018778Y-11852508D01*
X9009254Y-11804889D01*
X8999730Y-11776318D01*
X8990206Y-11757270D01*
X8971159Y-11728698D01*
X8961635Y-11719175D01*
M02*
