M48
; DRILL file {KiCad (6.0.8)} date Sat Nov 26 11:41:06 2022
; FORMAT={-:-/ absolute / inch / decimal}
; #@! TF.CreationDate,2022-11-26T11:41:06-06:00
; #@! TF.GenerationSoftware,Kicad,Pcbnew,(6.0.8)
; #@! TF.FileFunction,Plated,1,2,PTH
FMAT,2
INCH
; #@! TA.AperFunction,Plated,PTH,ViaDrill
T1C0.0157
; #@! TA.AperFunction,Plated,PTH,ComponentDrill
T2C0.0276
; #@! TA.AperFunction,Plated,PTH,ComponentDrill
T3C0.0295
; #@! TA.AperFunction,Plated,PTH,ComponentDrill
T4C0.0394
; #@! TA.AperFunction,Plated,PTH,ComponentDrill
T5C0.0512
%
G90
G05
T1
X4.215Y-3.84
X4.735Y-3.84
T2
X2.308Y-2.89
X2.308Y-2.99
X3.805Y-3.183
X3.805Y-3.283
X3.805Y-3.387
X3.805Y-3.487
X3.995Y-2.888
X3.995Y-2.988
X3.995Y-3.092
X3.995Y-3.192
T3
X1.9048Y-3.3542
X2.2048Y-3.3542
X2.205Y-3.17
X2.255Y-3.22
X2.305Y-3.17
T4
X2.5669Y-3.6742
X2.7716Y-2.5167
X2.9684Y-2.5167
X3.1731Y-3.6742
X3.5308Y-2.889
X3.5308Y-2.989
X3.5308Y-3.089
X3.5308Y-3.189
X3.5308Y-3.289
X3.5308Y-3.389
X3.5308Y-3.489
X3.5308Y-3.589
X3.5308Y-3.689
X3.5308Y-3.789
X3.5308Y-3.889
X3.6308Y-2.889
X3.6308Y-2.989
X3.6308Y-3.089
X3.6308Y-3.189
X3.6308Y-3.289
X3.6308Y-3.389
X3.6308Y-3.489
X3.6308Y-3.589
X3.6308Y-3.689
X3.6308Y-3.789
X3.6308Y-3.889
T5
X1.9816Y-3.7668
X2.1784Y-3.7668
X3.7052Y-2.2166
X3.7052Y-2.4134
T0
M30
