%TF.GenerationSoftware,KiCad,Pcbnew,(6.0.8)*%
%TF.CreationDate,2022-11-26T11:41:08-06:00*%
%TF.ProjectId,tt-relay-board,74742d72-656c-4617-992d-626f6172642e,rev?*%
%TF.SameCoordinates,Original*%
%TF.FileFunction,Copper,L2,Bot*%
%TF.FilePolarity,Positive*%
%FSLAX46Y46*%
G04 Gerber Fmt 4.6, Leading zero omitted, Abs format (unit mm)*
G04 Created by KiCad (PCBNEW (6.0.8)) date 2022-11-26 11:41:08*
%MOMM*%
%LPD*%
G01*
G04 APERTURE LIST*
%TA.AperFunction,ComponentPad*%
%ADD10R,1.500000X1.500000*%
%TD*%
%TA.AperFunction,ComponentPad*%
%ADD11O,1.500000X1.500000*%
%TD*%
%TA.AperFunction,ComponentPad*%
%ADD12C,1.400000*%
%TD*%
%TA.AperFunction,ComponentPad*%
%ADD13O,1.400000X1.400000*%
%TD*%
%TA.AperFunction,ComponentPad*%
%ADD14R,1.950000X1.950000*%
%TD*%
%TA.AperFunction,ComponentPad*%
%ADD15C,1.950000*%
%TD*%
%TA.AperFunction,ComponentPad*%
%ADD16R,1.300000X1.300000*%
%TD*%
%TA.AperFunction,ComponentPad*%
%ADD17C,1.300000*%
%TD*%
%TA.AperFunction,ComponentPad*%
%ADD18R,2.000000X2.300000*%
%TD*%
%TA.AperFunction,ComponentPad*%
%ADD19C,2.300000*%
%TD*%
%TA.AperFunction,ComponentPad*%
%ADD20R,1.700000X1.700000*%
%TD*%
%TA.AperFunction,ComponentPad*%
%ADD21O,1.700000X1.700000*%
%TD*%
%TA.AperFunction,ViaPad*%
%ADD22C,0.800000*%
%TD*%
%TA.AperFunction,Conductor*%
%ADD23C,2.500000*%
%TD*%
G04 APERTURE END LIST*
D10*
%TO.P,D1,1,K*%
%TO.N,+5V*%
X48382000Y-85196000D03*
D11*
%TO.P,D1,2,A*%
%TO.N,Net-(D1-Pad2)*%
X56002000Y-85196000D03*
%TD*%
D12*
%TO.P,R4,1*%
%TO.N,IO26*%
X101473000Y-75896000D03*
D13*
%TO.P,R4,2*%
%TO.N,+3V3*%
X101473000Y-73356000D03*
%TD*%
D14*
%TO.P,J1,1,Pin_1*%
%TO.N,LINE*%
X94113000Y-61301000D03*
D15*
%TO.P,J1,2,Pin_2*%
%TO.N,NEUT*%
X94113000Y-56301000D03*
%TD*%
D16*
%TO.P,Q1,1,B*%
%TO.N,Net-(Q1-Pad1)*%
X58547000Y-80518000D03*
D17*
%TO.P,Q1,2,E*%
%TO.N,GND*%
X57277000Y-81788000D03*
%TO.P,Q1,3,C*%
%TO.N,Net-(D1-Pad2)*%
X56007000Y-80518000D03*
%TD*%
D18*
%TO.P,PS1,1,AC/L*%
%TO.N,LINE*%
X75398000Y-63923500D03*
D19*
%TO.P,PS1,2,AC/N*%
%TO.N,NEUT*%
X70398000Y-63923500D03*
%TO.P,PS1,3,-Vout*%
%TO.N,GND*%
X80598000Y-93323500D03*
%TO.P,PS1,4,+Vout*%
%TO.N,+5V*%
X65198000Y-93323500D03*
%TD*%
D12*
%TO.P,R1,1*%
%TO.N,IO23*%
X58624000Y-73406000D03*
D13*
%TO.P,R1,2*%
%TO.N,Net-(Q1-Pad1)*%
X58624000Y-75946000D03*
%TD*%
D12*
%TO.P,R2,1*%
%TO.N,IO13*%
X101473000Y-78536000D03*
D13*
%TO.P,R2,2*%
%TO.N,+3V3*%
X101473000Y-81076000D03*
%TD*%
D12*
%TO.P,R3,1*%
%TO.N,IO32*%
X96647000Y-86029000D03*
D13*
%TO.P,R3,2*%
%TO.N,+3V3*%
X96647000Y-88569000D03*
%TD*%
D14*
%TO.P,J2,1,Pin_1*%
%TO.N,+5V*%
X50332000Y-95677000D03*
D15*
%TO.P,J2,2,Pin_2*%
%TO.N,GND*%
X55332000Y-95677000D03*
%TD*%
D12*
%TO.P,R5,1*%
%TO.N,IO35*%
X96647000Y-83389000D03*
D13*
%TO.P,R5,2*%
%TO.N,+3V3*%
X96647000Y-80849000D03*
%TD*%
D20*
%TO.P,J5,1,Pin_1*%
%TO.N,GND*%
X92222000Y-98781000D03*
D21*
%TO.P,J5,2,Pin_2*%
%TO.N,+3V3*%
X89682000Y-98781000D03*
%TO.P,J5,3,Pin_3*%
%TO.N,GND*%
X92222000Y-96241000D03*
%TO.P,J5,4,Pin_4*%
%TO.N,+3V3*%
X89682000Y-96241000D03*
%TO.P,J5,5,Pin_5*%
%TO.N,IO14{slash}CLK*%
X92222000Y-93701000D03*
%TO.P,J5,6,Pin_6*%
%TO.N,IO02{slash}MISO*%
X89682000Y-93701000D03*
%TO.P,J5,7,Pin_7*%
%TO.N,IO15{slash}MOSI*%
X92222000Y-91161000D03*
%TO.P,J5,8,Pin_8*%
%TO.N,IO04*%
X89682000Y-91161000D03*
%TO.P,J5,9,Pin_9*%
%TO.N,IO12*%
X92222000Y-88621000D03*
%TO.P,J5,10,Pin_10*%
%TO.N,IO33*%
X89682000Y-88621000D03*
%TO.P,J5,11,Pin_11*%
%TO.N,IO32*%
X92222000Y-86081000D03*
%TO.P,J5,12,Pin_12*%
%TO.N,unconnected-(J5-Pad12)*%
X89682000Y-86081000D03*
%TO.P,J5,13,Pin_13*%
%TO.N,IO35*%
X92222000Y-83541000D03*
%TO.P,J5,14,Pin_14*%
%TO.N,IO34*%
X89682000Y-83541000D03*
%TO.P,J5,15,Pin_15*%
%TO.N,IO39*%
X92222000Y-81001000D03*
%TO.P,J5,16,Pin_16*%
%TO.N,IO36*%
X89682000Y-81001000D03*
%TO.P,J5,17,Pin_17*%
%TO.N,IO13*%
X92222000Y-78461000D03*
%TO.P,J5,18,Pin_18*%
%TO.N,GND*%
X89682000Y-78461000D03*
%TO.P,J5,19,Pin_19*%
%TO.N,IO26*%
X92222000Y-75921000D03*
%TO.P,J5,20,Pin_20*%
%TO.N,IO27*%
X89682000Y-75921000D03*
%TO.P,J5,21,Pin_21*%
%TO.N,IO22*%
X92222000Y-73381000D03*
%TO.P,J5,22,Pin_22*%
%TO.N,IO23*%
X89682000Y-73381000D03*
%TD*%
D22*
%TO.N,GND*%
X120269000Y-97536000D03*
X107061000Y-97536000D03*
%TD*%
D23*
%TO.N,LINE*%
X94113000Y-61301000D02*
X78020500Y-61301000D01*
X78020500Y-61301000D02*
X75398000Y-63923500D01*
%TO.N,NEUT*%
X75779000Y-56301000D02*
X70398000Y-61682000D01*
X70398000Y-61682000D02*
X70398000Y-63923500D01*
X94113000Y-56301000D02*
X75779000Y-56301000D01*
%TD*%
%TA.AperFunction,Conductor*%
%TO.N,GND*%
G36*
X106680687Y-70759002D02*
G01*
X106727180Y-70812658D01*
X106737572Y-70849208D01*
X106751060Y-70955975D01*
X106829557Y-71261702D01*
X106831010Y-71265371D01*
X106831010Y-71265372D01*
X106898761Y-71436490D01*
X106945753Y-71555179D01*
X106947659Y-71558647D01*
X106947660Y-71558648D01*
X107083227Y-71805241D01*
X107097816Y-71831779D01*
X107283346Y-72087140D01*
X107499418Y-72317233D01*
X107742625Y-72518432D01*
X108009131Y-72687562D01*
X108012710Y-72689246D01*
X108012717Y-72689250D01*
X108291144Y-72820267D01*
X108291148Y-72820269D01*
X108294734Y-72821956D01*
X108594928Y-72919495D01*
X108904980Y-72978641D01*
X109141162Y-72993500D01*
X109298838Y-72993500D01*
X109535020Y-72978641D01*
X109845072Y-72919495D01*
X110145266Y-72821956D01*
X110148852Y-72820269D01*
X110148856Y-72820267D01*
X110427283Y-72689250D01*
X110427290Y-72689246D01*
X110430869Y-72687562D01*
X110697375Y-72518432D01*
X110940582Y-72317233D01*
X111156654Y-72087140D01*
X111342184Y-71831779D01*
X111356774Y-71805241D01*
X111492340Y-71558648D01*
X111492341Y-71558647D01*
X111494247Y-71555179D01*
X111541240Y-71436490D01*
X111608990Y-71265372D01*
X111608990Y-71265371D01*
X111610443Y-71261702D01*
X111688940Y-70955975D01*
X111702428Y-70849208D01*
X111730810Y-70784131D01*
X111789870Y-70744730D01*
X111827434Y-70739000D01*
X124741499Y-70739000D01*
X124750487Y-70739321D01*
X124799871Y-70742853D01*
X125021650Y-70758715D01*
X125039433Y-70761272D01*
X125300658Y-70818098D01*
X125317900Y-70823160D01*
X125568393Y-70916589D01*
X125584740Y-70924055D01*
X125819375Y-71052176D01*
X125834498Y-71061895D01*
X126048510Y-71222103D01*
X126062096Y-71233876D01*
X126251124Y-71422904D01*
X126262897Y-71436490D01*
X126423105Y-71650502D01*
X126432824Y-71665625D01*
X126476087Y-71744855D01*
X126491500Y-71805241D01*
X126491500Y-97740633D01*
X126490000Y-97760018D01*
X126487690Y-97774851D01*
X126487690Y-97774855D01*
X126486309Y-97783724D01*
X126488136Y-97797693D01*
X126488756Y-97802433D01*
X126489647Y-97825366D01*
X126484752Y-97918772D01*
X126473760Y-98128501D01*
X126472382Y-98141617D01*
X126420387Y-98469898D01*
X126417645Y-98482798D01*
X126337743Y-98781000D01*
X126331621Y-98803846D01*
X126327547Y-98816382D01*
X126243628Y-99035000D01*
X126208438Y-99126672D01*
X126203074Y-99138720D01*
X126052180Y-99434867D01*
X126045586Y-99446288D01*
X125864563Y-99725040D01*
X125856810Y-99735710D01*
X125647648Y-99994004D01*
X125638823Y-100003805D01*
X125403805Y-100238823D01*
X125394004Y-100247648D01*
X125135710Y-100456810D01*
X125125040Y-100464563D01*
X124846288Y-100645586D01*
X124834867Y-100652180D01*
X124538720Y-100803074D01*
X124526671Y-100808438D01*
X124216382Y-100927547D01*
X124203846Y-100931621D01*
X123882798Y-101017645D01*
X123869898Y-101020387D01*
X123541617Y-101072382D01*
X123528501Y-101073760D01*
X123494848Y-101075524D01*
X123232702Y-101089262D01*
X123206727Y-101087935D01*
X123205157Y-101087691D01*
X123205151Y-101087691D01*
X123196276Y-101086309D01*
X123187374Y-101087473D01*
X123187372Y-101087473D01*
X123172323Y-101089441D01*
X123164714Y-101090436D01*
X123148379Y-101091500D01*
X45769367Y-101091500D01*
X45749982Y-101090000D01*
X45735149Y-101087690D01*
X45735145Y-101087690D01*
X45726276Y-101086309D01*
X45707564Y-101088756D01*
X45684634Y-101089647D01*
X45381497Y-101073760D01*
X45368383Y-101072382D01*
X45040102Y-101020387D01*
X45027202Y-101017645D01*
X44706154Y-100931621D01*
X44693618Y-100927547D01*
X44383329Y-100808438D01*
X44371280Y-100803074D01*
X44075133Y-100652180D01*
X44063712Y-100645586D01*
X43784960Y-100464563D01*
X43774290Y-100456810D01*
X43515996Y-100247648D01*
X43506195Y-100238823D01*
X43271177Y-100003805D01*
X43262352Y-99994004D01*
X43053190Y-99735710D01*
X43045437Y-99725040D01*
X42864414Y-99446288D01*
X42857820Y-99434867D01*
X42706926Y-99138720D01*
X42701562Y-99126672D01*
X42666372Y-99035000D01*
X42582453Y-98816382D01*
X42578379Y-98803846D01*
X42572258Y-98781000D01*
X42563334Y-98747695D01*
X88319251Y-98747695D01*
X88319548Y-98752848D01*
X88319548Y-98752851D01*
X88322856Y-98810220D01*
X88332110Y-98970715D01*
X88333247Y-98975761D01*
X88333248Y-98975767D01*
X88347606Y-99039475D01*
X88381222Y-99188639D01*
X88465266Y-99395616D01*
X88581987Y-99586088D01*
X88728250Y-99754938D01*
X88900126Y-99897632D01*
X89093000Y-100010338D01*
X89301692Y-100090030D01*
X89306760Y-100091061D01*
X89306763Y-100091062D01*
X89414017Y-100112883D01*
X89520597Y-100134567D01*
X89525772Y-100134757D01*
X89525774Y-100134757D01*
X89738673Y-100142564D01*
X89738677Y-100142564D01*
X89743837Y-100142753D01*
X89748957Y-100142097D01*
X89748959Y-100142097D01*
X89960288Y-100115025D01*
X89960289Y-100115025D01*
X89965416Y-100114368D01*
X90027186Y-100095836D01*
X90174429Y-100051661D01*
X90174434Y-100051659D01*
X90179384Y-100050174D01*
X90379994Y-99951896D01*
X90561860Y-99822173D01*
X90629331Y-99754938D01*
X90670479Y-99713933D01*
X90732851Y-99680017D01*
X90803658Y-99685205D01*
X90860419Y-99727851D01*
X90877401Y-99758954D01*
X90918676Y-99869054D01*
X90927214Y-99884649D01*
X91003715Y-99986724D01*
X91016276Y-99999285D01*
X91118351Y-100075786D01*
X91133946Y-100084324D01*
X91254394Y-100129478D01*
X91269649Y-100133105D01*
X91320514Y-100138631D01*
X91327328Y-100139000D01*
X91949885Y-100139000D01*
X91965124Y-100134525D01*
X91966329Y-100133135D01*
X91968000Y-100125452D01*
X91968000Y-100120884D01*
X92476000Y-100120884D01*
X92480475Y-100136123D01*
X92481865Y-100137328D01*
X92489548Y-100138999D01*
X93116669Y-100138999D01*
X93123490Y-100138629D01*
X93174352Y-100133105D01*
X93189604Y-100129479D01*
X93310054Y-100084324D01*
X93325649Y-100075786D01*
X93427724Y-99999285D01*
X93440285Y-99986724D01*
X93516786Y-99884649D01*
X93525324Y-99869054D01*
X93570478Y-99748606D01*
X93574105Y-99733351D01*
X93579631Y-99682486D01*
X93580000Y-99675672D01*
X93580000Y-99053115D01*
X93575525Y-99037876D01*
X93574135Y-99036671D01*
X93566452Y-99035000D01*
X92494115Y-99035000D01*
X92478876Y-99039475D01*
X92477671Y-99040865D01*
X92476000Y-99048548D01*
X92476000Y-100120884D01*
X91968000Y-100120884D01*
X91968000Y-98972604D01*
X104551787Y-98972604D01*
X104561567Y-99183899D01*
X104611125Y-99389534D01*
X104613607Y-99394992D01*
X104613608Y-99394996D01*
X104657053Y-99490546D01*
X104698674Y-99582087D01*
X104768141Y-99680017D01*
X104807647Y-99735710D01*
X104821054Y-99754611D01*
X104973850Y-99900881D01*
X105151548Y-100015620D01*
X105157114Y-100017863D01*
X105342168Y-100092442D01*
X105342171Y-100092443D01*
X105347737Y-100094686D01*
X105555337Y-100135228D01*
X105560899Y-100135500D01*
X105716846Y-100135500D01*
X105874566Y-100120452D01*
X106077534Y-100060908D01*
X106095488Y-100051661D01*
X106260249Y-99966804D01*
X106260252Y-99966802D01*
X106265580Y-99964058D01*
X106431920Y-99833396D01*
X106435852Y-99828865D01*
X106435855Y-99828862D01*
X106566621Y-99678167D01*
X106570552Y-99673637D01*
X106573552Y-99668451D01*
X106573555Y-99668447D01*
X106673467Y-99495742D01*
X106676473Y-99490546D01*
X106745861Y-99290729D01*
X106747009Y-99282811D01*
X106775352Y-99087336D01*
X106775352Y-99087333D01*
X106776213Y-99081396D01*
X106771177Y-98972604D01*
X117632787Y-98972604D01*
X117642567Y-99183899D01*
X117692125Y-99389534D01*
X117694607Y-99394992D01*
X117694608Y-99394996D01*
X117738053Y-99490546D01*
X117779674Y-99582087D01*
X117849141Y-99680017D01*
X117888647Y-99735710D01*
X117902054Y-99754611D01*
X118054850Y-99900881D01*
X118232548Y-100015620D01*
X118238114Y-100017863D01*
X118423168Y-100092442D01*
X118423171Y-100092443D01*
X118428737Y-100094686D01*
X118636337Y-100135228D01*
X118641899Y-100135500D01*
X118797846Y-100135500D01*
X118955566Y-100120452D01*
X119158534Y-100060908D01*
X119176488Y-100051661D01*
X119341249Y-99966804D01*
X119341252Y-99966802D01*
X119346580Y-99964058D01*
X119512920Y-99833396D01*
X119516852Y-99828865D01*
X119516855Y-99828862D01*
X119647621Y-99678167D01*
X119651552Y-99673637D01*
X119654552Y-99668451D01*
X119654555Y-99668447D01*
X119754467Y-99495742D01*
X119757473Y-99490546D01*
X119826861Y-99290729D01*
X119828009Y-99282811D01*
X119856352Y-99087336D01*
X119856352Y-99087333D01*
X119857213Y-99081396D01*
X119847433Y-98870101D01*
X119797875Y-98664466D01*
X119761458Y-98584370D01*
X119712806Y-98477368D01*
X119710326Y-98471913D01*
X119587946Y-98299389D01*
X119435150Y-98153119D01*
X119257452Y-98038380D01*
X119197354Y-98014160D01*
X119066832Y-97961558D01*
X119066829Y-97961557D01*
X119061263Y-97959314D01*
X118853663Y-97918772D01*
X118848101Y-97918500D01*
X118692154Y-97918500D01*
X118534434Y-97933548D01*
X118331466Y-97993092D01*
X118326139Y-97995836D01*
X118326138Y-97995836D01*
X118148751Y-98087196D01*
X118148748Y-98087198D01*
X118143420Y-98089942D01*
X117977080Y-98220604D01*
X117973148Y-98225135D01*
X117973145Y-98225138D01*
X117904474Y-98304275D01*
X117838448Y-98380363D01*
X117835448Y-98385549D01*
X117835445Y-98385553D01*
X117782329Y-98477368D01*
X117732527Y-98563454D01*
X117663139Y-98763271D01*
X117662278Y-98769206D01*
X117662278Y-98769208D01*
X117656332Y-98810220D01*
X117632787Y-98972604D01*
X106771177Y-98972604D01*
X106766433Y-98870101D01*
X106716875Y-98664466D01*
X106680458Y-98584370D01*
X106631806Y-98477368D01*
X106629326Y-98471913D01*
X106506946Y-98299389D01*
X106354150Y-98153119D01*
X106176452Y-98038380D01*
X106116354Y-98014160D01*
X105985832Y-97961558D01*
X105985829Y-97961557D01*
X105980263Y-97959314D01*
X105772663Y-97918772D01*
X105767101Y-97918500D01*
X105611154Y-97918500D01*
X105453434Y-97933548D01*
X105250466Y-97993092D01*
X105245139Y-97995836D01*
X105245138Y-97995836D01*
X105067751Y-98087196D01*
X105067748Y-98087198D01*
X105062420Y-98089942D01*
X104896080Y-98220604D01*
X104892148Y-98225135D01*
X104892145Y-98225138D01*
X104823474Y-98304275D01*
X104757448Y-98380363D01*
X104754448Y-98385549D01*
X104754445Y-98385553D01*
X104701329Y-98477368D01*
X104651527Y-98563454D01*
X104582139Y-98763271D01*
X104581278Y-98769206D01*
X104581278Y-98769208D01*
X104575332Y-98810220D01*
X104551787Y-98972604D01*
X91968000Y-98972604D01*
X91968000Y-98508885D01*
X92476000Y-98508885D01*
X92480475Y-98524124D01*
X92481865Y-98525329D01*
X92489548Y-98527000D01*
X93561884Y-98527000D01*
X93577123Y-98522525D01*
X93578328Y-98521135D01*
X93579999Y-98513452D01*
X93579999Y-97886331D01*
X93579629Y-97879510D01*
X93574105Y-97828648D01*
X93570479Y-97813396D01*
X93525324Y-97692946D01*
X93516786Y-97677351D01*
X93440285Y-97575276D01*
X93427724Y-97562715D01*
X93325649Y-97486214D01*
X93310054Y-97477676D01*
X93199297Y-97436155D01*
X93142533Y-97393513D01*
X93117833Y-97326952D01*
X93133040Y-97257603D01*
X93154587Y-97228922D01*
X93256057Y-97127805D01*
X93262730Y-97119965D01*
X93387003Y-96947020D01*
X93392313Y-96938183D01*
X93486670Y-96747267D01*
X93490469Y-96737672D01*
X93552377Y-96533910D01*
X93554555Y-96523837D01*
X93555986Y-96512962D01*
X93553775Y-96498778D01*
X93540617Y-96495000D01*
X92494115Y-96495000D01*
X92478876Y-96499475D01*
X92477671Y-96500865D01*
X92476000Y-96508548D01*
X92476000Y-98508885D01*
X91968000Y-98508885D01*
X91968000Y-96113000D01*
X91988002Y-96044879D01*
X92041658Y-95998386D01*
X92094000Y-95987000D01*
X93540344Y-95987000D01*
X93553875Y-95983027D01*
X93555180Y-95973947D01*
X93513214Y-95806875D01*
X93509894Y-95797124D01*
X93424972Y-95601814D01*
X93420105Y-95592739D01*
X93304426Y-95413926D01*
X93298136Y-95405757D01*
X93154806Y-95248240D01*
X93147273Y-95241215D01*
X92980139Y-95109222D01*
X92971556Y-95103520D01*
X92934602Y-95083120D01*
X92884631Y-95032687D01*
X92869859Y-94963245D01*
X92894975Y-94896839D01*
X92922327Y-94870232D01*
X92945797Y-94853491D01*
X93101860Y-94742173D01*
X93260096Y-94584489D01*
X93319594Y-94501689D01*
X93387435Y-94407277D01*
X93390453Y-94403077D01*
X93411320Y-94360857D01*
X93487136Y-94207453D01*
X93487137Y-94207451D01*
X93489430Y-94202811D01*
X93554370Y-93989069D01*
X93583529Y-93767590D01*
X93585156Y-93701000D01*
X93566852Y-93478361D01*
X93512431Y-93261702D01*
X93423354Y-93056840D01*
X93302014Y-92869277D01*
X93151670Y-92704051D01*
X93147619Y-92700852D01*
X93147615Y-92700848D01*
X92980414Y-92568800D01*
X92980410Y-92568798D01*
X92976359Y-92565598D01*
X92935053Y-92542796D01*
X92885084Y-92492364D01*
X92870312Y-92422921D01*
X92895428Y-92356516D01*
X92922780Y-92329909D01*
X92986032Y-92284792D01*
X93101860Y-92202173D01*
X93153314Y-92150899D01*
X93256435Y-92048137D01*
X93260096Y-92044489D01*
X93310198Y-91974765D01*
X93311751Y-91972604D01*
X104551787Y-91972604D01*
X104561567Y-92183899D01*
X104562971Y-92189724D01*
X104562971Y-92189725D01*
X104603168Y-92356516D01*
X104611125Y-92389534D01*
X104613607Y-92394992D01*
X104613608Y-92394996D01*
X104657053Y-92490546D01*
X104698674Y-92582087D01*
X104821054Y-92754611D01*
X104973850Y-92900881D01*
X105151548Y-93015620D01*
X105181473Y-93027680D01*
X105342168Y-93092442D01*
X105342171Y-93092443D01*
X105347737Y-93094686D01*
X105555337Y-93135228D01*
X105560899Y-93135500D01*
X105716846Y-93135500D01*
X105874566Y-93120452D01*
X106077534Y-93060908D01*
X106107216Y-93045621D01*
X106260249Y-92966804D01*
X106260252Y-92966802D01*
X106265580Y-92964058D01*
X106431920Y-92833396D01*
X106435852Y-92828865D01*
X106435855Y-92828862D01*
X106566621Y-92678167D01*
X106570552Y-92673637D01*
X106573552Y-92668451D01*
X106573555Y-92668447D01*
X106673467Y-92495742D01*
X106676473Y-92490546D01*
X106745861Y-92290729D01*
X106748239Y-92274327D01*
X106775352Y-92087336D01*
X106775352Y-92087333D01*
X106776213Y-92081396D01*
X106771177Y-91972604D01*
X117632787Y-91972604D01*
X117642567Y-92183899D01*
X117643971Y-92189724D01*
X117643971Y-92189725D01*
X117684168Y-92356516D01*
X117692125Y-92389534D01*
X117694607Y-92394992D01*
X117694608Y-92394996D01*
X117738053Y-92490546D01*
X117779674Y-92582087D01*
X117902054Y-92754611D01*
X118054850Y-92900881D01*
X118232548Y-93015620D01*
X118262473Y-93027680D01*
X118423168Y-93092442D01*
X118423171Y-93092443D01*
X118428737Y-93094686D01*
X118636337Y-93135228D01*
X118641899Y-93135500D01*
X118797846Y-93135500D01*
X118955566Y-93120452D01*
X119158534Y-93060908D01*
X119188216Y-93045621D01*
X119341249Y-92966804D01*
X119341252Y-92966802D01*
X119346580Y-92964058D01*
X119512920Y-92833396D01*
X119516852Y-92828865D01*
X119516855Y-92828862D01*
X119647621Y-92678167D01*
X119651552Y-92673637D01*
X119654552Y-92668451D01*
X119654555Y-92668447D01*
X119754467Y-92495742D01*
X119757473Y-92490546D01*
X119826861Y-92290729D01*
X119829239Y-92274327D01*
X119856352Y-92087336D01*
X119856352Y-92087333D01*
X119857213Y-92081396D01*
X119847433Y-91870101D01*
X119802102Y-91682004D01*
X119799281Y-91670299D01*
X119799280Y-91670297D01*
X119797875Y-91664466D01*
X119754525Y-91569122D01*
X119712806Y-91477368D01*
X119710326Y-91471913D01*
X119587946Y-91299389D01*
X119435150Y-91153119D01*
X119257452Y-91038380D01*
X119197354Y-91014160D01*
X119066832Y-90961558D01*
X119066829Y-90961557D01*
X119061263Y-90959314D01*
X118853663Y-90918772D01*
X118848101Y-90918500D01*
X118692154Y-90918500D01*
X118534434Y-90933548D01*
X118331466Y-90993092D01*
X118326139Y-90995836D01*
X118326138Y-90995836D01*
X118148751Y-91087196D01*
X118148748Y-91087198D01*
X118143420Y-91089942D01*
X117977080Y-91220604D01*
X117973148Y-91225135D01*
X117973145Y-91225138D01*
X117904474Y-91304275D01*
X117838448Y-91380363D01*
X117835448Y-91385549D01*
X117835445Y-91385553D01*
X117788312Y-91467026D01*
X117732527Y-91563454D01*
X117663139Y-91763271D01*
X117662278Y-91769206D01*
X117662278Y-91769208D01*
X117634370Y-91961689D01*
X117632787Y-91972604D01*
X106771177Y-91972604D01*
X106766433Y-91870101D01*
X106721102Y-91682004D01*
X106718281Y-91670299D01*
X106718280Y-91670297D01*
X106716875Y-91664466D01*
X106673525Y-91569122D01*
X106631806Y-91477368D01*
X106629326Y-91471913D01*
X106506946Y-91299389D01*
X106354150Y-91153119D01*
X106176452Y-91038380D01*
X106116354Y-91014160D01*
X105985832Y-90961558D01*
X105985829Y-90961557D01*
X105980263Y-90959314D01*
X105772663Y-90918772D01*
X105767101Y-90918500D01*
X105611154Y-90918500D01*
X105453434Y-90933548D01*
X105250466Y-90993092D01*
X105245139Y-90995836D01*
X105245138Y-90995836D01*
X105067751Y-91087196D01*
X105067748Y-91087198D01*
X105062420Y-91089942D01*
X104896080Y-91220604D01*
X104892148Y-91225135D01*
X104892145Y-91225138D01*
X104823474Y-91304275D01*
X104757448Y-91380363D01*
X104754448Y-91385549D01*
X104754445Y-91385553D01*
X104707312Y-91467026D01*
X104651527Y-91563454D01*
X104582139Y-91763271D01*
X104581278Y-91769206D01*
X104581278Y-91769208D01*
X104553370Y-91961689D01*
X104551787Y-91972604D01*
X93311751Y-91972604D01*
X93387435Y-91867277D01*
X93390453Y-91863077D01*
X93402204Y-91839302D01*
X93487136Y-91667453D01*
X93487137Y-91667451D01*
X93489430Y-91662811D01*
X93545772Y-91477368D01*
X93552865Y-91454023D01*
X93552865Y-91454021D01*
X93554370Y-91449069D01*
X93583529Y-91227590D01*
X93585156Y-91161000D01*
X93566852Y-90938361D01*
X93512431Y-90721702D01*
X93423354Y-90516840D01*
X93302014Y-90329277D01*
X93151670Y-90164051D01*
X93147619Y-90160852D01*
X93147615Y-90160848D01*
X92980414Y-90028800D01*
X92980410Y-90028798D01*
X92976359Y-90025598D01*
X92935053Y-90002796D01*
X92885084Y-89952364D01*
X92870312Y-89882921D01*
X92895428Y-89816516D01*
X92922780Y-89789909D01*
X92966603Y-89758650D01*
X93101860Y-89662173D01*
X93260096Y-89504489D01*
X93319594Y-89421689D01*
X93387435Y-89327277D01*
X93390453Y-89323077D01*
X93411320Y-89280857D01*
X93487136Y-89127453D01*
X93487137Y-89127451D01*
X93489430Y-89122811D01*
X93530118Y-88988892D01*
X93552865Y-88914023D01*
X93552865Y-88914021D01*
X93554370Y-88909069D01*
X93583529Y-88687590D01*
X93585156Y-88621000D01*
X93580881Y-88569000D01*
X95433884Y-88569000D01*
X95452314Y-88779655D01*
X95453738Y-88784968D01*
X95453738Y-88784970D01*
X95460637Y-88810715D01*
X95507044Y-88983910D01*
X95509366Y-88988891D01*
X95509367Y-88988892D01*
X95571815Y-89122811D01*
X95596411Y-89175558D01*
X95717699Y-89348776D01*
X95867224Y-89498301D01*
X96040442Y-89619589D01*
X96045420Y-89621910D01*
X96045423Y-89621912D01*
X96227108Y-89706633D01*
X96232090Y-89708956D01*
X96237398Y-89710378D01*
X96237400Y-89710379D01*
X96431030Y-89762262D01*
X96431032Y-89762262D01*
X96436345Y-89763686D01*
X96647000Y-89782116D01*
X96857655Y-89763686D01*
X96862968Y-89762262D01*
X96862970Y-89762262D01*
X97056600Y-89710379D01*
X97056602Y-89710378D01*
X97061910Y-89708956D01*
X97066892Y-89706633D01*
X97248577Y-89621912D01*
X97248580Y-89621910D01*
X97253558Y-89619589D01*
X97426776Y-89498301D01*
X97576301Y-89348776D01*
X97697589Y-89175558D01*
X97722186Y-89122811D01*
X97784633Y-88988892D01*
X97784634Y-88988891D01*
X97786956Y-88983910D01*
X97833364Y-88810715D01*
X97840262Y-88784970D01*
X97840262Y-88784968D01*
X97841686Y-88779655D01*
X97860116Y-88569000D01*
X97841686Y-88358345D01*
X97794355Y-88181702D01*
X97788379Y-88159400D01*
X97788378Y-88159398D01*
X97786956Y-88154090D01*
X97702882Y-87973792D01*
X97699912Y-87967423D01*
X97699910Y-87967420D01*
X97697589Y-87962442D01*
X97576301Y-87789224D01*
X97426776Y-87639699D01*
X97253558Y-87518411D01*
X97248580Y-87516090D01*
X97248577Y-87516088D01*
X97066892Y-87431367D01*
X97066891Y-87431366D01*
X97061910Y-87429044D01*
X97056602Y-87427622D01*
X97056600Y-87427621D01*
X97030796Y-87420707D01*
X96970173Y-87383755D01*
X96939152Y-87319894D01*
X96947580Y-87249400D01*
X96992783Y-87194653D01*
X97030796Y-87177293D01*
X97056600Y-87170379D01*
X97056602Y-87170378D01*
X97061910Y-87168956D01*
X97066892Y-87166633D01*
X97248577Y-87081912D01*
X97248580Y-87081910D01*
X97253558Y-87079589D01*
X97426776Y-86958301D01*
X97576301Y-86808776D01*
X97697589Y-86635558D01*
X97722186Y-86582811D01*
X97784633Y-86448892D01*
X97784634Y-86448891D01*
X97786956Y-86443910D01*
X97802864Y-86384543D01*
X97840262Y-86244970D01*
X97840262Y-86244968D01*
X97841686Y-86239655D01*
X97860116Y-86029000D01*
X97841686Y-85818345D01*
X97794355Y-85641702D01*
X97788379Y-85619400D01*
X97788378Y-85619398D01*
X97786956Y-85614090D01*
X97702882Y-85433792D01*
X97699912Y-85427423D01*
X97699910Y-85427420D01*
X97697589Y-85422442D01*
X97576301Y-85249224D01*
X97426776Y-85099699D01*
X97253558Y-84978411D01*
X97248580Y-84976090D01*
X97248577Y-84976088D01*
X97066892Y-84891367D01*
X97066891Y-84891366D01*
X97061910Y-84889044D01*
X97056602Y-84887622D01*
X97056600Y-84887621D01*
X96862970Y-84835738D01*
X96862968Y-84835738D01*
X96857655Y-84834314D01*
X96852175Y-84833835D01*
X96847930Y-84833086D01*
X96784318Y-84801558D01*
X96747849Y-84740643D01*
X96750102Y-84669682D01*
X96790362Y-84611205D01*
X96847930Y-84584914D01*
X96852175Y-84584165D01*
X96857655Y-84583686D01*
X96862968Y-84582262D01*
X96862970Y-84582262D01*
X97056600Y-84530379D01*
X97056602Y-84530378D01*
X97061910Y-84528956D01*
X97091972Y-84514938D01*
X97248577Y-84441912D01*
X97248580Y-84441910D01*
X97253558Y-84439589D01*
X97426776Y-84318301D01*
X97576301Y-84168776D01*
X97697589Y-83995558D01*
X97718178Y-83951406D01*
X97784633Y-83808892D01*
X97784634Y-83808891D01*
X97786956Y-83803910D01*
X97841686Y-83599655D01*
X97860116Y-83389000D01*
X97841686Y-83178345D01*
X97819877Y-83096954D01*
X97788379Y-82979400D01*
X97788378Y-82979398D01*
X97786956Y-82974090D01*
X97770937Y-82939737D01*
X97699912Y-82787423D01*
X97699910Y-82787420D01*
X97697589Y-82782442D01*
X97576301Y-82609224D01*
X97426776Y-82459699D01*
X97253558Y-82338411D01*
X97248580Y-82336090D01*
X97248577Y-82336088D01*
X97066892Y-82251367D01*
X97066891Y-82251366D01*
X97061910Y-82249044D01*
X97056602Y-82247622D01*
X97056600Y-82247621D01*
X97030796Y-82240707D01*
X96970173Y-82203755D01*
X96939152Y-82139894D01*
X96947580Y-82069400D01*
X96992783Y-82014653D01*
X97030796Y-81997293D01*
X97056600Y-81990379D01*
X97056602Y-81990378D01*
X97061910Y-81988956D01*
X97084891Y-81978240D01*
X97248577Y-81901912D01*
X97248580Y-81901910D01*
X97253558Y-81899589D01*
X97426776Y-81778301D01*
X97576301Y-81628776D01*
X97697589Y-81455558D01*
X97721820Y-81403596D01*
X97784633Y-81268892D01*
X97784634Y-81268891D01*
X97786956Y-81263910D01*
X97798848Y-81219531D01*
X97837307Y-81076000D01*
X100259884Y-81076000D01*
X100278314Y-81286655D01*
X100279738Y-81291968D01*
X100279738Y-81291970D01*
X100324779Y-81460063D01*
X100333044Y-81490910D01*
X100335366Y-81495891D01*
X100335367Y-81495892D01*
X100419842Y-81677048D01*
X100422411Y-81682558D01*
X100543699Y-81855776D01*
X100693224Y-82005301D01*
X100866442Y-82126589D01*
X100871420Y-82128910D01*
X100871423Y-82128912D01*
X101053108Y-82213633D01*
X101058090Y-82215956D01*
X101063398Y-82217378D01*
X101063400Y-82217379D01*
X101257030Y-82269262D01*
X101257032Y-82269262D01*
X101262345Y-82270686D01*
X101473000Y-82289116D01*
X101683655Y-82270686D01*
X101688968Y-82269262D01*
X101688970Y-82269262D01*
X101882600Y-82217379D01*
X101882602Y-82217378D01*
X101887910Y-82215956D01*
X101892892Y-82213633D01*
X102074577Y-82128912D01*
X102074580Y-82128910D01*
X102079558Y-82126589D01*
X102252776Y-82005301D01*
X102402301Y-81855776D01*
X102523589Y-81682558D01*
X102526159Y-81677048D01*
X102610633Y-81495892D01*
X102610634Y-81495891D01*
X102612956Y-81490910D01*
X102621222Y-81460063D01*
X102666262Y-81291970D01*
X102666262Y-81291968D01*
X102667686Y-81286655D01*
X102686116Y-81076000D01*
X102667686Y-80865345D01*
X102666262Y-80860030D01*
X102614379Y-80666400D01*
X102614378Y-80666398D01*
X102612956Y-80661090D01*
X102602350Y-80638345D01*
X102525912Y-80474423D01*
X102525910Y-80474420D01*
X102523589Y-80469442D01*
X102402301Y-80296224D01*
X102252776Y-80146699D01*
X102079558Y-80025411D01*
X102074580Y-80023090D01*
X102074577Y-80023088D01*
X101892892Y-79938367D01*
X101892891Y-79938366D01*
X101887910Y-79936044D01*
X101882602Y-79934622D01*
X101882600Y-79934621D01*
X101856796Y-79927707D01*
X101796173Y-79890755D01*
X101765152Y-79826894D01*
X101773580Y-79756400D01*
X101818783Y-79701653D01*
X101856796Y-79684293D01*
X101882600Y-79677379D01*
X101882602Y-79677378D01*
X101887910Y-79675956D01*
X101892892Y-79673633D01*
X102074577Y-79588912D01*
X102074580Y-79588910D01*
X102079558Y-79586589D01*
X102252776Y-79465301D01*
X102402301Y-79315776D01*
X102523589Y-79142558D01*
X102526798Y-79135678D01*
X102610633Y-78955892D01*
X102610634Y-78955891D01*
X102612956Y-78950910D01*
X102635001Y-78868639D01*
X102666262Y-78751970D01*
X102666262Y-78751968D01*
X102667686Y-78746655D01*
X102686116Y-78536000D01*
X102667686Y-78325345D01*
X102635976Y-78207000D01*
X102614379Y-78126400D01*
X102614378Y-78126398D01*
X102612956Y-78121090D01*
X102564397Y-78016954D01*
X102525912Y-77934423D01*
X102525910Y-77934420D01*
X102523589Y-77929442D01*
X102402301Y-77756224D01*
X102252776Y-77606699D01*
X102079558Y-77485411D01*
X102074580Y-77483090D01*
X102074577Y-77483088D01*
X101892892Y-77398367D01*
X101892891Y-77398366D01*
X101887910Y-77396044D01*
X101882602Y-77394622D01*
X101882600Y-77394621D01*
X101688970Y-77342738D01*
X101688968Y-77342738D01*
X101683655Y-77341314D01*
X101678175Y-77340835D01*
X101673930Y-77340086D01*
X101610318Y-77308558D01*
X101573849Y-77247643D01*
X101576102Y-77176682D01*
X101616362Y-77118205D01*
X101673930Y-77091914D01*
X101678175Y-77091165D01*
X101683655Y-77090686D01*
X101688968Y-77089262D01*
X101688970Y-77089262D01*
X101882600Y-77037379D01*
X101882602Y-77037378D01*
X101887910Y-77035956D01*
X101892892Y-77033633D01*
X102074577Y-76948912D01*
X102074580Y-76948910D01*
X102079558Y-76946589D01*
X102252776Y-76825301D01*
X102402301Y-76675776D01*
X102523589Y-76502558D01*
X102587318Y-76365892D01*
X102610633Y-76315892D01*
X102610634Y-76315891D01*
X102612956Y-76310910D01*
X102652865Y-76161970D01*
X102666262Y-76111970D01*
X102666262Y-76111968D01*
X102667686Y-76106655D01*
X102686116Y-75896000D01*
X102667686Y-75685345D01*
X102662387Y-75665570D01*
X102614379Y-75486400D01*
X102614378Y-75486398D01*
X102612956Y-75481090D01*
X102598601Y-75450305D01*
X102525912Y-75294423D01*
X102525910Y-75294420D01*
X102523589Y-75289442D01*
X102402301Y-75116224D01*
X102252776Y-74966699D01*
X102079558Y-74845411D01*
X102074580Y-74843090D01*
X102074577Y-74843088D01*
X101892892Y-74758367D01*
X101892891Y-74758366D01*
X101887910Y-74756044D01*
X101882602Y-74754622D01*
X101882600Y-74754621D01*
X101856796Y-74747707D01*
X101796173Y-74710755D01*
X101765152Y-74646894D01*
X101773580Y-74576400D01*
X101818783Y-74521653D01*
X101856796Y-74504293D01*
X101882600Y-74497379D01*
X101882602Y-74497378D01*
X101887910Y-74495956D01*
X101892892Y-74493633D01*
X102074577Y-74408912D01*
X102074580Y-74408910D01*
X102079558Y-74406589D01*
X102252776Y-74285301D01*
X102402301Y-74135776D01*
X102523589Y-73962558D01*
X102587318Y-73825892D01*
X102610633Y-73775892D01*
X102610634Y-73775891D01*
X102612956Y-73770910D01*
X102652865Y-73621970D01*
X102666262Y-73571970D01*
X102666262Y-73571968D01*
X102667686Y-73566655D01*
X102686116Y-73356000D01*
X102667686Y-73145345D01*
X102662387Y-73125570D01*
X102614379Y-72946400D01*
X102614378Y-72946398D01*
X102612956Y-72941090D01*
X102598601Y-72910305D01*
X102525912Y-72754423D01*
X102525910Y-72754420D01*
X102523589Y-72749442D01*
X102402301Y-72576224D01*
X102252776Y-72426699D01*
X102079558Y-72305411D01*
X102074580Y-72303090D01*
X102074577Y-72303088D01*
X101892892Y-72218367D01*
X101892891Y-72218366D01*
X101887910Y-72216044D01*
X101882602Y-72214622D01*
X101882600Y-72214621D01*
X101688970Y-72162738D01*
X101688968Y-72162738D01*
X101683655Y-72161314D01*
X101473000Y-72142884D01*
X101262345Y-72161314D01*
X101257032Y-72162738D01*
X101257030Y-72162738D01*
X101063400Y-72214621D01*
X101063398Y-72214622D01*
X101058090Y-72216044D01*
X101053109Y-72218366D01*
X101053108Y-72218367D01*
X100871423Y-72303088D01*
X100871420Y-72303090D01*
X100866442Y-72305411D01*
X100693224Y-72426699D01*
X100543699Y-72576224D01*
X100422411Y-72749442D01*
X100420090Y-72754420D01*
X100420088Y-72754423D01*
X100347399Y-72910305D01*
X100333044Y-72941090D01*
X100331622Y-72946398D01*
X100331621Y-72946400D01*
X100283613Y-73125570D01*
X100278314Y-73145345D01*
X100259884Y-73356000D01*
X100278314Y-73566655D01*
X100279738Y-73571968D01*
X100279738Y-73571970D01*
X100293136Y-73621970D01*
X100333044Y-73770910D01*
X100335366Y-73775891D01*
X100335367Y-73775892D01*
X100358683Y-73825892D01*
X100422411Y-73962558D01*
X100543699Y-74135776D01*
X100693224Y-74285301D01*
X100866442Y-74406589D01*
X100871420Y-74408910D01*
X100871423Y-74408912D01*
X101053108Y-74493633D01*
X101058090Y-74495956D01*
X101063398Y-74497378D01*
X101063400Y-74497379D01*
X101089204Y-74504293D01*
X101149827Y-74541245D01*
X101180848Y-74605106D01*
X101172420Y-74675600D01*
X101127217Y-74730347D01*
X101089204Y-74747707D01*
X101063400Y-74754621D01*
X101063398Y-74754622D01*
X101058090Y-74756044D01*
X101053109Y-74758366D01*
X101053108Y-74758367D01*
X100871423Y-74843088D01*
X100871420Y-74843090D01*
X100866442Y-74845411D01*
X100693224Y-74966699D01*
X100543699Y-75116224D01*
X100422411Y-75289442D01*
X100420090Y-75294420D01*
X100420088Y-75294423D01*
X100347399Y-75450305D01*
X100333044Y-75481090D01*
X100331622Y-75486398D01*
X100331621Y-75486400D01*
X100283613Y-75665570D01*
X100278314Y-75685345D01*
X100259884Y-75896000D01*
X100278314Y-76106655D01*
X100279738Y-76111968D01*
X100279738Y-76111970D01*
X100293136Y-76161970D01*
X100333044Y-76310910D01*
X100335366Y-76315891D01*
X100335367Y-76315892D01*
X100358683Y-76365892D01*
X100422411Y-76502558D01*
X100543699Y-76675776D01*
X100693224Y-76825301D01*
X100866442Y-76946589D01*
X100871420Y-76948910D01*
X100871423Y-76948912D01*
X101053108Y-77033633D01*
X101058090Y-77035956D01*
X101063398Y-77037378D01*
X101063400Y-77037379D01*
X101257030Y-77089262D01*
X101257032Y-77089262D01*
X101262345Y-77090686D01*
X101267825Y-77091165D01*
X101272070Y-77091914D01*
X101335682Y-77123442D01*
X101372151Y-77184357D01*
X101369898Y-77255318D01*
X101329638Y-77313795D01*
X101272070Y-77340086D01*
X101267825Y-77340835D01*
X101262345Y-77341314D01*
X101257032Y-77342738D01*
X101257030Y-77342738D01*
X101063400Y-77394621D01*
X101063398Y-77394622D01*
X101058090Y-77396044D01*
X101053109Y-77398366D01*
X101053108Y-77398367D01*
X100871423Y-77483088D01*
X100871420Y-77483090D01*
X100866442Y-77485411D01*
X100693224Y-77606699D01*
X100543699Y-77756224D01*
X100422411Y-77929442D01*
X100420090Y-77934420D01*
X100420088Y-77934423D01*
X100381603Y-78016954D01*
X100333044Y-78121090D01*
X100331622Y-78126398D01*
X100331621Y-78126400D01*
X100310024Y-78207000D01*
X100278314Y-78325345D01*
X100259884Y-78536000D01*
X100278314Y-78746655D01*
X100279738Y-78751968D01*
X100279738Y-78751970D01*
X100311000Y-78868639D01*
X100333044Y-78950910D01*
X100335366Y-78955891D01*
X100335367Y-78955892D01*
X100419203Y-79135678D01*
X100422411Y-79142558D01*
X100543699Y-79315776D01*
X100693224Y-79465301D01*
X100866442Y-79586589D01*
X100871420Y-79588910D01*
X100871423Y-79588912D01*
X101053108Y-79673633D01*
X101058090Y-79675956D01*
X101063398Y-79677378D01*
X101063400Y-79677379D01*
X101089204Y-79684293D01*
X101149827Y-79721245D01*
X101180848Y-79785106D01*
X101172420Y-79855600D01*
X101127217Y-79910347D01*
X101089204Y-79927707D01*
X101063400Y-79934621D01*
X101063398Y-79934622D01*
X101058090Y-79936044D01*
X101053109Y-79938366D01*
X101053108Y-79938367D01*
X100871423Y-80023088D01*
X100871420Y-80023090D01*
X100866442Y-80025411D01*
X100693224Y-80146699D01*
X100543699Y-80296224D01*
X100422411Y-80469442D01*
X100420090Y-80474420D01*
X100420088Y-80474423D01*
X100343650Y-80638345D01*
X100333044Y-80661090D01*
X100331622Y-80666398D01*
X100331621Y-80666400D01*
X100279738Y-80860030D01*
X100278314Y-80865345D01*
X100259884Y-81076000D01*
X97837307Y-81076000D01*
X97840262Y-81064970D01*
X97840262Y-81064968D01*
X97841686Y-81059655D01*
X97860116Y-80849000D01*
X97841686Y-80638345D01*
X97819877Y-80556954D01*
X97788379Y-80439400D01*
X97788378Y-80439398D01*
X97786956Y-80434090D01*
X97750934Y-80356840D01*
X97699912Y-80247423D01*
X97699910Y-80247420D01*
X97697589Y-80242442D01*
X97576301Y-80069224D01*
X97426776Y-79919699D01*
X97253558Y-79798411D01*
X97248580Y-79796090D01*
X97248577Y-79796088D01*
X97066892Y-79711367D01*
X97066891Y-79711366D01*
X97061910Y-79709044D01*
X97056602Y-79707622D01*
X97056600Y-79707621D01*
X96862970Y-79655738D01*
X96862968Y-79655738D01*
X96857655Y-79654314D01*
X96647000Y-79635884D01*
X96436345Y-79654314D01*
X96431032Y-79655738D01*
X96431030Y-79655738D01*
X96237400Y-79707621D01*
X96237398Y-79707622D01*
X96232090Y-79709044D01*
X96227109Y-79711366D01*
X96227108Y-79711367D01*
X96045423Y-79796088D01*
X96045420Y-79796090D01*
X96040442Y-79798411D01*
X95867224Y-79919699D01*
X95717699Y-80069224D01*
X95596411Y-80242442D01*
X95594090Y-80247420D01*
X95594088Y-80247423D01*
X95543066Y-80356840D01*
X95507044Y-80434090D01*
X95505622Y-80439398D01*
X95505621Y-80439400D01*
X95474123Y-80556954D01*
X95452314Y-80638345D01*
X95433884Y-80849000D01*
X95452314Y-81059655D01*
X95453738Y-81064968D01*
X95453738Y-81064970D01*
X95495153Y-81219531D01*
X95507044Y-81263910D01*
X95509366Y-81268891D01*
X95509367Y-81268892D01*
X95572181Y-81403596D01*
X95596411Y-81455558D01*
X95717699Y-81628776D01*
X95867224Y-81778301D01*
X96040442Y-81899589D01*
X96045420Y-81901910D01*
X96045423Y-81901912D01*
X96209109Y-81978240D01*
X96232090Y-81988956D01*
X96237398Y-81990378D01*
X96237400Y-81990379D01*
X96263204Y-81997293D01*
X96323827Y-82034245D01*
X96354848Y-82098106D01*
X96346420Y-82168600D01*
X96301217Y-82223347D01*
X96263204Y-82240707D01*
X96237400Y-82247621D01*
X96237398Y-82247622D01*
X96232090Y-82249044D01*
X96227109Y-82251366D01*
X96227108Y-82251367D01*
X96045423Y-82336088D01*
X96045420Y-82336090D01*
X96040442Y-82338411D01*
X95867224Y-82459699D01*
X95717699Y-82609224D01*
X95596411Y-82782442D01*
X95594090Y-82787420D01*
X95594088Y-82787423D01*
X95523063Y-82939737D01*
X95507044Y-82974090D01*
X95505622Y-82979398D01*
X95505621Y-82979400D01*
X95474123Y-83096954D01*
X95452314Y-83178345D01*
X95433884Y-83389000D01*
X95452314Y-83599655D01*
X95507044Y-83803910D01*
X95509366Y-83808891D01*
X95509367Y-83808892D01*
X95575823Y-83951406D01*
X95596411Y-83995558D01*
X95717699Y-84168776D01*
X95867224Y-84318301D01*
X96040442Y-84439589D01*
X96045420Y-84441910D01*
X96045423Y-84441912D01*
X96202028Y-84514938D01*
X96232090Y-84528956D01*
X96237398Y-84530378D01*
X96237400Y-84530379D01*
X96431030Y-84582262D01*
X96431032Y-84582262D01*
X96436345Y-84583686D01*
X96441825Y-84584165D01*
X96446070Y-84584914D01*
X96509682Y-84616442D01*
X96546151Y-84677357D01*
X96543898Y-84748318D01*
X96503638Y-84806795D01*
X96446070Y-84833086D01*
X96441825Y-84833835D01*
X96436345Y-84834314D01*
X96431032Y-84835738D01*
X96431030Y-84835738D01*
X96237400Y-84887621D01*
X96237398Y-84887622D01*
X96232090Y-84889044D01*
X96227109Y-84891366D01*
X96227108Y-84891367D01*
X96045423Y-84976088D01*
X96045420Y-84976090D01*
X96040442Y-84978411D01*
X95867224Y-85099699D01*
X95717699Y-85249224D01*
X95596411Y-85422442D01*
X95594090Y-85427420D01*
X95594088Y-85427423D01*
X95591118Y-85433792D01*
X95507044Y-85614090D01*
X95505622Y-85619398D01*
X95505621Y-85619400D01*
X95499645Y-85641702D01*
X95452314Y-85818345D01*
X95433884Y-86029000D01*
X95452314Y-86239655D01*
X95453738Y-86244968D01*
X95453738Y-86244970D01*
X95491137Y-86384543D01*
X95507044Y-86443910D01*
X95509366Y-86448891D01*
X95509367Y-86448892D01*
X95571815Y-86582811D01*
X95596411Y-86635558D01*
X95717699Y-86808776D01*
X95867224Y-86958301D01*
X96040442Y-87079589D01*
X96045420Y-87081910D01*
X96045423Y-87081912D01*
X96227108Y-87166633D01*
X96232090Y-87168956D01*
X96237398Y-87170378D01*
X96237400Y-87170379D01*
X96263204Y-87177293D01*
X96323827Y-87214245D01*
X96354848Y-87278106D01*
X96346420Y-87348600D01*
X96301217Y-87403347D01*
X96263204Y-87420707D01*
X96237400Y-87427621D01*
X96237398Y-87427622D01*
X96232090Y-87429044D01*
X96227109Y-87431366D01*
X96227108Y-87431367D01*
X96045423Y-87516088D01*
X96045420Y-87516090D01*
X96040442Y-87518411D01*
X95867224Y-87639699D01*
X95717699Y-87789224D01*
X95596411Y-87962442D01*
X95594090Y-87967420D01*
X95594088Y-87967423D01*
X95591118Y-87973792D01*
X95507044Y-88154090D01*
X95505622Y-88159398D01*
X95505621Y-88159400D01*
X95499645Y-88181702D01*
X95452314Y-88358345D01*
X95433884Y-88569000D01*
X93580881Y-88569000D01*
X93566852Y-88398361D01*
X93512431Y-88181702D01*
X93423354Y-87976840D01*
X93302014Y-87789277D01*
X93151670Y-87624051D01*
X93147619Y-87620852D01*
X93147615Y-87620848D01*
X92980414Y-87488800D01*
X92980410Y-87488798D01*
X92976359Y-87485598D01*
X92935053Y-87462796D01*
X92885084Y-87412364D01*
X92870312Y-87342921D01*
X92895428Y-87276516D01*
X92922780Y-87249909D01*
X92972779Y-87214245D01*
X93101860Y-87122173D01*
X93260096Y-86964489D01*
X93319594Y-86881689D01*
X93387435Y-86787277D01*
X93390453Y-86783077D01*
X93411320Y-86740857D01*
X93487136Y-86587453D01*
X93487137Y-86587451D01*
X93489430Y-86582811D01*
X93531309Y-86444971D01*
X93552865Y-86374023D01*
X93552865Y-86374021D01*
X93554370Y-86369069D01*
X93583529Y-86147590D01*
X93585156Y-86081000D01*
X93566852Y-85858361D01*
X93512431Y-85641702D01*
X93423354Y-85436840D01*
X93302014Y-85249277D01*
X93151670Y-85084051D01*
X93147619Y-85080852D01*
X93147615Y-85080848D01*
X92980414Y-84948800D01*
X92980410Y-84948798D01*
X92976359Y-84945598D01*
X92935053Y-84922796D01*
X92885084Y-84872364D01*
X92870312Y-84802921D01*
X92895428Y-84736516D01*
X92922780Y-84709909D01*
X92979176Y-84669682D01*
X93101860Y-84582173D01*
X93119749Y-84564347D01*
X93256435Y-84428137D01*
X93260096Y-84424489D01*
X93279227Y-84397866D01*
X93387435Y-84247277D01*
X93390453Y-84243077D01*
X93395855Y-84232148D01*
X93487136Y-84047453D01*
X93487137Y-84047451D01*
X93489430Y-84042811D01*
X93554370Y-83829069D01*
X93583529Y-83607590D01*
X93585156Y-83541000D01*
X93566852Y-83318361D01*
X93512431Y-83101702D01*
X93423354Y-82896840D01*
X93368669Y-82812310D01*
X93304822Y-82713617D01*
X93304820Y-82713614D01*
X93302014Y-82709277D01*
X93151670Y-82544051D01*
X93147619Y-82540852D01*
X93147615Y-82540848D01*
X92980414Y-82408800D01*
X92980410Y-82408798D01*
X92976359Y-82405598D01*
X92935053Y-82382796D01*
X92885084Y-82332364D01*
X92870312Y-82262921D01*
X92895428Y-82196516D01*
X92922780Y-82169909D01*
X92983512Y-82126589D01*
X93101860Y-82042173D01*
X93129477Y-82014653D01*
X93256435Y-81888137D01*
X93260096Y-81884489D01*
X93277930Y-81859671D01*
X93387435Y-81707277D01*
X93390453Y-81703077D01*
X93403318Y-81677048D01*
X93487136Y-81507453D01*
X93487137Y-81507451D01*
X93489430Y-81502811D01*
X93554370Y-81289069D01*
X93583529Y-81067590D01*
X93585156Y-81001000D01*
X93566852Y-80778361D01*
X93512431Y-80561702D01*
X93423354Y-80356840D01*
X93302014Y-80169277D01*
X93151670Y-80004051D01*
X93147619Y-80000852D01*
X93147615Y-80000848D01*
X92980414Y-79868800D01*
X92980410Y-79868798D01*
X92976359Y-79865598D01*
X92935053Y-79842796D01*
X92885084Y-79792364D01*
X92870312Y-79722921D01*
X92895428Y-79656516D01*
X92922780Y-79629909D01*
X92983512Y-79586589D01*
X93101860Y-79502173D01*
X93124906Y-79479208D01*
X93239110Y-79365402D01*
X93260096Y-79344489D01*
X93277930Y-79319671D01*
X93387435Y-79167277D01*
X93390453Y-79163077D01*
X93403995Y-79135678D01*
X93487136Y-78967453D01*
X93487137Y-78967451D01*
X93489430Y-78962811D01*
X93554370Y-78749069D01*
X93583529Y-78527590D01*
X93585156Y-78461000D01*
X93566852Y-78238361D01*
X93512431Y-78021702D01*
X93423354Y-77816840D01*
X93302014Y-77629277D01*
X93151670Y-77464051D01*
X93147619Y-77460852D01*
X93147615Y-77460848D01*
X92980414Y-77328800D01*
X92980410Y-77328798D01*
X92976359Y-77325598D01*
X92935053Y-77302796D01*
X92885084Y-77252364D01*
X92870312Y-77182921D01*
X92895428Y-77116516D01*
X92922780Y-77089909D01*
X92966603Y-77058650D01*
X93101860Y-76962173D01*
X93115168Y-76948912D01*
X93256435Y-76808137D01*
X93260096Y-76804489D01*
X93319594Y-76721689D01*
X93387435Y-76627277D01*
X93390453Y-76623077D01*
X93411320Y-76580857D01*
X93487136Y-76427453D01*
X93487137Y-76427451D01*
X93489430Y-76422811D01*
X93554370Y-76209069D01*
X93583529Y-75987590D01*
X93583611Y-75984240D01*
X93585074Y-75924365D01*
X93585074Y-75924361D01*
X93585156Y-75921000D01*
X93566852Y-75698361D01*
X93512431Y-75481702D01*
X93423354Y-75276840D01*
X93351793Y-75166224D01*
X93304822Y-75093617D01*
X93304820Y-75093614D01*
X93302014Y-75089277D01*
X93151670Y-74924051D01*
X93147619Y-74920852D01*
X93147615Y-74920848D01*
X92980414Y-74788800D01*
X92980410Y-74788798D01*
X92976359Y-74785598D01*
X92935053Y-74762796D01*
X92885084Y-74712364D01*
X92870312Y-74642921D01*
X92895428Y-74576516D01*
X92922780Y-74549909D01*
X92986731Y-74504293D01*
X93101860Y-74422173D01*
X93115168Y-74408912D01*
X93256435Y-74268137D01*
X93260096Y-74264489D01*
X93319594Y-74181689D01*
X93387435Y-74087277D01*
X93390453Y-74083077D01*
X93411320Y-74040857D01*
X93487136Y-73887453D01*
X93487137Y-73887451D01*
X93489430Y-73882811D01*
X93554370Y-73669069D01*
X93583529Y-73447590D01*
X93583611Y-73444240D01*
X93585074Y-73384365D01*
X93585074Y-73384361D01*
X93585156Y-73381000D01*
X93566852Y-73158361D01*
X93512431Y-72941702D01*
X93423354Y-72736840D01*
X93351793Y-72626224D01*
X93304822Y-72553617D01*
X93304820Y-72553614D01*
X93302014Y-72549277D01*
X93151670Y-72384051D01*
X93147619Y-72380852D01*
X93147615Y-72380848D01*
X92980414Y-72248800D01*
X92980410Y-72248798D01*
X92976359Y-72245598D01*
X92780789Y-72137638D01*
X92775920Y-72135914D01*
X92775916Y-72135912D01*
X92575087Y-72064795D01*
X92575083Y-72064794D01*
X92570212Y-72063069D01*
X92565119Y-72062162D01*
X92565116Y-72062161D01*
X92355373Y-72024800D01*
X92355367Y-72024799D01*
X92350284Y-72023894D01*
X92276452Y-72022992D01*
X92132081Y-72021228D01*
X92132079Y-72021228D01*
X92126911Y-72021165D01*
X91906091Y-72054955D01*
X91693756Y-72124357D01*
X91663443Y-72140137D01*
X91527634Y-72210835D01*
X91495607Y-72227507D01*
X91491474Y-72230610D01*
X91491471Y-72230612D01*
X91321100Y-72358530D01*
X91316965Y-72361635D01*
X91162629Y-72523138D01*
X91055201Y-72680621D01*
X91000293Y-72725621D01*
X90929768Y-72733792D01*
X90866021Y-72702538D01*
X90845324Y-72678054D01*
X90764822Y-72553617D01*
X90764820Y-72553614D01*
X90762014Y-72549277D01*
X90611670Y-72384051D01*
X90607619Y-72380852D01*
X90607615Y-72380848D01*
X90440414Y-72248800D01*
X90440410Y-72248798D01*
X90436359Y-72245598D01*
X90240789Y-72137638D01*
X90235920Y-72135914D01*
X90235916Y-72135912D01*
X90035087Y-72064795D01*
X90035083Y-72064794D01*
X90030212Y-72063069D01*
X90025119Y-72062162D01*
X90025116Y-72062161D01*
X89815373Y-72024800D01*
X89815367Y-72024799D01*
X89810284Y-72023894D01*
X89736452Y-72022992D01*
X89592081Y-72021228D01*
X89592079Y-72021228D01*
X89586911Y-72021165D01*
X89366091Y-72054955D01*
X89153756Y-72124357D01*
X89123443Y-72140137D01*
X88987634Y-72210835D01*
X88955607Y-72227507D01*
X88951474Y-72230610D01*
X88951471Y-72230612D01*
X88781100Y-72358530D01*
X88776965Y-72361635D01*
X88622629Y-72523138D01*
X88619720Y-72527403D01*
X88619714Y-72527411D01*
X88549231Y-72630736D01*
X88496743Y-72707680D01*
X88402688Y-72910305D01*
X88342989Y-73125570D01*
X88319251Y-73347695D01*
X88319548Y-73352848D01*
X88319548Y-73352851D01*
X88325011Y-73447590D01*
X88332110Y-73570715D01*
X88333247Y-73575761D01*
X88333248Y-73575767D01*
X88341228Y-73611175D01*
X88381222Y-73788639D01*
X88465266Y-73995616D01*
X88516019Y-74078438D01*
X88579291Y-74181688D01*
X88581987Y-74186088D01*
X88728250Y-74354938D01*
X88900126Y-74497632D01*
X88911525Y-74504293D01*
X88973445Y-74540476D01*
X89022169Y-74592114D01*
X89035240Y-74661897D01*
X89008509Y-74727669D01*
X88968055Y-74761027D01*
X88955607Y-74767507D01*
X88951474Y-74770610D01*
X88951471Y-74770612D01*
X88781100Y-74898530D01*
X88776965Y-74901635D01*
X88622629Y-75063138D01*
X88619720Y-75067403D01*
X88619714Y-75067411D01*
X88549231Y-75170736D01*
X88496743Y-75247680D01*
X88402688Y-75450305D01*
X88342989Y-75665570D01*
X88319251Y-75887695D01*
X88319548Y-75892848D01*
X88319548Y-75892851D01*
X88325011Y-75987590D01*
X88332110Y-76110715D01*
X88333247Y-76115761D01*
X88333248Y-76115767D01*
X88341228Y-76151175D01*
X88381222Y-76328639D01*
X88465266Y-76535616D01*
X88516019Y-76618438D01*
X88579291Y-76721688D01*
X88581987Y-76726088D01*
X88728250Y-76894938D01*
X88900126Y-77037632D01*
X88973445Y-77080476D01*
X88973955Y-77080774D01*
X89022679Y-77132412D01*
X89035750Y-77202195D01*
X89009019Y-77267967D01*
X88968562Y-77301327D01*
X88960457Y-77305546D01*
X88951738Y-77311036D01*
X88781433Y-77438905D01*
X88773726Y-77445748D01*
X88626590Y-77599717D01*
X88620104Y-77607727D01*
X88500098Y-77783649D01*
X88495000Y-77792623D01*
X88405338Y-77985783D01*
X88401775Y-77995470D01*
X88346389Y-78195183D01*
X88347912Y-78203607D01*
X88360292Y-78207000D01*
X89810000Y-78207000D01*
X89878121Y-78227002D01*
X89924614Y-78280658D01*
X89936000Y-78333000D01*
X89936000Y-78589000D01*
X89915998Y-78657121D01*
X89862342Y-78703614D01*
X89810000Y-78715000D01*
X88365225Y-78715000D01*
X88351694Y-78718973D01*
X88350257Y-78728966D01*
X88380565Y-78863446D01*
X88383645Y-78873275D01*
X88463770Y-79070603D01*
X88468413Y-79079794D01*
X88579694Y-79261388D01*
X88585777Y-79269699D01*
X88725213Y-79430667D01*
X88732580Y-79437883D01*
X88896434Y-79573916D01*
X88904881Y-79579831D01*
X88973969Y-79620203D01*
X89022693Y-79671842D01*
X89035764Y-79741625D01*
X89009033Y-79807396D01*
X88968584Y-79840752D01*
X88955607Y-79847507D01*
X88951474Y-79850610D01*
X88951471Y-79850612D01*
X88781100Y-79978530D01*
X88776965Y-79981635D01*
X88622629Y-80143138D01*
X88619720Y-80147403D01*
X88619714Y-80147411D01*
X88554888Y-80242442D01*
X88496743Y-80327680D01*
X88481003Y-80361590D01*
X88408400Y-80518000D01*
X88402688Y-80530305D01*
X88342989Y-80745570D01*
X88319251Y-80967695D01*
X88319548Y-80972848D01*
X88319548Y-80972851D01*
X88326864Y-81099731D01*
X88332110Y-81190715D01*
X88333247Y-81195761D01*
X88333248Y-81195767D01*
X88350791Y-81273609D01*
X88381222Y-81408639D01*
X88465266Y-81615616D01*
X88503236Y-81677577D01*
X88579291Y-81801688D01*
X88581987Y-81806088D01*
X88728250Y-81974938D01*
X88900126Y-82117632D01*
X88938223Y-82139894D01*
X88973445Y-82160476D01*
X89022169Y-82212114D01*
X89035240Y-82281897D01*
X89008509Y-82347669D01*
X88968055Y-82381027D01*
X88955607Y-82387507D01*
X88951474Y-82390610D01*
X88951471Y-82390612D01*
X88859456Y-82459699D01*
X88776965Y-82521635D01*
X88622629Y-82683138D01*
X88619720Y-82687403D01*
X88619714Y-82687411D01*
X88554888Y-82782442D01*
X88496743Y-82867680D01*
X88481003Y-82901590D01*
X88444885Y-82979400D01*
X88402688Y-83070305D01*
X88342989Y-83285570D01*
X88319251Y-83507695D01*
X88319548Y-83512848D01*
X88319548Y-83512851D01*
X88324860Y-83604970D01*
X88332110Y-83730715D01*
X88333247Y-83735761D01*
X88333248Y-83735767D01*
X88347409Y-83798600D01*
X88381222Y-83948639D01*
X88465266Y-84155616D01*
X88507841Y-84225092D01*
X88579291Y-84341688D01*
X88581987Y-84346088D01*
X88728250Y-84514938D01*
X88900126Y-84657632D01*
X88970595Y-84698811D01*
X88973445Y-84700476D01*
X89022169Y-84752114D01*
X89035240Y-84821897D01*
X89008509Y-84887669D01*
X88968055Y-84921027D01*
X88955607Y-84927507D01*
X88951474Y-84930610D01*
X88951471Y-84930612D01*
X88781100Y-85058530D01*
X88776965Y-85061635D01*
X88622629Y-85223138D01*
X88496743Y-85407680D01*
X88402688Y-85610305D01*
X88342989Y-85825570D01*
X88319251Y-86047695D01*
X88319548Y-86052848D01*
X88319548Y-86052851D01*
X88327127Y-86184297D01*
X88332110Y-86270715D01*
X88333247Y-86275761D01*
X88333248Y-86275767D01*
X88353119Y-86363939D01*
X88381222Y-86488639D01*
X88465266Y-86695616D01*
X88516019Y-86778438D01*
X88579291Y-86881688D01*
X88581987Y-86886088D01*
X88728250Y-87054938D01*
X88900126Y-87197632D01*
X88928556Y-87214245D01*
X88973445Y-87240476D01*
X89022169Y-87292114D01*
X89035240Y-87361897D01*
X89008509Y-87427669D01*
X88968055Y-87461027D01*
X88955607Y-87467507D01*
X88951474Y-87470610D01*
X88951471Y-87470612D01*
X88927247Y-87488800D01*
X88776965Y-87601635D01*
X88622629Y-87763138D01*
X88496743Y-87947680D01*
X88402688Y-88150305D01*
X88342989Y-88365570D01*
X88319251Y-88587695D01*
X88319548Y-88592848D01*
X88319548Y-88592851D01*
X88325011Y-88687590D01*
X88332110Y-88810715D01*
X88333247Y-88815761D01*
X88333248Y-88815767D01*
X88353119Y-88903939D01*
X88381222Y-89028639D01*
X88465266Y-89235616D01*
X88516019Y-89318438D01*
X88579291Y-89421688D01*
X88581987Y-89426088D01*
X88728250Y-89594938D01*
X88900126Y-89737632D01*
X88944712Y-89763686D01*
X88973445Y-89780476D01*
X89022169Y-89832114D01*
X89035240Y-89901897D01*
X89008509Y-89967669D01*
X88968055Y-90001027D01*
X88955607Y-90007507D01*
X88951474Y-90010610D01*
X88951471Y-90010612D01*
X88927247Y-90028800D01*
X88776965Y-90141635D01*
X88622629Y-90303138D01*
X88496743Y-90487680D01*
X88402688Y-90690305D01*
X88342989Y-90905570D01*
X88319251Y-91127695D01*
X88319548Y-91132848D01*
X88319548Y-91132851D01*
X88324869Y-91225138D01*
X88332110Y-91350715D01*
X88333247Y-91355761D01*
X88333248Y-91355767D01*
X88339961Y-91385553D01*
X88381222Y-91568639D01*
X88442673Y-91719976D01*
X88452293Y-91743666D01*
X88465266Y-91775616D01*
X88504293Y-91839302D01*
X88579291Y-91961688D01*
X88581987Y-91966088D01*
X88728250Y-92134938D01*
X88900126Y-92277632D01*
X88912379Y-92284792D01*
X88973445Y-92320476D01*
X89022169Y-92372114D01*
X89035240Y-92441897D01*
X89008509Y-92507669D01*
X88968055Y-92541027D01*
X88955607Y-92547507D01*
X88951474Y-92550610D01*
X88951471Y-92550612D01*
X88781100Y-92678530D01*
X88776965Y-92681635D01*
X88622629Y-92843138D01*
X88496743Y-93027680D01*
X88402688Y-93230305D01*
X88342989Y-93445570D01*
X88319251Y-93667695D01*
X88319548Y-93672848D01*
X88319548Y-93672851D01*
X88331812Y-93885547D01*
X88332110Y-93890715D01*
X88333247Y-93895761D01*
X88333248Y-93895767D01*
X88353119Y-93983939D01*
X88381222Y-94108639D01*
X88418077Y-94199402D01*
X88459476Y-94301356D01*
X88465266Y-94315616D01*
X88516019Y-94398438D01*
X88579291Y-94501688D01*
X88581987Y-94506088D01*
X88728250Y-94674938D01*
X88900126Y-94817632D01*
X88931734Y-94836102D01*
X88973445Y-94860476D01*
X89022169Y-94912114D01*
X89035240Y-94981897D01*
X89008509Y-95047669D01*
X88968055Y-95081027D01*
X88955607Y-95087507D01*
X88951474Y-95090610D01*
X88951471Y-95090612D01*
X88802513Y-95202453D01*
X88776965Y-95221635D01*
X88773393Y-95225373D01*
X88697321Y-95304978D01*
X88622629Y-95383138D01*
X88496743Y-95567680D01*
X88460482Y-95645799D01*
X88410714Y-95753015D01*
X88402688Y-95770305D01*
X88342989Y-95985570D01*
X88319251Y-96207695D01*
X88332110Y-96430715D01*
X88333247Y-96435761D01*
X88333248Y-96435767D01*
X88352908Y-96523001D01*
X88381222Y-96648639D01*
X88465266Y-96855616D01*
X88502072Y-96915678D01*
X88566518Y-97020844D01*
X88581987Y-97046088D01*
X88728250Y-97214938D01*
X88900126Y-97357632D01*
X88961529Y-97393513D01*
X88973445Y-97400476D01*
X89022169Y-97452114D01*
X89035240Y-97521897D01*
X89008509Y-97587669D01*
X88968055Y-97621027D01*
X88955607Y-97627507D01*
X88951474Y-97630610D01*
X88951471Y-97630612D01*
X88868450Y-97692946D01*
X88776965Y-97761635D01*
X88622629Y-97923138D01*
X88619715Y-97927410D01*
X88619714Y-97927411D01*
X88604798Y-97949277D01*
X88496743Y-98107680D01*
X88480990Y-98141617D01*
X88409678Y-98295247D01*
X88402688Y-98310305D01*
X88342989Y-98525570D01*
X88319251Y-98747695D01*
X42563334Y-98747695D01*
X42492355Y-98482798D01*
X42489613Y-98469898D01*
X42437618Y-98141617D01*
X42436240Y-98128501D01*
X42429287Y-97995836D01*
X42420932Y-97836413D01*
X42422506Y-97808910D01*
X42422770Y-97807341D01*
X42423576Y-97802552D01*
X42423729Y-97790000D01*
X42419773Y-97762376D01*
X42418500Y-97744514D01*
X42418500Y-96700134D01*
X48848500Y-96700134D01*
X48855255Y-96762316D01*
X48906385Y-96898705D01*
X48993739Y-97015261D01*
X49110295Y-97102615D01*
X49246684Y-97153745D01*
X49308866Y-97160500D01*
X51355134Y-97160500D01*
X51417316Y-97153745D01*
X51553705Y-97102615D01*
X51670261Y-97015261D01*
X51757615Y-96898705D01*
X51759520Y-96893624D01*
X54480621Y-96893624D01*
X54484988Y-96899774D01*
X54684563Y-97016397D01*
X54693846Y-97020844D01*
X54912007Y-97104152D01*
X54921905Y-97107028D01*
X55150744Y-97153585D01*
X55160972Y-97154804D01*
X55394340Y-97163362D01*
X55404626Y-97162895D01*
X55636262Y-97133222D01*
X55646340Y-97131080D01*
X55870014Y-97063974D01*
X55879612Y-97060212D01*
X56089324Y-96957476D01*
X56098169Y-96952203D01*
X56170869Y-96900347D01*
X56179270Y-96889646D01*
X56172283Y-96876493D01*
X55344812Y-96049022D01*
X55330868Y-96041408D01*
X55329035Y-96041539D01*
X55322420Y-96045790D01*
X54487881Y-96880329D01*
X54480621Y-96893624D01*
X51759520Y-96893624D01*
X51808745Y-96762316D01*
X51815500Y-96700134D01*
X51815500Y-95645799D01*
X53844658Y-95645799D01*
X53858102Y-95878942D01*
X53859535Y-95889144D01*
X53910873Y-96116949D01*
X53913956Y-96126789D01*
X54001814Y-96343156D01*
X54006457Y-96352347D01*
X54107555Y-96517325D01*
X54118011Y-96526785D01*
X54126789Y-96523001D01*
X54959978Y-95689812D01*
X54966356Y-95678132D01*
X55696408Y-95678132D01*
X55696539Y-95679965D01*
X55700790Y-95686580D01*
X56532045Y-96517835D01*
X56544055Y-96524394D01*
X56555794Y-96515426D01*
X56604518Y-96447619D01*
X56609829Y-96438780D01*
X56713291Y-96229442D01*
X56717089Y-96219849D01*
X56784974Y-95996413D01*
X56787151Y-95986343D01*
X56817869Y-95753015D01*
X56818388Y-95746340D01*
X56820001Y-95680364D01*
X56819807Y-95673647D01*
X56800525Y-95439108D01*
X56798842Y-95428946D01*
X56741952Y-95202453D01*
X56738634Y-95192706D01*
X56645513Y-94978542D01*
X56640646Y-94969467D01*
X56555465Y-94837796D01*
X56544779Y-94828593D01*
X56535214Y-94832996D01*
X55704022Y-95664188D01*
X55696408Y-95678132D01*
X54966356Y-95678132D01*
X54967592Y-95675868D01*
X54967461Y-95674035D01*
X54963210Y-95667420D01*
X54131892Y-94836102D01*
X54120356Y-94829802D01*
X54108073Y-94839426D01*
X54041036Y-94937698D01*
X54035943Y-94946662D01*
X53937619Y-95158483D01*
X53934062Y-95168151D01*
X53871657Y-95393178D01*
X53869726Y-95403298D01*
X53844910Y-95635510D01*
X53844658Y-95645799D01*
X51815500Y-95645799D01*
X51815500Y-94653866D01*
X51808745Y-94591684D01*
X51760932Y-94464142D01*
X54483938Y-94464142D01*
X54490684Y-94476474D01*
X55319188Y-95304978D01*
X55333132Y-95312592D01*
X55334965Y-95312461D01*
X55341580Y-95308210D01*
X56174391Y-94475399D01*
X56181412Y-94462543D01*
X56173639Y-94451875D01*
X56159548Y-94440746D01*
X56150970Y-94435047D01*
X55946526Y-94322189D01*
X55937126Y-94317964D01*
X55716993Y-94240011D01*
X55707036Y-94237381D01*
X55477129Y-94196427D01*
X55466878Y-94195458D01*
X55233367Y-94192605D01*
X55223083Y-94193325D01*
X54992253Y-94228647D01*
X54982225Y-94231036D01*
X54760263Y-94303584D01*
X54750753Y-94307581D01*
X54543624Y-94415405D01*
X54534904Y-94420897D01*
X54492391Y-94452817D01*
X54483938Y-94464142D01*
X51760932Y-94464142D01*
X51757615Y-94455295D01*
X51670261Y-94338739D01*
X51553705Y-94251385D01*
X51417316Y-94200255D01*
X51355134Y-94193500D01*
X49308866Y-94193500D01*
X49246684Y-94200255D01*
X49110295Y-94251385D01*
X48993739Y-94338739D01*
X48906385Y-94455295D01*
X48855255Y-94591684D01*
X48848500Y-94653866D01*
X48848500Y-96700134D01*
X42418500Y-96700134D01*
X42418500Y-93323500D01*
X63534372Y-93323500D01*
X63554854Y-93583749D01*
X63556008Y-93588556D01*
X63556009Y-93588562D01*
X63594424Y-93748569D01*
X63615796Y-93837589D01*
X63617689Y-93842160D01*
X63617690Y-93842162D01*
X63637802Y-93890715D01*
X63715697Y-94078771D01*
X63852097Y-94301356D01*
X64021637Y-94499863D01*
X64220144Y-94669403D01*
X64442729Y-94805803D01*
X64447299Y-94807696D01*
X64447303Y-94807698D01*
X64602291Y-94871896D01*
X64683911Y-94905704D01*
X64711852Y-94912412D01*
X64932938Y-94965491D01*
X64932944Y-94965492D01*
X64937751Y-94966646D01*
X65198000Y-94987128D01*
X65458249Y-94966646D01*
X65463056Y-94965492D01*
X65463062Y-94965491D01*
X65684148Y-94912412D01*
X65712089Y-94905704D01*
X65793709Y-94871896D01*
X65948697Y-94807698D01*
X65948701Y-94807696D01*
X65953271Y-94805803D01*
X66175856Y-94669403D01*
X66180187Y-94665704D01*
X79621151Y-94665704D01*
X79625720Y-94672235D01*
X79838736Y-94802771D01*
X79847530Y-94807252D01*
X80079492Y-94903334D01*
X80088877Y-94906383D01*
X80333017Y-94964996D01*
X80342764Y-94966539D01*
X80593070Y-94986239D01*
X80602930Y-94986239D01*
X80853236Y-94966539D01*
X80862983Y-94964996D01*
X81107123Y-94906383D01*
X81116508Y-94903334D01*
X81348470Y-94807252D01*
X81357264Y-94802771D01*
X81568875Y-94673096D01*
X81574922Y-94663830D01*
X81568915Y-94653625D01*
X80610812Y-93695522D01*
X80596868Y-93687908D01*
X80595035Y-93688039D01*
X80588420Y-93692290D01*
X79628544Y-94652166D01*
X79621151Y-94665704D01*
X66180187Y-94665704D01*
X66374363Y-94499863D01*
X66543903Y-94301356D01*
X66680303Y-94078771D01*
X66758199Y-93890715D01*
X66778310Y-93842162D01*
X66778311Y-93842160D01*
X66780204Y-93837589D01*
X66801576Y-93748569D01*
X66839991Y-93588562D01*
X66839992Y-93588556D01*
X66841146Y-93583749D01*
X66861240Y-93328430D01*
X78935261Y-93328430D01*
X78954961Y-93578736D01*
X78956504Y-93588483D01*
X79015117Y-93832623D01*
X79018166Y-93842008D01*
X79114248Y-94073970D01*
X79118729Y-94082764D01*
X79248404Y-94294375D01*
X79257670Y-94300422D01*
X79267875Y-94294415D01*
X80225978Y-93336312D01*
X80232356Y-93324632D01*
X80962408Y-93324632D01*
X80962539Y-93326465D01*
X80966790Y-93333080D01*
X81926666Y-94292956D01*
X81940204Y-94300349D01*
X81946735Y-94295780D01*
X82077271Y-94082764D01*
X82081752Y-94073970D01*
X82177834Y-93842008D01*
X82180883Y-93832623D01*
X82239496Y-93588483D01*
X82241039Y-93578736D01*
X82260739Y-93328430D01*
X82260739Y-93318570D01*
X82241039Y-93068264D01*
X82239496Y-93058517D01*
X82180883Y-92814377D01*
X82177834Y-92804992D01*
X82081752Y-92573030D01*
X82077271Y-92564236D01*
X81947596Y-92352625D01*
X81938330Y-92346578D01*
X81928125Y-92352585D01*
X80970022Y-93310688D01*
X80962408Y-93324632D01*
X80232356Y-93324632D01*
X80233592Y-93322368D01*
X80233461Y-93320535D01*
X80229210Y-93313920D01*
X79269334Y-92354044D01*
X79255796Y-92346651D01*
X79249265Y-92351220D01*
X79118729Y-92564236D01*
X79114248Y-92573030D01*
X79018166Y-92804992D01*
X79015117Y-92814377D01*
X78956504Y-93058517D01*
X78954961Y-93068264D01*
X78935261Y-93318570D01*
X78935261Y-93328430D01*
X66861240Y-93328430D01*
X66861628Y-93323500D01*
X66841146Y-93063251D01*
X66839992Y-93058444D01*
X66839991Y-93058438D01*
X66794577Y-92869277D01*
X66780204Y-92809411D01*
X66755481Y-92749725D01*
X66682198Y-92572803D01*
X66682196Y-92572799D01*
X66680303Y-92568229D01*
X66543903Y-92345644D01*
X66374363Y-92147137D01*
X66182381Y-91983170D01*
X79621078Y-91983170D01*
X79627085Y-91993375D01*
X80585188Y-92951478D01*
X80599132Y-92959092D01*
X80600965Y-92958961D01*
X80607580Y-92954710D01*
X81567456Y-91994834D01*
X81574849Y-91981296D01*
X81570280Y-91974765D01*
X81357264Y-91844229D01*
X81348470Y-91839748D01*
X81116508Y-91743666D01*
X81107123Y-91740617D01*
X80862983Y-91682004D01*
X80853236Y-91680461D01*
X80602930Y-91660761D01*
X80593070Y-91660761D01*
X80342764Y-91680461D01*
X80333017Y-91682004D01*
X80088877Y-91740617D01*
X80079492Y-91743666D01*
X79847530Y-91839748D01*
X79838736Y-91844229D01*
X79627125Y-91973904D01*
X79621078Y-91983170D01*
X66182381Y-91983170D01*
X66175856Y-91977597D01*
X65953271Y-91841197D01*
X65948701Y-91839304D01*
X65948697Y-91839302D01*
X65716662Y-91743190D01*
X65716660Y-91743189D01*
X65712089Y-91741296D01*
X65623069Y-91719924D01*
X65463062Y-91681509D01*
X65463056Y-91681508D01*
X65458249Y-91680354D01*
X65198000Y-91659872D01*
X64937751Y-91680354D01*
X64932944Y-91681508D01*
X64932938Y-91681509D01*
X64772931Y-91719924D01*
X64683911Y-91741296D01*
X64679340Y-91743189D01*
X64679338Y-91743190D01*
X64447303Y-91839302D01*
X64447299Y-91839304D01*
X64442729Y-91841197D01*
X64220144Y-91977597D01*
X64021637Y-92147137D01*
X63852097Y-92345644D01*
X63715697Y-92568229D01*
X63713804Y-92572799D01*
X63713802Y-92572803D01*
X63640519Y-92749725D01*
X63615796Y-92809411D01*
X63601423Y-92869277D01*
X63556009Y-93058438D01*
X63556008Y-93058444D01*
X63554854Y-93063251D01*
X63534372Y-93323500D01*
X42418500Y-93323500D01*
X42418500Y-85994134D01*
X47123500Y-85994134D01*
X47130255Y-86056316D01*
X47181385Y-86192705D01*
X47268739Y-86309261D01*
X47385295Y-86396615D01*
X47521684Y-86447745D01*
X47583866Y-86454500D01*
X49180134Y-86454500D01*
X49242316Y-86447745D01*
X49378705Y-86396615D01*
X49495261Y-86309261D01*
X49582615Y-86192705D01*
X49633745Y-86056316D01*
X49640500Y-85994134D01*
X49640500Y-85196000D01*
X54738693Y-85196000D01*
X54757885Y-85415371D01*
X54814880Y-85628076D01*
X54817205Y-85633061D01*
X54905618Y-85822666D01*
X54905621Y-85822671D01*
X54907944Y-85827653D01*
X54911100Y-85832160D01*
X54911101Y-85832162D01*
X55022123Y-85990717D01*
X55034251Y-86008038D01*
X55189962Y-86163749D01*
X55370346Y-86290056D01*
X55569924Y-86383120D01*
X55782629Y-86440115D01*
X56002000Y-86459307D01*
X56221371Y-86440115D01*
X56434076Y-86383120D01*
X56633654Y-86290056D01*
X56814038Y-86163749D01*
X56969749Y-86008038D01*
X56981878Y-85990717D01*
X57092899Y-85832162D01*
X57092900Y-85832160D01*
X57096056Y-85827653D01*
X57098379Y-85822671D01*
X57098382Y-85822666D01*
X57186795Y-85633061D01*
X57189120Y-85628076D01*
X57246115Y-85415371D01*
X57265307Y-85196000D01*
X57246115Y-84976629D01*
X57189120Y-84763924D01*
X57138014Y-84654327D01*
X57098382Y-84569334D01*
X57098379Y-84569329D01*
X57096056Y-84564347D01*
X57092899Y-84559838D01*
X56972908Y-84388473D01*
X56972906Y-84388470D01*
X56969749Y-84383962D01*
X56814038Y-84228251D01*
X56633654Y-84101944D01*
X56434076Y-84008880D01*
X56221371Y-83951885D01*
X56002000Y-83932693D01*
X55782629Y-83951885D01*
X55569924Y-84008880D01*
X55497159Y-84042811D01*
X55375334Y-84099618D01*
X55375329Y-84099621D01*
X55370347Y-84101944D01*
X55365840Y-84105100D01*
X55365838Y-84105101D01*
X55194473Y-84225092D01*
X55194470Y-84225094D01*
X55189962Y-84228251D01*
X55034251Y-84383962D01*
X55031094Y-84388470D01*
X55031092Y-84388473D01*
X54911101Y-84559838D01*
X54907944Y-84564347D01*
X54905621Y-84569329D01*
X54905618Y-84569334D01*
X54865986Y-84654327D01*
X54814880Y-84763924D01*
X54757885Y-84976629D01*
X54738693Y-85196000D01*
X49640500Y-85196000D01*
X49640500Y-84397866D01*
X49633745Y-84335684D01*
X49582615Y-84199295D01*
X49495261Y-84082739D01*
X49378705Y-83995385D01*
X49242316Y-83944255D01*
X49180134Y-83937500D01*
X47583866Y-83937500D01*
X47521684Y-83944255D01*
X47385295Y-83995385D01*
X47268739Y-84082739D01*
X47181385Y-84199295D01*
X47130255Y-84335684D01*
X47123500Y-84397866D01*
X47123500Y-85994134D01*
X42418500Y-85994134D01*
X42418500Y-82765344D01*
X56664016Y-82765344D01*
X56673898Y-82777834D01*
X56717279Y-82806820D01*
X56727389Y-82812310D01*
X56912318Y-82891762D01*
X56923261Y-82895317D01*
X57119567Y-82939737D01*
X57130975Y-82941239D01*
X57332096Y-82949140D01*
X57343580Y-82948538D01*
X57542774Y-82919657D01*
X57553957Y-82916972D01*
X57744547Y-82852276D01*
X57755060Y-82847595D01*
X57881766Y-82776635D01*
X57891631Y-82766557D01*
X57888675Y-82758885D01*
X57289812Y-82160022D01*
X57275868Y-82152408D01*
X57274035Y-82152539D01*
X57267420Y-82156790D01*
X56670212Y-82753998D01*
X56664016Y-82765344D01*
X42418500Y-82765344D01*
X42418500Y-80487544D01*
X54843936Y-80487544D01*
X54857861Y-80700006D01*
X54859282Y-80705602D01*
X54859283Y-80705607D01*
X54894311Y-80843525D01*
X54910272Y-80906372D01*
X54912689Y-80911615D01*
X54986124Y-81070908D01*
X54999411Y-81099731D01*
X55122296Y-81273609D01*
X55274809Y-81422181D01*
X55279605Y-81425386D01*
X55279608Y-81425388D01*
X55388066Y-81497857D01*
X55451843Y-81540471D01*
X55457146Y-81542749D01*
X55457149Y-81542751D01*
X55642163Y-81622239D01*
X55647470Y-81624519D01*
X55723316Y-81641681D01*
X55849501Y-81670234D01*
X55849506Y-81670235D01*
X55855138Y-81671509D01*
X55860909Y-81671736D01*
X55860911Y-81671736D01*
X55996091Y-81677048D01*
X56063373Y-81699710D01*
X56107724Y-81755150D01*
X56116873Y-81794710D01*
X56127979Y-81964159D01*
X56129780Y-81975529D01*
X56179323Y-82170604D01*
X56183164Y-82181451D01*
X56267429Y-82364238D01*
X56273178Y-82374195D01*
X56286912Y-82393628D01*
X56297501Y-82402016D01*
X56310802Y-82394988D01*
X57187905Y-81517885D01*
X57250217Y-81483859D01*
X57321032Y-81488924D01*
X57366095Y-81517885D01*
X58243971Y-82395761D01*
X58256351Y-82402521D01*
X58262931Y-82397595D01*
X58336595Y-82266060D01*
X58341276Y-82255547D01*
X58405972Y-82064957D01*
X58408657Y-82053774D01*
X58437834Y-81852539D01*
X58438464Y-81845157D01*
X58439668Y-81799200D01*
X58461447Y-81731627D01*
X58516302Y-81686555D01*
X58565625Y-81676500D01*
X59245134Y-81676500D01*
X59307316Y-81669745D01*
X59443705Y-81618615D01*
X59560261Y-81531261D01*
X59647615Y-81414705D01*
X59698745Y-81278316D01*
X59705500Y-81216134D01*
X59705500Y-79819866D01*
X59698745Y-79757684D01*
X59647615Y-79621295D01*
X59560261Y-79504739D01*
X59443705Y-79417385D01*
X59307316Y-79366255D01*
X59245134Y-79359500D01*
X57848866Y-79359500D01*
X57786684Y-79366255D01*
X57650295Y-79417385D01*
X57533739Y-79504739D01*
X57446385Y-79621295D01*
X57395255Y-79757684D01*
X57388500Y-79819866D01*
X57388500Y-80237203D01*
X57368498Y-80305324D01*
X57314842Y-80351817D01*
X57244568Y-80361921D01*
X57179988Y-80332427D01*
X57141231Y-80271405D01*
X57094754Y-80106611D01*
X57094753Y-80106609D01*
X57093186Y-80101052D01*
X57079716Y-80073736D01*
X57001570Y-79915273D01*
X56999015Y-79910092D01*
X56984576Y-79890755D01*
X56938362Y-79828867D01*
X56871622Y-79739491D01*
X56715271Y-79594963D01*
X56535201Y-79481347D01*
X56337441Y-79402449D01*
X56331781Y-79401323D01*
X56331777Y-79401322D01*
X56134282Y-79362038D01*
X56134280Y-79362038D01*
X56128615Y-79360911D01*
X56122840Y-79360835D01*
X56122836Y-79360835D01*
X56016161Y-79359439D01*
X55915716Y-79358124D01*
X55910019Y-79359103D01*
X55910018Y-79359103D01*
X55711564Y-79393203D01*
X55711561Y-79393204D01*
X55705874Y-79394181D01*
X55506116Y-79467875D01*
X55323134Y-79576739D01*
X55163054Y-79717125D01*
X55031238Y-79884333D01*
X55028549Y-79889444D01*
X55028547Y-79889447D01*
X55004780Y-79934621D01*
X54932100Y-80072762D01*
X54930386Y-80078283D01*
X54930384Y-80078287D01*
X54880812Y-80237937D01*
X54868961Y-80276102D01*
X54843936Y-80487544D01*
X42418500Y-80487544D01*
X42418500Y-75946000D01*
X57410884Y-75946000D01*
X57429314Y-76156655D01*
X57430738Y-76161968D01*
X57430738Y-76161970D01*
X57470647Y-76310910D01*
X57484044Y-76360910D01*
X57486366Y-76365891D01*
X57486367Y-76365892D01*
X57563279Y-76530829D01*
X57573411Y-76552558D01*
X57694699Y-76725776D01*
X57844224Y-76875301D01*
X58017442Y-76996589D01*
X58022420Y-76998910D01*
X58022423Y-76998912D01*
X58111056Y-77040242D01*
X58209090Y-77085956D01*
X58214398Y-77087378D01*
X58214400Y-77087379D01*
X58408030Y-77139262D01*
X58408032Y-77139262D01*
X58413345Y-77140686D01*
X58624000Y-77159116D01*
X58834655Y-77140686D01*
X58839968Y-77139262D01*
X58839970Y-77139262D01*
X59033600Y-77087379D01*
X59033602Y-77087378D01*
X59038910Y-77085956D01*
X59136944Y-77040242D01*
X59225577Y-76998912D01*
X59225580Y-76998910D01*
X59230558Y-76996589D01*
X59403776Y-76875301D01*
X59553301Y-76725776D01*
X59674589Y-76552558D01*
X59684722Y-76530829D01*
X59761633Y-76365892D01*
X59761634Y-76365891D01*
X59763956Y-76360910D01*
X59777354Y-76310910D01*
X59817262Y-76161970D01*
X59817262Y-76161968D01*
X59818686Y-76156655D01*
X59837116Y-75946000D01*
X59818686Y-75735345D01*
X59805289Y-75685345D01*
X59765379Y-75536400D01*
X59765378Y-75536398D01*
X59763956Y-75531090D01*
X59738712Y-75476954D01*
X59676912Y-75344423D01*
X59676910Y-75344420D01*
X59674589Y-75339442D01*
X59553301Y-75166224D01*
X59403776Y-75016699D01*
X59230558Y-74895411D01*
X59225580Y-74893090D01*
X59225577Y-74893088D01*
X59043892Y-74808367D01*
X59043891Y-74808366D01*
X59038910Y-74806044D01*
X59033602Y-74804622D01*
X59033600Y-74804621D01*
X59007796Y-74797707D01*
X58947173Y-74760755D01*
X58916152Y-74696894D01*
X58924580Y-74626400D01*
X58969783Y-74571653D01*
X59007796Y-74554293D01*
X59033600Y-74547379D01*
X59033602Y-74547378D01*
X59038910Y-74545956D01*
X59136944Y-74500242D01*
X59225577Y-74458912D01*
X59225580Y-74458910D01*
X59230558Y-74456589D01*
X59403776Y-74335301D01*
X59553301Y-74185776D01*
X59674589Y-74012558D01*
X59684722Y-73990829D01*
X59761633Y-73825892D01*
X59761634Y-73825891D01*
X59763956Y-73820910D01*
X59777354Y-73770910D01*
X59817262Y-73621970D01*
X59817262Y-73621968D01*
X59818686Y-73616655D01*
X59837116Y-73406000D01*
X59818686Y-73195345D01*
X59805289Y-73145345D01*
X59765379Y-72996400D01*
X59765378Y-72996398D01*
X59763956Y-72991090D01*
X59738712Y-72936954D01*
X59676912Y-72804423D01*
X59676910Y-72804420D01*
X59674589Y-72799442D01*
X59553301Y-72626224D01*
X59403776Y-72476699D01*
X59230558Y-72355411D01*
X59225580Y-72353090D01*
X59225577Y-72353088D01*
X59043892Y-72268367D01*
X59043891Y-72268366D01*
X59038910Y-72266044D01*
X59033602Y-72264622D01*
X59033600Y-72264621D01*
X58839970Y-72212738D01*
X58839968Y-72212738D01*
X58834655Y-72211314D01*
X58624000Y-72192884D01*
X58413345Y-72211314D01*
X58408032Y-72212738D01*
X58408030Y-72212738D01*
X58214400Y-72264621D01*
X58214398Y-72264622D01*
X58209090Y-72266044D01*
X58204109Y-72268366D01*
X58204108Y-72268367D01*
X58022423Y-72353088D01*
X58022420Y-72353090D01*
X58017442Y-72355411D01*
X57844224Y-72476699D01*
X57694699Y-72626224D01*
X57573411Y-72799442D01*
X57571090Y-72804420D01*
X57571088Y-72804423D01*
X57509288Y-72936954D01*
X57484044Y-72991090D01*
X57482622Y-72996398D01*
X57482621Y-72996400D01*
X57442711Y-73145345D01*
X57429314Y-73195345D01*
X57410884Y-73406000D01*
X57429314Y-73616655D01*
X57430738Y-73621968D01*
X57430738Y-73621970D01*
X57470647Y-73770910D01*
X57484044Y-73820910D01*
X57486366Y-73825891D01*
X57486367Y-73825892D01*
X57563279Y-73990829D01*
X57573411Y-74012558D01*
X57694699Y-74185776D01*
X57844224Y-74335301D01*
X58017442Y-74456589D01*
X58022420Y-74458910D01*
X58022423Y-74458912D01*
X58111056Y-74500242D01*
X58209090Y-74545956D01*
X58214398Y-74547378D01*
X58214400Y-74547379D01*
X58240204Y-74554293D01*
X58300827Y-74591245D01*
X58331848Y-74655106D01*
X58323420Y-74725600D01*
X58278217Y-74780347D01*
X58240204Y-74797707D01*
X58214400Y-74804621D01*
X58214398Y-74804622D01*
X58209090Y-74806044D01*
X58204109Y-74808366D01*
X58204108Y-74808367D01*
X58022423Y-74893088D01*
X58022420Y-74893090D01*
X58017442Y-74895411D01*
X57844224Y-75016699D01*
X57694699Y-75166224D01*
X57573411Y-75339442D01*
X57571090Y-75344420D01*
X57571088Y-75344423D01*
X57509288Y-75476954D01*
X57484044Y-75531090D01*
X57482622Y-75536398D01*
X57482621Y-75536400D01*
X57442711Y-75685345D01*
X57429314Y-75735345D01*
X57410884Y-75946000D01*
X42418500Y-75946000D01*
X42418500Y-72073635D01*
X42426445Y-72029602D01*
X42468589Y-71916611D01*
X42476056Y-71900259D01*
X42604175Y-71665626D01*
X42613895Y-71650502D01*
X42774103Y-71436490D01*
X42785876Y-71422904D01*
X42974904Y-71233876D01*
X42988490Y-71222103D01*
X43202502Y-71061895D01*
X43217625Y-71052176D01*
X43452260Y-70924055D01*
X43468607Y-70916589D01*
X43719100Y-70823160D01*
X43736342Y-70818098D01*
X43997567Y-70761272D01*
X44015350Y-70758715D01*
X44237129Y-70742853D01*
X44286513Y-70739321D01*
X44295501Y-70739000D01*
X106612566Y-70739000D01*
X106680687Y-70759002D01*
G37*
%TD.AperFunction*%
%TD*%
M02*
