M48
; DRILL file {KiCad (5.99.0-10447-gf083f043cb)} date Sun Jul 11 09:52:00 2021
; FORMAT={-:-/ absolute / inch / decimal}
; #@! TF.CreationDate,2021-07-11T09:52:00-05:00
; #@! TF.GenerationSoftware,Kicad,Pcbnew,(5.99.0-10447-gf083f043cb)
; #@! TF.FileFunction,Plated,1,2,PTH
FMAT,2
INCH
; #@! TA.AperFunction,Plated,PTH,ViaDrill
T1C0.0180
; #@! TA.AperFunction,Plated,PTH,ComponentDrill
T2C0.0236
; #@! TA.AperFunction,Plated,PTH,ComponentDrill
T3C0.0394
; #@! TA.AperFunction,Plated,PTH,ComponentDrill
T4C0.0413
; #@! TA.AperFunction,Plated,PTH,ComponentDrill
T5C0.0472
; #@! TA.AperFunction,Plated,PTH,ComponentDrill
T6C0.0492
%
G90
G05
T1
X5.41Y-3.49
X5.51Y-3.64
T2
X5.0875Y-3.3223
X5.1338Y-2.4569
X5.185Y-2.26
X5.2725Y-3.3223
X5.4133Y-3.3223
X5.5983Y-3.3223
T3
X5.7757Y-3.7973
X5.9004Y-4.0
X5.9804Y-2.6398
X6.0004Y-4.0
X6.1004Y-4.0
X6.1772Y-2.6398
X6.2004Y-4.0
X6.382Y-3.7973
T4
X6.2038Y-2.45
X6.4038Y-2.45
T5
X5.2725Y-2.594
X5.2725Y-2.8696
X5.5983Y-2.594
X5.5983Y-2.8696
T6
X5.3313Y-2.4403
X5.4297Y-2.2434
X5.6262Y-2.4403
X5.7246Y-2.2434
X5.921Y-2.4403
X6.0194Y-2.2434
T0
M30
