%TF.GenerationSoftware,KiCad,Pcbnew,(5.99.0-11382-g00f1b609c4)*%
%TF.CreationDate,2021-08-15T08:59:13-05:00*%
%TF.ProjectId,reptile-monitor-power,72657074-696c-4652-9d6d-6f6e69746f72,1*%
%TF.SameCoordinates,Original*%
%TF.FileFunction,Legend,Bot*%
%TF.FilePolarity,Positive*%
%FSLAX46Y46*%
G04 Gerber Fmt 4.6, Leading zero omitted, Abs format (unit mm)*
G04 Created by KiCad (PCBNEW (5.99.0-11382-g00f1b609c4)) date 2021-08-15 08:59:13*
%MOMM*%
%LPD*%
G01*
G04 APERTURE LIST*
%ADD10C,0.127000*%
%ADD11C,0.254000*%
%ADD12R,1.575000X1.575000*%
%ADD13C,1.575000*%
%ADD14C,2.200000*%
%ADD15R,1.000000X1.000000*%
%ADD16C,2.167346*%
%ADD17C,1.000000*%
%ADD18R,1.700000X1.700000*%
%ADD19O,1.700000X1.700000*%
%ADD20R,2.000000X2.300000*%
%ADD21C,2.300000*%
%ADD22C,1.600000*%
%ADD23C,1.875000*%
G04 APERTURE END LIST*
D10*
X138853938Y-85492166D02*
X139156319Y-85703833D01*
X138853938Y-85855023D02*
X139488938Y-85855023D01*
X139488938Y-85613119D01*
X139458700Y-85552642D01*
X139428461Y-85522404D01*
X139367985Y-85492166D01*
X139277271Y-85492166D01*
X139216795Y-85522404D01*
X139186557Y-85552642D01*
X139156319Y-85613119D01*
X139156319Y-85855023D01*
X138884176Y-84978119D02*
X138853938Y-85038595D01*
X138853938Y-85159547D01*
X138884176Y-85220023D01*
X138944652Y-85250261D01*
X139186557Y-85250261D01*
X139247033Y-85220023D01*
X139277271Y-85159547D01*
X139277271Y-85038595D01*
X139247033Y-84978119D01*
X139186557Y-84947880D01*
X139126080Y-84947880D01*
X139065604Y-85250261D01*
X139277271Y-84736214D02*
X138853938Y-84585023D01*
X139277271Y-84433833D01*
X138914414Y-84191928D02*
X138884176Y-84161690D01*
X138853938Y-84191928D01*
X138884176Y-84222166D01*
X138914414Y-84191928D01*
X138853938Y-84191928D01*
X139277271Y-83133595D02*
X138853938Y-83133595D01*
X139519176Y-83284785D02*
X139065604Y-83435976D01*
X139065604Y-83042880D01*
X138884176Y-82770738D02*
X138853938Y-82770738D01*
X138793461Y-82800976D01*
X138763223Y-82831214D01*
X139035366Y-82045023D02*
X139035366Y-81742642D01*
X138853938Y-82105500D02*
X139488938Y-81893833D01*
X138853938Y-81682166D01*
X139277271Y-81198357D02*
X138853938Y-81198357D01*
X139277271Y-81470500D02*
X138944652Y-81470500D01*
X138884176Y-81440261D01*
X138853938Y-81379785D01*
X138853938Y-81289071D01*
X138884176Y-81228595D01*
X138914414Y-81198357D01*
X139277271Y-80623833D02*
X138763223Y-80623833D01*
X138702747Y-80654071D01*
X138672509Y-80684309D01*
X138642271Y-80744785D01*
X138642271Y-80835500D01*
X138672509Y-80895976D01*
X138884176Y-80623833D02*
X138853938Y-80684309D01*
X138853938Y-80805261D01*
X138884176Y-80865738D01*
X138914414Y-80895976D01*
X138974890Y-80926214D01*
X139156319Y-80926214D01*
X139216795Y-80895976D01*
X139247033Y-80865738D01*
X139277271Y-80805261D01*
X139277271Y-80684309D01*
X139247033Y-80623833D01*
X139428461Y-79867880D02*
X139458700Y-79837642D01*
X139488938Y-79777166D01*
X139488938Y-79625976D01*
X139458700Y-79565500D01*
X139428461Y-79535261D01*
X139367985Y-79505023D01*
X139307509Y-79505023D01*
X139216795Y-79535261D01*
X138853938Y-79898119D01*
X138853938Y-79505023D01*
X139488938Y-79111928D02*
X139488938Y-79051452D01*
X139458700Y-78990976D01*
X139428461Y-78960738D01*
X139367985Y-78930500D01*
X139247033Y-78900261D01*
X139095842Y-78900261D01*
X138974890Y-78930500D01*
X138914414Y-78960738D01*
X138884176Y-78990976D01*
X138853938Y-79051452D01*
X138853938Y-79111928D01*
X138884176Y-79172404D01*
X138914414Y-79202642D01*
X138974890Y-79232880D01*
X139095842Y-79263119D01*
X139247033Y-79263119D01*
X139367985Y-79232880D01*
X139428461Y-79202642D01*
X139458700Y-79172404D01*
X139488938Y-79111928D01*
X139428461Y-78658357D02*
X139458700Y-78628119D01*
X139488938Y-78567642D01*
X139488938Y-78416452D01*
X139458700Y-78355976D01*
X139428461Y-78325738D01*
X139367985Y-78295500D01*
X139307509Y-78295500D01*
X139216795Y-78325738D01*
X138853938Y-78688595D01*
X138853938Y-78295500D01*
X138853938Y-77690738D02*
X138853938Y-78053595D01*
X138853938Y-77872166D02*
X139488938Y-77872166D01*
X139398223Y-77932642D01*
X139337747Y-77993119D01*
X139307509Y-78053595D01*
D11*
X140217676Y-90980380D02*
X141487676Y-90980380D01*
X140580533Y-90557047D01*
X141487676Y-90133714D01*
X140217676Y-90133714D01*
X140217676Y-89528952D02*
X141064342Y-89528952D01*
X141487676Y-89528952D02*
X141427200Y-89589428D01*
X141366723Y-89528952D01*
X141427200Y-89468476D01*
X141487676Y-89528952D01*
X141366723Y-89528952D01*
X140217676Y-88924190D02*
X141487676Y-88924190D01*
X140701485Y-88803238D02*
X140217676Y-88440380D01*
X141064342Y-88440380D02*
X140580533Y-88924190D01*
X140278152Y-87412285D02*
X140217676Y-87533238D01*
X140217676Y-87775142D01*
X140278152Y-87896095D01*
X140399104Y-87956571D01*
X140882914Y-87956571D01*
X141003866Y-87896095D01*
X141064342Y-87775142D01*
X141064342Y-87533238D01*
X141003866Y-87412285D01*
X140882914Y-87351809D01*
X140761961Y-87351809D01*
X140641009Y-87956571D01*
X140217676Y-85839904D02*
X141487676Y-85839904D01*
X141487676Y-85356095D01*
X141427200Y-85235142D01*
X141366723Y-85174666D01*
X141245771Y-85114190D01*
X141064342Y-85114190D01*
X140943390Y-85174666D01*
X140882914Y-85235142D01*
X140822438Y-85356095D01*
X140822438Y-85839904D01*
X140217676Y-84388476D02*
X140278152Y-84509428D01*
X140399104Y-84569904D01*
X141487676Y-84569904D01*
X140278152Y-83420857D02*
X140217676Y-83541809D01*
X140217676Y-83783714D01*
X140278152Y-83904666D01*
X140399104Y-83965142D01*
X140882914Y-83965142D01*
X141003866Y-83904666D01*
X141064342Y-83783714D01*
X141064342Y-83541809D01*
X141003866Y-83420857D01*
X140882914Y-83360380D01*
X140761961Y-83360380D01*
X140641009Y-83965142D01*
X140217676Y-82816095D02*
X141064342Y-82816095D01*
X141487676Y-82816095D02*
X141427200Y-82876571D01*
X141366723Y-82816095D01*
X141427200Y-82755619D01*
X141487676Y-82816095D01*
X141366723Y-82816095D01*
X140217676Y-82211333D02*
X141064342Y-82211333D01*
X140943390Y-82211333D02*
X141003866Y-82150857D01*
X141064342Y-82029904D01*
X141064342Y-81848476D01*
X141003866Y-81727523D01*
X140882914Y-81667047D01*
X140217676Y-81667047D01*
X140882914Y-81667047D02*
X141003866Y-81606571D01*
X141064342Y-81485619D01*
X141064342Y-81304190D01*
X141003866Y-81183238D01*
X140882914Y-81122761D01*
X140217676Y-81122761D01*
X140217676Y-79973714D02*
X140882914Y-79973714D01*
X141003866Y-80034190D01*
X141064342Y-80155142D01*
X141064342Y-80397047D01*
X141003866Y-80518000D01*
X140278152Y-79973714D02*
X140217676Y-80094666D01*
X140217676Y-80397047D01*
X140278152Y-80518000D01*
X140399104Y-80578476D01*
X140520057Y-80578476D01*
X140641009Y-80518000D01*
X140701485Y-80397047D01*
X140701485Y-80094666D01*
X140761961Y-79973714D01*
X141064342Y-79368952D02*
X140217676Y-79368952D01*
X140943390Y-79368952D02*
X141003866Y-79308476D01*
X141064342Y-79187523D01*
X141064342Y-79006095D01*
X141003866Y-78885142D01*
X140882914Y-78824666D01*
X140217676Y-78824666D01*
X141064342Y-78219904D02*
X140217676Y-78219904D01*
X140943390Y-78219904D02*
X141003866Y-78159428D01*
X141064342Y-78038476D01*
X141064342Y-77857047D01*
X141003866Y-77736095D01*
X140882914Y-77675619D01*
X140217676Y-77675619D01*
%TO.C,REF\u002A\u002A*%
G36*
X143226092Y-76750368D02*
G01*
X143373580Y-76786814D01*
X143478594Y-76877628D01*
X143536014Y-77001869D01*
X143540720Y-77138594D01*
X143487591Y-77266863D01*
X143371506Y-77365733D01*
X143303557Y-77399524D01*
X143226329Y-77422007D01*
X143153214Y-77404183D01*
X143046450Y-77343464D01*
X142967654Y-77287361D01*
X142919952Y-77211124D01*
X142908867Y-77091272D01*
X142911245Y-77043589D01*
X142961411Y-76888717D01*
X143068359Y-76786942D01*
X143221038Y-76750334D01*
X143226092Y-76750368D01*
G37*
G36*
X144559867Y-84518500D02*
G01*
X144538700Y-84539667D01*
X144517534Y-84518500D01*
X144538700Y-84497334D01*
X144559867Y-84518500D01*
G37*
G36*
X147015200Y-83417834D02*
G01*
X146994034Y-83439000D01*
X146972867Y-83417834D01*
X146994034Y-83396667D01*
X147015200Y-83417834D01*
G37*
G36*
X146591867Y-81131834D02*
G01*
X146570700Y-81153000D01*
X146549534Y-81131834D01*
X146570700Y-81110667D01*
X146591867Y-81131834D01*
G37*
G36*
X154037895Y-84015002D02*
G01*
X154122004Y-84069606D01*
X154216652Y-84194541D01*
X154294809Y-84361880D01*
X154350172Y-84549192D01*
X154376442Y-84734047D01*
X154367316Y-84894016D01*
X154316492Y-85006669D01*
X154250027Y-85058793D01*
X154122059Y-85083562D01*
X153979685Y-85039034D01*
X153835338Y-84930156D01*
X153701454Y-84761877D01*
X153697338Y-84755339D01*
X153599259Y-84540542D01*
X153583731Y-84340640D01*
X153650524Y-84152873D01*
X153733655Y-84055510D01*
X153873003Y-83996030D01*
X154037895Y-84015002D01*
G37*
G36*
X160232683Y-87363522D02*
G01*
X160229307Y-88075782D01*
X160273072Y-88718748D01*
X160364068Y-89292783D01*
X160502384Y-89798250D01*
X160688109Y-90235512D01*
X160921334Y-90604931D01*
X161202148Y-90906869D01*
X161530640Y-91141690D01*
X161906900Y-91309755D01*
X162036373Y-91352219D01*
X162143795Y-91385085D01*
X162195189Y-91397667D01*
X162196562Y-91397118D01*
X162168307Y-91369741D01*
X162086751Y-91309279D01*
X161967141Y-91227135D01*
X161868319Y-91153763D01*
X161765767Y-91077621D01*
X161440294Y-90761460D01*
X161167119Y-90395130D01*
X160954300Y-89992401D01*
X160937193Y-89942012D01*
X161202706Y-89942012D01*
X161248797Y-90058346D01*
X161347685Y-90235991D01*
X161374432Y-90279537D01*
X161486336Y-90442917D01*
X161600601Y-90585198D01*
X161708302Y-90698654D01*
X161800516Y-90775561D01*
X161868319Y-90808196D01*
X161902789Y-90788834D01*
X161895000Y-90709750D01*
X161853199Y-90587275D01*
X161742439Y-90359082D01*
X161604756Y-90157477D01*
X161458160Y-90011255D01*
X161384304Y-89958081D01*
X161289230Y-89897323D01*
X161235910Y-89873667D01*
X161208207Y-89883088D01*
X161202706Y-89942012D01*
X160937193Y-89942012D01*
X160809891Y-89567045D01*
X160741950Y-89132834D01*
X160731959Y-88972343D01*
X161072843Y-88972343D01*
X161087150Y-89083056D01*
X161143950Y-89162402D01*
X161150068Y-89167533D01*
X161228492Y-89226601D01*
X161350768Y-89312890D01*
X161493200Y-89409625D01*
X161775573Y-89619842D01*
X162078773Y-89920077D01*
X162306496Y-90251559D01*
X162462415Y-90619917D01*
X162550203Y-91030786D01*
X162550559Y-91033588D01*
X162572265Y-91181431D01*
X162594052Y-91293059D01*
X162611255Y-91344499D01*
X162612177Y-91345387D01*
X162664180Y-91342471D01*
X162741758Y-91271386D01*
X162839198Y-91142327D01*
X162950788Y-90965485D01*
X163070814Y-90751055D01*
X163193563Y-90509229D01*
X163313323Y-90250202D01*
X163424379Y-89984165D01*
X163521019Y-89721313D01*
X163548040Y-89638824D01*
X163623573Y-89380341D01*
X163696935Y-89092902D01*
X163764384Y-88794834D01*
X163822182Y-88504466D01*
X163866588Y-88240124D01*
X163893863Y-88020138D01*
X163900265Y-87862834D01*
X163896085Y-87790745D01*
X163889120Y-87777531D01*
X163888273Y-87781581D01*
X163875706Y-87841667D01*
X163845129Y-88010244D01*
X163783268Y-88333683D01*
X163728208Y-88590499D01*
X163676723Y-88792638D01*
X163625587Y-88952044D01*
X163571574Y-89080664D01*
X163511459Y-89190442D01*
X163503217Y-89204017D01*
X163412815Y-89370178D01*
X163316408Y-89571637D01*
X163233520Y-89767834D01*
X163233155Y-89768776D01*
X163130340Y-90000502D01*
X163013744Y-90207967D01*
X162893368Y-90377110D01*
X162779215Y-90493870D01*
X162681285Y-90544188D01*
X162638152Y-90548577D01*
X162606699Y-90536548D01*
X162593466Y-90489975D01*
X162594504Y-90392231D01*
X162605862Y-90226688D01*
X162629641Y-90030453D01*
X162671699Y-89812363D01*
X162721911Y-89630185D01*
X162746709Y-89561883D01*
X162815662Y-89416372D01*
X162908388Y-89295392D01*
X163049071Y-89164518D01*
X163153819Y-89063484D01*
X163345791Y-88797979D01*
X163488612Y-88476087D01*
X163577892Y-88109216D01*
X163609241Y-87708774D01*
X163609236Y-87693500D01*
X163906200Y-87693500D01*
X163927367Y-87714667D01*
X163948534Y-87693500D01*
X163927367Y-87672334D01*
X163906200Y-87693500D01*
X163609236Y-87693500D01*
X163609232Y-87681401D01*
X163602123Y-87514084D01*
X163573661Y-87394463D01*
X163511244Y-87311575D01*
X163402268Y-87254451D01*
X163234132Y-87212128D01*
X162994232Y-87173638D01*
X162839971Y-87153905D01*
X162652567Y-87136578D01*
X162502938Y-87130277D01*
X162413950Y-87136469D01*
X162340349Y-87164831D01*
X162305353Y-87220715D01*
X162297534Y-87331670D01*
X162302570Y-87405288D01*
X162331959Y-87502447D01*
X162397704Y-87614217D01*
X162511181Y-87763602D01*
X162579689Y-87851299D01*
X162665433Y-87977514D01*
X162706370Y-88073361D01*
X162712264Y-88157990D01*
X162698315Y-88233357D01*
X162653279Y-88281068D01*
X162551534Y-88300422D01*
X162511855Y-88302620D01*
X162322501Y-88264543D01*
X162144832Y-88144187D01*
X161977291Y-87940576D01*
X161899176Y-87833653D01*
X161820551Y-87747649D01*
X161767753Y-87714667D01*
X161709658Y-87732068D01*
X161635893Y-87797253D01*
X161547435Y-87918113D01*
X161438759Y-88102316D01*
X161304337Y-88357531D01*
X161303315Y-88359541D01*
X161179083Y-88619832D01*
X161102873Y-88821017D01*
X161072843Y-88972343D01*
X160731959Y-88972343D01*
X160720867Y-88794167D01*
X160960604Y-88413167D01*
X161120625Y-88150392D01*
X161440469Y-87567125D01*
X161715687Y-86981418D01*
X161938415Y-86410797D01*
X162077189Y-85950974D01*
X162384059Y-85950974D01*
X162403043Y-86041755D01*
X162448009Y-86171408D01*
X162503579Y-86298707D01*
X162554435Y-86384662D01*
X162589909Y-86420312D01*
X162732696Y-86511815D01*
X162931428Y-86593560D01*
X163165367Y-86656325D01*
X163267831Y-86679689D01*
X163466875Y-86733952D01*
X163641070Y-86791061D01*
X163793075Y-86839756D01*
X163888273Y-86845128D01*
X163935530Y-86801994D01*
X163947956Y-86706752D01*
X163947933Y-86703187D01*
X163928749Y-86528755D01*
X163867977Y-86414067D01*
X163755950Y-86340692D01*
X163703204Y-86317490D01*
X163628403Y-86275008D01*
X163570566Y-86219991D01*
X163527150Y-86142134D01*
X163495614Y-86031135D01*
X163473414Y-85876689D01*
X163458010Y-85668492D01*
X163446858Y-85396240D01*
X163437416Y-85049630D01*
X163431835Y-84839181D01*
X163420614Y-84524104D01*
X163406603Y-84279415D01*
X163388409Y-84095960D01*
X163364640Y-83964586D01*
X163333903Y-83876138D01*
X163294804Y-83821464D01*
X163245950Y-83791409D01*
X163244892Y-83791016D01*
X163161654Y-83793483D01*
X163058867Y-83834827D01*
X163042228Y-83843807D01*
X162989635Y-83861253D01*
X162911816Y-83887066D01*
X162767252Y-83904667D01*
X162745523Y-83904891D01*
X162632742Y-83922811D01*
X162585795Y-83979784D01*
X162590800Y-84090423D01*
X162592565Y-84111646D01*
X162590133Y-84214687D01*
X162579621Y-84376334D01*
X162562794Y-84578612D01*
X162541413Y-84803543D01*
X162517244Y-85033148D01*
X162492049Y-85249450D01*
X162467592Y-85434471D01*
X162445636Y-85570233D01*
X162438335Y-85608786D01*
X162410109Y-85766296D01*
X162390737Y-85888277D01*
X162384059Y-85950974D01*
X162077189Y-85950974D01*
X162100785Y-85872789D01*
X162168118Y-85589269D01*
X162227090Y-85287833D01*
X162265904Y-85000026D01*
X162286927Y-84701444D01*
X162292529Y-84367682D01*
X162285079Y-83974335D01*
X162276163Y-83729439D01*
X162261618Y-83472722D01*
X162240108Y-83237828D01*
X162208859Y-83010146D01*
X162165098Y-82775066D01*
X162106053Y-82517975D01*
X162028949Y-82224264D01*
X161931014Y-81879322D01*
X161809475Y-81468538D01*
X161672872Y-81004049D01*
X161511330Y-80426446D01*
X161381763Y-79924807D01*
X161284229Y-79499455D01*
X161218785Y-79150714D01*
X161217881Y-79143331D01*
X161455242Y-79143331D01*
X161455670Y-79150733D01*
X161460075Y-79194802D01*
X161469896Y-79253423D01*
X161487753Y-79337835D01*
X161516270Y-79459277D01*
X161558068Y-79628988D01*
X161615769Y-79858205D01*
X161691995Y-80158167D01*
X161759570Y-80415484D01*
X161845054Y-80727015D01*
X161932864Y-81035444D01*
X162011916Y-81301167D01*
X162081008Y-81529500D01*
X162161236Y-81801065D01*
X162236048Y-82060289D01*
X162295460Y-82272957D01*
X162410032Y-82694413D01*
X162639533Y-82853969D01*
X162662113Y-82869431D01*
X162847896Y-82974283D01*
X162989635Y-83009987D01*
X163085325Y-82977138D01*
X163132963Y-82876330D01*
X163130542Y-82708160D01*
X163124616Y-82674845D01*
X163085697Y-82533007D01*
X163018894Y-82339122D01*
X162928502Y-82102499D01*
X162818815Y-81832448D01*
X162694127Y-81538280D01*
X162558732Y-81229303D01*
X162416925Y-80914828D01*
X162273000Y-80604164D01*
X162131250Y-80306621D01*
X161995971Y-80031510D01*
X161871456Y-79788139D01*
X161762000Y-79585820D01*
X161671897Y-79433860D01*
X161605441Y-79341571D01*
X161566926Y-79318262D01*
X161547688Y-79326197D01*
X161552612Y-79296949D01*
X161555723Y-79239852D01*
X161516820Y-79153989D01*
X161479109Y-79102378D01*
X161456510Y-79089691D01*
X161455242Y-79143331D01*
X161217881Y-79143331D01*
X161185491Y-78878908D01*
X161184405Y-78684360D01*
X161215585Y-78567394D01*
X161279090Y-78528334D01*
X161283418Y-78528432D01*
X161356458Y-78555365D01*
X161444391Y-78633147D01*
X161550205Y-78766311D01*
X161676889Y-78959389D01*
X161827431Y-79216916D01*
X162004820Y-79543422D01*
X162212043Y-79943442D01*
X162528542Y-80583461D01*
X162927612Y-81459089D01*
X163266469Y-82296960D01*
X163548063Y-83106623D01*
X163775342Y-83897626D01*
X163951254Y-84679519D01*
X164078750Y-85461850D01*
X164160776Y-86254167D01*
X164175440Y-86489420D01*
X164179562Y-87329252D01*
X164110420Y-88166234D01*
X163969834Y-88984412D01*
X163927367Y-89142683D01*
X163759627Y-89767834D01*
X163726858Y-89864383D01*
X163609396Y-90160861D01*
X163461502Y-90482593D01*
X163292874Y-90812040D01*
X163113211Y-91131661D01*
X162932209Y-91423915D01*
X162759568Y-91671263D01*
X162612177Y-91847562D01*
X162604986Y-91856163D01*
X162580311Y-91893520D01*
X162578852Y-91957954D01*
X162587004Y-91975759D01*
X162564954Y-91977461D01*
X162532015Y-91982483D01*
X162454272Y-92033961D01*
X162357330Y-92123169D01*
X162088344Y-92371419D01*
X161716866Y-92646916D01*
X161712212Y-92650368D01*
X161306306Y-92890080D01*
X160900534Y-93071094D01*
X160639699Y-93144627D01*
X160350100Y-93190085D01*
X160307730Y-93196736D01*
X159958773Y-93217044D01*
X159623906Y-93203875D01*
X159334200Y-93155554D01*
X158966474Y-93028763D01*
X158558608Y-92811530D01*
X158181531Y-92527062D01*
X157849428Y-92184635D01*
X157789593Y-92113064D01*
X157724549Y-92031093D01*
X157682703Y-91959108D01*
X157663060Y-91881629D01*
X157664627Y-91783175D01*
X157686409Y-91648267D01*
X157710428Y-91538820D01*
X157994497Y-91538820D01*
X158042759Y-91623149D01*
X158159875Y-91669477D01*
X158254512Y-91689392D01*
X158380924Y-91715779D01*
X158451178Y-91743370D01*
X158559820Y-91811600D01*
X158667931Y-91898422D01*
X158751100Y-91983784D01*
X158784917Y-92047636D01*
X158787140Y-92063133D01*
X158829680Y-92152596D01*
X158910849Y-92267425D01*
X159010386Y-92383473D01*
X159108030Y-92476598D01*
X159183521Y-92522652D01*
X159256082Y-92527866D01*
X159383653Y-92481179D01*
X159455734Y-92438654D01*
X159534984Y-92420505D01*
X159631121Y-92436289D01*
X159762639Y-92489342D01*
X159948034Y-92583000D01*
X160169809Y-92688724D01*
X160350100Y-92744741D01*
X160487024Y-92744502D01*
X160590877Y-92687887D01*
X160671951Y-92574781D01*
X160710464Y-92474567D01*
X160710899Y-92316209D01*
X160632056Y-92176222D01*
X160476801Y-92058712D01*
X160248003Y-91967783D01*
X160151391Y-91936128D01*
X159959890Y-91839789D01*
X159840820Y-91721711D01*
X159799867Y-91586728D01*
X159811669Y-91505509D01*
X159849099Y-91367797D01*
X159903258Y-91214387D01*
X159953943Y-91081960D01*
X160016882Y-90880463D01*
X160037557Y-90715779D01*
X160011269Y-90569877D01*
X159933320Y-90424728D01*
X159799013Y-90262302D01*
X159603650Y-90064569D01*
X159541474Y-90003827D01*
X159408474Y-89869926D01*
X159323264Y-89773038D01*
X159275386Y-89698053D01*
X159254382Y-89629864D01*
X159249795Y-89553362D01*
X159250066Y-89538111D01*
X159270470Y-89391659D01*
X159313295Y-89265578D01*
X159370035Y-89097628D01*
X159356716Y-88965234D01*
X159805079Y-88965234D01*
X159830198Y-89117023D01*
X159889225Y-89303681D01*
X159984926Y-89538053D01*
X160120065Y-89832981D01*
X160237259Y-90096360D01*
X160345942Y-90395206D01*
X160410564Y-90660159D01*
X160429050Y-90756048D01*
X160489171Y-90978769D01*
X160576842Y-91190220D01*
X160702954Y-91413993D01*
X160878397Y-91673685D01*
X161087005Y-91928358D01*
X161297149Y-92105168D01*
X161506433Y-92198413D01*
X161716866Y-92208580D01*
X161930456Y-92136156D01*
X162149212Y-91981626D01*
X162234075Y-91903312D01*
X162310437Y-91823633D01*
X162339867Y-91779443D01*
X162322383Y-91762621D01*
X162241029Y-91718557D01*
X162108435Y-91658593D01*
X161941393Y-91590685D01*
X161873782Y-91563964D01*
X161480073Y-91381050D01*
X161154731Y-91173134D01*
X160884292Y-90928355D01*
X160655290Y-90634854D01*
X160454261Y-90280770D01*
X160362086Y-90072916D01*
X160268592Y-89822326D01*
X160184474Y-89559601D01*
X160116281Y-89306983D01*
X160070562Y-89086712D01*
X160053867Y-88921031D01*
X160047083Y-88789142D01*
X160027195Y-88655463D01*
X159999341Y-88557216D01*
X159968732Y-88519000D01*
X159962312Y-88521068D01*
X159920116Y-88569798D01*
X159868191Y-88662982D01*
X159845507Y-88714896D01*
X159811103Y-88835473D01*
X159805079Y-88965234D01*
X159356716Y-88965234D01*
X159354919Y-88947372D01*
X159268303Y-88831503D01*
X159115641Y-88757112D01*
X158902386Y-88731291D01*
X158847484Y-88732464D01*
X158680822Y-88755050D01*
X158630149Y-88778302D01*
X158552893Y-88813753D01*
X158456936Y-88918252D01*
X158386188Y-89078230D01*
X158333887Y-89303368D01*
X158293270Y-89603347D01*
X158266919Y-89822472D01*
X158224659Y-90129170D01*
X158176772Y-90442398D01*
X158129394Y-90720334D01*
X158121311Y-90764498D01*
X158081173Y-90983551D01*
X158045315Y-91178856D01*
X158017384Y-91330565D01*
X158001027Y-91418834D01*
X157994497Y-91538820D01*
X157710428Y-91538820D01*
X157727413Y-91461424D01*
X157786642Y-91207167D01*
X157828982Y-91017371D01*
X157991631Y-90084293D01*
X158089441Y-89116221D01*
X158122295Y-88129374D01*
X158090074Y-87139968D01*
X158001516Y-86252897D01*
X158248685Y-86252897D01*
X158274547Y-86508167D01*
X158289754Y-86628089D01*
X158307570Y-86811671D01*
X158325204Y-87030114D01*
X158340431Y-87258063D01*
X158343225Y-87303933D01*
X158361871Y-87545351D01*
X158384321Y-87719378D01*
X158413033Y-87840902D01*
X158450465Y-87924813D01*
X158514283Y-88002390D01*
X158630149Y-88055741D01*
X158757122Y-88030773D01*
X158882299Y-87927409D01*
X158887711Y-87920920D01*
X158970946Y-87798362D01*
X159030100Y-87652678D01*
X159071413Y-87463412D01*
X159101126Y-87210106D01*
X159118369Y-87062909D01*
X159188915Y-86750506D01*
X159298341Y-86500298D01*
X159443593Y-86320221D01*
X159535868Y-86243552D01*
X159616101Y-86199859D01*
X159680186Y-86209867D01*
X159751879Y-86269679D01*
X159807269Y-86351419D01*
X159854096Y-86532348D01*
X159859114Y-86782973D01*
X159822114Y-87100834D01*
X159806128Y-87201691D01*
X159773265Y-87459061D01*
X159760242Y-87660302D01*
X159767368Y-87796764D01*
X159794954Y-87859797D01*
X159820264Y-87855790D01*
X159864219Y-87791982D01*
X159908444Y-87675330D01*
X159944756Y-87524167D01*
X159951397Y-87479431D01*
X159966870Y-87350602D01*
X159986804Y-87165906D01*
X160009342Y-86942782D01*
X160032629Y-86698667D01*
X160038175Y-86640166D01*
X160071881Y-86318673D01*
X160113581Y-85961345D01*
X160158502Y-85607701D01*
X160201872Y-85297259D01*
X160207736Y-85257697D01*
X160268402Y-84826633D01*
X160311465Y-84474432D01*
X160336868Y-84201872D01*
X160344554Y-84009733D01*
X160334466Y-83898793D01*
X160306547Y-83869829D01*
X160282131Y-83879640D01*
X160197560Y-83950538D01*
X160132610Y-84078445D01*
X160083789Y-84272417D01*
X160047608Y-84541506D01*
X160024811Y-84740687D01*
X159982606Y-84966449D01*
X159918411Y-85128220D01*
X159819741Y-85238239D01*
X159674111Y-85308743D01*
X159469034Y-85351971D01*
X159192026Y-85380162D01*
X159092040Y-85389004D01*
X158820643Y-85428746D01*
X158614712Y-85489695D01*
X158460563Y-85576944D01*
X158430915Y-85607253D01*
X158344509Y-85695587D01*
X158286298Y-85825290D01*
X158253180Y-86018561D01*
X158248685Y-86252897D01*
X158001516Y-86252897D01*
X157992663Y-86164222D01*
X157829944Y-85218354D01*
X157801644Y-85086905D01*
X157741382Y-84824187D01*
X157674261Y-84555950D01*
X157596750Y-84269800D01*
X157505319Y-83953342D01*
X157405509Y-83624101D01*
X157686252Y-83624101D01*
X157687588Y-83644340D01*
X157708256Y-83763747D01*
X157749227Y-83935371D01*
X157804709Y-84140009D01*
X157868911Y-84358457D01*
X157936040Y-84571510D01*
X158000305Y-84759965D01*
X158055914Y-84904616D01*
X158097075Y-84986259D01*
X158127641Y-85024888D01*
X158268207Y-85136071D01*
X158430915Y-85167174D01*
X158616573Y-85118024D01*
X158825986Y-84988446D01*
X159059962Y-84778267D01*
X159249098Y-84561828D01*
X159418065Y-84321556D01*
X159558861Y-84073250D01*
X159665411Y-83830751D01*
X159731643Y-83607901D01*
X159751485Y-83418541D01*
X159718863Y-83276511D01*
X159695386Y-83240384D01*
X159597704Y-83172955D01*
X159450162Y-83160994D01*
X159244663Y-83203251D01*
X159225800Y-83208403D01*
X159083834Y-83238054D01*
X158885632Y-83269912D01*
X158654839Y-83300472D01*
X158415101Y-83326230D01*
X158377032Y-83329886D01*
X158341723Y-83333864D01*
X158145014Y-83356029D01*
X157953132Y-83384263D01*
X157816173Y-83412124D01*
X157748928Y-83437152D01*
X157703945Y-83512970D01*
X157686252Y-83624101D01*
X157405509Y-83624101D01*
X157396439Y-83594181D01*
X157266578Y-83179921D01*
X157112208Y-82698167D01*
X156964118Y-82234340D01*
X156837749Y-81825559D01*
X156733901Y-81472430D01*
X156649273Y-81162865D01*
X156580564Y-80884774D01*
X156524472Y-80626070D01*
X156477696Y-80374664D01*
X156468862Y-80319340D01*
X156715660Y-80319340D01*
X156729557Y-80412243D01*
X156816696Y-80501597D01*
X156854655Y-80523255D01*
X156970297Y-80553545D01*
X157131920Y-80547171D01*
X157149613Y-80544977D01*
X157307508Y-80513949D01*
X157461115Y-80457586D01*
X157633117Y-80365764D01*
X157846195Y-80228360D01*
X158072690Y-80074747D01*
X158157354Y-80179303D01*
X158178577Y-80207625D01*
X158222238Y-80313367D01*
X158219622Y-80453846D01*
X158219393Y-80455560D01*
X158156632Y-80627515D01*
X158017023Y-80778143D01*
X157799085Y-80908334D01*
X157501333Y-81018974D01*
X157122284Y-81110954D01*
X156994589Y-81138641D01*
X156917066Y-81168371D01*
X156885109Y-81210942D01*
X156878867Y-81280149D01*
X156882689Y-81335839D01*
X156905758Y-81387707D01*
X156961300Y-81420321D01*
X157062328Y-81437273D01*
X157221855Y-81442154D01*
X157452895Y-81438554D01*
X157513193Y-81437490D01*
X157773244Y-81447610D01*
X157959272Y-81488339D01*
X158077506Y-81566007D01*
X158134174Y-81686948D01*
X158135503Y-81857492D01*
X158087722Y-82083973D01*
X158056387Y-82199002D01*
X158015188Y-82358305D01*
X157994645Y-82461949D01*
X157993303Y-82526723D01*
X158009706Y-82569416D01*
X158042400Y-82606819D01*
X158042766Y-82607184D01*
X158161237Y-82665821D01*
X158341723Y-82669352D01*
X158582318Y-82618182D01*
X158881117Y-82512717D01*
X159236212Y-82353360D01*
X159447832Y-82240776D01*
X159658214Y-82101603D01*
X159806454Y-81967812D01*
X159886141Y-81845407D01*
X159890866Y-81740388D01*
X159888072Y-81733457D01*
X159806724Y-81637398D01*
X159646302Y-81535795D01*
X159411577Y-81431720D01*
X159373820Y-81415662D01*
X159231112Y-81316852D01*
X159151832Y-81190142D01*
X159146579Y-81050771D01*
X159182977Y-80960370D01*
X159252493Y-80828257D01*
X159339836Y-80683749D01*
X159347804Y-80671316D01*
X159423055Y-80541191D01*
X159469247Y-80437513D01*
X159476652Y-80381753D01*
X159468196Y-80362855D01*
X159492506Y-80363018D01*
X159529018Y-80350022D01*
X159576938Y-80278101D01*
X159623547Y-80169087D01*
X159658814Y-80046800D01*
X159672709Y-79935060D01*
X159671589Y-79909352D01*
X159620379Y-79743201D01*
X159501082Y-79572968D01*
X159407635Y-79489425D01*
X159907304Y-79489425D01*
X159913141Y-79671334D01*
X159920126Y-79702829D01*
X159951034Y-79818313D01*
X159997727Y-79978305D01*
X160053122Y-80158167D01*
X160056533Y-80168973D01*
X160122128Y-80385708D01*
X160173004Y-80579796D01*
X160210763Y-80766557D01*
X160237003Y-80961312D01*
X160253328Y-81179380D01*
X160261337Y-81436082D01*
X160262630Y-81746738D01*
X160258810Y-82126667D01*
X160255739Y-82418156D01*
X160255948Y-82754635D01*
X160261729Y-83016721D01*
X160273484Y-83210307D01*
X160291617Y-83341288D01*
X160316531Y-83415554D01*
X160348629Y-83439000D01*
X160358454Y-83436967D01*
X160378764Y-83413793D01*
X160395812Y-83358714D01*
X160410160Y-83264193D01*
X160422373Y-83122693D01*
X160433017Y-82926678D01*
X160442655Y-82668610D01*
X160451852Y-82340952D01*
X160461172Y-81936167D01*
X160466270Y-81633815D01*
X160468574Y-81152689D01*
X160463725Y-80697377D01*
X160452128Y-80277667D01*
X160434185Y-79903344D01*
X160410300Y-79584196D01*
X160380876Y-79330010D01*
X160346318Y-79150570D01*
X160325516Y-79086667D01*
X160258957Y-78985061D01*
X160176453Y-78963844D01*
X160084902Y-79022800D01*
X159991205Y-79161713D01*
X159942151Y-79291272D01*
X159907304Y-79489425D01*
X159407635Y-79489425D01*
X159325018Y-79415564D01*
X159243673Y-79354536D01*
X159141286Y-79262352D01*
X159089627Y-79179316D01*
X159092816Y-79097502D01*
X159154974Y-79008981D01*
X159280220Y-78905825D01*
X159472676Y-78780108D01*
X159736460Y-78623901D01*
X159846386Y-78559299D01*
X160004982Y-78456883D01*
X160104755Y-78369936D01*
X160156755Y-78283639D01*
X160172033Y-78183173D01*
X160161638Y-78053718D01*
X160159873Y-78040958D01*
X160132317Y-77896682D01*
X160088039Y-77715408D01*
X160032373Y-77514152D01*
X159970650Y-77309931D01*
X159908206Y-77119763D01*
X159850372Y-76960663D01*
X159802484Y-76849650D01*
X159769873Y-76803739D01*
X159768243Y-76803330D01*
X159724509Y-76834692D01*
X159661408Y-76929535D01*
X159588956Y-77072953D01*
X159526308Y-77203588D01*
X159335631Y-77519478D01*
X159119815Y-77762736D01*
X158872519Y-77941045D01*
X158623102Y-78118504D01*
X158372465Y-78377840D01*
X158359738Y-78393078D01*
X158199893Y-78572852D01*
X158059000Y-78697502D01*
X157911660Y-78781833D01*
X157732476Y-78840653D01*
X157496048Y-78888767D01*
X157457385Y-78895688D01*
X157218001Y-78948132D01*
X157035690Y-79005811D01*
X156919597Y-79065256D01*
X156878867Y-79122995D01*
X156908865Y-79165581D01*
X156988319Y-79215019D01*
X157021314Y-79227968D01*
X157105430Y-79240960D01*
X157219895Y-79228742D01*
X157389428Y-79189756D01*
X157494049Y-79164758D01*
X157677506Y-79139640D01*
X157798945Y-79163597D01*
X157867835Y-79244648D01*
X157893648Y-79390814D01*
X157885854Y-79610115D01*
X157868554Y-79724062D01*
X157785002Y-79922201D01*
X157638159Y-80064589D01*
X157428912Y-80150532D01*
X157158149Y-80179334D01*
X157070663Y-80181935D01*
X156923075Y-80196859D01*
X156818123Y-80220619D01*
X156774906Y-80242295D01*
X156718952Y-80315059D01*
X156715660Y-80319340D01*
X156468862Y-80319340D01*
X156458983Y-80257475D01*
X156420350Y-79960101D01*
X156387294Y-79631579D01*
X156378636Y-79518859D01*
X156361430Y-79294851D01*
X156344375Y-78972856D01*
X156337745Y-78688536D01*
X156343155Y-78464834D01*
X156352679Y-78317044D01*
X156585383Y-78317044D01*
X156621279Y-78439310D01*
X156631990Y-78452876D01*
X156718952Y-78483063D01*
X156861072Y-78456502D01*
X157053379Y-78374679D01*
X157290903Y-78239081D01*
X157328047Y-78216315D01*
X157537418Y-78100743D01*
X157763263Y-77992267D01*
X157962759Y-77911751D01*
X158007585Y-77895842D01*
X158167227Y-77832920D01*
X158294703Y-77773368D01*
X158365726Y-77728244D01*
X158383793Y-77703793D01*
X158437968Y-77606492D01*
X158512929Y-77454423D01*
X158601281Y-77262849D01*
X158695633Y-77047037D01*
X158745457Y-76930931D01*
X158837194Y-76721784D01*
X158918344Y-76542517D01*
X158981561Y-76409212D01*
X159019500Y-76337953D01*
X159110115Y-76263272D01*
X159258735Y-76244347D01*
X159457044Y-76289562D01*
X159469861Y-76293929D01*
X159562376Y-76318866D01*
X159609398Y-76319914D01*
X159606350Y-76283164D01*
X159570745Y-76183681D01*
X159507345Y-76037171D01*
X159423241Y-75858229D01*
X159325526Y-75661454D01*
X159221290Y-75461442D01*
X159117625Y-75272789D01*
X159021623Y-75110093D01*
X158974234Y-75034384D01*
X158849353Y-74845888D01*
X158748543Y-74717622D01*
X158669469Y-74652619D01*
X158609797Y-74653912D01*
X158567195Y-74724534D01*
X158539328Y-74867518D01*
X158523862Y-75085897D01*
X158518463Y-75382705D01*
X158520798Y-75760973D01*
X158523769Y-76029294D01*
X158524715Y-76275661D01*
X158522384Y-76456145D01*
X158516232Y-76580890D01*
X158505719Y-76660039D01*
X158490302Y-76703738D01*
X158469439Y-76722131D01*
X158425354Y-76724806D01*
X158345917Y-76669225D01*
X158266711Y-76547057D01*
X158192963Y-76369507D01*
X158129900Y-76147781D01*
X158082748Y-75893084D01*
X158070782Y-75826189D01*
X158040929Y-75729856D01*
X158009202Y-75692000D01*
X157966150Y-75710820D01*
X157875592Y-75772167D01*
X157762997Y-75861334D01*
X157667163Y-75939808D01*
X157580572Y-76005450D01*
X157538022Y-76030667D01*
X157518221Y-76016652D01*
X157515873Y-75934491D01*
X157550288Y-75778235D01*
X157621623Y-75547238D01*
X157730036Y-75240850D01*
X157792248Y-75067162D01*
X157898739Y-74727806D01*
X157961157Y-74445956D01*
X157979800Y-74211591D01*
X157954966Y-74014689D01*
X157886952Y-73845230D01*
X157776058Y-73693191D01*
X157726732Y-73641488D01*
X157528705Y-73485231D01*
X157324446Y-73394413D01*
X157125864Y-73369105D01*
X156944864Y-73409373D01*
X156793353Y-73515287D01*
X156683237Y-73686915D01*
X156679661Y-73695621D01*
X156627488Y-73923612D01*
X156652700Y-74140709D01*
X156750969Y-74332221D01*
X156917965Y-74483458D01*
X156918347Y-74483699D01*
X157026976Y-74562394D01*
X157077578Y-74635018D01*
X157089604Y-74729448D01*
X157086801Y-74768805D01*
X157056867Y-74907566D01*
X157004937Y-75051040D01*
X156961768Y-75171722D01*
X156926796Y-75369402D01*
X156929035Y-75558175D01*
X156970220Y-75705367D01*
X156976370Y-75716035D01*
X157037107Y-75800424D01*
X157134388Y-75919767D01*
X157250248Y-76051834D01*
X157262727Y-76065692D01*
X157385573Y-76215415D01*
X157492312Y-76366870D01*
X157561062Y-76489260D01*
X157582187Y-76544742D01*
X157629205Y-76764803D01*
X157640967Y-77013461D01*
X157617547Y-77255492D01*
X157559018Y-77455670D01*
X157507238Y-77553109D01*
X157348971Y-77757605D01*
X157151808Y-77926339D01*
X156941329Y-78035305D01*
X156874597Y-78060195D01*
X156745880Y-78119757D01*
X156660126Y-78174902D01*
X156632620Y-78203400D01*
X156585383Y-78317044D01*
X156352679Y-78317044D01*
X156364980Y-78126167D01*
X156299487Y-78486000D01*
X156271966Y-78683422D01*
X156249729Y-78965758D01*
X156235657Y-79321456D01*
X156229450Y-79756000D01*
X156228589Y-79933564D01*
X156228442Y-80147630D01*
X156230899Y-80338203D01*
X156237518Y-80514067D01*
X156249861Y-80684008D01*
X156269486Y-80856814D01*
X156297955Y-81041269D01*
X156336826Y-81246159D01*
X156387661Y-81480271D01*
X156452018Y-81752391D01*
X156531459Y-82071305D01*
X156627543Y-82445798D01*
X156741830Y-82884657D01*
X156875880Y-83396667D01*
X156971162Y-83774750D01*
X157181162Y-84759431D01*
X157325176Y-85710742D01*
X157404043Y-86641957D01*
X157418602Y-87566347D01*
X157369690Y-88497185D01*
X157258147Y-89447743D01*
X157207329Y-89764392D01*
X157126902Y-90197257D01*
X157034329Y-90636590D01*
X156933918Y-91064271D01*
X156829976Y-91462176D01*
X156726810Y-91812182D01*
X156628727Y-92096167D01*
X156374905Y-92677648D01*
X156040705Y-93270561D01*
X155915806Y-93441721D01*
X155655868Y-93797936D01*
X155221565Y-94258380D01*
X154738971Y-94650497D01*
X154209258Y-94972893D01*
X154131095Y-95010058D01*
X153940065Y-95100889D01*
X153395951Y-95292945D01*
X153254864Y-95321624D01*
X152841683Y-95405613D01*
X152344479Y-95436881D01*
X152284403Y-95440659D01*
X151731251Y-95399846D01*
X151189367Y-95284938D01*
X150665893Y-95097701D01*
X150167969Y-94839899D01*
X149702735Y-94513296D01*
X149277333Y-94119656D01*
X148898904Y-93660745D01*
X148870913Y-93621458D01*
X148668012Y-93312097D01*
X148497066Y-92998148D01*
X148344876Y-92653034D01*
X148198238Y-92250177D01*
X148175344Y-92181936D01*
X148104726Y-91964480D01*
X148060681Y-91806918D01*
X148041620Y-91693526D01*
X148045952Y-91608584D01*
X148072088Y-91536372D01*
X148118437Y-91461167D01*
X148139845Y-91427884D01*
X148209797Y-91308011D01*
X148297163Y-91148412D01*
X148387963Y-90974334D01*
X148500648Y-90742855D01*
X148621437Y-90462850D01*
X148724441Y-90178363D01*
X148727269Y-90168684D01*
X149011807Y-90168684D01*
X149013940Y-90343353D01*
X149048834Y-90508729D01*
X149119449Y-90689621D01*
X149228741Y-90910834D01*
X149294157Y-91037593D01*
X149367643Y-91188178D01*
X149412107Y-91301806D01*
X149434000Y-91401549D01*
X149439772Y-91510479D01*
X149435875Y-91651667D01*
X149432335Y-91739658D01*
X149422191Y-92011468D01*
X149419419Y-92221618D01*
X149428114Y-92388129D01*
X149452368Y-92529022D01*
X149496276Y-92662317D01*
X149563930Y-92806037D01*
X149659425Y-92978202D01*
X149786853Y-93196834D01*
X149801144Y-93221646D01*
X149901744Y-93434350D01*
X149933225Y-93602763D01*
X149893814Y-93733467D01*
X149781737Y-93833043D01*
X149595222Y-93908071D01*
X149410990Y-93961412D01*
X149726512Y-94228133D01*
X150068438Y-94491421D01*
X150554620Y-94782190D01*
X151071151Y-94997294D01*
X151627442Y-95141252D01*
X151772329Y-95165257D01*
X152061388Y-95195691D01*
X152344479Y-95205363D01*
X152596341Y-95193852D01*
X152791714Y-95160734D01*
X152941447Y-95097848D01*
X153094334Y-94980466D01*
X153199240Y-94835981D01*
X153238200Y-94683591D01*
X153225898Y-94529176D01*
X153176995Y-94373618D01*
X153081752Y-94222987D01*
X152930601Y-94062573D01*
X152713974Y-93877668D01*
X152523795Y-93715014D01*
X153761881Y-93715014D01*
X153767881Y-93991408D01*
X153806848Y-94245792D01*
X153877443Y-94458982D01*
X153978322Y-94611791D01*
X153987237Y-94620696D01*
X154059705Y-94679990D01*
X154131095Y-94692163D01*
X154241370Y-94665352D01*
X154415877Y-94586250D01*
X154615282Y-94449782D01*
X154804312Y-94279442D01*
X154956824Y-94096035D01*
X155047175Y-93937679D01*
X155130858Y-93695733D01*
X155165937Y-93444204D01*
X155155694Y-93195989D01*
X155103410Y-92963984D01*
X155012368Y-92761086D01*
X154885848Y-92600192D01*
X154727133Y-92494198D01*
X154539503Y-92456000D01*
X154456177Y-92460431D01*
X154370212Y-92486552D01*
X154282453Y-92549021D01*
X154166809Y-92662280D01*
X154004997Y-92865295D01*
X153873840Y-93117363D01*
X153854151Y-93172943D01*
X153790191Y-93435798D01*
X153761881Y-93715014D01*
X152523795Y-93715014D01*
X152299851Y-93523482D01*
X151867414Y-93085241D01*
X151504944Y-92627213D01*
X151204386Y-92137624D01*
X150957685Y-91604700D01*
X150843565Y-91270667D01*
X151810657Y-91270667D01*
X151813916Y-91365227D01*
X151859656Y-91586186D01*
X151950368Y-91843044D01*
X152077688Y-92118599D01*
X152233256Y-92395651D01*
X152408708Y-92657000D01*
X152595683Y-92885444D01*
X152765027Y-93047824D01*
X152942187Y-93180301D01*
X153110532Y-93272968D01*
X153254864Y-93317471D01*
X153359983Y-93305459D01*
X153404081Y-93270586D01*
X153463418Y-93144596D01*
X153480109Y-92946266D01*
X153454066Y-92676191D01*
X153440556Y-92573585D01*
X153434181Y-92302457D01*
X153478115Y-92034330D01*
X153576534Y-91737178D01*
X153609996Y-91640302D01*
X153660112Y-91395990D01*
X153669773Y-91149335D01*
X153640780Y-90920388D01*
X153574935Y-90729201D01*
X153474037Y-90595826D01*
X153414298Y-90573233D01*
X153314536Y-90601063D01*
X153209757Y-90686379D01*
X153117731Y-90818093D01*
X153102257Y-90845421D01*
X153016079Y-90969814D01*
X152914350Y-91089628D01*
X152800292Y-91180980D01*
X152657113Y-91226082D01*
X152539700Y-91216990D01*
X152481944Y-91212518D01*
X152259111Y-91141530D01*
X152169955Y-91110362D01*
X152030434Y-91075611D01*
X151929461Y-91067446D01*
X151908257Y-91070328D01*
X151849731Y-91092954D01*
X151821930Y-91151637D01*
X151810657Y-91270667D01*
X150843565Y-91270667D01*
X150756788Y-91016667D01*
X150722757Y-90879763D01*
X150687944Y-90702109D01*
X150656022Y-90506065D01*
X150629073Y-90308572D01*
X150609177Y-90126573D01*
X150598416Y-89977007D01*
X150598870Y-89876817D01*
X150612620Y-89842944D01*
X150644807Y-89839674D01*
X150725314Y-89817173D01*
X150769307Y-89810799D01*
X150906165Y-89830998D01*
X151100771Y-89893453D01*
X151103516Y-89894485D01*
X151327842Y-89967774D01*
X151499589Y-89995270D01*
X151636803Y-89977575D01*
X151757534Y-89915288D01*
X151805879Y-89876294D01*
X151857898Y-89815026D01*
X151902032Y-89730099D01*
X151912258Y-89699320D01*
X152237807Y-89699320D01*
X152242488Y-89928985D01*
X152256224Y-90109467D01*
X152279483Y-90223318D01*
X152292775Y-90257604D01*
X152366006Y-90405784D01*
X152444347Y-90485122D01*
X152539700Y-90508667D01*
X152576167Y-90507376D01*
X152651879Y-90486936D01*
X152693117Y-90432605D01*
X152701719Y-90332803D01*
X152679524Y-90175952D01*
X152628373Y-89950473D01*
X152556058Y-89606691D01*
X152491519Y-89180969D01*
X152449116Y-88751491D01*
X152433867Y-88359293D01*
X152433867Y-88358574D01*
X152430565Y-88222311D01*
X152421962Y-88131408D01*
X152409913Y-88105510D01*
X152406441Y-88111138D01*
X152385594Y-88178990D01*
X152357344Y-88303141D01*
X152326773Y-88461816D01*
X152300270Y-88637725D01*
X152273413Y-88889673D01*
X152253738Y-89162218D01*
X152241713Y-89437916D01*
X152237807Y-89699320D01*
X151912258Y-89699320D01*
X151942112Y-89609462D01*
X151981971Y-89441065D01*
X152025441Y-89212856D01*
X152076355Y-88912785D01*
X152086204Y-88852199D01*
X152142563Y-88461991D01*
X152173302Y-88146565D01*
X152177832Y-87900545D01*
X152155566Y-87718555D01*
X152105916Y-87595218D01*
X152073121Y-87565619D01*
X152028292Y-87525159D01*
X151922107Y-87503000D01*
X151831480Y-87510261D01*
X151728613Y-87538060D01*
X151607683Y-87592821D01*
X151456608Y-87680941D01*
X151263308Y-87808815D01*
X151015700Y-87982838D01*
X150909145Y-88058517D01*
X150612910Y-88262373D01*
X150379837Y-88411006D01*
X150209692Y-88504038D01*
X150102245Y-88541087D01*
X150057263Y-88521775D01*
X150074513Y-88445721D01*
X150153764Y-88312547D01*
X150294784Y-88121871D01*
X150497341Y-87873316D01*
X150761201Y-87566500D01*
X150880545Y-87428408D01*
X151095422Y-87166400D01*
X151250293Y-86955777D01*
X151344037Y-86798127D01*
X151375534Y-86695041D01*
X151370921Y-86674953D01*
X151308625Y-86606346D01*
X151186239Y-86534345D01*
X151170715Y-86526942D01*
X151019661Y-86436896D01*
X150923340Y-86332500D01*
X150880273Y-86202587D01*
X150888985Y-86035989D01*
X150947999Y-85821538D01*
X151055838Y-85548065D01*
X151117936Y-85393537D01*
X151184743Y-85170898D01*
X151196349Y-85012003D01*
X151152283Y-84916163D01*
X151052073Y-84882685D01*
X150895246Y-84910881D01*
X150681332Y-85000059D01*
X150614204Y-85035609D01*
X150382385Y-85187980D01*
X150284611Y-85267463D01*
X150144543Y-85381327D01*
X149928807Y-85591330D01*
X149763310Y-85793670D01*
X149717928Y-85866084D01*
X149617306Y-86083970D01*
X149530726Y-86363723D01*
X149456908Y-86710924D01*
X149394573Y-87131156D01*
X149342443Y-87630000D01*
X149337894Y-87681540D01*
X149284975Y-88247878D01*
X149233775Y-88732524D01*
X149183962Y-89138200D01*
X149135205Y-89467624D01*
X149087172Y-89723518D01*
X149039479Y-89959917D01*
X149011807Y-90168684D01*
X148727269Y-90168684D01*
X148812223Y-89877938D01*
X148887345Y-89550122D01*
X148952370Y-89183457D01*
X149009861Y-88766491D01*
X149062381Y-88287768D01*
X149112492Y-87735834D01*
X149152961Y-87306900D01*
X149214316Y-86813929D01*
X149287299Y-86389400D01*
X149374132Y-86024319D01*
X149477036Y-85709693D01*
X149598233Y-85436529D01*
X149739944Y-85195834D01*
X149825208Y-85068834D01*
X149729749Y-85152002D01*
X149716401Y-85164153D01*
X149609401Y-85287045D01*
X149485887Y-85462476D01*
X149359743Y-85668028D01*
X149244853Y-85881283D01*
X149155103Y-86079823D01*
X149118299Y-86180614D01*
X149106301Y-86213471D01*
X149009057Y-86542808D01*
X148914227Y-86950714D01*
X148821367Y-87439220D01*
X148730028Y-88010356D01*
X148671801Y-88390864D01*
X148599076Y-88822751D01*
X148528044Y-89189055D01*
X148456180Y-89500470D01*
X148416152Y-89642671D01*
X148380960Y-89767692D01*
X148299860Y-90001415D01*
X148210356Y-90212334D01*
X148087235Y-90448014D01*
X147835454Y-90819611D01*
X147536560Y-91154345D01*
X147366983Y-91299875D01*
X147203367Y-91440290D01*
X146848684Y-91665521D01*
X146485324Y-91818111D01*
X146321084Y-91854962D01*
X146088249Y-91907204D01*
X145656123Y-91930262D01*
X145642944Y-91930965D01*
X145202819Y-91878542D01*
X144773592Y-91754316D01*
X144360983Y-91562671D01*
X143970710Y-91307988D01*
X143608493Y-90994651D01*
X143280050Y-90627042D01*
X142991101Y-90209544D01*
X142747365Y-89746540D01*
X142554561Y-89242411D01*
X142418407Y-88701541D01*
X142376802Y-88406318D01*
X142352278Y-88007475D01*
X142352866Y-87894203D01*
X142585327Y-87894203D01*
X142590313Y-88203135D01*
X142614087Y-88455500D01*
X142634820Y-88576534D01*
X142760782Y-89086786D01*
X142942892Y-89585172D01*
X143171812Y-90049029D01*
X143438205Y-90455694D01*
X143642327Y-90695370D01*
X143982545Y-91008922D01*
X144363507Y-91277766D01*
X144766300Y-91489088D01*
X145172011Y-91630080D01*
X145245791Y-91646748D01*
X145447091Y-91677059D01*
X145656123Y-91691460D01*
X145850201Y-91689772D01*
X146006635Y-91671816D01*
X146102740Y-91637413D01*
X146129582Y-91616104D01*
X146146923Y-91581021D01*
X146112091Y-91537371D01*
X146015581Y-91466517D01*
X145945810Y-91418837D01*
X145791892Y-91316538D01*
X145639367Y-91217970D01*
X145613581Y-91200969D01*
X145472884Y-91094795D01*
X145311661Y-90957287D01*
X145193894Y-90845884D01*
X145159922Y-90813748D01*
X144992475Y-90632359D01*
X144695152Y-90239307D01*
X144646986Y-90157604D01*
X145618614Y-90157604D01*
X145619657Y-90208640D01*
X145661599Y-90481267D01*
X145759708Y-90709036D01*
X145906989Y-90883201D01*
X146096446Y-90995019D01*
X146321084Y-91035744D01*
X146349164Y-91035535D01*
X146545832Y-90999858D01*
X146681862Y-90909395D01*
X146752738Y-90772250D01*
X146753940Y-90596525D01*
X146680951Y-90390326D01*
X146583066Y-90162434D01*
X146580173Y-90148834D01*
X147061586Y-90148834D01*
X147064900Y-90270541D01*
X147094540Y-90542268D01*
X147154610Y-90735650D01*
X147245345Y-90851258D01*
X147366983Y-90889667D01*
X147385569Y-90888114D01*
X147492544Y-90835037D01*
X147614885Y-90715285D01*
X147745171Y-90540931D01*
X147875980Y-90324048D01*
X147999891Y-90076709D01*
X148109482Y-89810985D01*
X148197332Y-89538950D01*
X148236504Y-89377184D01*
X148257565Y-89190143D01*
X148229379Y-89068011D01*
X148148200Y-89005968D01*
X148010282Y-88999191D01*
X147811877Y-89042858D01*
X147800172Y-89046353D01*
X147533184Y-89169051D01*
X147315382Y-89355356D01*
X147158320Y-89595501D01*
X147132169Y-89654814D01*
X147087455Y-89792520D01*
X147065918Y-89945803D01*
X147061586Y-90148834D01*
X146580173Y-90148834D01*
X146530908Y-89917214D01*
X146550682Y-89700071D01*
X146577405Y-89627633D01*
X146633551Y-89532867D01*
X146725204Y-89417035D01*
X146861708Y-89268508D01*
X147052408Y-89075654D01*
X147156076Y-88971244D01*
X147378804Y-88728857D01*
X147542776Y-88515560D01*
X147656153Y-88318066D01*
X147727093Y-88123088D01*
X147763759Y-87917337D01*
X147770340Y-87828987D01*
X147758615Y-87660881D01*
X147703821Y-87497491D01*
X147632602Y-87361623D01*
X147536805Y-87220673D01*
X147436714Y-87104540D01*
X147346895Y-87029931D01*
X147281914Y-87013553D01*
X147254399Y-87019384D01*
X147248911Y-86993582D01*
X147252578Y-86980965D01*
X147216676Y-86931215D01*
X147207193Y-86925611D01*
X147152410Y-86893235D01*
X147996529Y-86893235D01*
X148015361Y-87100834D01*
X148025100Y-87149979D01*
X148049505Y-87272390D01*
X148078710Y-87418334D01*
X148096409Y-87494085D01*
X148142600Y-87650330D01*
X148201746Y-87820851D01*
X148266260Y-87986614D01*
X148328557Y-88128583D01*
X148381050Y-88227724D01*
X148416152Y-88265000D01*
X148429450Y-88262124D01*
X148442163Y-88245349D01*
X148455433Y-88203024D01*
X148471602Y-88123505D01*
X148493013Y-87995147D01*
X148522009Y-87806304D01*
X148560931Y-87545334D01*
X148574673Y-87457477D01*
X148622302Y-87189307D01*
X148678992Y-86906140D01*
X148735260Y-86656334D01*
X148793134Y-86376239D01*
X148829881Y-86084227D01*
X148838082Y-85824329D01*
X148819178Y-85604908D01*
X148774612Y-85434327D01*
X148705825Y-85320951D01*
X148614258Y-85273143D01*
X148501353Y-85299267D01*
X148499243Y-85300432D01*
X148424830Y-85375565D01*
X148338890Y-85513251D01*
X148249929Y-85694462D01*
X148166455Y-85900168D01*
X148096973Y-86111342D01*
X148049991Y-86308955D01*
X148045961Y-86331952D01*
X148007061Y-86629355D01*
X147996529Y-86893235D01*
X147152410Y-86893235D01*
X147120381Y-86874306D01*
X146981215Y-86816799D01*
X146816697Y-86765254D01*
X146644348Y-86726230D01*
X146481687Y-86706290D01*
X146465820Y-86705482D01*
X146228653Y-86710220D01*
X146048912Y-86755637D01*
X145919056Y-86850067D01*
X145831538Y-87001841D01*
X145778817Y-87219292D01*
X145753348Y-87510752D01*
X145751093Y-87566700D01*
X145748576Y-87769811D01*
X145761430Y-87936530D01*
X145794395Y-88105431D01*
X145852212Y-88315085D01*
X145917507Y-88540109D01*
X145990757Y-88816281D01*
X146035213Y-89034265D01*
X146050510Y-89207004D01*
X146036278Y-89347444D01*
X145992150Y-89468527D01*
X145917758Y-89583198D01*
X145812735Y-89704401D01*
X145788088Y-89730849D01*
X145693536Y-89839602D01*
X145642749Y-89926023D01*
X145622263Y-90021545D01*
X145618614Y-90157604D01*
X144646986Y-90157604D01*
X144437992Y-89803091D01*
X144223454Y-89334878D01*
X144053996Y-88845834D01*
X143932079Y-88347127D01*
X143860162Y-87849923D01*
X143856031Y-87747064D01*
X144520557Y-87747064D01*
X144540697Y-88079896D01*
X144597687Y-88370834D01*
X144623077Y-88451960D01*
X144706414Y-88670070D01*
X144806184Y-88881395D01*
X144913601Y-89071276D01*
X145019882Y-89225054D01*
X145116241Y-89328071D01*
X145193894Y-89365667D01*
X145239129Y-89340794D01*
X145280990Y-89244191D01*
X145305732Y-89085770D01*
X145313480Y-88877298D01*
X145304359Y-88630536D01*
X145278494Y-88357251D01*
X145236010Y-88069207D01*
X145177031Y-87778167D01*
X145115970Y-87484132D01*
X145072390Y-87149397D01*
X145070970Y-86859883D01*
X145111918Y-86599434D01*
X145195443Y-86351893D01*
X145261636Y-86186543D01*
X145354906Y-85910985D01*
X145425094Y-85646537D01*
X145469957Y-85406459D01*
X145487250Y-85204010D01*
X145474730Y-85052448D01*
X145430152Y-84965035D01*
X145422263Y-84959211D01*
X145329422Y-84946000D01*
X145200959Y-84995432D01*
X145048325Y-85101381D01*
X144882970Y-85257723D01*
X144729563Y-85449291D01*
X144642213Y-85637363D01*
X144614194Y-85846643D01*
X144638153Y-86102503D01*
X144645405Y-86147351D01*
X144677263Y-86401508D01*
X144681533Y-86613874D01*
X144656939Y-86818042D01*
X144602200Y-87047602D01*
X144590358Y-87092824D01*
X144537150Y-87406614D01*
X144520557Y-87747064D01*
X143856031Y-87747064D01*
X143840703Y-87365389D01*
X143876163Y-86904692D01*
X143969001Y-86478999D01*
X144121675Y-86099476D01*
X144126554Y-86090037D01*
X144184465Y-85961891D01*
X144222920Y-85830585D01*
X144247934Y-85668954D01*
X144265520Y-85449834D01*
X144284248Y-85236908D01*
X144328050Y-85003548D01*
X144400819Y-84818490D01*
X144498751Y-84679217D01*
X145753376Y-84679217D01*
X145753827Y-84766632D01*
X145799226Y-84793045D01*
X145889505Y-84761020D01*
X146024599Y-84673120D01*
X146039992Y-84661732D01*
X146285144Y-84443648D01*
X146535569Y-84158244D01*
X146781906Y-83820518D01*
X147014795Y-83445468D01*
X147224875Y-83048091D01*
X147402786Y-82643385D01*
X147539167Y-82246350D01*
X147570453Y-82131733D01*
X147670326Y-81604943D01*
X147709407Y-81055406D01*
X147689064Y-80500722D01*
X147610667Y-79958492D01*
X147475585Y-79446316D01*
X147285187Y-78981795D01*
X147122106Y-78673631D01*
X146946242Y-78389800D01*
X146781793Y-78183325D01*
X146625208Y-78051320D01*
X146472933Y-77990897D01*
X146321415Y-77999169D01*
X146167102Y-78073250D01*
X146059252Y-78170634D01*
X145948966Y-78333625D01*
X145865553Y-78528361D01*
X145811885Y-78737506D01*
X145790833Y-78943722D01*
X145805269Y-79129674D01*
X145858064Y-79278026D01*
X145952090Y-79371440D01*
X145961580Y-79375510D01*
X146049419Y-79396799D01*
X146190468Y-79418999D01*
X146359034Y-79437914D01*
X146424756Y-79444394D01*
X146673846Y-79482321D01*
X146858132Y-79539271D01*
X146993244Y-79621566D01*
X147094815Y-79735529D01*
X147108477Y-79756191D01*
X147147559Y-79829154D01*
X147175990Y-79916978D01*
X147197120Y-80037105D01*
X147214298Y-80206974D01*
X147230875Y-80444025D01*
X147231335Y-80451310D01*
X147248451Y-80685727D01*
X147268871Y-80911880D01*
X147290072Y-81104338D01*
X147309536Y-81237667D01*
X147325653Y-81335625D01*
X147337869Y-81537918D01*
X147308083Y-81714688D01*
X147229086Y-81883905D01*
X147093664Y-82063538D01*
X146894605Y-82271559D01*
X146785285Y-82379840D01*
X146678855Y-82494973D01*
X146603027Y-82599901D01*
X146544562Y-82717592D01*
X146490220Y-82871011D01*
X146426762Y-83083126D01*
X146411397Y-83131736D01*
X146348199Y-83301425D01*
X146259230Y-83515147D01*
X146154077Y-83750418D01*
X146042327Y-83984751D01*
X146022363Y-84025311D01*
X145887577Y-84311121D01*
X145797937Y-84528235D01*
X145753376Y-84679217D01*
X144498751Y-84679217D01*
X144511290Y-84661384D01*
X144668201Y-84511882D01*
X144846013Y-84362597D01*
X144998181Y-84230357D01*
X145105789Y-84128694D01*
X145180418Y-84045751D01*
X145233648Y-83969675D01*
X145277060Y-83888610D01*
X145342574Y-83712764D01*
X145357455Y-83520576D01*
X145297989Y-83363309D01*
X145281957Y-83339595D01*
X145250239Y-83276830D01*
X145247556Y-83218776D01*
X145281510Y-83157987D01*
X145359700Y-83087017D01*
X145489728Y-82998419D01*
X145679195Y-82884747D01*
X145935700Y-82738554D01*
X145963608Y-82722592D01*
X146185581Y-82571400D01*
X146324444Y-82422196D01*
X146381451Y-82271902D01*
X146357859Y-82117441D01*
X146254921Y-81955735D01*
X146220652Y-81913502D01*
X146154846Y-81816582D01*
X146127921Y-81751003D01*
X146133609Y-81732815D01*
X146184606Y-81658072D01*
X146277249Y-81549545D01*
X146397751Y-81423947D01*
X146564590Y-81243834D01*
X146732667Y-81013682D01*
X146837141Y-80800634D01*
X146875848Y-80611447D01*
X146846627Y-80452878D01*
X146747314Y-80331686D01*
X146677192Y-80288450D01*
X146589512Y-80261004D01*
X146465704Y-80249216D01*
X146281647Y-80248794D01*
X146220312Y-80250768D01*
X145960139Y-80274750D01*
X145683067Y-80320465D01*
X145414488Y-80382289D01*
X145179791Y-80454596D01*
X145004367Y-80531761D01*
X144835034Y-80627597D01*
X144849201Y-81112549D01*
X144849832Y-81386344D01*
X144816595Y-81786328D01*
X144736191Y-82176039D01*
X144602702Y-82590975D01*
X144596046Y-82608879D01*
X144473158Y-82907241D01*
X144311610Y-83253989D01*
X144121159Y-83629818D01*
X143911563Y-84015423D01*
X143692581Y-84391500D01*
X143564304Y-84607330D01*
X143314924Y-85055061D01*
X143112654Y-85466332D01*
X142949951Y-85858578D01*
X142819274Y-86249235D01*
X142713079Y-86655739D01*
X142668987Y-86884573D01*
X142626075Y-87209266D01*
X142597718Y-87554362D01*
X142585327Y-87894203D01*
X142352866Y-87894203D01*
X142354469Y-87585581D01*
X142383060Y-87171630D01*
X142437736Y-86796619D01*
X142544708Y-86334981D01*
X142694355Y-85858857D01*
X142887853Y-85381645D01*
X143132375Y-84885771D01*
X143435097Y-84353664D01*
X143552648Y-84156349D01*
X143833167Y-83666776D01*
X144064190Y-83230396D01*
X144248978Y-82838432D01*
X144390797Y-82482108D01*
X144492909Y-82152646D01*
X144558577Y-81841270D01*
X144591064Y-81539203D01*
X144593635Y-81237667D01*
X144585309Y-81069145D01*
X144564151Y-80872492D01*
X144524871Y-80706881D01*
X144459128Y-80540510D01*
X144358581Y-80341576D01*
X144378572Y-80323243D01*
X144461684Y-80293716D01*
X144589253Y-80262647D01*
X144690534Y-80238170D01*
X144855726Y-80185766D01*
X144983200Y-80130807D01*
X145023057Y-80107766D01*
X145063860Y-80075889D01*
X145036696Y-80074822D01*
X145020218Y-80078305D01*
X144915946Y-80089541D01*
X144761513Y-80097627D01*
X144583894Y-80101003D01*
X144472120Y-80098988D01*
X144413555Y-80091375D01*
X144044998Y-80043468D01*
X143650363Y-79910789D01*
X143284376Y-79699326D01*
X142943200Y-79407458D01*
X142786940Y-79238135D01*
X142598224Y-78980927D01*
X142455488Y-78701600D01*
X142349054Y-78379876D01*
X142269243Y-77995476D01*
X142246432Y-77869458D01*
X142186294Y-77600912D01*
X142102272Y-77289663D01*
X141991110Y-76924049D01*
X141849550Y-76492406D01*
X141786059Y-76301893D01*
X141694570Y-76019945D01*
X141613382Y-75761005D01*
X141610189Y-75750366D01*
X142024473Y-75750366D01*
X142030782Y-75949630D01*
X142049135Y-76094167D01*
X142058536Y-76131553D01*
X142088658Y-76245388D01*
X142134238Y-76414593D01*
X142191031Y-76623432D01*
X142254789Y-76856167D01*
X142283132Y-76961302D01*
X142353185Y-77237260D01*
X142417930Y-77513217D01*
X142471173Y-77762100D01*
X142506714Y-77956834D01*
X142567443Y-78260020D01*
X142694029Y-78636486D01*
X142872769Y-78959537D01*
X143109040Y-79240635D01*
X143259630Y-79376945D01*
X143542254Y-79575393D01*
X143835462Y-79717287D01*
X144129236Y-79802108D01*
X144413555Y-79829336D01*
X144678403Y-79798453D01*
X144913761Y-79708939D01*
X145109610Y-79560274D01*
X145255932Y-79351939D01*
X145287068Y-79267398D01*
X145327511Y-79086809D01*
X145361949Y-78848745D01*
X145388218Y-78569095D01*
X145404155Y-78263750D01*
X145408104Y-78235605D01*
X145465696Y-78133820D01*
X145567826Y-78053158D01*
X145683803Y-78020334D01*
X145824312Y-77996188D01*
X145988946Y-77894522D01*
X146126492Y-77717567D01*
X146143646Y-77686623D01*
X146197748Y-77560718D01*
X146224571Y-77422007D01*
X146231870Y-77234972D01*
X146231871Y-77233351D01*
X146226554Y-77067154D01*
X146204570Y-76932987D01*
X146156995Y-76795948D01*
X146074902Y-76621138D01*
X146044377Y-76561757D01*
X145922381Y-76350906D01*
X145787217Y-76149636D01*
X145651487Y-75974560D01*
X145527797Y-75842291D01*
X145428750Y-75769443D01*
X145286891Y-75741261D01*
X145157929Y-75791990D01*
X145047868Y-75919781D01*
X144959536Y-76121324D01*
X144895763Y-76393307D01*
X144873759Y-76556799D01*
X144870566Y-76721928D01*
X144895700Y-76866809D01*
X144908546Y-76909716D01*
X144966077Y-77018482D01*
X145040182Y-77045853D01*
X145132888Y-76991769D01*
X145246222Y-76856167D01*
X145303820Y-76780576D01*
X145381131Y-76697827D01*
X145432777Y-76665667D01*
X145511344Y-76701497D01*
X145585577Y-76794783D01*
X145637742Y-76918203D01*
X145652010Y-77044411D01*
X145646919Y-77094929D01*
X145625256Y-77165060D01*
X145568733Y-77199420D01*
X145452625Y-77219753D01*
X145433594Y-77222500D01*
X145273962Y-77272725D01*
X145145708Y-77379171D01*
X145137889Y-77387957D01*
X145061382Y-77485675D01*
X145032745Y-77569823D01*
X145049525Y-77669705D01*
X145109271Y-77814628D01*
X145180791Y-78032530D01*
X145180077Y-78220421D01*
X145104641Y-78377620D01*
X144987061Y-78490194D01*
X144836324Y-78548636D01*
X144679083Y-78525110D01*
X144644921Y-78510218D01*
X144597076Y-78477574D01*
X144571679Y-78423881D01*
X144561639Y-78327935D01*
X144559867Y-78168535D01*
X144559113Y-78107397D01*
X144531546Y-77845135D01*
X144459041Y-77631512D01*
X144334394Y-77443361D01*
X144273295Y-77364419D01*
X144209240Y-77234315D01*
X144209864Y-77104171D01*
X144271302Y-76943341D01*
X144280908Y-76923358D01*
X144327490Y-76807009D01*
X144332563Y-76718525D01*
X144287467Y-76641691D01*
X144183538Y-76560291D01*
X144012116Y-76458110D01*
X143973932Y-76436061D01*
X143811760Y-76326236D01*
X143722922Y-76226111D01*
X143700529Y-76124438D01*
X143737695Y-76009971D01*
X143773813Y-75912908D01*
X143796445Y-75735190D01*
X143784791Y-75536565D01*
X143744040Y-75334617D01*
X143679385Y-75146935D01*
X143596017Y-74991103D01*
X143499126Y-74884707D01*
X143393905Y-74845334D01*
X143303493Y-74874081D01*
X143224146Y-74976630D01*
X143213343Y-74998406D01*
X143174729Y-75106955D01*
X143157956Y-75235845D01*
X143161794Y-75405862D01*
X143185012Y-75637790D01*
X143195468Y-75880318D01*
X143167671Y-76150415D01*
X143156284Y-76211275D01*
X143138067Y-76371650D01*
X143156115Y-76473145D01*
X143216603Y-76531923D01*
X143325705Y-76564147D01*
X143471776Y-76602659D01*
X143657126Y-76706914D01*
X143776016Y-76860705D01*
X143776282Y-76861264D01*
X143824055Y-76983629D01*
X143833507Y-77091211D01*
X143801896Y-77212514D01*
X143726484Y-77376041D01*
X143612768Y-77600797D01*
X143729800Y-77831925D01*
X143786157Y-77959835D01*
X143845680Y-78170284D01*
X143883590Y-78433277D01*
X143889207Y-78486852D01*
X143913138Y-78674951D01*
X143939989Y-78840025D01*
X143964942Y-78951388D01*
X143987448Y-79045981D01*
X144006869Y-79212816D01*
X144006442Y-79375678D01*
X143986842Y-79508301D01*
X143948740Y-79584421D01*
X143904201Y-79607933D01*
X143818737Y-79595577D01*
X143709657Y-79517185D01*
X143569107Y-79368285D01*
X143475618Y-79244410D01*
X143375517Y-79058637D01*
X143297138Y-78833456D01*
X143235541Y-78553876D01*
X143185786Y-78204903D01*
X143165297Y-78045669D01*
X143128907Y-77823769D01*
X143091123Y-77659507D01*
X143054710Y-77566347D01*
X143053168Y-77563992D01*
X143011007Y-77493165D01*
X143026613Y-77473830D01*
X143112434Y-77489388D01*
X143204223Y-77495628D01*
X143356596Y-77464803D01*
X143494374Y-77397446D01*
X143582793Y-77307034D01*
X143612403Y-77217405D01*
X143625657Y-77073431D01*
X143612711Y-76931605D01*
X143574271Y-76831332D01*
X143493471Y-76751906D01*
X143334972Y-76680044D01*
X143160873Y-76677867D01*
X142995608Y-76748857D01*
X142878778Y-76832047D01*
X142824595Y-76717107D01*
X142818645Y-76702570D01*
X142792152Y-76591809D01*
X142770830Y-76432045D01*
X142758838Y-76252651D01*
X142753344Y-76135591D01*
X142732235Y-75954792D01*
X142689606Y-75797422D01*
X142616399Y-75623481D01*
X142597509Y-75582277D01*
X142516485Y-75361590D01*
X142492590Y-75168463D01*
X142525819Y-74972932D01*
X142616161Y-74745030D01*
X142682172Y-74592067D01*
X142758110Y-74380934D01*
X142817281Y-74175505D01*
X142856735Y-73990355D01*
X142873521Y-73840060D01*
X142864687Y-73739195D01*
X142827283Y-73702334D01*
X142819375Y-73703188D01*
X142749952Y-73750594D01*
X142658297Y-73860371D01*
X142552324Y-74018328D01*
X142439945Y-74210275D01*
X142329074Y-74422020D01*
X142227624Y-74639374D01*
X142143507Y-74848146D01*
X142084636Y-75034145D01*
X142068116Y-75113532D01*
X142044109Y-75303384D01*
X142029239Y-75525306D01*
X142024473Y-75750366D01*
X141610189Y-75750366D01*
X141546842Y-75539323D01*
X141499296Y-75369151D01*
X141475092Y-75264739D01*
X141454440Y-75137739D01*
X141438302Y-75011821D01*
X141435926Y-74909056D01*
X141447128Y-74794615D01*
X141471721Y-74633667D01*
X141487669Y-74546858D01*
X141586563Y-74220659D01*
X141736350Y-73924355D01*
X141927743Y-73667052D01*
X142151456Y-73457856D01*
X142398202Y-73305871D01*
X142658696Y-73220205D01*
X142923652Y-73209962D01*
X142978851Y-73217450D01*
X143112304Y-73249835D01*
X143234432Y-73308365D01*
X143360358Y-73403736D01*
X143505206Y-73546643D01*
X143684098Y-73747783D01*
X143779976Y-73854650D01*
X143934874Y-74011969D01*
X144081153Y-74144508D01*
X144196802Y-74231500D01*
X144429654Y-74377808D01*
X144929768Y-74716620D01*
X145353302Y-75043963D01*
X145704479Y-75364963D01*
X145987522Y-75684742D01*
X146206652Y-76008425D01*
X146366091Y-76341135D01*
X146470064Y-76687998D01*
X146522791Y-77054136D01*
X146533927Y-77175857D01*
X146552437Y-77286388D01*
X146584714Y-77390536D01*
X146637916Y-77503307D01*
X146719201Y-77639707D01*
X146835725Y-77814744D01*
X146994647Y-78043423D01*
X147187327Y-78330677D01*
X147455250Y-78792425D01*
X147657887Y-79241931D01*
X147801293Y-79696230D01*
X147891524Y-80172353D01*
X147934635Y-80687334D01*
X147939660Y-81141853D01*
X147911322Y-81595092D01*
X147843817Y-82023933D01*
X147732861Y-82441510D01*
X147574171Y-82860960D01*
X147363462Y-83295415D01*
X147096452Y-83758011D01*
X146768857Y-84261883D01*
X146601488Y-84508407D01*
X146399066Y-84807484D01*
X146235068Y-85051602D01*
X146103958Y-85249530D01*
X146000201Y-85410036D01*
X145918260Y-85541889D01*
X145852599Y-85653859D01*
X145799226Y-85751877D01*
X145797682Y-85754712D01*
X145747974Y-85853220D01*
X145697937Y-85958149D01*
X145681383Y-85994191D01*
X145595933Y-86200481D01*
X145520133Y-86413283D01*
X145468738Y-86591807D01*
X145460343Y-86631161D01*
X145429389Y-86853093D01*
X145411443Y-87119030D01*
X145407167Y-87397167D01*
X145417223Y-87655702D01*
X145442273Y-87862834D01*
X145454159Y-87915676D01*
X145466604Y-87934028D01*
X145477258Y-87889827D01*
X145487627Y-87775716D01*
X145499213Y-87584339D01*
X145502018Y-87537522D01*
X145533853Y-87235626D01*
X145591878Y-86945818D01*
X145680894Y-86657808D01*
X145805702Y-86361306D01*
X145971103Y-86046023D01*
X146116429Y-85808619D01*
X146802234Y-85808619D01*
X146814931Y-86055474D01*
X146866015Y-86272328D01*
X146951246Y-86448600D01*
X147066386Y-86573710D01*
X147207193Y-86637078D01*
X147369429Y-86628122D01*
X147400754Y-86616943D01*
X147532733Y-86520156D01*
X147658203Y-86352396D01*
X147773549Y-86124748D01*
X147875151Y-85848298D01*
X147959393Y-85534130D01*
X148022655Y-85193329D01*
X148061321Y-84836980D01*
X148071773Y-84476167D01*
X148070466Y-84366998D01*
X148069230Y-84209540D01*
X148838221Y-84209540D01*
X148845731Y-84428737D01*
X148865782Y-84613559D01*
X148898027Y-84739275D01*
X148904494Y-84753296D01*
X148996158Y-84865035D01*
X149118299Y-84911581D01*
X149248696Y-84883777D01*
X149253390Y-84880948D01*
X149313774Y-84815734D01*
X149390368Y-84698347D01*
X149423285Y-84636156D01*
X150063200Y-84636156D01*
X150064534Y-84650025D01*
X150109994Y-84732564D01*
X150194865Y-84804946D01*
X150284611Y-84836000D01*
X150302571Y-84831939D01*
X150383820Y-84786925D01*
X150498054Y-84705194D01*
X150625357Y-84603171D01*
X150745812Y-84497283D01*
X150839502Y-84403953D01*
X150886511Y-84339608D01*
X150888953Y-84332708D01*
X150881101Y-84245091D01*
X150805953Y-84182541D01*
X150679108Y-84158667D01*
X150609709Y-84169321D01*
X150467812Y-84223992D01*
X150316050Y-84309208D01*
X150184824Y-84406951D01*
X150104534Y-84499203D01*
X150082355Y-84550033D01*
X150063200Y-84636156D01*
X149423285Y-84636156D01*
X149467777Y-84552094D01*
X149604892Y-84309633D01*
X149803848Y-84076406D01*
X150011753Y-83923728D01*
X151468045Y-83923728D01*
X151481478Y-84124547D01*
X151516049Y-84382139D01*
X151572173Y-84709000D01*
X151581392Y-84759644D01*
X151622602Y-85003995D01*
X151648216Y-85207320D01*
X151660391Y-85400970D01*
X151661283Y-85616297D01*
X151653050Y-85884652D01*
X151651436Y-85926744D01*
X151644962Y-86205405D01*
X151651109Y-86415947D01*
X151672928Y-86572568D01*
X151713472Y-86689467D01*
X151775794Y-86780842D01*
X151862946Y-86860893D01*
X151928677Y-86902635D01*
X152073121Y-86946711D01*
X152212245Y-86939084D01*
X152316121Y-86878584D01*
X152366948Y-86810384D01*
X152411444Y-86717653D01*
X152442744Y-86598095D01*
X152462191Y-86440189D01*
X152471132Y-86232419D01*
X152470909Y-85963267D01*
X152462868Y-85621214D01*
X152457134Y-85456307D01*
X152430632Y-84997192D01*
X152389075Y-84602851D01*
X152330171Y-84258906D01*
X152251630Y-83950979D01*
X152151160Y-83664689D01*
X152139686Y-83636585D01*
X152046260Y-83452255D01*
X151949615Y-83347320D01*
X151843294Y-83317168D01*
X151720843Y-83357184D01*
X151709347Y-83364078D01*
X151613539Y-83451485D01*
X151534350Y-83566858D01*
X151502940Y-83642422D01*
X151475337Y-83767186D01*
X151468045Y-83923728D01*
X150011753Y-83923728D01*
X150055093Y-83891901D01*
X150373292Y-83743016D01*
X150450071Y-83712708D01*
X150725904Y-83577307D01*
X150938181Y-83421976D01*
X151033360Y-83332094D01*
X151103154Y-83246647D01*
X151133900Y-83164346D01*
X151140776Y-83057918D01*
X151139667Y-83005742D01*
X151121948Y-82906527D01*
X151069359Y-82822497D01*
X150965002Y-82721294D01*
X150849805Y-82630798D01*
X150662286Y-82533923D01*
X150441378Y-82481348D01*
X150164122Y-82465747D01*
X149913671Y-82489324D01*
X149619815Y-82586536D01*
X149364939Y-82754882D01*
X149153896Y-82989906D01*
X148991538Y-83287153D01*
X148882718Y-83642168D01*
X148862200Y-83766931D01*
X148843595Y-83980695D01*
X148838221Y-84209540D01*
X148069230Y-84209540D01*
X148068993Y-84179356D01*
X148068737Y-84025330D01*
X148069790Y-83930440D01*
X148069888Y-83927836D01*
X148088257Y-83853885D01*
X148143389Y-83764052D01*
X148244772Y-83645637D01*
X148401893Y-83485940D01*
X148530890Y-83354962D01*
X148678733Y-83183205D01*
X148796073Y-83009772D01*
X148905558Y-82804000D01*
X148946023Y-82722543D01*
X149067594Y-82505811D01*
X149191291Y-82344196D01*
X149333619Y-82226275D01*
X149511080Y-82140621D01*
X149740177Y-82075809D01*
X150037414Y-82020415D01*
X150119317Y-82006852D01*
X150273493Y-81979395D01*
X150383439Y-81957122D01*
X150429428Y-81943884D01*
X150430696Y-81937173D01*
X150384110Y-81913902D01*
X150276706Y-81886790D01*
X150125917Y-81858559D01*
X149949176Y-81831935D01*
X149763917Y-81809639D01*
X149587574Y-81794396D01*
X149437581Y-81788930D01*
X149188659Y-81798633D01*
X148978252Y-81834118D01*
X148825785Y-81901271D01*
X148718511Y-82005954D01*
X148643685Y-82154030D01*
X148556078Y-82386288D01*
X148398498Y-82764912D01*
X148228996Y-83117250D01*
X148035901Y-83465150D01*
X147807546Y-83830461D01*
X147532259Y-84235034D01*
X147436350Y-84372356D01*
X147266044Y-84621091D01*
X147135896Y-84820817D01*
X147038593Y-84984224D01*
X146966825Y-85124003D01*
X146913282Y-85252843D01*
X146870652Y-85383434D01*
X146832165Y-85542343D01*
X146802234Y-85808619D01*
X146116429Y-85808619D01*
X146181898Y-85701669D01*
X146442887Y-85317954D01*
X146758873Y-84884589D01*
X146943774Y-84635714D01*
X147244613Y-84221602D01*
X147499287Y-83855947D01*
X147713753Y-83528637D01*
X147893968Y-83229562D01*
X148045889Y-82948610D01*
X148175473Y-82675668D01*
X148288676Y-82400626D01*
X148391456Y-82113372D01*
X148418851Y-82032110D01*
X148477101Y-81867553D01*
X148523306Y-81761343D01*
X148567446Y-81697334D01*
X148619504Y-81659381D01*
X148689461Y-81631337D01*
X148717090Y-81622200D01*
X148958884Y-81565969D01*
X149244395Y-81531043D01*
X149539280Y-81520325D01*
X149809200Y-81536717D01*
X150164326Y-81602984D01*
X150632946Y-81761011D01*
X151067993Y-81990561D01*
X151463037Y-82285767D01*
X151811652Y-82640762D01*
X152107409Y-83049679D01*
X152343880Y-83506653D01*
X152514636Y-84005817D01*
X152539179Y-84101613D01*
X152575627Y-84256576D01*
X152606290Y-84410530D01*
X152631694Y-84572043D01*
X152652367Y-84749681D01*
X152668834Y-84952013D01*
X152681623Y-85187605D01*
X152691261Y-85465025D01*
X152698274Y-85792840D01*
X152703189Y-86179619D01*
X152706532Y-86633928D01*
X152708831Y-87164334D01*
X152708906Y-87186021D01*
X152710972Y-87680052D01*
X152713621Y-88097280D01*
X152717087Y-88445267D01*
X152721607Y-88731570D01*
X152727416Y-88963748D01*
X152734750Y-89149360D01*
X152743844Y-89295966D01*
X152754933Y-89411124D01*
X152768255Y-89502394D01*
X152784043Y-89577334D01*
X152851950Y-89852500D01*
X152841093Y-89471500D01*
X152838762Y-89327954D01*
X153075970Y-89327954D01*
X153095526Y-89394654D01*
X153149941Y-89480154D01*
X153248248Y-89597422D01*
X153399481Y-89759425D01*
X153405148Y-89765348D01*
X153602617Y-89981921D01*
X153745431Y-90166585D01*
X153845177Y-90339309D01*
X153913438Y-90520067D01*
X153961799Y-90728827D01*
X153964612Y-90744307D01*
X153985702Y-90894095D01*
X153989649Y-91035637D01*
X153975615Y-91199135D01*
X153942763Y-91414786D01*
X153915726Y-91579723D01*
X153887958Y-91779645D01*
X153878211Y-91923068D01*
X153886869Y-92026070D01*
X153914317Y-92104730D01*
X153960940Y-92175125D01*
X154021182Y-92232562D01*
X154151212Y-92281476D01*
X154294531Y-92268114D01*
X154432542Y-92199548D01*
X154546648Y-92082853D01*
X154618251Y-91925102D01*
X154623859Y-91874221D01*
X154625606Y-91742954D01*
X154620820Y-91556244D01*
X154609991Y-91330865D01*
X154593611Y-91083594D01*
X154574030Y-90812060D01*
X154560210Y-90579971D01*
X154555307Y-90412883D01*
X154559782Y-90300629D01*
X154574097Y-90233037D01*
X154598713Y-90199940D01*
X154634092Y-90191167D01*
X154669113Y-90210312D01*
X154730941Y-90300975D01*
X154808817Y-90467632D01*
X154903411Y-90711927D01*
X155015398Y-91035502D01*
X155145451Y-91440000D01*
X155244167Y-91746437D01*
X155376314Y-92121683D01*
X155497692Y-92420011D01*
X155610315Y-92645299D01*
X155716198Y-92801420D01*
X155817357Y-92892251D01*
X155915806Y-92921667D01*
X155956768Y-92899038D01*
X156027787Y-92807857D01*
X156113380Y-92659231D01*
X156207998Y-92466567D01*
X156306092Y-92243273D01*
X156402115Y-92002756D01*
X156490517Y-91758426D01*
X156565751Y-91523688D01*
X156622267Y-91311951D01*
X156654516Y-91136623D01*
X156661929Y-91063114D01*
X156659732Y-90888264D01*
X156614292Y-90760975D01*
X156515265Y-90670043D01*
X156352306Y-90604267D01*
X156115069Y-90552443D01*
X155868505Y-90503702D01*
X155635884Y-90436349D01*
X155453159Y-90347276D01*
X155301399Y-90223957D01*
X155161674Y-90053862D01*
X155015053Y-89824464D01*
X154814576Y-89526078D01*
X154498897Y-89171619D01*
X154119957Y-88859327D01*
X153669138Y-88581241D01*
X153555416Y-88514676D01*
X153429387Y-88413032D01*
X153382878Y-88321415D01*
X153413516Y-88236625D01*
X153463449Y-88205245D01*
X153584700Y-88185917D01*
X153741740Y-88195125D01*
X153909466Y-88230777D01*
X154062776Y-88290778D01*
X154188451Y-88366008D01*
X154425259Y-88552327D01*
X154671044Y-88796698D01*
X154911730Y-89085937D01*
X155027428Y-89233974D01*
X155189929Y-89420805D01*
X155317121Y-89533904D01*
X155411574Y-89574018D01*
X155475858Y-89541893D01*
X155512543Y-89438278D01*
X155524200Y-89263918D01*
X155529011Y-89113948D01*
X155555013Y-88929392D01*
X155601694Y-88813313D01*
X155666934Y-88773000D01*
X155693361Y-88778661D01*
X155782324Y-88843199D01*
X155894548Y-88972112D01*
X156022369Y-89155856D01*
X156158125Y-89384885D01*
X156287444Y-89598976D01*
X156419765Y-89782615D01*
X156544942Y-89924246D01*
X156652947Y-90012526D01*
X156733753Y-90036107D01*
X156748348Y-90032619D01*
X156839710Y-89974221D01*
X156914307Y-89851584D01*
X156975144Y-89658019D01*
X157025223Y-89386834D01*
X157036174Y-89310203D01*
X157092686Y-88846806D01*
X157136332Y-88368150D01*
X157164547Y-87906699D01*
X157174764Y-87494916D01*
X157173616Y-87354455D01*
X157163770Y-87155881D01*
X157142303Y-87040485D01*
X157107331Y-87007591D01*
X157056975Y-87056524D01*
X156989352Y-87186608D01*
X156902580Y-87397167D01*
X156897599Y-87408854D01*
X156836898Y-87551280D01*
X156739104Y-87717588D01*
X156636839Y-87811893D01*
X156523733Y-87841667D01*
X156466237Y-87831641D01*
X156334191Y-87785590D01*
X156161135Y-87710086D01*
X155965528Y-87613882D01*
X155765829Y-87505731D01*
X155678863Y-87453483D01*
X155580499Y-87394387D01*
X155415142Y-87292706D01*
X155147648Y-87143607D01*
X154891144Y-87017867D01*
X154664612Y-86924541D01*
X154487034Y-86872687D01*
X154305424Y-86838506D01*
X153961684Y-86778283D01*
X153693791Y-86738754D01*
X153497561Y-86719449D01*
X153368811Y-86719897D01*
X153303356Y-86739627D01*
X153268521Y-86779126D01*
X153237138Y-86891153D01*
X153265115Y-87011747D01*
X153348603Y-87109441D01*
X153376379Y-87129232D01*
X153489811Y-87216755D01*
X153608253Y-87315310D01*
X153636207Y-87339938D01*
X153710525Y-87416234D01*
X153730782Y-87473581D01*
X153708295Y-87537060D01*
X153655472Y-87599427D01*
X153554354Y-87655288D01*
X153530015Y-87662820D01*
X153400824Y-87748022D01*
X153283941Y-87892928D01*
X153190548Y-88076475D01*
X153131831Y-88277600D01*
X153118973Y-88475238D01*
X153121915Y-88514466D01*
X153133107Y-88593811D01*
X153161371Y-88650972D01*
X153221809Y-88700030D01*
X153329524Y-88755065D01*
X153499615Y-88830159D01*
X153650247Y-88909436D01*
X153826429Y-89031290D01*
X153990381Y-89171516D01*
X154126637Y-89315278D01*
X154219732Y-89447740D01*
X154254200Y-89554065D01*
X154225226Y-89580103D01*
X154140317Y-89562356D01*
X154011840Y-89502911D01*
X153852241Y-89406342D01*
X153827770Y-89390222D01*
X153600321Y-89254579D01*
X153406819Y-89165267D01*
X153256740Y-89125925D01*
X153159560Y-89140195D01*
X153111397Y-89195146D01*
X153076624Y-89296004D01*
X153075970Y-89327954D01*
X152838762Y-89327954D01*
X152838750Y-89327228D01*
X152843886Y-88959321D01*
X152862180Y-88535547D01*
X152892483Y-88074780D01*
X152933644Y-87595893D01*
X152984513Y-87117759D01*
X153032165Y-86673279D01*
X153082315Y-86030871D01*
X153102181Y-85459329D01*
X153091691Y-84961359D01*
X153050778Y-84539667D01*
X153039755Y-84467654D01*
X152906632Y-83855354D01*
X152704046Y-83264675D01*
X152427293Y-82683897D01*
X152071668Y-82101303D01*
X151788660Y-81682167D01*
X151733513Y-81216500D01*
X151654372Y-80433561D01*
X151626241Y-79969383D01*
X151856214Y-79969383D01*
X151866669Y-80137000D01*
X151872831Y-80191695D01*
X151889970Y-80345794D01*
X151907794Y-80507989D01*
X151920511Y-80595443D01*
X151943823Y-80683695D01*
X151967403Y-80708994D01*
X151988979Y-80678309D01*
X152030288Y-80584825D01*
X152075754Y-80454928D01*
X152092528Y-80404497D01*
X152168230Y-80238458D01*
X152247318Y-80153392D01*
X152325709Y-80149973D01*
X152399319Y-80228875D01*
X152464066Y-80390773D01*
X152470114Y-80411676D01*
X152506673Y-80528991D01*
X152539212Y-80582713D01*
X152585912Y-80588246D01*
X152664955Y-80560997D01*
X152735403Y-80541914D01*
X152917455Y-80553232D01*
X153112895Y-80643976D01*
X153316716Y-80812215D01*
X153412064Y-80914369D01*
X153513172Y-81060339D01*
X153549330Y-81190894D01*
X153526730Y-81321034D01*
X153503515Y-81369254D01*
X153450203Y-81401600D01*
X153347831Y-81394651D01*
X153255264Y-81366185D01*
X153113260Y-81299914D01*
X152966839Y-81213466D01*
X152965599Y-81212643D01*
X152842563Y-81137224D01*
X152747803Y-81090544D01*
X152701744Y-81082680D01*
X152698465Y-81089611D01*
X152694891Y-81160760D01*
X152703292Y-81287619D01*
X152722435Y-81448370D01*
X152729424Y-81499520D01*
X152750037Y-81714571D01*
X152742559Y-81850589D01*
X152703682Y-81909349D01*
X152630100Y-81892627D01*
X152518503Y-81802197D01*
X152365583Y-81639834D01*
X152347948Y-81620024D01*
X152202528Y-81471162D01*
X152098171Y-81391002D01*
X152035093Y-81374590D01*
X152013511Y-81416974D01*
X152033643Y-81513200D01*
X152095706Y-81658315D01*
X152199916Y-81847365D01*
X152346492Y-82075396D01*
X152406005Y-82165522D01*
X152597145Y-82490035D01*
X152782490Y-82852143D01*
X152945484Y-83217992D01*
X153069567Y-83553728D01*
X153171310Y-83912670D01*
X153252839Y-84304139D01*
X153313376Y-84735848D01*
X153356632Y-85229462D01*
X153369347Y-85396868D01*
X153393474Y-85618073D01*
X153421242Y-85761448D01*
X153453339Y-85831282D01*
X153461319Y-85837718D01*
X153545583Y-85871744D01*
X153686609Y-85904503D01*
X153861272Y-85930378D01*
X153865095Y-85930808D01*
X154070424Y-85962800D01*
X154250297Y-86014466D01*
X154426201Y-86095697D01*
X154619624Y-86216383D01*
X154852054Y-86386415D01*
X154912879Y-86432086D01*
X155204727Y-86624597D01*
X155459203Y-86743438D01*
X155678863Y-86789218D01*
X155866269Y-86762541D01*
X156023978Y-86664015D01*
X156044439Y-86643664D01*
X156147858Y-86477507D01*
X156192138Y-86274351D01*
X156181390Y-86050403D01*
X156119729Y-85821871D01*
X156011268Y-85604963D01*
X155860120Y-85415886D01*
X155670398Y-85270848D01*
X155614761Y-85241710D01*
X155451215Y-85170110D01*
X155285822Y-85112138D01*
X155120918Y-85053907D01*
X154966639Y-84964697D01*
X154916190Y-84895098D01*
X156129538Y-84895098D01*
X156191331Y-85188817D01*
X156324938Y-85521986D01*
X156406543Y-85659536D01*
X156527828Y-85810334D01*
X156662321Y-85939515D01*
X156791688Y-86029739D01*
X156897599Y-86063667D01*
X156976276Y-86047795D01*
X157036938Y-85990380D01*
X157071885Y-85884717D01*
X157081463Y-85724214D01*
X157066017Y-85502283D01*
X157025894Y-85212333D01*
X156961439Y-84847775D01*
X156928508Y-84684116D01*
X156878501Y-84490734D01*
X156823404Y-84363832D01*
X156755421Y-84292533D01*
X156666757Y-84265961D01*
X156549615Y-84273240D01*
X156493084Y-84282870D01*
X156342336Y-84327462D01*
X156244902Y-84401382D01*
X156176783Y-84520548D01*
X156139812Y-84642530D01*
X156129538Y-84895098D01*
X154916190Y-84895098D01*
X154895493Y-84866545D01*
X154907863Y-84761615D01*
X155004134Y-84652076D01*
X155184688Y-84540094D01*
X155309642Y-84469768D01*
X155420949Y-84391934D01*
X155480273Y-84330979D01*
X155504312Y-84268020D01*
X155521861Y-84105123D01*
X155504577Y-83876597D01*
X155452247Y-83576767D01*
X155446798Y-83550266D01*
X155412119Y-83355383D01*
X155407026Y-83233192D01*
X155437937Y-83180753D01*
X155511274Y-83195126D01*
X155633456Y-83273373D01*
X155810903Y-83412554D01*
X155982826Y-83550034D01*
X156176583Y-83695275D01*
X156325348Y-83791810D01*
X156438417Y-83845493D01*
X156525088Y-83862176D01*
X156588218Y-83855078D01*
X156632777Y-83822996D01*
X156647950Y-83754989D01*
X156633573Y-83640249D01*
X156589483Y-83467967D01*
X156515517Y-83227334D01*
X156513335Y-83220479D01*
X156462705Y-83051159D01*
X156400569Y-82828990D01*
X156334596Y-82582029D01*
X156272459Y-82338334D01*
X156220459Y-82137206D01*
X156158432Y-81928349D01*
X156108110Y-81801273D01*
X156069093Y-81754828D01*
X156026945Y-81772900D01*
X155952782Y-81856990D01*
X155863373Y-81998768D01*
X155781041Y-82130941D01*
X155757266Y-82162449D01*
X155691037Y-82250220D01*
X155618835Y-82320612D01*
X155562983Y-82353548D01*
X155496789Y-82362057D01*
X155413376Y-82317789D01*
X155349527Y-82268119D01*
X155277110Y-82184991D01*
X155206488Y-82066924D01*
X155131790Y-81902193D01*
X155047145Y-81679071D01*
X154946679Y-81385834D01*
X154922310Y-81313028D01*
X154759520Y-80858198D01*
X154603931Y-80482114D01*
X154452986Y-80180140D01*
X154393227Y-80086800D01*
X155147950Y-80086800D01*
X155173474Y-80254959D01*
X155239543Y-80475667D01*
X155326040Y-80699657D01*
X155434903Y-80919939D01*
X155547486Y-81092335D01*
X155657153Y-81208433D01*
X155757266Y-81259823D01*
X155841188Y-81238093D01*
X155895606Y-81164996D01*
X155948626Y-81013542D01*
X155981604Y-80817216D01*
X155993615Y-80597279D01*
X155983737Y-80374988D01*
X155951046Y-80171605D01*
X155894617Y-80008387D01*
X155873147Y-79974723D01*
X155823808Y-79897362D01*
X155694431Y-79776790D01*
X155549841Y-79709987D01*
X155406696Y-79700327D01*
X155281652Y-79751184D01*
X155191369Y-79865933D01*
X155161323Y-79950335D01*
X155147950Y-80086800D01*
X154393227Y-80086800D01*
X154304129Y-79947636D01*
X154154804Y-79779963D01*
X154002454Y-79672484D01*
X153980909Y-79661626D01*
X153878184Y-79616978D01*
X153780708Y-79594645D01*
X153666620Y-79594129D01*
X153514062Y-79614936D01*
X153301173Y-79656569D01*
X153126260Y-79688437D01*
X152925497Y-79703141D01*
X152752708Y-79677131D01*
X152578140Y-79604767D01*
X152372038Y-79480407D01*
X152232302Y-79390832D01*
X152111605Y-79323463D01*
X152030698Y-79297900D01*
X151973857Y-79309708D01*
X151925354Y-79354452D01*
X151917939Y-79365957D01*
X151890578Y-79458727D01*
X151869970Y-79606232D01*
X151857915Y-79784455D01*
X151856214Y-79969383D01*
X151626241Y-79969383D01*
X151598586Y-79513075D01*
X151587884Y-78639715D01*
X151616734Y-77943389D01*
X151872854Y-77943389D01*
X151876004Y-78075751D01*
X151900743Y-78162449D01*
X151947481Y-78216863D01*
X151951073Y-78217856D01*
X152020384Y-78205176D01*
X152136588Y-78158648D01*
X152276579Y-78087363D01*
X152417314Y-78015836D01*
X152622907Y-77947974D01*
X152796054Y-77946444D01*
X152947782Y-78009973D01*
X152991065Y-78041258D01*
X153099890Y-78127281D01*
X153240166Y-78243463D01*
X153392282Y-78373757D01*
X153418853Y-78396793D01*
X153657061Y-78589689D01*
X153879773Y-78738232D01*
X154107016Y-78850852D01*
X154358818Y-78935982D01*
X154655203Y-79002054D01*
X155016200Y-79057500D01*
X155183108Y-79081412D01*
X155395614Y-79116656D01*
X155577918Y-79152032D01*
X155703066Y-79182630D01*
X155758579Y-79198077D01*
X155873147Y-79217000D01*
X155927941Y-79203121D01*
X155932018Y-79193373D01*
X155949484Y-79114023D01*
X155970161Y-78979947D01*
X155990399Y-78813878D01*
X155995081Y-78772973D01*
X156026796Y-78549031D01*
X156069511Y-78299886D01*
X156115353Y-78072269D01*
X156142627Y-77946705D01*
X156170219Y-77798512D01*
X156178596Y-77699066D01*
X156168835Y-77627830D01*
X156142014Y-77564269D01*
X156096560Y-77485151D01*
X156010476Y-77355870D01*
X155915380Y-77229366D01*
X155825089Y-77122674D01*
X155776812Y-77075622D01*
X155753422Y-77052826D01*
X155714195Y-77036858D01*
X155701411Y-77045734D01*
X155707337Y-77019893D01*
X155709821Y-77013807D01*
X155697129Y-76945470D01*
X155642740Y-76855026D01*
X155591256Y-76798161D01*
X155550353Y-76781467D01*
X155525669Y-76821106D01*
X155515665Y-76924011D01*
X155518805Y-77097115D01*
X155533549Y-77347352D01*
X155545254Y-77576604D01*
X155541036Y-77779271D01*
X155513190Y-77918463D01*
X155457399Y-78004863D01*
X155369345Y-78049154D01*
X155244711Y-78062019D01*
X155072660Y-78025330D01*
X154906563Y-77922255D01*
X154767047Y-77771121D01*
X154670972Y-77590294D01*
X154635200Y-77398138D01*
X154635246Y-77388659D01*
X154649172Y-77249614D01*
X154693900Y-77109630D01*
X154778106Y-76948100D01*
X154910467Y-76744417D01*
X154977801Y-76629192D01*
X154996043Y-76580600D01*
X156038056Y-76580600D01*
X156061606Y-76797387D01*
X156111690Y-76993701D01*
X156184057Y-77153629D01*
X156274456Y-77261255D01*
X156378636Y-77300667D01*
X156422648Y-77294220D01*
X156541137Y-77252935D01*
X156684614Y-77185380D01*
X156827010Y-77105544D01*
X156942253Y-77027414D01*
X157004273Y-76964979D01*
X157032234Y-76897862D01*
X157043486Y-76776974D01*
X157008949Y-76626806D01*
X156925844Y-76428338D01*
X156901711Y-76379258D01*
X156776303Y-76171196D01*
X156638898Y-76007286D01*
X156501477Y-75899881D01*
X156376017Y-75861334D01*
X156373214Y-75861346D01*
X156245890Y-75895322D01*
X156149790Y-75999037D01*
X156078977Y-76178834D01*
X156045291Y-76359255D01*
X156038056Y-76580600D01*
X154996043Y-76580600D01*
X155074160Y-76372512D01*
X155124468Y-76093471D01*
X155120435Y-75828247D01*
X155112565Y-75781052D01*
X155078123Y-75625286D01*
X155027925Y-75433384D01*
X154969875Y-75236411D01*
X154960038Y-75200097D01*
X155462391Y-75200097D01*
X155480253Y-75525562D01*
X155496970Y-75598023D01*
X155544147Y-75742143D01*
X155605809Y-75891675D01*
X155671868Y-76025111D01*
X155732232Y-76120944D01*
X155776812Y-76157667D01*
X155802847Y-76136555D01*
X155854601Y-76055962D01*
X155913682Y-75935739D01*
X155941871Y-75873369D01*
X156019496Y-75709800D01*
X156114657Y-75516283D01*
X156212835Y-75322579D01*
X156265506Y-75215877D01*
X156347720Y-75029364D01*
X156409400Y-74863730D01*
X156440114Y-74745464D01*
X156448155Y-74626905D01*
X156420584Y-74428394D01*
X156344619Y-74269448D01*
X156228315Y-74163921D01*
X156079726Y-74125667D01*
X156011818Y-74141979D01*
X155893424Y-74221177D01*
X155770365Y-74350667D01*
X155658173Y-74513132D01*
X155572381Y-74691258D01*
X155518919Y-74857537D01*
X155462391Y-75200097D01*
X154960038Y-75200097D01*
X154903755Y-74992324D01*
X154853786Y-74680068D01*
X154853635Y-74411216D01*
X154904061Y-74197729D01*
X154935326Y-74135567D01*
X155074195Y-73966578D01*
X155275035Y-73816910D01*
X155521103Y-73700065D01*
X155522314Y-73699623D01*
X155758801Y-73583487D01*
X155965429Y-73428091D01*
X156012156Y-73385848D01*
X156197538Y-73258717D01*
X156421700Y-73172394D01*
X156688367Y-73095794D01*
X156497867Y-73038420D01*
X156227565Y-72976800D01*
X155808750Y-72945647D01*
X155373344Y-72980580D01*
X154938631Y-73078569D01*
X154521899Y-73236585D01*
X154140432Y-73451598D01*
X154137182Y-73453801D01*
X153713364Y-73790354D01*
X153321362Y-74200406D01*
X152964915Y-74677621D01*
X152647764Y-75215659D01*
X152373646Y-75808183D01*
X152146302Y-76448854D01*
X151969471Y-77131334D01*
X151935450Y-77317391D01*
X151905243Y-77537268D01*
X151883489Y-77754914D01*
X151872854Y-77943389D01*
X151616734Y-77943389D01*
X151621939Y-77817771D01*
X151700422Y-77051533D01*
X151823004Y-76345291D01*
X151989359Y-75703336D01*
X152199156Y-75129956D01*
X152324899Y-74857291D01*
X152538262Y-74478679D01*
X152786668Y-74138405D01*
X153089172Y-73808167D01*
X153150060Y-73748329D01*
X153437074Y-73492135D01*
X153723759Y-73285724D01*
X154031359Y-73117099D01*
X154381119Y-72974262D01*
X154794283Y-72845217D01*
X154837939Y-72833328D01*
X154982217Y-72799746D01*
X155130299Y-72776778D01*
X155302384Y-72762574D01*
X155518673Y-72755279D01*
X155799367Y-72753042D01*
X155894667Y-72753023D01*
X156131356Y-72754623D01*
X156309068Y-72760439D01*
X156447064Y-72772692D01*
X156564605Y-72793607D01*
X156680952Y-72825406D01*
X156815367Y-72870313D01*
X157216483Y-73034535D01*
X157606967Y-73252206D01*
X157997604Y-73533253D01*
X158036241Y-73564374D01*
X158442461Y-73944049D01*
X158826469Y-74399244D01*
X159184929Y-74923474D01*
X159514504Y-75510255D01*
X159811859Y-76153102D01*
X160073656Y-76845531D01*
X160296561Y-77581055D01*
X160477237Y-78353191D01*
X160511968Y-78536791D01*
X160602024Y-79149204D01*
X160667265Y-79826330D01*
X160707765Y-80555946D01*
X160723596Y-81325830D01*
X160714833Y-82123761D01*
X160681547Y-82937515D01*
X160623813Y-83754870D01*
X160541704Y-84563605D01*
X160435293Y-85351498D01*
X160380500Y-85729672D01*
X160348629Y-86008471D01*
X160283111Y-86581606D01*
X160232683Y-87363522D01*
G37*
G36*
X153826952Y-82097321D02*
G01*
X153974171Y-82172738D01*
X154065806Y-82258508D01*
X154151810Y-82396682D01*
X154198068Y-82576198D01*
X154211867Y-82816805D01*
X154210675Y-82915835D01*
X154198780Y-83066643D01*
X154169181Y-83176036D01*
X154115850Y-83272626D01*
X154084245Y-83315228D01*
X153948462Y-83427906D01*
X153797061Y-83464841D01*
X153642704Y-83428245D01*
X153498057Y-83320331D01*
X153375784Y-83143312D01*
X153318067Y-82995516D01*
X153286385Y-82793053D01*
X153301041Y-82596580D01*
X153355109Y-82417334D01*
X153441661Y-82266549D01*
X153553770Y-82155462D01*
X153684509Y-82095307D01*
X153826952Y-82097321D01*
G37*
G36*
X155527802Y-85572509D02*
G01*
X155684228Y-85636968D01*
X155790860Y-85747148D01*
X155846844Y-85884691D01*
X155851326Y-86031235D01*
X155803451Y-86168422D01*
X155702365Y-86277890D01*
X155547213Y-86341281D01*
X155384970Y-86351045D01*
X155248067Y-86299621D01*
X155140438Y-86176304D01*
X155096025Y-86087659D01*
X155062161Y-85914525D01*
X155095668Y-85761570D01*
X155187636Y-85643374D01*
X155329151Y-85574516D01*
X155511302Y-85569576D01*
X155527802Y-85572509D01*
G37*
G36*
X153144853Y-91340111D02*
G01*
X153173770Y-91368386D01*
X153196609Y-91425312D01*
X153211960Y-91523267D01*
X153222005Y-91676793D01*
X153228927Y-91900437D01*
X153230299Y-91962657D01*
X153232874Y-92162931D01*
X153229584Y-92296676D01*
X153218822Y-92378326D01*
X153198979Y-92422320D01*
X153168445Y-92443092D01*
X153137299Y-92447643D01*
X153058020Y-92410540D01*
X152951068Y-92304683D01*
X152901070Y-92244875D01*
X152818734Y-92134558D01*
X152770816Y-92053834D01*
X152745865Y-91977269D01*
X152739773Y-91778902D01*
X152812558Y-91582379D01*
X152960914Y-91399084D01*
X153006178Y-91359626D01*
X153080047Y-91321712D01*
X153144853Y-91340111D01*
G37*
G36*
X151278606Y-93216270D02*
G01*
X151391233Y-93316158D01*
X151538468Y-93485336D01*
X151584558Y-93541142D01*
X151767248Y-93745584D01*
X151938439Y-93901707D01*
X152122971Y-94029993D01*
X152345685Y-94150923D01*
X152455234Y-94210732D01*
X152623803Y-94332059D01*
X152733424Y-94455242D01*
X152772534Y-94568957D01*
X152734017Y-94691686D01*
X152633174Y-94793454D01*
X152492361Y-94851566D01*
X152458712Y-94855257D01*
X152303029Y-94833660D01*
X152108724Y-94764668D01*
X151892005Y-94658553D01*
X151669082Y-94525591D01*
X151456164Y-94376054D01*
X151269461Y-94220218D01*
X151125183Y-94068355D01*
X151039539Y-93930739D01*
X151008900Y-93805335D01*
X150999046Y-93623149D01*
X151016203Y-93441470D01*
X151059121Y-93300565D01*
X151060254Y-93298383D01*
X151121927Y-93210779D01*
X151191774Y-93182276D01*
X151278606Y-93216270D01*
G37*
G36*
X151798867Y-86719834D02*
G01*
X151777700Y-86741000D01*
X151756534Y-86719834D01*
X151777700Y-86698667D01*
X151798867Y-86719834D01*
G37*
G36*
X152349200Y-81809167D02*
G01*
X152328034Y-81830334D01*
X152306867Y-81809167D01*
X152328034Y-81788000D01*
X152349200Y-81809167D01*
G37*
G36*
X153346431Y-74720574D02*
G01*
X153376795Y-74740119D01*
X153392544Y-74793983D01*
X153397418Y-74898926D01*
X153395156Y-75071709D01*
X153393210Y-75205303D01*
X153398656Y-75341821D01*
X153420293Y-75445453D01*
X153465452Y-75546424D01*
X153541463Y-75674959D01*
X153562556Y-75709732D01*
X153669219Y-75916656D01*
X153713327Y-76081063D01*
X153696210Y-76214122D01*
X153619200Y-76327000D01*
X153523030Y-76389468D01*
X153369698Y-76415996D01*
X153209576Y-76383423D01*
X153071180Y-76293493D01*
X153024245Y-76235760D01*
X152936555Y-76071077D01*
X152859869Y-75854425D01*
X152802617Y-75607334D01*
X152796674Y-75570688D01*
X152784970Y-75306699D01*
X152830787Y-75081337D01*
X152930499Y-74905280D01*
X153080478Y-74789206D01*
X153100600Y-74780004D01*
X153221525Y-74736166D01*
X153316307Y-74718334D01*
X153346431Y-74720574D01*
G37*
G36*
X155820534Y-82232500D02*
G01*
X155799367Y-82253667D01*
X155778200Y-82232500D01*
X155799367Y-82211334D01*
X155820534Y-82232500D01*
G37*
%TD*%
%LPC*%
D12*
%TO.C,F1*%
X158318200Y-59944000D03*
D13*
X158318200Y-54864000D03*
%TD*%
D14*
%TO.C,REF1*%
X162560000Y-53340000D03*
%TD*%
%TO.C,REF1*%
X129540000Y-53340000D03*
%TD*%
D15*
%TO.C,K1*%
X137496982Y-81788000D03*
D16*
X142196983Y-63287999D03*
X142196983Y-70288000D03*
D17*
X142196983Y-81788000D03*
%TD*%
D18*
%TO.C,J4*%
X149870008Y-101600000D03*
D19*
X152410008Y-101600000D03*
X154950008Y-101600000D03*
X157490008Y-101600000D03*
%TD*%
D15*
%TO.C,K2*%
X129222003Y-81788005D03*
D16*
X133922004Y-63288004D03*
X133922004Y-70288005D03*
D17*
X133922004Y-81788005D03*
%TD*%
D14*
%TO.C,REF1*%
X162555504Y-101600000D03*
%TD*%
D20*
%TO.C,PS1*%
X156901995Y-64452490D03*
D21*
X151901995Y-64452490D03*
X162101995Y-93852490D03*
X146701995Y-93852490D03*
%TD*%
D22*
%TO.C,RV1*%
X132298200Y-55666000D03*
X130998200Y-60666000D03*
%TD*%
D14*
%TO.C,REF1*%
X129540000Y-101600000D03*
%TD*%
D23*
%TO.C,J2*%
X145404510Y-54383991D03*
X142904510Y-59383991D03*
%TD*%
%TO.C,J1*%
X152892989Y-54383991D03*
X150392989Y-59383991D03*
%TD*%
%TO.C,J3*%
X137914507Y-54383991D03*
X135414507Y-59383991D03*
%TD*%
G36*
X158831674Y-52578479D02*
G01*
X159035752Y-52596333D01*
X159057382Y-52600147D01*
X159249918Y-52651737D01*
X159270557Y-52659249D01*
X159451210Y-52743489D01*
X159470231Y-52754471D01*
X159633514Y-52868804D01*
X159650338Y-52882922D01*
X159791278Y-53023862D01*
X159805396Y-53040686D01*
X159919729Y-53203969D01*
X159930711Y-53222990D01*
X160014951Y-53403643D01*
X160022463Y-53424282D01*
X160074053Y-53616818D01*
X160077867Y-53638448D01*
X160095721Y-53842526D01*
X160096200Y-53853507D01*
X160096200Y-55493493D01*
X160095721Y-55504474D01*
X160077867Y-55708552D01*
X160074053Y-55730182D01*
X160022463Y-55922718D01*
X160014951Y-55943357D01*
X159930711Y-56124010D01*
X159919729Y-56143031D01*
X159805396Y-56306314D01*
X159791278Y-56323138D01*
X159650338Y-56464078D01*
X159633514Y-56478196D01*
X159470231Y-56592529D01*
X159451210Y-56603511D01*
X159270557Y-56687751D01*
X159249918Y-56695263D01*
X159057382Y-56746853D01*
X159035752Y-56750667D01*
X158831674Y-56768521D01*
X158820693Y-56769000D01*
X152624168Y-56769000D01*
X152611886Y-56768400D01*
X152383886Y-56746070D01*
X152359789Y-56741304D01*
X152146379Y-56676947D01*
X152123665Y-56667597D01*
X151926790Y-56563054D01*
X151906321Y-56549473D01*
X151728681Y-56404817D01*
X151719537Y-56396597D01*
X150494323Y-55182017D01*
X150485935Y-55172839D01*
X150338298Y-54994336D01*
X150324432Y-54973730D01*
X150217646Y-54775251D01*
X150208092Y-54752325D01*
X150142316Y-54536762D01*
X150137443Y-54512407D01*
X150114613Y-54281888D01*
X150114000Y-54269470D01*
X150114000Y-53697685D01*
X150114607Y-53685335D01*
X150134179Y-53486620D01*
X150138998Y-53462394D01*
X150195160Y-53277254D01*
X150204612Y-53254434D01*
X150295808Y-53083817D01*
X150309531Y-53063279D01*
X150432264Y-52913729D01*
X150449729Y-52896264D01*
X150599279Y-52773531D01*
X150619817Y-52759808D01*
X150790434Y-52668612D01*
X150813254Y-52659160D01*
X150998394Y-52602998D01*
X151022620Y-52598179D01*
X151221335Y-52578607D01*
X151233685Y-52578000D01*
X158820693Y-52578000D01*
X158831674Y-52578479D01*
G37*
G36*
X146544891Y-52833078D02*
G01*
X146676970Y-52850467D01*
X146708741Y-52858980D01*
X146824124Y-52906773D01*
X146852610Y-52923219D01*
X146951693Y-52999248D01*
X146974952Y-53022507D01*
X147050981Y-53121590D01*
X147067427Y-53150076D01*
X147115220Y-53265459D01*
X147123733Y-53297230D01*
X147141122Y-53429309D01*
X147142200Y-53445756D01*
X147142200Y-53510973D01*
X147142508Y-53517199D01*
X147166228Y-53756856D01*
X147168655Y-53769001D01*
X147237992Y-53996397D01*
X147242751Y-54007825D01*
X147355323Y-54217226D01*
X147362223Y-54227488D01*
X147515645Y-54413159D01*
X147519831Y-54417744D01*
X153417157Y-60270053D01*
X153425535Y-60279229D01*
X153572991Y-60457680D01*
X153586840Y-60478278D01*
X153693490Y-60676662D01*
X153703032Y-60699575D01*
X153768723Y-60915016D01*
X153773588Y-60939355D01*
X153796387Y-61169707D01*
X153797000Y-61182117D01*
X153797000Y-65145493D01*
X153796521Y-65156474D01*
X153778667Y-65360552D01*
X153774853Y-65382182D01*
X153723263Y-65574718D01*
X153715751Y-65595357D01*
X153631511Y-65776010D01*
X153620529Y-65795031D01*
X153506196Y-65958314D01*
X153492078Y-65975138D01*
X153351138Y-66116078D01*
X153334314Y-66130196D01*
X153171031Y-66244529D01*
X153152010Y-66255511D01*
X152971357Y-66339751D01*
X152950718Y-66347263D01*
X152758182Y-66398853D01*
X152736552Y-66402667D01*
X152532474Y-66420521D01*
X152521493Y-66421000D01*
X151609721Y-66421000D01*
X151597407Y-66420397D01*
X151368810Y-66397948D01*
X151344652Y-66393157D01*
X151130728Y-66328465D01*
X151107963Y-66319066D01*
X150910707Y-66213994D01*
X150890206Y-66200346D01*
X150712361Y-66054988D01*
X150703208Y-66046728D01*
X147698439Y-63055704D01*
X147690091Y-63046534D01*
X147543162Y-62868231D01*
X147529364Y-62847657D01*
X147423114Y-62649560D01*
X147413608Y-62626684D01*
X147348169Y-62411624D01*
X147343322Y-62387331D01*
X147320610Y-62157414D01*
X147320000Y-62145028D01*
X147320000Y-59378002D01*
X147319718Y-59372050D01*
X147297811Y-59141640D01*
X147295569Y-59129959D01*
X147231471Y-58910666D01*
X147227072Y-58899625D01*
X147122799Y-58696344D01*
X147116391Y-58686319D01*
X146973844Y-58503985D01*
X146969945Y-58499457D01*
X145106671Y-56532480D01*
X145102981Y-56528889D01*
X144955268Y-56396373D01*
X144947141Y-56390195D01*
X144782086Y-56284696D01*
X144773054Y-56279908D01*
X144593112Y-56202504D01*
X144583433Y-56199242D01*
X144393328Y-56151966D01*
X144383246Y-56150314D01*
X144185458Y-56134209D01*
X144180331Y-56134000D01*
X134318125Y-56134000D01*
X134312291Y-56134270D01*
X134086832Y-56155237D01*
X134075396Y-56157383D01*
X133860484Y-56218760D01*
X133849634Y-56222980D01*
X133649717Y-56322939D01*
X133639847Y-56329077D01*
X133461789Y-56464187D01*
X133453210Y-56472049D01*
X133149135Y-56807598D01*
X133131932Y-56823363D01*
X132963238Y-56951368D01*
X132943423Y-56963692D01*
X132754018Y-57058394D01*
X132732271Y-57066852D01*
X132528654Y-57125004D01*
X132505719Y-57129307D01*
X132289018Y-57149459D01*
X132277351Y-57150000D01*
X131399707Y-57150000D01*
X131388726Y-57149521D01*
X131184648Y-57131667D01*
X131163018Y-57127853D01*
X130970482Y-57076263D01*
X130949843Y-57068751D01*
X130769190Y-56984511D01*
X130750169Y-56973529D01*
X130586886Y-56859196D01*
X130570062Y-56845078D01*
X130429122Y-56704138D01*
X130415004Y-56687314D01*
X130300671Y-56524031D01*
X130289689Y-56505010D01*
X130205449Y-56324357D01*
X130197937Y-56303718D01*
X130146347Y-56111182D01*
X130142533Y-56089552D01*
X130124679Y-55885474D01*
X130124200Y-55874493D01*
X130124200Y-55189758D01*
X130125278Y-55173312D01*
X130141508Y-55050032D01*
X130150021Y-55018260D01*
X130194418Y-54911077D01*
X130210864Y-54882591D01*
X130281490Y-54790549D01*
X130304749Y-54767290D01*
X130396791Y-54696664D01*
X130425277Y-54680218D01*
X130532460Y-54635821D01*
X130564232Y-54627308D01*
X130835427Y-54591605D01*
X130851245Y-54587367D01*
X130973820Y-54536594D01*
X130988001Y-54528407D01*
X131093266Y-54447635D01*
X131104835Y-54436066D01*
X131185607Y-54330801D01*
X131193794Y-54316620D01*
X131244567Y-54194045D01*
X131248805Y-54178227D01*
X131266662Y-54042587D01*
X131267200Y-54034378D01*
X131267200Y-53728078D01*
X131267992Y-53713970D01*
X131287900Y-53537284D01*
X131294179Y-53509777D01*
X131350550Y-53348678D01*
X131362792Y-53323257D01*
X131453600Y-53178737D01*
X131471192Y-53156678D01*
X131591878Y-53035992D01*
X131613937Y-53018400D01*
X131758457Y-52927592D01*
X131783878Y-52915350D01*
X131944977Y-52858979D01*
X131972484Y-52852700D01*
X132149170Y-52832792D01*
X132163278Y-52832000D01*
X146528444Y-52832000D01*
X146544891Y-52833078D01*
G37*
G36*
X159339674Y-58547479D02*
G01*
X159543752Y-58565333D01*
X159565382Y-58569147D01*
X159757918Y-58620737D01*
X159778557Y-58628249D01*
X159959210Y-58712489D01*
X159978231Y-58723471D01*
X160141514Y-58837804D01*
X160158338Y-58851922D01*
X160299278Y-58992862D01*
X160313396Y-59009686D01*
X160427729Y-59172969D01*
X160438711Y-59191990D01*
X160522951Y-59372643D01*
X160530463Y-59393282D01*
X160582053Y-59585818D01*
X160585867Y-59607448D01*
X160603721Y-59811526D01*
X160604200Y-59822507D01*
X160604200Y-71114493D01*
X160603721Y-71125474D01*
X160585867Y-71329552D01*
X160582053Y-71351182D01*
X160530463Y-71543718D01*
X160522951Y-71564357D01*
X160438711Y-71745010D01*
X160427729Y-71764031D01*
X160313396Y-71927314D01*
X160299278Y-71944138D01*
X160158338Y-72085078D01*
X160141514Y-72099196D01*
X159978231Y-72213529D01*
X159959210Y-72224511D01*
X159778557Y-72308751D01*
X159757918Y-72316263D01*
X159565382Y-72367853D01*
X159543752Y-72371667D01*
X159339674Y-72389521D01*
X159328693Y-72390000D01*
X129494707Y-72390000D01*
X129483726Y-72389521D01*
X129279648Y-72371667D01*
X129258018Y-72367853D01*
X129065482Y-72316263D01*
X129044843Y-72308751D01*
X128864190Y-72224511D01*
X128845169Y-72213529D01*
X128681886Y-72099196D01*
X128665062Y-72085078D01*
X128524122Y-71944138D01*
X128510004Y-71927314D01*
X128395671Y-71764031D01*
X128384689Y-71745010D01*
X128300449Y-71564357D01*
X128292937Y-71543718D01*
X128241347Y-71351182D01*
X128237533Y-71329552D01*
X128219679Y-71125474D01*
X128219200Y-71114493D01*
X128219200Y-60330507D01*
X128219679Y-60319526D01*
X128237533Y-60115448D01*
X128241347Y-60093818D01*
X128292937Y-59901282D01*
X128300449Y-59880643D01*
X128384689Y-59699990D01*
X128395671Y-59680969D01*
X128510004Y-59517686D01*
X128524122Y-59500862D01*
X128665062Y-59359922D01*
X128681886Y-59345804D01*
X128845169Y-59231471D01*
X128864190Y-59220489D01*
X129044843Y-59136249D01*
X129065482Y-59128737D01*
X129258018Y-59077147D01*
X129279648Y-59073333D01*
X129483726Y-59055479D01*
X129494707Y-59055000D01*
X131514121Y-59055000D01*
X131528229Y-59055792D01*
X131676657Y-59072516D01*
X131704165Y-59078795D01*
X131838416Y-59125772D01*
X131863835Y-59138013D01*
X131984282Y-59213694D01*
X132006342Y-59231287D01*
X132106913Y-59331858D01*
X132124506Y-59353918D01*
X132200187Y-59474365D01*
X132212428Y-59499784D01*
X132259405Y-59634035D01*
X132265684Y-59661543D01*
X132282408Y-59809971D01*
X132283200Y-59824079D01*
X132283200Y-60072498D01*
X132282645Y-60084308D01*
X132261998Y-60303624D01*
X132257590Y-60326829D01*
X132198024Y-60532734D01*
X132189363Y-60554707D01*
X132092416Y-60745878D01*
X132079805Y-60765850D01*
X131945257Y-60940268D01*
X131937605Y-60949280D01*
X130848775Y-62115884D01*
X130844954Y-62120384D01*
X130704967Y-62301853D01*
X130698669Y-62311826D01*
X130596346Y-62513598D01*
X130592029Y-62524552D01*
X130529157Y-62741884D01*
X130526960Y-62753454D01*
X130505477Y-62981640D01*
X130505200Y-62987544D01*
X130505200Y-67053260D01*
X130505438Y-67058724D01*
X130524015Y-67271053D01*
X130525918Y-67281848D01*
X130580367Y-67485056D01*
X130584113Y-67495348D01*
X130673022Y-67686013D01*
X130678505Y-67695508D01*
X130799165Y-67867829D01*
X130806221Y-67876237D01*
X130954963Y-68024979D01*
X130963371Y-68032035D01*
X131135692Y-68152695D01*
X131145187Y-68158178D01*
X131335852Y-68247087D01*
X131346144Y-68250833D01*
X131549352Y-68305282D01*
X131560147Y-68307185D01*
X131772476Y-68325762D01*
X131777940Y-68326000D01*
X153743460Y-68326000D01*
X153748924Y-68325762D01*
X153961253Y-68307185D01*
X153972048Y-68305282D01*
X154175256Y-68250833D01*
X154185548Y-68247087D01*
X154376213Y-68158178D01*
X154385708Y-68152695D01*
X154558029Y-68032035D01*
X154566437Y-68024979D01*
X154715179Y-67876237D01*
X154722235Y-67867829D01*
X154842895Y-67695508D01*
X154848378Y-67686013D01*
X154937287Y-67495348D01*
X154941033Y-67485056D01*
X154995482Y-67281848D01*
X154997385Y-67271053D01*
X155015962Y-67058724D01*
X155016200Y-67053260D01*
X155016200Y-59822507D01*
X155016679Y-59811526D01*
X155034533Y-59607448D01*
X155038347Y-59585818D01*
X155089937Y-59393282D01*
X155097449Y-59372643D01*
X155181689Y-59191990D01*
X155192671Y-59172969D01*
X155307004Y-59009686D01*
X155321122Y-58992862D01*
X155462062Y-58851922D01*
X155478886Y-58837804D01*
X155642169Y-58723471D01*
X155661190Y-58712489D01*
X155841843Y-58628249D01*
X155862482Y-58620737D01*
X156055018Y-58569147D01*
X156076648Y-58565333D01*
X156280726Y-58547479D01*
X156291707Y-58547000D01*
X159328693Y-58547000D01*
X159339674Y-58547479D01*
G37*
G36*
X142736112Y-57726603D02*
G01*
X142965359Y-57749182D01*
X142989585Y-57754000D01*
X143204084Y-57819067D01*
X143226904Y-57828520D01*
X143424581Y-57934181D01*
X143445119Y-57947904D01*
X143623190Y-58094043D01*
X143632351Y-58102347D01*
X144149649Y-58619645D01*
X144157953Y-58628806D01*
X144304092Y-58806877D01*
X144317815Y-58827415D01*
X144423476Y-59025092D01*
X144432929Y-59047912D01*
X144497996Y-59262411D01*
X144502814Y-59286637D01*
X144525393Y-59515884D01*
X144526000Y-59528234D01*
X144526000Y-64959489D01*
X144525521Y-64970470D01*
X144507667Y-65174548D01*
X144503853Y-65196178D01*
X144452263Y-65388714D01*
X144444751Y-65409353D01*
X144360511Y-65590006D01*
X144349529Y-65609027D01*
X144235196Y-65772310D01*
X144221078Y-65789134D01*
X144080138Y-65930074D01*
X144063314Y-65944192D01*
X143900031Y-66058525D01*
X143881010Y-66069507D01*
X143700357Y-66153747D01*
X143679718Y-66161259D01*
X143487182Y-66212849D01*
X143465552Y-66216663D01*
X143261474Y-66234517D01*
X143250493Y-66234996D01*
X140975507Y-66234996D01*
X140964526Y-66234517D01*
X140760448Y-66216663D01*
X140738818Y-66212849D01*
X140546282Y-66161259D01*
X140525643Y-66153747D01*
X140344990Y-66069507D01*
X140325969Y-66058525D01*
X140162686Y-65944192D01*
X140145862Y-65930074D01*
X140004922Y-65789134D01*
X139990804Y-65772310D01*
X139876471Y-65609027D01*
X139865489Y-65590006D01*
X139781249Y-65409353D01*
X139773737Y-65388714D01*
X139722147Y-65196178D01*
X139718333Y-65174548D01*
X139700479Y-64970470D01*
X139700000Y-64959489D01*
X139700000Y-59001503D01*
X139700479Y-58990522D01*
X139718333Y-58786444D01*
X139722147Y-58764814D01*
X139773737Y-58572278D01*
X139781249Y-58551639D01*
X139865489Y-58370986D01*
X139876471Y-58351965D01*
X139990804Y-58188682D01*
X140004922Y-58171858D01*
X140145862Y-58030918D01*
X140162686Y-58016800D01*
X140325969Y-57902467D01*
X140344990Y-57891485D01*
X140525643Y-57807245D01*
X140546282Y-57799733D01*
X140738818Y-57748143D01*
X140760448Y-57744329D01*
X140964526Y-57726475D01*
X140975507Y-57725996D01*
X142723762Y-57725996D01*
X142736112Y-57726603D01*
G37*
G36*
X136657474Y-57853475D02*
G01*
X136861552Y-57871329D01*
X136883182Y-57875143D01*
X137075718Y-57926733D01*
X137096357Y-57934245D01*
X137277010Y-58018485D01*
X137296031Y-58029467D01*
X137459314Y-58143800D01*
X137476138Y-58157918D01*
X137617078Y-58298858D01*
X137631196Y-58315682D01*
X137745529Y-58478965D01*
X137756511Y-58497986D01*
X137840751Y-58678639D01*
X137848263Y-58699278D01*
X137899853Y-58891814D01*
X137903667Y-58913444D01*
X137921521Y-59117522D01*
X137922000Y-59128503D01*
X137922000Y-64705489D01*
X137921521Y-64716470D01*
X137903667Y-64920548D01*
X137899853Y-64942178D01*
X137848263Y-65134714D01*
X137840751Y-65155353D01*
X137756511Y-65336006D01*
X137745529Y-65355027D01*
X137631196Y-65518310D01*
X137617078Y-65535134D01*
X137476138Y-65676074D01*
X137459314Y-65690192D01*
X137296031Y-65804525D01*
X137277010Y-65815507D01*
X137096357Y-65899747D01*
X137075718Y-65907259D01*
X136883182Y-65958849D01*
X136861552Y-65962663D01*
X136657474Y-65980517D01*
X136646493Y-65980996D01*
X133863507Y-65980996D01*
X133852526Y-65980517D01*
X133648448Y-65962663D01*
X133626818Y-65958849D01*
X133434282Y-65907259D01*
X133413643Y-65899747D01*
X133232990Y-65815507D01*
X133213969Y-65804525D01*
X133050686Y-65690192D01*
X133033862Y-65676074D01*
X132892922Y-65535134D01*
X132878804Y-65518310D01*
X132764471Y-65355027D01*
X132753489Y-65336006D01*
X132669249Y-65155353D01*
X132661737Y-65134714D01*
X132610147Y-64942178D01*
X132606333Y-64920548D01*
X132588479Y-64716470D01*
X132588000Y-64705489D01*
X132588000Y-63279357D01*
X132588483Y-63268333D01*
X132606476Y-63063471D01*
X132610320Y-63041760D01*
X132662305Y-62848536D01*
X132669874Y-62827827D01*
X132754749Y-62646616D01*
X132765812Y-62627544D01*
X132880975Y-62463903D01*
X132895193Y-62447052D01*
X133041049Y-62302084D01*
X133049209Y-62294655D01*
X133652916Y-61791566D01*
X133656989Y-61787858D01*
X133808737Y-61637034D01*
X133815837Y-61628619D01*
X133937377Y-61455916D01*
X133942901Y-61446394D01*
X134032476Y-61255147D01*
X134036254Y-61244809D01*
X134091121Y-61040874D01*
X134093039Y-61030045D01*
X134111759Y-60816901D01*
X134112000Y-60811407D01*
X134112000Y-59128503D01*
X134112479Y-59117522D01*
X134130333Y-58913444D01*
X134134147Y-58891814D01*
X134185737Y-58699278D01*
X134193249Y-58678639D01*
X134277489Y-58497986D01*
X134288471Y-58478965D01*
X134402804Y-58315682D01*
X134416922Y-58298858D01*
X134557862Y-58157918D01*
X134574686Y-58143800D01*
X134737969Y-58029467D01*
X134756990Y-58018485D01*
X134937643Y-57934245D01*
X134958282Y-57926733D01*
X135150818Y-57875143D01*
X135172448Y-57871329D01*
X135376526Y-57853475D01*
X135387507Y-57852996D01*
X136646493Y-57852996D01*
X136657474Y-57853475D01*
G37*
M02*
