%TF.GenerationSoftware,KiCad,Pcbnew,(5.99.0-11382-g00f1b609c4)*%
%TF.CreationDate,2021-08-15T08:59:13-05:00*%
%TF.ProjectId,reptile-monitor-power,72657074-696c-4652-9d6d-6f6e69746f72,1*%
%TF.SameCoordinates,Original*%
%TF.FileFunction,Copper,L4,Bot*%
%TF.FilePolarity,Positive*%
%FSLAX46Y46*%
G04 Gerber Fmt 4.6, Leading zero omitted, Abs format (unit mm)*
G04 Created by KiCad (PCBNEW (5.99.0-11382-g00f1b609c4)) date 2021-08-15 08:59:13*
%MOMM*%
%LPD*%
G01*
G04 APERTURE LIST*
%TA.AperFunction,ComponentPad*%
%ADD10R,1.575000X1.575000*%
%TD*%
%TA.AperFunction,ComponentPad*%
%ADD11C,1.575000*%
%TD*%
%TA.AperFunction,ComponentPad*%
%ADD12R,1.000000X1.000000*%
%TD*%
%TA.AperFunction,ComponentPad*%
%ADD13C,2.167346*%
%TD*%
%TA.AperFunction,ComponentPad*%
%ADD14C,1.000000*%
%TD*%
%TA.AperFunction,ComponentPad*%
%ADD15R,1.700000X1.700000*%
%TD*%
%TA.AperFunction,ComponentPad*%
%ADD16O,1.700000X1.700000*%
%TD*%
%TA.AperFunction,ComponentPad*%
%ADD17R,2.000000X2.300000*%
%TD*%
%TA.AperFunction,ComponentPad*%
%ADD18C,2.300000*%
%TD*%
%TA.AperFunction,ComponentPad*%
%ADD19C,1.600000*%
%TD*%
%TA.AperFunction,ComponentPad*%
%ADD20C,1.875000*%
%TD*%
%TA.AperFunction,ViaPad*%
%ADD21C,0.762000*%
%TD*%
G04 APERTURE END LIST*
D10*
%TO.P,F1,1*%
%TO.N,/FUSED_AC_L*%
X158318200Y-59944000D03*
D11*
%TO.P,F1,2*%
%TO.N,LINE*%
X158318200Y-54864000D03*
%TD*%
D12*
%TO.P,K1,1,1*%
%TO.N,+5V*%
X137496982Y-81788000D03*
D13*
%TO.P,K1,2,NO*%
%TO.N,/LOAD2*%
X142196983Y-63287999D03*
%TO.P,K1,3,COM*%
%TO.N,/FUSED_AC_L*%
X142196983Y-70288000D03*
D14*
%TO.P,K1,4,4*%
%TO.N,RLY2*%
X142196983Y-81788000D03*
%TD*%
D15*
%TO.P,J4,1,Pin_1*%
%TO.N,+5V*%
X149870008Y-101600000D03*
D16*
%TO.P,J4,2,Pin_2*%
%TO.N,GND*%
X152410008Y-101600000D03*
%TO.P,J4,3,Pin_3*%
%TO.N,L2*%
X154950008Y-101600000D03*
%TO.P,J4,4,Pin_4*%
%TO.N,L1*%
X157490008Y-101600000D03*
%TD*%
D12*
%TO.P,K2,1,1*%
%TO.N,+5V*%
X129222003Y-81788005D03*
D13*
%TO.P,K2,2,NO*%
%TO.N,/LOAD1*%
X133922004Y-63288004D03*
%TO.P,K2,3,COM*%
%TO.N,/FUSED_AC_L*%
X133922004Y-70288005D03*
D14*
%TO.P,K2,4,4*%
%TO.N,RLY1*%
X133922004Y-81788005D03*
%TD*%
D17*
%TO.P,PS1,1,AC/L*%
%TO.N,/FUSED_AC_L*%
X156901995Y-64452490D03*
D18*
%TO.P,PS1,2,AC/N*%
%TO.N,NEUT*%
X151901995Y-64452490D03*
%TO.P,PS1,3,-Vout*%
%TO.N,GND*%
X162101995Y-93852490D03*
%TO.P,PS1,4,+Vout*%
%TO.N,+5V*%
X146701995Y-93852490D03*
%TD*%
D19*
%TO.P,RV1,1*%
%TO.N,NEUT*%
X132298200Y-55666000D03*
%TO.P,RV1,2*%
%TO.N,/FUSED_AC_L*%
X130998200Y-60666000D03*
%TD*%
D20*
%TO.P,J2,1,Pin_1*%
%TO.N,NEUT*%
X145404510Y-54383991D03*
%TO.P,J2,2,Pin_2*%
%TO.N,/LOAD2*%
X142904510Y-59383991D03*
%TD*%
%TO.P,J1,1,Pin_1*%
%TO.N,LINE*%
X152892989Y-54383991D03*
%TO.P,J1,2,Pin_2*%
%TO.N,NEUT*%
X150392989Y-59383991D03*
%TD*%
%TO.P,J3,1,Pin_1*%
%TO.N,NEUT*%
X137914507Y-54383991D03*
%TO.P,J3,2,Pin_2*%
%TO.N,/LOAD1*%
X135414507Y-59383991D03*
%TD*%
D21*
%TO.N,GND*%
X136220200Y-87884000D03*
X141554200Y-90170000D03*
%TD*%
%TA.AperFunction,Conductor*%
%TO.N,NEUT*%
G36*
X146544889Y-52833078D02*
G01*
X146596076Y-52839817D01*
X146676970Y-52850467D01*
X146708741Y-52858980D01*
X146824124Y-52906773D01*
X146852610Y-52923219D01*
X146951693Y-52999248D01*
X146974952Y-53022507D01*
X147050981Y-53121590D01*
X147067427Y-53150076D01*
X147115220Y-53265459D01*
X147123733Y-53297230D01*
X147141122Y-53429309D01*
X147142200Y-53445756D01*
X147142200Y-53514092D01*
X147166841Y-53763050D01*
X147168654Y-53768996D01*
X147168655Y-53769001D01*
X147188407Y-53833779D01*
X147239806Y-54002347D01*
X147358265Y-54222698D01*
X147517622Y-54415552D01*
X149815954Y-56696340D01*
X150101647Y-56979852D01*
X153417157Y-60270053D01*
X153425535Y-60279229D01*
X153572991Y-60457680D01*
X153586840Y-60478278D01*
X153693490Y-60676662D01*
X153703032Y-60699575D01*
X153768723Y-60915016D01*
X153773588Y-60939355D01*
X153796387Y-61169707D01*
X153797000Y-61182117D01*
X153797000Y-65145493D01*
X153796521Y-65156474D01*
X153778667Y-65360552D01*
X153774853Y-65382182D01*
X153723263Y-65574718D01*
X153715751Y-65595357D01*
X153631508Y-65776015D01*
X153620532Y-65795026D01*
X153521478Y-65936489D01*
X153506196Y-65958314D01*
X153492078Y-65975138D01*
X153351138Y-66116078D01*
X153334314Y-66130196D01*
X153171026Y-66244532D01*
X153152015Y-66255508D01*
X153015716Y-66319066D01*
X152971357Y-66339751D01*
X152950717Y-66347263D01*
X152758178Y-66398854D01*
X152736555Y-66402666D01*
X152580516Y-66416318D01*
X152532474Y-66420521D01*
X152521493Y-66421000D01*
X151609721Y-66421000D01*
X151597407Y-66420397D01*
X151368810Y-66397948D01*
X151344652Y-66393157D01*
X151237690Y-66360811D01*
X151130726Y-66328464D01*
X151107965Y-66319067D01*
X150910705Y-66213992D01*
X150890209Y-66200348D01*
X150712361Y-66054988D01*
X150703208Y-66046728D01*
X147698439Y-63055704D01*
X147690091Y-63046534D01*
X147543162Y-62868231D01*
X147529364Y-62847657D01*
X147423114Y-62649560D01*
X147413608Y-62626684D01*
X147348169Y-62411624D01*
X147343322Y-62387331D01*
X147320610Y-62157414D01*
X147320000Y-62145028D01*
X147320000Y-59375021D01*
X147297245Y-59135691D01*
X147229797Y-58904937D01*
X147120072Y-58691028D01*
X146972002Y-58501629D01*
X145691180Y-57149521D01*
X145106671Y-56532480D01*
X145106663Y-56532472D01*
X145104898Y-56530609D01*
X145076364Y-56505010D01*
X144955268Y-56396373D01*
X144951456Y-56392953D01*
X144777766Y-56281935D01*
X144588403Y-56200478D01*
X144583433Y-56199242D01*
X144393328Y-56151966D01*
X144393323Y-56151965D01*
X144388356Y-56150730D01*
X144182897Y-56134000D01*
X134315200Y-56134000D01*
X134312302Y-56134269D01*
X134312291Y-56134270D01*
X134086832Y-56155237D01*
X134086831Y-56155237D01*
X134081015Y-56155778D01*
X133992181Y-56181148D01*
X133860484Y-56218760D01*
X133860480Y-56218761D01*
X133854862Y-56220366D01*
X133644496Y-56325549D01*
X133457134Y-56467719D01*
X133242891Y-56704138D01*
X133149135Y-56807598D01*
X133131932Y-56823363D01*
X132963238Y-56951368D01*
X132943427Y-56963689D01*
X132754018Y-57058394D01*
X132732273Y-57066851D01*
X132528650Y-57125005D01*
X132505720Y-57129307D01*
X132289018Y-57149459D01*
X132277351Y-57150000D01*
X131399707Y-57150000D01*
X131388726Y-57149521D01*
X131340684Y-57145318D01*
X131184645Y-57131666D01*
X131163022Y-57127854D01*
X130970483Y-57076263D01*
X130949843Y-57068751D01*
X130927007Y-57058102D01*
X130769185Y-56984508D01*
X130750174Y-56973532D01*
X130586886Y-56859196D01*
X130570062Y-56845078D01*
X130429122Y-56704138D01*
X130415004Y-56687314D01*
X130399722Y-56665489D01*
X130300668Y-56524026D01*
X130289692Y-56505015D01*
X130205449Y-56324357D01*
X130197937Y-56303718D01*
X130158727Y-56157383D01*
X130146346Y-56111178D01*
X130142533Y-56089552D01*
X130124679Y-55885474D01*
X130124200Y-55874493D01*
X130124200Y-54923235D01*
X130144202Y-54855114D01*
X130201981Y-54806827D01*
X130231094Y-54794768D01*
X130267928Y-54779511D01*
X130267932Y-54779509D01*
X130272502Y-54777616D01*
X130488376Y-54645328D01*
X130680898Y-54480898D01*
X130845328Y-54288376D01*
X130977616Y-54072502D01*
X131042277Y-53916398D01*
X131072611Y-53843164D01*
X131072612Y-53843162D01*
X131074505Y-53838591D01*
X131108176Y-53698341D01*
X131132454Y-53597216D01*
X131132455Y-53597210D01*
X131133609Y-53592403D01*
X131153474Y-53340000D01*
X131133609Y-53087597D01*
X131127115Y-53060545D01*
X131113006Y-53001778D01*
X131116553Y-52930870D01*
X131157873Y-52873136D01*
X131224543Y-52846843D01*
X131388725Y-52832479D01*
X131399707Y-52832000D01*
X146528444Y-52832000D01*
X146544889Y-52833078D01*
G37*
%TD.AperFunction*%
%TD*%
%TA.AperFunction,Conductor*%
%TO.N,LINE*%
G36*
X158831674Y-52578479D02*
G01*
X158879716Y-52582682D01*
X159035755Y-52596334D01*
X159057378Y-52600146D01*
X159207825Y-52640458D01*
X159249918Y-52651737D01*
X159270558Y-52659249D01*
X159451215Y-52743492D01*
X159470226Y-52754468D01*
X159497451Y-52773531D01*
X159633514Y-52868804D01*
X159650338Y-52882922D01*
X159791278Y-53023862D01*
X159805396Y-53040686D01*
X159919732Y-53203974D01*
X159930708Y-53222985D01*
X160004302Y-53380807D01*
X160014951Y-53403643D01*
X160022463Y-53424282D01*
X160074053Y-53616818D01*
X160077867Y-53638448D01*
X160095721Y-53842526D01*
X160096200Y-53853507D01*
X160096200Y-55493493D01*
X160095721Y-55504474D01*
X160077867Y-55708552D01*
X160074053Y-55730182D01*
X160022463Y-55922718D01*
X160014951Y-55943357D01*
X159930708Y-56124015D01*
X159919732Y-56143026D01*
X159820678Y-56284489D01*
X159805396Y-56306314D01*
X159791278Y-56323138D01*
X159650338Y-56464078D01*
X159633514Y-56478196D01*
X159470226Y-56592532D01*
X159451215Y-56603508D01*
X159313777Y-56667597D01*
X159270557Y-56687751D01*
X159249917Y-56695263D01*
X159057378Y-56746854D01*
X159035755Y-56750666D01*
X158879716Y-56764318D01*
X158831674Y-56768521D01*
X158820693Y-56769000D01*
X152624168Y-56769000D01*
X152611886Y-56768400D01*
X152430824Y-56750667D01*
X152383885Y-56746070D01*
X152359789Y-56741304D01*
X152146376Y-56676946D01*
X152123669Y-56667599D01*
X151926786Y-56563051D01*
X151906325Y-56549476D01*
X151728680Y-56404816D01*
X151719537Y-56396597D01*
X150494323Y-55182017D01*
X150485935Y-55172839D01*
X150338298Y-54994336D01*
X150324432Y-54973730D01*
X150217643Y-54775245D01*
X150208092Y-54752325D01*
X150142315Y-54536756D01*
X150137444Y-54512412D01*
X150114613Y-54281888D01*
X150114000Y-54269470D01*
X150114000Y-53697685D01*
X150114607Y-53685335D01*
X150134179Y-53486620D01*
X150138998Y-53462394D01*
X150195160Y-53277254D01*
X150204612Y-53254434D01*
X150295808Y-53083817D01*
X150309531Y-53063279D01*
X150432264Y-52913729D01*
X150449729Y-52896264D01*
X150599279Y-52773531D01*
X150619817Y-52759808D01*
X150790434Y-52668612D01*
X150813254Y-52659160D01*
X150998394Y-52602998D01*
X151022619Y-52598179D01*
X151221335Y-52578607D01*
X151233685Y-52578000D01*
X158820693Y-52578000D01*
X158831674Y-52578479D01*
G37*
%TD.AperFunction*%
%TD*%
%TA.AperFunction,Conductor*%
%TO.N,/FUSED_AC_L*%
G36*
X159339674Y-58547479D02*
G01*
X159387716Y-58551682D01*
X159543755Y-58565334D01*
X159565378Y-58569146D01*
X159715825Y-58609458D01*
X159757918Y-58620737D01*
X159778558Y-58628249D01*
X159959215Y-58712492D01*
X159978226Y-58723468D01*
X160119689Y-58822522D01*
X160141514Y-58837804D01*
X160158338Y-58851922D01*
X160299278Y-58992862D01*
X160313396Y-59009686D01*
X160427732Y-59172974D01*
X160438708Y-59191985D01*
X160457121Y-59231471D01*
X160522951Y-59372643D01*
X160530463Y-59393282D01*
X160561379Y-59508660D01*
X160582053Y-59585818D01*
X160585866Y-59607445D01*
X160592299Y-59680969D01*
X160603721Y-59811526D01*
X160604200Y-59822507D01*
X160604200Y-71114493D01*
X160603721Y-71125474D01*
X160585867Y-71329552D01*
X160582053Y-71351182D01*
X160530463Y-71543718D01*
X160522951Y-71564357D01*
X160438708Y-71745015D01*
X160427732Y-71764026D01*
X160328678Y-71905489D01*
X160313396Y-71927314D01*
X160299278Y-71944138D01*
X160158338Y-72085078D01*
X160141514Y-72099196D01*
X159978226Y-72213532D01*
X159959215Y-72224508D01*
X159801393Y-72298102D01*
X159778557Y-72308751D01*
X159757917Y-72316263D01*
X159565378Y-72367854D01*
X159543755Y-72371666D01*
X159387716Y-72385318D01*
X159339674Y-72389521D01*
X159328693Y-72390000D01*
X129494707Y-72390000D01*
X129483726Y-72389521D01*
X129435684Y-72385318D01*
X129279645Y-72371666D01*
X129258022Y-72367854D01*
X129065483Y-72316263D01*
X129044843Y-72308751D01*
X129022007Y-72298102D01*
X128864185Y-72224508D01*
X128845174Y-72213532D01*
X128681886Y-72099196D01*
X128665062Y-72085078D01*
X128524122Y-71944138D01*
X128510004Y-71927314D01*
X128494722Y-71905489D01*
X128395668Y-71764026D01*
X128384692Y-71745015D01*
X128300449Y-71564357D01*
X128292937Y-71543718D01*
X128241347Y-71351182D01*
X128237533Y-71329552D01*
X128219679Y-71125474D01*
X128219200Y-71114493D01*
X128219200Y-60330507D01*
X128219679Y-60319526D01*
X128237533Y-60115448D01*
X128241347Y-60093818D01*
X128243896Y-60084308D01*
X128292937Y-59901282D01*
X128300449Y-59880643D01*
X128333404Y-59809971D01*
X128384692Y-59699985D01*
X128395668Y-59680974D01*
X128510004Y-59517686D01*
X128524122Y-59500862D01*
X128665062Y-59359922D01*
X128681886Y-59345804D01*
X128703711Y-59330522D01*
X128845174Y-59231468D01*
X128864185Y-59220492D01*
X129044842Y-59136249D01*
X129065482Y-59128737D01*
X129107575Y-59117458D01*
X129258022Y-59077146D01*
X129279645Y-59073334D01*
X129435684Y-59059682D01*
X129483726Y-59055479D01*
X129494707Y-59055000D01*
X131514121Y-59055000D01*
X131528229Y-59055792D01*
X131676657Y-59072516D01*
X131704163Y-59078794D01*
X131838416Y-59125772D01*
X131863835Y-59138013D01*
X131984282Y-59213694D01*
X132006342Y-59231287D01*
X132106913Y-59331858D01*
X132124506Y-59353918D01*
X132200187Y-59474365D01*
X132212428Y-59499784D01*
X132250102Y-59607448D01*
X132259405Y-59634035D01*
X132265684Y-59661543D01*
X132282408Y-59809971D01*
X132283200Y-59824079D01*
X132283200Y-60072498D01*
X132282645Y-60084308D01*
X132261998Y-60303624D01*
X132257590Y-60326829D01*
X132198024Y-60532734D01*
X132189363Y-60554707D01*
X132092416Y-60745878D01*
X132079805Y-60765850D01*
X131945257Y-60940268D01*
X131937605Y-60949280D01*
X130846760Y-62118043D01*
X130701348Y-62306544D01*
X130698671Y-62311823D01*
X130698669Y-62311826D01*
X130596346Y-62513598D01*
X130596344Y-62513603D01*
X130593672Y-62518872D01*
X130527514Y-62747565D01*
X130505200Y-62984587D01*
X130505200Y-67056000D01*
X130524494Y-67276533D01*
X130581790Y-67490366D01*
X130584112Y-67495346D01*
X130584113Y-67495348D01*
X130673022Y-67686013D01*
X130673025Y-67686018D01*
X130675348Y-67691000D01*
X130802324Y-67872340D01*
X130958860Y-68028876D01*
X130963368Y-68032033D01*
X130963371Y-68032035D01*
X131038828Y-68084871D01*
X131140200Y-68155852D01*
X131145182Y-68158175D01*
X131145187Y-68158178D01*
X131335852Y-68247087D01*
X131340834Y-68249410D01*
X131346142Y-68250832D01*
X131346144Y-68250833D01*
X131549352Y-68305282D01*
X131549354Y-68305282D01*
X131554667Y-68306706D01*
X131682837Y-68317919D01*
X131772476Y-68325762D01*
X131772483Y-68325762D01*
X131775200Y-68326000D01*
X153746200Y-68326000D01*
X153748917Y-68325762D01*
X153748924Y-68325762D01*
X153838563Y-68317919D01*
X153966733Y-68306706D01*
X153972046Y-68305282D01*
X153972048Y-68305282D01*
X154175256Y-68250833D01*
X154175258Y-68250832D01*
X154180566Y-68249410D01*
X154185548Y-68247087D01*
X154376213Y-68158178D01*
X154376218Y-68158175D01*
X154381200Y-68155852D01*
X154482572Y-68084871D01*
X154558029Y-68032035D01*
X154558032Y-68032033D01*
X154562540Y-68028876D01*
X154719076Y-67872340D01*
X154846052Y-67691000D01*
X154848375Y-67686018D01*
X154848378Y-67686013D01*
X154937287Y-67495348D01*
X154937288Y-67495346D01*
X154939610Y-67490366D01*
X154996906Y-67276533D01*
X155016200Y-67056000D01*
X155016200Y-59822507D01*
X155016679Y-59811526D01*
X155028101Y-59680969D01*
X155034534Y-59607445D01*
X155038347Y-59585818D01*
X155059022Y-59508660D01*
X155089937Y-59393282D01*
X155097449Y-59372643D01*
X155163279Y-59231471D01*
X155181692Y-59191985D01*
X155192668Y-59172974D01*
X155307004Y-59009686D01*
X155321122Y-58992862D01*
X155462062Y-58851922D01*
X155478886Y-58837804D01*
X155500711Y-58822522D01*
X155642174Y-58723468D01*
X155661185Y-58712492D01*
X155841842Y-58628249D01*
X155862482Y-58620737D01*
X155904575Y-58609458D01*
X156055022Y-58569146D01*
X156076645Y-58565334D01*
X156232684Y-58551682D01*
X156280726Y-58547479D01*
X156291707Y-58547000D01*
X159328693Y-58547000D01*
X159339674Y-58547479D01*
G37*
%TD.AperFunction*%
%TD*%
%TA.AperFunction,Conductor*%
%TO.N,/LOAD1*%
G36*
X136642474Y-57846475D02*
G01*
X136690516Y-57850678D01*
X136846555Y-57864330D01*
X136868178Y-57868142D01*
X137018625Y-57908454D01*
X137060718Y-57919733D01*
X137081358Y-57927245D01*
X137262015Y-58011488D01*
X137281026Y-58022464D01*
X137422489Y-58121518D01*
X137444314Y-58136800D01*
X137461138Y-58150918D01*
X137602078Y-58291858D01*
X137616196Y-58308682D01*
X137730532Y-58471970D01*
X137741508Y-58490981D01*
X137815102Y-58648803D01*
X137825751Y-58671639D01*
X137833263Y-58692278D01*
X137884853Y-58884814D01*
X137888667Y-58906444D01*
X137906521Y-59110522D01*
X137907000Y-59121503D01*
X137907000Y-64698489D01*
X137906521Y-64709470D01*
X137888667Y-64913548D01*
X137884853Y-64935178D01*
X137833263Y-65127714D01*
X137825751Y-65148353D01*
X137741508Y-65329011D01*
X137730532Y-65348022D01*
X137631478Y-65489485D01*
X137616196Y-65511310D01*
X137602078Y-65528134D01*
X137461138Y-65669074D01*
X137444314Y-65683192D01*
X137281026Y-65797528D01*
X137262015Y-65808504D01*
X137104193Y-65882098D01*
X137081357Y-65892747D01*
X137060717Y-65900259D01*
X136868178Y-65951850D01*
X136846555Y-65955662D01*
X136690516Y-65969314D01*
X136642474Y-65973517D01*
X136631493Y-65973996D01*
X133848507Y-65973996D01*
X133837526Y-65973517D01*
X133789484Y-65969314D01*
X133633445Y-65955662D01*
X133611822Y-65951850D01*
X133419283Y-65900259D01*
X133398643Y-65892747D01*
X133375807Y-65882098D01*
X133217985Y-65808504D01*
X133198974Y-65797528D01*
X133035686Y-65683192D01*
X133018862Y-65669074D01*
X132877922Y-65528134D01*
X132863804Y-65511310D01*
X132848522Y-65489485D01*
X132749468Y-65348022D01*
X132738492Y-65329011D01*
X132654249Y-65148353D01*
X132646737Y-65127714D01*
X132595147Y-64935178D01*
X132591333Y-64913548D01*
X132573479Y-64709470D01*
X132573000Y-64698489D01*
X132573000Y-63272357D01*
X132573483Y-63261333D01*
X132591476Y-63056471D01*
X132595320Y-63034760D01*
X132647305Y-62841536D01*
X132654874Y-62820827D01*
X132739749Y-62639616D01*
X132750812Y-62620544D01*
X132865975Y-62456903D01*
X132880193Y-62440052D01*
X133026049Y-62295084D01*
X133034209Y-62287655D01*
X133637916Y-61784566D01*
X133640034Y-61782801D01*
X133797657Y-61626138D01*
X133925557Y-61444398D01*
X134019819Y-61243145D01*
X134077556Y-61028542D01*
X134097000Y-60807160D01*
X134097000Y-59121503D01*
X134097479Y-59110522D01*
X134115333Y-58906444D01*
X134119147Y-58884814D01*
X134170737Y-58692278D01*
X134178249Y-58671639D01*
X134188898Y-58648803D01*
X134262492Y-58490981D01*
X134273468Y-58471970D01*
X134387804Y-58308682D01*
X134401922Y-58291858D01*
X134542862Y-58150918D01*
X134559686Y-58136800D01*
X134581511Y-58121518D01*
X134722974Y-58022464D01*
X134741985Y-58011488D01*
X134922642Y-57927245D01*
X134943282Y-57919733D01*
X134985375Y-57908454D01*
X135135822Y-57868142D01*
X135157445Y-57864330D01*
X135313484Y-57850678D01*
X135361526Y-57846475D01*
X135372507Y-57845996D01*
X136631493Y-57845996D01*
X136642474Y-57846475D01*
G37*
%TD.AperFunction*%
%TD*%
%TA.AperFunction,Conductor*%
%TO.N,/LOAD2*%
G36*
X142745776Y-57719583D02*
G01*
X142971231Y-57741414D01*
X142995067Y-57746073D01*
X143136547Y-57788229D01*
X143206300Y-57809013D01*
X143228796Y-57818158D01*
X143424030Y-57920457D01*
X143444343Y-57933741D01*
X143621111Y-58075436D01*
X143630192Y-58083464D01*
X144103669Y-58544639D01*
X144137619Y-58577707D01*
X144146176Y-58586917D01*
X144296831Y-58766238D01*
X144310989Y-58786980D01*
X144420064Y-58987070D01*
X144429826Y-59010207D01*
X144497051Y-59227943D01*
X144502032Y-59252557D01*
X144525373Y-59485606D01*
X144526000Y-59498163D01*
X144526000Y-64952489D01*
X144525521Y-64963470D01*
X144507667Y-65167548D01*
X144503853Y-65189178D01*
X144452263Y-65381714D01*
X144444751Y-65402353D01*
X144360508Y-65583011D01*
X144349532Y-65602022D01*
X144250478Y-65743485D01*
X144235196Y-65765310D01*
X144221078Y-65782134D01*
X144080138Y-65923074D01*
X144063314Y-65937192D01*
X143900026Y-66051528D01*
X143881015Y-66062504D01*
X143723193Y-66136098D01*
X143700357Y-66146747D01*
X143679717Y-66154259D01*
X143487178Y-66205850D01*
X143465555Y-66209662D01*
X143309516Y-66223314D01*
X143261474Y-66227517D01*
X143250493Y-66227996D01*
X140975507Y-66227996D01*
X140964526Y-66227517D01*
X140916484Y-66223314D01*
X140760445Y-66209662D01*
X140738822Y-66205850D01*
X140546283Y-66154259D01*
X140525643Y-66146747D01*
X140502807Y-66136098D01*
X140344985Y-66062504D01*
X140325974Y-66051528D01*
X140162686Y-65937192D01*
X140145862Y-65923074D01*
X140004922Y-65782134D01*
X139990804Y-65765310D01*
X139975522Y-65743485D01*
X139876468Y-65602022D01*
X139865492Y-65583011D01*
X139781249Y-65402353D01*
X139773737Y-65381714D01*
X139722147Y-65189178D01*
X139718333Y-65167548D01*
X139700479Y-64963470D01*
X139700000Y-64952489D01*
X139700000Y-58994503D01*
X139700479Y-58983522D01*
X139718333Y-58779444D01*
X139722147Y-58757814D01*
X139773737Y-58565278D01*
X139781249Y-58544639D01*
X139791898Y-58521803D01*
X139865492Y-58363981D01*
X139876468Y-58344970D01*
X139990804Y-58181682D01*
X140004922Y-58164858D01*
X140145862Y-58023918D01*
X140162686Y-58009800D01*
X140271299Y-57933748D01*
X140325974Y-57895464D01*
X140344985Y-57884488D01*
X140525642Y-57800245D01*
X140546282Y-57792733D01*
X140588375Y-57781454D01*
X140738822Y-57741142D01*
X140760445Y-57737330D01*
X140916484Y-57723678D01*
X140964526Y-57719475D01*
X140975507Y-57718996D01*
X142733632Y-57718996D01*
X142745776Y-57719583D01*
G37*
%TD.AperFunction*%
%TD*%
%TA.AperFunction,Conductor*%
%TO.N,GND*%
G36*
X163693474Y-79081479D02*
G01*
X163741516Y-79085682D01*
X163897555Y-79099334D01*
X163919178Y-79103146D01*
X164069625Y-79143458D01*
X164111718Y-79154737D01*
X164132358Y-79162249D01*
X164313015Y-79246492D01*
X164332026Y-79257468D01*
X164473489Y-79356522D01*
X164495314Y-79371804D01*
X164512138Y-79385922D01*
X164548229Y-79422013D01*
X164582255Y-79484325D01*
X164585134Y-79511068D01*
X164591931Y-101377361D01*
X164591978Y-101529093D01*
X164590629Y-101541176D01*
X164591122Y-101541216D01*
X164590404Y-101550158D01*
X164588423Y-101558918D01*
X164588980Y-101567879D01*
X164588980Y-101567884D01*
X164589504Y-101576307D01*
X164588721Y-101600173D01*
X164560286Y-101821630D01*
X164557480Y-101836418D01*
X164545736Y-101882939D01*
X164496121Y-102079468D01*
X164491569Y-102093821D01*
X164401661Y-102327796D01*
X164395430Y-102341505D01*
X164278243Y-102563099D01*
X164270421Y-102575965D01*
X164250971Y-102604031D01*
X164156120Y-102740898D01*
X164127640Y-102781993D01*
X164118348Y-102793824D01*
X163967778Y-102963568D01*
X163952001Y-102981354D01*
X163941357Y-102991998D01*
X163753824Y-103158348D01*
X163741997Y-103167637D01*
X163625948Y-103248061D01*
X163535965Y-103310421D01*
X163523099Y-103318243D01*
X163301505Y-103435430D01*
X163287796Y-103441661D01*
X163053821Y-103531569D01*
X163039468Y-103536121D01*
X162967323Y-103554335D01*
X162796418Y-103597480D01*
X162781637Y-103600285D01*
X162677074Y-103613711D01*
X162567363Y-103627798D01*
X162540430Y-103628353D01*
X162540375Y-103628348D01*
X162540373Y-103628348D01*
X162531429Y-103627572D01*
X162522630Y-103629337D01*
X162522627Y-103629337D01*
X162521617Y-103629540D01*
X162496839Y-103632000D01*
X129588425Y-103632000D01*
X129569395Y-103630555D01*
X129553674Y-103628153D01*
X129544805Y-103626798D01*
X129528584Y-103628966D01*
X129503986Y-103629827D01*
X129281532Y-103615831D01*
X129265127Y-103613711D01*
X129020577Y-103565611D01*
X129004591Y-103561360D01*
X128768440Y-103481636D01*
X128753149Y-103475328D01*
X128529486Y-103365361D01*
X128515153Y-103357104D01*
X128307824Y-103218785D01*
X128294696Y-103208722D01*
X128237216Y-103158338D01*
X128107262Y-103044426D01*
X128095569Y-103032733D01*
X128059866Y-102992001D01*
X127931278Y-102845304D01*
X127921215Y-102832176D01*
X127782895Y-102624847D01*
X127774638Y-102610513D01*
X127664669Y-102386845D01*
X127658361Y-102371555D01*
X127578640Y-102135413D01*
X127574389Y-102119427D01*
X127526288Y-101874873D01*
X127524168Y-101858468D01*
X127512095Y-101666590D01*
X127510622Y-101643172D01*
X127511702Y-101620343D01*
X127511758Y-101616604D01*
X127513165Y-101607735D01*
X127512176Y-101600000D01*
X127926526Y-101600000D01*
X127946391Y-101852403D01*
X127947545Y-101857210D01*
X127947546Y-101857216D01*
X127956143Y-101893023D01*
X128005495Y-102098591D01*
X128007388Y-102103162D01*
X128007389Y-102103164D01*
X128100435Y-102327796D01*
X128102384Y-102332502D01*
X128234672Y-102548376D01*
X128316489Y-102644171D01*
X128393685Y-102734555D01*
X128399102Y-102740898D01*
X128591624Y-102905328D01*
X128807498Y-103037616D01*
X128812068Y-103039509D01*
X128812072Y-103039511D01*
X129036836Y-103132611D01*
X129041409Y-103134505D01*
X129126032Y-103154821D01*
X129282784Y-103192454D01*
X129282790Y-103192455D01*
X129287597Y-103193609D01*
X129540000Y-103213474D01*
X129792403Y-103193609D01*
X129797210Y-103192455D01*
X129797216Y-103192454D01*
X129953968Y-103154821D01*
X130038591Y-103134505D01*
X130043164Y-103132611D01*
X130267928Y-103039511D01*
X130267932Y-103039509D01*
X130272502Y-103037616D01*
X130488376Y-102905328D01*
X130680898Y-102740898D01*
X130686316Y-102734555D01*
X130763511Y-102644171D01*
X130845328Y-102548376D01*
X130977616Y-102332502D01*
X130979566Y-102327796D01*
X131072611Y-102103164D01*
X131072612Y-102103162D01*
X131074505Y-102098591D01*
X131123857Y-101893023D01*
X131132454Y-101857216D01*
X131132455Y-101857210D01*
X131133609Y-101852403D01*
X131153474Y-101600000D01*
X131133609Y-101347597D01*
X131131687Y-101339588D01*
X131087600Y-101155954D01*
X131074505Y-101101409D01*
X131016176Y-100960590D01*
X130979511Y-100872072D01*
X130979509Y-100872068D01*
X130977616Y-100867498D01*
X130905613Y-100750000D01*
X148506279Y-100750000D01*
X148506279Y-102450000D01*
X148511508Y-102523111D01*
X148532539Y-102594734D01*
X148547055Y-102644171D01*
X148552704Y-102663411D01*
X148557575Y-102670990D01*
X148626886Y-102778841D01*
X148626888Y-102778844D01*
X148631758Y-102786421D01*
X148638568Y-102792322D01*
X148735453Y-102876274D01*
X148735456Y-102876276D01*
X148742265Y-102882176D01*
X148750462Y-102885920D01*
X148750463Y-102885920D01*
X148797027Y-102907185D01*
X148875274Y-102942919D01*
X149020008Y-102963729D01*
X150720008Y-102963729D01*
X150756808Y-102961097D01*
X150786381Y-102958982D01*
X150786382Y-102958982D01*
X150793119Y-102958500D01*
X150883768Y-102931883D01*
X150924773Y-102919843D01*
X150924775Y-102919842D01*
X150933419Y-102917304D01*
X151005997Y-102870661D01*
X151048849Y-102843122D01*
X151048852Y-102843120D01*
X151056429Y-102838250D01*
X151096226Y-102792322D01*
X151146282Y-102734555D01*
X151146284Y-102734552D01*
X151152184Y-102727743D01*
X151212927Y-102594734D01*
X151233737Y-102450000D01*
X151233737Y-101566695D01*
X153587259Y-101566695D01*
X153587556Y-101571848D01*
X153587556Y-101571851D01*
X153593019Y-101666590D01*
X153600118Y-101789715D01*
X153601255Y-101794761D01*
X153601256Y-101794767D01*
X153615330Y-101857216D01*
X153649230Y-102007639D01*
X153733274Y-102214616D01*
X153778848Y-102288986D01*
X153847299Y-102400688D01*
X153849995Y-102405088D01*
X153996258Y-102573938D01*
X154168134Y-102716632D01*
X154361008Y-102829338D01*
X154365833Y-102831180D01*
X154365834Y-102831181D01*
X154402819Y-102845304D01*
X154569700Y-102909030D01*
X154574768Y-102910061D01*
X154574771Y-102910062D01*
X154682025Y-102931883D01*
X154788605Y-102953567D01*
X154793780Y-102953757D01*
X154793782Y-102953757D01*
X155006681Y-102961564D01*
X155006685Y-102961564D01*
X155011845Y-102961753D01*
X155016965Y-102961097D01*
X155016967Y-102961097D01*
X155228296Y-102934025D01*
X155228297Y-102934025D01*
X155233424Y-102933368D01*
X155286968Y-102917304D01*
X155442437Y-102870661D01*
X155442442Y-102870659D01*
X155447392Y-102869174D01*
X155648002Y-102770896D01*
X155829868Y-102641173D01*
X155988104Y-102483489D01*
X156010552Y-102452250D01*
X156118461Y-102302077D01*
X156119784Y-102303028D01*
X156166653Y-102259857D01*
X156236588Y-102247625D01*
X156302034Y-102275144D01*
X156329883Y-102306994D01*
X156389995Y-102405088D01*
X156536258Y-102573938D01*
X156708134Y-102716632D01*
X156901008Y-102829338D01*
X156905833Y-102831180D01*
X156905834Y-102831181D01*
X156942819Y-102845304D01*
X157109700Y-102909030D01*
X157114768Y-102910061D01*
X157114771Y-102910062D01*
X157222025Y-102931883D01*
X157328605Y-102953567D01*
X157333780Y-102953757D01*
X157333782Y-102953757D01*
X157546681Y-102961564D01*
X157546685Y-102961564D01*
X157551845Y-102961753D01*
X157556965Y-102961097D01*
X157556967Y-102961097D01*
X157768296Y-102934025D01*
X157768297Y-102934025D01*
X157773424Y-102933368D01*
X157826968Y-102917304D01*
X157982437Y-102870661D01*
X157982442Y-102870659D01*
X157987392Y-102869174D01*
X158188002Y-102770896D01*
X158369868Y-102641173D01*
X158528104Y-102483489D01*
X158550552Y-102452250D01*
X158655443Y-102306277D01*
X158658461Y-102302077D01*
X158679328Y-102259857D01*
X158755144Y-102106453D01*
X158755145Y-102106451D01*
X158757438Y-102101811D01*
X158822378Y-101888069D01*
X158851537Y-101666590D01*
X158852667Y-101620343D01*
X158853082Y-101603365D01*
X158853082Y-101603361D01*
X158853164Y-101600000D01*
X160942030Y-101600000D01*
X160961895Y-101852403D01*
X160963049Y-101857210D01*
X160963050Y-101857216D01*
X160971647Y-101893023D01*
X161020999Y-102098591D01*
X161022892Y-102103162D01*
X161022893Y-102103164D01*
X161115939Y-102327796D01*
X161117888Y-102332502D01*
X161250176Y-102548376D01*
X161331993Y-102644171D01*
X161409189Y-102734555D01*
X161414606Y-102740898D01*
X161607128Y-102905328D01*
X161823002Y-103037616D01*
X161827572Y-103039509D01*
X161827576Y-103039511D01*
X162052340Y-103132611D01*
X162056913Y-103134505D01*
X162141536Y-103154821D01*
X162298288Y-103192454D01*
X162298294Y-103192455D01*
X162303101Y-103193609D01*
X162555504Y-103213474D01*
X162807907Y-103193609D01*
X162812714Y-103192455D01*
X162812720Y-103192454D01*
X162969472Y-103154821D01*
X163054095Y-103134505D01*
X163058668Y-103132611D01*
X163283432Y-103039511D01*
X163283436Y-103039509D01*
X163288006Y-103037616D01*
X163503880Y-102905328D01*
X163696402Y-102740898D01*
X163701820Y-102734555D01*
X163779015Y-102644171D01*
X163860832Y-102548376D01*
X163993120Y-102332502D01*
X163995070Y-102327796D01*
X164088115Y-102103164D01*
X164088116Y-102103162D01*
X164090009Y-102098591D01*
X164139361Y-101893023D01*
X164147958Y-101857216D01*
X164147959Y-101857210D01*
X164149113Y-101852403D01*
X164168978Y-101600000D01*
X164149113Y-101347597D01*
X164147191Y-101339588D01*
X164103104Y-101155954D01*
X164090009Y-101101409D01*
X164031680Y-100960590D01*
X163995015Y-100872072D01*
X163995013Y-100872068D01*
X163993120Y-100867498D01*
X163860832Y-100651624D01*
X163714639Y-100480455D01*
X163699610Y-100462858D01*
X163696402Y-100459102D01*
X163503880Y-100294672D01*
X163288006Y-100162384D01*
X163283436Y-100160491D01*
X163283432Y-100160489D01*
X163058668Y-100067389D01*
X163058666Y-100067388D01*
X163054095Y-100065495D01*
X162969472Y-100045179D01*
X162812720Y-100007546D01*
X162812714Y-100007545D01*
X162807907Y-100006391D01*
X162555504Y-99986526D01*
X162303101Y-100006391D01*
X162298294Y-100007545D01*
X162298288Y-100007546D01*
X162141536Y-100045179D01*
X162056913Y-100065495D01*
X162052342Y-100067388D01*
X162052340Y-100067389D01*
X161827576Y-100160489D01*
X161827572Y-100160491D01*
X161823002Y-100162384D01*
X161607128Y-100294672D01*
X161414606Y-100459102D01*
X161411398Y-100462858D01*
X161396369Y-100480455D01*
X161250176Y-100651624D01*
X161117888Y-100867498D01*
X161115995Y-100872068D01*
X161115993Y-100872072D01*
X161079328Y-100960590D01*
X161020999Y-101101409D01*
X161007904Y-101155954D01*
X160963818Y-101339588D01*
X160961895Y-101347597D01*
X160942030Y-101600000D01*
X158853164Y-101600000D01*
X158834860Y-101377361D01*
X158780439Y-101160702D01*
X158691362Y-100955840D01*
X158570022Y-100768277D01*
X158419678Y-100603051D01*
X158415627Y-100599852D01*
X158415623Y-100599848D01*
X158248422Y-100467800D01*
X158248418Y-100467798D01*
X158244367Y-100464598D01*
X158048797Y-100356638D01*
X158043928Y-100354914D01*
X158043924Y-100354912D01*
X157843095Y-100283795D01*
X157843091Y-100283794D01*
X157838220Y-100282069D01*
X157833127Y-100281162D01*
X157833124Y-100281161D01*
X157623381Y-100243800D01*
X157623375Y-100243799D01*
X157618292Y-100242894D01*
X157544460Y-100241992D01*
X157400089Y-100240228D01*
X157400087Y-100240228D01*
X157394919Y-100240165D01*
X157174099Y-100273955D01*
X156961764Y-100343357D01*
X156763615Y-100446507D01*
X156759482Y-100449610D01*
X156759479Y-100449612D01*
X156632121Y-100545235D01*
X156584973Y-100580635D01*
X156430637Y-100742138D01*
X156323209Y-100899621D01*
X156268301Y-100944621D01*
X156197776Y-100952792D01*
X156134029Y-100921538D01*
X156113332Y-100897054D01*
X156032830Y-100772617D01*
X156032828Y-100772614D01*
X156030022Y-100768277D01*
X155879678Y-100603051D01*
X155875627Y-100599852D01*
X155875623Y-100599848D01*
X155708422Y-100467800D01*
X155708418Y-100467798D01*
X155704367Y-100464598D01*
X155508797Y-100356638D01*
X155503928Y-100354914D01*
X155503924Y-100354912D01*
X155303095Y-100283795D01*
X155303091Y-100283794D01*
X155298220Y-100282069D01*
X155293127Y-100281162D01*
X155293124Y-100281161D01*
X155083381Y-100243800D01*
X155083375Y-100243799D01*
X155078292Y-100242894D01*
X155004460Y-100241992D01*
X154860089Y-100240228D01*
X154860087Y-100240228D01*
X154854919Y-100240165D01*
X154634099Y-100273955D01*
X154421764Y-100343357D01*
X154223615Y-100446507D01*
X154219482Y-100449610D01*
X154219479Y-100449612D01*
X154092121Y-100545235D01*
X154044973Y-100580635D01*
X153890637Y-100742138D01*
X153764751Y-100926680D01*
X153749011Y-100960590D01*
X153685768Y-101096836D01*
X153670696Y-101129305D01*
X153610997Y-101344570D01*
X153587259Y-101566695D01*
X151233737Y-101566695D01*
X151233737Y-100750000D01*
X151228508Y-100676889D01*
X151200245Y-100580635D01*
X151189851Y-100545235D01*
X151189850Y-100545233D01*
X151187312Y-100536589D01*
X151143104Y-100467800D01*
X151113130Y-100421159D01*
X151113128Y-100421156D01*
X151108258Y-100413579D01*
X151101448Y-100407678D01*
X151004563Y-100323726D01*
X151004560Y-100323724D01*
X150997751Y-100317824D01*
X150864742Y-100257081D01*
X150720008Y-100236271D01*
X149020008Y-100236271D01*
X149011032Y-100236913D01*
X148953635Y-100241018D01*
X148953634Y-100241018D01*
X148946897Y-100241500D01*
X148867390Y-100264845D01*
X148815243Y-100280157D01*
X148815241Y-100280158D01*
X148806597Y-100282696D01*
X148799018Y-100287567D01*
X148691167Y-100356878D01*
X148691164Y-100356880D01*
X148683587Y-100361750D01*
X148677686Y-100368560D01*
X148593734Y-100465445D01*
X148593732Y-100465448D01*
X148587832Y-100472257D01*
X148527089Y-100605266D01*
X148506279Y-100750000D01*
X130905613Y-100750000D01*
X130845328Y-100651624D01*
X130699135Y-100480455D01*
X130684106Y-100462858D01*
X130680898Y-100459102D01*
X130488376Y-100294672D01*
X130272502Y-100162384D01*
X130267932Y-100160491D01*
X130267928Y-100160489D01*
X130043164Y-100067389D01*
X130043162Y-100067388D01*
X130038591Y-100065495D01*
X129953968Y-100045179D01*
X129797216Y-100007546D01*
X129797210Y-100007545D01*
X129792403Y-100006391D01*
X129540000Y-99986526D01*
X129287597Y-100006391D01*
X129282790Y-100007545D01*
X129282784Y-100007546D01*
X129126032Y-100045179D01*
X129041409Y-100065495D01*
X129036838Y-100067388D01*
X129036836Y-100067389D01*
X128812072Y-100160489D01*
X128812068Y-100160491D01*
X128807498Y-100162384D01*
X128591624Y-100294672D01*
X128399102Y-100459102D01*
X128395894Y-100462858D01*
X128380865Y-100480455D01*
X128234672Y-100651624D01*
X128102384Y-100867498D01*
X128100491Y-100872068D01*
X128100489Y-100872072D01*
X128063824Y-100960590D01*
X128005495Y-101101409D01*
X127992400Y-101155954D01*
X127948314Y-101339588D01*
X127946391Y-101347597D01*
X127926526Y-101600000D01*
X127512176Y-101600000D01*
X127509147Y-101576307D01*
X127509018Y-101575302D01*
X127508000Y-101559321D01*
X127508000Y-93852490D01*
X145038367Y-93852490D01*
X145058849Y-94112739D01*
X145060003Y-94117546D01*
X145060004Y-94117552D01*
X145098419Y-94277559D01*
X145119791Y-94366579D01*
X145219692Y-94607761D01*
X145356092Y-94830346D01*
X145525632Y-95028853D01*
X145724139Y-95198393D01*
X145946724Y-95334793D01*
X145951294Y-95336686D01*
X145951298Y-95336688D01*
X146183333Y-95432800D01*
X146187906Y-95434694D01*
X146276926Y-95456066D01*
X146436933Y-95494481D01*
X146436939Y-95494482D01*
X146441746Y-95495636D01*
X146701995Y-95516118D01*
X146962244Y-95495636D01*
X146967051Y-95494482D01*
X146967057Y-95494481D01*
X147127064Y-95456066D01*
X147216084Y-95434694D01*
X147220657Y-95432800D01*
X147452692Y-95336688D01*
X147452696Y-95336686D01*
X147457266Y-95334793D01*
X147679851Y-95198393D01*
X147878358Y-95028853D01*
X148047898Y-94830346D01*
X148184298Y-94607761D01*
X148284199Y-94366579D01*
X148305571Y-94277559D01*
X148343986Y-94117552D01*
X148343987Y-94117546D01*
X148345141Y-94112739D01*
X148365623Y-93852490D01*
X148345141Y-93592241D01*
X148343987Y-93587434D01*
X148343986Y-93587428D01*
X148285354Y-93343213D01*
X148284199Y-93338401D01*
X148184298Y-93097219D01*
X148047898Y-92874634D01*
X147878358Y-92676127D01*
X147679851Y-92506587D01*
X147457266Y-92370187D01*
X147452696Y-92368294D01*
X147452692Y-92368292D01*
X147220657Y-92272180D01*
X147220655Y-92272179D01*
X147216084Y-92270286D01*
X147127064Y-92248914D01*
X146967057Y-92210499D01*
X146967051Y-92210498D01*
X146962244Y-92209344D01*
X146701995Y-92188862D01*
X146441746Y-92209344D01*
X146436939Y-92210498D01*
X146436933Y-92210499D01*
X146276926Y-92248914D01*
X146187906Y-92270286D01*
X146183335Y-92272179D01*
X146183333Y-92272180D01*
X145951298Y-92368292D01*
X145951294Y-92368294D01*
X145946724Y-92370187D01*
X145724139Y-92506587D01*
X145525632Y-92676127D01*
X145356092Y-92874634D01*
X145219692Y-93097219D01*
X145119791Y-93338401D01*
X145118636Y-93343213D01*
X145060004Y-93587428D01*
X145060003Y-93587434D01*
X145058849Y-93592241D01*
X145038367Y-93852490D01*
X127508000Y-93852490D01*
X127508000Y-81288005D01*
X128208274Y-81288005D01*
X128208274Y-82288005D01*
X128213503Y-82361116D01*
X128234532Y-82432734D01*
X128250504Y-82487128D01*
X128254699Y-82501416D01*
X128270277Y-82525655D01*
X128328881Y-82616846D01*
X128328883Y-82616849D01*
X128333753Y-82624426D01*
X128340563Y-82630327D01*
X128437448Y-82714279D01*
X128437451Y-82714281D01*
X128444260Y-82720181D01*
X128577269Y-82780924D01*
X128722003Y-82801734D01*
X129722003Y-82801734D01*
X129753989Y-82799446D01*
X129788376Y-82796987D01*
X129788377Y-82796987D01*
X129795114Y-82796505D01*
X129874621Y-82773160D01*
X129926768Y-82757848D01*
X129926770Y-82757847D01*
X129935414Y-82755309D01*
X129990082Y-82720176D01*
X130050844Y-82681127D01*
X130050847Y-82681125D01*
X130058424Y-82676255D01*
X130089983Y-82639834D01*
X130148277Y-82572560D01*
X130148279Y-82572557D01*
X130154179Y-82565748D01*
X130174222Y-82521861D01*
X130186053Y-82495953D01*
X130214922Y-82432739D01*
X130235732Y-82288005D01*
X130235732Y-81773856D01*
X132908723Y-81773856D01*
X132925272Y-81970939D01*
X132979787Y-82161055D01*
X132982606Y-82166540D01*
X133067373Y-82331477D01*
X133070191Y-82336961D01*
X133193039Y-82491958D01*
X133197732Y-82495952D01*
X133197733Y-82495953D01*
X133270110Y-82557550D01*
X133343654Y-82620141D01*
X133516298Y-82716629D01*
X133704396Y-82777745D01*
X133900781Y-82801163D01*
X133906916Y-82800691D01*
X133906918Y-82800691D01*
X134091834Y-82786462D01*
X134091838Y-82786461D01*
X134097976Y-82785989D01*
X134288467Y-82732803D01*
X134293971Y-82730023D01*
X134293973Y-82730022D01*
X134459499Y-82646409D01*
X134459501Y-82646408D01*
X134465000Y-82643630D01*
X134620851Y-82521866D01*
X134750082Y-82372150D01*
X134847773Y-82200184D01*
X134910201Y-82012518D01*
X134934989Y-81816300D01*
X134935384Y-81788005D01*
X134916084Y-81591172D01*
X134910126Y-81571436D01*
X134860701Y-81407736D01*
X134858920Y-81401836D01*
X134798393Y-81288000D01*
X136483253Y-81288000D01*
X136483253Y-82288000D01*
X136488482Y-82361111D01*
X136506894Y-82423816D01*
X136525483Y-82487123D01*
X136529678Y-82501411D01*
X136542824Y-82521866D01*
X136603860Y-82616841D01*
X136603862Y-82616844D01*
X136608732Y-82624421D01*
X136615542Y-82630322D01*
X136712427Y-82714274D01*
X136712430Y-82714276D01*
X136719239Y-82720176D01*
X136852248Y-82780919D01*
X136996982Y-82801729D01*
X137996982Y-82801729D01*
X138028968Y-82799441D01*
X138063355Y-82796982D01*
X138063356Y-82796982D01*
X138070093Y-82796500D01*
X138149600Y-82773155D01*
X138201747Y-82757843D01*
X138201749Y-82757842D01*
X138210393Y-82755304D01*
X138267610Y-82718533D01*
X138325823Y-82681122D01*
X138325826Y-82681120D01*
X138333403Y-82676250D01*
X138339304Y-82669440D01*
X138423256Y-82572555D01*
X138423258Y-82572552D01*
X138429158Y-82565743D01*
X138489901Y-82432734D01*
X138510711Y-82288000D01*
X138510711Y-81773851D01*
X141183702Y-81773851D01*
X141200251Y-81970934D01*
X141254766Y-82161050D01*
X141271868Y-82194326D01*
X141322304Y-82292463D01*
X141345170Y-82336956D01*
X141468018Y-82491953D01*
X141472711Y-82495947D01*
X141472712Y-82495948D01*
X141545089Y-82557545D01*
X141618633Y-82620136D01*
X141791277Y-82716624D01*
X141979375Y-82777740D01*
X142175760Y-82801158D01*
X142181895Y-82800686D01*
X142181897Y-82800686D01*
X142366813Y-82786457D01*
X142366817Y-82786456D01*
X142372955Y-82785984D01*
X142563446Y-82732798D01*
X142568950Y-82730018D01*
X142568952Y-82730017D01*
X142734478Y-82646404D01*
X142734480Y-82646403D01*
X142739979Y-82643625D01*
X142871129Y-82541160D01*
X142890974Y-82525655D01*
X142895830Y-82521861D01*
X142918193Y-82495953D01*
X143021032Y-82376813D01*
X143021033Y-82376811D01*
X143025061Y-82372145D01*
X143122752Y-82200179D01*
X143185180Y-82012513D01*
X143209968Y-81816295D01*
X143210363Y-81788000D01*
X143191063Y-81591167D01*
X143185108Y-81571441D01*
X143135680Y-81407731D01*
X143133899Y-81401831D01*
X143041049Y-81227204D01*
X142923635Y-81083240D01*
X142919943Y-81078713D01*
X142919940Y-81078710D01*
X142916048Y-81073938D01*
X142907680Y-81067015D01*
X142768408Y-80951799D01*
X142768404Y-80951797D01*
X142763658Y-80947870D01*
X142589684Y-80853802D01*
X142400751Y-80795318D01*
X142394626Y-80794674D01*
X142394625Y-80794674D01*
X142210187Y-80775289D01*
X142210185Y-80775289D01*
X142204058Y-80774645D01*
X142129789Y-80781404D01*
X142013234Y-80792011D01*
X142013231Y-80792012D01*
X142007095Y-80792570D01*
X142001189Y-80794308D01*
X142001185Y-80794309D01*
X141896059Y-80825249D01*
X141817364Y-80848410D01*
X141811906Y-80851263D01*
X141811902Y-80851265D01*
X141791883Y-80861731D01*
X141642093Y-80940040D01*
X141487958Y-81063968D01*
X141360829Y-81215474D01*
X141357862Y-81220872D01*
X141357858Y-81220877D01*
X141279078Y-81364180D01*
X141265550Y-81388787D01*
X141263689Y-81394654D01*
X141263688Y-81394656D01*
X141259539Y-81407736D01*
X141205748Y-81577306D01*
X141183702Y-81773851D01*
X138510711Y-81773851D01*
X138510711Y-81288000D01*
X138505482Y-81214889D01*
X138464286Y-81074589D01*
X138428211Y-81018455D01*
X138390104Y-80959159D01*
X138390102Y-80959156D01*
X138385232Y-80951579D01*
X138376379Y-80943908D01*
X138281537Y-80861726D01*
X138281534Y-80861724D01*
X138274725Y-80855824D01*
X138254692Y-80846675D01*
X138192256Y-80818162D01*
X138141716Y-80795081D01*
X137996982Y-80774271D01*
X136996982Y-80774271D01*
X136982679Y-80775294D01*
X136930609Y-80779018D01*
X136930608Y-80779018D01*
X136923871Y-80779500D01*
X136844364Y-80802845D01*
X136792217Y-80818157D01*
X136792215Y-80818158D01*
X136783571Y-80820696D01*
X136775992Y-80825567D01*
X136668141Y-80894878D01*
X136668138Y-80894880D01*
X136660561Y-80899750D01*
X136654660Y-80906560D01*
X136570708Y-81003445D01*
X136570706Y-81003448D01*
X136564806Y-81010257D01*
X136504063Y-81143266D01*
X136483253Y-81288000D01*
X134798393Y-81288000D01*
X134766070Y-81227209D01*
X134690926Y-81135073D01*
X134644964Y-81078718D01*
X134644959Y-81078713D01*
X134641069Y-81073943D01*
X134634722Y-81068692D01*
X134493429Y-80951804D01*
X134493422Y-80951799D01*
X134488679Y-80947875D01*
X134314705Y-80853807D01*
X134125772Y-80795323D01*
X134119647Y-80794679D01*
X134119646Y-80794679D01*
X133935208Y-80775294D01*
X133935206Y-80775294D01*
X133929079Y-80774650D01*
X133854865Y-80781404D01*
X133738255Y-80792016D01*
X133738252Y-80792017D01*
X133732116Y-80792575D01*
X133726210Y-80794313D01*
X133726206Y-80794314D01*
X133621080Y-80825254D01*
X133542385Y-80848415D01*
X133536927Y-80851268D01*
X133536923Y-80851270D01*
X133453510Y-80894878D01*
X133367114Y-80940045D01*
X133212979Y-81063973D01*
X133085850Y-81215479D01*
X133082883Y-81220877D01*
X133082879Y-81220882D01*
X133004099Y-81364185D01*
X132990571Y-81388792D01*
X132988711Y-81394656D01*
X132988709Y-81394661D01*
X132932633Y-81571436D01*
X132930769Y-81577311D01*
X132908723Y-81773856D01*
X130235732Y-81773856D01*
X130235732Y-81288005D01*
X130231384Y-81227209D01*
X130230985Y-81221632D01*
X130230985Y-81221631D01*
X130230503Y-81214894D01*
X130189307Y-81074594D01*
X130147960Y-81010257D01*
X130115125Y-80959164D01*
X130115121Y-80959159D01*
X130110253Y-80951584D01*
X130102584Y-80944939D01*
X130006558Y-80861731D01*
X130006555Y-80861729D01*
X129999746Y-80855829D01*
X129979702Y-80846675D01*
X129922815Y-80820696D01*
X129866737Y-80795086D01*
X129722003Y-80774276D01*
X128722003Y-80774276D01*
X128690017Y-80776564D01*
X128655630Y-80779023D01*
X128655629Y-80779023D01*
X128648892Y-80779505D01*
X128569385Y-80802850D01*
X128517238Y-80818162D01*
X128517236Y-80818163D01*
X128508592Y-80820701D01*
X128501013Y-80825572D01*
X128393162Y-80894883D01*
X128393159Y-80894885D01*
X128385582Y-80899755D01*
X128379681Y-80906565D01*
X128295729Y-81003450D01*
X128295727Y-81003453D01*
X128289827Y-81010262D01*
X128229084Y-81143271D01*
X128208274Y-81288005D01*
X127508000Y-81288005D01*
X127508000Y-79487974D01*
X127528002Y-79419853D01*
X127544905Y-79398879D01*
X127557862Y-79385922D01*
X127574686Y-79371804D01*
X127596511Y-79356522D01*
X127737974Y-79257468D01*
X127756985Y-79246492D01*
X127937642Y-79162249D01*
X127958282Y-79154737D01*
X128000375Y-79143458D01*
X128150822Y-79103146D01*
X128172445Y-79099334D01*
X128328484Y-79085682D01*
X128376526Y-79081479D01*
X128387507Y-79081000D01*
X163682493Y-79081000D01*
X163693474Y-79081479D01*
G37*
%TD.AperFunction*%
%TD*%
M02*
