M48
; DRILL file {KiCad (5.99.0-11382-g00f1b609c4)} date Sun Aug 15 08:59:10 2021
; FORMAT={-:-/ absolute / inch / decimal}
; #@! TF.CreationDate,2021-08-15T08:59:10-05:00
; #@! TF.GenerationSoftware,Kicad,Pcbnew,(5.99.0-11382-g00f1b609c4)
; #@! TF.FileFunction,Plated,1,4,PTH
FMAT,2
INCH
; #@! TA.AperFunction,Plated,PTH,ViaDrill
T1C0.0180
; #@! TA.AperFunction,Plated,PTH,ComponentDrill
T2C0.0236
; #@! TA.AperFunction,Plated,PTH,ComponentDrill
T3C0.0394
; #@! TA.AperFunction,Plated,PTH,ComponentDrill
T4C0.0413
; #@! TA.AperFunction,Plated,PTH,ComponentDrill
T5C0.0472
; #@! TA.AperFunction,Plated,PTH,ComponentDrill
T6C0.0492
%
G90
G05
T1
X5.363Y-3.46
X5.573Y-3.55
T2
X5.0875Y-3.22
X5.1574Y-2.3884
X5.2086Y-2.1916
X5.2725Y-3.22
X5.4133Y-3.22
X5.5983Y-3.22
T3
X5.7757Y-3.695
X5.9004Y-4.0
X5.9804Y-2.5375
X6.0004Y-4.0
X6.1004Y-4.0
X6.1772Y-2.5375
X6.2004Y-4.0
X6.382Y-3.695
T4
X6.233Y-2.16
X6.233Y-2.36
T5
X5.2725Y-2.4917
X5.2725Y-2.7672
X5.5983Y-2.4917
X5.5983Y-2.7672
T6
X5.3313Y-2.338
X5.4297Y-2.1411
X5.6262Y-2.338
X5.7246Y-2.1411
X5.921Y-2.338
X6.0194Y-2.1411
T0
M30
