%TF.GenerationSoftware,KiCad,Pcbnew,(5.99.0-10447-gf083f043cb)*%
%TF.CreationDate,2021-07-11T09:51:57-05:00*%
%TF.ProjectId,reptile-monitor-power,72657074-696c-4652-9d6d-6f6e69746f72,rev?*%
%TF.SameCoordinates,Original*%
%TF.FileFunction,Legend,Top*%
%TF.FilePolarity,Positive*%
%FSLAX46Y46*%
G04 Gerber Fmt 4.6, Leading zero omitted, Abs format (unit mm)*
G04 Created by KiCad (PCBNEW (5.99.0-10447-gf083f043cb)) date 2021-07-11 09:51:57*
%MOMM*%
%LPD*%
G01*
G04 APERTURE LIST*
%ADD10C,0.300000*%
%ADD11C,0.127000*%
%ADD12C,0.150000*%
%ADD13C,0.200000*%
%ADD14C,0.120000*%
%ADD15C,0.100000*%
%ADD16C,0.250000*%
G04 APERTURE END LIST*
D10*
X148011428Y-84903571D02*
X148011428Y-85975000D01*
X147940000Y-86189285D01*
X147797142Y-86332142D01*
X147582857Y-86403571D01*
X147440000Y-86403571D01*
X149440000Y-86403571D02*
X148725714Y-86403571D01*
X148725714Y-84903571D01*
X150797142Y-86260714D02*
X150725714Y-86332142D01*
X150511428Y-86403571D01*
X150368571Y-86403571D01*
X150154285Y-86332142D01*
X150011428Y-86189285D01*
X149940000Y-86046428D01*
X149868571Y-85760714D01*
X149868571Y-85546428D01*
X149940000Y-85260714D01*
X150011428Y-85117857D01*
X150154285Y-84975000D01*
X150368571Y-84903571D01*
X150511428Y-84903571D01*
X150725714Y-84975000D01*
X150797142Y-85046428D01*
X151868571Y-84903571D02*
X151868571Y-85975000D01*
X151797142Y-86189285D01*
X151654285Y-86332142D01*
X151440000Y-86403571D01*
X151297142Y-86403571D01*
X153297142Y-86403571D02*
X152582857Y-86403571D01*
X152582857Y-84903571D01*
X154654285Y-86260714D02*
X154582857Y-86332142D01*
X154368571Y-86403571D01*
X154225714Y-86403571D01*
X154011428Y-86332142D01*
X153868571Y-86189285D01*
X153797142Y-86046428D01*
X153725714Y-85760714D01*
X153725714Y-85546428D01*
X153797142Y-85260714D01*
X153868571Y-85117857D01*
X154011428Y-84975000D01*
X154225714Y-84903571D01*
X154368571Y-84903571D01*
X154582857Y-84975000D01*
X154654285Y-85046428D01*
X155725714Y-84903571D02*
X155725714Y-85975000D01*
X155654285Y-86189285D01*
X155511428Y-86332142D01*
X155297142Y-86403571D01*
X155154285Y-86403571D01*
X157154285Y-86403571D02*
X156440000Y-86403571D01*
X156440000Y-84903571D01*
X158511428Y-86260714D02*
X158440000Y-86332142D01*
X158225714Y-86403571D01*
X158082857Y-86403571D01*
X157868571Y-86332142D01*
X157725714Y-86189285D01*
X157654285Y-86046428D01*
X157582857Y-85760714D01*
X157582857Y-85546428D01*
X157654285Y-85260714D01*
X157725714Y-85117857D01*
X157868571Y-84975000D01*
X158082857Y-84903571D01*
X158225714Y-84903571D01*
X158440000Y-84975000D01*
X158511428Y-85046428D01*
X159582857Y-84903571D02*
X159582857Y-85975000D01*
X159511428Y-86189285D01*
X159368571Y-86332142D01*
X159154285Y-86403571D01*
X159011428Y-86403571D01*
X161011428Y-86403571D02*
X160297142Y-86403571D01*
X160297142Y-84903571D01*
X162368571Y-86260714D02*
X162297142Y-86332142D01*
X162082857Y-86403571D01*
X161940000Y-86403571D01*
X161725714Y-86332142D01*
X161582857Y-86189285D01*
X161511428Y-86046428D01*
X161440000Y-85760714D01*
X161440000Y-85546428D01*
X161511428Y-85260714D01*
X161582857Y-85117857D01*
X161725714Y-84975000D01*
X161940000Y-84903571D01*
X162082857Y-84903571D01*
X162297142Y-84975000D01*
X162368571Y-85046428D01*
D11*
%TO.C,F1*%
X160032333Y-62311642D02*
X159820666Y-62311642D01*
X159820666Y-62644261D02*
X159820666Y-62009261D01*
X160123047Y-62009261D01*
X160697571Y-62644261D02*
X160334714Y-62644261D01*
X160516142Y-62644261D02*
X160516142Y-62009261D01*
X160455666Y-62099976D01*
X160395190Y-62160452D01*
X160334714Y-62190690D01*
%TO.C,K1*%
X139107722Y-77710266D02*
X139107722Y-77075266D01*
X139470579Y-77710266D02*
X139198436Y-77347409D01*
X139470579Y-77075266D02*
X139107722Y-77438124D01*
X140075341Y-77710266D02*
X139712484Y-77710266D01*
X139893912Y-77710266D02*
X139893912Y-77075266D01*
X139833436Y-77165981D01*
X139772960Y-77226457D01*
X139712484Y-77256695D01*
D12*
%TO.C,J4*%
X146992380Y-101933333D02*
X147706666Y-101933333D01*
X147849523Y-101980952D01*
X147944761Y-102076190D01*
X147992380Y-102219047D01*
X147992380Y-102314285D01*
X147325714Y-101028571D02*
X147992380Y-101028571D01*
X146944761Y-101266666D02*
X147659047Y-101504761D01*
X147659047Y-100885714D01*
D11*
%TO.C,K2*%
X130979732Y-77710271D02*
X130979732Y-77075271D01*
X131342589Y-77710271D02*
X131070446Y-77347414D01*
X131342589Y-77075271D02*
X130979732Y-77438129D01*
X131584494Y-77135748D02*
X131614732Y-77105510D01*
X131675208Y-77075271D01*
X131826399Y-77075271D01*
X131886875Y-77105510D01*
X131917113Y-77135748D01*
X131947351Y-77196224D01*
X131947351Y-77256700D01*
X131917113Y-77347414D01*
X131554256Y-77710271D01*
X131947351Y-77710271D01*
%TO.C,PS1*%
X153630923Y-78853255D02*
X153630923Y-78218255D01*
X153872828Y-78218255D01*
X153933304Y-78248494D01*
X153963542Y-78278732D01*
X153993780Y-78339208D01*
X153993780Y-78429922D01*
X153963542Y-78490398D01*
X153933304Y-78520636D01*
X153872828Y-78550874D01*
X153630923Y-78550874D01*
X154235685Y-78823017D02*
X154326399Y-78853255D01*
X154477590Y-78853255D01*
X154538066Y-78823017D01*
X154568304Y-78792779D01*
X154598542Y-78732303D01*
X154598542Y-78671827D01*
X154568304Y-78611351D01*
X154538066Y-78581113D01*
X154477590Y-78550874D01*
X154356637Y-78520636D01*
X154296161Y-78490398D01*
X154265923Y-78460160D01*
X154235685Y-78399684D01*
X154235685Y-78339208D01*
X154265923Y-78278732D01*
X154296161Y-78248494D01*
X154356637Y-78218255D01*
X154507828Y-78218255D01*
X154598542Y-78248494D01*
X155203304Y-78853255D02*
X154840447Y-78853255D01*
X155021875Y-78853255D02*
X155021875Y-78218255D01*
X154961399Y-78308970D01*
X154900923Y-78369446D01*
X154840447Y-78399684D01*
%TO.C,J2*%
X146042496Y-51234730D02*
X146344876Y-51234730D01*
X146344876Y-51869730D01*
X145709876Y-51869730D02*
X145588924Y-51869730D01*
X145528448Y-51839492D01*
X145467972Y-51779015D01*
X145437734Y-51658063D01*
X145437734Y-51446396D01*
X145467972Y-51325444D01*
X145528448Y-51264968D01*
X145588924Y-51234730D01*
X145709876Y-51234730D01*
X145770353Y-51264968D01*
X145830829Y-51325444D01*
X145861067Y-51446396D01*
X145861067Y-51658063D01*
X145830829Y-51779015D01*
X145770353Y-51839492D01*
X145709876Y-51869730D01*
X145195829Y-51416158D02*
X144893448Y-51416158D01*
X145256305Y-51234730D02*
X145044638Y-51869730D01*
X144832972Y-51234730D01*
X144621305Y-51234730D02*
X144621305Y-51869730D01*
X144470115Y-51869730D01*
X144379400Y-51839492D01*
X144318924Y-51779015D01*
X144288686Y-51718539D01*
X144258448Y-51597587D01*
X144258448Y-51506872D01*
X144288686Y-51385920D01*
X144318924Y-51325444D01*
X144379400Y-51264968D01*
X144470115Y-51234730D01*
X144621305Y-51234730D01*
X144137496Y-51174253D02*
X143653686Y-51174253D01*
X143532734Y-51809253D02*
X143502496Y-51839492D01*
X143442019Y-51869730D01*
X143290829Y-51869730D01*
X143230353Y-51839492D01*
X143200115Y-51809253D01*
X143169876Y-51748777D01*
X143169876Y-51688301D01*
X143200115Y-51597587D01*
X143562972Y-51234730D01*
X143169876Y-51234730D01*
%TO.C,J1*%
X153455401Y-51416169D02*
X153153020Y-51416169D01*
X153515877Y-51234741D02*
X153304211Y-51869741D01*
X153092544Y-51234741D01*
X152518020Y-51295217D02*
X152548258Y-51264979D01*
X152638973Y-51234741D01*
X152699449Y-51234741D01*
X152790163Y-51264979D01*
X152850639Y-51325455D01*
X152880877Y-51385931D01*
X152911116Y-51506883D01*
X152911116Y-51597598D01*
X152880877Y-51718550D01*
X152850639Y-51779026D01*
X152790163Y-51839503D01*
X152699449Y-51869741D01*
X152638973Y-51869741D01*
X152548258Y-51839503D01*
X152518020Y-51809264D01*
X152397068Y-51174264D02*
X151913258Y-51174264D01*
X151762068Y-51234741D02*
X151762068Y-51869741D01*
X151459687Y-51234741D02*
X151459687Y-51869741D01*
X151096830Y-51234741D01*
X151096830Y-51869741D01*
%TO.C,J3*%
X138552493Y-51234728D02*
X138854873Y-51234728D01*
X138854873Y-51869728D01*
X138219873Y-51869728D02*
X138098921Y-51869728D01*
X138038445Y-51839490D01*
X137977969Y-51779013D01*
X137947731Y-51658061D01*
X137947731Y-51446394D01*
X137977969Y-51325442D01*
X138038445Y-51264966D01*
X138098921Y-51234728D01*
X138219873Y-51234728D01*
X138280350Y-51264966D01*
X138340826Y-51325442D01*
X138371064Y-51446394D01*
X138371064Y-51658061D01*
X138340826Y-51779013D01*
X138280350Y-51839490D01*
X138219873Y-51869728D01*
X137705826Y-51416156D02*
X137403445Y-51416156D01*
X137766302Y-51234728D02*
X137554635Y-51869728D01*
X137342969Y-51234728D01*
X137131302Y-51234728D02*
X137131302Y-51869728D01*
X136980112Y-51869728D01*
X136889397Y-51839490D01*
X136828921Y-51779013D01*
X136798683Y-51718537D01*
X136768445Y-51597585D01*
X136768445Y-51506870D01*
X136798683Y-51385918D01*
X136828921Y-51325442D01*
X136889397Y-51264966D01*
X136980112Y-51234728D01*
X137131302Y-51234728D01*
X136647493Y-51174251D02*
X136163683Y-51174251D01*
X135679873Y-51234728D02*
X136042731Y-51234728D01*
X135861302Y-51234728D02*
X135861302Y-51869728D01*
X135921778Y-51779013D01*
X135982254Y-51718537D01*
X136042731Y-51688299D01*
D13*
%TO.C,F1*%
X164367000Y-64230000D02*
X164367000Y-62230000D01*
X155867000Y-60230000D02*
X155867000Y-64230000D01*
X155867000Y-64230000D02*
X164367000Y-64230000D01*
D12*
%TO.C,K1*%
X136146982Y-85637004D02*
X136146982Y-64637003D01*
X143446983Y-85637004D02*
X136146982Y-85637004D01*
X143446983Y-85637004D02*
X143446983Y-64637003D01*
X143446983Y-64637003D02*
X136146982Y-64637003D01*
D14*
%TO.C,J4*%
X149870000Y-102930000D02*
X148540000Y-102930000D01*
X151140000Y-102930000D02*
X151140000Y-100270000D01*
X148540000Y-102930000D02*
X148540000Y-101600000D01*
X158820000Y-102930000D02*
X158820000Y-100270000D01*
X151140000Y-102930000D02*
X158820000Y-102930000D01*
X151140000Y-100270000D02*
X158820000Y-100270000D01*
D12*
%TO.C,K2*%
X127872003Y-85637009D02*
X127872003Y-64637008D01*
X135172004Y-85637009D02*
X127872003Y-85637009D01*
X135172004Y-85637009D02*
X135172004Y-64637008D01*
X135172004Y-64637008D02*
X127872003Y-64637008D01*
D14*
%TO.C,PS1*%
X164501995Y-64651494D02*
X144301995Y-64651494D01*
X157901995Y-64261494D02*
X155891995Y-64261494D01*
X144301995Y-64651494D02*
X144301995Y-98851494D01*
X164501995Y-98851494D02*
X164501995Y-64651494D01*
X144301995Y-98851494D02*
X164501995Y-98851494D01*
D12*
%TO.C,RV1*%
X129349000Y-56404000D02*
X129349000Y-63404000D01*
X132749000Y-63404000D02*
X129349000Y-63404000D01*
X132749000Y-56404000D02*
X132749000Y-63404000D01*
X132749000Y-56404000D02*
X129349000Y-56404000D01*
D15*
%TO.C,J2*%
X147904510Y-64282995D02*
X141404510Y-64282995D01*
X141404510Y-52282995D02*
X147904510Y-52282995D01*
X141404510Y-64282995D02*
X141404510Y-52282995D01*
X147904510Y-52282995D02*
X147904510Y-64282995D01*
%TO.C,J1*%
X148893000Y-52283000D02*
X155393000Y-52283000D01*
X155393000Y-64283000D02*
X148893000Y-64283000D01*
X148893000Y-64283000D02*
X148893000Y-52283000D01*
X155393000Y-52283000D02*
X155393000Y-64283000D01*
%TO.C,J3*%
X133914507Y-52282995D02*
X140414507Y-52282995D01*
X140414507Y-52282995D02*
X140414507Y-64282995D01*
X140414507Y-64282995D02*
X133914507Y-64282995D01*
X133914507Y-64282995D02*
X133914507Y-52282995D01*
D12*
%TO.C,U1*%
X138984000Y-89051000D02*
X138984000Y-92051000D01*
X138384000Y-89051000D02*
X138984000Y-89051000D01*
X138984000Y-92051000D02*
X138384000Y-92051000D01*
X138384000Y-92051000D02*
X138384000Y-89051000D01*
D16*
X136534000Y-89601000D02*
G75*
G03*
X136534000Y-89601000I-125000J0D01*
G01*
%TD*%
M02*
